<svg width="48" height="45" fill="none" xmlns="http://www.w3.org/2000/svg"><path d="M47.072 25.143a5.499 5.499 0 0 0-4.656-4.657v-1.428c0-3.94-2.995-7.148-6.677-7.148-3.575 0-6.569 3.11-6.676 6.934h.045l-.045.008v15.48c0 4.948-3.7 8.967-8.248 8.967-4.548 0-8.247-4.024-8.247-8.967V32.99c1.139 0 2.356-.826 2.356-3.142v-1.976c5.041-1.289 8.64-5.617 8.64-10.525V15.71h-1.57L21.96 5.487a3.931 3.931 0 0 0-3.231-3.845 2.344 2.344 0 1 0-.053 1.602 2.356 2.356 0 0 1 1.711 2.248l.035 10.218h-1.57v1.66a6.246 6.246 0 0 1-4.522 5.861 7.143 7.143 0 0 1-4.32 0 6.243 6.243 0 0 1-4.512-5.86v-1.66H3.142V5.498a2.356 2.356 0 0 1 1.744-2.265 2.367 2.367 0 1 0-.049-1.596A3.928 3.928 0 0 0 1.571 5.5V15.71H0v1.634c0 4.913 3.601 9.244 8.64 10.53v1.975c0 2.316 1.218 3.142 2.357 3.142v1.34c0 5.813 4.404 10.539 9.818 10.539 5.415 0 9.819-4.731 9.819-10.538V18.89c.078-2.981 2.37-5.407 5.105-5.407 2.816 0 5.106 2.501 5.106 5.577v1.426a5.498 5.498 0 1 0 6.227 4.657zm-30.577-22a.786.786 0 1 1 0-1.571.786.786 0 0 1 0 1.57zM7.07 1.572a.786.786 0 1 1 0 1.57.786.786 0 0 1 0-1.57zM1.571 17.344v-.063h2.356v.09a7.805 7.805 0 0 0 5.607 7.354 8.741 8.741 0 0 0 5.277 0 7.806 7.806 0 0 0 5.611-7.354v-.09h1.572v.063c0 4.37-3.369 8.215-8.012 9.145a11.21 11.21 0 0 1-4.4-.002c-4.643-.928-8.011-4.773-8.011-9.143zm9.426 14.076c-.707 0-.786-1.1-.786-1.571v-1.667c.063.008.127.011.191.018l.236.021c.371.033.746.055 1.124.056h.04c.376 0 .75-.023 1.12-.056l.242-.021c.062-.008.126-.01.188-.018v1.667c0 .471-.078 1.57-.785 1.57h-1.57zm30.633-1.571a3.927 3.927 0 1 1 0-7.855 3.927 3.927 0 0 1 0 7.855z" fill="#0079C8"/></svg>