<svg width="38" height="38" fill="none" xmlns="http://www.w3.org/2000/svg"><g clip-path="url(#clip0)" fill="#0079C8"><path d="M31.826 8.22a14.105 14.105 0 0 0-3.05-4.287 14.127 14.127 0 0 0-4.413-2.88A14.033 14.033 0 0 0 19.006 0a14.026 14.026 0 0 0-7.884 2.408 14.216 14.216 0 0 0-3.81 3.81 14.026 14.026 0 0 0-2.408 7.884c.003 1.059.208 2.255.607 3.556.358 1.167.867 2.42 1.557 3.833.874 1.78 2.015 3.74 3.393 5.828a91.836 91.836 0 0 0 3.729 5.216 110.517 110.517 0 0 0 3.199 3.98H12.92a.742.742 0 0 0 0 1.485h12.172a.742.742 0 0 0 0-1.484h-4.467a109.814 109.814 0 0 0 3.57-4.471 87.616 87.616 0 0 0 3.936-5.617c1.425-2.23 2.562-4.301 3.382-6.155a.743.743 0 0 0-1.358-.599c-1.783 4.043-4.868 8.472-7.143 11.475a110.58 110.58 0 0 1-4.006 4.978c-1.111-1.295-3.983-4.73-6.691-8.709-1.76-2.582-3.152-4.954-4.14-7.049-1.173-2.479-1.791-4.646-1.786-6.267a12.54 12.54 0 0 1 3.695-8.922 12.539 12.539 0 0 1 8.922-3.696h.002A12.582 12.582 0 0 1 31.611 13.56a.74.74 0 0 0 .74.711h.033a.738.738 0 0 0 .71-.773 13.984 13.984 0 0 0-1.27-5.277z"/><path d="M31.966 17.573a.742.742 0 1 0 0-1.484.742.742 0 0 0 0 1.485zM19.006 3.71c-5.739 0-10.39 4.653-10.39 10.392 0 5.738 4.651 10.39 10.39 10.39 5.739 0 10.39-4.652 10.39-10.39 0-5.739-4.651-10.391-10.39-10.391zm0 19.298a8.906 8.906 0 1 1 0-17.813 8.906 8.906 0 0 1 0 17.813z"/></g><defs><clipPath id="clip0"><path fill="#fff" d="M0 0h38v38H0z"/></clipPath></defs></svg>