<svg width="44" height="44" fill="none" xmlns="http://www.w3.org/2000/svg"><path d="M12.072 33.433a3.439 3.439 0 1 1 5.046-4.648 3.439 3.439 0 0 1-5.046 4.648z" fill="#fff"/><path d="M37.813 2.103V.687h-3.438a3.441 3.441 0 0 0-3.438 3.438 3.441 3.441 0 0 0 3.438 3.438h3.438V6.313a2.06 2.06 0 0 1 1.374 1.936v6.875a2.065 2.065 0 0 1-2.062 2.063h-2.189A2.06 2.06 0 0 0 33 15.813h-5.5a2.06 2.06 0 0 0-1.936 1.374h-2.189a2.065 2.065 0 0 1-2.063-2.062V8.25a2.06 2.06 0 0 1 1.375-1.936v1.248h3.438a3.441 3.441 0 0 0 3.438-3.437A3.441 3.441 0 0 0 26.125.687h-3.438v1.416c-3.088.344-5.5 2.968-5.5 6.147v6.875a6.195 6.195 0 0 0 6.188 6.188h2.189a2.06 2.06 0 0 0 1.936 1.375h.688v2.75h1.375v8.937c0 .758-.617 1.375-1.375 1.375a1.376 1.376 0 0 1-1.375-1.375v-3.438a2.753 2.753 0 0 0-2.75-2.75 2.753 2.753 0 0 0-2.75 2.75v7.907a3.098 3.098 0 0 1-3.094 3.093 3.098 3.098 0 0 1-3.094-3.093V35a4.128 4.128 0 0 0 3.438-4.063 4.1 4.1 0 0 0-.55-2.049l.165-.151a5.484 5.484 0 0 0 1.76-4.019 5.476 5.476 0 0 0-5.47-5.469h-.112c-1.461 0-2.835.57-3.867 1.602l-.177.176-.175-.176a5.434 5.434 0 0 0-3.868-1.602h-.112a5.476 5.476 0 0 0-5.47 5.47c0 1.521.642 2.986 1.76 4.018l7.865 7.26 1.797-1.658c.483.331 1.04.56 1.641.66v3.844a4.474 4.474 0 0 0 4.469 4.468 4.474 4.474 0 0 0 4.468-4.468v-7.907c0-.758.617-1.375 1.375-1.375.759 0 1.375.617 1.375 1.375v3.438a2.753 2.753 0 0 0 2.75 2.75 2.753 2.753 0 0 0 2.75-2.75v-8.938h1.375v-2.75H33a2.06 2.06 0 0 0 1.936-1.375h2.189a6.195 6.195 0 0 0 6.188-6.187V8.25c0-3.179-2.412-5.803-5.5-6.147zM14.436 33.688a2.753 2.753 0 0 1-2.75-2.75 2.753 2.753 0 0 1 2.75-2.75 2.753 2.753 0 0 1 2.75 2.75 2.753 2.753 0 0 1-2.75 2.75zM3.38 27.727a4.105 4.105 0 0 1-1.317-3.009 4.098 4.098 0 0 1 4.094-4.094h.112a4.07 4.07 0 0 1 2.895 1.199l1.149 1.148 1.148-1.148a4.07 4.07 0 0 1 2.895-1.199h.112a4.098 4.098 0 0 1 4.095 4.094c0 1.14-.48 2.236-1.318 3.008l-.107.099a4.106 4.106 0 0 0-2.7-1.014 4.13 4.13 0 0 0-4.126 4.125 4.1 4.1 0 0 0 .809 2.443l-.809.747-6.932-6.4zm33.057-21.54h-2.062a2.065 2.065 0 0 1-2.063-2.063c0-1.137.926-2.063 2.063-2.063h2.063v4.126zM24.063 2.063h2.062c1.137 0 2.063.925 2.063 2.062a2.065 2.065 0 0 1-2.063 2.063h-2.063V2.063zm-5.5 13.062V8.25a4.816 4.816 0 0 1 4.125-4.758v1.39a3.444 3.444 0 0 0-2.75 3.368v6.875a3.441 3.441 0 0 0 3.437 3.438h2.063v1.375h-2.063a4.818 4.818 0 0 1-4.813-4.813zm12.375 8.938h-1.375v-1.375h1.375v1.375zm2.75-3.438a.689.689 0 0 1-.688.688h-5.5a.689.689 0 0 1-.688-.688v-2.75c0-.379.31-.688.688-.688H33c.379 0 .688.31.688.688v2.75zm8.25-5.5a4.818 4.818 0 0 1-4.813 4.813h-2.063v-1.375h2.063a3.441 3.441 0 0 0 3.438-3.438V8.25a3.444 3.444 0 0 0-2.75-3.368v-1.39a4.816 4.816 0 0 1 4.124 4.758v6.875z" fill="#0079C8"/><path d="M28.188 18.563h1.375v1.375h-1.375v-1.375zM30.938 18.563h1.375v1.375h-1.376v-1.375z" fill="#0079C8"/><path d="M6.456 28.683l.933-1.01 1.49 1.374-.932 1.01-1.49-1.374zM5.246 25.708a1.354 1.354 0 0 1-.434-.968l-1.375.02c.012.74.33 1.454.875 1.958l1.409 1.3.932-1.01-1.407-1.3z" fill="#fff"/></svg>