<svg width="34" height="23" fill="none" xmlns="http://www.w3.org/2000/svg"><path d="M5.368 0h23.264c1.423 0 2.789.485 3.796 1.347C33.434 2.21 34 3.38 34 4.6v13.8c0 1.22-.566 2.39-1.572 3.253C31.42 22.515 30.055 23 28.632 23H5.368c-1.423 0-2.789-.485-3.796-1.347C.566 20.79 0 19.62 0 18.4V4.6c0-1.22.566-2.39 1.572-3.253C2.58.485 3.945 0 5.368 0zm0 1.533c-.873 0-1.675.269-2.295.715L17 9.998l13.927-7.75a3.941 3.941 0 0 0-2.295-.715H5.368zM17 11.825L2.03 3.496c-.16.352-.24.726-.24 1.104v13.8c0 .813.377 1.593 1.048 2.169.67.575 1.581.898 2.53.898h23.264c.949 0 1.86-.323 2.53-.898.672-.576 1.049-1.356 1.049-2.169V4.6c0-.39-.085-.762-.24-1.104L17 11.823v.002z" fill="#0070AF"/></svg>