<svg width="40" height="46" fill="none" xmlns="http://www.w3.org/2000/svg"><path d="M39.56 42.928L37.587 31.21a3.32 3.32 0 0 0-2.306-2.647l-5.326-1.629a6.044 6.044 0 0 0-1.533-3.55 5.927 5.927 0 0 0-2.59-1.679c.17-.19.326-.378.469-.563 1.267-1.633 1.945-3.432 2.117-4.66h.411c1.069 0 1.938-.88 1.938-1.964v-1.007c0-.723-.4-1.378-1.004-1.718V9.371a.658.658 0 0 0-.654-.662.658.658 0 0 0-.654.662v2.719a3.99 3.99 0 0 0-.96.296 3.41 3.41 0 0 0-.211.106v-5.34c0-1.475-1.184-2.675-2.64-2.675H22.84c-.622 0-1.23.22-1.712.62l-.177.146c-.325.27-.735.418-1.155.418-.42 0-.831-.149-1.156-.418l-.177-.147a2.69 2.69 0 0 0-1.712-.619h-1.805c-1.455 0-2.639 1.2-2.639 2.675v5.34a3.41 3.41 0 0 0-.302-.147 3.992 3.992 0 0 0-.87-.255V5.216c0-2.145 1.723-3.89 3.84-3.89h9.642c2.116 0 3.838 1.745 3.838 3.89v1.041c0 .366.293.663.654.663.36 0 .654-.297.654-.663V5.216C29.762 2.34 27.453 0 24.616 0h-9.643c-2.837 0-5.146 2.34-5.146 5.216v6.577a1.982 1.982 0 0 0-1.004 1.718v1.007c0 1.083.87 1.965 1.938 1.965h.41c.173 1.227.852 3.026 2.118 4.659.143.184.3.373.468.563-2.265.729-3.917 2.793-4.122 5.23L4.31 28.562a3.32 3.32 0 0 0-2.306 2.647L1.2 35.968c-.06.361.178.703.534.765a.655.655 0 0 0 .755-.542l.801-4.758a2.009 2.009 0 0 1 1.396-1.601l4.926-1.507v1.31a3.282 3.282 0 0 0-2.68 2.987l-.476 6.194c-.036.466.123.931.437 1.274.313.344.758.54 1.22.54h.814a.658.658 0 0 0 .654-.662.658.658 0 0 0-.654-.662h-.815a.353.353 0 0 1-.26-.115.363.363 0 0 1-.093-.272l.476-6.194c.015-.187.054-.37.118-.545.275-.758 1.019-1.271 1.85-1.277h.123c.808 0 1.523.463 1.825 1.186.085.202.136.416.153.636l.476 6.194a.364.364 0 0 1-.093.272.353.353 0 0 1-.26.115h-.815a.658.658 0 0 0-.653.662c0 .366.292.663.653.663h.815c.462 0 .906-.197 1.22-.54.313-.344.473-.809.437-1.275l-.477-6.194a3.392 3.392 0 0 0-.252-1.05 3.244 3.244 0 0 0-2.436-1.94v-1.707l2.247-.687c.204.437.61 1.38 1.412 3.413a555.948 555.948 0 0 1 2.802 7.3 878.311 878.311 0 0 1 1.801 4.82c.096.258.34.43.612.43a.654.654 0 0 0 .612-.43 870.644 870.644 0 0 1 1.826-4.883 556.157 556.157 0 0 1 2.776-7.233c.804-2.036 1.21-2.98 1.414-3.417l2.247.687v3.914c-1.557.306-2.736 1.698-2.736 3.365 0 1.89 1.517 3.428 3.382 3.428 1.865 0 3.382-1.538 3.382-3.428 0-1.661-1.172-3.05-2.721-3.362v-3.517l4.926 1.507a2.009 2.009 0 0 1 1.395 1.6l1.975 11.719a.654.654 0 0 1-.64.768H1.956a.654.654 0 0 1-.64-.769l.652-3.866a.662.662 0 0 0-.534-.765.655.655 0 0 0-.754.542l-.652 3.867c-.097.577.06 1.165.433 1.612.373.448.918.704 1.495.704h35.676c.578 0 1.123-.256 1.496-.704.372-.447.53-1.035.433-1.612zM28.463 13.44c.348-.088.628-.087.631-.086a.661.661 0 0 0 .32-.077c.029.073.046.152.046.234v1.007c0 .353-.283.64-.631.64h-.366V13.44zm-17.335 1.718h-.366a.636.636 0 0 1-.631-.64v-1.007c0-.082.017-.161.046-.234a.66.66 0 0 0 .32.077c.005 0 .284-.001.63.086v1.718zm1.307.742v-1.74c.198.06.415.052.615-.033a.928.928 0 0 0 .564-.858V7.152c0-.744.598-1.35 1.332-1.35h1.805c.321 0 .635.114.884.32l.177.147a3.116 3.116 0 0 0 1.983.717c.721 0 1.426-.255 1.984-.717l.177-.147a1.39 1.39 0 0 1 .884-.32h1.805c.734 0 1.331.606 1.331 1.35v6.117a.928.928 0 0 0 .918.93.899.899 0 0 0 .262-.039v1.74c0 .968-.66 2.846-1.883 4.423a8.68 8.68 0 0 1-1.625 1.618c-.993.744-2.27 1.314-3.853 1.314-1.582 0-2.86-.57-3.852-1.314a8.69 8.69 0 0 1-1.625-1.618c-1.223-1.576-1.883-3.455-1.883-4.423zm11.643 10.705l-4.283 3.244-4.282-3.244c.425-.547.663-1.25.663-1.876V23.66a7.462 7.462 0 0 0 3.62.92c1.41 0 2.612-.371 3.62-.92v1.068c0 .627.237 1.329.662 1.876zm-9.656-.74a1.764 1.764 0 0 0-1.149-.043l-2.258.69c.382-1.903 1.907-3.418 3.853-3.712v1.929c0 .416-.183.845-.446 1.136zm1.774 5.32l-.003-.01a217.44 217.44 0 0 0-.099-.252l-.017-.044-.094-.241-.007-.017-.28-.71-.02-.05-.076-.192c-.01-.023-.018-.046-.027-.07-.025-.06-.05-.121-.073-.181l-.021-.053-.127-.317-.034-.084-.048-.118-.05-.126a6.637 6.637 0 0 0-.034-.083 98.723 98.723 0 0 0-.217-.53l-.106-.255-.053-.125 3.684 2.79-1.54.663-.008.003-.642.277-.108-.276zm1.56 4.056a723.134 723.134 0 0 0-.974-2.547l.244-.105.996 1.174-.266 1.478zm2.052 5.385a.664.664 0 0 0-.067-.111c-.295-.792-.67-1.793-1.085-2.895l.61-3.386h1.058l.61 3.386c-.434 1.154-.825 2.198-1.126 3.006zm.762-7.717H19.02l-.733-.864 1.507-.649 1.507.65-.732.863zm1.655 1.31l-.39 1.022-.266-1.478.996-1.174.244.105-.584 1.524zm2.503-6.367a87.465 87.465 0 0 0-.218.527l-.007.018a91.79 91.79 0 0 0-.112.276l-.022.054-.044.108-.054.134-.018.044-.14.35-.022.056-.072.18-.029.071-.075.19-.022.055-.276.7-.01.024-.093.24-.018.044-.098.253-.002.005-.109.28-.643-.278-.007-.003-1.54-.663 3.683-2.79-.052.125zm1.59-2.03h-.002a1.763 1.763 0 0 0-1.147.043 1.765 1.765 0 0 1-.446-1.136v-1.93c1.958.293 3.479 1.794 3.856 3.714l-2.261-.691zm5.073 9.382c0 1.16-.931 2.103-2.075 2.103-1.144 0-2.075-.944-2.075-2.103 0-1.16.93-2.104 2.075-2.104 1.144 0 2.075.944 2.075 2.104z" fill="#0079C8"/></svg>