<svg width="31" height="31" fill="none" xmlns="http://www.w3.org/2000/svg"><path d="M.9 15.62v3.856h0a4.01 4.01 0 0 0 1.18 2.835 4.035 4.035 0 0 0 2.844 1.176h1.908a.554.554 0 0 0 .553-.552V12.161a.55.55 0 0 0-.553-.551H5.525A9.936 9.936 0 0 1 8.52 4.812a10.001 10.001 0 0 1 6.985-2.84c2.611 0 5.118 1.02 6.984 2.84a9.936 9.936 0 0 1 2.995 6.798h-1.309a.553.553 0 0 0-.553.551v10.772a.55.55 0 0 0 .553.552h1.32v.507a3.89 3.89 0 0 1-1.145 2.751 3.917 3.917 0 0 1-2.76 1.142h-2.084a2.416 2.416 0 0 0-1.418-2.452 2.438 2.438 0 0 0-1.018-.215s0 0 0 0h-3.13a2.458 2.458 0 0 0-1.779.687 2.442 2.442 0 0 0-.55 2.705 2.443 2.443 0 0 0 1.37 1.325c.306.118.632.174.96.164h3.12a2.453 2.453 0 0 0 2.049-1.111h2.471a5.027 5.027 0 0 0 3.542-1.465 4.994 4.994 0 0 0 1.47-3.53v-.54a4.033 4.033 0 0 0 2.474-1.297 4.008 4.008 0 0 0 1.033-2.68v0-3.855 0a4.008 4.008 0 0 0-1.035-2.683 4.033 4.033 0 0 0-2.481-1.295 11.038 11.038 0 0 0-3.324-7.584A11.11 11.11 0 0 0 15.498.9a11.11 11.11 0 0 0-7.762 3.159 11.038 11.038 0 0 0-3.324 7.584 4.033 4.033 0 0 0-2.478 1.297A4.009 4.009 0 0 0 .9 15.62zm16.165 13.378h0-3.126v0h-.004a1.347 1.347 0 0 1-1.289-.813 1.333 1.333 0 0 1 .759-1.776c.169-.064.35-.093.53-.086h3.126v0h.004a1.345 1.345 0 0 1 1.396 1.337 1.333 1.333 0 0 1-.866 1.252c-.169.064-.35.093-.53.086zM6.279 22.384H4.924a2.925 2.925 0 0 1-2.063-.853 2.905 2.905 0 0 1-.855-2.055V15.62c0-.771.308-1.51.855-2.056a2.925 2.925 0 0 1 2.063-.852H6.28v9.67zm22.715-2.909c0 .771-.308 1.51-.855 2.056a2.925 2.925 0 0 1-2.063.853H24.72v-9.671h1.355c.774 0 1.515.307 2.063.852.547.546.854 1.285.855 2.056v3.854z" fill="#0070AF" stroke="#0070AF" stroke-width=".2"/></svg>