<svg width="42" height="35" fill="none" xmlns="http://www.w3.org/2000/svg"><path d="M42 27.246a2.551 2.551 0 0 0-1.937-2.47V21.69c0-3.522-.984-6.968-2.845-9.965a19.242 19.242 0 0 0-7.07-6.703v-.21a2.176 2.176 0 0 0-2.176-2.173h-.875l.065-.298.003-.013a1.855 1.855 0 0 0-.388-1.561C26.38.288 25.749 0 25.089 0h-8.18c-.66 0-1.29.287-1.686.767a1.856 1.856 0 0 0-.388 1.562l.003.013.075.345h-.888c-1.2 0-2.175.975-2.175 2.174v.162a19.241 19.241 0 0 0-7.07 6.702 18.877 18.877 0 0 0-2.845 9.966v3.084A2.55 2.55 0 0 0 0 27.245a2.55 2.55 0 0 0 2.222 2.525l2.686 3.658c.403.546.811.66 1.083.66H36.01c.273 0 .684-.115 1.082-.662l2.684-3.656A2.551 2.551 0 0 0 42 27.246zM36.097 32.7a.79.79 0 0 1-.143.158H6.046a.803.803 0 0 1-.147-.16l-2.134-2.907h34.468l-2.136 2.91zm3.35-4.14H2.55c-.728 0-1.32-.59-1.32-1.314 0-.725.592-1.315 1.32-1.315h17.08a.615.615 0 1 0 0-1.23h-7.35v-2.905A2.58 2.58 0 0 0 9.7 19.22h-.709a2.582 2.582 0 0 0-2.582 2.576V24.7H3.165v-3.009c0-6.274 3.303-12.028 8.685-15.252v6.963a.615.615 0 1 0 1.23 0v-8.54c0-.521.424-.945.945-.945h1.155l.962 4.439a.615.615 0 1 0 1.203-.261l-1.303-6.007a.628.628 0 0 1 .13-.538c.163-.197.445-.32.737-.32h.884v2.304a.615.615 0 1 0 1.23 0V1.23h1.36v4.46a.615.615 0 1 0 1.231 0V1.23h1.36v2.304a.615.615 0 1 0 1.23 0V1.231h.885c.293 0 .575.122.738.32.125.152.17.333.131.538l-.218 1.005a.626.626 0 0 0-.013.061l-2.808 12.947H19.08l-1.115-5.144a.616.616 0 0 0-1.203.26l1.172 5.404c.135.624.54.712.852.712h.044l.087-.002h4.204c.266 0 .761 0 .924-.634l.011-.044a.593.593 0 0 0 .008-.032l2.766-12.751h1.142c.52 0 .945.422.945.942v8.54a.615.615 0 1 0 1.23 0V6.439c5.382 3.224 8.685 8.978 8.685 15.253V24.7h-3.244v-2.904a2.58 2.58 0 0 0-2.58-2.576H32.3a2.582 2.582 0 0 0-2.582 2.576V24.7h-7.32a.615.615 0 1 0 0 1.23h17.05c.729 0 1.322.59 1.322 1.316a1.32 1.32 0 0 1-1.322 1.315zM11.05 24.7H7.639v-2.904a1.35 1.35 0 0 1 1.352-1.345h.71c.743 0 1.349.603 1.349 1.345V24.7zm19.898 0v-2.904A1.35 1.35 0 0 1 32.3 20.45h.709c.744 0 1.35.603 1.35 1.345V24.7h-3.411z" fill="#0079C8"/></svg>