<svg width="38" height="38" fill="none" xmlns="http://www.w3.org/2000/svg"><g clip-path="url(#clip0)"><path d="M34.301.826H2.873A2.876 2.876 0 0 0 0 3.7v31.428A2.876 2.876 0 0 0 2.873 38H34.3a2.876 2.876 0 0 0 2.873-2.873V3.7A2.876 2.876 0 0 0 34.3.826zM18.042 36.911H2.872c-.983 0-1.783-.8-1.783-1.784v-15.17h5.858a1.71 1.71 0 0 0 1.708-1.706v-1.166c0-.696-.283-1.328-.777-1.735a2.645 2.645 0 0 1-.969-2.048c0-.803.358-1.555.983-2.063a2.683 2.683 0 0 1 2.253-.533 2.635 2.635 0 0 1 2.03 2.08 2.65 2.65 0 0 1-.899 2.545 2.26 2.26 0 0 0-.8 1.735v1.184a1.71 1.71 0 0 0 1.708 1.708h5.858v5.857a.62.62 0 0 1-.617.62h-1.189c-.35 0-.677-.15-.898-.413a3.727 3.727 0 0 0-3.577-1.267 3.735 3.735 0 0 0-2.947 2.878 3.768 3.768 0 0 0 .754 3.162 3.732 3.732 0 0 0 2.908 1.385 3.731 3.731 0 0 0 2.888-1.365c.2-.242.526-.381.895-.381h1.166a.62.62 0 0 1 .617.62v5.857zm18.043-18.042h-.62a.544.544 0 1 0 0 1.089h.62v15.17c0 .983-.8 1.783-1.784 1.783h-15.17v-5.858a1.71 1.71 0 0 0-1.706-1.708h-1.166c-.696 0-1.328.283-1.735.777a2.645 2.645 0 0 1-2.048.969 2.648 2.648 0 0 1-2.063-.983 2.683 2.683 0 0 1-.533-2.253 2.636 2.636 0 0 1 2.08-2.029 2.65 2.65 0 0 1 2.545.898c.428.508 1.06.8 1.731.8h1.189a1.71 1.71 0 0 0 1.706-1.709v-5.857h5.858a.62.62 0 0 1 .62.62v1.182c0 .352-.15.681-.413.902a3.727 3.727 0 0 0-1.267 3.577 3.735 3.735 0 0 0 3.673 3.03 3.74 3.74 0 0 0 3.752-3.745 3.73 3.73 0 0 0-1.365-2.888c-.239-.197-.381-.532-.381-.898v-1.16a.62.62 0 0 1 .62-.62h2.91a.544.544 0 1 0 0-1.09h-2.91a1.71 1.71 0 0 0-1.71 1.71v1.16c0 .698.284 1.331.778 1.738.616.507.969 1.254.969 2.048 0 .804-.358 1.556-.983 2.063a2.682 2.682 0 0 1-2.253.533A2.636 2.636 0 0 1 25 26.04a2.65 2.65 0 0 1 .899-2.545c.508-.428.8-1.06.8-1.735v-1.183a1.71 1.71 0 0 0-1.709-1.708h-5.858V13.01a.62.62 0 0 1 .62-.618h1.183c.352 0 .681.15.902.412a3.727 3.727 0 0 0 3.577 1.267 3.735 3.735 0 0 0 2.947-2.877 3.768 3.768 0 0 0-.754-3.163 3.733 3.733 0 0 0-2.908-1.385 3.73 3.73 0 0 0-2.889 1.365c-.199.243-.525.382-.894.382H19.75a.62.62 0 0 1-.617-.62v-2.91a.544.544 0 1 0-1.09 0v2.91A1.71 1.71 0 0 0 19.75 9.48h1.166c.696 0 1.328-.283 1.735-.777a2.645 2.645 0 0 1 2.048-.969c.804 0 1.555.358 2.063.983.507.624.702 1.445.533 2.253a2.636 2.636 0 0 1-2.08 2.03 2.65 2.65 0 0 1-2.545-.899 2.26 2.26 0 0 0-1.735-.8H19.75a1.71 1.71 0 0 0-1.707 1.708v5.859h-5.859a.62.62 0 0 1-.619-.62v-1.183c0-.352.15-.68.413-.901a3.727 3.727 0 0 0 1.267-3.577 3.735 3.735 0 0 0-2.878-2.948 3.768 3.768 0 0 0-3.162.754 3.733 3.733 0 0 0-1.385 2.908 3.73 3.73 0 0 0 1.365 2.889c.242.199.381.525.381.894v1.166a.62.62 0 0 1-.62.618H1.09V3.699c0-.984.8-1.784 1.784-1.784h15.17v.62a.545.545 0 1 0 1.088 0v-.62h15.17c.984 0 1.784.8 1.784 1.784v15.17z" fill="#0079C8"/></g><defs><clipPath id="clip0"><path fill="#fff" d="M0 .826h37.174V38H0z"/></clipPath></defs></svg>