<svg xmlns="http://www.w3.org/2000/svg" width="24" height="24"><path fill="#0079c8" d="M12 23.5c-2.2 0-4.3-.6-6.1-1.8l-4 1.3c-.2.1-.4 0-.5-.1-.1-.1-.2-.3-.1-.5l1.3-3.8c-1.3-1.9-2-4.2-2-6.5C.5 5.7 5.7.5 12 .5 18.3.5 23.5 5.7 23.5 12S18.3 23.5 12 23.5zm-6-2.8c.1 0 .2 0 .3.1 1.7 1.1 3.7 1.7 5.8 1.7 5.8 0 10.5-4.7 10.5-10.5S17.8 1.5 12 1.5 1.5 6.2 1.5 12c0 2.2.7 4.4 2 6.2.1.1.1.3.1.5l-1.1 3.2 3.3-1c.1-.2.1-.2.2-.2zm9.6-2c-.8 0-1.8-.3-3.4-.9-2.7-1.1-4.7-3.6-5.6-4.9l-.1-.1C6 12 5.1 10.6 5.1 9.1c0-1.7.9-2.6 1.2-3 .4-.4.9-.6 1.5-.6h.3c.6 0 .9.2 1.2.9l.3.6c.3.7.7 1.6.7 1.7.2.4.2.7 0 1-.1.2-.2.4-.4.6l-.3.3-.3.3c.2.1.1.1.1.1.5.8 1.1 1.5 1.7 2.1 1.1.9 1.9 1.3 2.3 1.5h.1c.1 0 .1.1.2 0 .2-.2.5-.6.7-1l.1-.1c.3-.4.7-.5.9-.5.1 0 .3 0 .5.1.3.1 1.4.6 2.2 1.1l.2.1c.3.1.5.2.6.5.2.4.1 1.3-.1 1.9-.3.9-1.5 1.7-2.5 1.9-.2 0-.4.1-.7.1zM7.9 6.5c-.3 0-.6.1-.8.2-.3.3-1 1-1 2.3 0 1.2.8 2.5 1.2 3l.1.1c1.5 2.2 3.3 3.8 5.2 4.6 1.4.6 2.4.9 3 .9.2 0 .4 0 .5-.1.7-.2 1.6-.7 1.8-1.2.2-.5.2-.9.2-1.1-.1 0-.1-.1-.2-.1l-.2-.1c-1.1-.6-2-1-2.1-1-.1 0-.1-.1-.2.1l-.1.1c-.3.4-.6.8-.8 1.1-.3.3-.9.4-1.3.2h-.1c-.4-.2-1.4-.6-2.6-1.6-.7-.6-1.3-1.4-1.9-2.3-.4-.6 0-1.1.2-1.3 0-.1.1-.3.2-.4l.2-.2c.2-.2.2-.2.3-.4v-.2c-.1 0-.5-1-.8-1.7l-.2-.6c-.1-.2-.2-.3-.2-.3h-.4z"/></svg>