<svg width="48" height="48" viewBox="0 0 48 48" fill="none" xmlns="http://www.w3.org/2000/svg">
<path fill-rule="evenodd" clip-rule="evenodd" d="M43.11 6.72098C43.0094 6.60153 42.8654 6.52692 42.7098 6.51364L34.0045 5.77012L33.8467 4.51559C33.8061 4.19286 33.5108 3.96411 33.1889 4.00466L25.1133 5.01997C25.0815 5.01169 25.049 5.00544 25.0151 5.00255L13.9154 4.05442C13.5958 4.0263 13.3056 4.27208 13.2784 4.59106L13.113 6.52856L4.5154 7.6095C4.19727 7.6495 3.96454 7.94895 4.00446 8.26731L8.39305 43.1741C8.40007 43.2303 8.40038 43.2856 8.40068 43.3405C8.40123 43.4414 8.40178 43.5406 8.44391 43.6403C8.53516 43.856 8.75235 44 8.98664 44H37.8858C38.2111 44 38.4747 43.7364 38.4747 43.411V42.6439L39.6154 42.7413C39.9351 42.7691 40.2252 42.5238 40.2524 42.2047L43.2464 7.15075C43.2597 6.99504 43.2107 6.84051 43.11 6.72098ZM8.39766 33.7674L5.2468 8.70473L8.39766 8.30864V33.7674ZM14.402 5.27825L19.5567 5.71848L14.3081 6.3784L14.402 5.27825ZM32.7515 5.24692L33.0524 7.64043H13.7125L32.7515 5.24692ZM39.1289 41.5175L38.4747 41.4617V24.2496C38.4747 23.9242 38.2111 23.6606 37.8858 23.6606C37.5604 23.6606 37.2968 23.9242 37.2968 24.2496V42.822H9.57563V8.8184H37.2968V21.501C37.2968 21.8264 37.5604 22.09 37.8858 22.09C38.2112 22.09 38.4748 21.8264 38.4748 21.501V8.22942C38.4748 7.90411 38.2112 7.64043 37.8858 7.64043H34.2397L34.1547 6.9652L42.0226 7.63723L39.1289 41.5175ZM34.7442 10.7806H31.6029C31.406 10.7806 31.2221 10.879 31.1129 11.0429L29.7798 13.0425C28.3449 12.0147 26.5881 11.4088 24.6923 11.4088C24.367 11.4088 24.1033 11.6724 24.1033 11.9978V20.165C24.1033 20.4903 24.3669 20.7539 24.6923 20.7539H32.8595C33.1849 20.7539 33.4485 20.4903 33.4485 20.165C33.4485 17.6574 32.3886 15.393 30.6938 13.7952L31.9182 11.9586H34.7443C35.0696 11.9586 35.3332 11.695 35.3332 11.3696C35.3332 11.0442 35.0695 10.7806 34.7442 10.7806ZM32.2479 19.576H25.2813V12.6094C26.7097 12.7197 28.0274 13.2291 29.1255 14.024L28.6 14.8124C28.4358 15.0585 28.4839 15.3993 28.7107 15.5897C28.9761 15.8127 29.3879 15.7539 29.58 15.4658L30.0298 14.7911C31.2821 16.035 32.1038 17.7119 32.2479 19.576ZM29.4172 30.2561H34.7449C35.0702 30.2561 35.3339 30.5198 35.3339 30.8452C35.3339 31.1706 35.0702 31.4342 34.7449 31.4342H29.0907C28.8876 31.4342 28.6989 31.3296 28.5912 31.1574L27.5912 29.5574C26.1007 30.7323 24.2208 31.4342 22.18 31.4342C17.3519 31.4342 13.4238 27.5061 13.4238 22.678C13.4238 17.8499 17.3519 13.9219 22.18 13.9219C22.5053 13.9219 22.769 14.1855 22.769 14.5108V22.089H30.3472C30.6726 22.089 30.9361 22.3526 30.9361 22.678C30.9361 25.0356 29.9991 27.1784 28.4784 28.7542L29.4172 30.2561ZM25.6374 25.3197C25.9132 25.1473 26.2767 25.2311 26.449 25.5071L27.8323 27.7205C28.9068 26.5174 29.604 24.9703 29.7356 23.2671H22.1801C21.8547 23.2671 21.5911 23.0034 21.5911 22.6781V15.1226C17.6866 15.4241 14.6019 18.6976 14.6019 22.6781C14.6019 26.8567 18.0015 30.2563 22.1801 30.2563C23.9921 30.2563 25.6575 29.6168 26.9629 28.5518L25.4501 26.1314C25.2776 25.8555 25.3615 25.4921 25.6374 25.3197ZM17.154 33.3978H12.128C11.8028 33.3978 11.5391 33.6613 11.5391 33.9867C11.5391 34.3121 11.8027 34.5757 12.128 34.5757H17.154C17.4793 34.5757 17.743 34.3121 17.743 33.9867C17.743 33.6613 17.4793 33.3978 17.154 33.3978ZM19.0781 33.9867C19.0781 33.6613 19.3418 33.3978 19.6671 33.3978H24.693C25.0183 33.3978 25.282 33.6613 25.282 33.9867C25.282 34.3121 25.0183 34.5757 24.693 34.5757H19.6671C19.3418 34.5757 19.0781 34.3121 19.0781 33.9867ZM20.2952 36.539H12.128C11.8028 36.539 11.5391 36.8026 11.5391 37.128C11.5391 37.4534 11.8027 37.717 12.128 37.717H20.2952C20.6205 37.717 20.8842 37.4534 20.8842 37.128C20.8842 36.8026 20.6205 36.539 20.2952 36.539ZM22.8076 36.539H24.6923C25.0176 36.539 25.2812 36.8026 25.2813 37.128C25.2813 37.4534 25.0176 37.717 24.6923 37.717H22.8076C22.4822 37.717 22.2186 37.4534 22.2186 37.128C22.2186 36.8026 22.4823 36.539 22.8076 36.539ZM14.641 39.6803H12.128C11.8028 39.6803 11.5391 39.9439 11.5391 40.2693C11.5391 40.5947 11.8027 40.8583 12.128 40.8583H14.641C14.9663 40.8583 15.23 40.5947 15.23 40.2693C15.23 39.9439 14.9663 39.6803 14.641 39.6803ZM17.1541 39.6803H24.693C25.0183 39.6803 25.282 39.9439 25.282 40.2693C25.282 40.5947 25.0183 40.8583 24.693 40.8583H17.1541C16.8288 40.8583 16.5651 40.5947 16.5651 40.2693C16.5651 39.9439 16.8288 39.6803 17.1541 39.6803Z" fill="#00335B"/>
</svg>
