<svg width="176" height="53" viewBox="0 0 176 53" fill="none" xmlns="http://www.w3.org/2000/svg">
<path d="M169.368 51.6285H6.63227C3.31609 51.6285 0.646973 48.9327 0.646973 45.5834V6.69866C0.646973 3.34935 3.31609 0.653564 6.63227 0.653564H169.368C172.684 0.653564 175.353 3.34935 175.353 6.69866V45.6651C175.353 48.9327 172.684 51.6285 169.368 51.6285Z" fill="black"/>
<path d="M169.368 52.3636H6.63235C2.99265 52.3636 0 49.3411 0 45.665V6.69863C0 3.02255 2.99265 0 6.63235 0H169.368C173.007 0 176 3.02255 176 6.69863V45.665C176 49.3411 173.007 52.3636 169.368 52.3636ZM6.63235 1.30705C3.72059 1.30705 1.29412 3.67607 1.29412 6.69863V45.665C1.29412 48.6059 3.63971 51.0566 6.63235 51.0566H169.368C172.279 51.0566 174.706 48.6876 174.706 45.665V6.69863C174.706 3.75777 172.36 1.30705 169.368 1.30705H6.63235Z" fill="#A7A9AC"/>
<path d="M39.3088 25.651C39.3088 21.4031 42.7868 19.3609 42.9485 19.1975C41.0074 16.2566 37.9338 15.9299 36.8015 15.8482C34.2132 15.6031 31.7059 17.4003 30.4118 17.4003C29.0368 17.4003 27.0956 15.8482 24.9118 15.9299C22.0809 16.0115 19.4926 17.6454 18.0368 20.1778C15.0441 25.3243 17.3088 33.0032 20.1397 37.1694C21.5956 39.2117 23.2132 41.499 25.3971 41.4173C27.5 41.3356 28.3088 40.0286 30.8162 40.0286C33.3235 40.0286 34.1324 41.4173 36.3162 41.3356C38.5809 41.3356 40.0368 39.2934 41.4118 37.1694C43.0294 34.8004 43.6765 32.513 43.7574 32.3497C43.6765 32.4313 39.3088 30.7158 39.3088 25.651Z" fill="white"/>
<path d="M35.1029 13.1521C36.2352 11.6816 37.044 9.72107 36.8014 7.7605C35.1837 7.84219 33.0808 8.90417 31.8676 10.2929C30.8161 11.5183 29.8455 13.5605 30.0882 15.5211C32.0293 15.6845 33.8896 14.5408 35.1029 13.1521Z" fill="white"/>
<path d="M69.9632 41.0902H66.9705L65.3529 35.9437H59.6911L58.2352 41.0902H55.3235L60.9044 23.6084H64.3823L69.9632 41.0902ZM64.8676 33.738L63.4117 29.1634C63.25 28.6732 62.9264 27.6112 62.522 25.8957H62.4411C62.2794 26.631 61.9558 27.7746 61.6323 29.1634L60.1764 33.738H64.8676Z" fill="white"/>
<path d="M84.3602 34.6368C84.3602 36.7608 83.794 38.4763 82.6617 39.7016C81.6102 40.8453 80.3161 41.3354 78.8602 41.3354C77.2426 41.3354 76.0293 40.7636 75.3014 39.5382H75.2205V46.1552H72.4705V32.5945C72.4705 31.2058 72.4705 29.8988 72.3896 28.4283H74.8161L74.9779 30.3889H75.0588C75.9485 28.9185 77.4043 28.1016 79.2646 28.1016C80.7205 28.1016 81.9338 28.6734 82.9852 29.8988C83.794 31.1241 84.3602 32.6762 84.3602 34.6368ZM81.5293 34.7185C81.5293 33.4931 81.2867 32.5128 80.7205 31.6959C80.1543 30.879 79.3455 30.4706 78.2941 30.4706C77.647 30.4706 76.9999 30.7157 76.4338 31.1241C75.8676 31.6143 75.5441 32.1861 75.3014 32.9213C75.2205 33.2481 75.1396 33.5748 75.1396 33.7382V35.8622C75.1396 36.7608 75.3823 37.5777 75.9485 38.1495C76.5146 38.803 77.2426 39.1298 78.1323 39.1298C79.1838 39.1298 79.9926 38.7213 80.5588 37.9044C81.2058 37.0875 81.5293 36.0255 81.5293 34.7185Z" fill="white"/>
<path d="M98.6764 34.6368C98.6764 36.7608 98.1102 38.4763 96.9779 39.7016C95.9264 40.8453 94.7132 41.3354 93.1764 41.3354C91.5588 41.3354 90.3455 40.7636 89.6176 39.5382H89.5367V46.1552H86.7867V32.5945C86.7867 31.2058 86.7867 29.8988 86.7058 28.4283H89.1323L89.294 30.3889H89.3749C90.2646 28.9185 91.7205 28.1016 93.5808 28.1016C95.0367 28.1016 96.2499 28.6734 97.3014 29.8988C98.1911 31.1241 98.6764 32.6762 98.6764 34.6368ZM95.8455 34.7185C95.8455 33.4931 95.6029 32.5128 95.0367 31.6959C94.4705 30.879 93.6617 30.4706 92.6102 30.4706C91.9632 30.4706 91.3161 30.7157 90.7499 31.1241C90.1838 31.6143 89.8602 32.1861 89.6985 32.9213C89.6176 33.2481 89.5367 33.5748 89.5367 33.7382V35.8622C89.5367 36.7608 89.7793 37.5777 90.3455 38.1495C90.9117 38.803 91.6396 39.1298 92.5293 39.1298C93.5808 39.1298 94.3896 38.7213 94.9558 37.9044C95.6029 37.0875 95.8455 36.0255 95.8455 34.7185Z" fill="white"/>
<path d="M114.772 36.1888C114.772 37.6592 114.287 38.8846 113.235 39.8649C112.103 40.9268 110.566 41.417 108.544 41.417C106.684 41.417 105.147 41.0902 104.015 40.355L104.662 37.986C105.875 38.7212 107.25 39.1297 108.706 39.1297C109.757 39.1297 110.566 38.8846 111.132 38.3944C111.698 37.9043 112.022 37.2508 112.022 36.5156C112.022 35.7803 111.779 35.2085 111.294 34.7184C110.809 34.2282 110 33.8198 108.868 33.3296C105.794 32.186 104.338 30.4705 104.338 28.3465C104.338 26.8761 104.904 25.7324 105.956 24.8338C107.007 23.9352 108.463 23.4451 110.162 23.4451C111.779 23.4451 113.073 23.6901 114.125 24.262L113.397 26.5493C112.426 25.9775 111.294 25.7324 110.081 25.7324C109.11 25.7324 108.301 25.9775 107.816 26.4676C107.331 26.8761 107.088 27.4479 107.088 28.0197C107.088 28.6733 107.331 29.2451 107.897 29.7352C108.382 30.1437 109.191 30.6338 110.404 31.124C111.86 31.6958 112.993 32.431 113.721 33.2479C114.448 33.9015 114.772 34.9634 114.772 36.1888Z" fill="white"/>
<path d="M123.993 30.5522H120.919V36.679C120.919 38.2311 121.485 39.048 122.537 39.048C123.022 39.048 123.426 38.9663 123.75 38.8846L123.831 41.0086C123.265 41.2536 122.537 41.3353 121.647 41.3353C120.515 41.3353 119.706 41.0086 119.059 40.355C118.412 39.7015 118.169 38.5578 118.169 36.924V30.5522H116.309V28.4282H118.169V26.1409L120.919 25.324V28.4282H123.993V30.5522Z" fill="white"/>
<path d="M137.824 34.6367C137.824 36.5972 137.257 38.1494 136.206 39.4564C135.074 40.7634 133.537 41.417 131.596 41.417C129.735 41.417 128.279 40.7635 127.228 39.5381C126.177 38.3127 125.61 36.7606 125.61 34.8817C125.61 32.9212 126.177 31.2873 127.309 30.062C128.441 28.8366 129.978 28.1831 131.838 28.1831C133.699 28.1831 135.154 28.8366 136.287 30.062C137.257 31.2057 137.824 32.7578 137.824 34.6367ZM134.912 34.7183C134.912 33.5747 134.669 32.5944 134.184 31.6958C133.618 30.7155 132.809 30.1437 131.677 30.1437C130.544 30.1437 129.735 30.6338 129.169 31.6958C128.684 32.5127 128.441 33.5747 128.441 34.7183C128.441 35.862 128.684 36.8423 129.169 37.7409C129.735 38.7212 130.625 39.2113 131.677 39.2113C132.728 39.2113 133.537 38.7212 134.184 37.6592C134.669 36.924 134.912 35.9437 134.912 34.7183Z" fill="white"/>
<path d="M146.801 30.879C146.559 30.7973 146.235 30.7973 145.912 30.7973C144.941 30.7973 144.213 31.2058 143.647 31.941C143.162 32.5945 142.919 33.4114 142.919 34.4734V41.0903H140.169V32.4311C140.169 30.9607 140.169 29.6536 140.088 28.4283H142.515L142.595 30.879H142.676C143 30.0621 143.404 29.4086 144.051 28.9184C144.698 28.4283 145.345 28.2649 146.073 28.2649C146.316 28.2649 146.559 28.2649 146.801 28.3466V30.879Z" fill="white"/>
<path d="M159.257 34.1466C159.257 34.6368 159.257 35.0452 159.177 35.4537H150.846C150.846 36.679 151.25 37.6593 152.059 38.3128C152.787 38.8847 153.677 39.2114 154.809 39.2114C156.022 39.2114 157.154 39.048 158.206 38.6396L158.61 40.6002C157.397 41.0903 156.022 41.4171 154.404 41.4171C152.463 41.4171 150.927 40.8452 149.875 39.7016C148.743 38.5579 148.177 37.0058 148.177 35.0452C148.177 33.1663 148.662 31.5325 149.713 30.3072C150.765 28.9184 152.221 28.2649 154.081 28.2649C155.86 28.2649 157.235 28.9184 158.206 30.3072C158.853 31.2874 159.257 32.5945 159.257 34.1466ZM156.588 33.4114C156.588 32.5945 156.427 31.8593 156.022 31.2874C155.537 30.4705 154.809 30.1438 153.838 30.1438C152.949 30.1438 152.221 30.5522 151.654 31.2874C151.169 31.8593 150.927 32.5945 150.846 33.4931H156.588V33.4114Z" fill="white"/>
<path d="M54.8199 17.5847H58.2399C60.9279 17.5847 62.7399 15.8567 62.7399 13.3847C62.7399 10.9127 60.9279 9.18472 58.2399 9.18472H54.8199V17.5847ZM55.7079 16.8167V9.95272H58.1919C60.4239 9.95272 61.8639 11.3687 61.8639 13.3847C61.8639 15.4007 60.4239 16.8167 58.1919 16.8167H55.7079ZM64.986 9.89272C65.346 9.89272 65.61 9.61672 65.61 9.26872C65.61 8.94472 65.334 8.68072 64.986 8.68072C64.638 8.68072 64.362 8.95672 64.362 9.28072C64.362 9.61672 64.638 9.89272 64.986 9.89272ZM64.554 17.5847H65.406V11.2727H64.554V17.5847ZM69.4686 17.6447C71.1126 17.6447 72.0726 16.9367 72.0726 15.8447C72.0726 13.4207 67.9806 14.7047 67.9806 13.0007C67.9806 12.4007 68.4846 11.9567 69.6246 11.9567C70.2726 11.9567 70.9326 12.1127 71.4846 12.4967L71.8566 11.8127C71.3286 11.4527 70.4406 11.2247 69.6246 11.2247C68.0166 11.2247 67.1286 11.9927 67.1286 13.0247C67.1286 15.5207 71.2206 14.2247 71.2206 15.8687C71.2206 16.4927 70.7286 16.9007 69.5286 16.9007C68.6406 16.9007 67.7886 16.5887 67.2846 16.1927L66.9006 16.8647C67.4166 17.3087 68.4246 17.6447 69.4686 17.6447ZM76.8997 11.2247C75.8557 11.2247 74.9797 11.6807 74.4637 12.5207V11.2727H73.6477V19.9127H74.4997V16.3967C75.0277 17.2127 75.8917 17.6447 76.8997 17.6447C78.6997 17.6447 80.0437 16.3487 80.0437 14.4287C80.0437 12.5207 78.6997 11.2247 76.8997 11.2247ZM76.8397 16.8887C75.4957 16.8887 74.4877 15.9047 74.4877 14.4287C74.4877 12.9647 75.4957 11.9687 76.8397 11.9687C78.1717 11.9687 79.1917 12.9647 79.1917 14.4287C79.1917 15.9047 78.1717 16.8887 76.8397 16.8887ZM84.3605 17.6447C86.2085 17.6447 87.5645 16.3007 87.5645 14.4287C87.5645 12.5567 86.2085 11.2247 84.3605 11.2247C82.5125 11.2247 81.1445 12.5567 81.1445 14.4287C81.1445 16.3007 82.5125 17.6447 84.3605 17.6447ZM84.3605 16.8887C83.0165 16.8887 82.0085 15.9047 82.0085 14.4287C82.0085 12.9527 83.0165 11.9687 84.3605 11.9687C85.7045 11.9687 86.7005 12.9527 86.7005 14.4287C86.7005 15.9047 85.7045 16.8887 84.3605 16.8887ZM92.52 11.2247C91.428 11.2247 90.576 11.6687 90.12 12.4367V11.2727H89.304V17.5847H90.156V14.2727C90.156 12.8327 91.008 11.9927 92.364 11.9927C93.564 11.9927 94.26 12.6767 94.26 14.0087V17.5847H95.112V13.9247C95.112 12.1127 94.056 11.2247 92.52 11.2247ZM97.0771 10.3007H97.9171L99.8611 8.81272H98.7211L97.0771 10.3007ZM97.4251 17.5847H98.2771V11.2727H97.4251V17.5847ZM105.112 11.2727L102.724 16.6487L100.36 11.2727H99.4717L102.268 17.5847H103.144L105.952 11.2727H105.112ZM112.484 14.4287C112.484 12.5327 111.2 11.2247 109.424 11.2247C107.648 11.2247 106.34 12.5567 106.34 14.4287C106.34 16.3007 107.684 17.6447 109.652 17.6447C110.648 17.6447 111.524 17.2847 112.088 16.6127L111.608 16.0607C111.128 16.6127 110.444 16.8887 109.676 16.8887C108.296 16.8887 107.288 16.0127 107.192 14.6927H112.472C112.472 14.5967 112.484 14.5007 112.484 14.4287ZM109.424 11.9567C110.66 11.9567 111.56 12.8207 111.668 14.0567H107.192C107.3 12.8207 108.2 11.9567 109.424 11.9567ZM114.218 17.5847H115.07V8.68072H114.218V17.5847ZM123.797 11.2247C122.705 11.2247 121.853 11.6687 121.397 12.4367V11.2727H120.581V17.5847H121.433V14.2727C121.433 12.8327 122.285 11.9927 123.641 11.9927C124.841 11.9927 125.537 12.6767 125.537 14.0087V17.5847H126.389V13.9247C126.389 12.1127 125.333 11.2247 123.797 11.2247ZM130.91 11.2247C129.914 11.2247 128.978 11.5367 128.342 12.0767L128.726 12.7127C129.242 12.2567 130.01 11.9687 130.826 11.9687C132.002 11.9687 132.614 12.5567 132.614 13.6367V14.0207H130.61C128.798 14.0207 128.174 14.8367 128.174 15.8087C128.174 16.9007 129.05 17.6447 130.478 17.6447C131.522 17.6447 132.266 17.2487 132.65 16.6007V17.5847H133.466V13.6727C133.466 12.0407 132.542 11.2247 130.91 11.2247ZM130.61 16.9727C129.602 16.9727 129.014 16.5167 129.014 15.7847C129.014 15.1367 129.41 14.6567 130.634 14.6567H132.614V15.6887C132.278 16.5167 131.57 16.9727 130.61 16.9727Z" fill="white"/>
</svg>
