<svg width="22" height="16" viewBox="0 0 22 16" fill="none" xmlns="http://www.w3.org/2000/svg">
<path d="M7.99659 15.1761C8.25062 14.8072 8.19675 14.2705 7.87501 13.9783L5.60255 11.9129L2.61743 8.84982L21.2587 8.84982C21.6684 8.84982 22 8.46779 22 7.99707C22 7.52635 21.6684 7.14431 21.2587 7.14431L2.80375 7.14431L7.98275 1.99764C8.29213 1.69065 8.32722 1.15171 8.05935 0.795256C7.79148 0.438804 7.32345 0.399578 7.01357 0.707707L0.257 7.42231C0.0953881 7.58263 0.0019776 7.81515 -3.3049e-07 8.06074C-3.3059e-07 8.06301 -3.30689e-07 8.06529 -3.30789e-07 8.06756C-3.41424e-07 8.31088 0.0899521 8.54226 0.247612 8.70372L4.64919 13.2182L6.95525 15.316C7.2765 15.6082 7.74255 15.5457 7.99659 15.1761Z" fill="#0079C8"/>
</svg>
