<svg width="24" height="24" viewBox="0 0 24 24" fill="none" xmlns="http://www.w3.org/2000/svg">
<rect x="23.5" y="23.5" width="23" height="23" rx="1.5" transform="rotate(-180 23.5 23.5)" stroke="white"/>
<path d="M13.7244 8.37416C13.5786 8.56059 13.6095 8.83174 13.7942 8.97939L15.099 10.0229L16.813 11.5706L6.10985 11.5706C5.87461 11.5706 5.6842 11.7636 5.6842 12.0015C5.6842 12.2393 5.87461 12.4323 6.10985 12.4323L16.706 12.4324L13.7324 15.0328C13.5547 15.1879 13.5346 15.4602 13.6884 15.6403C13.8422 15.8204 14.1109 15.8402 14.2889 15.6845L18.1682 12.2919C18.261 12.2109 18.3146 12.0934 18.3158 11.9693C18.3158 11.9682 18.3158 11.967 18.3158 11.9659C18.3158 11.8429 18.2641 11.726 18.1736 11.6444L15.6464 9.36343L14.3223 8.3035C14.1379 8.15586 13.8703 8.18745 13.7244 8.37416Z" fill="white"/>
</svg>
