<svg width="26" height="25" viewBox="0 0 26 25" fill="none" xmlns="http://www.w3.org/2000/svg">
<path d="M12.2909 23.435C19.079 23.435 24.5818 18.1889 24.5818 11.7175C24.5818 5.2461 19.079 0 12.2909 0C5.50283 0 0 5.2461 0 11.7175C0 18.1889 5.50283 23.435 12.2909 23.435Z" fill="#6DA544"/>
<path d="M12.2901 4.58508L22.4434 11.7175L12.2901 18.8498L2.13672 11.7175L12.2901 4.58508Z" fill="#FFDA44"/>
<path d="M12.2907 15.7928C14.6518 15.7928 16.5658 13.9681 16.5658 11.7172C16.5658 9.46632 14.6518 7.6416 12.2907 7.6416C9.92964 7.6416 8.01562 9.46632 8.01562 11.7172C8.01562 13.9681 9.92964 15.7928 12.2907 15.7928Z" fill="#F0F0F0"/>
<path d="M10.1518 11.4626C9.40838 11.4626 8.69095 11.5704 8.01562 11.7705C8.04554 13.9968 9.94698 15.793 12.2894 15.793C13.7378 15.793 15.017 15.1057 15.7903 14.0552C14.4672 12.4762 12.4315 11.4626 10.1518 11.4626Z" fill="#0052B4"/>
<path d="M16.4838 12.4981C16.5352 12.2452 16.563 11.9844 16.563 11.7172C16.563 9.46628 14.649 7.6416 12.2879 7.6416C10.5262 7.6416 9.01387 8.65777 8.35938 10.1086C8.93791 9.99434 9.5369 9.93415 10.1504 9.93415C12.6334 9.93411 14.8797 10.9181 16.4838 12.4981Z" fill="#0052B4"/>
</svg>
