<svg width="72" height="72" viewBox="0 0 72 72" fill="none" xmlns="http://www.w3.org/2000/svg">
<path d="M72 0H0V72H72V0Z" fill="#1C79BE"/>
<path d="M37.167 19.2505C38.8813 19.2505 39.7889 18.4726 40.3507 17.5794L40.3219 17.709C40.1634 18.5446 40.8405 19.0632 41.4743 19.0632H42.0218L43.5488 10.0884H41.6616L41.4023 11.4569C41.0566 10.7511 40.0914 9.90112 38.5356 9.90112C35.7841 9.90112 34.1562 12.2349 33.8681 14.7271C33.5656 17.5794 35.3519 19.2505 37.167 19.2505ZM38.8093 11.3705C41.9785 11.5578 40.9557 17.8099 37.7288 17.6226C34.8045 17.4497 35.712 11.1976 38.8093 11.3705ZM12.706 9.48335C12.706 7.45214 11.4527 6.51577 9.21983 6.51577C7.85129 6.51577 5.70483 6.51577 4.92692 6.51577L2.76605 19.0632C3.03976 19.0632 5.3735 19.0632 6.69883 19.0632C7.59198 19.0632 8.45633 19.0344 8.93172 18.9335C11.1358 18.4581 12.029 16.8015 12.2162 15.5914C12.4611 13.9059 11.4383 12.7967 10.257 12.523C11.1358 12.3213 12.706 11.3849 12.706 9.48335ZM8.09618 17.5218C7.85129 17.5794 7.46233 17.6226 6.6412 17.6226H5.20063L5.92091 13.4161H8.03856C10.8477 13.4161 10.5884 16.8879 8.09618 17.5218ZM8.93172 11.8027C8.65801 11.8891 8.29787 11.9179 7.64961 11.9179H6.18022L6.87169 7.89872H8.78766C11.0782 7.89872 10.9053 11.1256 8.93172 11.8027ZM21.0614 10.1028H20.4851C20.4851 10.1028 19.6496 15.0296 19.5632 15.5914C19.3615 16.8015 18.7997 17.6226 17.215 17.6226C16.3219 17.6226 15.4431 17.0608 15.6448 15.8075C15.7312 15.3177 16.3219 11.7451 16.3795 11.4569C16.5524 10.4918 15.7456 10.1028 15.083 10.1028H14.5788C14.4635 10.8519 13.9017 14.0068 13.7 15.2457C13.6136 15.7355 13.5848 16.2397 13.6136 16.571C13.8009 18.2421 15.227 19.2649 16.9845 19.2649C20.0242 19.2649 21.1766 17.6226 21.5368 15.6778C21.652 15.044 22.2282 11.7883 22.2715 11.4569C22.4155 10.4774 21.652 10.1028 21.0614 10.1028ZM24.2018 22.607L25.0806 17.6514C25.4263 18.3573 26.4059 19.2505 27.9617 19.2505C30.7709 19.2505 32.514 16.9888 32.6868 14.3381C32.8741 11.529 31.2751 9.90112 29.4167 9.90112C27.8033 9.90112 26.7084 10.7078 26.1466 11.5434L26.1754 11.4281C26.3483 10.5638 25.628 10.074 25.023 10.074H24.4179C24.4179 10.074 22.7757 19.7259 22.5596 20.8927C22.3003 22.2613 23.3663 22.5782 23.712 22.5782H24.2018V22.607ZM28.7829 11.529C31.6928 11.6874 30.7853 17.9684 27.688 17.7955C24.5188 17.6082 25.5416 11.3417 28.7829 11.529ZM67.6064 23.7883C66.7853 23.7883 65.6904 23.7451 65.0278 23.5146C64.2499 23.2409 63.5584 22.6934 62.8381 22.1172C62.4779 21.8291 62.089 21.5266 61.6856 21.2529C61.1814 20.9071 60.7781 20.7487 60.3747 20.7487C59.8417 20.7487 59.3231 21.0512 58.7036 21.7139C57.8537 22.607 57.191 23.7018 56.658 24.5374C56.6292 24.5806 56.5716 24.6526 56.4995 24.6526C56.3699 24.6526 56.3555 24.4654 56.3555 24.4221C56.3267 22.074 55.9809 9.31048 55.7216 5.49296C55.6064 3.80748 55.1022 2.75586 54.3963 2.75586C53.8201 2.75586 52.9701 3.53377 52.4371 5.73785C51.083 11.3417 48.173 23.8027 46.9341 30.1268C46.9053 30.2997 46.7036 30.2997 46.6748 30.1268C46.5308 29.4786 46.4155 28.7439 46.3003 28.1244C45.9257 26.1652 45.6088 24.4942 44.9749 23.5578C44.2547 22.5062 43.1742 22.4341 41.8777 23.3273C41.5896 23.529 41.3159 23.7595 41.0278 24.0332C40.1922 24.7679 39.2559 25.6178 37.6856 25.6178H23.6544L23.2799 27.7067H38.1034C39.7456 27.7067 41.2727 26.7271 42.1802 26.05C42.6412 25.7043 42.9725 25.517 43.2174 25.517C43.5776 25.517 43.736 25.8915 43.8657 26.4389C43.9377 26.7127 44.0098 27.0872 44.0962 27.5194C44.3987 28.96 44.8597 31.2361 45.4359 32.7487C45.7096 33.4546 46.113 33.8435 46.574 33.8435C47.2799 33.8435 48.0001 32.9936 48.4035 31.6538C48.9509 29.8819 52.2066 15.3465 53.5752 9.25286C53.6328 9.00796 53.6616 8.86391 53.6616 8.8495C53.6904 8.74866 53.748 8.67663 53.8345 8.67663C53.9065 8.67663 53.9929 8.73425 53.9929 8.87831V8.90712C54.0938 15.0728 54.3963 25.8915 54.8429 27.0008C55.0878 27.6202 55.4623 27.9371 55.9377 27.9371C56.4851 27.9371 57.1334 27.4906 57.5944 26.7847C57.8249 26.4389 58.1274 25.978 58.4443 25.4882C59.2222 24.2925 59.4095 23.9035 59.6688 23.6154C60.0578 23.1976 60.5044 23.1832 61.1382 23.6298C61.2246 23.7019 61.3399 23.7739 61.4695 23.8747C62.1466 24.3789 63.2703 25.0704 64.538 25.4305C65.3735 25.6754 66.4539 25.7187 67.2174 25.7187C67.7072 25.7187 68.2258 25.7043 68.3843 25.6898L68.73 23.7595C68.5572 23.7739 68.0674 23.7883 67.6064 23.7883Z" fill="white"/>
</svg>
