<svg width="48" height="48" viewBox="0 0 48 48" fill="none" xmlns="http://www.w3.org/2000/svg">
<path d="M42.324 29.3797C41.8926 29.3797 41.5427 29.7295 41.5427 30.1609V34.7013C41.5427 35.1009 41.2176 35.426 40.818 35.426H37.9163C38.0131 35.0888 38.0661 34.7333 38.0661 34.3654V31.8711C38.3637 31.4384 38.5384 30.915 38.5384 30.3513V28.3203C38.5384 27.8889 38.1885 27.5391 37.7571 27.5391H33.6643C31.8465 27.5391 30.3677 29.018 30.3677 30.8357V32.2589C30.3677 32.293 30.3705 32.3262 30.3748 32.3592C30.3706 32.3921 30.3677 32.4255 30.3677 32.4595V34.3655C30.3677 35.0648 30.5561 35.7207 30.8835 36.2866C30.8597 36.2809 30.8361 36.2745 30.812 36.2693L27.0754 35.4524C27.074 35.4521 27.0727 35.4515 27.0712 35.4511C28.1189 34.5816 28.7873 33.2704 28.7873 31.8058V28.5184C29.1699 27.9865 29.3962 27.3349 29.3962 26.6312V24.0129C29.3962 23.9211 29.3795 23.8334 29.3504 23.7515V23.1413L40.2649 21.075C40.7332 20.9864 41.1647 20.806 41.5427 20.5551V23.9111C41.5427 24.3425 41.8926 24.6923 42.324 24.6923C42.7554 24.6923 43.1052 24.3425 43.1052 23.9111V12.3114C43.1052 11.0502 42.0791 10.0241 40.818 10.0241H35.2991V7.52977C35.2991 6.41391 34.3913 5.50609 33.2755 5.50609H32.235C31.9265 4.62992 31.091 4 30.1107 4H17.9914C17.0111 4 16.1756 4.62992 15.8671 5.50602H14.8266C13.7107 5.50602 12.8029 6.41383 12.8029 7.52969V10.0241H7.28727C6.02602 10.0241 5 11.0502 5 12.3113V34.7013C5 35.9625 6.02609 36.9885 7.28727 36.9885H11.0734C11.1059 37.0234 11.1387 37.0583 11.1726 37.092L8.60258 37.6558C7.17773 37.9684 6.14352 39.254 6.14352 40.7127V43.2188C6.14352 43.6502 6.49336 44 6.92477 44H15.0763H20.8486H27.255H33.0258H41.1787C41.6101 44 41.9599 43.6502 41.9599 43.2188V40.7141C41.9599 39.2543 40.9248 37.9684 39.4987 37.6566L36.9282 37.0946C36.963 37.0601 36.9967 37.0245 37.0302 36.9886H40.8178C42.0791 36.9886 43.1051 35.9625 43.1051 34.7013V30.1609C43.1052 29.7295 42.7555 29.3797 42.324 29.3797ZM31.9302 33.0402H35.8496C36.0752 33.0402 36.2941 33.0119 36.5036 32.9594V34.3655C36.5036 35.6264 35.4777 36.6522 34.2168 36.6522C32.9559 36.6522 31.9301 35.6264 31.9301 34.3655V33.0402H31.9302ZM31.9302 30.8357C31.9302 29.8795 32.7081 29.1016 33.6643 29.1016H36.9759V30.3514C36.9759 30.9724 36.4706 31.4777 35.8496 31.4777H31.9302V30.8357ZM26.3367 36.8359L24.0397 41.4621L21.7428 36.8364C22.017 36.7015 22.2502 36.4995 22.4237 36.2538C22.9315 36.4402 23.4796 36.542 24.0511 36.542C24.6159 36.542 25.1578 36.4422 25.6605 36.26C25.8336 36.5025 26.065 36.7022 26.3367 36.8359ZM24.0511 34.9794C22.3012 34.9794 20.8774 33.5556 20.8774 31.8057V29.8713H26.1559C26.5304 29.8713 26.8899 29.8067 27.2248 29.6893V31.8056C27.2248 33.5557 25.8011 34.9794 24.0511 34.9794ZM27.7879 22.4811C27.7879 22.4816 27.7879 22.482 27.7879 22.4826V23.2188H20.3142V22.4827C20.3142 22.4822 20.3142 22.4816 20.3142 22.4811V21.7692H27.7879V22.4811ZM27.8337 26.6311C27.8337 27.5563 27.081 28.3089 26.1559 28.3089H20.8774V27.2555C20.8774 25.8983 21.9816 24.7941 23.3388 24.7941H27.8337V26.6311ZM17.3022 6.25172C17.3022 5.87172 17.6114 5.5625 17.9914 5.5625H30.1107C30.4907 5.5625 30.7999 5.87172 30.7999 6.25172V6.32281C30.7999 6.70281 30.4907 7.01203 30.1107 7.01203H17.9914C17.6114 7.01203 17.3022 6.70281 17.3022 6.32281V6.25172ZM14.3654 7.52977C14.3654 7.27547 14.5723 7.06859 14.8266 7.06859H15.8671C16.1755 7.94477 17.0111 8.57461 17.9914 8.57461H30.1107C31.091 8.57461 31.9265 7.94469 32.235 7.06859H33.2755C33.5298 7.06859 33.7366 7.27547 33.7366 7.52977V10.0241H14.3654V7.52977ZM7.28727 11.5866H40.8179C41.2175 11.5866 41.5427 11.9117 41.5427 12.3113V17.6465C41.5427 18.5715 40.883 19.3676 39.9742 19.5396L29.3503 21.5509V20.9878C29.3503 20.5564 29.0005 20.2066 28.5691 20.2066H19.533C19.1016 20.2066 18.7517 20.5564 18.7517 20.9878V21.5508L8.13078 19.5398C7.22203 19.3677 6.5625 18.5715 6.5625 17.6466V14.7116H13.7125C14.1439 14.7116 14.4937 14.3618 14.4937 13.9304C14.4937 13.499 14.1439 13.1491 13.7125 13.1491H6.5625V12.3114C6.5625 11.9118 6.88766 11.5866 7.28727 11.5866ZM7.28727 35.4261C6.88766 35.4261 6.5625 35.1009 6.5625 34.7013V20.5551C6.94055 20.806 7.37195 20.9863 7.84016 21.075L18.7517 23.1412V24C18.7517 24.4314 19.1016 24.7812 19.533 24.7812H20.169C19.6346 25.4643 19.3149 26.323 19.3149 27.2555V29.0901C19.3149 29.1342 19.3195 29.1772 19.3265 29.2194C19.3195 29.2615 19.3149 29.3045 19.3149 29.3487V31.8057C19.3149 33.2677 19.981 34.5767 21.0254 35.4462C21.0184 35.4484 21.0116 35.4512 21.0042 35.4528L17.2877 36.2682C17.2654 36.2731 17.2436 36.279 17.2215 36.2843C17.548 35.719 17.7359 35.064 17.7359 34.3655V31.8713C18.0335 31.4386 18.2082 30.9152 18.2082 30.3515V28.3203C18.2082 27.8889 17.8584 27.5391 17.427 27.5391H13.3342C11.5164 27.5391 10.0376 29.018 10.0376 30.8357V32.2589C10.0376 32.293 10.0405 32.3262 10.0448 32.3592C10.0405 32.3921 10.0376 32.4255 10.0376 32.4595V34.3655C10.0376 34.7334 10.0905 35.0889 10.1873 35.4261H7.28727ZM11.6 34.3655V33.0402H15.5195C15.7449 33.0402 15.9639 33.0119 16.1734 32.9594V34.3655C16.1734 35.6264 15.1476 36.6522 13.8866 36.6522C12.6257 36.6522 11.6 35.6263 11.6 34.3655ZM16.6456 30.3514C16.6456 30.9724 16.1404 31.4777 15.5195 31.4777H11.6V30.8357C11.6 29.8795 12.378 29.1016 13.3341 29.1016H16.6456V30.3514ZM7.70609 40.7128C7.70609 39.9823 8.22398 39.3386 8.93742 39.182L11.8205 38.5495C12.1676 38.4734 12.4678 38.2819 12.6861 38.0218C13.0641 38.1463 13.4675 38.2146 13.8868 38.2146C14.2017 38.2146 14.5077 38.1757 14.8009 38.1041C14.4784 38.6656 14.2951 39.3115 14.2951 39.9883V42.4375H7.70609V40.7128ZM15.8576 42.4375V39.9882C15.8576 38.9412 16.5998 38.0186 17.6224 37.7943L20.1938 37.2302L22.7795 42.4375H20.8486H15.8576ZM27.255 42.4375H25.2999L27.8862 37.229L30.4782 37.7957C31.5017 38.0195 32.2445 38.9423 32.2445 39.99V42.4375H27.255ZM36.2666 38.5494L39.1652 39.1831C39.8793 39.3392 40.3975 39.983 40.3975 40.7141V42.4375H33.8071V39.99C33.8071 39.3122 33.6233 38.6655 33.3001 38.1034C33.5941 38.1755 33.9009 38.2147 34.2169 38.2147C34.6311 38.2147 35.0299 38.1481 35.4041 38.0265C35.6222 38.2841 35.9212 38.4739 36.2666 38.5494Z" fill="#00335B"/>
<path d="M16.8376 14.7109C17.0431 14.7109 17.2447 14.6274 17.39 14.482C17.5352 14.3359 17.6189 14.1352 17.6189 13.9297C17.6189 13.7242 17.5353 13.5227 17.39 13.3774C17.2447 13.2321 17.0431 13.1484 16.8376 13.1484C16.6314 13.1484 16.4306 13.232 16.2853 13.3774C16.1392 13.5227 16.0564 13.7235 16.0564 13.9297C16.0564 14.1352 16.1392 14.3367 16.2853 14.482C16.4307 14.6274 16.6315 14.7109 16.8376 14.7109Z" fill="#00335B"/>
<path d="M42.3235 26.2539C42.118 26.2539 41.9165 26.3375 41.7711 26.4829C41.6259 26.6281 41.5422 26.8297 41.5422 27.0352C41.5422 27.2407 41.6258 27.4422 41.7711 27.5875C41.9165 27.7328 42.118 27.8164 42.3235 27.8164C42.5297 27.8164 42.7305 27.7329 42.8758 27.5875C43.0219 27.4422 43.1054 27.2407 43.1054 27.0352C43.1054 26.8297 43.0219 26.6281 42.8758 26.4829C42.7305 26.3376 42.5297 26.2539 42.3235 26.2539Z" fill="#00335B"/>
</svg>
