<svg width="38" height="51" viewBox="0 0 38 51" fill="none" xmlns="http://www.w3.org/2000/svg">
<path d="M35.5899 4.12492H27.2167V3.22206C27.2167 2.80948 26.8805 2.47499 26.4656 2.47499H22.7509C22.1244 0.992607 20.6565 0 19.0001 0C17.3437 0 15.8758 0.992607 15.2493 2.47499H11.5347C11.1198 2.47499 10.7836 2.80948 10.7836 3.22206V4.12492H2.4101C1.08113 4.12492 0 5.20031 0 6.52222V10.8042C0 11.2168 0.336174 11.5513 0.751059 11.5513C1.16594 11.5513 1.50212 11.2168 1.50212 10.8042V6.52232C1.50212 6.02427 1.90939 5.61916 2.4101 5.61916H10.7836V7.42568H4.06894C3.65405 7.42568 3.31788 7.76017 3.31788 8.17275V46.9527C3.31788 47.3653 3.65405 47.6997 4.06894 47.6997H33.9309C34.3457 47.6997 34.6819 47.3653 34.6819 46.9527V8.17265C34.6819 7.76007 34.3457 7.42558 33.9309 7.42558H27.2166V5.61906H35.5898C36.0905 5.61906 36.4978 6.02418 36.4978 6.52222V48.6026C36.4978 49.1007 36.0905 49.5058 35.5898 49.5058H2.4101C1.90939 49.5058 1.50212 49.1007 1.50212 48.6026V13.7926C1.50212 13.38 1.16594 13.0455 0.751059 13.0455C0.336174 13.0455 0 13.38 0 13.7926V48.6027C0 49.9246 1.08123 51 2.4101 51H35.5899C36.9188 51 38 49.9246 38 48.6027V6.52232C38 5.20041 36.9188 4.12492 35.5899 4.12492ZM12.2857 3.96913H15.7868C16.1295 3.96913 16.4287 3.73844 16.5141 3.40833C16.8058 2.28125 17.8281 1.49414 19.0001 1.49414C20.1721 1.49414 21.1944 2.28125 21.4861 3.40833C21.5715 3.73834 21.8707 3.96913 22.2134 3.96913H25.7146V9.07601H19.7512V8.17295C19.7512 7.76037 19.415 7.42588 19.0001 7.42588C18.5852 7.42588 18.249 7.76037 18.249 8.17295V9.07601H12.2857V3.96913ZM33.1799 8.91972V46.2055H4.82V8.91972H10.7836V9.82308C10.7836 10.2357 11.1198 10.5701 11.5347 10.5701H26.4656C26.8805 10.5701 27.2167 10.2357 27.2167 9.82308V8.91972H33.1799Z" fill="#00335B"/>
<path d="M19 31.3537H15.682C15.2671 31.3537 14.931 31.6882 14.931 32.1008C14.931 32.5134 15.2671 32.8479 15.682 32.8479H19C19.4149 32.8479 19.7511 32.5134 19.7511 32.1008C19.7511 31.6882 19.4149 31.3537 19 31.3537Z" fill="#00335B"/>
<path d="M22.318 34.6538H15.6819C15.267 34.6538 14.9309 34.9883 14.9309 35.4009C14.9309 35.8135 15.267 36.1479 15.6819 36.1479H22.318C22.7329 36.1479 23.069 35.8135 23.069 35.4009C23.069 34.9883 22.7328 34.6538 22.318 34.6538Z" fill="#00335B"/>
<path d="M24.0553 35.4011C24.0553 35.8137 24.3915 36.1481 24.8064 36.1481H27.2951C27.71 36.1481 28.0462 35.8137 28.0462 35.4011C28.0462 34.9885 27.71 34.654 27.2951 34.654H24.8064C24.3916 34.654 24.0553 34.9885 24.0553 35.4011Z" fill="#00335B"/>
<path d="M12.6106 22.5139L18.469 28.3413C18.6099 28.4814 18.8008 28.5601 19.0001 28.5601C19.1993 28.5601 19.3903 28.4814 19.5312 28.3413L25.3966 22.5069C27.3064 20.6071 27.3064 17.516 25.3966 15.6162C24.4713 14.6959 23.2412 14.189 21.9327 14.189C20.8609 14.189 19.8418 14.529 18.9996 15.1579C17.0826 13.731 14.3451 13.8836 12.6034 15.616C10.6936 17.5157 10.6936 20.607 12.6034 22.5067C12.6058 22.5092 12.6082 22.5116 12.6106 22.5139ZM13.6655 16.6726C14.9897 15.3554 17.1445 15.3554 18.4688 16.6725C18.492 16.6956 18.5168 16.7172 18.5429 16.7371C18.6733 16.8367 18.8338 16.8915 19.0001 16.8915C19.1993 16.8915 19.3903 16.8128 19.5312 16.6726C20.1727 16.0345 21.0257 15.6831 21.9327 15.6831C22.84 15.6831 23.6928 16.0345 24.3343 16.6726C25.6587 17.9899 25.6586 20.1331 24.3343 21.4504L19 26.7565L13.6657 21.4504C13.6636 21.4483 13.6613 21.4461 13.6592 21.444C12.3413 20.1263 12.3434 17.9878 13.6655 16.6726Z" fill="#00335B"/>
<path d="M12.3639 31.3537H9.04596C8.63108 31.3537 8.2949 31.6882 8.2949 32.1008V35.4012C8.2949 35.8138 8.63108 36.1482 9.04596 36.1482H12.364C12.7789 36.1482 13.1151 35.8138 13.1151 35.4012V32.1008C13.115 31.6882 12.7788 31.3537 12.3639 31.3537ZM11.6129 34.6541H9.79702V32.8479H11.613L11.6129 34.6541Z" fill="#00335B"/>
<path d="M15.682 39.4487H19C19.4149 39.4487 19.7511 39.1142 19.7511 38.7016C19.7511 38.289 19.4149 37.9546 19 37.9546H15.682C15.2671 37.9546 14.931 38.289 14.931 38.7016C14.931 39.1142 15.2672 39.4487 15.682 39.4487Z" fill="#00335B"/>
<path d="M22.318 41.2546H15.6819C15.267 41.2546 14.9309 41.5891 14.9309 42.0017C14.9309 42.4143 15.267 42.7488 15.6819 42.7488H22.318C22.7329 42.7488 23.069 42.4143 23.069 42.0017C23.069 41.5891 22.7328 41.2546 22.318 41.2546Z" fill="#00335B"/>
<path d="M27.2951 41.2548H24.8064C24.3915 41.2548 24.0553 41.5893 24.0553 42.0019C24.0553 42.4145 24.3915 42.749 24.8064 42.749H27.2951C27.71 42.749 28.0462 42.4145 28.0462 42.0019C28.0462 41.5893 27.71 41.2548 27.2951 41.2548Z" fill="#00335B"/>
<path d="M12.3639 37.9545H9.04596C8.63108 37.9545 8.2949 38.2889 8.2949 38.7015V42.0019C8.2949 42.4145 8.63108 42.749 9.04596 42.749H12.364C12.7789 42.749 13.1151 42.4145 13.1151 42.0019V38.7015C13.115 38.2889 12.7788 37.9545 12.3639 37.9545ZM11.6129 41.2549H9.79702V39.4487H11.613L11.6129 41.2549Z" fill="#00335B"/>
</svg>
