<svg width="536" height="459" viewBox="0 0 536 459" fill="none" xmlns="http://www.w3.org/2000/svg">
<path d="M208.559 389.986C138.999 358.628 87.3741 292.52 73.5591 217.574L75.498 217.211C89.0707 291.551 140.332 357.054 209.286 388.17L208.559 389.986Z" fill="#43AADD"/>
<path d="M77.8005 231.982C71.7413 224.475 68.1057 214.184 67.7422 203.65C67.621 201.108 67.8634 198.202 69.4388 196.386C69.9235 195.901 70.4083 195.538 71.0142 195.538C71.9837 195.538 72.7108 196.507 73.1955 197.354C76.1039 202.197 76.5887 208.614 76.7099 214.668C76.7099 220.964 77.437 225.444 77.8005 231.982Z" fill="#43AADD"/>
<path d="M84.7077 253.291C82.1629 243 83.4959 231.861 88.2221 222.538C89.4339 220.238 91.0093 217.816 93.5542 217.332C94.2813 217.211 95.0084 217.211 95.6144 217.574C96.5838 218.179 96.9474 219.39 97.0686 220.601C97.6745 226.655 95.0084 232.587 92.1 237.794C89.0704 243 87.495 247.359 84.7077 253.291Z" fill="#43AADD"/>
<path d="M95.4936 279.081C91.7369 269.273 91.6157 258.013 95.2512 248.085C96.0995 245.664 97.5537 243.121 99.9774 242.273C100.705 242.031 101.432 241.91 102.038 242.273C103.128 242.758 103.613 243.968 103.855 245.058C105.188 250.991 103.371 257.166 100.947 262.735C98.5232 268.305 97.5537 272.785 95.4936 279.081Z" fill="#43AADD"/>
<path d="M109.187 302.569C105.431 292.762 105.31 281.502 108.945 271.574C109.793 269.152 111.248 266.61 113.671 265.762C114.398 265.52 115.125 265.399 115.731 265.762C116.822 266.247 117.307 267.457 117.549 268.547C118.882 274.48 117.064 280.655 114.641 286.224C112.338 291.794 111.369 296.273 109.187 302.569Z" fill="#43AADD"/>
<path d="M131.364 331.143C126.516 321.699 125.305 310.56 127.971 300.269C128.577 297.726 129.667 295.063 131.97 293.973C132.576 293.731 133.303 293.489 134.03 293.731C135.121 294.094 135.726 295.184 136.09 296.274C138.029 302.085 136.817 308.381 135.121 314.193C133.303 320.126 132.818 324.726 131.364 331.143Z" fill="#43AADD"/>
<path d="M149.542 350.273C144.694 341.798 142.755 331.022 144.21 320.489C144.573 317.946 145.3 315.161 147.239 313.708C147.724 313.345 148.451 313.103 149.057 313.103C150.026 313.224 150.632 314.314 150.996 315.403C153.056 320.731 152.571 327.148 151.481 333.081C150.39 339.134 150.269 343.735 149.542 350.273Z" fill="#43AADD"/>
<path d="M88.2223 262.493C77.3157 261.767 66.6514 257.045 58.4108 249.417C56.4719 247.48 54.4117 245.179 54.5329 242.516C54.5329 241.789 54.7753 241.063 55.26 240.578C56.1083 239.731 57.4414 239.852 58.6532 240.094C64.8336 241.426 70.0446 245.785 74.5284 250.386C79.0122 254.987 83.0113 257.771 88.2223 262.493Z" fill="#43AADD"/>
<path d="M97.1899 282.108C86.5257 284.045 74.892 281.987 65.1972 276.538C62.7735 275.206 60.3498 273.39 59.7439 270.727C59.6227 270 59.6227 269.274 59.9862 268.668C60.5922 267.7 61.9252 267.457 63.137 267.457C69.4386 267.215 75.4979 270.242 80.9512 273.632C86.5257 277.022 91.0095 278.839 97.1899 282.108Z" fill="#43AADD"/>
<path d="M111.853 305.96C101.795 309.955 90.0401 310.318 79.3758 306.928C76.7097 306.081 73.9225 304.749 72.953 302.327C72.7106 301.601 72.5894 300.874 72.8318 300.269C73.1954 299.179 74.5284 298.695 75.6191 298.453C81.7995 297 88.3435 298.695 94.4027 300.996C100.341 303.175 105.188 304.022 111.853 305.96Z" fill="#43AADD"/>
<path d="M133.545 334.655C122.76 336.35 111.247 334.049 101.674 328.359C99.3711 326.906 96.8263 325.09 96.3415 322.426C96.2203 321.7 96.2203 320.973 96.5839 320.368C97.1898 319.399 98.5229 319.157 99.7347 319.157C106.036 319.157 112.096 322.184 117.428 325.816C122.881 329.327 127.365 331.265 133.545 334.655Z" fill="#43AADD"/>
<path d="M152.208 352.453C143.361 358.749 132.091 361.897 120.942 361.17C118.155 360.928 115.125 360.323 113.55 358.265C113.065 357.659 112.823 356.933 112.823 356.206C112.944 355.117 114.035 354.269 115.125 353.785C120.7 350.879 127.486 351 133.909 351.727C140.332 352.453 145.179 352.211 152.208 352.453Z" fill="#43AADD"/>
<path d="M170.265 399.309C128.698 362.26 69.3178 347.368 15.1482 360.444L14.7847 358.991C69.3178 345.794 129.304 360.928 171.234 398.22L170.265 399.309Z" fill="#43AADD"/>
<path d="M26.5395 357.296C19.026 355.48 10.7854 356.57 3.87791 360.202C2.18132 361.049 0.484739 362.381 0 364.197C0 364.682 0 365.287 0.242369 365.65C0.727108 366.377 1.5754 366.619 2.42369 366.619C6.90753 366.982 11.149 365.045 15.0269 362.745C19.026 360.686 22.1768 359.475 26.5395 357.296Z" fill="#43AADD"/>
<path d="M42.2933 355.722C34.6586 357.054 27.5087 361.292 22.6613 367.345C21.4495 368.798 20.3588 370.615 20.7224 372.552C20.8436 373.036 21.0859 373.52 21.4495 373.884C22.1766 374.368 23.0249 374.247 23.8732 373.884C28.1147 372.431 31.2655 368.919 33.9315 365.408C36.5976 361.776 39.1425 359.476 42.2933 355.722Z" fill="#43AADD"/>
<path d="M62.895 355.238C55.1391 355.601 47.5045 358.991 41.93 364.319C40.597 365.65 39.2639 367.345 39.3851 369.283C39.3851 369.767 39.6275 370.372 39.991 370.736C40.597 371.341 41.5664 371.22 42.4147 371.099C46.7774 370.251 50.4129 367.103 53.4425 363.834C56.4722 360.565 59.2594 358.628 62.895 355.238Z" fill="#43AADD"/>
<path d="M82.769 357.538C75.0132 357.902 67.3785 361.292 61.804 366.619C60.471 367.951 59.138 369.646 59.2591 371.583C59.2591 372.067 59.5015 372.673 59.8651 373.036C60.471 373.642 61.4405 373.52 62.2888 373.399C66.6514 372.552 70.287 369.404 73.3166 366.135C76.4674 362.866 79.2546 360.807 82.769 357.538Z" fill="#43AADD"/>
<path d="M108.703 363.955C100.947 363.592 93.0699 366.014 86.8895 370.857C85.4353 372.067 83.8599 373.52 83.8599 375.458C83.8599 375.942 83.981 376.547 84.3446 376.91C84.9505 377.516 85.92 377.637 86.6471 377.516C91.1309 377.032 95.0089 374.368 98.402 371.462C101.795 368.556 104.704 366.74 108.703 363.955Z" fill="#43AADD"/>
<path d="M127.001 370.372C119.852 369.646 111.975 371.583 105.309 375.7C103.734 376.668 102.037 378 101.674 379.816C101.553 380.301 101.553 380.785 101.795 381.148C102.159 381.753 103.128 381.875 103.855 381.753C108.097 381.511 112.217 379.332 115.974 376.789C119.73 374.247 122.76 372.794 127.001 370.372Z" fill="#43AADD"/>
<path d="M49.5646 355.359C45.9291 348.215 39.5063 342.404 31.8716 339.256C30.0539 338.529 27.8725 337.803 26.0548 338.771C25.57 339.013 25.0853 339.377 24.9641 339.861C24.7217 340.709 25.0853 341.556 25.6912 342.283C28.3573 346.036 32.9623 348.215 37.3249 349.91C41.6876 351.484 44.8384 353.3 49.5646 355.359Z" fill="#43AADD"/>
<path d="M65.44 355.601C63.501 347.852 58.7748 340.588 52.1096 335.744C50.5342 334.534 48.4741 333.444 46.5352 333.807C46.0504 333.928 45.4445 334.17 45.2021 334.655C44.7174 335.381 44.9598 336.35 45.3233 337.076C47.0199 341.314 50.8978 344.583 54.8969 347.247C58.7748 349.91 61.4409 352.332 65.44 355.601Z" fill="#43AADD"/>
<path d="M85.9197 358.265C85.6773 350.274 82.2842 342.283 76.8308 336.108C75.4978 334.655 73.8012 333.081 71.8623 333.081C71.3775 333.081 70.7716 333.202 70.408 333.565C69.8021 334.17 69.8021 335.139 70.0445 335.987C70.8928 340.588 74.0436 344.462 77.3156 347.852C80.4664 351.363 82.5265 354.39 85.9197 358.265Z" fill="#43AADD"/>
<path d="M111.611 364.319C109.551 356.57 104.583 349.547 97.7962 344.704C96.0996 343.493 94.1606 342.525 92.2217 342.888C91.7369 343.009 91.131 343.251 90.8886 343.736C90.4039 344.462 90.6463 345.431 91.0098 346.157C92.8276 350.395 96.8267 353.543 100.705 356.085C104.825 358.749 107.491 361.171 111.611 364.319Z" fill="#43AADD"/>
<path d="M129.304 371.462C131.001 363.592 129.667 355.117 125.79 347.852C124.82 346.036 123.487 344.22 121.669 343.736C121.185 343.614 120.579 343.614 120.094 343.857C119.367 344.341 119.124 345.31 119.124 346.157C118.882 350.758 120.942 355.359 123.366 359.475C125.668 363.471 127.001 366.861 129.304 371.462Z" fill="#43AADD"/>
<path d="M304.174 417.955C237.159 415.897 107.491 416.866 40.3548 417.955C38.537 417.955 36.1133 418.44 35.1438 416.987C31.6295 411.417 66.2883 405.727 97.7963 402.7C99.2505 402.579 100.826 402.336 101.795 401.368C104.34 399.067 102.28 394.83 103.492 391.682C104.825 388.17 109.43 387.202 113.187 388.17C116.822 389.139 120.094 391.318 123.851 391.803C127.608 392.408 132.213 390.471 132.455 386.718C132.698 383.933 130.395 381.632 129.547 379.09C127.608 373.399 134.152 366.74 139.969 368.677C143.483 369.888 146.634 373.278 150.027 371.946C153.42 370.493 153.178 365.65 154.026 362.018C155.723 354.39 164.206 350.274 171.961 349.426C183.474 348.215 195.35 352.332 203.833 360.202C203.833 360.202 210.135 331.386 235.583 332.112C261.153 332.839 272.181 352.574 275.211 367.588C275.211 367.588 285.754 337.924 310.718 358.386" fill="#43AADD"/>
<path d="M351.799 273.632C356.404 266.489 361.13 258.861 362.1 250.386C362.948 242.516 364.281 233.798 363.191 225.928C362.1 218.058 362.706 210.067 364.645 202.318C370.462 178.103 380.52 181.009 384.277 182.946C387.912 184.762 389.488 188.879 389.609 195.296C389.73 200.502 385.61 224.475 393.487 221.085C402.697 217.09 402.939 191.906 404.515 183.552C406.938 171.081 412.392 157.762 422.086 149.166C426.934 144.928 433.962 142.022 439.658 144.928C443.051 146.744 445.233 150.256 446.323 153.888C449.838 164.906 445.839 176.166 441.234 186.215C439.295 190.453 424.389 209.704 436.386 208.009C439.295 207.646 463.653 189.363 465.592 208.856C466.319 215.758 458.442 222.538 446.081 231.134C438.325 236.462 409.968 250.143 411.18 257.771C412.392 265.399 428.267 253.655 426.085 267.7C424.874 275.569 414.33 281.018 407.302 283.924C403.909 285.256 400.273 285.982 397.001 287.556C393.123 289.372 388.276 293.973 391.184 298.695C392.396 300.753 394.941 301.722 396.032 303.78C397.243 305.839 396.759 308.623 395.426 310.682C394.093 312.74 392.032 314.072 389.972 315.404C376.642 323.152 360.04 324.121 344.892 320.852C329.744 317.462 315.807 310.197 302.598 302.327" fill="#3BA3CC"/>
<path d="M454.321 212.368C453.958 212.005 453.352 211.883 452.988 212.126C452.746 212.368 425.843 232.224 403.545 235.614C424.389 196.022 432.629 158.731 432.75 158.126C432.872 157.641 432.508 157.157 432.023 157.036C431.539 156.915 431.054 157.278 430.933 157.762C430.811 158.368 419.057 211.641 388.033 258.256C383.065 249.78 376.157 227.139 380.762 193.238C380.883 192.753 380.52 192.269 379.914 192.148C379.429 192.027 378.944 192.39 378.823 192.996C376.763 208.735 375.672 242.637 386.821 259.951C379.672 270.484 371.431 280.776 362.221 289.857C361.857 290.22 361.857 290.825 362.221 291.188C362.463 291.431 362.706 291.552 362.948 291.431C363.19 291.431 363.312 291.309 363.554 291.188C366.099 288.646 368.644 286.103 370.946 283.44C371.552 283.44 372.279 283.318 372.885 283.197C405.12 279.928 416.027 271.211 416.512 270.848C416.875 270.484 416.996 269.879 416.633 269.516C416.269 269.153 415.663 269.031 415.3 269.395C415.179 269.516 404.393 278.112 372.885 281.381C378.581 274.843 383.913 267.821 388.639 260.677C388.76 260.556 388.76 260.556 388.882 260.435C393.971 252.928 398.455 245.3 402.575 237.673C425.601 234.888 453.109 214.547 454.2 213.7C454.564 213.457 454.685 212.852 454.321 212.368Z" fill="#43AADD"/>
<path d="M389.245 304.87C389.124 304.87 371.795 307.412 356.768 298.211C356.283 297.969 355.677 298.09 355.435 298.574C355.192 299.058 355.313 299.664 355.798 299.906C369.25 308.26 384.155 307.412 388.397 307.049C389.124 306.928 389.488 306.928 389.609 306.928C390.093 306.807 390.457 306.323 390.457 305.838C390.336 305.233 389.851 304.87 389.245 304.87Z" fill="#40A5CC"/>
<path d="M214.739 257.045C210.134 249.901 205.408 242.274 204.439 233.798C203.59 225.928 202.257 217.211 203.348 209.341C204.439 201.471 203.833 193.48 201.894 185.731C196.077 161.516 186.018 164.422 182.262 166.359C178.626 168.175 177.051 172.291 176.93 178.709C176.808 183.915 180.929 207.888 173.052 204.498C163.842 200.502 163.599 175.318 162.024 166.964C159.6 154.493 154.147 141.175 144.452 132.578C139.605 128.341 132.576 125.435 126.88 128.341C123.487 130.157 121.306 133.668 120.215 137.3C116.701 148.318 120.7 159.578 125.305 169.628C127.244 173.865 142.15 193.117 130.152 191.422C127.244 191.058 102.886 172.776 100.947 192.269C100.22 199.17 108.097 205.951 120.458 214.547C128.213 219.874 156.571 233.556 155.359 241.184C154.147 248.812 138.272 237.067 140.453 251.112C141.665 258.982 152.208 264.43 159.237 267.336C162.63 268.668 166.265 269.395 169.537 270.969C173.415 272.785 178.263 277.386 175.354 282.108C174.142 284.166 171.597 285.135 170.507 287.193C169.295 289.251 169.78 292.036 171.113 294.094C172.446 296.152 174.506 297.484 176.566 298.816C189.896 306.565 206.499 307.534 221.647 304.265C236.795 300.874 250.731 293.61 263.94 285.74" fill="#3BA3CC"/>
<path d="M112.217 195.78C112.581 195.417 113.187 195.296 113.55 195.538C113.792 195.78 140.695 215.637 162.993 219.027C142.15 179.435 133.909 142.144 133.788 141.538C133.667 141.054 134.03 140.57 134.515 140.449C135 140.327 135.485 140.691 135.606 141.175C135.727 141.78 147.482 195.054 178.505 241.668C183.474 233.193 190.381 210.552 185.776 176.65C185.655 176.166 186.019 175.682 186.624 175.561C187.109 175.44 187.594 175.803 187.715 176.408C189.775 192.148 190.866 226.049 179.717 243.363C186.867 253.897 195.107 264.188 204.317 273.269C204.681 273.632 204.681 274.238 204.317 274.601C204.075 274.843 203.833 274.964 203.59 274.843C203.348 274.843 203.227 274.722 202.984 274.601C200.44 272.058 197.895 269.516 195.592 266.852C194.986 266.852 194.259 266.731 193.653 266.61C161.418 263.341 150.511 254.623 150.027 254.26C149.663 253.897 149.542 253.292 149.906 252.928C150.269 252.565 150.875 252.444 151.239 252.807C151.36 252.928 162.145 261.525 193.653 264.794C187.958 258.256 182.625 251.233 177.899 244.09C177.778 243.969 177.778 243.969 177.657 243.848C172.567 236.341 168.083 228.713 163.963 221.085C140.938 218.301 113.429 197.96 112.338 197.112C111.975 196.749 111.854 196.144 112.217 195.78Z" fill="#43AADD"/>
<path d="M177.293 288.282C177.415 288.282 194.744 290.825 209.771 281.623C210.256 281.381 210.862 281.502 211.104 281.986C211.346 282.471 211.225 283.076 210.74 283.318C197.289 291.673 182.383 290.825 178.142 290.462C177.415 290.341 177.051 290.341 176.93 290.341C176.445 290.22 176.082 289.735 176.082 289.251C176.324 288.525 176.687 288.282 177.293 288.282Z" fill="#40A5CC"/>
<path d="M438.204 390.35L437.477 389.018C477.468 367.345 508.734 330.78 523.033 288.646L524.488 289.13C510.067 331.506 478.559 368.435 438.204 390.35Z" fill="#43AADD"/>
<path d="M519.398 300.269C525.215 294.578 528.85 286.829 529.577 278.717C529.699 276.78 529.577 274.48 528.244 273.148C527.881 272.785 527.396 272.421 526.79 272.421C525.942 272.421 525.215 273.148 524.609 273.753C521.822 277.507 521.095 282.35 520.973 286.951C520.731 291.794 519.883 295.305 519.398 300.269Z" fill="#43AADD"/>
<path d="M512.006 315.04C515.157 307.534 515.399 298.937 512.733 291.309C512.127 289.372 511.158 287.435 509.219 286.708C508.734 286.466 508.128 286.466 507.643 286.587C506.795 286.951 506.432 287.798 506.189 288.646C505.099 293.125 506.432 297.969 508.007 302.327C509.825 306.686 510.552 310.197 512.006 315.04Z" fill="#43AADD"/>
<path d="M500.857 333.444C504.856 326.421 506.189 317.825 504.493 309.955C504.129 308.018 503.402 305.838 501.584 304.991C501.099 304.749 500.494 304.628 500.009 304.749C499.161 304.991 498.676 305.838 498.312 306.686C496.616 311.045 497.343 315.888 498.555 320.489C499.766 324.847 500.009 328.359 500.857 333.444Z" fill="#43AADD"/>
<path d="M487.769 349.668C491.768 342.646 493.101 334.049 491.404 326.179C491.041 324.242 490.314 322.063 488.496 321.215C488.011 320.973 487.405 320.852 486.92 320.973C486.072 321.215 485.587 322.063 485.224 322.91C483.527 327.269 484.254 332.112 485.466 336.713C486.678 341.193 486.92 344.704 487.769 349.668Z" fill="#43AADD"/>
<path d="M467.774 368.919C472.5 362.26 474.681 354.027 473.833 345.915C473.59 343.977 473.106 341.798 471.409 340.708C470.924 340.466 470.44 340.224 469.834 340.345C468.985 340.466 468.38 341.314 468.016 342.04C465.956 346.157 466.077 351.121 466.804 355.722C467.531 360.323 467.41 363.834 467.774 368.919Z" fill="#43AADD"/>
<path d="M451.898 381.39C456.503 375.457 459.291 367.466 459.291 359.354C459.291 357.417 459.048 355.116 457.715 353.785C457.352 353.421 456.867 353.179 456.382 353.179C455.655 353.179 455.049 353.906 454.686 354.632C452.504 358.507 452.141 363.35 452.262 368.072C452.504 372.915 452.02 376.305 451.898 381.39Z" fill="#43AADD"/>
<path d="M508.249 321.578C516.611 322.305 525.336 319.883 532.365 315.04C534.061 313.829 535.879 312.255 536.122 310.197C536.243 309.592 536.122 308.986 535.758 308.623C535.273 307.897 534.183 307.897 533.334 307.897C528.487 308.26 524.003 310.924 520.125 313.951C516.126 316.977 512.733 318.673 508.249 321.578Z" fill="#43AADD"/>
<path d="M499.281 335.502C507.158 338.166 516.247 337.924 524.245 334.897C526.184 334.17 528.244 333.081 528.972 331.143C529.214 330.659 529.214 330.054 528.972 329.569C528.608 328.722 527.638 328.48 526.79 328.238C522.064 327.39 517.095 328.964 512.49 330.901C507.885 332.839 504.25 333.807 499.281 335.502Z" fill="#43AADD"/>
<path d="M485.345 351.969C492.495 356.206 501.463 357.78 509.946 356.327C512.006 355.964 514.308 355.359 515.399 353.543C515.641 353.058 515.884 352.453 515.763 351.969C515.52 351.121 514.672 350.637 513.824 350.273C509.34 348.457 504.129 349.063 499.281 350.031C494.434 351.121 490.799 351.242 485.345 351.969Z" fill="#43AADD"/>
<path d="M465.834 371.341C473.833 373.883 482.8 373.399 490.799 370.13C492.737 369.282 494.798 368.193 495.525 366.255C495.767 365.771 495.767 365.166 495.525 364.681C495.161 363.834 494.192 363.592 493.222 363.471C488.496 362.744 483.527 364.439 479.044 366.498C474.439 368.435 470.803 369.403 465.834 371.341Z" fill="#43AADD"/>
<path d="M449.596 382.722C455.534 388.534 463.774 392.166 472.378 392.892C474.439 393.013 476.862 392.892 478.316 391.56C478.68 391.197 479.044 390.713 479.044 390.108C479.044 389.26 478.316 388.534 477.589 387.928C473.711 385.143 468.501 384.417 463.532 384.296C458.563 384.054 454.928 383.327 449.596 382.722Z" fill="#43AADD"/>
<path d="M419.178 377.273L417.966 376.305C445.354 339.861 458.321 293.61 453.837 249.417L455.412 249.296C460.017 293.852 446.808 340.466 419.178 377.273Z" fill="#43AADD"/>
<path d="M455.412 261.525C458.321 254.018 458.442 245.3 455.655 237.673C454.928 235.856 453.958 233.798 452.019 233.193C451.535 233.072 450.929 232.951 450.444 233.193C449.596 233.556 449.232 234.525 449.111 235.372C448.141 239.973 449.474 244.695 451.292 248.933C453.11 253.291 453.837 256.803 455.412 261.525Z" fill="#43AADD"/>
<path d="M454.928 278.112C454.564 270 451.292 262.009 445.718 256.197C444.385 254.744 442.567 253.292 440.628 253.534C440.143 253.534 439.537 253.776 439.174 254.139C438.568 254.744 438.568 255.834 438.81 256.682C439.658 261.283 442.809 265.036 446.202 268.305C449.474 271.332 451.535 274.238 454.928 278.112Z" fill="#43AADD"/>
<path d="M452.504 299.3C453.231 291.188 450.807 282.955 445.96 276.417C444.748 274.843 443.173 273.148 441.234 273.148C440.628 273.148 440.143 273.269 439.658 273.632C438.931 274.238 438.931 275.206 438.931 276.054C439.295 280.655 441.961 284.892 444.869 288.525C447.899 292.036 449.595 295.184 452.504 299.3Z" fill="#43AADD"/>
<path d="M447.414 319.641C448.141 311.529 445.717 303.296 440.87 296.758C439.658 295.184 438.083 293.489 436.144 293.489C435.538 293.489 435.053 293.61 434.568 293.973C433.841 294.578 433.841 295.547 433.841 296.395C434.205 300.996 436.871 305.233 439.779 308.865C442.809 312.377 444.506 315.404 447.414 319.641Z" fill="#43AADD"/>
<path d="M437.235 345.431C438.689 337.44 437.235 328.964 433.114 321.942C432.145 320.247 430.691 318.431 428.752 318.188C428.267 318.067 427.661 318.188 427.176 318.431C426.449 318.915 426.207 319.883 426.207 320.731C426.086 325.332 428.267 329.812 430.812 333.686C433.357 337.682 434.69 340.951 437.235 345.431Z" fill="#43AADD"/>
<path d="M427.903 363.471C429.721 356.085 428.752 347.731 425.48 340.345C424.631 338.529 423.541 336.592 421.844 335.986C421.359 335.865 420.875 335.744 420.39 335.986C419.663 336.35 419.542 337.197 419.42 338.045C419.057 342.404 420.753 347.004 422.814 351.242C424.995 355.359 425.964 358.749 427.903 363.471Z" fill="#43AADD"/>
<path d="M454.2 285.619C462.077 282.834 468.985 277.022 473.347 269.637C474.438 267.821 475.408 265.641 474.68 263.704C474.559 263.22 474.196 262.614 473.711 262.372C472.984 262.009 472.014 262.372 471.166 262.735C466.925 265.036 464.016 269.395 461.714 273.753C459.411 277.991 457.109 281.018 454.2 285.619Z" fill="#43AADD"/>
<path d="M451.777 301.964C460.017 301.117 468.137 297.121 474.196 290.946C475.65 289.493 477.104 287.556 476.983 285.498C476.983 284.892 476.741 284.408 476.377 284.045C475.771 283.439 474.681 283.56 473.832 283.803C469.106 285.013 465.35 288.525 461.956 292.157C458.684 295.91 455.655 298.211 451.777 301.964Z" fill="#43AADD"/>
<path d="M446.202 322.668C454.443 323.516 463.289 321.215 470.318 316.372C472.014 315.161 473.832 313.587 474.075 311.65C474.196 311.045 474.075 310.439 473.711 310.076C473.226 309.35 472.136 309.229 471.287 309.35C466.44 309.592 461.956 312.256 457.957 315.161C454.079 318.067 450.686 319.762 446.202 322.668Z" fill="#43AADD"/>
<path d="M436.386 348.457C444.627 347.368 452.625 343.251 458.563 336.955C460.017 335.381 461.35 333.444 461.229 331.507C461.229 330.901 460.987 330.417 460.502 330.054C459.775 329.448 458.805 329.57 457.957 329.812C453.352 331.144 449.474 334.776 446.323 338.529C443.051 342.161 440.143 344.583 436.386 348.457Z" fill="#43AADD"/>
<path d="M426.449 365.65C434.326 368.435 443.294 368.314 451.413 365.408C453.352 364.682 455.534 363.592 456.261 361.655C456.503 361.17 456.503 360.565 456.382 360.081C456.018 359.233 455.049 358.87 454.201 358.749C449.474 357.78 444.506 359.354 439.901 361.291C435.175 362.987 431.539 363.834 426.449 365.65Z" fill="#43AADD"/>
<path d="M327.077 416.987C376.521 417.713 459.411 418.318 508.855 419.045C510.551 419.045 515.762 417.471 506.673 411.659C499.039 406.695 474.923 411.175 474.923 411.175C474.923 411.175 480.497 408.875 480.497 405.969C480.497 403.063 478.316 400.52 475.65 399.309C472.984 398.099 469.954 397.978 467.046 398.22C461.108 398.583 455.291 399.915 449.838 402.094C452.14 400.641 452.867 397.13 451.292 394.951C449.716 392.771 446.202 392.287 444.021 393.982C447.777 389.018 453.473 366.74 435.901 356.933C413.846 344.704 397.122 354.753 393.487 362.139C391.669 354.875 383.307 349.426 377.854 348.094C365.372 344.946 357.252 345.915 345.498 351.363C341.377 353.301 335.803 359.839 333.137 363.471C328.895 369.162 328.168 376.789 327.926 383.812C327.805 389.139 327.683 394.466 327.805 399.915C327.805 399.915 285.39 379.695 270.727 418.561L327.077 416.987Z" fill="#359FC9"/>
<path d="M143.362 298.09C147.361 302.812 151.481 307.534 156.571 311.287C161.54 315.041 171.961 317.704 178.263 318.067L181.777 314.919C176.324 313.709 171.234 310.924 166.872 307.413C162.509 303.902 158.752 299.664 155.48 295.063" fill="#FFBEA1"/>
<path d="M143.119 273.875C146.755 275.085 149.663 277.507 151.602 280.655C153.541 283.924 154.511 287.435 155.844 290.946C156.45 292.52 157.056 294.094 158.51 295.063C156.207 299.179 146.513 302.085 143.725 301.359C143.241 301.238 142.513 297 141.544 295.547" fill="#0A7C8E"/>
<path d="M153.299 298.332C152.935 293.489 151.602 288.162 147.24 285.982L143.604 301.238C143.604 301.238 143.604 301.238 143.725 301.238C145.422 301.722 149.784 300.753 153.42 298.937C153.42 298.937 153.42 298.574 153.299 298.332Z" fill="#096270"/>
<path d="M125.668 441.807C149.027 441.807 167.962 439.91 167.962 437.569C167.962 435.229 149.027 433.332 125.668 433.332C102.31 433.332 83.375 435.229 83.375 437.569C83.375 439.91 102.31 441.807 125.668 441.807Z" fill="#43AADD"/>
<path d="M276.059 88.1434C269.515 96.4976 253.397 105.578 246.005 106.305C236.068 107.152 223.222 100.977 217.648 95.408C213.891 97.3452 214.133 93.955 210.861 94.8026C208.559 95.408 209.771 98.677 209.407 98.9192C208.438 99.5245 207.832 97.3452 207.589 95.0447C207.226 91.8967 208.317 88.8698 210.983 88.2645C214.012 87.538 217.648 88.3855 219.223 90.9281C226.858 93.955 244.551 94.1972 248.429 93.2286C254.609 91.6546 258.366 86.2062 262.85 80.1523" fill="#FFBB81"/>
<path d="M276.301 63.5649C273.271 64.4125 270.969 67.3183 268.787 70.3452C267.091 72.8878 258.85 84.269 255.336 87.9013C257.033 90.9282 268.787 96.8609 270.969 97.3452L279.694 89.9596" fill="#096270"/>
<path d="M270.848 52.1837C271.817 53.8788 274.604 58.1165 274.604 60.1748C274.483 64.1703 271.575 66.1075 273.029 73.4932C274.483 80.8788 277.755 75.4304 280.542 74.0985C284.057 72.4035 285.875 60.9012 289.631 59.8116L291.328 57.6322C288.904 56.4214 286.602 54.9685 284.663 53.1524C282.724 51.3362 281.027 49.1568 280.3 46.4932" fill="#FFBB81"/>
<path d="M290.358 57.0269C284.057 57.6322 277.513 65.7443 274.847 75.4304C274.604 77.3677 273.029 70.1031 274.483 61.991C273.635 63.686 271.696 65.3811 271.211 66.9551C268.545 75.0672 270.484 82.2107 272.665 87.1748C275.331 93.4708 277.149 98.6771 279.209 105.215C281.27 111.753 281.391 133.426 278.119 139.843C290.843 144.202 301.75 143.596 315.201 140.812C314.838 136.453 314.474 131.125 314.111 126.767C316.534 130.52 318.594 136.09 319.079 140.448C321.988 139.964 325.138 138.511 327.077 137.785C325.987 118.17 320.291 93.2286 309.142 76.7623" fill="#0A7C8E"/>
<path d="M283.572 65.6234C279.452 70.1032 276.665 75.9148 276.422 81.9686C275.937 82.2108 273.271 81.4843 271.817 72.2825C271.454 70.2243 271.332 68.166 271.454 66.1077C272.302 64.7758 273.635 63.444 274.362 62.1121C272.908 70.2242 274.483 75.9148 274.726 73.9776C277.271 65.139 282.724 59.3274 288.42 57.5112C289.874 56.7848 291.692 56.3005 293.267 56.7848C293.873 57.0269 294.479 57.2691 295.206 57.5112C290.964 59.4485 286.844 62.1121 283.572 65.6234Z" fill="#0E97A5"/>
<g opacity="0.55">
<path opacity="0.55" d="M270.848 52.184L280.3 46.3723C280.664 47.462 281.148 48.5517 281.754 49.5203C281.391 50.1257 280.906 50.7311 280.421 51.3364C278.725 53.2737 276.059 55.0898 273.393 56.3006C272.423 54.6055 271.332 53.0315 270.848 52.184Z" fill="#FFBB81"/>
</g>
<path d="M248.308 27.8475C250.004 34.991 248.793 44.3139 251.701 51.0941C252.913 54.121 256.427 55.2107 259.942 56.3004C263.819 57.3901 268.546 56.0582 272.181 54.9686C275.817 53.8789 279.816 51.3363 282.24 48.6726C284.179 46.3721 285.39 44.3139 285.512 41.408C285.512 39.3497 285.39 37.1704 285.148 35.1121C285.148 35.1121 285.39 19.13 274.484 14.8923C263.577 10.6547 252.428 15.982 252.428 15.982C252.428 15.982 246.49 19.9775 248.308 27.8475Z" fill="#FFBB81"/>
<path d="M292.055 14.166C296.054 19.1301 297.024 26.2736 297.388 32.9328C296.539 32.5696 295.691 31.9642 295.206 31.1167C295.691 35.9597 290.48 39.8342 287.329 42.9822C285.511 40.1974 284.784 36.444 283.33 33.4171C283.451 34.1436 283.451 34.8701 283.209 35.4754C282.967 36.0808 282.482 36.5651 281.876 36.444C281.391 36.323 281.149 35.9597 280.785 35.5965C276.544 30.1481 272.908 26.5158 267.697 22.5203" fill="#4C2E1E"/>
<path d="M281.27 36.9282C281.634 35.9596 282.724 35.2332 283.815 35.2332C284.906 35.2332 285.996 35.7175 286.723 36.565C287.45 37.4125 287.814 38.3811 288.056 39.4708C288.299 40.8027 288.178 42.2556 287.693 43.5874C287.45 44.1928 287.208 44.7982 286.723 45.1614C286.117 45.7668 285.269 46.0089 284.421 45.8879C283.573 45.8879 282.724 45.5246 281.997 45.1614" fill="#FFBB81"/>
<path d="M286.36 39.4708C286.723 38.2601 285.148 37.6547 284.299 37.8969C283.815 38.0179 283.33 38.3812 283.209 38.9865C283.088 39.5919 283.33 39.8341 283.693 40.3184C284.299 41.4081 283.33 41.6502 282.966 42.6188C282.845 43.1031 282.966 43.7085 283.33 44.0718C284.057 44.7982 285.39 44.435 285.875 43.5874C285.875 43.4664 285.754 43.3453 285.632 43.3453C285.39 43.5874 285.148 43.7085 284.784 43.8296C283.815 44.0718 282.966 43.4664 283.693 42.2556C283.936 41.8924 284.299 41.6502 284.421 41.287C284.542 40.9238 284.421 40.6816 284.299 40.4395C284.178 40.3184 284.057 40.1973 283.936 40.0762C282.724 38.3812 286.117 37.5336 286.117 39.4708C286.117 39.5919 286.36 39.5919 286.36 39.4708Z" fill="#FFBB81"/>
<path d="M266.97 29.9057C267.333 29.4214 271.09 29.0582 273.15 28.695C273.635 28.5739 274.241 28.5739 274.605 28.9371C275.211 29.6636 275.089 30.9954 274.12 31.3586C271.939 32.0851 269.394 32.2062 267.091 32.0851C266.97 31.843 266.606 30.39 266.97 29.9057Z" fill="#4C2E1E"/>
<path d="M271.818 40.0762C270.484 41.0448 269.03 40.8026 268.182 40.3183C267.334 39.7129 267.091 38.6232 267.091 37.5336C267.212 35.7174 269.757 34.2645 271.696 35.8385C273.514 37.1703 272.787 39.3497 271.818 40.0762Z" fill="black"/>
<path d="M269.515 39.2286C268.909 39.7129 268.303 39.5918 267.94 39.3497C267.576 38.9864 267.334 38.5021 267.455 38.0178C267.697 36.9281 268.424 36.5649 269.394 37.1703C270.485 37.7757 270 38.8654 269.515 39.2286Z" fill="white"/>
<path d="M255.458 30.5112C254.973 30.0268 251.337 30.0268 249.156 29.7847C248.671 29.7847 248.065 29.6636 247.702 30.1479C247.096 30.8744 247.338 32.2062 248.308 32.4484C250.61 33.0538 253.034 32.9327 255.337 32.5694C255.7 32.4484 255.943 30.9955 255.458 30.5112Z" fill="#4C2E1E"/>
<path d="M252.791 40.9237C254.367 41.6501 255.7 41.0447 256.427 40.3183C257.154 39.5918 257.154 38.5021 256.912 37.4125C256.427 35.5963 253.64 34.7488 252.064 36.686C250.489 38.5021 251.701 40.4394 252.791 40.9237Z" fill="black"/>
<path d="M254.73 39.7129C255.336 40.0761 255.942 39.834 256.184 39.4707C256.548 39.1075 256.548 38.5021 256.306 38.0178C255.821 36.9281 254.973 36.807 254.245 37.6546C253.64 38.5021 254.367 39.4707 254.73 39.7129Z" fill="white"/>
<path d="M252.428 23.7308C250.974 25.9102 249.641 28.2106 248.186 30.39C247.944 30.7532 247.459 31.1165 247.217 30.7532C247.096 30.6322 247.096 30.5111 247.096 30.39C246.975 29.7846 246.975 29.1792 246.853 28.5739C246.611 29.5425 246.005 30.39 245.036 30.9954C244.793 31.1165 244.672 31.2375 244.43 31.1165C244.066 31.1165 243.703 30.7532 243.703 30.2689C243.703 29.9057 243.824 29.4214 243.945 29.0582C244.914 26.2734 246.248 23.6097 247.702 21.0671" fill="#4C2E1E"/>
<path d="M288.662 13.9238C277.271 16.8296 258.245 20.0987 246.611 21.5516C245.399 15.7399 247.944 10.1704 249.641 7.50673C252.67 3.14799 258.729 1.33185 261.638 0.605388C266.97 -0.605374 277.15 -0.242146 280.179 1.08969C283.088 2.30046 289.995 7.1435 292.298 12.4709" fill="#0A7C8E"/>
<path d="M263.577 1.33182C267.334 1.33182 273.272 0.363215 276.18 3.14797C278.483 5.32734 279.695 8.47532 281.634 10.8968C281.755 11.0179 281.876 10.8968 281.755 10.7758C279.937 7.99102 278.483 4.11658 275.696 2.17936C272.545 -1.38283e-05 267.092 0.968596 263.577 1.08967C263.456 1.08967 263.456 1.33182 263.577 1.33182Z" fill="#096270"/>
<path d="M252.064 7.26456C251.216 10.8968 250.852 14.5291 251.095 18.1614C251.095 18.2825 251.216 18.2825 251.216 18.1614C251.216 14.5291 251.579 10.8968 252.428 7.38564C252.428 7.14349 252.064 7.02241 252.064 7.26456Z" fill="#096270"/>
<path d="M246.126 17.1929C246.975 16.7086 267.212 17.3139 289.995 8.71753C289.995 8.71753 294.358 15.0135 293.388 15.4978C277.634 24.4574 247.096 24.9417 246.247 24.2153C245.52 23.3678 245.399 17.6772 246.126 17.1929Z" fill="#0E97A5"/>
<path d="M259.093 49.036C259.093 49.036 259.214 50.61 260.79 50.61C262.244 50.61 264.789 50.0046 266.122 49.6414C266.97 49.2781 266 48.1885 265.758 48.1885C265.152 47.9463 262.001 48.0674 258.851 48.5517" fill="#A53830"/>
<path d="M259.578 40.1974C258.608 41.2871 257.396 42.9821 258.487 44.314C259.457 45.5247 261.396 45.5247 262.729 44.9193C262.85 44.7983 262.729 44.6772 262.607 44.6772C261.274 44.5561 259.82 45.2826 258.851 44.0718C257.76 42.861 258.851 41.2871 259.699 40.3184C259.82 40.1974 259.699 40.0763 259.578 40.1974Z" fill="#FFBB81"/>
<path opacity="0.55" d="M285.39 78.6995L290.238 95.5291H292.176C292.176 95.5291 293.146 101.704 289.632 105.457C286.117 109.211 300.659 99.1613 300.659 99.1613L302.841 80.9999L285.39 78.6995Z" fill="#096270"/>
<path d="M359.798 432.484C359.798 436.359 319.807 439.507 270.485 439.507C221.162 439.507 181.171 436.359 181.171 432.484C181.171 428.61 221.162 425.462 270.485 425.462C319.807 425.462 359.798 428.61 359.798 432.484Z" fill="#43AADD"/>
<path d="M371.31 237.794C383.792 199.534 402.818 141.659 361.13 115.386C346.831 106.426 333.016 102.067 318.837 102.067C303.568 102.067 290.964 107.395 281.876 111.269C277.634 113.085 272.423 115.265 270.363 115.265C268.303 115.265 263.092 113.085 258.851 111.269C249.762 107.395 237.158 102.067 221.889 102.067C207.711 102.067 193.896 106.426 179.596 115.386C137.908 141.659 156.813 199.534 169.416 237.794C173.294 249.659 176.93 260.798 177.536 266.852C178.505 277.507 177.414 291.067 176.324 305.475C174.506 328.359 172.688 351.969 178.02 371.946C187.23 405.727 216.557 430.305 217.89 431.274C220.677 433.574 223.949 434.785 227.343 434.906C227.585 434.906 227.948 434.906 228.191 434.906C237.037 434.906 244.308 427.641 244.308 418.803C244.308 417.35 244.066 415.897 243.702 414.565C242.369 406.453 235.341 360.807 245.884 331.749C253.761 310.076 265.395 298.574 270.363 295.547C275.332 298.574 286.965 309.955 294.842 331.749C306.476 363.592 296.903 415.292 296.781 415.897C295.569 422.556 298.599 429.336 304.416 432.727C306.961 434.179 309.748 434.906 312.657 434.906C316.292 434.906 319.928 433.695 322.957 431.274C324.169 430.305 353.617 405.727 362.827 371.946C368.28 351.969 366.341 328.359 364.524 305.475C363.433 291.067 362.342 277.507 363.312 266.852C363.796 260.798 367.432 249.538 371.31 237.794Z" fill="white"/>
<path d="M376.4 118.17C360.282 97.3452 342.105 96.6188 328.289 101.583C349.254 104.125 321.988 151.345 287.935 152.919C256.063 154.493 283.451 164.906 311.202 163.332C321.503 162.726 341.014 153.525 350.103 178.103C353.132 186.215 354.95 211.157 345.74 227.502L379.066 235.13C381.005 231.619 382.217 204.619 383.671 201.592C398.94 169.628 387.064 131.852 376.4 118.17Z" fill="#F4F4F4"/>
<path d="M308.173 100.13C268.424 114.659 263.941 97.8296 251.337 91.5337C246.126 88.87 236.553 98.3139 231.221 97.3453C204.802 95.287 208.802 119.139 229.161 122.771C268.546 129.915 293.51 105.579 308.173 100.13Z" fill="#E6E7E9"/>
<path d="M345.74 227.623C345.74 227.623 333.864 245.543 337.499 273.511C341.135 301.48 349.86 325.574 349.375 354.027C348.769 389.381 323.321 435.027 304.295 421.708C296.66 416.381 308.051 379.695 302.719 338.529C294.236 273.148 257.275 277.749 246.126 298.574C237.279 315.161 245.762 363.229 245.762 363.229L266.97 452.22L356.646 459.121L416.633 397.735L400.879 269.395L389.366 229.439L345.74 227.623Z" fill="#F4F4F4"/>
<path d="M216.072 143.596C217.405 142.749 219.102 142.143 220.798 142.628C219.223 142.022 217.405 142.507 215.951 143.233C214.497 144.081 213.285 145.291 211.952 146.381C209.407 148.56 202.257 152.314 199.228 153.646C199.106 153.646 198.864 153.646 198.743 153.646C195.35 153.646 191.957 153.525 188.685 152.919C185.655 152.314 181.292 150.377 178.626 148.56C178.02 146.502 177.536 144.323 177.172 142.143C176.566 138.269 176.203 134.152 175.96 130.157L174.142 105.942L170.507 106.184L173.173 130.399C173.658 134.395 174.142 138.511 174.869 142.507C175.597 146.502 176.808 150.619 178.747 154.251C182.504 161.637 188.563 167.448 194.986 172.534C197.046 174.108 199.106 175.56 201.045 177.134C202.742 182.462 202.378 191.664 199.591 196.628C202.863 191.906 203.833 183.794 202.257 178.103C202.984 178.708 203.833 179.435 204.56 180.04C207.468 182.704 210.134 185.973 211.104 189.969C210.255 185.973 207.711 182.583 204.802 179.677C201.894 176.771 198.622 174.471 195.471 171.807C189.29 166.601 183.595 160.668 180.323 153.525C179.838 152.556 179.475 151.587 179.111 150.619C181.898 152.435 185.17 153.404 188.442 153.888C191.835 154.372 195.35 154.372 198.743 154.251C202.136 154.13 205.529 153.888 208.922 153.888C212.316 153.888 215.709 154.251 218.981 155.22C215.709 154.13 212.316 153.767 208.922 153.646C206.741 153.525 204.56 153.646 202.5 153.646C205.65 151.951 210.134 148.924 212.316 146.865C213.527 145.776 214.618 144.565 216.072 143.596Z" fill="#D6D6D6"/>
<path d="M467.288 431.637C467.288 434.179 448.868 436.238 426.207 436.238C403.545 436.238 385.125 434.179 385.125 431.637C385.125 429.094 403.545 427.036 426.207 427.036C448.868 427.036 467.288 429.094 467.288 431.637Z" fill="#43AADD"/>
<path d="M413.361 425.099C411.301 425.22 409.241 425.462 407.181 425.583C405.121 425.704 405.363 424.978 404.515 425.341C401.97 426.309 396.759 428.004 394.82 429.578C394.093 430.184 394.093 431.516 394.457 431.758C395.79 432.484 400.516 432.605 403.061 432.242C406.817 431.637 412.634 431.152 413.483 430.305C414.452 429.457 413.361 425.099 413.361 425.099Z" fill="#604F51"/>
<path d="M405.121 418.197C405.484 419.529 405.848 420.74 406.212 421.951C406.575 423.04 406.333 423.767 405.363 424.372C403.061 425.704 400.516 426.794 398.819 428.731C403.303 428.126 407.787 427.036 412.15 425.825C412.271 425.825 412.392 425.825 412.392 425.704C412.513 425.583 412.392 425.462 412.392 425.462C412.271 423.525 412.028 421.466 411.907 419.529" fill="#FFBB81"/>
<path d="M413.361 423.888C411.301 424.009 409.241 424.251 407.181 424.372C405.121 424.493 405.363 423.767 404.515 424.13C401 425.462 393.123 429.7 394.456 430.426C395.789 431.153 400.516 431.274 403.061 430.91C406.817 430.305 412.634 429.821 413.482 428.973C414.452 428.247 413.361 423.888 413.361 423.888Z" fill="#392B2C"/>
<path d="M399.425 426.551C399.789 426.794 400.152 426.915 400.395 427.278C400.637 427.52 400.758 427.641 401.001 427.883C401.122 428.004 401.243 427.883 401.243 427.762C401.364 426.915 400.273 426.43 399.667 426.188C399.425 426.067 399.183 426.43 399.425 426.551Z" fill="#604F51"/>
<path d="M401.122 425.825C401.607 426.067 401.97 426.188 402.455 426.431C402.697 426.673 402.94 426.915 403.303 426.915C403.424 426.915 403.424 426.794 403.545 426.794C403.788 425.825 401.97 425.462 401.364 425.341C401.001 425.341 401.001 425.704 401.122 425.825Z" fill="#604F51"/>
<path d="M403.182 424.856C403.545 425.099 404.03 425.341 404.272 425.583C404.636 425.825 404.757 426.188 405.121 426.552C405.363 426.673 405.605 426.552 405.605 426.309C405.727 425.22 404.272 424.614 403.424 424.372C403.061 424.251 402.939 424.614 403.182 424.856Z" fill="#604F51"/>
<path d="M448.989 427.157C446.929 427.278 444.869 427.52 442.809 427.641C440.749 427.762 440.991 427.036 440.143 427.399C437.598 428.368 432.387 430.063 430.448 431.637C429.721 432.242 429.721 433.574 430.084 433.816C431.418 434.543 436.144 434.664 438.689 434.301C442.445 433.695 448.262 433.211 449.111 432.363C450.08 431.395 448.989 427.157 448.989 427.157Z" fill="#604F51"/>
<path d="M440.749 420.256C441.112 421.587 441.476 422.798 441.84 424.009C442.203 425.099 441.961 425.825 440.991 426.431C438.689 427.762 436.144 428.852 434.447 430.789C438.931 430.184 443.415 429.094 447.778 427.883C447.899 427.883 448.02 427.883 448.02 427.762C448.141 427.641 448.02 427.52 448.02 427.52C447.899 425.583 447.656 423.525 447.535 421.587" fill="#FFBB81"/>
<path d="M448.989 425.946C446.929 426.067 444.869 426.309 442.809 426.43C440.749 426.551 440.991 425.825 440.143 426.188C436.628 427.52 428.751 431.758 430.084 432.484C431.417 433.211 436.144 433.332 438.688 432.968C442.445 432.363 448.262 431.879 449.11 431.031C450.08 430.305 448.989 425.946 448.989 425.946Z" fill="#392B2C"/>
<path d="M435.174 428.61C435.538 428.852 435.902 428.973 436.144 429.336C436.386 429.578 436.507 429.699 436.75 429.942C436.871 430.063 436.992 429.942 436.992 429.821C437.113 428.973 436.023 428.489 435.417 428.247C435.053 428.125 434.811 428.489 435.174 428.61Z" fill="#604F51"/>
<path d="M436.871 427.883C437.355 428.125 437.719 428.246 438.204 428.489C438.446 428.731 438.688 428.973 439.052 428.973C439.173 428.973 439.173 428.852 439.294 428.852C439.537 427.883 437.719 427.52 437.113 427.399C436.75 427.399 436.628 427.762 436.871 427.883Z" fill="#604F51"/>
<path d="M438.81 426.794C439.173 427.036 439.658 427.278 439.9 427.52C440.264 427.762 440.385 428.125 440.749 428.489C440.991 428.61 441.233 428.489 441.233 428.247C441.355 427.157 439.9 426.551 439.052 426.309C438.688 426.309 438.567 426.673 438.81 426.794Z" fill="#604F51"/>
<path d="M425.48 330.538C424.268 348.942 415.906 371.583 416.148 375.82C416.754 387.807 414.209 415.655 412.755 419.65C408.999 422.314 404.878 420.619 404.878 420.619C395.911 392.771 395.547 360.565 397.486 329.812" fill="#0C2C49"/>
<path d="M418.572 334.534C418.209 344.462 418.087 354.632 418.572 364.803C420.148 359.112 422.087 351.969 423.42 344.583C424.389 340.103 418.572 334.534 418.572 334.534Z" fill="#0C2C49"/>
<path d="M443.779 322.547C448.02 348.821 443.415 367.103 444.627 373.762C447.051 387.686 448.505 419.771 448.747 422.072C445.112 424.857 440.991 423.283 440.991 423.283C428.509 397.13 420.39 363.35 418.572 334.413" fill="#0C2C49"/>
<path d="M396.032 329.206C410.937 334.655 428.025 333.807 442.203 327.027L439.052 315.525L398.698 318.067L396.032 329.206Z" fill="#0C2C49"/>
<path d="M399.789 326.179C414.694 330.417 431.054 328.843 444.869 322.063C444.869 322.063 439.901 287.919 439.901 287.314C439.901 286.709 438.083 269.516 438.204 269.516C438.326 269.516 432.266 263.825 432.266 263.825C432.266 263.825 428.994 262.372 423.541 261.888C417.966 261.283 408.272 263.099 408.272 263.099C408.272 263.099 406.454 262.857 402.697 263.825C397.001 265.52 398.456 277.022 398.456 277.022L399.789 326.179Z" fill="#0276CC"/>
<path d="M345.498 308.018C344.528 308.139 339.802 308.623 337.984 309.592L339.681 312.74C340.408 312.498 341.014 312.498 341.256 312.861C341.499 313.345 337.984 314.556 338.711 315.161C339.56 315.767 341.499 315.646 343.801 314.435C346.104 313.224 350.224 310.076 350.224 310.076L351.799 305.354C351.799 305.354 346.588 307.897 345.498 308.018Z" fill="#FFBB81"/>
<path d="M401.728 317.462C401.364 299.301 402.213 281.987 402.576 263.825C399.546 264.431 394.336 266.005 391.791 268.063C386.337 272.543 368.766 294.457 367.796 295.063C355.435 302.085 359.192 299.058 346.71 306.081L348.891 313.103C360.525 310.197 369.856 309.35 379.309 303.659C385.853 299.664 388.761 295.789 394.699 289.736C392.76 308.018 391.791 336.471 391.912 348.942L402.455 347.852C400.516 336.834 401.97 328.601 401.728 317.462Z" fill="white"/>
<path d="M348.527 311.771L348.891 313.103C360.525 310.197 369.977 309.35 379.187 303.78C385.973 299.664 388.761 295.668 394.699 289.735L395.547 283.318C395.547 283.318 379.066 300.753 375.309 302.327C371.552 303.901 364.524 305.717 357.616 308.502C353.254 310.318 351.193 311.045 348.527 311.771Z" fill="#D1D3D4"/>
<path d="M443.779 322.547L441.355 323.637V323.516C442.567 323.031 443.779 322.547 444.869 321.942C444.869 321.942 441.597 299.543 440.386 290.704L425.843 262.13C425.601 266.247 425.238 271.332 425.601 275.449C426.207 283.197 426.207 290.341 427.782 297.969C431.539 317.341 432.024 336.108 437.598 354.996C437.598 354.996 441.355 353.664 445.718 351.969C445.839 343.857 445.718 333.928 443.779 322.547Z" fill="#BCBCBC"/>
<path d="M441.355 292.641C448.262 311.045 454.443 331.386 456.503 346.883C450.322 350.637 440.749 350.637 440.749 350.637C435.174 331.749 433.356 314.919 429.6 295.668C428.145 288.04 426.691 280.292 426.085 272.543C425.722 268.305 425.722 266.368 425.843 262.13" fill="white"/>
<path d="M445.718 305.112C444.263 300.874 442.809 296.758 441.355 292.641L430.812 279.807C431.539 288.404 431.297 292.762 432.145 300.511C431.903 300.632 428.025 302.933 424.268 305.233C421.117 297.363 417.966 289.856 417.482 289.493C417.118 289.251 412.998 289.735 408.272 290.341C408.15 289.978 407.787 289.251 407.423 289.009C407.181 288.888 406.939 288.888 406.696 288.888C406.09 288.888 405.606 288.888 405 288.888C404.636 288.888 404.636 288.525 404.515 288.282C404.394 287.677 403.788 287.435 403.182 287.435C402.818 287.435 402.455 287.435 402.091 287.556C401.728 287.677 401.001 288.646 400.879 288.888C400.758 289.735 402.334 289.372 401.243 289.493C400.758 289.614 400.031 289.614 399.667 289.856C399.425 289.978 398.94 290.825 399.062 291.067C399.183 291.188 399.304 291.309 399.546 291.43C395.305 292.036 394.699 292.157 394.699 292.157L394.457 294.821C394.457 294.821 404.515 318.067 407.302 323.637L429.115 320.852L429.964 319.641C429.721 319.036 429.721 319.157 429.479 318.43C435.781 315.888 443.052 312.134 444.021 311.287C444.627 310.682 445.233 308.381 445.718 305.112Z" fill="#BCBCBC"/>
<path d="M406.575 256.197C407.787 258.861 408.393 261.888 408.151 264.794C409.847 265.036 410.453 266.731 412.634 266.61C412.634 266.731 419.057 263.704 421.723 261.767C418.572 256.803 416.27 251.354 414.937 245.664" fill="#FFBB81"/>
<path d="M418.694 256.197C417.118 252.807 415.785 249.296 414.937 245.543L406.575 256.076C407.545 258.256 408.151 260.677 408.151 262.978C410.332 262.493 412.513 261.767 414.452 260.556C416.391 259.588 417.724 258.014 418.694 256.197Z" fill="#FFBB81"/>
<path d="M409.726 267.215C412.028 267.579 415.664 267.215 415.906 267.821C416.149 268.426 414.21 272.301 413.725 272.422C413.24 272.543 411.422 272.664 411.059 272.301C410.332 271.695 409.483 268.668 409.362 267.457" fill="#0C2C49"/>
<path d="M420.632 258.377C418.209 261.283 415.906 264.552 412.755 266.61C415.664 269.395 416.391 273.874 416.391 273.874C416.391 273.874 421.723 267.094 423.541 261.888L420.632 258.377Z" fill="#14A2E0"/>
<path d="M408.15 262.13C408.15 262.13 406.696 264.31 406.454 265.883C406.211 267.457 407.181 271.695 409.483 273.996C409.362 272.664 409.726 271.211 410.332 270C410.938 268.789 411.543 267.336 412.634 266.61C410.695 265.762 409.483 263.825 408.15 262.13Z" fill="#14A2E0"/>
<path d="M411.665 269.758C411.665 269.758 411.18 271.09 411.059 272.421C411.059 273.632 408.635 299.179 408.514 300.632C408.393 302.085 411.422 308.26 412.392 307.655C413.361 307.049 417.239 301.48 417.36 300.632C417.481 299.906 413.604 271.574 413.604 271.574" fill="#0C2C49"/>
<path d="M388.519 241.184C387.791 240.457 386.701 240.457 385.852 240.821C384.762 241.305 384.519 242.516 384.398 243.605C384.277 245.3 384.277 247.117 384.883 248.691C385.731 250.749 388.034 252.444 390.215 251.475" fill="#FFBB81"/>
<g opacity="0.35">
<path opacity="0.35" d="M388.519 241.184C387.791 240.457 386.701 240.457 385.852 240.821C384.762 241.305 384.519 242.516 384.398 243.605C384.277 245.3 384.277 247.117 384.883 248.691C385.731 250.749 388.034 252.444 390.215 251.475" fill="#FFBB81"/>
</g>
<path d="M385.489 246.39C385.489 245.421 385.61 244.211 386.58 243.726C387.549 243.363 388.519 244.09 389.246 244.695C389.367 244.816 389.488 244.695 389.367 244.574C388.64 243.726 387.549 242.758 386.458 243.363C385.368 243.847 385.125 245.3 385.247 246.39C385.247 246.632 385.489 246.632 385.489 246.39Z" fill="#FFBB81"/>
<path d="M386.822 238.278C388.518 243.484 388.64 250.507 389.124 253.655C389.609 256.197 390.942 258.74 393.245 260.193C396.032 261.888 399.91 261.404 402.939 261.404C406.938 261.283 411.18 260.556 414.573 258.377C418.451 255.955 420.511 251.475 420.753 246.996C420.996 243.605 420.39 240.094 419.905 236.704L419.057 219.996L409.241 216.363L396.032 219.875L384.277 223.022C384.398 223.144 384.398 231.135 386.822 238.278Z" fill="#FFBB81"/>
<path d="M425.965 229.682C427.54 225.565 425.722 219.996 422.814 216.848C421.481 215.516 419.784 214.668 418.209 214.305C417.36 214.063 416.755 213.821 416.391 212.973C416.027 212.247 416.027 211.399 415.664 210.794C414.937 209.583 413.846 208.614 412.634 208.009C410.938 207.161 408.999 206.919 407.181 207.161C406.211 207.283 405.363 207.525 404.394 207.888C403.303 208.372 402.818 208.251 401.849 207.646C399.304 206.072 396.032 205.466 393.123 206.072C389.973 206.798 387.064 208.978 386.095 212.126C384.762 211.641 383.186 211.762 381.853 212.368C380.52 212.973 379.43 214.426 380.157 215.879C378.581 217.574 377.491 219.632 377.248 221.812C377.006 224.596 378.46 227.744 381.247 228.713C383.429 229.439 385.731 228.592 387.791 227.623C389.973 229.561 393.123 230.166 395.911 229.803C399.062 229.439 402.334 228.108 403.545 225.081C404.272 225.444 405.242 225.686 406.09 225.565C406.939 225.444 407.908 225.081 408.393 224.354C408.878 223.749 408.999 223.628 409.726 223.991C411.422 224.718 412.877 224.112 414.452 223.386C413.967 223.628 414.21 227.381 414.21 227.865C414.331 229.439 415.058 230.65 416.027 231.982C416.391 232.466 416.997 233.072 417.118 233.677C417.239 234.404 416.876 235.009 416.876 235.735C416.876 236.704 416.997 237.673 417.482 238.52C417.724 239.126 418.209 239.731 418.693 240.094C419.542 240.7 420.754 240.821 421.844 240.579C423.662 240.094 425.237 238.762 425.843 237.067C426.328 235.857 426.328 234.404 426.086 233.193C425.965 232.587 425.601 231.982 425.48 231.498C425.359 230.65 425.722 230.166 425.965 229.682Z" fill="#724937"/>
<path d="M397.122 243.726C396.88 245.058 396.759 246.511 396.759 247.843C396.759 248.812 396.638 250.144 397.244 250.991C398.213 252.323 400.031 251.475 401 250.628C401.122 250.507 401 250.265 400.758 250.386C400.152 250.749 399.304 251.233 398.577 251.112C397.122 250.991 397.365 249.417 397.244 248.448C397.122 246.874 397.244 245.3 397.365 243.726C397.365 243.605 397.122 243.484 397.122 243.726Z" fill="#FFBB81"/>
<path d="M411.786 233.919C410.938 233.314 405.121 231.982 404.394 233.072C404.151 233.435 404.151 235.009 404.636 235.372C405.242 235.978 406.696 235.736 407.544 235.857C408.877 235.978 410.21 236.099 411.543 236.22C412.513 236.462 412.028 234.162 411.786 233.919Z" fill="#724937"/>
<path d="M387.428 236.22C388.034 235.493 392.639 233.072 393.366 234.04C393.608 234.404 393.851 235.857 393.608 236.341C393.124 237.067 391.912 237.067 391.306 237.309C390.215 237.673 389.125 238.036 388.034 238.52C387.186 238.883 387.186 236.462 387.428 236.22Z" fill="#724937"/>
<path d="M408.877 239.731C407.665 239.004 406.454 239.368 405.848 239.973C405.121 240.578 405.121 241.426 405.242 242.274C405.484 243.726 407.787 244.695 409.12 243.242C410.574 241.91 409.726 240.215 408.877 239.731Z" fill="#2D110A"/>
<path d="M407.18 240.579C406.696 240.215 406.211 240.457 405.969 240.7C405.726 240.942 405.605 241.426 405.726 241.91C405.969 242.758 406.696 243 407.423 242.395C408.029 241.668 407.423 240.821 407.18 240.579Z" fill="white"/>
<path d="M393.244 242.031C392.033 241.305 390.821 241.668 390.215 242.274C389.488 242.879 389.488 243.727 389.609 244.574C389.851 246.027 392.154 246.996 393.487 245.543C394.82 244.211 393.972 242.516 393.244 242.031Z" fill="#2D110A"/>
<path d="M391.427 242.879C390.942 242.516 390.457 242.758 390.215 243C389.972 243.242 389.851 243.727 389.972 244.211C390.215 245.058 390.942 245.301 391.669 244.695C392.275 243.969 391.79 243.121 391.427 242.879Z" fill="white"/>
<path d="M398.94 255.108C400.637 254.502 402.94 254.018 404.757 253.897C405.363 253.897 405.727 254.26 405.969 254.866C406.09 255.229 406.333 256.076 405.727 256.197C404.03 256.44 402.455 256.682 400.758 256.924C399.91 257.045 399.425 255.592 398.94 255.108Z" fill="#4C2E1E"/>
<path d="M405.969 254.865C405.969 254.865 405.969 254.744 405.848 254.744C403.909 254.744 401.364 255.108 400.031 255.955C399.789 256.076 399.668 256.197 399.546 256.197C399.789 256.682 400.152 257.045 400.637 256.924C402.334 256.682 403.909 256.439 405.606 256.197C406.212 256.076 406.09 255.229 405.969 254.865Z" fill="#AA5044"/>
<path d="M422.814 216.848C421.481 215.516 419.784 214.668 418.209 214.305C417.361 214.063 416.755 213.821 416.391 212.973C416.028 212.247 416.028 211.399 415.664 210.794C414.937 209.583 413.846 208.614 412.634 208.009C412.15 207.767 411.786 207.646 411.301 207.525C412.513 208.856 413.725 210.309 413.604 212.126C413.604 212.731 413.119 213.457 413.483 213.942C416.997 217.937 413.361 218.543 412.513 217.574C411.18 218.785 409.847 219.996 408.151 220.48C406.454 220.964 404.394 220.359 403.667 218.785C402.091 220.964 399.91 222.659 397.365 223.265C394.82 223.749 391.791 222.901 390.336 220.843C386.701 223.628 381.732 224.475 377.37 223.143C377.612 225.565 379.066 227.987 381.369 228.834C383.55 229.561 385.853 228.713 387.913 227.744C390.094 229.682 393.245 230.287 396.032 229.924C399.183 229.561 402.455 228.229 403.667 225.202C404.394 225.565 405.363 225.807 406.212 225.686C407.06 225.565 408.029 225.202 408.514 224.475C408.999 223.87 409.12 223.749 409.847 224.112C411.544 224.839 412.998 224.233 414.573 223.507C414.089 223.749 414.331 227.502 414.331 227.987C414.452 229.561 415.179 230.771 416.149 232.103C416.512 232.587 417.118 233.193 417.239 233.798C417.361 234.525 416.997 235.13 416.997 235.856C416.997 236.825 417.118 237.794 417.603 238.641C417.845 239.247 418.33 239.852 418.815 240.215C419.663 240.821 420.875 240.942 421.966 240.7C423.783 240.215 425.359 238.883 425.965 237.188C426.449 235.978 426.449 234.525 426.207 233.314C426.086 232.709 425.722 232.103 425.601 231.619C425.48 231.013 425.965 230.65 426.086 230.045C427.54 225.565 425.722 219.996 422.814 216.848Z" fill="#603A2C"/>
<path d="M420.39 239.247H420.269C419.421 239.126 417.118 239.852 417.118 241.305L417.361 248.327C417.603 250.507 418.936 251.112 420.148 250.749C420.511 249.538 420.754 248.327 420.754 247.117C420.996 244.453 420.754 241.91 420.39 239.247Z" fill="#FFBB81"/>
<path d="M416.876 240.7C416.876 239.368 419.057 238.52 420.027 238.641C423.056 239.126 424.026 242.153 423.299 245.301C422.572 248.327 418.209 251.233 416.997 247.601" fill="#FFBB81"/>
<path d="M421.481 242.758C421.481 241.547 420.875 240.7 419.663 240.7C418.694 240.7 417.603 241.668 417.603 242.758C417.603 243.363 417.967 243.363 418.33 243.727C419.3 244.695 417.967 245.18 418.209 246.148C418.33 247.238 419.784 247.48 420.633 246.875C420.754 246.754 420.633 246.632 420.511 246.632C420.148 246.754 419.178 246.875 418.936 246.39C418.573 245.785 419.057 245.301 419.3 244.695C419.421 244.211 419.542 243.848 419.178 243.484C418.936 243 418.209 242.758 418.33 242.153C418.451 241.668 418.936 241.305 419.3 241.063C420.39 240.7 421.36 241.547 421.481 242.637C421.239 242.879 421.481 242.879 421.481 242.758Z" fill="#FFBB81"/>
<path d="M412.998 317.099C412.634 316.857 412.271 316.614 411.907 316.493C411.544 316.372 411.059 316.372 410.695 316.614C410.574 316.614 410.574 316.736 410.453 316.736C410.453 316.857 410.332 316.978 410.332 316.978C410.089 318.552 410.332 320.005 410.574 321.579C410.695 322.547 411.18 323.516 411.907 324C412.271 324.242 412.513 324.121 412.877 323.758C413.846 322.91 414.331 321.579 414.695 320.247" fill="#BCBCBC"/>
<path d="M406.939 262.978C402.212 263.22 399.304 269.031 397.607 272.664C394.82 278.839 393.972 285.498 394.578 292.278C394.578 292.52 394.941 292.52 394.941 292.278C394.941 286.345 395.305 280.534 397.365 274.964C399.062 270.484 401.849 264.673 406.939 263.341C407.181 263.22 407.06 262.978 406.939 262.978Z" fill="#7A7A7A"/>
<path d="M392.881 312.498C397.486 308.744 399.546 301.359 397.971 295.789C397.607 294.821 397.244 293.731 396.395 293.005C394.699 291.552 392.396 292.278 391.79 294.336C390.579 298.816 392.76 302.691 395.668 305.839C397.486 307.776 400.031 309.592 402.333 310.924" stroke="#7A7A7A" stroke-width="0.5442" stroke-miterlimit="10" stroke-linecap="round" stroke-linejoin="round"/>
<path d="M393.124 312.134C393.124 312.013 393.002 312.013 392.881 311.892C392.76 311.892 392.639 311.892 392.639 312.013C392.397 312.134 392.275 312.256 392.154 312.377C391.912 312.498 391.912 312.134 391.669 312.134C391.427 312.134 390.942 312.498 390.821 312.74C390.7 312.982 391.064 313.345 391.427 313.466C391.791 313.587 392.033 313.466 392.154 313.466C392.397 313.345 392.639 313.224 392.881 312.982C393.002 312.861 393.124 312.74 393.245 312.498C393.245 312.377 393.245 312.256 393.124 312.134Z" fill="#0C2C49"/>
<path d="M401.728 310.561C401.728 310.439 401.849 310.439 401.97 310.318C402.091 310.318 402.091 310.318 402.212 310.439C402.334 310.561 402.455 310.682 402.697 310.803C402.818 310.924 402.939 310.561 403.061 310.561C403.303 310.561 403.667 310.924 403.667 311.166C403.667 311.408 403.424 311.771 403.182 311.892C402.939 312.013 402.576 311.892 402.576 311.892C402.334 311.771 402.212 311.65 401.97 311.408C401.849 311.287 401.728 311.166 401.728 310.924C401.606 310.803 401.606 310.682 401.728 310.561Z" fill="#0C2C49"/>
<path d="M415.906 291.067C414.937 290.462 390.457 294.336 390.457 294.336L389.609 295.547C389.609 295.547 402.939 319.762 405.726 325.332L427.54 322.547L428.388 321.336C424.995 312.498 416.875 291.673 415.906 291.067Z" fill="#A5A5A5"/>
<path d="M415.058 292.278C414.088 291.673 389.609 295.547 389.609 295.547C394.577 305.718 399.788 316.493 404.878 326.543L427.54 322.547C424.147 313.709 416.027 292.883 415.058 292.278Z" fill="#6D6D6D"/>
<path d="M398.94 293.61C398.698 293.368 397.728 293.247 397.607 292.762C397.486 292.399 397.971 291.673 398.213 291.552C398.698 291.188 399.304 291.31 399.788 291.188C400.758 290.946 399.182 291.31 399.425 290.583C399.546 290.22 400.273 289.251 400.637 289.251C401 289.13 401.364 289.13 401.727 289.13C402.333 289.13 402.939 289.372 403.06 289.978C403.182 290.341 403.06 290.583 403.545 290.583C404.151 290.583 404.636 290.583 405.242 290.583C405.484 290.583 405.726 290.583 405.969 290.704C406.454 291.067 406.938 292.399 406.938 292.399C406.938 292.399 406.817 293.368 406.696 293.368C405.969 293.489 404.272 293.126 403.303 293.247C401.848 293.247 400.394 293.489 398.94 293.61Z" fill="#604F51"/>
<path d="M398.455 294.457C398.092 294.094 397.122 292.883 397.728 292.399C398.213 292.036 398.819 292.157 399.304 292.036C400.273 291.794 399.061 291.43 399.304 290.704C399.425 290.341 399.788 290.099 400.031 290.099C400.394 289.978 400.758 289.978 401.121 289.978C401.727 289.978 402.333 290.22 402.455 290.825C402.576 291.188 402.454 291.43 402.939 291.43C403.545 291.43 404.03 291.43 404.636 291.43C404.878 291.43 405.242 291.43 405.363 291.552C405.605 291.794 405.726 292.157 405.969 292.399C406.211 292.762 406.575 293.368 406.575 293.368C406.332 293.489 403.909 293.973 402.697 294.094C401.485 294.094 399.91 294.336 398.455 294.457Z" fill="#392B2C"/>
<path d="M411.18 316.735C408.393 315.767 408.15 316.372 406.454 316.009C405.969 315.888 404.878 315.767 404.636 316.251C404.394 316.735 404.878 317.341 405.363 317.583C405.969 317.946 408.029 317.946 407.787 318.188C407.545 318.552 406.211 319.036 404.273 319.278C402.818 319.52 401.122 319.157 400.152 319.278C400.031 319.278 399.91 319.278 399.789 319.399C399.667 319.52 399.667 319.641 399.667 319.883C399.789 321.457 400.879 322.668 402.334 323.395C403.667 324 405.363 324 406.817 323.879C409.847 323.516 412.755 322.426 415.3 320.731" fill="#FFBB81"/>
<path d="M430.691 279.807C431.418 288.404 432.508 293.368 433.357 300.996C425.843 305.718 417.36 312.498 410.332 316.372C411.907 317.341 413.119 321.7 412.392 324.121C422.692 321.336 440.022 312.135 443.657 309.35C445.475 307.897 446.081 297.605 446.323 288.404C446.566 279.081 445.839 271.695 443.294 268.063C440.264 263.825 434.811 262.493 425.601 262.13" fill="white"/>
<path d="M425.843 262.372C433.72 269.273 432.872 283.318 430.691 292.52C430.691 292.762 430.933 292.762 431.054 292.641C432.993 287.193 433.357 281.26 432.508 275.569C431.781 270.726 430.206 265.52 426.207 262.251C425.964 262.009 425.722 262.251 425.843 262.372Z" fill="#7A7A7A"/>
<path d="M433.72 294.458C433.72 296.153 432.266 297.606 430.569 297.606C428.873 297.606 427.418 296.153 427.418 294.458C427.418 292.762 428.873 291.31 430.569 291.31C432.266 291.31 433.72 292.762 433.72 294.458Z" fill="#7A7A7A"/>
<path d="M432.508 294.457C432.508 295.547 431.66 296.516 430.448 296.516C429.358 296.516 428.388 295.668 428.388 294.457C428.388 293.368 429.236 292.399 430.448 292.399C431.66 292.52 432.508 293.368 432.508 294.457Z" fill="#0C2C49"/>
<path d="M431.539 294.457C431.539 295.063 431.054 295.547 430.448 295.547C429.842 295.547 429.357 295.063 429.357 294.457C429.357 293.852 429.842 293.368 430.448 293.368C431.054 293.489 431.539 293.973 431.539 294.457Z" fill="#7A7A7A"/>
<path d="M316.535 266.852C311.809 263.583 312.899 263.583 308.779 267.458C304.78 271.453 302.114 275.327 306.113 278.839C310.112 282.35 314.596 281.623 318.595 278.233C322.715 274.843 321.261 270.121 316.535 266.852Z" fill="#575756"/>
<path d="M307.93 265.641C311.202 264.188 310.839 264.673 310.112 261.283C309.263 257.892 308.052 255.229 304.901 256.197C301.75 257.166 300.659 259.83 301.265 263.099C301.629 266.489 304.658 267.094 307.93 265.641Z" fill="#575756"/>
<path d="M323.079 272.543V272.906L320.17 271.816L314.838 272.543L310.475 272.906L305.628 276.901L302.477 279.323C302.235 281.26 303.083 283.197 305.143 285.135C310.475 289.978 316.535 289.009 322.109 284.287C326.108 280.897 325.987 276.417 323.079 272.543Z" fill="#575756"/>
<path opacity="0.4" d="M327.684 277.386C333.501 283.197 333.501 292.763 327.684 298.574C321.867 304.386 312.293 304.386 306.476 298.574C300.66 292.763 300.66 283.197 306.476 277.386C312.414 271.453 321.867 271.453 327.684 277.386Z" fill="#2DB8C5"/>
<path d="M329.501 275.57C322.473 268.547 310.96 268.789 304.174 276.175C297.993 282.955 298.236 293.731 304.659 300.269C310.96 306.686 321.503 306.565 328.411 301.117L347.437 321.215C348.164 321.942 349.497 321.942 350.224 321.215C350.951 320.489 350.951 319.157 350.224 318.431L330.107 299.664C335.682 292.641 335.803 281.987 329.501 275.57ZM329.017 297.121C322.957 304.87 311.324 304.87 305.264 297.121C301.144 291.794 301.144 284.166 305.264 278.839C311.324 271.09 322.957 271.09 329.017 278.839C333.137 284.166 333.137 291.794 329.017 297.121Z" fill="#9C9C9B"/>
<path d="M338.348 309.471C338.59 309.229 338.954 309.108 339.318 308.987C339.681 308.987 340.045 309.229 340.045 309.592C340.045 309.834 339.923 310.076 339.802 310.318C339.802 310.561 339.802 310.924 340.045 310.803C339.923 310.44 340.529 310.197 340.893 310.318C341.256 310.439 341.378 310.803 341.378 311.045C341.378 311.408 341.257 311.65 341.135 312.013C341.378 311.529 342.105 311.529 342.347 311.892C342.711 312.256 342.711 312.861 342.468 313.224C342.832 312.982 343.438 313.345 343.559 313.83C343.68 314.314 343.438 314.798 343.195 315.161C342.711 316.13 341.862 316.978 340.772 316.978C339.923 316.978 339.196 316.614 338.59 316.13C337.742 315.646 337.015 315.04 336.409 314.193C335.197 312.377 336.651 310.682 338.348 309.471Z" fill="#FFBB81"/>
<path d="M151.481 343.614L188.321 291.915V291.794L202.863 270.484C203.712 269.153 205.529 268.789 206.863 269.758L207.832 270.363C209.165 271.211 209.529 273.027 208.559 274.359L194.017 295.668C193.169 297 191.472 297.242 190.139 296.516L154.874 346.036C154.39 346.762 153.299 347.005 152.451 346.52L151.845 346.157C151.118 345.431 150.875 344.341 151.481 343.614Z" fill="#0A7C8E"/>
<path d="M206.862 277.87L212.801 281.987C213.164 282.229 213.285 282.713 213.043 283.076C212.801 283.44 212.316 283.561 211.952 283.319L206.014 279.202L206.862 277.87Z" fill="#B7EAEA"/>
<path d="M194.623 296.032L195.35 294.942L201.288 299.058C201.651 299.301 201.773 299.785 201.53 300.148C201.288 300.511 200.803 300.632 200.44 300.39L194.501 296.274C194.501 296.153 194.501 296.032 194.623 296.032Z" fill="#B7EAEA"/>
<path d="M204.56 281.381L210.498 285.498C210.861 285.74 210.982 286.224 210.74 286.588C210.498 286.951 210.013 287.072 209.649 286.83L203.711 282.713L204.56 281.381Z" fill="#B7EAEA"/>
<path d="M203.469 283.076L209.407 287.193C209.771 287.435 209.892 287.919 209.65 288.283C209.407 288.646 208.923 288.767 208.559 288.525L202.621 284.408L203.469 283.076Z" fill="#B7EAEA"/>
<path d="M208.074 276.175L214.012 280.292C214.376 280.534 214.497 281.018 214.255 281.381C214.012 281.745 213.528 281.866 213.164 281.624L207.226 277.507L208.074 276.175Z" fill="#B7EAEA"/>
<path d="M209.044 274.722C209.044 274.601 209.165 274.601 209.165 274.48L215.103 278.597C215.466 278.839 215.587 279.323 215.345 279.686C215.103 280.049 214.618 280.171 214.254 279.928L208.316 275.812L209.044 274.722Z" fill="#B7EAEA"/>
<path d="M205.772 279.565L211.71 283.682C212.073 283.924 212.194 284.408 211.952 284.771C211.71 285.135 211.225 285.256 210.861 285.014L204.923 280.897L205.772 279.565Z" fill="#B7EAEA"/>
<path d="M198.743 289.857L204.681 293.973C205.044 294.215 205.166 294.7 204.923 295.063C204.681 295.426 204.196 295.547 203.833 295.305L197.895 291.189L198.743 289.857Z" fill="#B7EAEA"/>
<path d="M197.653 291.552L203.591 295.668C203.954 295.91 204.075 296.395 203.833 296.758C203.591 297.121 203.106 297.242 202.742 297L196.804 292.884L197.653 291.552Z" fill="#B7EAEA"/>
<path d="M196.441 293.247L202.379 297.363C202.742 297.606 202.863 298.09 202.621 298.453C202.379 298.816 201.894 298.937 201.53 298.695L195.592 294.579L196.441 293.247Z" fill="#B7EAEA"/>
<path d="M199.955 288.162L205.893 292.278C206.256 292.52 206.378 293.005 206.135 293.368C205.893 293.731 205.408 293.852 205.044 293.61L199.106 289.493L199.955 288.162Z" fill="#B7EAEA"/>
<path d="M201.046 286.467L206.984 290.583C207.347 290.825 207.468 291.31 207.226 291.673C206.984 292.036 206.499 292.157 206.135 291.915L200.197 287.798L201.046 286.467Z" fill="#B7EAEA"/>
<path d="M202.257 284.771L208.196 288.888C208.559 289.13 208.68 289.615 208.438 289.978C208.196 290.341 207.711 290.462 207.347 290.22L201.409 286.103L202.257 284.771Z" fill="#B7EAEA"/>
<path d="M135.727 430.305C137.787 430.184 139.968 430.184 142.028 430.063C144.209 429.942 143.725 429.215 144.694 429.457C147.36 430.184 152.814 431.152 154.995 432.484C155.843 432.969 155.964 434.421 155.601 434.664C154.389 435.632 149.663 436.359 146.997 436.238C143.119 436.116 137.06 436.238 136.09 435.511C135.121 434.906 135.727 430.305 135.727 430.305Z" fill="#604F51"/>
<path d="M143.361 422.314C143.24 423.646 142.998 424.977 142.755 426.309C142.513 427.52 142.876 428.246 143.967 428.61C146.391 429.578 149.178 430.547 151.117 432.242C146.512 432.242 141.786 431.637 137.181 430.91C137.059 430.91 136.938 430.91 136.938 430.789C136.817 430.668 136.817 430.547 136.817 430.547C136.696 428.489 136.696 426.43 136.575 424.372" fill="#FFBB81"/>
<path d="M135.605 429.094C137.666 428.973 139.847 428.973 141.907 428.852C144.088 428.731 143.604 428.004 144.573 428.246C148.209 429.215 156.813 432.484 155.48 433.453C154.268 434.421 149.542 435.148 146.876 435.027C142.998 434.906 136.938 435.027 135.969 434.3C135 433.695 135.605 429.094 135.605 429.094Z" fill="#6D6D6D"/>
<path d="M149.784 429.699C149.178 430.063 148.088 430.668 148.33 431.516C148.33 431.637 148.572 431.758 148.694 431.637C148.936 431.394 149.057 431.152 149.178 430.91C149.421 430.547 149.784 430.305 150.027 430.184C150.269 429.941 150.027 429.578 149.784 429.699Z" fill="#604F51"/>
<path d="M147.966 429.094C147.36 429.215 145.542 429.942 145.906 430.91C145.906 431.031 146.027 431.031 146.148 431.031C146.512 430.91 146.633 430.668 146.876 430.426C147.239 430.063 147.724 429.942 148.087 429.699C148.451 429.457 148.33 429.094 147.966 429.094Z" fill="#604F51"/>
<path d="M145.785 428.368C144.936 428.731 143.482 429.578 143.725 430.668C143.725 430.91 144.088 430.91 144.209 430.789C144.573 430.426 144.694 430.063 144.936 429.699C145.3 429.336 145.664 429.094 146.027 428.852C146.27 428.61 146.027 428.246 145.785 428.368Z" fill="#604F51"/>
<path d="M142.028 345.673C145.3 356.933 148.572 370.978 148.936 385.507C149.3 400.036 144.937 423.767 144.573 425.341C142.756 426.915 138.029 427.52 135.121 424.856C134.636 421.345 134.515 399.43 134.03 388.413C133.667 380.906 123.124 361.776 115.125 349.305" fill="#096270"/>
<path d="M115.125 349.305C120.094 357.054 126.032 367.345 129.91 375.821C129.789 366.013 128.213 355.238 128.092 347.489L115.125 349.305Z" fill="#08494C"/>
<path d="M149.057 425.099C149.057 425.099 149.057 424.977 149.057 425.099C148.936 424.977 148.936 425.099 149.057 425.099Z" fill="black"/>
<path d="M97.5537 430.668C99.6138 431.031 101.674 431.515 103.734 431.758C105.915 432.121 105.552 431.273 106.4 431.637C108.824 432.847 114.035 435.027 115.853 436.843C116.58 437.569 116.337 438.901 115.974 439.022C114.52 439.628 109.793 439.385 107.127 438.78C103.371 437.811 97.4325 436.722 96.7054 435.874C95.9783 435.027 97.5537 430.668 97.5537 430.668Z" fill="#604F51"/>
<path d="M106.642 424.372C106.158 425.583 105.673 426.915 105.188 428.125C104.703 429.215 104.825 429.942 105.794 430.668C107.975 432.121 110.399 433.574 112.096 435.753C107.491 434.785 103.128 433.211 98.7653 431.637C98.6441 431.637 98.5229 431.516 98.5229 431.516C98.5229 431.394 98.5229 431.273 98.5229 431.152C98.8865 429.094 99.2501 427.157 99.4924 425.099" fill="#FFBB81"/>
<path d="M97.6748 429.457C99.7349 429.821 101.795 430.305 103.855 430.547C106.037 430.91 105.673 430.063 106.521 430.426C109.914 432.121 117.549 437.206 116.095 437.812C114.641 438.417 109.914 438.175 107.248 437.569C103.492 436.601 97.5536 435.511 96.8265 434.664C96.0994 433.816 97.6748 429.457 97.6748 429.457Z" fill="#6D6D6D"/>
<path d="M111.369 432.969C110.763 433.211 109.551 433.574 109.551 434.421C109.551 434.542 109.672 434.664 109.914 434.542C110.157 434.421 110.399 434.179 110.641 433.937C111.005 433.695 111.369 433.574 111.732 433.332C111.853 433.332 111.611 432.969 111.369 432.969Z" fill="#604F51"/>
<path d="M109.794 432.121C109.188 432.121 107.249 432.363 107.491 433.453C107.491 433.574 107.612 433.574 107.733 433.574C108.097 433.574 108.339 433.332 108.582 433.089C109.066 432.847 109.551 432.726 109.915 432.605C110.157 432.484 110.036 432.121 109.794 432.121Z" fill="#604F51"/>
<path d="M107.733 430.789C106.764 430.91 105.31 431.516 105.31 432.605C105.31 432.847 105.552 432.968 105.794 432.847C106.158 432.605 106.4 432.242 106.764 432C107.127 431.758 107.612 431.516 107.976 431.394C108.218 431.152 107.976 430.789 107.733 430.789Z" fill="#604F51"/>
<path d="M127.123 346.157C127.365 357.659 123.608 377.516 120.094 391.076C116.58 404.637 108.582 426.551 107.733 427.883C105.552 428.852 100.826 428.247 98.7656 424.977C99.2504 421.466 101.189 408.753 103.613 391.56C105.31 379.816 104.946 377.395 102.28 357.296C101.916 354.269 99.9775 344.825 101.795 340.224" fill="#096270"/>
<path d="M112.217 428.973C112.217 428.973 112.217 428.852 112.217 428.973C112.096 428.852 112.096 428.973 112.217 428.973Z" fill="black"/>
<path d="M150.875 288.525C152.087 300.874 148.815 306.202 146.997 314.072C140.817 341.556 146.149 348.942 145.3 358.143C130.879 362.623 116.58 359.838 107.854 356.327C107.612 352.211 107.733 347.973 107.733 343.856C106.521 347.489 105.673 351.363 105.067 355.116C100.341 352.816 98.4019 353.058 98.4019 353.058C99.4925 342.282 101.189 336.229 105.188 329.69C109.308 323.152 112.338 313.587 115.004 300.027L116.822 285.861L124.335 272.421L150.875 288.525Z" fill="#0A7C8E"/>
<path d="M138.393 320.973C135 316.251 133.061 311.529 130.758 306.323C130.516 305.596 130.152 304.991 129.91 304.264C130.152 304.143 130.395 304.143 130.637 304.022C129.183 299.3 126.638 289.856 126.759 286.708L116.943 285.74L115.125 299.906C114.52 303.054 113.914 306.081 113.187 308.744C113.792 308.744 114.398 308.744 115.125 308.744C118.034 315.282 121.912 321.457 126.88 326.663C131.485 331.507 137.787 334.776 144.089 337.318C144.089 334.655 144.21 331.507 144.695 327.995C142.271 326.058 140.211 323.637 138.393 320.973Z" fill="#096270"/>
<path d="M151.117 250.386C150.996 249.78 150.875 248.691 152.814 247.964C153.904 247.48 155.237 247.722 156.207 248.448C156.813 248.933 157.176 249.659 157.419 250.386C157.903 252.081 157.782 254.018 157.176 255.713C156.934 256.318 156.57 256.924 156.086 257.287C155.237 258.135 153.904 258.619 152.693 258.377C151.481 258.135 150.39 257.287 149.905 256.076" fill="#EAA48C"/>
<path d="M131.001 261.646C130.758 263.583 129.91 269.758 128.819 270.484C126.88 271.695 124.336 271.09 122.275 272.179C122.275 272.179 129.668 278.596 132.818 281.623C134.757 283.439 136.696 285.74 139.362 285.74C139.968 285.74 139.968 288.161 140.574 287.798C141.301 287.314 142.271 284.045 142.513 283.197C143.604 280.413 144.331 277.628 144.816 274.722L140.211 272.3C139.605 268.547 141.18 262.372 141.18 262.372" fill="#FFBEA1"/>
<path d="M113.187 234.767C112.096 232.951 109.793 232.103 107.612 232.345C105.431 232.587 103.613 233.919 102.401 235.614C101.189 237.309 100.705 239.368 100.705 241.426C100.705 242.637 100.826 243.847 101.311 244.937C102.401 247.117 104.825 248.327 107.37 248.933C109.915 249.538 112.581 249.659 114.883 248.569C117.186 247.48 118.761 244.816 117.792 242.516" fill="#724937"/>
<path d="M117.792 242.516L113.187 234.767C112.944 234.403 112.702 234.161 112.46 233.798C110.884 236.462 108.945 240.094 108.339 242.395C107.854 244.574 107.733 246.753 107.976 248.933C110.278 249.417 112.823 249.417 114.883 248.448C117.065 247.48 118.64 244.816 117.792 242.516Z" fill="#5E382B"/>
<path d="M140.211 269.879C140.332 266.368 141.301 262.372 141.301 262.372L131.001 261.646C130.758 263.22 130.274 267.7 129.425 269.637C130.637 269.758 131.607 269.758 132.334 269.879C134.879 270.363 137.545 270.363 140.211 269.879Z" fill="#EAA48C"/>
<path d="M119.731 253.413C118.882 268.426 132.94 267.457 137.06 268.184C141.18 268.789 145.422 268.426 149.3 266.852C150.269 266.489 151.36 266.004 152.087 265.157C153.541 263.704 154.026 261.525 154.39 259.466C155.48 253.049 155.844 246.511 155.359 239.973L150.754 228.592L145.785 225.081L135.969 223.991L124.457 230.529L119.246 238.278L118.761 251.233" fill="#FFBEA1"/>
<path d="M133.303 255.471C134.394 256.197 135.484 255.834 136.09 255.35C136.696 254.865 136.817 253.897 136.696 253.049C136.454 251.596 134.394 250.628 133.061 252.081C131.849 253.291 132.576 254.986 133.303 255.471Z" fill="black"/>
<path d="M135 254.623C135.484 254.986 135.969 254.744 136.09 254.502C136.333 254.26 136.454 253.776 136.333 253.412C136.09 252.565 135.484 252.323 134.879 252.928C134.151 253.533 134.636 254.381 135 254.623Z" fill="white"/>
<path d="M150.148 255.35C151.118 255.955 152.087 255.592 152.572 255.229C153.178 254.744 153.178 254.018 153.056 253.291C152.814 252.081 151.118 251.233 149.906 252.444C148.936 253.533 149.542 254.986 150.148 255.35Z" fill="black"/>
<path d="M151.602 254.623C151.966 254.865 152.451 254.744 152.572 254.502C152.814 254.26 152.935 253.897 152.814 253.533C152.572 252.807 152.087 252.565 151.481 253.049C150.875 253.654 151.36 254.381 151.602 254.623Z" fill="white"/>
<path d="M116.579 228.471C115.125 229.076 114.277 230.529 113.429 231.982C111.974 234.646 110.763 237.43 110.157 240.457C109.43 243.484 109.43 246.632 110.157 249.538C111.126 253.17 113.429 256.197 115.974 258.861C117.307 260.314 118.882 261.888 120.821 262.13C120.942 262.13 121.184 262.13 121.306 262.009C121.427 261.888 121.427 261.767 121.427 261.525C121.548 259.829 121.063 258.255 121.063 256.56C121.063 255.107 121.669 253.655 122.154 252.202C122.76 250.628 123.366 248.933 123.972 247.359C124.941 248.933 126.032 250.507 127.244 251.96C127.365 252.081 127.365 252.202 127.486 252.202C127.728 252.202 127.971 251.959 128.092 251.717C130.031 247.48 130.273 242.637 130.758 238.036C131.122 235.009 131.606 232.103 132.333 229.197" fill="#724937"/>
<path d="M113.308 334.655C117.67 335.623 122.154 336.471 126.638 336.713C125.911 340.829 125.305 344.946 124.578 349.063C124.336 350.637 123.487 351.242 122.033 351.363C119.367 351.605 113.429 351.484 112.338 348.094C111.611 345.794 112.581 338.529 112.944 336.107" fill="#0E97A5"/>
<path d="M123.851 250.628C123.972 250.022 124.093 248.812 122.154 247.964C120.942 247.48 119.609 247.722 118.64 248.57C118.034 249.054 117.549 249.901 117.307 250.749C116.701 252.565 116.822 254.623 117.67 256.439C117.913 257.045 118.276 257.65 118.761 258.135C119.731 259.103 121.064 259.466 122.397 259.224C123.73 258.982 124.82 258.013 125.305 256.803" fill="#FFBEA1"/>
<path d="M120.094 250.144C121.548 250.991 121.912 252.807 122.275 254.26C122.397 254.744 122.518 255.108 122.397 255.592C122.397 256.439 121.791 256.682 120.458 256.318C120.215 255.955 120.094 255.713 119.852 255.35C119.488 254.381 119.488 253.17 119.488 252.081C119.488 251.96 119.246 251.839 119.246 252.081C118.882 253.534 118.882 255.592 119.973 256.682C120.7 257.408 121.791 257.529 122.518 256.682C123.487 255.592 122.639 253.776 122.275 252.565C121.912 251.354 121.427 250.144 120.094 249.78C119.973 249.901 119.973 250.022 120.094 250.144Z" fill="#DB9275"/>
<path d="M133.182 235.493C131.849 237.551 131.364 239.731 130.153 241.91C129.304 243.363 129.183 246.027 129.668 247.722C132.819 247.843 135.485 245.058 138.635 244.211C137.302 245.179 136.091 246.511 135.242 247.964C135.969 248.448 136.939 248.085 137.787 247.722C139.484 246.874 141.18 246.148 142.998 245.3C144.937 244.332 146.997 243.484 148.694 242.152C150.39 240.821 151.966 239.004 152.451 236.825" fill="#724937"/>
<path d="M151.723 239.126C154.268 242.152 154.389 250.507 155.601 250.022C156.813 249.538 156.934 240.215 154.874 236.099" fill="#724937"/>
<path d="M115.368 235.735C126.274 237.067 144.452 237.673 155.48 237.673C155.965 231.74 154.147 225.928 152.208 223.507C148.815 219.632 141.544 218.179 138.757 217.816C133.667 217.332 123.73 219.148 121.185 220.722C118.64 222.296 113.308 229.318 111.854 234.767" fill="#0A7C8E"/>
<path d="M137.06 219.753C133.788 220.116 128.698 219.995 126.032 222.296C123.487 224.475 122.639 228.834 121.306 231.74C121.306 231.861 121.427 231.861 121.427 231.861C123.002 229.076 123.608 225.323 125.911 223.022C128.334 220.48 133.788 220.48 137.06 220.116C137.181 219.995 137.181 219.753 137.06 219.753Z" fill="#096270"/>
<path d="M148.209 224.475C149.421 227.865 150.269 231.377 150.633 234.888C150.633 235.009 150.754 235.009 150.754 234.888C150.511 231.256 149.784 227.744 148.451 224.354C148.573 224.112 148.209 224.233 148.209 224.475Z" fill="#096270"/>
<path d="M155.359 233.193C154.511 232.83 135.848 236.099 113.308 230.65C113.308 230.65 110.036 237.309 111.005 237.794C126.759 244.453 155.238 240.821 155.965 239.973C156.813 239.247 156.086 233.556 155.359 233.193Z" fill="#0E97A5"/>
<path d="M146.512 256.197C146.633 257.045 147.239 257.529 147.482 258.377C147.845 259.587 146.633 260.072 145.906 260.798C145.785 260.919 145.906 261.161 146.027 261.161C146.997 261.04 147.966 260.314 148.087 259.345C148.33 258.134 147.239 257.287 146.754 256.318C146.754 255.955 146.512 256.076 146.512 256.197Z" fill="#DB9275"/>
<path d="M114.762 302.69C117.791 310.681 122.154 318.309 128.092 324.605C133.667 330.538 140.453 335.26 148.088 338.045C149.421 339.498 151.602 340.345 153.541 339.861C154.631 339.619 155.601 339.013 156.57 338.65C157.54 338.408 159.237 339.74 160.206 340.103C161.539 340.587 162.509 339.982 162.993 339.377C164.205 337.924 160.933 332.475 156.207 331.628C154.874 331.386 150.511 332.354 149.784 333.081C144.816 330.417 140.574 326.3 137.302 321.578C133.909 316.856 131.364 311.65 129.062 306.323C128.092 304.022 127.001 301.722 126.638 299.3" fill="#FFBEA1"/>
<path d="M125.062 271.453C122.518 271.09 119.852 272.058 117.913 273.753C115.974 275.448 114.519 277.749 113.55 280.049C110.399 287.556 111.49 304.749 111.853 306.202C116.701 307.413 124.941 305.475 128.819 304.143C127.365 299.421 126.638 289.735 126.638 286.587" fill="#0A7C8E"/>
<path d="M145.058 274.843C144.21 273.632 142.513 273.511 142.513 273.511C143.119 278.112 140.453 286.103 139.605 285.861C135.727 284.65 124.456 270.605 124.82 271.332C123.123 271.09 121.306 271.695 121.306 271.695C127.607 280.776 138.999 291.309 140.089 291.309C141.301 291.309 146.27 281.623 145.058 274.843Z" fill="#0E97A5"/>
<path d="M149.057 247.359C149.905 247.48 150.754 247.843 151.481 248.327C152.208 248.812 152.693 249.538 153.42 250.143C153.541 250.264 153.662 250.143 153.662 250.022C153.541 248.085 150.754 247.116 149.299 246.874C148.815 246.874 148.694 247.359 149.057 247.359Z" fill="#724937"/>
<path d="M131.122 249.538C133.061 247.843 135.364 247.238 137.908 246.996C138.03 246.996 138.03 246.753 137.908 246.753C135.364 246.39 132.819 247.601 130.88 249.296C130.759 249.538 131.001 249.78 131.122 249.538Z" fill="#724937"/>
<path d="M146.028 262.977C143.846 263.22 140.817 262.493 140.211 263.462C139.847 264.067 141.423 264.915 142.756 264.794C144.089 264.794 145.906 264.551 146.028 262.977Z" fill="#A53830"/>
<path d="M187.473 330.78C187.473 328.601 185.655 326.785 183.474 326.785C182.989 326.785 182.504 326.906 182.019 327.027C182.262 326.543 182.383 326.058 182.383 325.574C182.383 323.516 180.808 321.942 178.748 321.942C176.687 321.942 175.112 323.516 175.112 325.574C175.112 326.179 175.233 326.664 175.476 327.148C173.658 327.995 172.446 329.933 172.446 331.991C172.446 333.444 173.052 334.897 174.021 335.865C173.9 336.229 173.779 336.592 173.779 336.955C173.779 337.56 173.9 338.166 174.264 338.65C173.173 339.498 172.325 340.951 172.325 342.525C172.325 344.462 173.415 346.157 175.112 347.004C174.991 347.368 174.991 347.731 174.991 348.094C174.991 350.031 176.566 351.726 178.626 351.726C180.565 351.726 182.262 350.152 182.262 348.094C182.262 347.126 181.898 346.278 181.292 345.552C181.898 344.704 182.383 343.735 182.383 342.525C182.383 342.161 182.262 341.677 182.262 341.314C182.383 341.314 182.504 341.314 182.625 341.314C185.17 341.314 187.23 339.256 187.23 336.713C187.23 335.502 186.746 334.534 186.14 333.686C186.988 332.96 187.473 331.87 187.473 330.78Z" fill="#D6EAE9"/>
<path d="M238.613 296.394C236.916 300.753 232.069 303.054 227.585 301.359C223.222 299.664 220.92 294.821 222.617 290.341C224.313 285.982 229.161 283.681 233.644 285.377C238.007 287.193 240.188 292.036 238.613 296.394Z" fill="#E6FFFF"/>
<path d="M226.613 287.957C229.283 284.358 228.527 279.277 224.925 276.61C221.322 273.942 216.237 274.698 213.567 278.297C210.897 281.897 211.653 286.977 215.256 289.644C218.859 292.312 223.944 291.556 226.613 287.957Z" fill="#E6FFFF"/>
<path d="M218.133 294.094C216.557 298.211 212.074 300.148 207.953 298.695C203.833 297.242 201.894 292.641 203.348 288.525C204.924 284.408 209.407 282.471 213.528 283.924C217.648 285.498 219.708 290.099 218.133 294.094Z" fill="#E6FFFF"/>
<path d="M228.918 302.327C227.1 307.17 221.647 309.713 216.678 307.776C211.831 305.96 209.286 300.511 211.225 295.547C213.164 290.583 218.496 288.161 223.465 290.099C228.312 292.036 230.857 297.484 228.918 302.327Z" fill="#E6FFFF"/>
<path d="M215.345 308.139C213.649 312.498 208.923 314.677 204.56 312.982C200.197 311.287 198.016 306.565 199.713 302.206C201.409 297.847 206.135 295.668 210.498 297.363C214.861 298.937 217.042 303.78 215.345 308.139Z" fill="#E6FFFF"/>
<path d="M237.643 285.619C236.432 288.767 232.917 290.462 229.645 289.251C226.494 288.04 224.798 284.529 226.01 281.26C227.222 278.112 230.736 276.417 234.008 277.628C237.28 278.96 238.855 282.471 237.643 285.619Z" fill="#E6FFFF"/>
<path d="M228.312 280.049C230.009 278.233 232.675 277.507 235.098 278.354C235.341 278.475 235.583 278.597 235.825 278.718C235.341 278.354 234.735 277.991 234.129 277.628C231.826 276.78 229.403 277.386 227.706 278.96C227.827 279.323 228.07 279.686 228.312 280.049Z" fill="#CAFFFE"/>
<path d="M200.682 302.812C201.651 300.148 203.833 298.332 206.378 297.727C204.075 295.668 203.227 292.278 204.318 289.13C205.651 285.498 209.407 283.561 213.043 284.166C212.922 283.076 213.164 281.866 213.528 280.776C215.103 276.659 219.708 274.48 223.949 276.054C224.313 276.175 224.677 276.417 225.04 276.538C224.434 276.054 223.707 275.691 222.98 275.327C218.86 273.753 214.133 275.812 212.558 280.049C212.195 281.139 211.952 282.35 212.073 283.44C208.438 282.834 204.681 284.771 203.348 288.404C202.136 291.552 203.106 294.821 205.408 297C202.863 297.727 200.682 299.543 199.713 302.085C198.258 305.96 199.834 310.197 203.348 312.256C200.561 310.197 199.349 306.323 200.682 302.812Z" fill="#CAFFFE"/>
<path d="M232.554 254.26C232.554 257.65 229.766 260.435 226.373 260.435C222.98 260.435 220.193 257.65 220.193 254.26C220.193 250.87 222.98 248.085 226.373 248.085C229.766 248.085 232.554 250.87 232.554 254.26Z" fill="#D6EAE9"/>
<path d="M235.462 257.408C235.462 259.345 233.887 261.04 231.826 261.04C229.888 261.04 228.191 259.466 228.191 257.408C228.191 255.471 229.766 253.776 231.826 253.776C233.887 253.776 235.462 255.471 235.462 257.408Z" fill="#D6EAE9"/>
<path d="M227.585 267.458C230.396 267.458 232.675 265.181 232.675 262.372C232.675 259.564 230.396 257.287 227.585 257.287C224.774 257.287 222.496 259.564 222.496 262.372C222.496 265.181 224.774 267.458 227.585 267.458Z" fill="#D6EAE9"/>
<path d="M232.554 253.049C232.554 256.44 229.766 259.224 226.373 259.224C222.98 259.224 220.193 256.44 220.193 253.049C220.193 249.659 222.98 246.875 226.373 246.875C229.766 246.875 232.554 249.659 232.554 253.049Z" fill="#E6FFFF"/>
<path d="M235.462 256.197C235.462 258.135 233.887 259.83 231.826 259.83C229.888 259.83 228.191 258.256 228.191 256.197C228.191 254.26 229.766 252.565 231.826 252.565C233.887 252.565 235.462 254.26 235.462 256.197Z" fill="#E6FFFF"/>
<path d="M227.585 266.247C230.396 266.247 232.675 263.97 232.675 261.162C232.675 258.353 230.396 256.076 227.585 256.076C224.774 256.076 222.496 258.353 222.496 261.162C222.496 263.97 224.774 266.247 227.585 266.247Z" fill="#E6FFFF"/>
<path d="M205.893 327.995C205.893 330.175 204.075 331.991 201.894 331.991C199.712 331.991 197.895 330.175 197.895 327.995C197.895 325.816 199.712 324 201.894 324C204.196 324.121 205.893 325.816 205.893 327.995Z" fill="#D6EAE9"/>
<path d="M208.68 330.417C211.424 330.417 213.649 328.194 213.649 325.453C213.649 322.711 211.424 320.489 208.68 320.489C205.936 320.489 203.711 322.711 203.711 325.453C203.711 328.194 205.936 330.417 208.68 330.417Z" fill="#D6EAE9"/>
<path d="M206.62 323.152C206.62 324.726 205.408 325.937 203.833 325.937C202.257 325.937 201.045 324.726 201.045 323.152C201.045 321.578 202.257 320.368 203.833 320.368C205.408 320.489 206.62 321.7 206.62 323.152Z" fill="#D6EAE9"/>
<path d="M205.893 326.785C205.893 328.964 204.075 330.78 201.894 330.78C199.712 330.78 197.895 328.964 197.895 326.785C197.895 324.605 199.712 322.789 201.894 322.789C204.196 322.91 205.893 324.605 205.893 326.785Z" fill="#E6FFFF"/>
<path d="M208.68 329.206C211.424 329.206 213.649 326.984 213.649 324.242C213.649 321.501 211.424 319.278 208.68 319.278C205.936 319.278 203.711 321.501 203.711 324.242C203.711 326.984 205.936 329.206 208.68 329.206Z" fill="#E6FFFF"/>
<path d="M206.62 321.942C206.62 323.516 205.408 324.727 203.833 324.727C202.257 324.727 201.045 323.516 201.045 321.942C201.045 320.368 202.257 319.157 203.833 319.157C205.408 319.278 206.62 320.489 206.62 321.942Z" fill="#E6FFFF"/>
<path d="M248.186 282.592C248.186 284.529 246.611 285.982 244.793 285.982C242.854 285.982 241.4 284.408 241.4 282.592C241.4 280.776 242.975 279.202 244.793 279.202C246.732 279.081 248.186 280.655 248.186 282.592Z" fill="#D6EAE9"/>
<path d="M244.672 276.175C245.944 276.175 246.975 275.145 246.975 273.874C246.975 272.604 245.944 271.574 244.672 271.574C243.4 271.574 242.37 272.604 242.37 273.874C242.37 275.145 243.4 276.175 244.672 276.175Z" fill="#D6EAE9"/>
<path d="M248.186 281.381C248.186 283.318 246.611 284.771 244.793 284.771C242.854 284.771 241.4 283.197 241.4 281.381C241.4 279.565 242.975 277.991 244.793 277.991C246.732 277.87 248.186 279.444 248.186 281.381Z" fill="#E6FFFF"/>
<path d="M244.672 274.964C245.944 274.964 246.975 273.934 246.975 272.664C246.975 271.393 245.944 270.363 244.672 270.363C243.4 270.363 242.37 271.393 242.37 272.664C242.37 273.934 243.4 274.964 244.672 274.964Z" fill="#E6FFFF"/>
<path d="M176.808 337.56C179.82 337.56 182.262 335.121 182.262 332.112C182.262 329.103 179.82 326.664 176.808 326.664C173.797 326.664 171.355 329.103 171.355 332.112C171.355 335.121 173.797 337.56 176.808 337.56Z" fill="#E6FFFF"/>
<path d="M181.171 325.574C181.171 327.632 179.596 329.206 177.535 329.206C175.475 329.206 173.9 327.632 173.9 325.574C173.9 323.516 175.475 321.942 177.535 321.942C179.596 321.942 181.171 323.637 181.171 325.574Z" fill="#E6FFFF"/>
<path d="M181.171 342.525C181.171 345.188 178.99 347.489 176.202 347.489C173.536 347.489 171.234 345.309 171.234 342.525C171.234 339.74 173.415 337.561 176.202 337.561C178.99 337.561 181.171 339.74 181.171 342.525Z" fill="#E6FFFF"/>
<path d="M178.99 336.955C178.99 338.65 177.535 340.103 175.839 340.103C174.142 340.103 172.688 338.65 172.688 336.955C172.688 335.26 174.142 333.807 175.839 333.807C177.535 333.807 178.99 335.26 178.99 336.955Z" fill="#E6FFFF"/>
<path d="M182.262 326.785C184.443 326.785 186.261 328.601 186.261 330.78C186.261 332.96 184.443 334.776 182.262 334.776C180.08 334.776 178.263 332.96 178.263 330.78C178.384 328.601 180.08 326.785 182.262 326.785Z" fill="#E6FFFF"/>
<path d="M181.414 341.314C183.957 341.314 186.019 339.254 186.019 336.713C186.019 334.172 183.957 332.112 181.414 332.112C178.87 332.112 176.809 334.172 176.809 336.713C176.809 339.254 178.87 341.314 181.414 341.314Z" fill="#E6FFFF"/>
<path d="M177.535 351.605C179.543 351.605 181.171 349.979 181.171 347.973C181.171 345.967 179.543 344.341 177.535 344.341C175.528 344.341 173.9 345.967 173.9 347.973C173.9 349.979 175.528 351.605 177.535 351.605Z" fill="#E6FFFF"/>
<path d="M255.7 93.3499H142.029V169.023H255.7V93.3499Z" fill="url(#paint0_linear)"/>
<path d="M257.397 169.991H140.211V92.3813H257.397V169.991ZM143.725 168.054H253.761V94.1975H143.725V168.054Z" fill="#575756"/>
<path opacity="0.48" d="M148.331 99.1616H177.415" stroke="white" stroke-miterlimit="10"/>
<path opacity="0.48" d="M148.331 101.825H173.658" stroke="white" stroke-miterlimit="10"/>
<path opacity="0.48" d="M148.331 104.489H167.357" stroke="white" stroke-miterlimit="10"/>
<path opacity="0.48" d="M148.331 107.031H160.085" stroke="white" stroke-miterlimit="10"/>
<path d="M208.075 96.74C208.317 96.74 208.438 96.6189 208.68 96.6189C209.044 96.4979 209.286 96.2557 209.529 95.8925C209.529 95.7714 209.65 95.6503 209.65 95.6503C209.65 95.5293 209.65 95.5293 209.771 95.4082V95.2871C209.771 95.4082 209.771 95.5293 209.892 95.5293C209.892 95.6503 210.014 95.7714 210.135 95.8925C210.741 96.6189 212.195 97.1032 213.164 96.1346L213.286 96.0136C213.407 95.8925 213.528 95.6503 213.649 95.5293C213.649 95.5293 213.649 95.5293 213.649 95.6503C213.649 95.7714 213.649 95.8925 213.649 96.0136C213.649 96.2557 213.77 96.4979 213.891 96.6189C214.134 96.9822 214.497 97.2243 214.982 97.2243C215.346 97.2243 215.709 96.9822 216.073 96.6189C216.194 96.4979 216.194 96.3768 216.315 96.2557V96.3768V96.4979C216.315 96.6189 216.436 96.74 216.557 96.74C216.921 97.2243 217.527 97.4665 218.133 97.4665H218.254C218.618 97.3454 219.102 96.9822 219.224 96.6189C219.466 96.2557 219.829 95.4082 220.072 94.4396V94.3185V94.1974C220.314 93.2288 220.435 92.1391 220.072 91.2916C219.102 88.9911 215.224 88.6279 212.922 88.3858C210.498 88.1436 208.317 88.8701 206.863 90.8073C206.742 91.0494 206.62 91.1705 206.499 91.4127C206.257 92.018 206.014 92.6234 206.014 93.2288C205.893 94.3185 206.257 95.2871 206.863 96.1346C206.984 96.2557 206.984 96.3768 207.105 96.3768C207.105 96.3768 207.105 96.4979 207.226 96.4979C207.226 96.4979 207.226 96.4979 207.347 96.6189C207.59 96.6189 207.832 96.74 208.075 96.74Z" fill="#FFBB81"/>
<path d="M207.347 96.4978C207.347 96.4978 207.347 96.3767 207.347 96.4978C207.226 96.3767 207.226 96.3767 207.226 96.3767C207.711 96.74 208.317 96.74 208.801 96.2557C209.165 96.0135 209.407 95.5292 209.529 95.166C209.65 94.6817 209.65 94.1974 209.65 93.8341C209.771 92.9866 209.892 92.2601 210.256 91.5337C209.892 92.2601 209.892 93.1077 209.892 93.8341V95.2871C209.892 95.2871 209.892 95.2871 209.892 95.4081C209.892 95.5292 209.892 95.6503 209.771 95.6503C209.771 95.7714 209.65 95.8924 209.65 95.8924C209.286 96.3767 208.68 96.74 208.196 96.74C207.832 96.74 207.59 96.6189 207.347 96.4978Z" fill="#E8A16B"/>
<path d="M210.135 95.7713C210.014 95.6502 210.014 95.5291 209.893 95.408C209.893 95.5291 210.135 95.6502 210.256 95.6502C210.499 95.7713 210.741 96.0134 211.104 96.0134C211.468 96.1345 211.953 96.2556 212.316 96.0134C212.559 95.8924 212.801 95.7713 212.922 95.5291C213.043 95.287 213.165 94.9237 213.165 94.6816C213.165 94.3184 213.165 93.9551 213.286 93.713C213.286 93.2287 213.407 92.7444 213.649 92.2601C213.77 91.7758 214.013 91.2915 214.255 90.9282C214.013 91.4125 213.892 91.8968 213.77 92.2601C213.649 92.7444 213.649 93.2287 213.649 93.713C213.649 94.1973 213.528 94.8027 213.649 95.287C213.528 95.5291 213.407 95.6502 213.286 95.7713C212.316 97.1031 210.862 96.4977 210.135 95.7713Z" fill="#E8A16B"/>
<path d="M216.073 96.3768C216.194 96.2557 216.194 96.1347 216.315 96.0136V96.1347C216.315 96.2557 216.436 96.3768 216.558 96.3768C216.921 96.8611 217.527 97.1033 218.133 97.1033H218.254C218.618 96.9822 219.102 96.619 219.224 96.2557C219.466 95.8925 219.83 95.045 220.072 94.0764V93.9553V93.8342C219.83 94.6817 219.345 95.5293 218.618 96.1347C218.254 96.3768 217.891 96.619 217.406 96.619C216.921 96.619 216.679 96.1347 216.436 95.7714C216.315 95.4082 216.315 95.045 216.315 94.6817C216.315 93.7131 216.558 92.8656 216.921 92.0181C216.436 92.8656 216.073 93.7131 215.952 94.6817C215.952 95.045 215.952 95.2871 215.952 95.5293C215.588 96.0136 215.346 96.619 214.861 96.619C213.891 96.8611 213.528 95.7714 213.407 95.4082C213.407 95.5293 213.407 95.6504 213.407 95.7714C213.407 96.0136 213.528 96.2557 213.649 96.3768C214.376 97.1033 215.467 97.3454 216.073 96.3768Z" fill="#E8A16B"/>
<path opacity="0.3" d="M216.073 96.3767C216.194 96.2557 216.194 96.1346 216.315 96.0135V96.1346V96.2557C216.315 96.3768 216.436 96.4978 216.557 96.4978C216.921 96.9821 217.527 97.2243 218.133 97.2243H218.254C218.617 97.1032 219.102 96.74 219.223 96.3767C219.466 96.0135 219.829 95.166 220.072 94.1974V94.0763V93.9552C220.314 92.9866 220.435 91.8969 220.072 91.0494C219.102 88.7489 215.224 88.3857 212.922 88.1436C210.498 87.9014 208.317 88.6279 206.863 90.5651C206.741 90.8073 206.62 90.9283 206.499 91.1705C206.863 91.1705 215.709 89.8386 214.861 96.9821C215.346 96.9821 215.83 96.8611 216.073 96.3767Z" fill="#FFD5B6"/>
<path d="M311.081 86.8116C309.263 97.3453 299.326 112.843 293.146 116.96C284.784 122.408 270.484 123.013 262.971 120.834C260.547 124.224 259.214 121.197 256.669 123.498C254.973 125.072 257.518 127.493 257.275 127.856C256.79 128.946 255.094 127.13 253.882 125.314C252.064 122.65 251.579 119.502 253.64 117.686C255.942 115.628 259.578 114.659 262.244 116.112C270.363 115.143 286.117 107.031 289.147 104.247C293.873 99.8879 294.6 93.3498 295.691 85.9641" fill="#FFBB81"/>
<path d="M283.208 66.9551C285.875 62.2331 290.237 57.3901 295.691 56.9058C297.508 56.7847 299.326 57.0269 300.659 58.1165C304.295 61.0224 306.234 66.2286 308.051 70.3452C310.112 74.9461 312.172 81.3632 313.384 86.3273C306.84 90.565 298.357 92.6233 290.843 93.3497C289.147 88.3856 286.965 81.2421 285.026 76.399" fill="#0A7C8E"/>
<g opacity="0.55">
<path opacity="0.55" d="M302.356 59.8115C305.022 62.8384 306.718 66.955 308.294 70.4662C310.354 75.0671 312.414 81.4842 313.626 86.4483C309.021 89.3541 298.478 93.3496 292.176 93.3496C305.507 89.233 304.174 86.9326 307.809 84.9954C308.415 84.7532 309.021 84.39 309.263 83.7846C309.506 83.1792 309.384 82.5738 309.384 81.9685C308.051 74.3407 305.628 66.8339 302.356 59.8115Z" fill="#096270"/>
</g>
<path d="M209.407 47.8251C210.256 52.7893 206.862 57.5112 201.894 58.3588C196.925 59.2063 192.199 55.8162 191.351 50.852C190.502 45.8879 193.896 41.1659 198.864 40.3184C203.833 39.4709 208.559 42.861 209.407 47.8251Z" fill="#43AADD"/>
<path d="M200.561 54.2421C200.318 54.2421 200.197 54.2421 199.955 54.1211L195.835 51.3363C195.35 50.9731 195.229 50.3677 195.592 50.0045C195.956 49.5202 196.441 49.3991 196.925 49.7623L200.197 51.9417L203.348 45.7668C203.59 45.2825 204.196 45.0403 204.681 45.2825C205.166 45.5247 205.408 46.13 205.166 46.6143L201.53 53.7578C201.409 54 201.167 54.2421 200.924 54.2421C200.682 54.2421 200.682 54.2421 200.561 54.2421Z" fill="#5ABBE5"/>
<path d="M409.968 108.242C409.362 113.206 404.757 116.839 399.667 116.112C394.699 115.507 391.063 110.906 391.79 105.821C392.396 100.857 397.001 97.2243 402.091 97.9508C407.06 98.6773 410.574 103.278 409.968 108.242Z" fill="#43AADD"/>
<path d="M399.91 111.875C399.546 111.875 399.304 111.754 399.183 111.511L396.032 107.637C395.668 107.274 395.79 106.547 396.153 106.305C396.517 105.942 397.244 106.063 397.486 106.426L399.91 109.453L404.757 104.489C405.121 104.126 405.727 104.126 406.09 104.489C406.454 104.852 406.454 105.458 406.09 105.821L400.516 111.632C400.395 111.754 400.152 111.875 399.91 111.875Z" fill="#5ABBE5"/>
<path d="M23.9948 210.794C23.9948 212.61 22.5406 214.184 20.6017 214.184C18.7839 214.184 17.2085 212.731 17.2085 210.794C17.2085 208.978 18.6627 207.404 20.6017 207.404C22.4194 207.404 23.9948 208.978 23.9948 210.794Z" fill="#43AADD"/>
<path d="M86.1623 157.036C86.1623 158.852 84.7081 160.426 82.7692 160.426C80.9514 160.426 79.376 158.973 79.376 157.036C79.376 155.22 80.8302 153.646 82.7692 153.646C84.7081 153.767 86.1623 155.22 86.1623 157.036Z" fill="#43AADD"/>
<path d="M473.59 153.767C473.59 155.583 472.136 157.157 470.197 157.157C468.379 157.157 466.804 155.704 466.804 153.767C466.804 151.951 468.258 150.377 470.197 150.377C472.015 150.377 473.59 151.83 473.59 153.767Z" fill="#43AADD"/>
<path d="M351.921 61.749C351.921 63.5652 350.466 65.1392 348.527 65.1392C346.71 65.1392 345.134 63.6862 345.134 61.749C345.134 59.9329 346.589 58.3589 348.527 58.3589C350.345 58.48 351.921 59.9329 351.921 61.749Z" fill="#43AADD"/>
<path d="M115.126 99.888C114.52 99.888 114.035 99.4037 114.035 98.7983V91.2916C114.035 90.6862 114.52 90.2019 115.126 90.2019C115.732 90.2019 116.216 90.6862 116.216 91.2916V98.7983C116.095 99.4037 115.611 99.888 115.126 99.888Z" fill="#43AADD"/>
<path d="M118.882 96.1347H111.369C110.763 96.1347 110.278 95.6504 110.278 95.045C110.278 94.4396 110.763 93.9553 111.369 93.9553H118.882C119.488 93.9553 119.973 94.4396 119.973 95.045C119.973 95.6504 119.488 96.1347 118.882 96.1347Z" fill="#43AADD"/>
<path d="M339.924 12.2288C339.318 12.2288 338.833 11.7445 338.833 11.1391V3.51132C338.833 2.90594 339.318 2.42163 339.924 2.42163C340.53 2.42163 341.014 2.90594 341.014 3.51132V11.018C340.893 11.7445 340.53 12.2288 339.924 12.2288Z" fill="#43AADD"/>
<path d="M343.68 8.35442H336.167C335.561 8.35442 335.076 7.87012 335.076 7.26473C335.076 6.65935 335.561 6.17505 336.167 6.17505H343.68C344.286 6.17505 344.771 6.65935 344.771 7.26473C344.771 7.87012 344.286 8.35442 343.68 8.35442Z" fill="#43AADD"/>
<path d="M50.5345 299.18C49.9286 299.18 49.4438 298.695 49.4438 298.09V290.583C49.4438 289.978 49.9286 289.493 50.5345 289.493C51.1404 289.493 51.6252 289.978 51.6252 290.583V298.09C51.504 298.695 51.0193 299.18 50.5345 299.18Z" fill="#43AADD"/>
<path d="M54.2911 295.426H46.7777C46.1717 295.426 45.687 294.942 45.687 294.337C45.687 293.731 46.1717 293.247 46.7777 293.247H54.2911C54.897 293.247 55.3818 293.731 55.3818 294.337C55.3818 294.942 54.897 295.426 54.2911 295.426Z" fill="#43AADD"/>
<path d="M488.254 228.713C487.648 228.713 487.163 228.229 487.163 227.623V220.117C487.163 219.511 487.648 219.027 488.254 219.027C488.86 219.027 489.344 219.511 489.344 220.117V227.623C489.344 228.229 488.86 228.713 488.254 228.713Z" fill="#43AADD"/>
<path d="M492.01 224.96H484.497C483.891 224.96 483.406 224.475 483.406 223.87C483.406 223.265 483.891 222.78 484.497 222.78H492.01C492.616 222.78 493.101 223.265 493.101 223.87C493.101 224.475 492.616 224.96 492.01 224.96Z" fill="#43AADD"/>
<path d="M445.718 68.4083C445.112 68.4083 444.627 67.924 444.627 67.3186V59.8119C444.627 59.2065 445.112 58.7222 445.718 58.7222C446.324 58.7222 446.808 59.2065 446.808 59.8119V67.3186C446.687 67.924 446.202 68.4083 445.718 68.4083Z" fill="#43AADD"/>
<path d="M449.474 64.655H441.961C441.355 64.655 440.87 64.1706 440.87 63.5653C440.87 62.9599 441.355 62.4756 441.961 62.4756H449.474C450.08 62.4756 450.565 62.9599 450.565 63.5653C450.565 64.1706 450.08 64.655 449.474 64.655Z" fill="#43AADD"/>
<defs>
<linearGradient id="paint0_linear" x1="141.977" y1="131.211" x2="255.594" y2="131.211" gradientUnits="userSpaceOnUse">
<stop stop-color="#27607F" stop-opacity="0.6"/>
<stop offset="1" stop-color="#27607F"/>
</linearGradient>
</defs>
</svg>
