<svg width="48" height="45" viewBox="0 0 48 45" fill="none" xmlns="http://www.w3.org/2000/svg">
<path d="M47.0725 25.1426C46.7242 22.7298 44.8288 20.8343 42.416 20.486V19.058C42.416 15.1181 39.4209 11.9101 35.7394 11.9101C32.1639 11.9101 29.1704 15.0207 29.0628 18.8444H29.1083L29.0628 18.8522V34.3317C29.0628 39.2802 25.3632 43.2988 20.8152 43.2988C16.2673 43.2988 12.5677 39.2747 12.5677 34.3317V32.9909C13.7066 32.9909 14.9241 32.1654 14.9241 29.849V27.8735C19.9654 26.5845 23.5644 22.2557 23.5644 17.348V15.7103H21.9935L21.9605 5.48727C21.9491 3.59495 20.5912 1.97921 18.729 1.64234C18.3273 0.411784 17.0041 -0.260196 15.7734 0.141578C14.5429 0.543253 13.8709 1.86649 14.2727 3.09715C14.6744 4.3277 15.9976 4.99968 17.2282 4.59791C17.8872 4.38278 18.4171 3.88705 18.6756 3.24393C19.6819 3.53024 20.379 4.44572 20.3872 5.49198L20.4225 15.7103H18.8515V17.3708C18.7889 20.103 16.9572 22.4773 14.3303 23.2313C12.9248 23.6772 11.4157 23.6772 10.0102 23.2313C7.38637 22.4748 5.55875 20.1009 5.49837 17.3708V15.7103H3.14192V5.49905C3.14644 4.43737 3.86044 3.50972 4.88569 3.23372C5.36375 4.45073 6.73785 5.04966 7.95486 4.57159C9.17186 4.09353 9.77079 2.71933 9.29273 1.50242C8.81466 0.285517 7.44047 -0.31351 6.22356 0.164553C5.56415 0.423664 5.05535 0.964369 4.83699 1.63841C2.95449 1.96007 1.57617 3.58925 1.57096 5.49905V15.7103H0V17.3441C0 22.2573 3.60143 26.5876 8.64029 27.8735V29.849C8.64029 32.1654 9.85778 32.9909 10.9967 32.9909V34.3317C10.9967 40.1443 15.4009 44.8697 20.8152 44.8697C26.2296 44.8697 30.6338 40.1388 30.6338 34.3317V18.8899C30.7123 15.909 33.0043 13.4835 35.7394 13.4835C38.5545 13.4835 40.845 15.9844 40.845 19.0604V20.486C37.8395 20.9198 35.7547 23.708 36.1885 26.7135C36.6223 29.7191 39.4104 31.8038 42.416 31.37C45.4215 30.9363 47.5063 28.148 47.0725 25.1426ZM16.4951 3.14261C16.0613 3.14261 15.7096 2.79091 15.7096 2.35713C15.7096 1.92334 16.0613 1.57164 16.4951 1.57164C16.9289 1.57164 17.2806 1.92334 17.2806 2.35713C17.2806 2.79091 16.9289 3.14261 16.4951 3.14261ZM7.06933 1.57164C7.50311 1.57164 7.85481 1.92334 7.85481 2.35713C7.85481 2.79091 7.50311 3.14261 7.06933 3.14261C6.63555 3.14261 6.28385 2.79091 6.28385 2.35713C6.28385 1.92334 6.63555 1.57164 7.06933 1.57164ZM1.57096 17.3441V17.2813H3.9274V17.3708C3.98632 20.7848 6.25763 23.7642 9.53417 24.7253C11.2511 25.2689 13.0941 25.2689 14.811 24.7253C18.0891 23.7655 20.3625 20.786 20.4225 17.3708V17.2813H21.9935V17.3441C21.9935 21.7137 18.6253 25.5587 13.9816 26.4887C12.8911 26.707 11.7742 26.7618 10.6676 26.6513C10.3033 26.6159 9.94124 26.5611 9.58287 26.4871C4.9391 25.5587 1.57096 21.7137 1.57096 17.3441ZM10.9967 31.4199C10.2898 31.4199 10.2113 30.3203 10.2113 29.849V28.1822C10.2741 28.19 10.3385 28.1932 10.4021 28.1995C10.4807 28.2081 10.5592 28.2144 10.6378 28.2214C11.0093 28.2544 11.384 28.2764 11.7618 28.2772H11.8011C12.1781 28.2772 12.552 28.2544 12.9212 28.2214C12.9997 28.2144 13.083 28.2081 13.1639 28.1995C13.2259 28.1924 13.2903 28.19 13.3524 28.1822V29.849C13.3524 30.3203 13.2738 31.4199 12.5669 31.4199H10.9967ZM41.6305 29.849C39.4615 29.849 37.7031 28.0906 37.7031 25.9216C37.7031 23.7526 39.4615 21.9942 41.6305 21.9942C43.7995 21.9942 45.5579 23.7526 45.5579 25.9216C45.5553 28.0896 43.7984 29.8464 41.6305 29.849Z" fill="#00335B"/>
</svg>
