<svg width="44" height="44" viewBox="0 0 44 44" fill="none" xmlns="http://www.w3.org/2000/svg">
<path d="M14.4719 19.9375C17.1119 19.9375 19.25 22.0756 19.25 24.7156C19.25 26.0563 18.6931 27.3281 17.71 28.2356L17.1187 28.7856C16.4862 28.0019 15.5238 27.5 14.4375 27.5C12.54 27.5 11 29.04 11 30.9375C11 31.9206 11.4125 32.8075 12.0725 33.4331L10.3125 35.0625L2.915 28.2356C1.93187 27.3281 1.375 26.0563 1.375 24.7156C1.375 22.0756 3.51312 19.9375 6.15312 19.9375H6.27C7.535 19.9375 8.75187 20.4394 9.6525 21.34L10.3125 22L10.9725 21.34C11.8731 20.4394 13.09 19.9375 14.355 19.9375H14.4719Z" fill="#0079C8"/>
<path d="M12.0725 33.4331C11.4125 32.8075 11 31.9206 11 30.9375C11 29.04 12.54 27.5 14.4375 27.5C15.5237 27.5 16.4862 28.0019 17.1187 28.7856C17.5931 29.3769 17.875 30.1263 17.875 30.9375C17.875 32.835 16.335 34.375 14.4375 34.375C13.5231 34.375 12.6912 34.0175 12.0725 33.4331Z" fill="white"/>
<path d="M34.375 17.875V20.625C34.375 21.3812 33.7562 22 33 22H31.625H28.875H27.5C26.7437 22 26.125 21.3812 26.125 20.625V17.875C26.125 17.1187 26.7437 16.5 27.5 16.5H33C33.7562 16.5 34.375 17.1187 34.375 17.875Z" fill="#0079C8"/>
<path d="M37.8125 2.10306V0.6875H34.375C32.4796 0.6875 30.9375 2.22956 30.9375 4.125C30.9375 6.02044 32.4796 7.5625 34.375 7.5625H37.8125V6.314C38.6107 6.59863 39.1875 7.35488 39.1875 8.25V15.125C39.1875 16.2621 38.2621 17.1875 37.125 17.1875H34.936C34.6514 16.3893 33.8951 15.8125 33 15.8125H27.5C26.6049 15.8125 25.8486 16.3893 25.564 17.1875H23.375C22.2379 17.1875 21.3125 16.2621 21.3125 15.125V8.25C21.3125 7.35488 21.8893 6.59863 22.6875 6.314V7.5625H26.125C28.0204 7.5625 29.5625 6.02044 29.5625 4.125C29.5625 2.22956 28.0204 0.6875 26.125 0.6875H22.6875V2.10306C19.5986 2.44681 17.1875 5.071 17.1875 8.25V15.125C17.1875 18.5364 19.9636 21.3125 23.375 21.3125H25.564C25.8486 22.1107 26.6049 22.6875 27.5 22.6875H28.1875V25.4375H29.5625V34.375C29.5625 35.1333 28.9458 35.75 28.1875 35.75C27.4292 35.75 26.8125 35.1333 26.8125 34.375V30.9375C26.8125 29.4209 25.5791 28.1875 24.0625 28.1875C22.5459 28.1875 21.3125 29.4209 21.3125 30.9375V38.8438C21.3125 40.5494 19.9244 41.9375 18.2188 41.9375C16.5131 41.9375 15.125 40.5494 15.125 38.8438V35.0006C17.0727 34.672 18.5625 32.978 18.5625 30.9375C18.5625 30.1922 18.3604 29.4937 18.0132 28.8894L18.1782 28.7375C19.2961 27.7056 19.9375 26.2412 19.9375 24.7191C19.9375 21.7037 17.4838 19.25 14.4684 19.25H14.3557C12.8948 19.25 11.5211 19.8193 10.4885 20.8519L10.3125 21.0279L10.1365 20.8519C9.10388 19.8193 7.73025 19.25 6.26931 19.25H6.15656C3.14119 19.25 0.6875 21.7037 0.6875 24.7191C0.6875 26.2412 1.32894 27.7056 2.44681 28.7375L10.3125 35.9982L12.1089 34.3399C12.5916 34.6713 13.1491 34.8996 13.75 35.0006V38.8438C13.75 41.3078 15.7548 43.3125 18.2188 43.3125C20.6828 43.3125 22.6875 41.3078 22.6875 38.8438V30.9375C22.6875 30.1792 23.3042 29.5625 24.0625 29.5625C24.8208 29.5625 25.4375 30.1792 25.4375 30.9375V34.375C25.4375 35.8916 26.6709 37.125 28.1875 37.125C29.7041 37.125 30.9375 35.8916 30.9375 34.375V25.4375H32.3125V22.6875H33C33.8951 22.6875 34.6514 22.1107 34.936 21.3125H37.125C40.5364 21.3125 43.3125 18.5364 43.3125 15.125V8.25C43.3125 5.071 40.9014 2.44681 37.8125 2.10306ZM14.4375 33.6875C12.9209 33.6875 11.6875 32.4541 11.6875 30.9375C11.6875 29.4209 12.9209 28.1875 14.4375 28.1875C15.9541 28.1875 17.1875 29.4209 17.1875 30.9375C17.1875 32.4541 15.9541 33.6875 14.4375 33.6875ZM3.37975 27.7276C2.54237 26.9548 2.0625 25.8582 2.0625 24.7191C2.0625 22.4613 3.89881 20.625 6.15656 20.625H6.26931C7.36313 20.625 8.39094 21.0512 9.16438 21.824L10.3125 22.9721L11.4606 21.824C12.2341 21.0512 13.2619 20.625 14.3557 20.625H14.4684C16.7262 20.625 18.5625 22.4613 18.5625 24.7191C18.5625 25.8582 18.0826 26.9548 17.2453 27.7269L17.138 27.8259C16.4134 27.1968 15.4708 26.8125 14.4375 26.8125C12.1626 26.8125 10.3125 28.6626 10.3125 30.9375C10.3125 31.8526 10.6157 32.6954 11.121 33.3802L10.3125 34.1268L3.37975 27.7276ZM36.4375 6.1875H34.375C33.2379 6.1875 32.3125 5.26213 32.3125 4.125C32.3125 2.98787 33.2379 2.0625 34.375 2.0625H36.4375V6.1875ZM24.0625 2.0625H26.125C27.2621 2.0625 28.1875 2.98787 28.1875 4.125C28.1875 5.26213 27.2621 6.1875 26.125 6.1875H24.0625V2.0625ZM18.5625 15.125V8.25C18.5625 5.83069 20.3589 3.828 22.6875 3.4925V4.88194C21.1207 5.20162 19.9375 6.59037 19.9375 8.25V15.125C19.9375 17.0204 21.4796 18.5625 23.375 18.5625H25.4375V19.9375H23.375C20.7213 19.9375 18.5625 17.7787 18.5625 15.125ZM30.9375 24.0625H29.5625V22.6875H30.9375V24.0625ZM33.6875 20.625C33.6875 21.0038 33.3788 21.3125 33 21.3125H27.5C27.1212 21.3125 26.8125 21.0038 26.8125 20.625V17.875C26.8125 17.4962 27.1212 17.1875 27.5 17.1875H33C33.3788 17.1875 33.6875 17.4962 33.6875 17.875V20.625ZM41.9375 15.125C41.9375 17.7787 39.7788 19.9375 37.125 19.9375H35.0625V18.5625H37.125C39.0204 18.5625 40.5625 17.0204 40.5625 15.125V8.25C40.5625 6.59037 39.3793 5.20162 37.8125 4.88194V3.4925C40.1411 3.828 41.9375 5.83069 41.9375 8.25V15.125Z" fill="#0079C8"/>
<path d="M28.1875 18.5625H29.5625V19.9375H28.1875V18.5625Z" fill="white"/>
<path d="M30.9375 18.5625H32.3125V19.9375H30.9375V18.5625Z" fill="white"/>
<path d="M6.45703 28.6829L7.38928 27.6722L8.87945 29.0468L7.9472 30.0575L6.45703 28.6829Z" fill="white"/>
<path d="M5.24563 25.7077C4.97613 25.4582 4.818 25.1055 4.8125 24.7397L3.4375 24.7604C3.44919 25.5008 3.7675 26.2137 4.312 26.7177L5.72069 28.0177L6.65294 27.0071L5.24563 25.7077Z" fill="white"/>
</svg>
