<svg width="40" height="46" viewBox="0 0 40 46" fill="none" xmlns="http://www.w3.org/2000/svg">
<path d="M39.5608 42.9276L37.5861 31.2098C37.3733 29.9473 36.4897 28.9331 35.2799 28.5632L29.9538 26.9343C29.8435 25.6146 29.3097 24.3696 28.4213 23.3841C27.7107 22.5959 26.8169 22.0219 25.8317 21.7052C26.0003 21.5156 26.1566 21.3265 26.3 21.1417C27.5666 19.5089 28.2447 17.7101 28.4173 16.4826H28.8282C29.8968 16.4826 30.7663 15.6014 30.7663 14.5181V13.511C30.7663 12.7881 30.3651 12.133 29.7617 11.7931V9.37142C29.7617 9.00549 29.469 8.70884 29.108 8.70884C28.747 8.70884 28.4544 9.0054 28.4544 9.37142V12.09C28.1999 12.1348 27.8961 12.2122 27.5854 12.3448C27.5536 12.3566 27.5226 12.3702 27.4933 12.3865C27.4232 12.419 27.3529 12.4532 27.2829 12.4917V7.15232C27.2829 5.6772 26.099 4.47716 24.6436 4.47716H22.8394C22.2171 4.47716 21.6092 4.69693 21.1274 5.09618L20.9504 5.24287C20.6252 5.51239 20.2147 5.66085 19.7946 5.66085C19.3745 5.66085 18.9639 5.51239 18.6387 5.24287L18.4618 5.09618C17.98 4.69702 17.3721 4.47716 16.7498 4.47716H14.9454C13.49 4.47716 12.3061 5.6772 12.3061 7.15232V12.4917C12.2361 12.4532 12.1658 12.419 12.0957 12.3865C12.0664 12.3702 12.0355 12.3566 12.0037 12.3448C11.693 12.2122 11.3891 12.1348 11.1347 12.09V5.21592C11.1347 3.07052 12.8567 1.32508 14.9733 1.32508H24.6156C26.7323 1.32508 28.4543 3.07052 28.4543 5.21592V6.25742C28.4543 6.62335 28.7469 6.92 29.1079 6.92C29.4688 6.92 29.7615 6.62344 29.7615 6.25742V5.21592C29.7615 2.33989 27.4531 0 24.6156 0H14.9733C12.1358 0 9.82737 2.33989 9.82737 5.21592V11.7931C9.22399 12.1331 8.82278 12.7881 8.82278 13.5111V14.5181C8.82278 15.6014 9.69224 16.4827 10.7609 16.4827H11.1718C11.3443 17.7102 12.0225 19.509 13.2891 21.1418C13.4323 21.3264 13.5886 21.5153 13.757 21.7048C11.492 22.434 9.84028 24.4981 9.63531 26.9343L4.30904 28.5632C3.09922 28.9331 2.21554 29.9473 2.00282 31.2098L1.20092 35.9683C1.14016 36.329 1.37938 36.6713 1.73517 36.7329C2.09087 36.7946 2.4287 36.5521 2.48956 36.1913L3.29145 31.4328C3.42013 30.669 3.95473 30.0555 4.68662 29.8318L9.61282 28.3252V29.6358C8.48364 29.8464 7.52281 30.6327 7.1271 31.722C7.02204 32.0111 6.95674 32.3139 6.93303 32.6217L6.45693 38.8159C6.42101 39.2825 6.58029 39.7471 6.89371 40.0904C7.20713 40.4338 7.65167 40.6309 8.11329 40.6309H8.92827C9.28929 40.6309 9.58196 40.3343 9.58196 39.9683C9.58196 39.6023 9.28929 39.3058 8.92827 39.3058H8.11329C8.01487 39.3058 7.92019 39.2639 7.85332 39.1906C7.78654 39.1174 7.75262 39.0184 7.7603 38.919L8.23639 32.7248C8.25078 32.5382 8.29027 32.3549 8.35392 32.1798C8.62924 31.422 9.37272 30.9089 10.2042 30.903L10.3118 30.9022C10.3169 30.9021 10.3219 30.9021 10.3268 30.9021C11.1349 30.9021 11.8502 31.3665 12.152 32.0886C12.2366 32.2911 12.2881 32.5051 12.305 32.7248L12.7813 38.9191C12.7888 39.0184 12.7549 39.1174 12.6882 39.1906C12.6214 39.2638 12.5266 39.3058 12.4282 39.3058H11.6132C11.2522 39.3058 10.9595 39.6024 10.9595 39.9683C10.9595 40.3342 11.2522 40.6309 11.6132 40.6309H12.4282C12.8898 40.6309 13.3344 40.4339 13.6478 40.0904C13.9613 39.7469 14.1205 39.2824 14.0846 38.816L13.6084 32.6217C13.5805 32.2592 13.4955 31.9059 13.3557 31.5716C12.9251 30.5415 12.0044 29.8252 10.92 29.6314V27.9254L13.167 27.2382C13.3715 27.6746 13.7766 28.6178 14.5791 30.6509C15.3879 32.7022 16.3932 35.3316 17.3573 37.8877C17.3642 37.9092 17.3722 37.9302 17.3811 37.9507C18.0245 39.6571 18.6486 41.3285 19.1824 42.7703C19.2781 43.0289 19.522 43.2002 19.7944 43.2002C20.0669 43.2002 20.3107 43.0289 20.4064 42.7703C20.9402 41.3285 21.5643 39.6571 22.2078 37.9507C22.2168 37.9302 22.2246 37.9091 22.2315 37.8877C23.1949 35.3331 24.1997 32.7054 25.0081 30.6547C25.8117 28.6189 26.2172 27.675 26.4217 27.2382L28.6687 27.9254V31.8388C27.1118 32.1453 25.9325 33.5371 25.9325 35.2036C25.9325 37.0938 27.4497 38.6318 29.3147 38.6318C31.1797 38.6318 32.6969 37.0939 32.6969 35.2036C32.6969 33.5426 31.5254 32.1542 29.976 31.8416V28.3253L34.9023 29.8319C35.6342 30.0556 36.1687 30.6691 36.2975 31.4329L38.2721 43.1508C38.3049 43.3451 38.2539 43.5351 38.1284 43.6857C38.0031 43.8363 37.8269 43.9194 37.6324 43.9194H1.95644C1.76194 43.9194 1.58583 43.8364 1.46038 43.6857C1.33501 43.5351 1.28392 43.3452 1.3167 43.1508L1.96838 39.2836C2.02915 38.9229 1.78992 38.5806 1.43413 38.5191C1.07843 38.4572 0.740604 38.6999 0.679752 39.0606L0.0280689 42.9277C-0.0691387 43.5049 0.0887473 44.0927 0.461187 44.5403C0.833802 44.9878 1.37877 45.2444 1.95644 45.2444H37.6324C38.2101 45.2444 38.7551 44.9878 39.1276 44.5402C39.5001 44.0926 39.658 43.5049 39.5608 42.9276ZM28.4621 13.4398C28.8104 13.3518 29.09 13.3534 29.0931 13.3535C29.2058 13.355 29.3153 13.3283 29.4126 13.2766C29.4417 13.35 29.4588 13.4289 29.4588 13.5111V14.5181C29.4588 14.8707 29.1759 15.1576 28.828 15.1576H28.4621V13.4398ZM11.1267 15.1576H10.7608C10.413 15.1576 10.13 14.8707 10.13 14.5181V13.5111C10.13 13.4289 10.1472 13.35 10.1763 13.2767C10.2735 13.3284 10.383 13.355 10.4957 13.3535C10.5007 13.3543 10.7795 13.3527 11.1267 13.4401V15.1576ZM12.434 15.9005V14.1598C12.6321 14.22 12.8487 14.2118 13.0487 14.1272C13.3918 13.9821 13.6134 13.6452 13.6134 13.2686V7.15232C13.6134 6.40791 14.211 5.80224 14.9454 5.80224H16.7496C17.0711 5.80224 17.3852 5.91579 17.6341 6.12204L17.8111 6.26873C18.3692 6.73125 19.0735 6.98584 19.7944 6.98584C20.5153 6.98584 21.2197 6.73116 21.7777 6.26873L21.9547 6.12204C22.2035 5.91579 22.5177 5.80224 22.8392 5.80224H24.6435C25.3779 5.80224 25.9754 6.40791 25.9754 7.15232V13.2687C25.9754 13.6452 26.197 13.9822 26.5401 14.1273C26.6546 14.1757 26.7746 14.1992 26.8935 14.1992C26.9822 14.1992 27.0702 14.1861 27.1548 14.1604V15.9005C27.1548 16.8678 26.495 18.7464 25.2722 20.3227C24.8672 20.8448 24.3465 21.4058 23.7055 21.8961C23.6852 21.9099 23.6657 21.9248 23.6471 21.9407C22.6541 22.6849 21.3771 23.2551 19.7944 23.2551C18.2117 23.2551 16.9348 22.6849 15.9416 21.9406C15.923 21.9248 15.9037 21.9099 15.8834 21.8962C15.2424 21.4058 14.7218 20.8448 14.3166 20.3227C13.0939 18.7465 12.434 16.8678 12.434 15.9005ZM24.0768 26.6049L19.7944 29.8493L15.5121 26.6049C15.9367 26.0578 16.1746 25.3556 16.1746 24.7289V23.6609C17.1817 24.2098 18.3833 24.5802 19.7944 24.5802C21.2055 24.5802 22.4072 24.2098 23.4142 23.6609V24.7289C23.4142 25.3556 23.6521 26.0578 24.0768 26.6049ZM14.4211 25.8654C14.0721 25.7306 13.6851 25.7085 13.319 25.8092C13.303 25.813 13.2873 25.8173 13.272 25.8219L11.0137 26.5126C11.3957 24.609 12.9207 23.0938 14.8673 22.8003V24.7289C14.8673 25.1446 14.6843 25.5743 14.4211 25.8654ZM16.1952 31.1841C16.194 31.181 16.1928 31.1779 16.1916 31.1749C16.1585 31.09 16.1258 31.0062 16.0934 30.9234C16.0875 30.9084 16.0817 30.8934 16.0759 30.8786C16.0441 30.7975 16.0126 30.7171 15.9816 30.638C15.9794 30.6325 15.9773 30.627 15.9751 30.6213C15.8782 30.3745 15.7848 30.1378 15.695 29.911C15.6885 29.8945 15.682 29.8778 15.6754 29.8615C15.6496 29.7964 15.6243 29.7324 15.5991 29.6691C15.5898 29.6458 15.5807 29.6229 15.5715 29.5999C15.5471 29.5386 15.5229 29.4776 15.499 29.4179C15.4918 29.4001 15.4849 29.3828 15.4778 29.365C15.4345 29.2567 15.3921 29.1511 15.3508 29.0481C15.3396 29.0203 15.3282 28.9919 15.3171 28.9644C15.3009 28.9243 15.2851 28.8853 15.2693 28.8459C15.2522 28.8035 15.2351 28.7615 15.2183 28.7201C15.2121 28.7046 15.2055 28.6883 15.1992 28.6729C15.1942 28.6605 15.1896 28.6491 15.1846 28.6369C15.1091 28.4509 15.0373 28.2757 14.9693 28.1109C14.9687 28.1096 14.9681 28.1082 14.9676 28.1069C14.9313 28.0192 14.8959 27.9335 14.8618 27.8518C14.8441 27.8095 14.8266 27.7679 14.8095 27.727L18.4925 30.5172L16.9536 31.1798C16.9509 31.181 16.9481 31.1821 16.9454 31.1834L16.3029 31.46C16.2664 31.3666 16.2308 31.2751 16.1952 31.1841ZM17.7549 35.2409C17.6258 34.9013 17.4957 34.5597 17.3654 34.2185C17.1615 33.6849 16.9669 33.1775 16.7805 32.6941L17.0245 32.589L18.0211 33.7634L17.7549 35.2409ZM19.8071 40.6258C19.7883 40.5864 19.766 40.5492 19.7402 40.5146C19.4448 39.7232 19.0699 38.7219 18.655 37.6203L19.2653 34.2336H20.3235L20.9338 37.6203C20.499 38.7744 20.1085 39.8181 19.8071 40.6258ZM20.5687 32.9086H19.0202L18.2874 32.0452L19.7944 31.3963L21.3014 32.0452L20.5687 32.9086ZM22.2235 34.2185C22.0931 34.5597 21.9631 34.9013 21.8339 35.2409L21.5677 33.7633L22.5643 32.5889L22.8083 32.694C22.622 33.1774 22.4273 33.6849 22.2235 34.2185ZM24.7271 27.8518C24.6948 27.9292 24.6612 28.0104 24.6269 28.0933C24.6224 28.1041 24.6179 28.115 24.6135 28.1258C24.5796 28.208 24.545 28.292 24.5093 28.3794C24.5069 28.3851 24.5045 28.3912 24.5021 28.397C24.4713 28.4724 24.4396 28.5502 24.4075 28.6294C24.4014 28.6443 24.3958 28.658 24.3898 28.6729C24.3826 28.6907 24.3749 28.7095 24.3677 28.7274C24.3534 28.7628 24.3388 28.7988 24.3242 28.8349C24.3062 28.8793 24.2884 28.9236 24.27 28.9691C24.2641 28.9836 24.2581 28.9987 24.2522 29.0133C24.2067 29.1263 24.1599 29.2428 24.1122 29.3625C24.1047 29.3812 24.0973 29.3996 24.0898 29.4186C24.0661 29.4777 24.0421 29.538 24.0179 29.5987C24.0085 29.6225 23.999 29.6462 23.9895 29.6702C23.9646 29.7329 23.9394 29.7963 23.9139 29.8607C23.9068 29.8786 23.8995 29.897 23.8924 29.915C23.8037 30.1388 23.7117 30.3721 23.6163 30.6153C23.6131 30.6234 23.61 30.6312 23.6069 30.6394C23.576 30.7179 23.5448 30.7978 23.5132 30.8783C23.5074 30.8933 23.5015 30.9084 23.4955 30.9235C23.4629 31.0067 23.4301 31.0908 23.3968 31.1763C23.3961 31.1779 23.3955 31.1795 23.3949 31.181C23.359 31.2731 23.3229 31.3657 23.2861 31.4602L22.643 31.1833C22.6407 31.1823 22.6385 31.1813 22.6363 31.1804L21.0965 30.5173L24.7795 27.7272C24.7622 27.7679 24.7448 27.8094 24.7271 27.8518ZM26.3168 25.822C26.3167 25.822 26.3166 25.8219 26.3165 25.8219C26.3159 25.8217 26.3153 25.8216 26.3148 25.8214C25.9356 25.7061 25.5311 25.7251 25.1678 25.8654C24.9046 25.5743 24.7216 25.1446 24.7216 24.7289V22.7994C26.6805 23.092 28.2008 24.593 28.5778 26.5134L26.3168 25.822ZM31.3897 35.2036C31.3897 36.3633 30.4588 37.3067 29.3147 37.3067C28.1706 37.3067 27.2398 36.3633 27.2398 35.2036C27.2398 34.0438 28.1706 33.1004 29.3147 33.1004C30.4588 33.1004 31.3897 34.0438 31.3897 35.2036Z" fill="#00335B"/>
</svg>
