<svg width="48" height="48" viewBox="0 0 48 48" fill="none" xmlns="http://www.w3.org/2000/svg">
<path d="M40.6559 18.4294C39.7527 18.0533 38.4591 18.3023 37.7536 19.7382C37.7516 19.7424 37.7496 19.7464 37.7477 19.7506L35.1592 25.2615C34.2478 24.8845 33.1638 25.198 32.6038 26.0548C32.4105 26.3507 31.7747 27.3619 31.1016 28.4326C30.4611 29.4513 29.7989 30.5047 29.6129 30.7893C29.2448 31.3525 28.6158 31.8887 27.8875 32.5096C26.5271 33.6693 24.8521 35.0972 23.9708 37.5312C23.0892 35.0969 21.4139 33.6687 20.0543 32.5095C19.3259 31.8887 18.6969 31.3524 18.3289 30.7892C18.1428 30.5044 17.48 29.4501 16.839 28.4306C16.1665 27.3609 15.5313 26.3506 15.3381 26.0549C14.778 25.1979 13.6941 24.8846 12.7827 25.2616L10.1942 19.7506C10.1923 19.7465 10.1903 19.7424 10.1883 19.7383C9.4829 18.3023 8.18942 18.0531 7.286 18.4294C6.3754 18.8086 5.69034 19.8778 6.14283 21.1876C6.14369 21.1901 6.14455 21.1926 6.14548 21.1951C6.31696 21.6757 6.71758 23.0078 7.18132 24.5503C7.83005 26.7078 8.63738 29.393 9.33814 31.5001C10.2495 34.2405 10.7011 35.0373 12.5595 37.1843L15.1105 40.1314V43.2196C15.1105 43.651 15.4603 44.0008 15.8917 44.0008H32.0502C32.4817 44.0008 32.8315 43.651 32.8315 43.2196V40.1314L35.3825 37.1843C37.241 35.0373 37.6925 34.2404 38.6038 31.5001C39.3047 29.3928 40.1121 26.7075 40.7608 24.5498C41.2246 23.0075 41.625 21.6756 41.7965 21.1951C41.7974 21.1926 41.7982 21.1901 41.7991 21.1876C42.2516 19.8778 41.5665 18.8085 40.6559 18.4294ZM22.9649 42.4382H16.6728V39.8401C16.6728 39.6523 16.6052 39.4707 16.4823 39.3288L13.7407 36.1615C12.0204 34.1742 11.6657 33.548 10.8207 31.007C10.1271 28.9213 9.3233 26.2482 8.67745 24.1003C8.18942 22.4774 7.80372 21.1945 7.61834 20.674C7.46569 20.228 7.66717 19.9631 7.88654 19.8717C8.20606 19.7388 8.54894 19.9492 8.78284 20.4213L11.6535 26.533C11.5493 26.9391 11.5498 27.4591 11.7357 28.1244C12.2717 30.042 12.9794 31.9808 13.6773 33.4437C13.8631 33.8333 14.3294 33.9985 14.7189 33.8125C15.1082 33.6267 15.2734 33.1604 15.0875 32.771C14.4266 31.3857 13.7533 29.5388 13.2405 27.704C13.0234 26.9272 13.2264 26.7947 13.2931 26.7513C13.5339 26.5943 13.8714 26.6669 14.0301 26.9095C14.2158 27.1938 14.8768 28.2453 15.5161 29.2621C16.1904 30.3347 16.8273 31.3477 17.0209 31.6439C17.512 32.3954 18.2546 33.0284 19.0406 33.6986C21.0879 35.4439 23.4005 37.4154 22.9649 42.4382ZM40.3235 20.6738C40.1381 21.1941 39.7524 22.4768 39.2644 24.0998C38.6186 26.2478 37.8148 28.9211 37.1211 31.007C36.2761 33.5479 35.9213 34.1742 34.2011 36.1615L31.4595 39.3288C31.3366 39.4707 31.2689 39.6523 31.2689 39.8401V42.4382H24.9769C24.5411 37.4158 26.8534 35.4445 28.9012 33.6987C29.6873 33.0285 30.4297 32.3955 30.9209 31.6439C31.1143 31.3479 31.7507 30.3358 32.4244 29.2642C33.0643 28.2465 33.7259 27.194 33.9118 26.9095C34.0704 26.6667 34.408 26.5942 34.6487 26.7512C34.7154 26.7947 34.9184 26.927 34.7013 27.7039C34.1886 29.5386 33.5153 31.3855 32.8543 32.7709C32.6685 33.1603 32.8336 33.6266 33.2229 33.8124C33.6122 33.9983 34.0787 33.8333 34.2645 33.4437C34.9625 31.9807 35.6702 30.0419 36.2061 28.1243C36.392 27.4591 36.3926 26.939 36.2884 26.533L39.1588 20.4216C39.3926 19.9492 39.7354 19.7383 40.0554 19.8716C40.2746 19.9631 40.476 20.2278 40.3235 20.6738Z" fill="#00335B"/>
<path d="M23.9705 27.437C30.4321 27.437 35.689 22.1801 35.689 15.7185C35.689 9.2569 30.4321 4 23.9705 4C22.1336 4 20.3736 4.41405 18.7396 5.23052C18.3537 5.4234 18.1971 5.89261 18.3899 6.27854C18.5828 6.66454 19.0521 6.82102 19.4379 6.62822C20.4769 6.10909 21.5752 5.77855 22.7158 5.6391C23.4251 6.82032 23.8386 8.36575 23.3571 9.16566C22.9819 9.789 22.0066 9.81392 21.2544 9.72525C20.3576 9.61939 19.5147 9.90876 18.8169 10.562C17.8956 11.4245 17.3446 12.8389 17.413 14.1654C17.4778 15.4199 17.4434 15.8867 17.1126 16.1788C16.6689 16.5707 15.6012 16.8722 13.926 17.223C13.8528 16.7319 13.8145 16.2296 13.8145 15.7185C13.8145 14.1262 14.173 12.6014 14.8799 11.1865C15.0728 10.8005 14.9163 10.3313 14.5302 10.1384C14.1442 9.94532 13.675 10.1021 13.4822 10.4881C12.6659 12.1218 12.2519 13.8816 12.2519 15.7185C12.252 22.1801 17.5088 27.437 23.9705 27.437ZM23.9705 25.8745C22.0841 25.8745 20.3167 25.357 18.8015 24.4573C19.6465 23.9133 20.7169 23.6599 21.7609 23.4142C23.2364 23.067 24.7621 22.7079 25.4107 21.4255C25.9122 20.4342 25.7826 19.1209 25.003 17.2927C24.5393 16.2052 24.6429 15.3094 25.2801 14.8965C25.9412 14.4681 27.1202 14.5849 28.0946 15.6371C29.4589 17.1102 30.9072 16.6839 31.9646 16.3726C32.9104 16.094 33.476 15.9615 34.1009 16.4332C33.733 21.7011 29.3302 25.8745 23.9705 25.8745ZM18.147 17.3499C19.0986 16.5095 19.0378 15.3318 18.9734 14.0848C18.9291 13.2261 19.3039 12.2465 19.8849 11.7026C20.241 11.3693 20.6403 11.2258 21.0714 11.277C23.2621 11.535 24.2515 10.7097 24.6959 9.9715C25.4255 8.75934 25.1316 7.02805 24.4494 5.5741C29.4834 5.80894 33.5713 9.72564 34.0745 14.6862C33.1307 14.4007 32.2366 14.6637 31.5234 14.8737C30.4588 15.1872 29.9171 15.3055 29.2411 14.5755C27.6802 12.89 25.6396 12.8016 24.4304 13.5853C23.4051 14.2498 22.6397 15.7337 23.5658 17.9057C24.1348 19.2398 24.2864 20.1868 24.0165 20.7204C23.6961 21.3536 22.6335 21.6038 21.4031 21.8934C20.0869 22.2032 18.6177 22.5492 17.4566 23.5039C15.9827 22.2687 14.8631 20.624 14.2755 18.7463C16.3071 18.3199 17.4489 17.9665 18.147 17.3499Z" fill="#00335B"/>
<path d="M16.2373 8.76569C16.4248 8.76569 16.6131 8.69858 16.7628 8.56241C17.082 8.27219 17.1056 7.77813 16.8154 7.45884C16.5251 7.13955 16.031 7.11611 15.7118 7.40627L15.7114 7.40666C15.3922 7.69688 15.3688 8.19078 15.6591 8.51007C15.8131 8.6796 16.0248 8.76569 16.2373 8.76569Z" fill="#00335B"/>
</svg>
