<svg width="23" height="23" viewBox="0 0 23 23" fill="none" xmlns="http://www.w3.org/2000/svg">
<g clip-path="url(#clip0)">
<path d="M21.2281 14.4485C20.9117 14.4485 20.6553 14.7049 20.6553 15.0213V20.1073C20.6542 21.056 19.8856 21.8249 18.9368 21.8258H2.8641C1.91536 21.8249 1.14676 21.056 1.14564 20.1073V5.18021C1.14676 4.2317 1.91536 3.46287 2.8641 3.46175H7.9501C8.2665 3.46175 8.52292 3.20533 8.52292 2.88893C8.52292 2.57276 8.2665 2.31611 7.9501 2.31611H2.8641C1.28303 2.3179 0.00179006 3.59914 0 5.18021V20.1075C0.00179006 21.6886 1.28303 22.9698 2.8641 22.9716H18.9368C20.5179 22.9698 21.7991 21.6886 21.8009 20.1075V15.0213C21.8009 14.7049 21.5445 14.4485 21.2281 14.4485Z" fill="#0079C8"/>
<path d="M21.5742 0.842233C20.5676 -0.164452 18.9355 -0.164452 17.9288 0.842233L7.70932 11.0617C7.63929 11.1317 7.58872 11.2185 7.56232 11.3139L6.21843 16.1656C6.16316 16.3645 6.21932 16.5775 6.36521 16.7236C6.51133 16.8695 6.72434 16.9257 6.92326 16.8707L11.775 15.5265C11.8703 15.5001 11.9571 15.4496 12.0272 15.3795L22.2464 5.15986C23.2515 4.1525 23.2515 2.52176 22.2464 1.5144L21.5742 0.842233ZM8.95744 11.434L17.3213 3.06996L20.0187 5.76736L11.6546 14.1314L8.95744 11.434ZM8.41864 12.5152L10.5736 14.6704L7.59275 15.4963L8.41864 12.5152ZM21.4364 4.34986L20.8289 4.95736L18.1313 2.25974L18.739 1.65224C19.2982 1.09307 20.2048 1.09307 20.764 1.65224L21.4364 2.3244C21.9947 2.88424 21.9947 3.79024 21.4364 4.34986Z" fill="#0079C8"/>
</g>
<defs>
<clipPath id="clip0">
<rect width="23" height="23" fill="white"/>
</clipPath>
</defs>
</svg>
