<svg width="46" height="34" viewBox="0 0 46 34" fill="none" xmlns="http://www.w3.org/2000/svg">
<path d="M42.1666 0H3.83336C1.71916 0 0 1.69424 0 3.77781V30.2223C0 32.3058 1.71916 34 3.83336 34H42.1667C44.2808 34 46 32.3058 46 30.2222V3.77781C46 1.69424 44.2808 0 42.1666 0ZM3.83336 1.88886H42.1667C42.308 1.88886 42.4324 1.93959 42.5649 1.96828C39.2462 4.96161 28.2418 14.8829 24.3908 18.3023C24.0894 18.5698 23.6037 18.8889 23.0001 18.8889C22.3964 18.8889 21.9107 18.5698 21.6084 18.3014C17.7578 14.8825 6.75275 4.96072 3.43455 1.96846C3.56734 1.93977 3.69204 1.88886 3.83336 1.88886ZM1.91664 30.2222V3.77781C1.91664 3.59276 1.97324 3.42488 2.02391 3.25577C4.56397 5.54687 12.2424 12.4694 17.2212 16.9313C12.2586 21.1323 4.57817 28.3085 2.01789 30.7145C1.9727 30.5539 1.91664 30.3968 1.91664 30.2222ZM42.1666 32.1111H3.83336C3.68027 32.1111 3.54416 32.0585 3.40121 32.0249C6.04684 29.5394 13.7761 22.322 18.6515 18.2116C19.287 18.7798 19.8676 19.2978 20.3253 19.7042C21.1152 20.4071 22.0398 20.7778 23 20.7778C23.9602 20.7778 24.8848 20.407 25.6738 19.7051C26.1316 19.2985 26.7126 18.78 27.3485 18.2116C32.2242 22.3215 39.9523 29.5384 42.5988 32.0249C42.4558 32.0585 42.3199 32.1111 42.1666 32.1111ZM44.0834 30.2222C44.0834 30.3967 44.0273 30.5539 43.9822 30.7145C41.4209 28.3072 33.7414 21.1319 28.7789 16.9314C33.7579 12.4695 41.4351 5.54758 43.9761 3.25559C44.0268 3.4247 44.0834 3.59267 44.0834 3.77772V30.2222V30.2222Z" fill="#00335B"/>
</svg>
