<svg width="21" height="14" viewBox="0 0 21 14" fill="none" xmlns="http://www.w3.org/2000/svg">
<path d="M10.6534 1.97481C12.2859 1.96938 13.8867 2.42473 15.2719 3.2885C16.657 4.15228 17.7703 5.38941 18.4838 6.85768C17.0189 9.84955 14.0271 11.7406 10.6534 11.7406C7.27982 11.7406 4.28795 9.84955 2.82309 6.85768C3.53654 5.38941 4.64985 4.15228 6.03503 3.2885C7.4202 2.42473 9.02102 1.96938 10.6534 1.97481ZM10.6534 0.199219C6.21447 0.199219 2.42358 2.96026 0.887695 6.85768C2.42358 10.7551 6.21447 13.5161 10.6534 13.5161C15.0924 13.5161 18.8833 10.7551 20.4192 6.85768C18.8833 2.96026 15.0924 0.199219 10.6534 0.199219ZM10.6534 4.6382C11.2421 4.6382 11.8066 4.87203 12.2229 5.28827C12.6391 5.7045 12.8729 6.26904 12.8729 6.85768C12.8729 7.44633 12.6391 8.01086 12.2229 8.4271C11.8066 8.84333 11.2421 9.07717 10.6534 9.07717C10.0648 9.07717 9.50026 8.84333 9.08403 8.4271C8.66779 8.01086 8.43396 7.44633 8.43396 6.85768C8.43396 6.26904 8.66779 5.7045 9.08403 5.28827C9.50026 4.87203 10.0648 4.6382 10.6534 4.6382ZM10.6534 2.8626C8.45171 2.8626 6.65836 4.65595 6.65836 6.85768C6.65836 9.05942 8.45171 10.8528 10.6534 10.8528C12.8552 10.8528 14.6485 9.05942 14.6485 6.85768C14.6485 4.65595 12.8552 2.8626 10.6534 2.8626Z" fill="#0079C8"/>
</svg>
