<svg width="29" height="30" viewBox="0 0 29 30" fill="none" xmlns="http://www.w3.org/2000/svg">
<path d="M5.21462 0.533203C2.32595 0.533203 0 2.92201 0 5.88875V24.508C0 27.4748 2.32595 29.8636 5.21462 29.8636H15.0406V18.3972H12.0883V14.269H15.0406V10.742C15.0406 7.97103 16.7849 5.4268 20.8031 5.4268C22.4301 5.4268 23.6331 5.58721 23.6331 5.58721L23.5385 9.44233C23.5385 9.44233 22.3116 9.43042 20.9727 9.43042C19.5237 9.43042 19.2913 10.1161 19.2913 11.2544V14.269H23.6536L23.4635 18.3973H19.2913V29.8636H23.3439C26.2326 29.8636 28.5586 27.4748 28.5586 24.5081V5.88878C28.5586 2.92204 26.2326 0.533232 23.3439 0.533232H5.21459L5.21462 0.533203Z" fill="#00335B"/>
</svg>
