<svg width="40" height="31" viewBox="0 0 40 31" fill="none" xmlns="http://www.w3.org/2000/svg">
<path d="M37.8745 0H6.24453C5.07375 0 4.12125 0.953438 4.12125 2.12531V4.09867H2.12547C0.953437 4.09867 0 5.05109 0 6.22188V22.1184C0 23.2903 0.953437 24.2438 2.12547 24.2438H3.51891V29.6094C3.51891 29.9058 3.68664 30.1767 3.95203 30.3088C4.06227 30.3636 4.18148 30.3906 4.30008 30.3906C4.46703 30.3906 4.63289 30.3371 4.77109 30.2327L12.6982 24.2438H32.7261L35.229 26.1341C35.3673 26.2386 35.533 26.292 35.6999 26.292C35.8186 26.292 35.9378 26.265 36.048 26.2102C36.3134 26.078 36.4811 25.8072 36.4811 25.5108V20.1451H37.8745C39.0465 20.1451 40 19.1916 40 18.0197V2.12531C40 0.953438 39.0465 0 37.8745 0ZM38.4375 18.0196C38.4375 18.3247 38.1797 18.5825 37.8745 18.5825H35.6998C35.2684 18.5825 34.9186 18.9323 34.9186 19.3637V23.9416L28.0323 18.7404C27.8967 18.6379 27.7313 18.5825 27.5615 18.5825H18.6547C18.2233 18.5825 17.8734 18.9323 17.8734 19.3637C17.8734 19.7952 18.2233 20.145 18.6547 20.145H27.2995L30.6573 22.6812H12.4363C12.2663 22.6812 12.1009 22.7366 11.9653 22.8391L5.08141 28.0399V23.4623C5.08141 23.0309 4.73156 22.6811 4.30016 22.6811H2.12547C1.815 22.6811 1.5625 22.4287 1.5625 22.1183V6.22188C1.5625 5.91789 1.82031 5.66117 2.12547 5.66117H4.12125V18.0196C4.12125 19.1916 5.07367 20.145 6.24453 20.145H11.6391C12.0705 20.145 12.4204 19.7952 12.4204 19.3637C12.4204 18.9323 12.0705 18.5825 11.6391 18.5825H6.24453C5.94055 18.5825 5.68375 18.3247 5.68375 18.0196V2.12531C5.68375 1.82023 5.94055 1.5625 6.24453 1.5625H37.8745C38.185 1.5625 38.4375 1.81492 38.4375 2.12531V18.0196Z" fill="#00335B"/>
<path d="M23.254 10.9656C23.2467 10.9461 23.2386 10.9269 23.2298 10.9081L20.8161 5.18352C20.8107 5.17071 20.8053 5.15953 20.7999 5.14969C20.7204 4.9836 20.5829 4.84446 20.3998 4.76719C20.0026 4.59953 19.5441 4.78571 19.3763 5.18336L16.9514 10.9311C16.95 10.9343 16.9487 10.9374 16.9473 10.9406L15.6049 14.1225C15.4372 14.52 15.6235 14.9782 16.0211 15.146C16.1202 15.1878 16.2231 15.2076 16.3244 15.2076C16.629 15.2076 16.9186 15.0282 17.0446 14.7298L18.1874 12.0211H22.0032L23.1453 14.7297C23.2711 15.0282 23.5607 15.2076 23.8655 15.2076C23.9668 15.2076 24.0696 15.1878 24.1687 15.1461C24.5664 14.9784 24.7528 14.5202 24.5851 14.1226L23.254 10.9656ZM18.8467 10.4586L20.096 7.49742L21.3445 10.4586H18.8467Z" fill="#00335B"/>
<path d="M34.0255 12.616C34.6374 11.7227 35.0023 10.6061 35.0023 9.39527C35.0023 6.47465 32.882 4.09863 30.2758 4.09863C27.6684 4.09863 25.5471 6.47465 25.5471 9.39527C25.5471 12.3172 27.6684 14.6944 30.2758 14.6944C31.2706 14.6944 32.1941 14.3472 32.9564 13.7564L34.4239 15.2128C34.5763 15.364 34.7752 15.4395 34.9742 15.4395C35.1751 15.4395 35.376 15.3625 35.5288 15.2085C35.8327 14.9023 35.8308 14.4077 35.5245 14.1037L34.0255 12.616ZM32.8931 11.4922L31.5345 10.1439C31.2283 9.83995 30.7337 9.84175 30.4297 10.1481C30.1257 10.4543 30.1277 10.9489 30.4339 11.2529L31.8357 12.6442C31.3749 12.954 30.8427 13.132 30.2757 13.132C28.5299 13.132 27.1095 11.4557 27.1095 9.39535C27.1095 7.33636 28.5299 5.66121 30.2757 5.66121C32.0203 5.66121 33.4397 7.33629 33.4397 9.39535C33.4398 10.1719 33.238 10.8939 32.8931 11.4922Z" fill="#00335B"/>
<path d="M15.2216 9.58104C15.2216 9.14963 14.8717 8.79979 14.4403 8.79979H10.21V6.26807H14.4403C14.8717 6.26807 15.2215 5.91822 15.2215 5.48682C15.2215 5.05541 14.8717 4.70557 14.4403 4.70557H9.42877C8.99737 4.70557 8.64752 5.05541 8.64752 5.48682V14.6585C8.64752 15.0899 8.99737 15.4397 9.42877 15.4397C9.86018 15.4397 10.21 15.0899 10.21 14.6585V10.3623H14.4403C14.8717 10.3623 15.2216 10.0124 15.2216 9.58104Z" fill="#00335B"/>
<path d="M15.147 18.5831C14.7156 18.5831 14.3658 18.933 14.3658 19.3644C14.3658 19.7958 14.7156 20.1456 15.147 20.1456H15.1492C15.5806 20.1456 15.9293 19.7958 15.9293 19.3644C15.9293 18.933 15.5784 18.5831 15.147 18.5831Z" fill="#00335B"/>
</svg>
