<svg width="94" height="94" viewBox="0 0 94 94" fill="none" xmlns="http://www.w3.org/2000/svg">
<path opacity="0.1" d="M89.2816 79.9543H4.71836C2.92355 79.9543 1.46875 78.4995 1.46875 76.7047V17.2953C1.46875 15.5005 2.92355 14.0457 4.71836 14.0457H89.2816C91.0765 14.0457 92.5312 15.5005 92.5312 17.2953V76.7047C92.5312 78.4995 91.0765 79.9543 89.2816 79.9543Z" fill="#0079C8"/>
<path d="M89.2817 14.0457H85.6099C87.4047 14.0457 88.8595 15.5005 88.8595 17.2953V76.7047C88.8595 78.4995 87.4047 79.9543 85.6099 79.9543H89.2817C91.0766 79.9543 92.5313 78.4995 92.5313 76.7047V17.2953C92.5313 15.5005 91.0766 14.0457 89.2817 14.0457Z" fill="#D6D1CF"/>
<path d="M4.71836 79.9543H8.39023C6.59542 79.9543 5.14063 78.4995 5.14063 76.7047V17.2953C5.14063 15.5005 6.59542 14.0457 8.39023 14.0457H4.71836C2.92355 14.0457 1.46875 15.5005 1.46875 17.2953V76.7047C1.46875 78.4995 2.92355 79.9543 4.71836 79.9543Z" fill="white"/>
<path d="M89.2816 80.6887H4.71836C2.52148 80.6887 0.734375 78.9016 0.734375 76.7047V17.2953C0.734375 15.0984 2.52148 13.3113 4.71836 13.3113H89.2816C91.4785 13.3113 93.2656 15.0984 93.2656 17.2953V76.7051C93.2656 78.9016 91.4785 80.6887 89.2816 80.6887ZM4.71836 14.78C3.33149 14.78 2.20312 15.9084 2.20312 17.2953V76.7051C2.20312 78.092 3.33149 79.2203 4.71836 79.2203H89.2816C90.6685 79.2203 91.7969 78.092 91.7969 76.7051V17.2953C91.7969 15.9084 90.6685 14.78 89.2816 14.78H4.71836Z" fill="#0079C8"/>
<path d="M4.40625 39.8656C4.00051 39.8656 3.67188 39.5366 3.67188 39.1312V34.725C3.67188 34.3196 4.00051 33.9906 4.40625 33.9906C4.81163 33.9906 5.14062 34.3196 5.14062 34.725V39.1312C5.14062 39.5366 4.81163 39.8656 4.40625 39.8656Z" fill="#00335B"/>
<path d="M89.2816 14.0457H4.71836C2.92355 14.0457 1.46875 15.5005 1.46875 17.2953V26.4915H92.5312V17.2953C92.5312 15.5005 91.0765 14.0457 89.2816 14.0457Z" fill="#526FAA"/>
<path d="M89.2817 14.0457H85.6099C87.4047 14.0457 88.8595 15.5005 88.8595 17.2953V26.4915H92.5313V17.2953C92.5313 15.5005 91.0766 14.0457 89.2817 14.0457Z" fill="#34518C"/>
<path d="M4.71836 14.0457H8.39023C6.59542 14.0457 5.14063 15.5005 5.14063 17.2953V26.4915H1.46875V17.2953C1.46875 15.5005 2.92355 14.0457 4.71836 14.0457Z" fill="#708DC8"/>
<path d="M92.5312 27.2255H1.46875C1.06301 27.2255 0.734375 26.8965 0.734375 26.4911V17.2953C0.734375 15.0984 2.52148 13.3113 4.71836 13.3113H89.2816C91.4785 13.3113 93.2656 15.0984 93.2656 17.2953V26.4915C93.2656 26.8969 92.9366 27.2255 92.5312 27.2255ZM2.20312 25.7567H91.7969V17.2953C91.7969 15.9084 90.6685 14.78 89.2816 14.78H4.71836C3.33149 14.78 2.20312 15.9084 2.20312 17.2953V25.7567Z" fill="#0079C8"/>
<path d="M9.4257 20.2684C9.4257 21.4518 8.46661 22.4109 7.28316 22.4109C6.09972 22.4109 5.14062 21.4518 5.14062 20.2684C5.14062 19.0849 6.09972 18.1259 7.28316 18.1259C8.46661 18.1259 9.4257 19.0849 9.4257 20.2684Z" fill="#00837B"/>
<path d="M7.28316 23.1453C5.69691 23.1453 4.40625 21.8546 4.40625 20.2684C4.40625 18.6821 5.69691 17.3915 7.28316 17.3915C8.86941 17.3915 10.1601 18.6821 10.1601 20.2684C10.1601 21.8546 8.86941 23.1453 7.28316 23.1453ZM7.28316 18.8602C6.50656 18.8602 5.875 19.4922 5.875 20.2684C5.875 21.045 6.50656 21.6766 7.28316 21.6766C8.05977 21.6766 8.69133 21.045 8.69133 20.2684C8.69133 19.4918 8.05977 18.8602 7.28316 18.8602Z" fill="#00335B"/>
<path d="M17.2319 20.2684C17.2319 21.4518 16.2724 22.4109 15.0893 22.4109C13.9062 22.4109 12.9468 21.4518 12.9468 20.2684C12.9468 19.0849 13.9059 18.1259 15.0893 18.1259C16.2728 18.1259 17.2319 19.0849 17.2319 20.2684Z" fill="#A7D59D"/>
<path d="M15.0893 23.1453C13.5031 23.1453 12.2124 21.8546 12.2124 20.2684C12.2124 18.6821 13.5031 17.3915 15.0893 17.3915C16.6756 17.3915 17.9662 18.6821 17.9662 20.2684C17.9662 21.8546 16.6756 23.1453 15.0893 23.1453ZM15.0893 18.8602C14.3127 18.8602 13.6812 19.4922 13.6812 20.2684C13.6812 21.045 14.3127 21.6766 15.0893 21.6766C15.8659 21.6766 16.4975 21.045 16.4975 20.2684C16.4975 19.4918 15.8656 18.8602 15.0893 18.8602Z" fill="#00335B"/>
<path d="M25.0375 20.2684C25.0375 21.4518 24.0784 22.4109 22.895 22.4109C21.7115 22.4109 20.7524 21.4518 20.7524 20.2684C20.7524 19.0849 21.7115 18.1259 22.895 18.1259C24.0784 18.1259 25.0375 19.0849 25.0375 20.2684Z" fill="#F4EFED"/>
<path d="M22.895 23.1453C21.3087 23.1453 20.0181 21.8546 20.0181 20.2684C20.0181 18.6821 21.3087 17.3915 22.895 17.3915C24.4812 17.3915 25.7719 18.6821 25.7719 20.2684C25.7719 21.8546 24.4816 23.1453 22.895 23.1453ZM22.895 18.8602C22.1184 18.8602 21.4868 19.4922 21.4868 20.2684C21.4868 21.045 22.1187 21.6766 22.895 21.6766C23.6716 21.6766 24.3031 21.045 24.3031 20.2684C24.3031 19.4918 23.6716 18.8602 22.895 18.8602Z" fill="#00335B"/>
<path d="M77.9304 53.4684H16.0703C15.6649 53.4684 15.3359 53.1397 15.3359 52.734V40.5316C15.3359 40.1262 15.6649 39.7972 16.0703 39.7972H77.9308C78.3361 39.7972 78.6651 40.1262 78.6651 40.5316V52.734C78.6648 53.1397 78.3361 53.4684 77.9304 53.4684ZM16.8047 51.9996H77.1964V41.266H16.8047V51.9996Z" fill="#00335B"/>
<path d="M29.7693 37.2953H16.0703C15.6649 37.2953 15.3359 36.9663 15.3359 36.5609C15.3359 36.1555 15.6649 35.8265 16.0703 35.8265H29.7693C30.1747 35.8265 30.5037 36.1555 30.5037 36.5609C30.5037 36.9663 30.1747 37.2953 29.7693 37.2953Z" fill="#00335B"/>
<path d="M52.8088 69.058H41.1918C38.8087 69.058 36.877 67.1262 36.877 64.7432C36.877 62.3601 38.8087 60.4283 41.1918 60.4283H52.8088C55.1919 60.4283 57.1237 62.3601 57.1237 64.7432C57.124 67.1262 55.1919 69.058 52.8088 69.058Z" fill="#DB3907"/>
<path d="M52.8086 69.7924H41.1912C38.4068 69.7924 36.1416 67.5272 36.1416 64.7432C36.1416 61.9592 38.4068 59.694 41.1912 59.694H52.8086C55.593 59.694 57.8578 61.9592 57.8578 64.7432C57.8582 67.5272 55.593 69.7924 52.8086 69.7924ZM41.1915 61.1627C39.2172 61.1627 37.6107 62.7688 37.6107 64.7432C37.6107 66.7175 39.2168 68.3236 41.1915 68.3236H52.809C54.7834 68.3236 56.3894 66.7175 56.3894 64.7432C56.3894 62.7688 54.7834 61.1627 52.809 61.1627H41.1915Z" fill="#00335B"/>
<path d="M74.1729 75.9689C82.4006 75.9689 89.0705 69.299 89.0705 61.0714C89.0705 52.8437 82.4006 46.1738 74.1729 46.1738C65.9452 46.1738 59.2754 52.8437 59.2754 61.0714C59.2754 69.299 65.9452 75.9689 74.1729 75.9689Z" fill="#DB3907"/>
<path d="M74.1729 46.1738C73.6816 46.1738 73.1966 46.1992 72.7178 46.2454C80.2624 46.9772 86.1601 53.3347 86.1601 61.0714C86.1601 68.808 80.2624 75.1659 72.7178 75.8973C73.1966 75.9439 73.682 75.9689 74.1729 75.9689C82.4009 75.9689 89.0705 69.2989 89.0705 61.0714C89.0705 52.8438 82.4005 46.1738 74.1729 46.1738Z" fill="#AB2D06"/>
<path d="M74.1729 75.9689C74.6642 75.9689 75.1493 75.9436 75.6281 75.8973C68.0835 75.1655 62.1857 68.808 62.1857 61.0714C62.1857 53.3347 68.0835 46.9772 75.6281 46.2454C75.1493 46.1988 74.6639 46.1738 74.1729 46.1738C65.945 46.1738 59.2754 52.8438 59.2754 61.0714C59.2754 69.2989 65.9454 75.9689 74.1729 75.9689Z" fill="#E67C5B"/>
<path d="M74.1729 76.7036C65.5532 76.7036 58.541 69.6911 58.541 61.0717C58.541 52.4524 65.5536 45.4395 74.1729 45.4395C82.7926 45.4395 89.8052 52.452 89.8052 61.0717C89.8052 69.6915 82.7926 76.7036 74.1729 76.7036ZM74.1729 46.9078C66.3632 46.9078 60.0098 53.2617 60.0098 61.0714C60.0098 68.8811 66.3632 75.2345 74.1729 75.2345C81.9826 75.2345 88.3364 68.8811 88.3364 61.0714C88.3364 53.2617 81.9826 46.9078 74.1729 46.9078Z" fill="#00335B"/>
<path d="M82.3536 55.2036L82.7071 54.85L82.3536 54.4964L80.5036 52.6464L80.15 52.2929L79.7964 52.6464L74.5 57.9429L69.2036 52.6464L68.85 52.2929L68.4964 52.6464L66.6464 54.4964L66.2929 54.85L66.6464 55.2036L71.9429 60.5L66.6464 65.7964L66.2929 66.15L66.6464 66.5036L68.4964 68.3536L68.8497 68.7068L69.2032 68.3539L74.5 63.0665L79.7968 68.3539L80.1503 68.7068L80.5036 68.3536L82.3536 66.5036L82.7071 66.15L82.3536 65.7964L77.0571 60.5L82.3536 55.2036Z" fill="white" stroke="#00335B"/>
</svg>
