<svg width="48" height="48" viewBox="0 0 48 48" fill="none" xmlns="http://www.w3.org/2000/svg">
<path d="M38.1977 21.5629C38.008 21.2812 37.6503 21.1471 37.3228 21.2384C36.9885 21.3315 36.7481 21.638 36.7391 21.9855C36.7206 22.6982 37.6205 23.0685 38.1102 22.5555C38.3644 22.2892 38.4024 21.8701 38.1977 21.5629Z" fill="#00335B"/>
<path d="M38.3789 6.38945C38.3789 5.07191 37.307 4 35.9895 4H11.3898C10.0723 4 9.00035 5.07191 9.00035 6.38945V35.7976C9.00035 36.4358 9.24893 37.0359 9.70022 37.4872L15.5132 43.3001C15.9646 43.7514 16.5645 44 17.2028 44H35.9895C37.307 44 38.3789 42.9281 38.3789 41.6105V25.1957C38.3789 24.173 36.786 24.1715 36.786 25.1957V41.6105C36.786 42.0497 36.4287 42.407 35.9895 42.407H17.4424V37.9132C17.4424 36.5957 16.3705 35.5237 15.053 35.5237H10.5933V17.9221H36.786V18.7604C36.786 19.7831 38.3789 19.7846 38.3789 18.7604V6.38945ZM15.8495 37.9132V41.3836L11.5825 37.1167H15.053C15.4922 37.1167 15.8495 37.474 15.8495 37.9132ZM10.5933 16.3292V6.38945C10.5933 5.95027 10.9506 5.59297 11.3898 5.59297H35.9895C36.4287 5.59297 36.786 5.95027 36.786 6.38945V16.3292H10.5933Z" fill="#00335B"/>
<path d="M19.0917 7.82857C18.6267 7.43312 18.0057 7.23535 17.2288 7.23535H15.3867C15.105 7.23535 14.6791 7.37251 14.6791 7.72447V14.3537C14.6791 14.7057 15.1049 14.8428 15.3867 14.8428H17.2288C18.0057 14.8428 18.6267 14.6451 19.0917 14.2496C19.5564 13.8541 19.789 13.2333 19.789 12.3868V9.69146C19.789 8.84504 19.5564 8.22402 19.0917 7.82857ZM18.1654 12.3868C18.1654 13.0807 17.8532 13.4275 17.2288 13.4275H16.3026V8.65078H17.2288C17.8532 8.65078 18.1654 8.99773 18.1654 9.69146V12.3868Z" fill="#00335B"/>
<path d="M25.668 7.82808C24.7036 7.00771 22.9165 7.00795 21.9527 7.82808C21.4878 8.22354 21.2554 8.84456 21.2554 9.6909V12.4487C21.2554 13.2953 21.4878 13.9161 21.9527 14.3116C22.9169 15.1321 24.7039 15.1316 25.668 14.3116C26.1327 13.9162 26.3653 13.2953 26.3653 12.4487V9.69098C26.3653 8.84456 26.1327 8.22354 25.668 7.82808ZM24.7418 12.4488C24.7418 13.813 22.8789 13.8179 22.8789 12.4488V9.69098C22.8789 8.32381 24.7418 8.32517 24.7418 9.69098V12.4488Z" fill="#00335B"/>
<path d="M30.4032 8.65019C30.9998 8.65019 31.3086 8.96233 31.3294 9.58677C31.3821 10.4125 32.953 10.2076 32.953 9.30578C32.953 8.66054 32.7084 8.15422 32.2192 7.78632C31.2212 7.03612 29.4994 7.00131 28.5352 7.82798C28.0737 8.22343 27.8431 8.84445 27.8431 9.6908V12.4486C27.8431 13.2952 28.0738 13.916 28.5352 14.3115C29.5054 15.1432 31.2333 15.1054 32.2192 14.3219C32.7084 13.9334 32.953 13.4026 32.953 12.7296C32.953 12.4314 32.8905 12.2285 32.7655 12.1208C32.4102 11.8149 31.3793 11.8603 31.3294 12.4486C31.2009 13.7936 29.4666 13.8252 29.4666 12.4486V9.69088C29.4666 8.99714 29.7788 8.65019 30.4032 8.65019Z" fill="#00335B"/>
<path d="M16.2865 23.8469H20.7922C21.8149 23.8469 21.8164 22.2539 20.7922 22.2539H16.2865C15.2638 22.2539 15.2623 23.8469 16.2865 23.8469Z" fill="#00335B"/>
<path d="M31.0673 35.5381H26.5615C25.5389 35.5381 25.5374 37.1311 26.5615 37.1311H31.0673C32.09 37.1311 32.0915 35.5381 31.0673 35.5381Z" fill="#00335B"/>
<path d="M31.1284 25.5742H16.2857C15.263 25.5742 15.2615 27.1672 16.2857 27.1672H31.1284C32.1511 27.1672 32.1526 25.5742 31.1284 25.5742Z" fill="#00335B"/>
<path d="M31.1284 28.8955H16.2857C15.263 28.8955 15.2615 30.4885 16.2857 30.4885H31.1284C32.1511 30.4885 32.1526 28.8955 31.1284 28.8955Z" fill="#00335B"/>
<path d="M31.1284 32.2158H16.2857C15.263 32.2158 15.2615 33.8088 16.2857 33.8088H31.1284C32.1511 33.8088 32.1526 32.2158 31.1284 32.2158Z" fill="#00335B"/>
</svg>
