<svg width="685" height="514" viewBox="0 0 685 514" fill="none" xmlns="http://www.w3.org/2000/svg">
<rect x="58" y="379" width="45" height="42" fill="#C6007E"/>
<rect y="8" width="382" height="351" fill="#BCE4FF"/>
<rect x="491" y="359" width="169" height="155" fill="#049CFF"/>
<rect x="491" y="359" width="169" height="155" fill="#049CFF"/>
<rect x="491" y="359" width="169" height="155" fill="#049CFF"/>
<rect x="491" y="359" width="169" height="155" fill="#049CFF"/>
<rect x="502" width="87" height="80" fill="#A7D59D"/>
<path d="M540.241 468.119H340.367V469.522H540.241V468.119Z" fill="white"/>
<path d="M578.943 478.811H491.977V480.214H578.943V478.811Z" fill="white"/>
<path d="M465.224 478.811H306.154V480.214H465.224V478.811Z" fill="white"/>
<path d="M210.098 478.811H186.471V480.214H210.098V478.811Z" fill="white"/>
<path d="M224.219 478.811H217.082V480.214H224.219V478.811Z" fill="white"/>
<path d="M605.183 468.283H564.539V469.686H605.183V468.283Z" fill="white"/>
<path d="M324.38 468.119H262.766V469.522H324.38V468.119Z" fill="white"/>
<path d="M249.541 468.121H141.793V469.524H249.541V468.121Z" fill="white"/>
<path d="M128.95 468.119H110.125V469.522H128.95V468.119Z" fill="white"/>
<path d="M512.47 125.5H254.816V457.589H512.47V125.5Z" fill="#F1EFEB"/>
<path d="M512.47 332.713V457.588H254.816V372.879L512.47 332.713Z" fill="#C9C9C9"/>
<path d="M498.443 443.559L498.443 139.533L268.842 139.533L268.842 443.559L498.443 443.559Z" fill="white"/>
<path d="M453.031 223.048L436.723 209.585L441.189 204.169L451.986 213.093L474.639 184.566L480.129 188.93L453.031 223.048Z" fill="#00837B"/>
<mask id="path-18-inside-1" fill="white">
<path d="M400.154 205.363H421.419H400.154Z"/>
</mask>
<path d="M400.154 205.363H421.419H400.154Z" fill="white"/>
<path d="M400.154 206.363H421.419V204.363H400.154V206.363ZM421.419 204.363H400.154V206.363H421.419V204.363Z" fill="#00335B" mask="url(#path-18-inside-1)"/>
<path d="M400.654 205.563V205.16H420.919V205.563H400.654Z" fill="#40327A" stroke="#00335B"/>
<mask id="path-21-inside-2" fill="white">
<path d="M328.521 205.363H392.204H328.521Z"/>
</mask>
<path d="M328.521 205.363H392.204H328.521Z" fill="white"/>
<path d="M328.521 206.363H392.204V204.363H328.521V206.363ZM392.204 204.363H328.521V206.363H392.204V204.363Z" fill="#00335B" mask="url(#path-21-inside-2)"/>
<path d="M329.021 205.563V205.16H391.704V205.563H329.021Z" fill="#40327A" stroke="#00335B"/>
<mask id="path-24-inside-3" fill="white">
<path d="M370.723 215.646H421.42H370.723Z"/>
</mask>
<path d="M370.723 215.646H421.42H370.723Z" fill="white"/>
<path d="M370.723 216.646H421.42V214.646H370.723V216.646ZM421.42 214.646H370.723V216.646H421.42V214.646Z" fill="#00335B" mask="url(#path-24-inside-3)"/>
<path d="M371.223 215.848V215.445H420.92V215.848H371.223Z" fill="#40327A" stroke="#00335B"/>
<mask id="path-27-inside-4" fill="white">
<path d="M364.633 215.646H367.563H364.633Z"/>
</mask>
<path d="M364.633 215.646H367.563H364.633Z" fill="white"/>
<path d="M364.633 216.646H367.563V214.646H364.633V216.646ZM367.563 214.646H364.633V216.646H367.563V214.646Z" fill="#00335B" mask="url(#path-27-inside-4)"/>
<path d="M365.133 215.848V215.445H367.063V215.848H365.133Z" fill="#40327A" stroke="#00335B"/>
<mask id="path-30-inside-5" fill="white">
<path d="M299.664 215.645H357.387H299.664Z"/>
</mask>
<path d="M299.664 215.645H357.387H299.664Z" fill="white"/>
<path d="M299.664 216.645H357.387V214.645H299.664V216.645ZM357.387 214.645H299.664V216.645H357.387V214.645Z" fill="#00335B" mask="url(#path-30-inside-5)"/>
<path d="M300.164 215.847V215.443H356.887V215.847H300.164Z" fill="#40327A" stroke="#00335B"/>
<mask id="path-33-inside-6" fill="white">
<path d="M299.664 225.934H382.164H299.664Z"/>
</mask>
<path d="M299.664 225.934H382.164H299.664Z" fill="white"/>
<path d="M299.664 226.934H382.164V224.934H299.664V226.934ZM382.164 224.934H299.664V226.934H382.164V224.934Z" fill="#00335B" mask="url(#path-33-inside-6)"/>
<path d="M300.164 226.136V225.732H381.664V226.136H300.164Z" fill="#40327A" stroke="#00335B"/>
<path d="M453.031 276.804L436.723 263.334L441.189 257.925L451.986 266.842L474.639 238.322L480.129 242.686L453.031 276.804Z" fill="#00837B"/>
<mask id="path-37-inside-7" fill="white">
<path d="M328.521 259.119H421.419H328.521Z"/>
</mask>
<path d="M328.521 259.119H421.419H328.521Z" fill="white"/>
<path d="M328.521 260.119H421.419V258.119H328.521V260.119ZM421.419 258.119H328.521V260.119H421.419V258.119Z" fill="#00335B" mask="url(#path-37-inside-7)"/>
<path d="M329.021 259.319V258.916H420.919V259.319H329.021Z" fill="#40327A" stroke="#00335B"/>
<mask id="path-40-inside-8" fill="white">
<path d="M299.664 259.117H321.279H299.664Z"/>
</mask>
<path d="M299.664 259.117H321.279H299.664Z" fill="white"/>
<path d="M299.664 260.117H321.279V258.117H299.664V260.117ZM321.279 258.117H299.664V260.117H321.279V258.117Z" fill="#00335B" mask="url(#path-40-inside-8)"/>
<path d="M300.164 259.319V258.916H320.779V259.319H300.164Z" fill="#40327A" stroke="#00335B"/>
<mask id="path-43-inside-9" fill="white">
<path d="M299.664 269.402H412.193H299.664Z"/>
</mask>
<path d="M299.664 269.402H412.193H299.664Z" fill="white"/>
<path d="M299.664 270.402H412.193V268.402H299.664V270.402ZM412.193 268.402H299.664V270.402H412.193V268.402Z" fill="#00335B" mask="url(#path-43-inside-9)"/>
<path d="M300.164 269.604V269.201H411.693V269.604H300.164Z" fill="#40327A" stroke="#00335B"/>
<mask id="path-46-inside-10" fill="white">
<path d="M340.57 279.689H342.898H340.57Z"/>
</mask>
<path d="M340.57 279.689H342.898H340.57Z" fill="white"/>
<path d="M340.57 280.689H342.898V278.689H340.57V280.689ZM342.898 278.689H340.57V280.689H342.898V278.689Z" fill="#00335B" mask="url(#path-46-inside-10)"/>
<path d="M341.07 279.891V279.488H342.398V279.891H341.07Z" fill="#40327A" stroke="#00335B"/>
<mask id="path-49-inside-11" fill="white">
<path d="M299.664 279.688H336.248H299.664Z"/>
</mask>
<path d="M299.664 279.688H336.248H299.664Z" fill="white"/>
<path d="M299.664 280.688H336.248V278.688H299.664V280.688ZM336.248 278.688H299.664V280.688H336.248V278.688Z" fill="#00335B" mask="url(#path-49-inside-11)"/>
<path d="M300.164 279.89V279.486H335.748V279.89H300.164Z" fill="#40327A" stroke="#00335B"/>
<path d="M453.031 330.558L436.723 317.088L441.189 311.679L451.986 320.596L474.639 292.076L480.129 296.44L453.031 330.558Z" fill="#00837B"/>
<mask id="path-53-inside-12" fill="white">
<path d="M299.66 312.873H421.423H299.66Z"/>
</mask>
<path d="M299.66 312.873H421.423H299.66Z" fill="white"/>
<path d="M299.66 313.873H421.423V311.873H299.66V313.873ZM421.423 311.873H299.66V313.873H421.423V311.873Z" fill="#00335B" mask="url(#path-53-inside-12)"/>
<path d="M300.16 313.067V312.664H420.923V313.067H300.16Z" fill="#40327A" stroke="#00335B"/>
<mask id="path-56-inside-13" fill="white">
<path d="M383.637 323.158H421.413H383.637Z"/>
</mask>
<path d="M383.637 323.158H421.413H383.637Z" fill="white"/>
<path d="M383.637 324.158H421.413V322.158H383.637V324.158ZM421.413 322.158H383.637V324.158H421.413V322.158Z" fill="#00335B" mask="url(#path-56-inside-13)"/>
<path d="M384.137 323.36V322.957H420.913V323.36H384.137Z" fill="#40327A" stroke="#00335B"/>
<mask id="path-59-inside-14" fill="white">
<path d="M299.66 323.158H374.911H299.66Z"/>
</mask>
<path d="M299.66 323.158H374.911H299.66Z" fill="white"/>
<path d="M299.66 324.158H374.911V322.158H299.66V324.158ZM374.911 322.158H299.66V324.158H374.911V322.158Z" fill="#00335B" mask="url(#path-59-inside-14)"/>
<path d="M300.16 323.36V322.957H374.411V323.36H300.16Z" fill="#40327A" stroke="#00335B"/>
<mask id="path-62-inside-15" fill="white">
<path d="M299.66 333.441H404.127H299.66Z"/>
</mask>
<path d="M299.66 333.441H404.127H299.66Z" fill="white"/>
<path d="M299.66 334.441H404.127V332.441H299.66V334.441ZM404.127 332.441H299.66V334.441H404.127V332.441Z" fill="#00335B" mask="url(#path-62-inside-15)"/>
<path d="M300.16 333.643V333.24H403.627V333.643H300.16Z" fill="#40327A" stroke="#00335B"/>
<path d="M447.949 225.933H443.434V218.412L447.949 225.933Z" fill="white"/>
<path d="M447.949 226.635H442.732V218.412H444.135V225.232H447.949V226.635Z" fill="#00335B"/>
<path d="M472.176 226.634H451.297V225.231H470.774V203.84H472.176V226.634Z" fill="#00335B"/>
<path d="M462.495 197.168H460.434V198.571H462.495V197.168Z" fill="#00335B"/>
<path d="M443.434 201.042V197.871H457.94L443.434 201.042Z" fill="white"/>
<path d="M444.135 201.041H442.732V197.168H457.94V198.571H444.135V201.041Z" fill="#00335B"/>
<path d="M455.918 280.391H442.73V276.596H444.133V278.988H455.918V280.391Z" fill="#00335B"/>
<path d="M472.181 280.39H458.523V278.987H470.779V263.061H472.181V280.39Z" fill="#00335B"/>
<path d="M472.178 257.271H470.775V259.811H472.178V257.271Z" fill="#00335B"/>
<path d="M444.133 273.927H442.73V250.922H462.93V252.325H444.133V273.927Z" fill="#00335B"/>
<path d="M472.177 334.146H442.73V320.557H444.133V332.743H470.775V327.86H472.177V334.146Z" fill="#00335B"/>
<path d="M472.178 325.523H470.775V327.86H472.178V325.523Z" fill="#00335B"/>
<path d="M472.178 313.568H470.775V322.422H472.178V313.568Z" fill="#00335B"/>
<path d="M472.178 311.82H470.775V313.574H472.178V311.82Z" fill="#00335B"/>
<path d="M461.268 304.678H459.221V306.081H461.268V304.678Z" fill="#00335B"/>
<path d="M444.133 310.29H442.73V304.678H456.83V306.081H444.133V310.29Z" fill="#00335B"/>
<path d="M444.133 377.855H442.73V379.778H444.133V377.855Z" fill="#00335B"/>
<path d="M472.177 387.901H442.73V382.471H444.133V386.498H470.775V383.025H472.177V387.901Z" fill="#00335B"/>
<path d="M472.178 364.166H470.775V379.776H472.178V364.166Z" fill="#00335B"/>
<path d="M453.031 384.31L436.723 370.847L441.189 365.438L451.986 374.355L474.639 345.828L480.129 350.199L453.031 384.31Z" fill="#00837B"/>
<mask id="path-85-inside-16" fill="white">
<path d="M299.664 366.623H412.193H299.664Z"/>
</mask>
<path d="M299.664 366.623H412.193H299.664Z" fill="white"/>
<path d="M299.664 367.623H412.193V365.623H299.664V367.623ZM412.193 365.623H299.664V367.623H412.193V365.623Z" fill="#00335B" mask="url(#path-85-inside-16)"/>
<path d="M300.164 366.825V366.422H411.693V366.825H300.164Z" fill="#40327A" stroke="#00335B"/>
<mask id="path-88-inside-17" fill="white">
<path d="M332.656 376.912H421.418H332.656Z"/>
</mask>
<path d="M332.656 376.912H421.418H332.656Z" fill="white"/>
<path d="M332.656 377.912H421.418V375.912H332.656V377.912ZM421.418 375.912H332.656V377.912H421.418V375.912Z" fill="#00335B" mask="url(#path-88-inside-17)"/>
<path d="M333.156 377.114V376.711H420.918V377.114H333.156Z" fill="#40327A" stroke="#00335B"/>
<mask id="path-91-inside-18" fill="white">
<path d="M324.201 376.912H326.606H324.201Z"/>
</mask>
<path d="M324.201 376.912H326.606H324.201Z" fill="white"/>
<path d="M324.201 377.912H326.606V375.912H324.201V377.912ZM326.606 375.912H324.201V377.912H326.606V375.912Z" fill="#00335B" mask="url(#path-91-inside-18)"/>
<path d="M324.701 377.114V376.711H326.106V377.114H324.701Z" fill="#40327A" stroke="#00335B"/>
<mask id="path-94-inside-19" fill="white">
<path d="M299.664 376.912H316.021H299.664Z"/>
</mask>
<path d="M299.664 376.912H316.021H299.664Z" fill="white"/>
<path d="M299.664 377.912H316.021V375.912H299.664V377.912ZM316.021 375.912H299.664V377.912H316.021V375.912Z" fill="#00335B" mask="url(#path-94-inside-19)"/>
<path d="M300.164 377.114V376.711H315.521V377.114H300.164Z" fill="#40327A" stroke="#00335B"/>
<mask id="path-97-inside-20" fill="white">
<path d="M299.664 387.199H342.902H299.664Z"/>
</mask>
<path d="M299.664 387.199H342.902H299.664Z" fill="white"/>
<path d="M299.664 388.199H342.902V386.199H299.664V388.199ZM342.902 386.199H299.664V388.199H342.902V386.199Z" fill="#00335B" mask="url(#path-97-inside-20)"/>
<path d="M300.164 387.401V386.998H342.402V387.401H300.164Z" fill="#40327A" stroke="#00335B"/>
<path d="M498.441 442.855H268.84V444.259H498.441V442.855Z" fill="#00335B"/>
<path d="M320.547 125.502V160.581H446.748V125.502H408.004L398.041 103.998H369.26L359.298 125.502H320.547Z" fill="#808080"/>
<path d="M320.547 125.502V151.075L446.748 131.402V125.502H408.004L398.041 103.998H369.26L359.298 125.502H320.547Z" fill="#C9C9C9"/>
<path d="M684.299 457.59H64.7363V458.993H684.299V457.59Z" fill="white"/>
<path d="M546.316 227.98C544.254 237.543 540.798 246.748 538.042 256.128C535.203 265.789 532.335 275.611 532.37 285.679C532.412 298.77 537.608 311.785 546.589 321.305C550.109 325.038 554.217 328.3 556.93 332.65C559.644 337.007 560.639 342.984 557.61 347.124C553.243 353.094 543.897 351.803 537.51 355.536C529.468 360.236 528.346 372.212 532.931 380.323C537.516 388.433 558.403 411.642 588.2 405.896C601.535 403.321 619.617 390.622 619.098 377.039C618.559 362.895 605.069 351.445 605.525 337.294C605.826 328.026 612.052 320.197 617.444 312.655C622.835 305.113 627.855 295.922 625.373 286.991C621.721 273.843 604.796 269.781 596.6 258.871C591.32 251.848 590.163 242.608 589.834 233.824C589.504 225.04 589.729 216.039 586.805 207.753C579.703 187.66 554.491 190.052 546.316 227.98Z" fill="#A7D59D"/>
<path d="M578.336 278.516H576.934V430.936H578.336V278.516Z" fill="#00335B"/>
<path d="M578.332 322.556L576.951 322.332C579.216 308.546 594.893 299.965 595.559 299.607L596.225 300.842C596.057 300.926 580.485 309.458 578.332 322.556Z" fill="#40327A"/>
<path d="M576.94 382.574C575.411 373.264 564.306 367.181 564.193 367.118L564.859 365.883C565.343 366.142 576.68 372.344 578.328 382.349L576.94 382.574Z" fill="#00335B"/>
<path d="M585.408 457.59H569.626C560.042 457.59 552.273 449.817 552.273 440.226V425.668H602.754V440.226C602.761 449.817 594.992 457.59 585.408 457.59Z" fill="#FFC359"/>
<path d="M561.238 456.23C555.278 453.094 551.576 446.962 551.576 440.234V434.881H552.978V440.234C552.978 446.443 556.393 452.098 561.89 454.988L561.238 456.23Z" fill="#00335B"/>
<path d="M602.758 430.234H552.277V431.638H602.758V430.234Z" fill="white"/>
<path d="M602.751 424.973H570.598V426.376H602.751V424.973Z" fill="#00335B"/>
<path d="M614.336 457.588H578.145V458.991H614.336V457.588Z" fill="#00335B"/>
<path d="M180.845 457.59H115.922V458.993H180.845V457.59Z" fill="#00335B"/>
<path d="M412.19 457.59H405.6V458.993H412.19V457.59Z" fill="#00335B"/>
<path d="M397.427 457.59H196.684V458.993H397.427V457.59Z" fill="#00335B"/>
<path d="M531.212 457.59H434.928V458.993H531.212V457.59Z" fill="#00335B"/>
<path d="M105.749 457.59H100.666V458.993H105.749V457.59Z" fill="#00335B"/>
<path d="M635.443 457.59H621.771V458.993H635.443V457.59Z" fill="#00335B"/>
<path d="M513.174 414.449H511.771V447.305H513.174V414.449Z" fill="#00335B"/>
<path d="M513.174 263.061H511.771V399.484H513.174V263.061Z" fill="#00335B"/>
<path d="M255.517 356.688H254.115V398.663H255.517V356.688Z" fill="#00335B"/>
<path d="M255.517 347.154H254.115V350.024H255.517V347.154Z" fill="#7760DB"/>
<path d="M255.517 309.92H254.115V343.708H255.517V309.92Z" fill="#7760DB"/>
<path d="M447.446 161.281H380.461V159.878H446.043V125.5H447.446V161.281Z" fill="#00335B"/>
<path d="M372.835 159.879H331.918V161.282H372.835V159.879Z" fill="#00335B"/>
<path d="M513.172 179.747H511.77V126.202H491.473V124.799H513.172V179.747Z" fill="#00335B"/>
<path d="M485.402 124.799H475.348V126.202H485.402V124.799Z" fill="#00335B"/>
<path d="M389.563 117.701C390.093 114.434 387.876 111.357 384.612 110.827C381.348 110.297 378.272 112.515 377.742 115.781C377.213 119.047 379.429 122.125 382.694 122.655C385.958 123.185 389.033 120.967 389.563 117.701Z" fill="#0079C8"/>
<path d="M390.026 118.763L388.687 118.342C388.848 117.822 388.933 117.289 388.933 116.742C388.933 113.823 386.563 111.452 383.646 111.452C381.62 111.452 379.797 112.582 378.9 114.406L377.645 113.788C378.78 111.48 381.08 110.049 383.646 110.049C387.334 110.049 390.335 113.052 390.335 116.742C390.335 117.43 390.23 118.11 390.026 118.763Z" fill="#00335B"/>
<path d="M383.644 123.437C379.956 123.437 376.955 120.434 376.955 116.744V116.555L378.357 116.59V116.744C378.357 119.663 380.727 122.034 383.644 122.034C384.198 122.034 384.744 121.95 385.263 121.782L385.691 123.115C385.032 123.332 384.345 123.437 383.644 123.437Z" fill="#00335B"/>
<path d="M444.133 369.317H442.73V358.436H460.244V359.839H444.133V369.317Z" fill="#00335B"/>
<path d="M45.31 297.672C41.8325 297.672 39 294.837 39 291.357C39 287.877 41.8325 285.043 45.31 285.043C48.7876 285.043 51.6201 287.877 51.6201 291.357C51.6201 294.844 48.7876 297.672 45.31 297.672ZM45.31 286.446C42.6037 286.446 40.4022 288.649 40.4022 291.357C40.4022 294.065 42.6037 296.268 45.31 296.268C48.0164 296.268 50.2179 294.065 50.2179 291.357C50.2179 288.656 48.0164 286.446 45.31 286.446Z" fill="#A7D59D"/>
<path d="M611.287 127.824H609.885V133.837H611.287V127.824Z" fill="white"/>
<path d="M611.287 163.906H609.885V169.919H611.287V163.906Z" fill="white"/>
<path d="M600.666 130.293L599.451 130.994L602.455 136.201L603.67 135.499L600.666 130.293Z" fill="white"/>
<path d="M618.742 161.513L617.527 162.215L620.532 167.422L621.746 166.721L618.742 161.513Z" fill="white"/>
<path d="M592.707 137.744L592.006 138.959L597.209 141.965L597.91 140.75L592.707 137.744Z" fill="white"/>
<path d="M623.967 155.81L623.266 157.025L628.469 160.032L629.17 158.817L623.967 155.81Z" fill="white"/>
<path d="M595.559 148.17H589.551V149.573H595.559V148.17Z" fill="white"/>
<path d="M631.616 148.17H625.607V149.573H631.616V148.17Z" fill="white"/>
<path d="M597.237 155.799L592.033 158.805L592.734 160.02L597.938 157.014L597.237 155.799Z" fill="white"/>
<path d="M628.46 137.742L623.256 140.748L623.957 141.963L629.161 138.958L628.46 137.742Z" fill="white"/>
<path d="M602.455 161.523L599.451 166.73L600.666 167.432L603.669 162.224L602.455 161.523Z" fill="white"/>
<path d="M620.486 130.273L617.482 135.48L618.697 136.182L621.701 130.974L620.486 130.273Z" fill="white"/>
<path d="M295.993 96.0476H294.591C294.591 90.6314 290.188 86.2254 284.775 86.2254V84.8222C290.188 84.8222 294.591 80.4163 294.591 75H295.993C295.993 80.4163 300.396 84.8222 305.809 84.8222V86.2254C300.396 86.2254 295.993 90.6314 295.993 96.0476ZM288.681 85.5238C291.73 86.6604 294.156 89.0879 295.292 92.1398C296.428 89.0879 298.854 86.6604 301.904 85.5238C298.854 84.3872 296.428 81.9597 295.292 78.9078C294.156 81.9597 291.723 84.3872 288.681 85.5238Z" fill="white"/>
<path d="M321.248 125.5H319.846V161.821H321.248V125.5Z" fill="white"/>
<path d="M229.152 185.31L236.879 183.984L246.617 224.571L233.59 226.816L229.152 185.31Z" fill="#A7D59D"/>
<path d="M288.64 191.164L102.926 238.434L105.513 248.612L291.228 201.342L288.64 191.164Z" fill="#FF9D45"/>
<path d="M286.056 180.986L100.342 228.256L102.929 238.434L288.644 191.164L286.056 180.986Z" fill="#FFC359"/>
<path d="M283.47 170.804L97.7559 218.074L100.343 228.252L286.058 180.982L283.47 170.804Z" fill="#FFC359"/>
<path d="M82.4988 221.959L67.2383 225.844L75.0016 256.385L90.2621 252.501L82.4988 221.959Z" fill="#FF809F"/>
<path d="M97.7527 218.077L82.4922 221.961L90.2555 252.502L105.516 248.618L97.7527 218.077Z" fill="#EEEBFF"/>
<path d="M334.868 173.981L283.477 170.803L291.245 201.343L334.868 173.981Z" fill="#EEEBFF"/>
<path d="M319.439 183.664L291.24 201.351L288.66 191.164L318.528 180.064L319.439 183.664Z" fill="#DDD6FF"/>
<path d="M334.879 173.982L319.441 183.664L318.529 180.065L334.879 173.982Z" fill="#18542C"/>
<path d="M334.874 173.983L318.524 180.066L316.688 172.854L334.874 173.983Z" fill="#00837B"/>
<path d="M102.925 238.432L87.6641 242.316L90.2512 252.495L105.512 248.61L102.925 238.432Z" fill="#DDD6FF"/>
<path d="M87.6687 242.321L72.4082 246.205L74.9954 256.383L90.2559 252.499L87.6687 242.321Z" fill="#E5659B"/>
<path d="M282.235 202.772L136.744 239.834L137.09 241.194L282.581 204.132L282.235 202.772Z" fill="#00335B"/>
<path d="M128.529 242.042L98.9453 249.578L99.2912 250.938L128.875 243.402L128.529 242.042Z" fill="#00335B"/>
<path d="M74.499 257.243L69.1074 236.027L70.4606 235.684L75.5086 255.532L96.3458 250.235L96.6893 251.589L74.499 257.243Z" fill="#00335B"/>
<path d="M67.9973 231.695L66.3848 225.338L82.3281 221.283L82.6717 222.644L68.0885 226.356L69.3575 231.351L67.9973 231.695Z" fill="#00335B"/>
<path d="M98.437 217.904L97.0781 218.25L103.775 244.596L105.134 244.251L98.437 217.904Z" fill="white"/>
<path d="M87.6148 239.25L86.2559 239.596L86.9921 242.492L88.351 242.146L87.6148 239.25Z" fill="white"/>
<path d="M84.9663 228.797L83.6074 229.143L85.6044 236.996L86.9633 236.649L84.9663 228.797Z" fill="white"/>
<path d="M284.158 170.631L282.799 170.977L287.977 191.34L289.336 190.994L284.158 170.631Z" fill="white"/>
<path d="M152.612 259.946C154.807 256.978 157.008 254.074 157.085 249.717C157.282 238.982 152.507 238.477 153.138 227.75C153.769 217.023 161.72 217.591 162.351 206.864C162.435 205.482 162.33 204.261 162.084 203.166C161.278 201.742 160.591 200.241 160.051 198.676C159.953 198.403 159.862 198.122 159.777 197.848C158.908 195.077 158.466 192.116 158.522 189.057C158.803 173.805 171.395 161.667 186.637 161.948C201.887 162.229 214.023 174.829 213.735 190.082C213.679 193.141 213.132 196.08 212.158 198.817C212.067 199.083 211.962 199.35 211.863 199.616C211.856 199.623 211.856 199.623 211.856 199.623C211.253 201.174 210.51 202.661 209.648 204.057C209.374 205.138 209.22 206.345 209.255 207.727C209.487 218.468 217.444 218.194 217.676 228.943C217.907 239.684 213.111 240.014 212.915 250.748C212.831 255.105 214.92 258.087 217.017 261.132C219.092 264.19 221.174 267.32 221.09 271.957C220.845 285.259 209.872 295.832 196.579 295.587L171.746 295.123C158.452 294.878 147.894 283.898 148.139 270.596C148.223 265.98 150.425 262.928 152.612 259.946Z" fill="#00335B"/>
<path d="M208.081 293.625C214.008 286.844 213.32 276.539 206.543 270.608C199.767 264.676 189.469 265.365 183.541 272.146C177.614 278.927 178.302 289.232 185.078 295.164C191.855 301.095 202.153 300.406 208.081 293.625Z" fill="#FFC7BD"/>
<path d="M208.784 236.924C212.099 233.133 211.714 227.371 207.925 224.054C204.136 220.738 198.378 221.123 195.063 224.914C191.749 228.706 192.134 234.468 195.923 237.784C199.712 241.101 205.47 240.716 208.784 236.924Z" fill="#FF95A9"/>
<path d="M238.629 219.673C242.184 218.817 245.76 221.013 246.615 224.57C247.471 228.127 245.276 231.706 241.721 232.561C238.167 233.417 234.591 231.221 233.736 227.664C232.88 224.107 235.075 220.529 238.629 219.673Z" fill="#A7D59D"/>
<path d="M201.377 221.807L239.784 219.506L241.418 232.633L203.628 239.873L201.377 221.807Z" fill="#A7D59D"/>
<path d="M149.34 455.837C151.857 455.837 153.898 453.796 153.898 451.277C153.898 448.759 151.857 446.717 149.34 446.717C146.824 446.717 144.783 448.759 144.783 451.277C144.783 453.796 146.824 455.837 149.34 455.837Z" fill="#FF95A9"/>
<path d="M201.235 455.837C203.752 455.837 205.792 453.796 205.792 451.277C205.792 448.759 203.752 446.717 201.235 446.717C198.718 446.717 196.678 448.759 196.678 451.277C196.678 453.796 198.718 455.837 201.235 455.837Z" fill="#8B77E8"/>
<path d="M211.025 230.726L212.069 281.787L179.538 283.962L162.522 231.399C161.393 227.919 163.84 224.313 167.485 224.068L201.3 221.809C206.489 221.472 210.913 225.527 211.025 230.726Z" fill="#A7D59D"/>
<path d="M203.91 239.801C208.82 238.694 211.904 233.813 210.797 228.899C209.691 223.986 204.813 220.9 199.903 222.007C194.992 223.114 191.909 227.995 193.015 232.909C194.122 237.823 198.999 240.909 203.91 239.801Z" fill="#A7D59D"/>
<path d="M212.106 282.887H197.691H179.504L177.744 284.255C171.827 288.857 168.363 295.936 168.363 303.436V310.452C168.363 315.875 172.759 320.274 178.179 320.274H206.497C211.917 320.274 216.313 315.875 216.313 310.452V300.84C216.313 294.617 214.868 288.471 212.106 282.887Z" fill="#00837B"/>
<path d="M219.02 247.857C218.943 246.72 218.655 245.654 218.207 244.679L218.214 244.672L210.2 227.125L193.611 234.702L201.618 252.249L201.625 252.242C203.154 255.588 206.624 257.819 210.515 257.56C215.556 257.23 219.356 252.88 219.02 247.857Z" fill="#A7D59D"/>
<path d="M212.703 230.915L211.428 231.498L212.625 234.121L213.9 233.538L212.703 230.915Z" fill="#007A3D"/>
<path d="M209.909 258.292C208.577 258.292 207.28 258.025 206.053 257.492L206.607 256.201C207.834 256.734 209.138 256.952 210.484 256.868C215.111 256.559 218.624 252.539 218.315 247.908C218.245 246.905 217.993 245.916 217.565 244.976L217.264 244.323L217.271 244.316L213.751 236.606L215.027 236.023L219.143 245.039L219.108 245.053C219.444 245.944 219.64 246.87 219.703 247.81C220.061 253.212 215.967 257.906 210.561 258.264C210.351 258.278 210.126 258.292 209.909 258.292Z" fill="#007A3D"/>
<path d="M160.805 238.232C163.61 242.413 169.268 243.536 173.453 240.729C177.632 237.923 178.754 232.261 175.949 228.073C173.145 223.891 167.487 222.769 163.301 225.575C159.122 228.388 158.008 234.05 160.805 238.232Z" fill="#A7D59D"/>
<path d="M162.359 226.307L133.424 251.683L141.487 262.172L173.451 240.738L162.359 226.307Z" fill="#A7D59D"/>
<path d="M206.493 320.273C211.914 320.273 216.309 315.876 216.309 310.451C216.309 305.026 211.914 300.629 206.493 300.629C201.072 300.629 196.678 305.026 196.678 310.451C196.678 315.876 201.072 320.273 206.493 320.273Z" fill="#00837B"/>
<path d="M178.179 320.273C183.6 320.273 187.995 315.876 187.995 310.451C187.995 305.026 183.6 300.629 178.179 300.629C172.758 300.629 168.363 305.026 168.363 310.451C168.363 315.876 172.758 320.273 178.179 320.273Z" fill="#00837B"/>
<path d="M204.607 369.177C208.987 369.177 212.537 365.624 212.537 361.242C212.537 356.859 208.987 353.307 204.607 353.307C200.228 353.307 196.678 356.859 196.678 361.242C196.678 365.624 200.228 369.177 204.607 369.177Z" fill="#8B77E8"/>
<path d="M196.68 310.453V361.241L212.511 361.844L216.283 311.197L196.68 310.453Z" fill="#FF95A9"/>
<path d="M181.986 223.619L197.273 221.564L194.745 202.728L179.458 204.782L181.986 223.619Z" fill="#FF95A9"/>
<path d="M181.988 223.625C182.556 227.849 186.44 230.817 190.66 230.248C194.881 229.68 197.847 225.793 197.279 221.57C196.711 217.346 192.827 214.378 188.606 214.947C184.385 215.515 181.42 219.402 181.988 223.625Z" fill="#FF95A9"/>
<path d="M177.859 198.325L181.337 197.855L180.404 190.902L176.927 191.372C175.005 191.632 173.659 193.393 173.919 195.315C174.178 197.238 175.938 198.585 177.859 198.325Z" fill="#FF95A9"/>
<path d="M201.966 174.549L175.85 178.057L180.379 211.789L196.596 209.607C203.088 208.737 207.498 202.563 206.229 196.13L201.966 174.549Z" fill="#FF95A9"/>
<path d="M177.624 191.28L176.93 191.371L174.23 171.285L194.913 168.507C200.375 167.77 205.402 171.608 206.131 177.073L206.187 177.466L205.493 177.557C199.576 178.35 194.079 181.058 189.837 185.261C186.528 188.551 182.244 190.656 177.624 191.28Z" fill="#00335B"/>
<path d="M200.695 238.12L199.616 221.928L174.943 223.576L200.695 238.12Z" fill="#FF95A9"/>
<path d="M212.509 361.846L205.778 451.628L196.678 451.277V361.242L212.509 361.846Z" fill="#FF95A9"/>
<path d="M172.252 293.7C172.322 295.636 170.808 297.264 168.873 297.327C166.938 297.397 165.311 295.882 165.248 293.946C165.185 292.009 166.692 290.381 168.627 290.318C170.562 290.255 172.182 291.764 172.252 293.7Z" fill="#FF95A9"/>
<path d="M177.378 299.837C176.817 299.858 176.284 299.781 175.779 299.626V299.633L167.73 297.185L168.628 290.323L177.034 290.029C179.741 289.93 182.019 292.049 182.11 294.764C182.209 297.466 180.091 299.739 177.378 299.837Z" fill="#FF95A9"/>
<path d="M141.707 262.015C144.659 259.861 145.311 255.715 143.151 252.754C140.999 249.8 136.855 249.148 133.897 251.309C130.945 253.463 130.293 257.609 132.452 260.57C134.605 263.523 138.748 264.176 141.707 262.015Z" fill="#A7D59D"/>
<path d="M133.006 261.231L166.211 296.247L171.581 291.757L143.151 252.756L133.006 261.231Z" fill="#FF95A9"/>
<path d="M161.716 291.512L167.738 286.481L143.15 252.756L132.998 261.238L161.716 291.512Z" fill="#A7D59D"/>
<path d="M168.494 308.826L144.846 450.519L153.764 452.357L187.719 312.79L168.494 308.826Z" fill="#FF95A9"/>
<path d="M144.783 451.275H153.897V457.59H141.13C140.05 457.59 139.174 456.713 139.174 455.632C139.174 454.931 139.545 454.285 140.155 453.934L144.783 451.275Z" fill="#C6007E"/>
<path d="M201.174 199.062C201.503 201.167 200.059 203.139 197.956 203.468C195.852 203.798 193.882 202.353 193.553 200.248L201.174 199.062Z" fill="white"/>
<path d="M145.465 442.529L144.787 446.584L146.17 446.816L146.848 442.761L145.465 442.529Z" fill="#00335B"/>
<path d="M197.379 340.729H195.977V345.268H197.379V340.729Z" fill="#624AC9"/>
<path d="M152.464 253.956L149.971 255.627L150.751 256.793L153.244 255.122L152.464 253.956Z" fill="#007A3D"/>
<path d="M170.442 241.919L154.789 252.41L155.569 253.576L171.223 243.085L170.442 241.919Z" fill="#007A3D"/>
<path d="M235.207 219.064L207.619 220.721L207.703 222.121L235.291 220.465L235.207 219.064Z" fill="#007A3D"/>
<path d="M242.863 180.416L215.406 187.41L215.752 188.77L243.209 181.776L242.863 180.416Z" fill="#7760DB"/>
<path d="M227.438 183.594C226.561 181.868 227.248 179.756 228.973 178.879C230.698 178.002 232.808 178.69 233.685 180.416C234.561 182.142 233.874 184.253 232.149 185.13C230.424 186.007 228.314 185.32 227.438 183.594Z" fill="#FF95A9"/>
<path d="M220.202 180.182C220.7 179.93 221.219 179.775 221.745 179.698V179.691L230.074 178.52L232.149 185.121L224.647 188.938C222.228 190.166 219.277 189.205 218.05 186.784C216.823 184.371 217.79 181.41 220.202 180.182Z" fill="#FF95A9"/>
<path d="M160.543 356.478H212.909L216.282 311.198L168.494 308.826L160.543 356.478Z" fill="#00837B"/>
<path d="M167.013 313.526L145.861 440.047L147.244 440.278L168.396 313.758L167.013 313.526Z" fill="#00335B"/>
<path d="M197.379 364.35H195.977V446.716H197.379V364.35Z" fill="#00335B"/>
<path d="M205.792 451.275H196.678V457.59H209.445C210.525 457.59 211.401 456.713 211.401 455.632C211.401 454.931 211.03 454.285 210.42 453.934L205.792 451.275Z" fill="#C6007E"/>
</svg>
