<svg width="48" height="48" viewBox="0 0 48 48" fill="none" xmlns="http://www.w3.org/2000/svg">
<circle cx="24" cy="24" r="23.5" fill="white" stroke="#C9C9C9"/>
<mask id="mask0" mask-type="alpha" maskUnits="userSpaceOnUse" x="0" y="0" width="48" height="48">
<circle cx="24" cy="24" r="24" fill="#C4C4C4"/>
</mask>
<g mask="url(#mask0)">
<path d="M18.6581 7.73804C17.3055 8.33922 16.511 9.77778 16.2319 11.2378C15.9528 12.6978 16.0387 14.1793 15.9098 15.6393C15.781 17.0994 15.3731 18.6453 14.2995 19.6544C13.2904 20.5991 11.8304 20.9856 10.9715 22.0592C10.3489 22.8536 10.1556 23.9915 10.4992 24.9577C10.8427 25.9239 11.7015 26.6754 12.7107 26.8901C12.0451 27.9637 12.3671 29.4452 13.226 30.3684C14.0848 31.2917 15.3516 31.7211 16.5969 31.9143C18.7869 32.2579 21.1273 31.8714 22.9953 30.6475C24.8418 29.4237 26.1515 27.2981 26.1515 25.0866" fill="#263238"/>
<path d="M12.7967 29.5525C12.7967 29.5525 12.6679 29.4022 12.5605 29.0801C12.4532 28.758 12.3673 28.2427 12.4746 27.6416C12.539 27.341 12.6249 27.0189 12.7752 26.6754C12.9255 26.3533 13.1402 26.0098 13.3979 25.6877C13.8917 25.0436 14.5788 24.4424 15.2659 23.7983C15.9529 23.1541 16.5756 22.51 17.0694 21.8873C17.5847 21.2647 17.9712 20.642 18.2288 20.0838C18.4865 19.5255 18.6368 19.0532 18.7012 18.7096C18.7441 18.5379 18.7441 18.409 18.7656 18.3232C18.7871 18.2373 18.7871 18.1943 18.7871 18.1943C18.7871 18.1943 18.7871 18.2373 18.7871 18.3232C18.7656 18.409 18.7656 18.5379 18.7441 18.7096C18.6797 19.0532 18.5509 19.5255 18.2933 20.1053C18.0356 20.6635 17.6491 21.3076 17.1553 21.9303C16.64 22.5744 16.0173 23.2185 15.3517 23.8627C14.6647 24.5068 13.9991 25.0865 13.5052 25.7306C13.2476 26.0527 13.0543 26.3748 12.8826 26.6968C12.7323 27.0189 12.6249 27.341 12.5605 27.6416C12.4532 28.2427 12.5176 28.7366 12.6035 29.0586C12.7108 29.3807 12.8182 29.531 12.7967 29.5525Z" fill="#455A64"/>
<path d="M34.8049 12.5908C34.8049 14.5661 35.7281 16.3912 36.544 17.0568C37.7034 18.0015 39.4211 18.4524 40.5376 18.7745C42.1694 19.2253 43.5435 20.6639 43.7582 22.3601C43.9729 24.0563 42.8565 25.8599 41.2032 26.2893C42.2338 27.3414 41.9332 29.1664 41.0744 30.3688C39.464 32.6662 36.2219 33.5465 33.5595 32.6876C30.8757 31.8288 28.8359 29.467 28.0415 26.7831" fill="#263238"/>
<path d="M38.8832 32.1299C38.8832 32.1085 39.1409 32.1085 39.5059 31.8508C39.6776 31.722 39.8709 31.5287 40.0426 31.2496C40.1929 30.9705 40.3218 30.627 40.3218 30.219C40.3218 29.8325 40.2144 29.3816 39.9997 28.9737C39.785 28.5658 39.4415 28.1793 39.0335 27.8357C38.2176 27.1487 37.1226 26.7193 36.049 26.1181C35.5123 25.796 35.0184 25.4525 34.632 25.0016C34.4387 24.7869 34.267 24.5507 34.1381 24.293C34.0093 24.0354 33.9234 23.7777 33.859 23.5201C33.7517 22.9833 33.7517 22.468 33.7946 21.9956C33.8375 21.5233 33.8805 21.0939 33.9234 20.6859C34.0093 19.8915 34.0093 19.2259 33.902 18.7965C33.8805 18.6891 33.8375 18.6032 33.8161 18.5173C33.7946 18.4315 33.7517 18.3671 33.7302 18.3241C33.6872 18.2168 33.6658 18.1523 33.6658 18.1523C33.6658 18.1523 33.6872 18.2168 33.7517 18.3241C33.7731 18.3885 33.8161 18.4529 33.8375 18.5173C33.859 18.6032 33.902 18.6891 33.9234 18.7965C34.0522 19.2259 34.0737 19.8915 33.9878 20.7074C33.9449 21.1153 33.902 21.5448 33.859 22.0171C33.8375 22.4895 33.8161 23.0048 33.9449 23.4986C34.0522 24.0139 34.3099 24.5077 34.6964 24.9372C35.0829 25.3666 35.5552 25.7101 36.092 26.0322C37.1441 26.6334 38.2606 27.0843 39.0979 27.7713C39.5059 28.1149 39.8494 28.5013 40.0856 28.9308C40.3218 29.3602 40.4291 29.8111 40.4076 30.219C40.3862 30.627 40.2574 30.992 40.1071 31.2711C39.9353 31.5502 39.742 31.7435 39.5488 31.8723C39.3556 32.0011 39.1838 32.044 39.0764 32.087C38.9476 32.1299 38.8832 32.1299 38.8832 32.1299Z" fill="#455A64"/>
<path d="M42.7489 25.5165C42.7274 25.5165 42.9206 25.3448 42.9421 24.9583C42.9421 24.7651 42.9206 24.5289 42.7918 24.2927C42.663 24.0565 42.4697 23.7989 42.1906 23.6271C41.89 23.4553 41.525 23.348 41.1385 23.2621C40.7306 23.1977 40.3012 23.1762 39.8503 23.0903C38.927 22.94 37.9608 22.5965 37.0805 21.9953C36.2002 21.3941 35.4917 20.6212 35.0193 19.8267C34.547 19.0323 34.2893 18.2164 34.1819 17.5294C34.0531 16.8423 34.0746 16.2626 34.0961 15.8761C34.1175 15.6829 34.139 15.5326 34.139 15.4252C34.1605 15.3178 34.1605 15.2749 34.1605 15.2749C34.1819 15.2749 34.139 15.4896 34.1175 15.8761C34.0961 16.2626 34.1175 16.8208 34.2464 17.5079C34.3752 18.195 34.6328 18.9894 35.1052 19.7623C35.5776 20.5568 36.2646 21.3082 37.1235 21.888C38.0038 22.4677 38.9485 22.8327 39.8503 22.983C40.3012 23.0474 40.7306 23.0903 41.1385 23.1547C41.5465 23.2192 41.9115 23.348 42.2121 23.5412C42.5127 23.7345 42.7059 23.9921 42.8347 24.2498C42.9636 24.5074 42.985 24.7436 42.985 24.9583C42.9636 25.1515 42.8992 25.3018 42.8347 25.3877C42.8133 25.4307 42.7703 25.4521 42.7703 25.4736C42.7703 25.4951 42.7489 25.5165 42.7489 25.5165Z" fill="#455A64"/>
<path d="M19.6237 35.8437C19.9028 32.8807 20.139 29.746 20.139 29.746C20.139 29.746 16.3816 28.7368 16.081 23.6697C15.8019 18.8387 17.6484 7.95296 17.6484 7.95296C23.3596 6.25676 29.7365 8.38238 33.2148 13.1704L30.5309 37.2179C30.2089 40.0091 27.5679 41.9629 24.5835 41.5979C21.5775 41.2544 19.3446 38.6779 19.6237 35.8437Z" fill="#B78876"/>
<path d="M18.2274 16.6698C18.1845 17.0133 18.4207 17.3139 18.7857 17.3783C19.1292 17.4212 19.4513 17.2065 19.4942 16.863C19.5372 16.5195 19.301 16.2189 18.936 16.1545C18.5924 16.1115 18.2704 16.3477 18.2274 16.6698Z" fill="#263238"/>
<path d="M17.262 15.8538C17.3264 15.9397 17.8417 15.6391 18.5502 15.7035C19.2373 15.7679 19.7097 16.1759 19.7956 16.09C19.8385 16.047 19.7741 15.8967 19.5594 15.725C19.3661 15.5532 19.0011 15.36 18.5717 15.317C18.1423 15.2741 17.7773 15.4029 17.5411 15.5317C17.3264 15.682 17.2405 15.8108 17.262 15.8538Z" fill="#263238"/>
<path d="M25.2489 17.4861C25.206 17.8296 25.4422 18.1302 25.8072 18.1946C26.1507 18.2376 26.4728 18.0229 26.5157 17.6793C26.5586 17.3358 26.3225 17.0352 25.9575 16.9708C25.6139 16.9278 25.3133 17.1425 25.2489 17.4861Z" fill="#263238"/>
<path d="M24.4119 16.8201C24.4763 16.906 25.0131 16.6054 25.7001 16.6698C26.3872 16.7342 26.8596 17.1422 26.9455 17.0563C26.9884 17.0133 26.924 16.863 26.7093 16.6913C26.516 16.5195 26.151 16.3263 25.7216 16.2833C25.2922 16.2404 24.9272 16.3692 24.691 16.498C24.4763 16.6269 24.3904 16.7772 24.4119 16.8201Z" fill="#263238"/>
<path d="M21.4275 21.6724C21.4275 21.6294 21.0195 21.5221 20.3325 21.3503C20.1607 21.3074 19.9889 21.2644 19.9889 21.1356C19.9675 21.0068 20.0534 20.8135 20.1607 20.6203C20.3754 20.2124 20.5901 19.7829 20.8048 19.3321C21.7066 17.507 22.3937 15.9826 22.3078 15.9396C22.2434 15.8967 21.4275 17.3567 20.5257 19.1818C20.311 19.6326 20.0963 20.0621 19.9031 20.47C19.8172 20.6633 19.6883 20.878 19.7528 21.1571C19.7957 21.2859 19.9031 21.3933 20.0104 21.4362C20.1178 21.4791 20.2251 21.5006 20.311 21.5006C20.9766 21.6509 21.406 21.6939 21.4275 21.6724Z" fill="#263238"/>
<path d="M20.1391 29.7456C20.1391 29.7456 23.4671 30.2824 26.9884 28.6292C26.9884 28.6292 25.0345 31.8927 20.0962 30.9265L20.1391 29.7456Z" fill="#AA6550"/>
<path d="M21.5563 23.3477C21.8354 23.0471 22.2863 22.9183 22.7157 23.0041C23.0163 23.0686 23.2954 23.2403 23.4457 23.498C23.596 23.7556 23.6175 24.0992 23.4242 24.3139C23.2095 24.5501 22.823 24.5715 22.501 24.4427C22.1789 24.3139 21.9213 24.0777 21.6636 23.8415C21.5992 23.7771 21.5348 23.7127 21.4918 23.6268C21.4489 23.5409 21.4489 23.4336 21.5133 23.3692" fill="#AA6550"/>
<path d="M23.403 22.3383C23.2956 22.3169 23.2097 23.0684 22.5227 23.5407C21.8356 24.0131 21.0412 23.8413 21.0197 23.9487C20.9982 23.9916 21.1915 24.1204 21.5135 24.1634C21.8356 24.2063 22.3294 24.1419 22.7588 23.8628C23.1883 23.5837 23.3815 23.1542 23.4459 22.8536C23.5103 22.5316 23.4459 22.3383 23.403 22.3383Z" fill="#263238"/>
<path d="M30.8531 18.4951C31.3899 18.4521 31.9481 18.5165 32.442 18.7527C32.9358 18.9889 33.3437 19.4183 33.5155 19.9336C33.6873 20.4489 33.6014 21.0286 33.3652 21.5225C33.129 22.0163 32.7426 22.4243 32.3346 22.7678C32.034 23.004 31.6905 23.2402 31.304 23.3046C30.9175 23.3905 30.4881 23.3046 30.209 23.0254" fill="#B78876"/>
<path d="M30.8318 21.7584C30.7674 21.7799 30.9606 22.1234 31.4759 22.0376C31.7121 21.9946 31.9697 21.8229 32.12 21.5652C32.2918 21.3076 32.3992 21.0499 32.4636 20.7064C32.528 20.3843 32.485 20.0193 32.3347 19.7402C32.1844 19.4611 31.9053 19.2893 31.6691 19.2678C31.1753 19.2034 30.9821 19.5469 31.025 19.5469C31.068 19.5899 31.2827 19.4396 31.5833 19.5469C31.8839 19.6328 32.163 20.1052 32.0341 20.6205C31.9268 21.1573 31.6691 21.6511 31.3471 21.737C31.068 21.8658 30.8747 21.7155 30.8318 21.7584Z" fill="#AA6550"/>
<path d="M20.0736 10.1001C19.3436 11.7963 17.7762 13.1275 15.9727 13.5569C15.8653 12.333 15.8009 11.0877 15.9941 9.86389C16.1874 8.64004 16.6812 7.43767 17.583 6.57883C18.4633 5.71999 19.7945 5.2691 20.9754 5.5697" fill="#263238"/>
<path d="M20.4173 7.84558C19.7946 9.41296 20.0523 11.2809 21.0614 12.6121C22.0706 13.9433 23.8097 14.6948 25.4844 14.523C25.8065 14.4801 26.15 14.4157 26.4506 14.5445C26.7727 14.6733 26.9874 14.9739 27.1806 15.2745C27.9751 16.4554 28.8124 17.7007 30.0578 18.3878C31.3031 19.0749 33.1066 19.0105 33.944 17.851C34.3519 17.2928 34.4808 16.5628 34.5666 15.8757C34.8887 13.5569 35.0175 11.0877 33.9225 9.02648C33.1066 7.50204 31.6681 6.36408 30.0792 5.67701C28.4904 4.98994 26.7512 4.71082 25.0121 4.60347C24.0029 4.53905 22.9723 4.53905 22.0276 4.92553C21.1044 5.31201 20.2885 6.14937 20.2455 7.15851" fill="#263238"/>
<path d="M34.3536 16.52C34.3536 16.52 34.3321 16.4556 34.2892 16.3483C34.2462 16.2409 34.2033 16.0691 34.1174 15.8544C33.9671 15.4465 33.7095 14.8453 33.28 14.1582C32.8506 13.4926 32.2494 12.7411 31.4121 12.0755C30.5962 11.4099 29.5441 10.8732 28.4276 10.4008C27.3111 9.92844 26.1946 9.54196 25.2284 9.09107C24.2623 8.64018 23.4464 8.14635 22.8237 7.63105C22.201 7.11575 21.7931 6.60044 21.5569 6.21397C21.4281 6.02073 21.3422 5.87043 21.2993 5.76308C21.2563 5.65572 21.2134 5.59131 21.2134 5.59131C21.2134 5.59131 21.2563 5.63425 21.2993 5.74161C21.3637 5.84896 21.4496 5.99926 21.5784 6.17102C21.836 6.53603 22.244 7.02986 22.8666 7.54516C23.4893 8.039 24.3052 8.5543 25.2714 8.98372C26.2376 9.43461 27.3326 9.82109 28.4706 10.2934C29.6085 10.7658 30.6391 11.3026 31.4765 11.9897C32.3139 12.6553 32.915 13.4282 33.3445 14.0938C33.7739 14.7809 34.0315 15.3821 34.1604 15.8115C34.2248 16.0262 34.2892 16.198 34.3107 16.3053C34.3536 16.4556 34.3536 16.52 34.3536 16.52Z" fill="#455A64"/>
<path d="M32.8078 16.2405C32.8078 16.2405 32.7649 16.1975 32.7219 16.0902C32.6575 16.0043 32.5931 15.854 32.4643 15.7037C32.2281 15.3817 31.8201 14.9308 31.219 14.5013C30.6178 14.0719 29.8448 13.6854 28.943 13.3204C28.4921 13.1272 28.0198 12.934 27.5474 12.6978C27.0751 12.4616 26.5812 12.2254 26.1089 11.9248C25.1427 11.3451 24.2838 10.6795 23.6182 9.99244C22.9312 9.30537 22.4159 8.57536 22.0509 7.93123C21.6859 7.28711 21.4926 6.72886 21.3638 6.34238C21.2994 6.14915 21.2564 5.99885 21.2564 5.89149C21.235 5.78414 21.2135 5.71973 21.235 5.71973C21.235 5.71973 21.2564 5.76267 21.2779 5.87002C21.2994 5.97738 21.3423 6.12768 21.4067 6.32091C21.5356 6.70739 21.7503 7.26564 22.1153 7.88829C22.4803 8.51095 22.9956 9.21949 23.6827 9.90656C24.3697 10.5936 25.2071 11.2378 26.1733 11.8175C26.6456 12.0966 27.1395 12.3542 27.6118 12.5904C28.0842 12.8266 28.5566 13.0198 29.0074 13.2131C29.8878 13.5996 30.6822 13.986 31.2834 14.4369C31.8846 14.8663 32.271 15.3172 32.5072 15.6608C32.6146 15.8325 32.7005 15.9614 32.7434 16.0687C32.7863 16.1975 32.8078 16.2405 32.8078 16.2405Z" fill="#455A64"/>
<path d="M15.974 15.5323C15.974 15.5323 15.9526 15.4894 15.9311 15.4249C15.9096 15.3391 15.8667 15.2317 15.8237 15.0814C15.7379 14.7808 15.6305 14.3514 15.609 13.7932C15.5876 13.2349 15.6305 12.5693 15.8237 11.8608C16.017 11.1522 16.3605 10.4007 16.8973 9.73515C17.1549 9.39161 17.4555 9.11249 17.7561 8.83337C18.0567 8.57572 18.3788 8.36101 18.7008 8.16777C19.3235 7.75982 19.8603 7.39481 20.2468 7.00834C20.6332 6.62186 20.8909 6.23538 20.9982 5.95626C21.1271 5.67714 21.1485 5.50537 21.17 5.50537C21.17 5.50537 21.17 5.54831 21.1485 5.6342C21.1271 5.72008 21.1056 5.82744 21.0412 5.97773C20.9338 6.25685 20.6976 6.6648 20.2897 7.05128C19.9032 7.45923 19.345 7.82423 18.7438 8.23218C18.4432 8.42542 18.1211 8.64013 17.8205 8.89778C17.5199 9.15543 17.2193 9.43455 16.9832 9.77809C16.4679 10.4437 16.1243 11.1737 15.9311 11.8608C15.7379 12.5478 15.6734 13.2134 15.6949 13.7717C15.7164 14.3299 15.8023 14.7593 15.8667 15.0599C15.9096 15.1888 15.9311 15.3176 15.974 15.4035C15.974 15.4894 15.974 15.5323 15.974 15.5323Z" fill="#455A64"/>
<path d="M28.2773 25.473C27.1179 25.473 25.937 25.0866 25.0781 24.3136L25.207 24.1633C26.7099 25.516 29.1576 25.6663 30.8109 24.5069C32.4641 23.3689 33.1727 21.0071 32.4427 19.1391L32.6359 19.0747C33.4089 21.0286 32.6574 23.4977 30.9397 24.7001C30.1667 25.2154 29.222 25.473 28.2773 25.473Z" fill="#DB3907"/>
<path d="M26.6238 24.5926C26.6238 25.1294 26.1729 25.5803 25.6361 25.5803C25.0993 25.5803 24.6484 25.1294 24.6484 24.5926C24.6484 24.0559 25.0993 23.605 25.6361 23.605C26.1729 23.605 26.6238 24.0559 26.6238 24.5926Z" fill="#DB3907"/>
<path d="M36.5124 19.96C36.7347 18.1474 35.4454 16.4978 33.6328 16.2756C31.8201 16.0533 30.1705 17.3426 29.9483 19.1552C29.7261 20.9678 31.0153 22.6174 32.828 22.8397C34.6406 23.0619 36.2902 21.7726 36.5124 19.96Z" fill="#DB3907"/>
<path d="M32.7007 19.1175C32.6792 19.1175 32.6792 18.8169 32.7221 18.2801C32.7221 18.001 32.7436 17.6789 32.7651 17.2925C32.7651 16.906 32.7866 16.4766 32.7651 16.0042C32.7651 15.768 32.7436 15.5104 32.7436 15.2527C32.7436 14.9951 32.7007 14.7159 32.6792 14.4368C32.6577 14.1577 32.6148 13.8786 32.5718 13.578C32.5504 13.4277 32.5074 13.2774 32.486 13.1271C32.4645 12.9768 32.4216 12.8265 32.3786 12.6762C32.0995 11.4524 31.5627 10.1426 30.6395 9.02615C29.7162 7.90966 28.5138 7.15817 27.3329 6.70728C26.152 6.25639 25.0355 6.02021 24.0908 5.89139C23.1461 5.76256 22.3517 5.71962 21.8149 5.67668C21.2781 5.65521 20.9775 5.63374 20.9775 5.61226C20.9775 5.59079 21.2781 5.56932 21.8149 5.54785C22.3517 5.54785 23.1461 5.54785 24.1123 5.65521C25.0785 5.76256 26.2379 5.9558 27.4403 6.42816C28.6427 6.87905 29.9095 7.652 30.8756 8.81144C31.8418 9.97087 32.3786 11.345 32.6577 12.6118C32.7007 12.7621 32.7221 12.9339 32.7436 13.0842C32.7651 13.2345 32.7866 13.3847 32.8295 13.535C32.8724 13.8356 32.9154 14.1362 32.9369 14.4154C32.9583 14.6945 32.9798 14.9736 32.9798 15.2312C32.9798 15.4889 33.0013 15.7466 32.9798 16.0042C32.9798 16.498 32.9583 16.9275 32.9369 17.3139C32.9154 17.7004 32.8724 18.0225 32.851 18.3016C32.7651 18.8169 32.7221 19.1175 32.7007 19.1175Z" fill="#DB3907"/>
<g opacity="0.4">
<path opacity="0.4" d="M35.5992 19.5679C35.5992 20.8347 34.5686 21.8438 33.3233 21.8438C32.0565 21.8438 31.0474 20.8132 31.0474 19.5679C31.0474 18.3011 32.078 17.292 33.3233 17.292C34.5901 17.292 35.5992 18.3011 35.5992 19.5679Z" fill="black"/>
</g>
<path d="M32.5713 17.4427C32.5713 17.4427 32.6142 17.4212 32.6787 17.3997C32.7431 17.3782 32.8504 17.3353 33.0007 17.3138C33.2798 17.2709 33.7307 17.2709 34.1816 17.5071C34.4178 17.6359 34.6325 17.8291 34.7828 18.0868C34.9331 18.3444 35.0405 18.688 35.019 19.0315C35.019 19.375 34.9116 19.74 34.6755 20.0406C34.4393 20.3412 34.0957 20.5559 33.7093 20.6633C33.3228 20.7492 32.9148 20.7277 32.5713 20.5559C32.2278 20.3842 31.9701 20.1051 31.8198 19.8045C31.6695 19.5039 31.6051 19.1603 31.6266 18.8597C31.6481 18.5591 31.7769 18.28 31.9057 18.0653C32.1848 17.6359 32.5713 17.3997 32.8504 17.3353C33.0007 17.2924 33.1081 17.2924 33.1725 17.2924C33.2584 17.2924 33.2798 17.3138 33.2798 17.3138C33.2798 17.3353 33.1081 17.2924 32.8504 17.3782C32.5928 17.4641 32.2278 17.6788 31.9486 18.1083C31.8198 18.323 31.7125 18.5806 31.691 18.8597C31.6695 19.1389 31.7339 19.4609 31.8842 19.7615C32.0345 20.0406 32.2707 20.3198 32.5928 20.4701C32.9148 20.6204 33.3013 20.6633 33.6663 20.5559C34.0313 20.4701 34.3534 20.2553 34.5681 19.9762C34.7828 19.6971 34.8902 19.3536 34.8902 19.0315C34.8902 18.7094 34.8258 18.3874 34.6755 18.1512C34.5252 17.8935 34.3319 17.7218 34.1172 17.593C33.6878 17.3353 33.2584 17.3353 32.9793 17.3568C32.7216 17.3782 32.5713 17.4427 32.5713 17.4427Z" fill="#263238"/>
<path d="M33.3011 21.8223C33.2796 21.8223 33.2152 21.5861 33.1937 21.2856C33.1722 20.985 33.2152 20.7488 33.2581 20.7488C33.2796 20.7488 33.3011 20.985 33.3011 21.2856C33.3225 21.5647 33.3225 21.8009 33.3011 21.8223Z" fill="#263238"/>
<path d="M34.5679 21.3717C34.5464 21.3717 34.4391 21.1785 34.3317 20.9208C34.2244 20.6632 34.16 20.427 34.2029 20.427C34.2244 20.427 34.3317 20.6202 34.4391 20.8779C34.525 21.1355 34.5894 21.3503 34.5679 21.3717Z" fill="#263238"/>
<path d="M35.4053 20.3837C35.3838 20.4052 35.2335 20.2979 35.0617 20.1476C34.89 19.9973 34.7611 19.847 34.7826 19.8255C34.8041 19.804 34.9544 19.9114 35.1262 20.0617C35.2979 20.212 35.4267 20.3623 35.4053 20.3837Z" fill="#263238"/>
<path d="M35.4693 18.9881C35.4693 19.0095 35.3404 19.0095 35.2116 18.9451C35.0828 18.9022 34.9754 18.8378 34.9969 18.8163C34.9969 18.7948 35.1257 18.7948 35.2545 18.8593C35.3834 18.9022 35.4693 18.9666 35.4693 18.9881Z" fill="#263238"/>
<path d="M31.8196 21.3069C31.7982 21.3069 31.8411 21.0493 31.9914 20.7916C32.1202 20.5125 32.292 20.3193 32.3135 20.3407C32.3349 20.3622 32.2276 20.5769 32.0773 20.8346C31.9485 21.0922 31.8411 21.3069 31.8196 21.3069Z" fill="#263238"/>
<path d="M31.1327 20.1474C31.1112 20.126 31.2401 19.9757 31.4118 19.7824C31.5836 19.6107 31.7554 19.4818 31.7768 19.5033C31.7983 19.5248 31.6695 19.6751 31.4977 19.8683C31.3045 20.0401 31.1542 20.1689 31.1327 20.1474Z" fill="#263238"/>
<path d="M31.6701 18.5591C31.6701 18.5805 31.5842 18.645 31.4554 18.6664C31.3266 18.7094 31.2192 18.7094 31.2192 18.6664C31.2192 18.645 31.3051 18.5805 31.4339 18.5591C31.5413 18.5376 31.6487 18.5376 31.6701 18.5591Z" fill="#263238"/>
<path d="M46.4216 46.2781L51.1237 53.02L48.8693 35.65L55.5897 33.009C55.5897 33.009 64.0493 65.4731 52.6911 65.924C52.6911 65.924 44.8328 65.7093 38.9712 52.0967L46.4216 46.2781Z" fill="#B78876"/>
<path d="M43.0498 60.3419L37.36 53.1277L35.8785 60.4922C35.2773 63.4767 35.5994 66.5685 36.7588 69.3812L37.4888 71.1418H11.2084L11.874 68.8015C12.239 65.9243 11.7452 62.9399 11.831 58.8389L11.101 54.2012L7.12891 71.1418H-4.57275C-4.57275 71.1418 1.84706 44.8399 5.86212 39.6439C10.9293 33.0738 19.7968 33.9541 19.7968 33.9541L25.2289 42.4566L30.5322 34.7915C30.5322 34.7915 39.6359 32.8591 46.7428 45.0975L50.5432 51.6247L48.7825 38.2054L57.0274 36.2944C57.0274 36.2944 60.0118 49.4776 59.7971 56.5415C59.6254 62.854 56.9415 66.1605 53.227 66.4826C47.3655 66.9764 43.0498 60.3419 43.0498 60.3419Z" fill="#DB3907"/>
<path d="M19.7961 33.9324L19.882 32.8804C19.882 32.8804 23.897 33.7821 25.2497 40.8031C25.2497 40.8031 26.6024 34.3189 30.9395 33.6748L31.6695 35.5428L29.0071 42.4564L24.3479 43.8306L19.7961 42.4564L17.7349 38.3555L19.7961 33.9324Z" fill="#DB3907"/>
<path d="M8.58984 36.7231C8.58984 36.7231 8.58985 36.7876 8.61132 36.8949C8.61132 37.0237 8.63279 37.1955 8.65426 37.4102C8.67573 37.8611 8.74014 38.5267 8.80455 39.3211C8.93338 40.9315 9.14809 43.1859 9.5131 45.6336C9.85663 48.0813 10.286 50.2928 10.6081 51.8816C10.7799 52.6761 10.9087 53.3202 11.0161 53.7711C11.059 53.9858 11.1019 54.1576 11.1234 54.2864C11.1449 54.3937 11.1664 54.4581 11.1449 54.4581C11.1449 54.4581 11.1234 54.3937 11.1019 54.2864C11.0805 54.1576 11.0375 53.9858 10.9731 53.7711C10.8658 53.3202 10.7155 52.6975 10.5437 51.9031C10.2002 50.3143 9.77075 48.1027 9.42721 45.6551C9.08368 43.2074 8.86897 40.9529 8.76161 39.3426C8.6972 38.5267 8.67573 37.8826 8.65426 37.4102C8.65426 37.1955 8.63279 37.0237 8.63279 36.8949C8.58984 36.7876 8.58984 36.7231 8.58984 36.7231Z" fill="#263238"/>
<path d="M31.5629 34.5334C31.5629 34.5334 31.5415 34.5764 31.4985 34.6408C31.4556 34.7052 31.3912 34.8126 31.3268 34.9199C31.155 35.1776 30.9403 35.5211 30.6612 35.9505C30.1029 36.8094 29.33 38.0117 28.557 39.3859C28.5355 39.4503 28.4926 39.4932 28.4711 39.5362L28.4282 39.6221L28.3852 39.5362C28.2135 39.1926 28.0632 38.8491 27.8055 38.6129C27.5693 38.3767 27.2258 38.2264 26.9038 38.2694C26.5817 38.3123 26.3455 38.527 26.1737 38.7632C26.002 38.9994 25.8731 39.2356 25.8087 39.4718C25.6584 39.9441 25.5726 40.3306 25.4652 40.5883C25.4223 40.7171 25.3578 40.8244 25.3149 40.8674C25.272 40.9318 25.2505 40.9533 25.2505 40.9533C25.2505 40.9533 25.3149 40.8244 25.4223 40.5668C25.5296 40.3091 25.594 39.9227 25.7443 39.4288C25.8087 39.1926 25.9376 38.935 26.1093 38.6988C26.2811 38.4626 26.5602 38.2264 26.9038 38.162C27.2473 38.0976 27.6338 38.2694 27.8914 38.527C28.1705 38.7847 28.3208 39.1497 28.4926 39.4932H28.4067C28.4282 39.4503 28.4711 39.3859 28.4926 39.3429C29.287 37.9688 30.06 36.7664 30.6397 35.9291C30.9188 35.4996 31.1765 35.1561 31.3482 34.9199C31.4341 34.8126 31.4985 34.7267 31.5415 34.6623C31.5415 34.5549 31.5629 34.512 31.5629 34.5334Z" fill="#263238"/>
<path d="M27.7423 38.506C27.7423 38.506 27.7209 38.5489 27.6994 38.5919C27.6564 38.6563 27.6135 38.7422 27.5491 38.8495C27.4203 39.0857 27.227 39.3863 27.0123 39.7513C26.7761 40.1378 26.497 40.5887 26.1964 41.0825C26.0461 41.3402 25.8744 41.5978 25.7241 41.8769C25.6382 42.0058 25.5523 42.1561 25.4664 42.2849C25.4449 42.3278 25.402 42.3493 25.3591 42.3922C25.3161 42.4137 25.2517 42.4352 25.1873 42.4137C25.0799 42.3708 25.037 42.2849 24.9726 42.2205C24.2211 41.0825 23.6628 39.9875 23.212 39.2145C22.9973 38.8281 22.8255 38.506 22.6967 38.2913C22.5678 38.0766 22.5034 37.9478 22.5034 37.9478C22.5034 37.9478 22.5249 37.9692 22.5678 38.0336C22.6108 38.0981 22.6537 38.1625 22.7181 38.2698C22.847 38.4845 23.0402 38.7851 23.2764 39.1716C23.7273 39.9446 24.307 41.0181 25.0585 42.1561C25.1014 42.2205 25.1443 42.2849 25.2088 42.3064C25.2517 42.3278 25.3161 42.2849 25.3591 42.2205C25.4449 42.0916 25.5308 41.9413 25.6167 41.8125C25.7885 41.5334 25.9388 41.2758 26.1105 41.0396C26.4111 40.5457 26.7117 40.0948 26.9479 39.7084C27.1841 39.3434 27.3773 39.0428 27.5061 38.8281C27.5706 38.7422 27.6135 38.6563 27.6564 38.5919C27.7209 38.5275 27.7423 38.506 27.7423 38.506Z" fill="#263238"/>
<path d="M42.2992 39.1287C42.2992 39.1287 42.2777 39.1716 42.2348 39.279C42.1918 39.3863 42.1274 39.5151 42.0415 39.6654C41.8698 40.009 41.6336 40.5028 41.333 41.104C41.0539 41.7266 40.7103 42.4567 40.3668 43.294C40.0233 44.1314 39.6797 45.0546 39.3362 46.0208C38.9927 47.0085 38.7135 47.9532 38.4774 48.8121C38.2412 49.6709 38.0479 50.4653 37.8977 51.1309C37.7474 51.7965 37.64 52.3333 37.5541 52.6983C37.5112 52.8701 37.4897 53.0204 37.4682 53.1277C37.4468 53.2351 37.4253 53.278 37.4253 53.278C37.4253 53.278 37.4253 53.2351 37.4468 53.1277C37.4682 53.0204 37.4897 52.8701 37.5112 52.6983C37.5756 52.3333 37.6829 51.775 37.8118 51.1094C37.9621 50.4439 38.1338 49.6494 38.37 48.7906C38.6062 47.9317 38.8853 46.987 39.2289 45.9994C39.5724 45.0117 39.9159 44.0885 40.2595 43.2726C40.603 42.4352 40.9465 41.7052 41.2471 41.104C41.5477 40.5028 41.8054 40.009 41.9771 39.6654C42.063 39.5151 42.1274 39.3863 42.1918 39.279C42.2777 39.1716 42.2992 39.1287 42.2992 39.1287Z" fill="#263238"/>
<path d="M38.4116 54.4585C38.4116 54.4585 38.4116 54.3941 38.4331 54.3082C38.4546 54.2009 38.4975 54.0506 38.5404 53.8788C38.6478 53.4923 38.7766 52.9341 38.9484 52.2685C39.2919 50.9158 39.7428 49.0264 40.3225 46.9651C40.6017 45.9345 40.9022 44.9683 41.1814 44.0666C41.4605 43.1863 41.7396 42.3918 41.9973 41.7477C42.1261 41.4256 42.2334 41.125 42.3408 40.8674C42.4482 40.6097 42.534 40.395 42.6199 40.2018C42.7058 40.03 42.7702 39.9012 42.8132 39.7939C42.8561 39.708 42.8776 39.6436 42.8776 39.6436C42.8776 39.6436 42.8561 39.6865 42.8346 39.7939C42.7917 39.9012 42.7273 40.03 42.6629 40.2018C42.577 40.3736 42.4911 40.6097 42.4052 40.8674C42.2979 41.125 42.1905 41.4256 42.0617 41.7477C41.8255 42.4133 41.5464 43.1863 41.2673 44.0666C40.9881 44.9469 40.709 45.9345 40.4299 46.9651C39.8716 49.0264 39.3993 50.8943 39.0343 52.247C38.8625 52.9126 38.7122 53.4708 38.5834 53.8359C38.5404 54.0076 38.4975 54.1579 38.4546 54.2653C38.4331 54.3941 38.4116 54.4585 38.4116 54.4585Z" fill="#263238"/>
<path d="M10.9714 54.0939C10.9714 54.0939 10.9284 54.051 10.864 53.9651C10.7996 53.8792 10.6922 53.7504 10.5634 53.5786C10.3058 53.2351 9.9837 52.7198 9.61869 52.0327C9.27516 51.3456 8.93162 50.5083 8.63103 49.5421C8.33044 48.5759 8.11573 47.4809 7.94396 46.3429C7.62189 44.0455 7.57895 41.9199 7.49307 40.4169C7.45013 39.6654 7.40719 39.0428 7.38571 38.6134C7.36424 38.3986 7.36424 38.2483 7.34277 38.1195C7.34277 38.0122 7.34277 37.9478 7.34277 37.9478C7.34277 37.9478 7.36424 38.0122 7.36424 38.1195C7.38572 38.2269 7.40719 38.3986 7.42866 38.6134C7.4716 39.0428 7.51454 39.644 7.57895 40.4169C7.68631 41.9413 7.75072 44.0455 8.07279 46.3429C8.24455 47.4809 8.45926 48.5759 8.73839 49.5421C9.01751 50.5083 9.36104 51.3456 9.70458 52.0327C10.0481 52.7198 10.3702 53.2351 10.6064 53.5786C10.7137 53.7504 10.8211 53.8792 10.8855 53.9865C10.9284 54.051 10.9714 54.0939 10.9714 54.0939Z" fill="#263238"/>
<path d="M9.76958 46.6218C9.76958 46.6648 9.3831 46.6862 8.97515 46.901C8.56721 47.1157 8.30956 47.4163 8.28809 47.3948C8.26661 47.3733 8.48132 47.0298 8.93221 46.7936C9.36163 46.5789 9.76958 46.6004 9.76958 46.6218Z" fill="#263238"/>
<path d="M9.16901 44.0883C9.16901 44.1098 8.86841 44.1312 8.52488 44.303C8.20281 44.4748 7.9881 44.7109 7.96663 44.6895C7.94516 44.668 8.11693 44.3889 8.48193 44.2171C8.82547 44.0453 9.16901 44.0668 9.16901 44.0883Z" fill="#263238"/>
<path d="M8.86942 41.4901C8.86942 41.5116 8.5903 41.576 8.2897 41.7048C7.98911 41.8337 7.75293 42.0054 7.73146 41.9625C7.70999 41.941 7.9247 41.7263 8.24676 41.5975C8.56882 41.4687 8.86942 41.4687 8.86942 41.4901Z" fill="#263238"/>
<path d="M8.69526 39.3857C8.69526 39.4072 8.41614 39.4716 8.11554 39.6219C7.81495 39.7722 7.60024 39.944 7.57877 39.9225C7.5573 39.901 7.75054 39.6863 8.0726 39.536C8.39467 39.3643 8.69526 39.3643 8.69526 39.3857Z" fill="#263238"/>
<path d="M40.366 46.7289C40.3445 46.7504 40.1727 46.4927 39.8292 46.3424C39.4857 46.1921 39.1851 46.278 39.1851 46.2565C39.1851 46.2351 39.2495 46.2136 39.3783 46.1921C39.5071 46.1707 39.7004 46.1921 39.8721 46.2565C40.0654 46.321 40.1942 46.4498 40.2801 46.5571C40.3445 46.643 40.366 46.7289 40.366 46.7289Z" fill="#263238"/>
<path d="M41.0746 44.4533C41.0532 44.4748 40.9458 44.2601 40.6882 44.1312C40.452 44.0024 40.2158 44.0239 40.1943 44.0024C40.1943 43.9809 40.2588 43.9595 40.3446 43.9595C40.452 43.9595 40.5808 43.9809 40.7311 44.0454C40.8599 44.1098 40.9673 44.2171 41.0102 44.303C41.0746 44.3889 41.0746 44.4533 41.0746 44.4533Z" fill="#263238"/>
<path d="M41.89 42.3708C41.8685 42.3922 41.7397 42.1346 41.4606 42.0058C41.16 41.8769 40.9023 41.9413 40.9023 41.9199C40.9023 41.8984 40.9668 41.8769 41.0741 41.8555C41.1815 41.834 41.3532 41.8555 41.5035 41.9199C41.6538 41.9843 41.7827 42.1131 41.8471 42.2205C41.89 42.2849 41.9115 42.3708 41.89 42.3708Z" fill="#263238"/>
<path d="M28.4073 39.386C28.4073 39.386 28.3858 39.4289 28.3644 39.4933C28.3214 39.5578 28.2785 39.6651 28.2141 39.7725C28.0852 40.0086 27.892 40.3522 27.6344 40.7601C27.3767 41.1681 27.0761 41.6834 26.7326 42.2202C26.5608 42.4993 26.3676 42.7784 26.1743 43.0575C25.9811 43.3366 25.7664 43.6372 25.5302 43.9378C25.4658 44.0022 25.4014 44.0881 25.3155 44.1311C25.294 44.1525 25.2511 44.1525 25.2296 44.1525C25.1867 44.1525 25.1652 44.1311 25.1437 44.1311C25.1008 44.1096 25.0578 44.0881 25.0149 44.0452C24.8646 43.9164 24.7572 43.7875 24.6284 43.6587C24.4137 43.3796 24.199 43.1219 24.0272 42.8428C23.6622 42.306 23.3402 41.8337 23.0825 41.4257C22.8249 41.0178 22.6316 40.6742 22.4813 40.4381C22.4169 40.3307 22.374 40.2448 22.331 40.1589C22.2881 40.0945 22.2881 40.0516 22.2881 40.0516C22.2881 40.0516 22.3096 40.0731 22.3525 40.1375C22.3954 40.2019 22.4599 40.2878 22.5243 40.3951C22.6746 40.6313 22.8893 40.9534 23.1469 41.3613C23.4046 41.7693 23.7266 42.2416 24.1131 42.7784C24.3064 43.036 24.4996 43.3152 24.7143 43.5728C24.8217 43.7016 24.9505 43.8305 25.0793 43.9593C25.1437 44.0022 25.2296 44.0667 25.2725 44.0452C25.337 44.0022 25.4014 43.9378 25.4658 43.8734C25.702 43.5943 25.9167 43.2937 26.1099 43.0146C26.3032 42.7355 26.4964 42.4349 26.6682 42.1772C27.0117 41.6404 27.3338 41.1466 27.5699 40.7387C27.8276 40.3307 28.0208 40.0086 28.1711 39.751C28.2355 39.6436 28.3 39.5578 28.3429 39.4933C28.3644 39.4289 28.3858 39.386 28.4073 39.386Z" fill="#263238"/>
<path d="M23.8341 42.4352C23.8126 42.4352 23.7911 42.3708 23.8126 42.242C23.8126 42.1131 23.877 41.9414 23.9844 41.7911C24.1132 41.6408 24.2635 41.5549 24.3708 41.5119C24.4997 41.469 24.5641 41.4905 24.5641 41.4905C24.5641 41.5119 24.2635 41.5764 24.0703 41.8555C23.8341 42.1346 23.8555 42.4567 23.8341 42.4352Z" fill="#263238"/>
<path d="M25.2284 44.1312C25.207 44.1312 25.1211 43.7661 25.1211 43.2938C25.1211 42.8214 25.1855 42.4349 25.207 42.4564C25.2285 42.4564 25.207 42.8429 25.2284 43.2938C25.2284 43.7661 25.2714 44.1312 25.2284 44.1312Z" fill="#263238"/>
<path d="M26.8401 41.9842C26.8187 41.9842 26.7542 41.748 26.5181 41.5763C26.3034 41.383 26.0457 41.3615 26.0672 41.3401C26.0672 41.3186 26.1316 41.3186 26.2389 41.3186C26.3463 41.3401 26.4751 41.383 26.6039 41.4904C26.7328 41.5977 26.7972 41.7266 26.8401 41.8124C26.8616 41.9198 26.8401 41.9842 26.8401 41.9842Z" fill="#263238"/>
<path d="M27.8907 40.2232C27.8692 40.2232 27.8263 39.987 27.633 39.7723C27.4398 39.5576 27.2036 39.5146 27.2036 39.4717C27.2036 39.4502 27.268 39.4502 27.3754 39.4717C27.4827 39.4931 27.6116 39.579 27.7189 39.6864C27.8263 39.7937 27.8907 39.944 27.9122 40.0299C27.9122 40.1587 27.8907 40.2232 27.8907 40.2232Z" fill="#263238"/>
<path d="M22.7592 40.8459C22.7378 40.8459 22.7163 40.76 22.7163 40.6312C22.7163 40.4809 22.7378 40.2877 22.8451 40.0944C22.9525 39.9012 23.1028 39.7509 23.2316 39.6865C23.3604 39.6006 23.4463 39.6006 23.4463 39.6006C23.4678 39.6221 23.1457 39.7724 22.9525 40.1374C22.7378 40.4809 22.7807 40.8459 22.7592 40.8459Z" fill="#263238"/>
<g opacity="0.4">
<g opacity="0.4">
<path opacity="0.4" d="M19.7321 33.9323C20.183 35.6929 20.9559 38.57 21.7933 40.8245C21.8362 40.9318 21.8792 41.0392 21.9436 41.1036C22.1583 41.2968 22.5233 41.1895 22.7165 40.9748C22.9098 40.7815 23.0171 40.5024 23.1674 40.2877C23.3177 40.0515 23.5539 39.8368 23.833 39.8368C24.0477 39.8368 24.2624 39.9656 24.4127 40.1374C24.563 40.3092 24.6704 40.5024 24.7777 40.7171C24.8422 40.8245 24.9066 40.9318 25.0354 40.9533C25.1642 40.9748 25.293 40.8674 25.2072 40.7386L24.4771 38.8277C24.4771 38.8277 24.1336 37.432 22.9742 37.6468C21.6645 37.8829 22.2656 40.03 22.2656 40.03C22.2656 40.03 19.7106 33.8464 19.7321 33.9323Z" fill="black"/>
</g>
</g>
<path d="M25.2496 40.7816C25.2496 40.7816 25.2282 40.7386 25.1852 40.6528C25.1423 40.5669 25.0993 40.438 25.0349 40.2877C24.9061 39.9442 24.7129 39.4933 24.4982 38.9136C24.4337 38.7633 24.3693 38.613 24.3049 38.4627C24.2405 38.3124 24.1546 38.1621 24.0473 38.0333C23.8111 37.7756 23.4246 37.6039 23.0381 37.6468C22.8449 37.6683 22.6517 37.7542 22.5014 37.883C22.3511 38.0333 22.2866 38.2265 22.2008 38.4412C22.1364 38.6345 22.1363 38.8707 22.1578 39.0854C22.1793 39.3216 22.2222 39.5363 22.2866 39.7724C22.3081 39.8583 22.3296 39.9442 22.3511 40.0086L22.2437 40.0301C21.9431 39.1713 21.5996 38.3554 21.2775 37.6468C20.9554 36.9168 20.6763 36.2727 20.4401 35.7144C20.204 35.1562 20.0537 34.7053 19.9463 34.3832C19.9034 34.2329 19.8604 34.1041 19.839 34.0182C19.8175 33.9323 19.796 33.8894 19.8175 33.8894C19.8175 33.8894 19.839 33.9323 19.8604 34.0182C19.8819 34.1041 19.9248 34.2329 19.9893 34.3832C20.0966 34.7053 20.2684 35.1347 20.5046 35.693C20.7407 36.2297 21.0413 36.8953 21.3634 37.6039C21.6855 38.3339 22.029 39.1283 22.3296 40.0086L22.2222 40.0301C22.2008 39.9442 22.1793 39.8583 22.1578 39.7939C22.0934 39.5577 22.0505 39.3216 22.029 39.1068C22.0075 38.8707 22.0075 38.6345 22.0719 38.4198C22.1363 38.2051 22.2222 37.9904 22.394 37.8186C22.5658 37.6683 22.7805 37.5824 22.9952 37.5609C23.4246 37.518 23.8326 37.7112 24.0902 37.9689C24.219 38.0977 24.3049 38.2695 24.3693 38.4412C24.4337 38.5915 24.4982 38.7418 24.5626 38.8921C24.7773 39.4719 24.949 39.9442 25.0779 40.2663C25.1423 40.4166 25.1852 40.5454 25.2067 40.6313C25.2496 40.7386 25.2496 40.7816 25.2496 40.7816Z" fill="#263238"/>
<g opacity="0.4">
<g opacity="0.4">
<path opacity="0.4" d="M25.3573 40.7385C25.3144 40.7599 25.3358 40.8458 25.4002 40.8673C25.4432 40.8888 25.5076 40.8458 25.5505 40.8243C25.8297 40.6096 25.98 40.2876 26.1732 40.0084C26.3664 39.7293 26.6456 39.4502 26.9891 39.4502C27.3541 39.4502 27.6547 39.7508 27.8265 40.0729C27.9982 40.3949 28.1271 40.7599 28.3847 41.0176C29.6944 39.0852 30.7465 36.981 31.498 34.7695C31.0686 35.0701 30.7895 35.5425 30.5103 35.9719C29.8233 37.1313 29.1147 38.2908 28.4276 39.4502C28.2774 39.1067 28.1056 38.7631 27.8479 38.5269C27.5688 38.2693 27.2038 38.119 26.8388 38.2049C26.4308 38.2908 26.1517 38.6772 25.9585 39.0423C25.6579 39.579 25.4861 40.1802 25.4002 40.7814" fill="black"/>
</g>
</g>
<path d="M23.5329 42.349C23.5329 42.349 23.49 42.3919 23.4256 42.4563C23.3397 42.5207 23.2323 42.6281 23.0606 42.7355C22.7385 42.9716 22.2662 43.2722 21.622 43.5514C20.9994 43.8305 20.1835 44.0881 19.2817 44.2169C18.8308 44.2814 18.337 44.3028 17.8431 44.3028C17.3493 44.2814 16.834 44.2169 16.2972 44.1096C15.2666 43.8734 14.3219 43.4869 13.4416 43.2508C13.0122 43.1219 12.5828 43.036 12.1748 42.9931C11.7669 42.9502 11.4019 42.9716 11.0583 43.0146C10.3713 43.1005 9.85595 43.3366 9.53388 43.5514C9.21182 43.7661 9.08299 43.9378 9.06152 43.9378C9.06152 43.9378 9.19035 43.7661 9.51241 43.5299C9.83448 43.2937 10.3498 43.0575 11.0368 42.9502C11.3804 42.9072 11.7669 42.8858 12.1748 42.9287C12.5828 42.9716 13.0122 43.0575 13.4631 43.1649C14.3434 43.4011 15.2881 43.7875 16.3187 44.0022C16.834 44.1096 17.3493 44.174 17.8431 44.1955C18.337 44.217 18.8093 44.174 19.2602 44.1311C20.162 44.0022 20.9564 43.7661 21.5791 43.4869C22.2017 43.2078 22.6956 42.9287 23.0176 42.714C23.1894 42.6066 23.2968 42.5207 23.3826 42.4563C23.49 42.3704 23.5329 42.3275 23.5329 42.349Z" fill="#FAFAFA"/>
<path d="M26.3662 42.1988C26.3662 42.1774 26.5595 42.2633 26.9245 42.3277C27.2895 42.3706 27.8048 42.3706 28.4489 42.1988C29.0715 42.0485 29.7801 41.7265 30.5745 41.4044C30.9825 41.2541 31.4119 41.1038 31.8842 41.0179C32.3566 40.9321 32.8504 40.9106 33.3443 40.9321C34.3534 40.9965 35.2767 41.2541 36.0711 41.5762C36.8655 41.8983 37.5526 42.2847 38.1108 42.6283C38.6691 42.9718 39.0985 43.2724 39.3991 43.4656C39.5494 43.573 39.6567 43.6374 39.7426 43.7018C39.8285 43.7662 39.85 43.7877 39.85 43.7877C39.85 43.7877 39.807 43.7662 39.7211 43.7233C39.6353 43.6589 39.5064 43.5945 39.3561 43.5086C39.0555 43.3153 38.6046 43.0362 38.0464 42.6927C37.4882 42.3706 36.8011 41.9841 36.0067 41.6621C35.2122 41.34 34.289 41.0824 33.3228 41.0179C32.829 40.9965 32.3566 41.0179 31.8842 41.1038C31.4334 41.1897 31.0039 41.3185 30.596 41.4903C29.8016 41.7909 29.093 42.113 28.4489 42.2633C27.8048 42.4136 27.268 42.4136 26.903 42.3491C26.538 42.2847 26.3662 42.1988 26.3662 42.1988Z" fill="#FAFAFA"/>
<path d="M38.9057 36.8094C38.9057 36.8094 38.7983 36.8523 38.6051 36.8953C38.4977 36.9167 38.3904 36.9597 38.2401 36.9812C38.0898 37.0026 37.9395 37.0456 37.7462 37.067C37.3812 37.1315 36.9518 37.1744 36.458 37.1959C35.9642 37.2173 35.4274 37.2173 34.8691 37.1744C34.3109 37.1315 33.7741 37.0456 33.3018 36.9382C32.8294 36.8309 32.4 36.702 32.0564 36.5947C31.8847 36.5303 31.7344 36.4659 31.5841 36.4229C31.4553 36.38 31.3264 36.3156 31.2405 36.2726C31.0473 36.1867 30.9614 36.1438 30.9614 36.1223C30.9614 36.1223 31.0688 36.1438 31.262 36.2297C31.3479 36.2726 31.4767 36.3156 31.6056 36.3585C31.7344 36.4014 31.9061 36.4659 32.0779 36.5088C32.4215 36.6161 32.8509 36.745 33.3232 36.8309C33.7956 36.9382 34.3109 37.0026 34.8691 37.067C35.4274 37.11 35.9642 37.11 36.4365 37.11C36.9089 37.0885 37.3598 37.0456 37.7033 37.0026C37.8751 36.9812 38.0468 36.9597 38.1971 36.9167C38.3474 36.8953 38.4548 36.8738 38.5621 36.8523C38.7983 36.8094 38.9057 36.7879 38.9057 36.8094Z" fill="#FAFAFA"/>
<path d="M8.67578 38.1838C8.67578 38.1838 8.69725 38.1624 8.76167 38.098C8.82608 38.055 8.91196 37.9691 9.04079 37.8832C9.27697 37.69 9.64197 37.4324 10.1143 37.1103C11.0376 36.4876 12.3688 35.6932 14.0006 35.1994C15.6324 34.7055 17.2212 34.6841 18.3162 34.8988C18.8745 35.0061 19.3039 35.135 19.583 35.2638C19.7333 35.3067 19.8407 35.3711 19.9051 35.4141C19.9695 35.457 20.0124 35.4785 20.0124 35.4785C20.0124 35.4785 19.8407 35.4141 19.5616 35.3067C19.261 35.1994 18.8315 35.0706 18.2948 34.9847C17.1997 34.7914 15.6538 34.8129 14.022 35.3067C12.4117 35.8006 11.0805 36.595 10.1358 37.1962C9.66345 37.4968 9.29844 37.7544 9.04079 37.9262C8.91196 38.0121 8.82608 38.0765 8.74019 38.1409C8.71872 38.1624 8.67578 38.1838 8.67578 38.1838Z" fill="#FAFAFA"/>
</g>
</svg>
