<svg width="33" height="33" viewBox="0 0 33 33" fill="none" xmlns="http://www.w3.org/2000/svg">
<path d="M11 0H3.66667C2.69421 0 1.76157 0.386308 1.07394 1.07394C0.386308 1.76157 0 2.69421 0 3.66667V11C0 11.9725 0.386308 12.9051 1.07394 13.5927C1.76157 14.2804 2.69421 14.6667 3.66667 14.6667H11C11.9725 14.6667 12.9051 14.2804 13.5927 13.5927C14.2804 12.9051 14.6667 11.9725 14.6667 11V3.66667C14.6667 2.69421 14.2804 1.76157 13.5927 1.07394C12.9051 0.386308 11.9725 0 11 0ZM3.66667 11V3.66667H11V11H3.66667Z" fill="#0079C8"/>
<path d="M29.334 0H22.0007C21.0282 0 20.0956 0.386308 19.4079 1.07394C18.7203 1.76157 18.334 2.69421 18.334 3.66667V11C18.334 11.9725 18.7203 12.9051 19.4079 13.5927C20.0956 14.2804 21.0282 14.6667 22.0007 14.6667H29.334C30.3064 14.6667 31.2391 14.2804 31.9267 13.5927C32.6143 12.9051 33.0007 11.9725 33.0007 11V3.66667C33.0007 2.69421 32.6143 1.76157 31.9267 1.07394C31.2391 0.386308 30.3064 0 29.334 0ZM22.0007 11V3.66667H29.334V11H22.0007Z" fill="#0079C8"/>
<path d="M11 18.3335H3.66667C2.69421 18.3335 1.76157 18.7198 1.07394 19.4074C0.386308 20.0951 0 21.0277 0 22.0002V29.3335C0 30.306 0.386308 31.2386 1.07394 31.9262C1.76157 32.6139 2.69421 33.0002 3.66667 33.0002H11C11.9725 33.0002 12.9051 32.6139 13.5927 31.9262C14.2804 31.2386 14.6667 30.306 14.6667 29.3335V22.0002C14.6667 21.0277 14.2804 20.0951 13.5927 19.4074C12.9051 18.7198 11.9725 18.3335 11 18.3335ZM3.66667 29.3335V22.0002H11V29.3335H3.66667Z" fill="#0079C8"/>
<path d="M29.334 18.3335H22.0007C21.0282 18.3335 20.0956 18.7198 19.4079 19.4074C18.7203 20.0951 18.334 21.0277 18.334 22.0002V29.3335C18.334 30.306 18.7203 31.2386 19.4079 31.9262C20.0956 32.6139 21.0282 33.0002 22.0007 33.0002H29.334C30.3064 33.0002 31.2391 32.6139 31.9267 31.9262C32.6143 31.2386 33.0007 30.306 33.0007 29.3335V22.0002C33.0007 21.0277 32.6143 20.0951 31.9267 19.4074C31.2391 18.7198 30.3064 18.3335 29.334 18.3335ZM22.0007 29.3335V22.0002H29.334V29.3335H22.0007Z" fill="#0079C8"/>
</svg>
