<svg width="51" height="37" viewBox="0 0 51 37" fill="none" xmlns="http://www.w3.org/2000/svg">
<path d="M50.1274 17.7312H45.8127C47.6065 13.6948 47.4125 10.4273 46.7338 8.21688C45.5703 4.27662 41.6435 0 35.826 0C34.2747 0 32.7234 0.288311 31.1236 0.864935C28.3603 1.87403 26.5181 2.97922 25.6939 3.55584C24.8698 2.97922 23.076 1.87403 20.2643 0.864935C18.6644 0.288311 17.0646 0 15.5618 0C9.7443 0 5.81749 4.27662 4.65399 8.21688C3.97529 10.5714 3.73289 14.1273 6.01141 18.5961H0.775665C0.339354 18.5961 0 18.9325 0 19.3649C0 19.7974 0.339354 20.1338 0.775665 20.1338H6.93251C7.17491 20.5662 7.46578 20.9987 7.80513 21.4312C12.847 28.639 23.8032 36.4714 25.7909 36.952V37C25.7909 37 25.8394 37 25.8878 36.952C25.9363 36.952 25.9848 36.952 26.0333 36.952V36.9039C27.73 36.087 38.25 29.3597 43.7766 21.3831C44.3099 20.6623 44.7462 19.9416 45.134 19.2208H50.2243C50.6606 19.2208 51 18.8844 51 18.4519C51 18.0195 50.5637 17.7312 50.1274 17.7312ZM42.3707 20.5662C37.2319 28.0143 27.7785 34.0208 25.7424 35.3182C23.6578 34.0208 14.2529 27.9662 9.06559 20.5662C8.96863 20.4221 8.87167 20.2779 8.77472 20.1338H15.9011C16.192 20.1338 16.4829 19.9896 16.6283 19.7013L19.8764 13.3584L24.9667 26.2844C25.0637 26.5727 25.403 26.7649 25.6939 26.7649C25.6939 26.7649 25.6939 26.7649 25.7424 26.7649C26.0817 26.7649 26.3726 26.5247 26.4696 26.1883L30.9297 11.0519L33.3051 18.6922C33.4021 18.9805 33.6445 19.1727 33.9354 19.2208C34.2262 19.2688 34.5171 19.1247 34.711 18.8844L36.6017 16.1455L38.2015 18.8364C38.347 19.0766 38.5894 19.2208 38.8802 19.2208H43.2433C42.9525 19.7013 42.6616 20.1338 42.3707 20.5662ZM44.116 17.7312H39.365L37.3774 14.3675C37.2319 14.1273 36.9895 13.9831 36.6987 13.9831C36.4078 13.9831 36.1654 14.0792 36.02 14.3195L34.3717 16.7221L31.7053 8.12078C31.6084 7.78442 31.269 7.59221 30.9297 7.54416C30.5903 7.54416 30.251 7.78442 30.154 8.12078L25.6454 23.5455L20.7491 11.1481C20.6521 10.8597 20.3612 10.6675 20.0703 10.6675C19.731 10.6675 19.4886 10.8117 19.3432 11.1L15.5133 18.5481H7.80513C5.86597 15.0403 5.3327 11.6766 6.20532 8.64935C7.22338 5.23766 10.5684 1.58571 15.6103 1.58571C16.9677 1.58571 18.3736 1.87403 19.7795 2.35455C23.3184 3.65195 25.2091 5.14156 25.2576 5.14156C25.5485 5.38182 25.9363 5.38182 26.2272 5.14156C26.2272 5.14156 28.1179 3.65195 31.7053 2.35455C33.1112 1.82597 34.5171 1.58571 35.8745 1.58571C40.8679 1.58571 44.2614 5.23766 45.2795 8.64935C46.1036 11.4364 45.6673 14.5117 44.116 17.7312Z" fill="#00335B"/>
</svg>
