<svg width="42" height="42" viewBox="0 0 42 42" fill="none" xmlns="http://www.w3.org/2000/svg">
<g clip-path="url(#clip0)">
<path d="M42 31.2015C42 30.0095 41.174 29.0066 40.0631 28.7312V25.6472C40.0631 22.1245 39.0794 18.6784 37.2182 15.6813C35.4766 12.8767 33.0364 10.5674 30.148 8.97867V8.76817C30.148 7.57044 29.172 6.59607 27.9724 6.59607H27.0975L27.1622 6.29764C27.1632 6.29329 27.164 6.28903 27.1649 6.2846C27.2755 5.71596 27.1375 5.16167 26.7766 4.72379C26.3802 4.24292 25.7494 3.95581 25.0891 3.95581H16.9086C16.2492 3.95581 15.6192 4.24251 15.2234 4.72272C14.8623 5.16069 14.7244 5.71546 14.8351 6.28468C14.836 6.28911 14.8368 6.29337 14.8378 6.29772L14.9126 6.6425H14.0253C12.8258 6.6425 11.8497 7.61793 11.8497 8.8169V8.97858C8.96126 10.5673 6.52107 12.8766 4.77955 15.6812C2.91843 18.6783 1.93462 22.1244 1.93462 25.6471V28.7312C0.824906 29.0069 0 30.0097 0 31.2015C0 32.4943 0.970594 33.5643 2.22231 33.7254L4.90785 37.3833C5.31054 37.9294 5.71938 38.0441 5.99132 38.0441H36.0087C36.2825 38.0441 36.6927 37.9289 37.0906 37.3823L39.7753 33.7255C41.0283 33.5646 42 32.4945 42 31.2015ZM36.0973 36.656C36.034 36.7431 35.9825 36.7914 35.954 36.8135H6.0457C6.01666 36.7914 5.96408 36.7424 5.89895 36.654L3.76474 33.7471H38.2329L36.0973 36.656ZM39.4478 32.5167H2.54986C1.82232 32.5167 1.23047 31.9267 1.23047 31.2016C1.23047 30.4764 1.82232 29.8865 2.54986 29.8865H19.6293C19.9691 29.8865 20.2445 29.6112 20.2445 29.2713C20.2445 28.9315 19.9691 28.6561 19.6293 28.6561H12.2803V25.7517C12.2803 24.3315 11.1229 23.176 9.7002 23.176H8.99095C7.56697 23.176 6.40853 24.3315 6.40853 25.7517V28.6561H3.16509V25.6473C3.16509 19.3725 6.46751 13.6192 11.8497 10.3949V17.3573C11.8497 17.6972 12.1251 17.9726 12.465 17.9726C12.8048 17.9726 13.0802 17.6972 13.0802 17.3573V9.35273C13.0802 9.35199 13.0802 9.35125 13.0802 9.35043V8.81698C13.0802 8.29649 13.5041 7.87305 14.0253 7.87305H15.1796L16.1424 12.3115C16.2144 12.6436 16.5421 12.8544 16.874 12.7823C17.2061 12.7103 17.4169 12.3827 17.3448 12.0507L16.0419 6.04416C16.0034 5.83876 16.0474 5.65747 16.1729 5.50538C16.3352 5.30859 16.6171 5.18628 16.9087 5.18628H17.7933V7.48972C17.7933 7.82957 18.0687 8.10495 18.4086 8.10495C18.7484 8.10495 19.0238 7.82957 19.0238 7.48972V5.18628H20.3836V9.64509C20.3836 9.98494 20.659 10.2603 20.9989 10.2603C21.3387 10.2603 21.6141 9.98494 21.6141 9.64509V5.18636H22.974V7.4898C22.974 7.82965 23.2494 8.10503 23.5892 8.10503C23.9291 8.10503 24.2045 7.82965 24.2045 7.4898V5.18636H25.0891C25.3815 5.18636 25.6644 5.30908 25.8271 5.50653C25.9525 5.65862 25.9965 5.83958 25.9581 6.04441L25.7402 7.04946C25.7347 7.06963 25.7302 7.09023 25.7268 7.11123L22.9189 20.0576H19.0814L17.9658 14.9139C17.8937 14.5817 17.5654 14.3712 17.2341 14.4431C16.902 14.515 16.6912 14.8427 16.7633 15.1747L17.9351 20.5778C18.07 21.2019 18.4747 21.2901 18.787 21.2901C18.8021 21.2901 18.8169 21.2899 18.8315 21.2895C18.857 21.2889 18.8855 21.2881 18.9178 21.2881H23.122C23.388 21.2881 23.8833 21.2881 24.0457 20.6543L24.0573 20.6101C24.0602 20.5995 24.0628 20.5889 24.0651 20.5782L26.8308 7.8267H27.9726C28.4937 7.8267 28.9177 8.24908 28.9177 8.76834V17.3088C28.9177 17.6486 29.193 17.924 29.5329 17.924C29.8727 17.924 30.1481 17.6486 30.1481 17.3088V10.3949C35.5304 13.6193 38.8328 19.3726 38.8328 25.6473V28.6562H35.5893V25.7518C35.5893 24.3316 34.432 23.1761 33.0092 23.1761H32.3C30.876 23.1761 29.7175 24.3316 29.7175 25.7518V28.6562H22.3989C22.059 28.6562 21.7836 28.9315 21.7836 29.2714C21.7836 29.6112 22.059 29.8866 22.3989 29.8866H39.448C40.1769 29.8866 40.7697 30.4765 40.7697 31.2017C40.7697 31.9268 40.1766 32.5167 39.4478 32.5167ZM11.0499 28.656H7.639V25.7516C7.639 25.0098 8.24553 24.4064 8.99095 24.4064H9.7002C10.4444 24.4064 11.0499 25.0098 11.0499 25.7516V28.656ZM30.9478 28.656V25.7516C30.9478 25.0098 31.5544 24.4064 32.2998 24.4064H33.009C33.7532 24.4064 34.3587 25.0098 34.3587 25.7516V28.656H30.9478Z" fill="#00335B"/>
</g>
<defs>
<clipPath id="clip0">
<rect width="42" height="42" fill="white"/>
</clipPath>
</defs>
</svg>
