<svg width="30" height="30" viewBox="0 0 30 30" fill="none" xmlns="http://www.w3.org/2000/svg">
<path d="M14.6708 7.66589C10.512 7.66589 7.14509 11.0364 7.14509 15.1916C7.14509 19.3504 10.5156 22.7173 14.6708 22.7173C18.8296 22.7173 22.1965 19.3467 22.1965 15.1916C22.1965 11.0328 18.8259 7.66589 14.6708 7.66589ZM14.6708 20.0763C11.9712 20.0763 9.78605 17.89 9.78605 15.1916C9.78605 12.4932 11.9724 10.3068 14.6708 10.3068C17.3692 10.3068 19.5555 12.4932 19.5555 15.1916C19.5567 17.89 17.3704 20.0763 14.6708 20.0763Z" fill="#00335B"/>
<path d="M20.7124 0.625333C18.014 0.499457 11.3304 0.505567 8.62953 0.625333C6.25621 0.736544 4.16275 1.30971 2.47503 2.99743C-0.345577 5.81804 0.014943 9.61878 0.014943 15.1928C0.014943 20.8976 -0.302803 24.6103 2.47503 27.3881C5.30664 30.2185 9.16237 29.8482 14.6704 29.8482C20.3214 29.8482 22.2718 29.8519 24.27 29.0783C26.9867 28.0236 29.0374 25.5953 29.2378 21.2336C29.3649 18.534 29.3576 11.8516 29.2378 9.15071C28.9958 4.002 26.2327 0.87953 20.7124 0.625333ZM24.9837 25.522C23.1347 27.371 20.5695 27.206 14.6349 27.206C8.52443 27.206 6.07412 27.2965 4.28619 25.5037C2.22695 23.4542 2.59969 20.1631 2.59969 15.1732C2.59969 8.42112 1.90676 3.55838 8.68331 3.2113C10.2403 3.1563 10.6986 3.13797 14.6178 3.13797L14.6728 3.17464C21.1854 3.17464 26.295 2.4927 26.6018 9.26803C26.6714 10.814 26.6873 11.2784 26.6873 15.1916C26.6861 21.2312 26.801 23.6962 24.9837 25.522Z" fill="#00335B"/>
<path d="M22.4949 9.12769C23.4661 9.12769 24.2535 8.34034 24.2535 7.36909C24.2535 6.39784 23.4661 5.61049 22.4949 5.61049C21.5236 5.61049 20.7363 6.39784 20.7363 7.36909C20.7363 8.34034 21.5236 9.12769 22.4949 9.12769Z" fill="#00335B"/>
</svg>
