<svg width="41" height="41" viewBox="0 0 41 41" fill="none" xmlns="http://www.w3.org/2000/svg">
<path opacity="0.05" d="M20.5 34.2734V39.0781H39.0781V20.5H34.2734C34.2734 21.6893 33.801 22.8299 32.96 23.6709C32.119 24.5119 30.9784 24.9844 29.7891 24.9844C28.5997 24.9844 27.4591 24.5119 26.6181 23.6709C25.7771 22.8299 25.3047 21.6893 25.3047 20.5H20.5V25.3047C19.3107 25.3047 18.1701 25.7771 17.3291 26.6181C16.4881 27.4591 16.0156 28.5997 16.0156 29.7891C16.0156 30.9784 16.4881 32.119 17.3291 32.96C18.1701 33.801 19.3107 34.2734 20.5 34.2734Z" fill="#0079C8"/>
<path opacity="0.05" d="M20.5 6.72656V1.92188H1.92188V20.5H6.72656C6.72656 19.3107 7.19902 18.1701 8.04001 17.3291C8.88099 16.4881 10.0216 16.0156 11.2109 16.0156C12.4003 16.0156 13.5409 16.4881 14.3819 17.3291C15.2229 18.1701 15.6953 19.3107 15.6953 20.5H20.5V15.6953C21.6893 15.6953 22.83 15.2229 23.6709 14.3819C24.5119 13.5409 24.9844 12.4003 24.9844 11.2109C24.9844 10.0216 24.5119 8.88099 23.6709 8.04001C22.83 7.19902 21.6893 6.72656 20.5 6.72656Z" fill="#0079C8"/>
<path d="M24.3438 0.640625V3.20312H37.7969V19.2188H32.9922V20.5C32.9922 21.3495 32.6547 22.1642 32.054 22.765C31.4533 23.3657 30.6386 23.7031 29.7891 23.7031C28.9395 23.7031 28.1248 23.3657 27.5241 22.765C26.9234 22.1642 26.5859 21.3495 26.5859 20.5V19.2188H21.7812V16.8331C23.0557 16.5433 24.1939 15.8291 25.0092 14.8076C25.8245 13.7861 26.2685 12.5179 26.2685 11.2109C26.2685 9.90396 25.8245 8.63577 25.0092 7.61427C24.1939 6.59277 23.0557 5.87859 21.7812 5.58881V0.640625H0.640625V3.20312H19.2188V8.00781H20.5C21.3495 8.00781 22.1642 8.34528 22.765 8.94599C23.3657 9.54669 23.7031 10.3614 23.7031 11.2109C23.7031 12.0605 23.3657 12.8752 22.765 13.4759C22.1642 14.0766 21.3495 14.4141 20.5 14.4141H19.2188V19.2188H16.8331C16.5433 17.9443 15.8291 16.8061 14.8076 15.9908C13.7861 15.1755 12.5179 14.7315 11.2109 14.7315C9.90396 14.7315 8.63577 15.1755 7.61427 15.9908C6.59277 16.8061 5.87859 17.9443 5.58881 19.2188H3.20312V5.76562H0.640625V21.7812H8.00781V20.5C8.00781 19.6505 8.34528 18.8358 8.94599 18.235C9.54669 17.6343 10.3614 17.2969 11.2109 17.2969C12.0605 17.2969 12.8752 17.6343 13.4759 18.235C14.0766 18.8358 14.4141 19.6505 14.4141 20.5V21.7812H19.2188V24.1669C17.9443 24.4567 16.8061 25.1709 15.9908 26.1924C15.1755 27.2139 14.7315 28.4821 14.7315 29.7891C14.7315 31.096 15.1755 32.3642 15.9908 33.3857C16.8061 34.4072 17.9443 35.1214 19.2188 35.4112V37.7969H3.20312V24.3438H0.640625V40.3594H40.3594V37.7969H21.7812V32.9922H20.5C19.6505 32.9922 18.8358 32.6547 18.235 32.054C17.6343 31.4533 17.2969 30.6386 17.2969 29.7891C17.2969 28.9395 17.6343 28.1248 18.235 27.5241C18.8358 26.9234 19.6505 26.5859 20.5 26.5859H21.7812V21.7812H24.1669C24.4567 23.0557 25.1709 24.1939 26.1924 25.0092C27.2139 25.8245 28.4821 26.2685 29.7891 26.2685C31.096 26.2685 32.3642 25.8245 33.3857 25.0092C34.4072 24.1939 35.1214 23.0557 35.4112 21.7812H37.7969V35.2344H40.3594V0.640625H24.3438Z" fill="#0079C8"/>
</svg>
