<svg width="29" height="30" viewBox="0 0 29 30" fill="none" xmlns="http://www.w3.org/2000/svg">
<path d="M28.8535 29.3937V29.3925H28.8607V18.8079C28.8607 13.6298 27.746 9.64107 21.6925 9.64107C18.7823 9.64107 16.8294 11.238 16.0322 12.752H15.948V10.1245H10.2083V29.3925H16.1849V19.8517C16.1849 17.3396 16.6611 14.9105 19.772 14.9105C22.8373 14.9105 22.8829 17.7774 22.8829 20.0128V29.3937H28.8535Z" fill="#00335B"/>
<path d="M0.476208 10.1257H6.45997V29.3938H0.476208V10.1257Z" fill="#00335B"/>
<path d="M3.46568 0.533203C1.55246 0.533203 0 2.08566 0 3.99888C0 5.9121 1.55246 7.49702 3.46568 7.49702C5.37889 7.49702 6.93135 5.9121 6.93135 3.99888C6.93015 2.08566 5.37769 0.533203 3.46568 0.533203Z" fill="#00335B"/>
</svg>
