<svg width="40" height="40" viewBox="0 0 40 40" fill="none" xmlns="http://www.w3.org/2000/svg">
<path d="M4.66659 2.66602H3.99995C3.63175 2.66602 3.33331 2.96445 3.33331 3.33266C3.33331 3.70086 3.63175 3.99938 3.99995 3.99938H4.66659C5.0348 3.99938 5.33323 3.70094 5.33323 3.33273C5.33323 2.96453 5.0348 2.66602 4.66659 2.66602Z" fill="#00335B"/>
<path d="M7.99997 2.66602H7.33333C6.96512 2.66602 6.66669 2.96445 6.66669 3.33266C6.66669 3.70086 6.9652 3.9993 7.33333 3.9993H7.99997C8.36817 3.9993 8.66661 3.70086 8.66661 3.33266C8.66661 2.96445 8.36817 2.66602 7.99997 2.66602Z" fill="#00335B"/>
<path d="M11.3333 2.66602H10.6666C10.2984 2.66602 10 2.96445 10 3.33266C10 3.70086 10.2984 3.9993 10.6666 3.9993H11.3333C11.7015 3.9993 11.9999 3.70086 11.9999 3.33266C11.9999 2.96445 11.7014 2.66602 11.3333 2.66602Z" fill="#00335B"/>
<path d="M31.9999 2.66602H14C13.6317 2.66602 13.3333 2.96445 13.3333 3.33266C13.3333 3.70086 13.6317 3.9993 14 3.9993H31.9999C32.3681 3.9993 32.6666 3.70086 32.6666 3.33266C32.6666 2.96445 32.3681 2.66602 31.9999 2.66602Z" fill="#00335B"/>
<path d="M38.6666 24H38V20.6666C37.9995 18.8 37.2837 17.0045 36 15.6493V3.33336C35.9978 1.49328 34.5067 0.0021875 32.6666 0H3.33336C1.49328 0.0021875 0.0021875 1.49328 0 3.33336V30C0.0021875 31.84 1.49328 33.3311 3.33336 33.3334H21.3334V35.3334C21.3363 37.9095 23.4239 39.9971 26 40H35.3334C37.9095 39.997 39.9971 37.9095 40 35.3334V25.3334C40 24.597 39.403 24 38.6666 24ZM36.6666 20.6666V24H24.6666V20.6666C24.6666 17.353 27.353 14.6666 30.6666 14.6666C33.9803 14.6666 36.6666 17.353 36.6666 20.6666ZM1.33336 3.33336C1.33336 2.22883 2.22883 1.33336 3.33336 1.33336H32.6667C33.7713 1.33336 34.6667 2.22883 34.6667 3.33336V5.33336H1.33336V3.33336ZM21.3334 25.3334V32H3.33336C2.22883 32 1.33336 31.1045 1.33336 30V6.66664H34.6667V14.528C32.4145 13.0547 29.5356 12.9353 27.1691 14.2171C24.8027 15.4989 23.3298 17.9753 23.3334 20.6666V24H22.6667C21.9303 24 21.3334 24.597 21.3334 25.3334ZM38.6666 26.6666H36.6666C36.2984 26.6666 36 26.9651 36 27.3333C36 27.7015 36.2984 27.9999 36.6666 27.9999H38.6666V29.3333H36.6666C36.2984 29.3333 36 29.6317 36 29.9999C36 30.3681 36.2984 30.6666 36.6666 30.6666H38.6666V32H36.6666C36.2984 32 36 32.2984 36 32.6666C36 33.0348 36.2984 33.3333 36.6666 33.3333H38.6666V34.6666H36.6666C36.2984 34.6666 36 34.9652 36 35.3333C36 35.7015 36.2984 35.9999 36.6666 35.9999H38.6C38.281 37.5509 36.9167 38.6646 35.3334 38.6666H26C24.4166 38.6645 23.0523 37.5509 22.7334 35.9999H24.6667C25.0349 35.9999 25.3334 35.7014 25.3334 35.3333C25.3334 34.9651 25.0349 34.6666 24.6667 34.6666H22.6667V33.3333H24.6667C25.0349 33.3333 25.3334 33.0348 25.3334 32.6666C25.3334 32.2984 25.0349 32 24.6667 32H22.6667V30.6666H24.6667C25.0349 30.6666 25.3334 30.3682 25.3334 30C25.3334 29.6318 25.0349 29.3334 24.6667 29.3334H22.6667V28H24.6667C25.0349 28 25.3334 27.7016 25.3334 27.3334C25.3334 26.9652 25.0349 26.6667 24.6667 26.6667H22.6667V25.3334H38.6667V26.6666H38.6666Z" fill="#00335B"/>
<path d="M29.9996 32.5427V33.9988C29.9996 34.367 30.2981 34.6654 30.6663 34.6654C31.0345 34.6654 31.3329 34.367 31.3329 33.9988V32.5427C32.2506 32.2195 32.8013 31.2815 32.6365 30.3226C32.4717 29.3637 31.6392 28.6635 30.6663 28.6654C29.6933 28.6635 28.8609 29.3638 28.696 30.3226C28.5312 31.2815 29.0819 32.2195 29.9996 32.5427ZM30.6663 29.9988C31.0345 29.9988 31.3329 30.2973 31.3329 30.6654C31.3329 31.0336 31.0344 31.332 30.6663 31.332C30.2981 31.332 29.9996 31.0335 29.9996 30.6654C29.9996 30.2973 30.2981 29.9988 30.6663 29.9988Z" fill="#00335B"/>
<path d="M11.3332 13.3344C10.965 13.3344 10.6665 13.6328 10.6665 14.001V16.001H5.33318V10.6676H7.99982C8.36802 10.6676 8.66646 10.3692 8.66646 10.001C8.66646 9.63279 8.36802 9.33435 7.99982 9.33435H5.33318C4.59677 9.33435 3.99982 9.9313 3.99982 10.6677V16.001C3.99982 16.7374 4.59677 17.3344 5.33318 17.3344H10.6665C11.4029 17.3344 11.9999 16.7374 11.9999 16.001V14.001C11.9998 13.6328 11.7013 13.3344 11.3332 13.3344Z" fill="#00335B"/>
<path d="M7.13811 12.196C6.87655 11.9433 6.46069 11.9469 6.20358 12.2041C5.94639 12.4613 5.9428 12.8771 6.19546 13.1387L7.52881 14.472C7.65381 14.597 7.82335 14.6673 8.00014 14.6673H8.03014C8.21717 14.659 8.3921 14.5724 8.51217 14.4287L11.8455 10.4287C11.9982 10.2458 12.0417 9.9953 11.9596 9.77155C11.8775 9.54788 11.6823 9.38499 11.4476 9.3442C11.2128 9.30342 10.9741 9.391 10.8215 9.57397L7.95483 13.014L7.13811 12.196Z" fill="#00335B"/>
<path d="M11.3332 24.6673C10.965 24.6673 10.6665 24.9657 10.6665 25.3339V27.3339H5.33318V22.0006H7.99982C8.36802 22.0006 8.66646 21.7021 8.66646 21.334C8.66646 20.9658 8.36802 20.6674 7.99982 20.6674H5.33318C4.59677 20.6674 3.99982 21.2643 3.99982 22.0007V27.3341C3.99982 28.0705 4.59677 28.6674 5.33318 28.6674H10.6665C11.4029 28.6674 11.9999 28.0705 11.9999 27.3341V25.3341C11.9998 24.9658 11.7013 24.6673 11.3332 24.6673Z" fill="#00335B"/>
<path d="M7.13811 23.5289C6.87655 23.2763 6.46069 23.2799 6.20358 23.5371C5.94639 23.7942 5.9428 24.21 6.19546 24.4716L7.52881 25.8049C7.65381 25.9299 7.82335 26.0003 8.00014 26.0003H8.03014C8.21717 25.9919 8.3921 25.9053 8.51217 25.7616L11.8455 21.7616C11.9982 21.5787 12.0417 21.3282 11.9596 21.1046C11.8775 20.8809 11.6823 20.718 11.4476 20.6772C11.2128 20.6364 10.9741 20.724 10.8215 20.907L7.95483 24.347L7.13811 23.5289Z" fill="#00335B"/>
<path d="M14.6665 11.3334H19.9998C20.368 11.3334 20.6664 11.0349 20.6664 10.6667C20.6664 10.2985 20.368 10 19.9998 10H14.6665C14.2983 10 13.9998 10.2984 13.9998 10.6666C13.9998 11.0348 14.2983 11.3334 14.6665 11.3334Z" fill="#00335B"/>
<path d="M23.9998 14C23.9998 13.6318 23.7014 13.3334 23.3332 13.3334H14.6665C14.2983 13.3334 13.9998 13.6318 13.9998 14C13.9998 14.3682 14.2983 14.6667 14.6665 14.6667H23.3331C23.7014 14.6667 23.9998 14.3682 23.9998 14Z" fill="#00335B"/>
<path d="M19.9998 21.333H14.6665C14.2983 21.333 13.9998 21.6315 13.9998 21.9996C13.9998 22.3678 14.2983 22.6663 14.6665 22.6663H19.9998C20.368 22.6663 20.6664 22.3679 20.6664 21.9996C20.6664 21.6314 20.368 21.333 19.9998 21.333Z" fill="#00335B"/>
<path d="M19.3331 24.6664H14.6665C14.2983 24.6664 13.9998 24.9648 13.9998 25.333C13.9998 25.7012 14.2983 25.9997 14.6665 25.9997H19.3331C19.7013 25.9997 19.9997 25.7012 19.9997 25.333C19.9997 24.9648 19.7013 24.6664 19.3331 24.6664Z" fill="#00335B"/>
</svg>
