<svg width="89" height="28" viewBox="0 0 89 28" fill="none" xmlns="http://www.w3.org/2000/svg">
<g clip-path="url(#clip0)">
<path d="M87.9611 18.0903C87.2169 18.0903 86.2059 18.0457 85.6 17.8387C84.8872 17.5904 84.2593 17.1 83.5936 16.5777C83.2577 16.3166 82.9123 16.0491 82.5418 15.7976C82.0866 15.4919 81.7098 15.3486 81.3487 15.3486C80.862 15.3486 80.3911 15.6161 79.8165 16.2179C79.0378 17.0299 77.8008 18.8705 77.3047 19.6252C77.2701 19.6697 77.2293 19.7239 77.1665 19.7239C77.0441 19.7239 77.0409 19.5647 77.0409 19.5105C77.0158 17.4025 76.6893 5.89742 76.4632 2.46469C76.3628 0.942568 75.8981 0 75.2481 0C74.7269 0 73.9451 0.703742 73.4585 2.68441C72.2151 7.72842 69.562 18.9469 68.4191 24.6437C68.3846 24.7997 68.2119 24.7997 68.1805 24.6437C68.0518 24.061 67.9419 23.3986 67.832 22.8445C67.4929 21.09 67.1978 19.571 66.6138 18.7367C65.9513 17.7878 64.9685 17.7273 63.7817 18.5266C63.5211 18.7017 63.2668 18.9246 62.9999 19.1571C62.2369 19.8226 61.3735 20.5773 59.9417 20.5773H45.9352L45.5898 22.4624H60.3311C61.8382 22.4624 63.2354 21.5803 64.0705 20.9753C64.4944 20.6664 64.7864 20.4881 65.0219 20.4881C65.3453 20.4881 65.4929 20.8225 65.6122 21.3256C65.6718 21.5708 65.744 21.9115 65.8257 22.3032C66.1051 23.6024 66.5227 25.6531 67.0565 27.016C67.3045 27.6497 67.6719 28 68.0926 28C68.7362 28 69.3925 27.2294 69.763 26.0321C70.259 24.4367 73.2387 11.3427 74.4977 5.85602C74.5511 5.63312 74.5794 5.50574 74.5794 5.49301C74.6013 5.39748 74.6641 5.33379 74.7395 5.33379C74.8054 5.33379 74.8776 5.39111 74.8808 5.5153V5.5344C74.9781 11.0847 75.2481 20.832 75.6563 21.8319C75.8824 22.386 76.2277 22.679 76.6547 22.679C77.1508 22.679 77.7474 22.2714 78.1713 21.6472C78.3848 21.332 78.6579 20.9212 78.9468 20.4849C79.6595 19.4118 80.4664 18.1986 80.7019 17.9406C81.0567 17.5585 81.4649 17.5585 82.0457 17.9597C82.1305 18.0171 82.231 18.0903 82.3503 18.1763C82.9688 18.6316 84.0018 19.259 85.1635 19.5806C85.9328 19.7939 86.9249 19.8417 87.6188 19.8417C88.0678 19.8417 88.5451 19.8226 88.6832 19.813L89.0035 18.068C88.8339 18.0776 88.3818 18.0903 87.9611 18.0903Z" fill="white"/>
<path d="M42.9708 3.0542C44.2582 3.0542 45.2409 3.32805 45.9222 3.87258C46.6036 4.4171 46.9458 5.18135 46.9458 6.16531C46.9458 6.83402 46.8265 7.41039 46.591 7.88804C46.3555 8.36888 46.0196 8.76374 45.5863 9.07581C45.153 9.38787 44.6318 9.61715 44.0289 9.76363C43.423 9.91011 42.7605 9.98016 42.0321 9.98016H40.2675L39.4731 14.6866C39.4731 14.6866 37.4386 14.8236 37.7023 13.2983C37.9692 11.773 39.4606 3.0542 39.4606 3.0542H42.9708ZM42.098 8.24151C42.5062 8.24151 42.8829 8.20966 43.2283 8.14916C43.5768 8.08866 43.8688 7.98357 44.1106 7.83709C44.3523 7.6938 44.5439 7.50274 44.6789 7.27028C44.817 7.03464 44.8861 6.74168 44.8861 6.38503C44.8861 6.07296 44.8327 5.81185 44.7228 5.60805C44.6129 5.40107 44.4591 5.23866 44.2613 5.12084C44.0635 5.00621 43.828 4.92023 43.5517 4.86928C43.2754 4.81833 42.974 4.79285 42.6443 4.79285H41.1623L40.5501 8.23832H42.098V8.24151Z" fill="white"/>
<path d="M22.8546 8.01832C23.1278 7.55022 23.4543 7.17128 23.8279 6.89106C24.2016 6.60765 24.6505 6.46436 25.1812 6.46436C25.2565 6.46436 25.3413 6.46754 25.4292 6.47391C25.5171 6.48028 25.5956 6.49301 25.6616 6.51531L25.3978 8.33994C25.2754 8.30491 25.1686 8.28262 25.0744 8.27307C24.9834 8.26351 24.8892 8.25715 24.8013 8.25715C24.3523 8.25715 23.9818 8.33994 23.6961 8.50871C23.4103 8.6743 23.178 8.87491 23.0022 9.11055C22.8263 9.34619 22.7007 9.58502 22.6223 9.83022C22.5438 10.0754 22.4967 10.2728 22.4747 10.4161L21.7337 14.715H19.8027L20.9079 8.40999C20.9519 8.19664 20.999 7.92279 21.0461 7.58843C21.0963 7.25407 21.1309 6.95475 21.1528 6.68726C21.1528 6.68726 22.8169 6.47072 22.8169 8.02469H22.8546V8.01832Z" fill="white"/>
<path d="M13.3536 14.881C14.9141 14.881 15.7492 14.1836 16.2579 13.3843L16.2296 13.5053C16.0821 14.2536 16.6975 14.7122 17.2752 14.7122H17.7775L19.1716 6.6717H17.4447L17.2124 7.89768C16.9015 7.26399 16.0224 6.50293 14.6001 6.50293C12.0883 6.50293 10.6032 8.60142 10.3551 10.8336C10.0694 13.3907 11.6958 14.881 13.3536 14.881ZM14.8481 7.81488C17.7399 7.97728 16.7979 13.5817 13.8591 13.4193C11.1997 13.2697 12.0286 7.65885 14.8481 7.81488Z" fill="white"/>
<path d="M58.1928 6.38184H57.6591C57.6591 6.38184 56.8741 10.945 56.7862 11.4672C56.5947 12.5849 56.0641 13.3492 54.5727 13.3492C53.7249 13.3492 52.896 12.8301 53.0907 11.6647C53.1661 11.2125 53.7312 7.89759 53.7783 7.6301C53.9353 6.73211 53.1818 6.38184 52.5601 6.38184H52.0891C51.9729 7.07602 51.458 9.99289 51.2602 11.1361C51.1786 11.5946 51.1503 12.0627 51.1849 12.3652C51.3607 13.916 52.7014 14.8618 54.3623 14.8618C57.2289 14.8618 58.3059 13.3428 58.6481 11.5373C58.7611 10.9418 59.3043 7.93261 59.3483 7.62692C59.4707 6.73211 58.7423 6.38184 58.1928 6.38184Z" fill="white"/>
<path d="M63.6937 7.42303C64.8052 7.42303 65.1286 7.76375 65.5242 7.95481C65.6058 7.80833 66.058 6.94219 66.1898 6.69063C66.014 6.54414 65.2322 6.11426 63.8696 6.11426H63.8444C61.5807 6.11426 60.4912 7.61409 60.4912 8.76682C60.4912 11.1423 63.7534 10.773 63.7534 12.2314C63.7534 12.9542 63.025 13.4383 62.0453 13.4383C61.2039 13.4383 60.5288 13.037 60.039 12.7186C59.9574 12.8778 59.5147 13.6962 59.3608 13.9446C59.7219 14.2025 60.6136 14.7852 62.149 14.7852C64.1113 14.7852 65.6247 13.486 65.6247 12.0371C65.6247 9.57883 62.3248 9.83995 62.3248 8.46431C62.3248 7.9166 62.9527 7.42303 63.6937 7.42303Z" fill="white"/>
<path d="M49.5266 3.16553C49.1875 3.16553 49.1969 3.16553 49.0619 3.16553L47.0054 14.7088H48.8673L50.6946 4.43608C50.8265 3.71324 50.2676 3.16553 49.5266 3.16553Z" fill="white"/>
<path d="M33.7905 10.9225H27.2472C27.2252 11.6485 27.423 12.2472 27.8438 12.7153C28.2614 13.1866 28.8611 13.419 29.6429 13.419C30.4247 13.419 31.2944 13.2534 32.2551 12.9159L32.4843 14.2724C31.4733 14.6737 30.4561 14.8775 29.445 14.8775C28.2645 14.8775 27.3351 14.5208 26.6538 13.8043C25.9913 13.1229 25.6616 12.2472 25.6616 11.1741C25.6616 9.82071 26.1232 8.63614 27.0431 7.61396C27.9631 6.59178 29.084 6.0791 30.4058 6.0791C31.4765 6.0791 32.3179 6.43575 32.9365 7.14267C33.5519 7.85279 33.8596 8.79535 33.8596 9.96719C33.8564 10.2793 33.8345 10.5977 33.7905 10.9225ZM32.2551 9.59781C32.2457 9.06284 32.0668 8.59792 31.7245 8.20625C31.3383 7.76999 30.8328 7.55346 30.2049 7.55346C29.5644 7.55346 28.9929 7.76999 28.4874 8.20625C28.0353 8.59474 27.7245 9.05965 27.5612 9.59781H32.2551Z" fill="white"/>
<path d="M5.46337 13.2375C0.574744 13.5496 1.60145 5.01236 5.95631 4.73532C7.18083 4.65571 8.38336 5.23845 8.88886 6.02817L10.7037 4.83085C9.7523 3.63354 8.28289 2.97119 6.51205 2.97119C2.81026 2.97119 -0.175661 6.3275 0.00644536 9.9704C0.182273 13.5241 2.25452 15.0144 5.02694 15.0144C7.19653 15.0144 8.74757 14.2151 9.8151 13.1484L7.89983 12.1867C7.34095 12.6739 6.28599 13.1866 5.46337 13.2375Z" fill="white"/>
</g>
<defs>
<clipPath id="clip0">
<rect width="89" height="28" fill="white"/>
</clipPath>
</defs>
</svg>
