<svg width="15" height="19" viewBox="0 0 15 19" fill="none" xmlns="http://www.w3.org/2000/svg">
<path d="M7.72934 0C3.98076 0 0.931244 3.14302 0.931244 7.00508C0.931244 12.7894 7.2767 18.3436 7.54693 18.5773C7.59741 18.6215 7.66147 18.646 7.7278 18.6465C7.79413 18.6469 7.85848 18.6232 7.90949 18.5796C8.17972 18.35 14.5274 12.8914 14.5274 7.00508C14.5274 3.14302 11.4779 0 7.72934 0ZM7.73048 17.9689C6.68754 17.0104 1.49775 11.9911 1.49775 7.00508C1.49775 3.4635 4.29347 0.582688 7.72934 0.582688C11.1652 0.582688 13.9609 3.4635 13.9609 7.00508C13.9609 12.0756 8.77625 17.0232 7.73048 17.9689Z" fill="#333333"/>
<path d="M7.72938 3.49609C5.8548 3.49609 4.33032 5.06415 4.33032 6.99232C4.33032 8.92049 5.8548 10.4886 7.72938 10.4886C9.60396 10.4886 11.1284 8.92049 11.1284 6.99232C11.1284 5.06415 9.60396 3.49609 7.72938 3.49609ZM7.72938 9.90585C6.16751 9.90585 4.89683 8.59884 4.89683 6.99232C4.89683 5.38581 6.16751 4.0788 7.72938 4.0788C9.29124 4.0788 10.5619 5.38581 10.5619 6.99232C10.5619 8.59884 9.29124 9.90585 7.72938 9.90585Z" fill="#333333"/>
</svg>
