<svg width="48" height="48" viewBox="0 0 48 48" fill="none" xmlns="http://www.w3.org/2000/svg">
<path fill-rule="evenodd" clip-rule="evenodd" d="M39.0132 20.2821C39.4335 19.5925 39.4335 18.7359 39.013 18.0464L38.1837 16.6865C38.0745 16.5073 38.0322 16.2945 38.0649 16.0873L38.3121 14.5167C38.4381 13.7164 38.1093 12.9232 37.4541 12.4465L36.1689 11.5117C35.9989 11.388 35.8782 11.2076 35.8287 11.0034L35.4544 9.45658C35.2644 8.67088 34.6582 8.06478 33.8726 7.87463L32.3257 7.50025C32.1215 7.4508 31.941 7.33002 31.8175 7.16009L30.8825 5.87454C30.4059 5.21939 29.6126 4.8904 28.8124 5.0165L27.2414 5.26368C27.0342 5.29626 26.8213 5.25407 26.6422 5.14486L25.2821 4.31532C24.5925 3.89485 23.736 3.89493 23.0464 4.31532L21.6864 5.14462C21.5074 5.25392 21.2946 5.29595 21.0872 5.26345L19.5166 5.01626C18.7164 4.89032 17.9231 5.21915 17.4465 5.87431L16.5116 7.15955C16.388 7.32947 16.2075 7.45025 16.0032 7.4997L14.4564 7.874C13.6709 8.064 13.0646 8.67017 12.8744 9.4558L12.5001 11.0027C12.4506 11.2069 12.3299 11.3874 12.1599 11.511L10.8744 12.446C10.2192 12.9224 9.89046 13.7156 10.0163 14.516L10.2635 16.0871C10.2961 16.2944 10.2539 16.5072 10.1447 16.6863L9.31523 18.0465C8.89491 18.7361 8.89491 19.5926 9.3153 20.2821L10.1446 21.6421C10.2538 21.8213 10.2961 22.0341 10.2634 22.2413L10.0162 23.8119C9.89023 24.6122 10.2191 25.4055 10.8742 25.8821L12.1594 26.8169C12.3294 26.9404 12.4502 27.121 12.4996 27.3252L12.8739 28.872C13.0639 29.6577 13.6701 30.2638 14.4557 30.454L15.1016 30.6103L10.7302 40.3614C10.6373 40.5687 10.663 40.8098 10.7976 40.9927C10.9322 41.1757 11.1546 41.2722 11.3802 41.2452L14.8976 40.8246L16.9238 43.7302C17.0424 43.9001 17.2359 43.9999 17.4407 43.9999C17.4603 43.9999 17.4802 43.999 17.4998 43.9972C17.7259 43.9759 17.9232 43.8346 18.0161 43.6275L22.4806 33.6682L23.0463 34.0131C23.391 34.2233 23.7775 34.3284 24.1641 34.3284C24.5506 34.3284 24.9371 34.2233 25.2819 34.0131L25.868 33.6558L30.3381 43.6275C30.431 43.8348 30.6282 43.9759 30.8543 43.9972C30.8741 43.9991 30.8939 44 30.9135 44C31.1182 44 31.3118 43.9002 31.4303 43.7302L33.4566 40.8247L36.9739 41.2452C37.1994 41.272 37.422 41.1758 37.5565 40.9928C37.6911 40.8098 37.7169 40.5687 37.6239 40.3615L33.2503 30.605L33.8719 30.4546C34.6575 30.2646 35.2637 29.6584 35.4539 28.8728L35.8282 27.3259C35.8777 27.1217 35.9985 26.9411 36.1684 26.8176L37.4539 25.8826C38.1091 25.4061 38.4379 24.613 38.312 23.8126L38.0648 22.2414C38.0322 22.0342 38.0744 21.8214 38.1836 21.6423L39.0132 20.2821ZM17.3211 42.0959L15.7153 39.7933C15.5822 39.6023 15.3545 39.5001 15.1234 39.528L12.336 39.8612L16.3188 30.9766C16.3916 31.0301 16.4569 31.0943 16.5107 31.1684L17.4457 32.454C17.5345 32.5761 17.6344 32.6868 17.7432 32.7854L15.6469 37.4617C15.5045 37.7794 15.6466 38.1523 15.9642 38.2948C16.048 38.3323 16.1356 38.3501 16.2216 38.3501C16.4624 38.3501 16.6924 38.2113 16.7972 37.9774L18.8861 33.3177C19.0916 33.3459 19.3033 33.3454 19.5157 33.312L21.0868 33.0648C21.1809 33.0501 21.2759 33.0514 21.3685 33.0667L17.3211 42.0959ZM36.0183 39.8611L33.2308 39.528C32.9995 39.5002 32.7721 39.6023 32.6389 39.7933L31.0332 42.0959L26.984 33.0632C27.0689 33.0516 27.1556 33.0516 27.2413 33.0651L28.8118 33.3122C29.0328 33.347 29.2531 33.3459 29.4664 33.3141L31.5569 37.9776C31.6618 38.2116 31.8917 38.3502 32.1325 38.3502C32.2186 38.3502 32.3062 38.3325 32.3899 38.2949C32.7075 38.1526 32.8496 37.7795 32.7072 37.4619L30.6029 32.7677C30.7044 32.6735 30.7982 32.5692 30.8819 32.4542L31.8167 31.169C31.8757 31.0879 31.9478 31.0185 32.0289 30.9623L36.0183 39.8611ZM37.9367 19.6257L37.1072 20.9859C36.8428 21.4198 36.7404 21.9353 36.8194 22.4373L37.0666 24.0084C37.1186 24.3388 36.9828 24.6662 36.7124 24.8629L35.4268 25.798C35.0153 26.0974 34.7226 26.5347 34.6029 27.0293L34.2285 28.5761C34.15 28.9004 33.8999 29.1507 33.5755 29.2292L32.0286 29.6035C31.5339 29.7232 31.0966 30.0158 30.7972 30.4274L29.8624 31.7126C29.6657 31.9832 29.3383 32.1188 29.0078 32.0668L27.4371 31.8196C26.935 31.7406 26.4195 31.8428 25.9855 32.1074L24.6256 32.9367C24.341 33.1101 23.9872 33.1101 23.7028 32.9367L22.3425 32.1073C22.0042 31.901 21.6164 31.7935 21.224 31.7935C21.1131 31.7935 21.0016 31.8021 20.891 31.8195L19.3199 32.0667C18.9894 32.1187 18.662 31.9829 18.4653 31.7125L17.5302 30.4269C17.2309 30.0154 16.7936 29.7228 16.299 29.6031L14.7521 29.2287C14.4278 29.1502 14.1776 28.9001 14.0991 28.5757L13.7248 27.0289C13.6051 26.5342 13.3125 26.0968 12.9009 25.7974L11.6157 24.8625C11.3452 24.6657 11.2095 24.3382 11.2616 24.0079L11.5087 22.4372C11.5877 21.9351 11.4855 21.4196 11.2209 20.9857L10.3916 19.6256C10.2181 19.341 10.2181 18.9873 10.3916 18.7028L11.2211 17.3425C11.4856 16.9086 11.5879 16.3932 11.5089 15.8911L11.2617 14.32C11.2098 13.9896 11.3455 13.6622 11.6159 13.4655L12.9016 12.5304C13.313 12.231 13.6057 11.7938 13.7254 11.2992L14.0998 9.75229C14.1783 9.42799 14.4284 9.17775 14.7528 9.09924L16.2997 8.72494C16.7944 8.60525 17.2317 8.3126 17.531 7.90103L18.4659 6.6158C18.6626 6.34533 18.9899 6.20947 19.3205 6.26158L20.8911 6.50876C21.3933 6.5879 21.9088 6.48556 22.3427 6.22095L23.7027 5.39165C23.9873 5.21821 24.341 5.21821 24.6255 5.39165L25.9857 6.22103C26.4196 6.48572 26.9353 6.58798 27.4372 6.50892L29.0084 6.26173C29.3387 6.20994 29.6662 6.34556 29.8629 6.61595L30.798 7.9015C31.0974 8.31299 31.5346 8.60564 32.0292 8.72533L33.5761 9.09971C33.9004 9.17822 34.1507 9.42838 34.2292 9.75275L34.6035 11.2996C34.7232 11.7942 35.0157 12.2317 35.4274 12.531L36.7126 13.4659C36.9831 13.6626 37.1188 13.9901 37.0668 14.3205L36.8196 15.8911C36.7406 16.3932 36.8428 16.9087 37.1074 17.3427L37.9367 18.7028C38.1103 18.9874 38.1103 19.3411 37.9367 19.6257ZM29.2701 8.98418C24.8702 6.76089 19.5701 7.61097 16.0818 11.0994C12.0275 15.1536 11.6217 21.6182 15.1379 26.1365C15.2622 26.2962 15.448 26.3798 15.6358 26.3798C15.7712 26.3798 15.9075 26.3364 16.0226 26.2468C16.2973 26.033 16.3467 25.6369 16.133 25.3622C13.0065 21.3448 13.3678 15.5964 16.9733 11.9908C20.0757 8.88832 24.7888 8.13222 28.7017 10.1093C29.0123 10.2665 29.3915 10.1417 29.5485 9.83098C29.7055 9.52027 29.581 9.14113 29.2701 8.98418ZM34.3045 14.0191C34.1475 13.7084 33.7685 13.5838 33.4575 13.7406C33.1468 13.8976 33.0221 14.2766 33.179 14.5875C35.1547 18.4997 34.3982 23.2122 31.2966 26.3138C27.691 29.9193 21.9426 30.2805 17.9252 27.1542C17.6504 26.9404 17.2545 26.9898 17.0406 27.2645C16.8268 27.5393 16.8762 27.9353 17.151 28.1491C19.2091 29.7508 21.6709 30.5386 24.1249 30.5386C27.0583 30.5386 29.9806 29.4128 32.1882 27.2052C35.6757 23.7177 36.5262 18.4186 34.3045 14.0191ZM32.1876 11.0992C32.355 11.2665 32.519 11.441 32.6752 11.6178C32.9058 11.8786 32.8812 12.277 32.6203 12.5074C32.5004 12.6134 32.3515 12.6655 32.2031 12.6655C32.0287 12.6655 31.8551 12.5935 31.7305 12.4526C31.5914 12.2952 31.4451 12.1398 31.2961 11.9906C31.1469 11.8414 30.9914 11.6952 30.834 11.5561C30.5731 11.3256 30.5486 10.9272 30.7793 10.6664C31.0097 10.4056 31.4081 10.3809 31.669 10.6115C31.8457 10.7677 32.0201 10.9317 32.1876 11.0992ZM30.5919 16.4235C31.0385 16.4765 31.4022 16.7751 31.5411 17.2027C31.68 17.6304 31.5612 18.0857 31.2311 18.3909L28.4268 20.9843L29.1711 24.7306C29.2588 25.1716 29.0872 25.6099 28.7234 25.8741C28.3596 26.1384 27.89 26.1662 27.4976 25.9465L24.1646 24.0809L20.8316 25.9465C20.6557 26.0449 20.4643 26.0937 20.2738 26.0937C20.0394 26.0937 19.8065 26.0199 19.6058 25.8741C19.242 25.6098 19.0704 25.1717 19.158 24.7306L19.9024 20.9842L17.0981 18.3909C16.7681 18.0856 16.6493 17.6302 16.7882 17.2028C16.9271 16.7751 17.2908 16.4766 17.7374 16.4236L21.5304 15.9738L23.1303 12.5054C23.3186 12.0971 23.715 11.8434 24.1647 11.8434C24.6143 11.8434 25.0107 12.0971 25.199 12.5054L26.7989 15.9737L30.5919 16.4235ZM27.1215 20.8839C27.0789 20.6689 27.1509 20.4471 27.3118 20.2983L30.1815 17.6444L26.3 17.1841C26.0822 17.1584 25.8936 17.0212 25.8018 16.8223L24.1647 13.273L22.5275 16.8223C22.4357 17.0212 22.247 17.1584 22.0293 17.1841L18.1476 17.6444L21.0173 20.2983C21.1783 20.4471 21.2504 20.6688 21.2076 20.8839L20.4459 24.7176L23.8567 22.8084C23.9524 22.7548 24.0584 22.7281 24.1646 22.7281C24.2707 22.7281 24.3768 22.7549 24.4725 22.8084L27.8833 24.7176L27.1215 20.8839Z" fill="#00335B"/>
</svg>
