<svg width="52" height="40" viewBox="0 0 52 40" fill="none" xmlns="http://www.w3.org/2000/svg">
<path d="M49.0656 0H44.5134C44.0934 0 43.753 0.346972 43.753 0.775063C43.753 1.20315 44.0934 1.55013 44.5134 1.55013H49.0656C49.7582 1.55013 50.3217 2.12436 50.3217 2.83037V25.4084H10.7066C10.2866 25.4084 9.94617 25.7553 9.94617 26.1834C9.94617 26.6115 10.2866 26.9585 10.7066 26.9585H50.3217V31.44C50.3217 32.1459 49.7582 32.7203 49.0656 32.7203H2.77692C2.08433 32.7203 1.52085 32.1459 1.52085 31.44V26.9585H7.17705C7.59705 26.9585 7.93747 26.6115 7.93747 26.1834C7.93747 25.7553 7.59705 25.4084 7.17705 25.4084H1.52085V2.83037C1.52085 2.12446 2.08433 1.55013 2.77692 1.55013H40.8127C41.2327 1.55013 41.5731 1.20315 41.5731 0.775063C41.5731 0.346972 41.2327 0 40.8127 0H2.77692C1.24574 0 0 1.26972 0 2.83037V31.4401C0 33.0008 1.24574 34.2705 2.77692 34.2705H19.6093V38.0387H17.3472C16.9272 38.0387 16.5868 38.3857 16.5868 38.8138C16.5868 39.2419 16.9272 39.5888 17.3472 39.5888H34.4953C34.9153 39.5888 35.2557 39.2419 35.2557 38.8138C35.2557 38.3857 34.9153 38.0387 34.4953 38.0387H32.2332V34.2705H49.0656C50.5968 34.2705 51.8425 33.0008 51.8425 31.4401V2.83037C51.8425 1.26972 50.5969 0 49.0656 0ZM30.7123 38.0386H21.1301V34.2704H30.7123V38.0386Z" fill="#00335B"/>
<path d="M26.4854 31.3975C27.1823 31.2295 27.6138 30.5176 27.449 29.8073C27.2843 29.097 26.5858 28.6573 25.8889 28.8252C25.192 28.9931 24.7606 29.705 24.9253 30.4153C25.09 31.1257 25.7885 31.5654 26.4854 31.3975Z" fill="#00335B"/>
<path d="M27.9579 22.0087H32.0135C32.7123 22.0087 33.2809 21.4292 33.2809 20.7169V16.6124H37.3079C38.0067 16.6124 38.5753 16.0329 38.5753 15.3206V11.1869C38.5753 10.4746 38.0067 9.89512 37.3079 9.89512H33.2809V5.79058C33.2809 5.07827 32.7123 4.49877 32.0135 4.49877H27.9579C27.259 4.49877 26.6905 5.07827 26.6905 5.79058V9.89512H25.3792C24.822 8.99074 23.9701 8.2808 22.9294 7.91958C22.9292 7.91948 22.9291 7.91948 22.9289 7.91948C22.4469 7.75229 21.9423 7.66704 21.4294 7.66621C21.4269 7.66621 21.4244 7.66621 21.422 7.66621C20.2269 7.66621 19.0919 8.12475 18.222 8.95854C17.3403 8.12073 16.1891 7.66807 14.984 7.68066C14.5017 7.68603 14.0287 7.7655 13.5779 7.91669C13.1789 8.05044 12.9619 8.48855 13.0933 8.89517C13.2246 9.3018 13.6544 9.52306 14.0533 9.38911C14.3558 9.28766 14.6747 9.2343 15.0008 9.23069C15.8191 9.22254 16.5984 9.5307 17.1943 10.1012C17.4844 10.379 17.8552 10.518 18.2251 10.518C18.5948 10.518 18.9634 10.3791 19.2496 10.1015C19.8381 9.5305 20.6094 9.21624 21.4221 9.21624H21.4272C21.774 9.21676 22.1144 9.27414 22.439 9.38684C22.439 9.38684 22.4391 9.38684 22.4391 9.38694C23.7184 9.83103 24.5765 11.0555 24.5745 12.4341C24.573 13.3624 24.2179 14.0706 23.264 15.0472C22.5032 15.8262 19.4001 18.8788 18.2454 20.0137C16.9394 18.7422 14.1583 16.0295 13.2326 15.0901C12.3503 14.1947 12.0337 13.7067 11.9297 13.0812C11.8309 12.4882 11.887 11.882 12.0919 11.3282C12.24 10.9277 12.0415 10.4806 11.6486 10.3296C11.2556 10.1786 10.817 10.3809 10.6688 10.7814C10.3691 11.5919 10.2866 12.4768 10.4303 13.3404C10.6133 14.4405 11.2029 15.2178 12.1596 16.1886C13.132 17.1753 16.1082 20.0768 17.3427 21.2784C17.5964 21.5254 17.9212 21.6487 18.246 21.6487C18.573 21.6487 18.8999 21.5237 19.1542 21.2739C20.0278 20.4155 22.6509 17.8362 23.8742 16.6123H26.6906V20.7168C26.6906 21.4292 27.2591 22.0087 27.9579 22.0087ZM25.2536 15.0622C25.7442 14.3544 26.0937 13.5173 26.0953 12.4365C26.0958 12.0984 26.0607 11.7667 25.9943 11.4453H27.4509C27.8709 11.4453 28.2113 11.0984 28.2113 10.6703V6.04901H31.7599V10.6703C31.7599 11.0984 32.1003 11.4453 32.5203 11.4453H37.0543V15.0622H32.5203C32.1003 15.0622 31.7599 15.4092 31.7599 15.8373V20.4586H28.2113V15.8373C28.2113 15.4092 27.8709 15.0622 27.4509 15.0622H25.2536Z" fill="#00335B"/>
</svg>
