<svg width="18" height="28" viewBox="0 0 18 28" fill="none" xmlns="http://www.w3.org/2000/svg">
<path d="M9 0C4.03732 0 0 3.69461 0 8.23602V19.764C0 24.3054 4.03732 28 9 28C13.9627 28 18 24.3054 18 19.764V8.23602C18 3.69461 13.9627 0 9 0ZM16.1642 19.764C16.1642 23.3789 12.9503 26.3201 9 26.3201C5.04975 26.3201 1.83576 23.3789 1.83576 19.764V8.23602C1.83576 4.62109 5.04975 1.67993 9 1.67993C12.9503 1.67993 16.1642 4.62109 16.1642 8.23602V19.764Z" fill="#00335B"/>
<path d="M9.00023 5.57001C8.4932 5.57001 8.08235 5.94598 8.08235 6.40997V10.2761C8.08235 10.7399 8.4932 11.1161 9.00023 11.1161C9.50703 11.1161 9.91811 10.7399 9.91811 10.2761V6.40997C9.91811 5.94598 9.50726 5.57001 9.00023 5.57001Z" fill="#00335B"/>
</svg>
