<svg width="24" height="38" viewBox="0 0 24 38" fill="none" xmlns="http://www.w3.org/2000/svg">
<path d="M12 0C5.3831 0 0 5.01411 0 11.1775V26.8225C0 32.9859 5.3831 38 12 38C18.6169 38 24 32.9859 24 26.8225V11.1775C24 5.01411 18.6169 0 12 0ZM21.5523 26.8225C21.5523 31.7285 17.267 35.7201 12 35.7201C6.733 35.7201 2.44768 31.7285 2.44768 26.8225V11.1775C2.44768 6.27148 6.733 2.27991 12 2.27991C17.267 2.27991 21.5523 6.27148 21.5523 11.1775V26.8225Z" fill="white"/>
<path d="M12.0003 7.5593C11.3243 7.5593 10.7765 8.06955 10.7765 8.69925V13.9462C10.7765 14.5756 11.3243 15.0861 12.0003 15.0861C12.676 15.0861 13.2242 14.5756 13.2242 13.9462V8.69925C13.2242 8.06955 12.6764 7.5593 12.0003 7.5593Z" fill="white"/>
</svg>
