<svg width="40" height="40" viewBox="0 0 40 40" fill="none" xmlns="http://www.w3.org/2000/svg">
<path d="M35.3333 5.33333C35.5101 5.33333 35.6797 5.2631 35.8047 5.13807C35.9298 5.01305 36 4.84348 36 4.66667V3.33333C35.999 2.44958 35.6475 1.60231 35.0226 0.977407C34.3977 0.352501 33.5504 0.000992545 32.6667 0H8.66667C7.78292 0.000992545 6.93565 0.352501 6.31074 0.977407C5.68583 1.60231 5.33433 2.44958 5.33333 3.33333V33.3333H6.66667V3.33333C6.66728 2.80309 6.8782 2.29474 7.25314 1.9198C7.62807 1.54486 8.13642 1.33395 8.66667 1.33333H30.0016C29.5672 1.90953 29.3325 2.61171 29.3333 3.33333V36.6667C29.3333 37.1971 29.1226 37.7058 28.7475 38.0809C28.3725 38.456 27.8638 38.6667 27.3333 38.6667C26.8029 38.6667 26.2942 38.456 25.9191 38.0809C25.544 37.7058 25.3333 37.1971 25.3333 36.6667V35.3333C25.3333 35.1565 25.2631 34.987 25.1381 34.8619C25.013 34.7369 24.8435 34.6667 24.6667 34.6667H0.666667C0.489856 34.6667 0.320286 34.7369 0.195262 34.8619C0.0702379 34.987 0 35.1565 0 35.3333V36.6667C0.000992545 37.5504 0.352501 38.3977 0.977407 39.0226C1.60231 39.6475 2.44958 39.999 3.33333 40H27.3333C28.2171 39.999 29.0644 39.6475 29.6893 39.0226C30.3142 38.3977 30.6657 37.5504 30.6667 36.6667V5.33333H35.3333ZM3.33333 38.6667C2.80308 38.6661 2.29472 38.4552 1.91978 38.0802C1.54483 37.7053 1.33393 37.1969 1.33333 36.6667V36H24V36.6667C23.9992 37.3883 24.2338 38.0905 24.6683 38.6667H3.33333ZM32.6667 1.33333C33.1969 1.33395 33.7053 1.54486 34.0802 1.9198C34.4551 2.29474 34.666 2.80309 34.6667 3.33333V4H30.6667V3.33333C30.6673 2.80309 30.8782 2.29474 31.2531 1.9198C31.6281 1.54486 32.1364 1.33395 32.6667 1.33333Z" fill="#00335B"/>
<path d="M14.0001 7.33337C13.9966 7.59973 14.0557 7.86318 14.1727 8.10252C14.2896 8.34187 14.4611 8.55041 14.6733 8.71138C14.6406 8.97512 14.6685 9.24284 14.7549 9.49418C14.8413 9.74551 14.9839 9.97383 15.1718 10.1617C15.3597 10.3497 15.588 10.4922 15.8393 10.5786C16.0907 10.665 16.3584 10.6929 16.6221 10.6602C16.7855 10.8698 16.9945 11.0394 17.2333 11.1561C17.4721 11.2727 17.7344 11.3334 18.0001 11.3334C18.2659 11.3334 18.5282 11.2727 18.767 11.1561C19.0058 11.0394 19.2148 10.8698 19.3781 10.6602C19.6419 10.6929 19.9096 10.665 20.161 10.5787C20.4123 10.4923 20.6406 10.3497 20.8285 10.1618C21.0165 9.97386 21.1591 9.74554 21.2454 9.4942C21.3318 9.24286 21.3597 8.97512 21.327 8.71138C21.5366 8.54802 21.7062 8.33898 21.8229 8.10019C21.9395 7.8614 22.0001 7.59914 22.0001 7.33337C22.0001 7.06761 21.9395 6.80535 21.8229 6.56656C21.7062 6.32776 21.5366 6.11873 21.327 5.95537C21.3597 5.69163 21.3318 5.42389 21.2454 5.17255C21.1591 4.92121 21.0165 4.69289 20.8285 4.50496C20.6406 4.31704 20.4123 4.17446 20.161 4.08809C19.9096 4.00172 19.6419 3.97383 19.3781 4.00654C19.2148 3.79691 19.0058 3.62731 18.767 3.51066C18.5282 3.39401 18.2659 3.33337 18.0001 3.33337C17.7344 3.33337 17.4721 3.39401 17.2333 3.51066C16.9945 3.62731 16.7855 3.79691 16.6221 4.00654C16.3584 3.97383 16.0907 4.00172 15.8393 4.08809C15.588 4.17446 15.3597 4.31704 15.1717 4.50496C14.9838 4.69289 14.8412 4.92121 14.7549 5.17255C14.6685 5.42389 14.6406 5.69163 14.6733 5.95537C14.4611 6.11633 14.2896 6.32488 14.1727 6.56422C14.0557 6.80357 13.9966 7.06702 14.0001 7.33337ZM15.6427 6.94637C15.7468 6.92284 15.8437 6.87467 15.9253 6.80589C16.007 6.73712 16.0709 6.64977 16.1117 6.55117C16.1525 6.45257 16.1691 6.3456 16.16 6.23927C16.1509 6.13294 16.1164 6.03035 16.0594 5.94012C16.0113 5.86399 15.9906 5.77378 16.0006 5.68431C16.0106 5.59484 16.0507 5.51142 16.1144 5.44777C16.178 5.38411 16.2615 5.344 16.3509 5.33403C16.4404 5.32405 16.5306 5.3448 16.6067 5.39287C16.697 5.44986 16.7995 5.48435 16.9059 5.49345C17.0122 5.50255 17.1192 5.48599 17.2178 5.44516C17.3164 5.40433 17.4037 5.34043 17.4725 5.25882C17.5413 5.17722 17.5894 5.0803 17.613 4.97621C17.6328 4.88838 17.6819 4.80992 17.7523 4.75371C17.8226 4.69749 17.9099 4.66687 18 4.66687C18.09 4.66687 18.1774 4.69749 18.2477 4.75371C18.318 4.80992 18.3671 4.88838 18.387 4.97621C18.4105 5.0803 18.4587 5.17722 18.5275 5.25882C18.5962 5.34043 18.6836 5.40433 18.7822 5.44516C18.8808 5.48599 18.9877 5.50255 19.0941 5.49345C19.2004 5.48435 19.303 5.44986 19.3932 5.39287C19.4693 5.3448 19.5596 5.32405 19.649 5.33403C19.7385 5.344 19.8219 5.38411 19.8856 5.44777C19.9493 5.51142 19.9894 5.59484 19.9994 5.68431C20.0094 5.77378 19.9886 5.86399 19.9406 5.94012C19.8836 6.03035 19.8491 6.13294 19.84 6.23927C19.8309 6.3456 19.8474 6.45257 19.8883 6.55117C19.9291 6.64977 19.993 6.73712 20.0746 6.80589C20.1562 6.87467 20.2531 6.92284 20.3572 6.94637C20.445 6.96621 20.5235 7.01533 20.5797 7.08566C20.6359 7.15598 20.6666 7.24334 20.6666 7.33337C20.6666 7.42341 20.6359 7.51076 20.5797 7.58109C20.5235 7.65142 20.445 7.70054 20.3572 7.72037C20.2531 7.7439 20.1562 7.79208 20.0746 7.86085C19.993 7.92962 19.9291 8.01698 19.8883 8.11558C19.8474 8.21418 19.8309 8.32114 19.84 8.42747C19.8491 8.5338 19.8836 8.63639 19.9406 8.72662C19.9887 8.80276 20.0094 8.89299 19.9994 8.98249C19.9894 9.07198 19.9493 9.15542 19.8856 9.21909C19.8219 9.28275 19.7385 9.32286 19.649 9.33282C19.5595 9.34277 19.4693 9.32199 19.3931 9.27388C19.3029 9.21691 19.2003 9.18243 19.094 9.17334C18.9877 9.16425 18.8807 9.18081 18.7822 9.22164C18.6836 9.26247 18.5962 9.32636 18.5275 9.40796C18.4587 9.48955 18.4105 9.58646 18.387 9.69054C18.3671 9.77836 18.318 9.85683 18.2477 9.91304C18.1774 9.96925 18.09 9.99988 18 9.99988C17.9099 9.99988 17.8226 9.96925 17.7523 9.91304C17.6819 9.85683 17.6328 9.77836 17.613 9.69054C17.5894 9.58646 17.5413 9.48955 17.4725 9.40796C17.4037 9.32636 17.3164 9.26247 17.2178 9.22164C17.1192 9.18081 17.0123 9.16425 16.9059 9.17334C16.7996 9.18243 16.697 9.21691 16.6068 9.27388C16.5307 9.32199 16.4405 9.34277 16.351 9.33282C16.2615 9.32286 16.178 9.28275 16.1143 9.21909C16.0506 9.15542 16.0105 9.07198 16.0005 8.98249C15.9905 8.89299 16.0113 8.80276 16.0594 8.72662C16.1164 8.63639 16.1509 8.5338 16.16 8.42747C16.1691 8.32114 16.1525 8.21418 16.1117 8.11558C16.0709 8.01698 16.007 7.92962 15.9253 7.86085C15.8437 7.79208 15.7468 7.7439 15.6427 7.72037C15.5549 7.70054 15.4764 7.65142 15.4202 7.58109C15.364 7.51076 15.3334 7.42341 15.3334 7.33337C15.3334 7.24334 15.364 7.15598 15.4202 7.08566C15.4764 7.01533 15.5549 6.96621 15.6427 6.94637Z" fill="#00335B"/>
<path d="M14.6667 15.3334H21.3334V16.6667H14.6667V15.3334Z" fill="#00335B"/>
<path d="M16.6667 12.6666H23.3334V14H16.6667V12.6666Z" fill="#00335B"/>
<path d="M12.6667 12.6666H15.3334V14H12.6667V12.6666Z" fill="#00335B"/>
<path d="M11.3333 18.6666H27.3333V20H11.3333V18.6666Z" fill="#00335B"/>
<path d="M8.66669 18.6666H10V20H8.66669V18.6666Z" fill="#00335B"/>
<path d="M11.3333 21.3334H22V22.6667H11.3333V21.3334Z" fill="#00335B"/>
<path d="M23.3333 21.3334H27.3333V22.6667H23.3333V21.3334Z" fill="#00335B"/>
<path d="M11.3333 24H27.3333V25.3333H11.3333V24Z" fill="#00335B"/>
<path d="M8.66669 24H10V25.3333H8.66669V24Z" fill="#00335B"/>
<path d="M11.3333 26.6666H15.3333V28H11.3333V26.6666Z" fill="#00335B"/>
<path d="M16.6667 26.6666H27.3334V28H16.6667V26.6666Z" fill="#00335B"/>
<path d="M11.3333 29.3334H22V30.6667H11.3333V29.3334Z" fill="#00335B"/>
<path d="M8.66669 29.3334H10V30.6667H8.66669V29.3334Z" fill="#00335B"/>
<path d="M11.3333 32H27.3333V33.3333H11.3333V32Z" fill="#00335B"/>
<path d="M23.3333 29.3334H27.3333V30.6667H23.3333V29.3334Z" fill="#00335B"/>
<path d="M38 10.6667H37.3333C37.3333 9.95942 37.0524 9.28115 36.5523 8.78105C36.0522 8.28095 35.3739 8 34.6667 8C33.9594 8 33.2811 8.28095 32.781 8.78105C32.281 9.28115 32 9.95942 32 10.6667V32C32 32.1035 32.0243 32.2055 32.0709 32.2979H32.0704L34.0704 36.2979C34.1258 36.4086 34.2109 36.5018 34.3162 36.5668C34.4215 36.6319 34.5429 36.6664 34.6667 36.6664C34.7905 36.6664 34.9118 36.6319 35.0171 36.5668C35.1224 36.5018 35.2075 36.4086 35.2629 36.2979L37.2629 32.2979H37.2624C37.309 32.2055 37.3333 32.1035 37.3333 32V12H38C38.1768 12.0002 38.3462 12.0705 38.4712 12.1955C38.5962 12.3205 38.6665 12.4899 38.6667 12.6667V20H40V12.6667C39.9994 12.1364 39.7885 11.6281 39.4135 11.2531C39.0386 10.8782 38.5302 10.6673 38 10.6667ZM34.6667 9.33333C35.0202 9.33375 35.3591 9.47436 35.609 9.72432C35.859 9.97428 35.9996 10.3132 36 10.6667H33.3333C33.3338 10.3132 33.4744 9.97428 33.7243 9.72432C33.9743 9.47436 34.3132 9.33375 34.6667 9.33333ZM36 31.3333H33.3333V21.3333H36V31.3333ZM36 20H33.3333V18.6667H36V20ZM34.6667 34.5093L33.7453 32.6667H35.588L34.6667 34.5093ZM36 17.3333H33.3333V12H36V17.3333Z" fill="#00335B"/>
</svg>
