<svg width="334" height="291" viewBox="0 0 334 291" fill="none" xmlns="http://www.w3.org/2000/svg">
<path d="M174.097 237.158C234.292 237.158 283.089 188.339 283.089 128.118C283.089 67.897 234.292 19.0781 174.097 19.0781C113.903 19.0781 65.1055 67.897 65.1055 128.118C65.1055 188.339 113.903 237.158 174.097 237.158Z" fill="url(#paint0_linear)"/>
<path d="M284.459 67.6256C284.459 67.6256 286.653 53.5204 292.84 54.071C294.55 54.2197 295.717 55.9606 296.476 57.8204C296.944 58.9661 298.588 58.8843 298.93 57.694C300.566 51.9656 303.912 43.2168 309.095 43.2168C314.456 43.2168 314.635 53.2229 314.248 59.3232C314.189 60.2383 315.379 60.6474 315.899 59.8886C317.312 57.8056 319.379 55.8044 321.885 56.3846C326.771 57.5154 325.455 67.6256 325.455 67.6256H284.459Z" fill="url(#paint1_linear)"/>
<path d="M8.75586 198.842C8.75586 198.842 10.9495 184.737 17.1364 185.288C18.8467 185.437 20.0142 187.177 20.7727 189.037C21.2412 190.183 22.8846 190.101 23.2266 188.911C24.8626 183.182 28.2089 174.434 33.3919 174.434C38.7534 174.434 38.9318 184.447 38.5452 190.54C38.4857 191.455 39.6755 191.864 40.196 191.105C41.6089 189.022 43.6761 187.021 46.1821 187.601C51.0677 188.732 49.7515 198.842 49.7515 198.842H8.75586Z" fill="url(#paint2_linear)"/>
<path d="M292.76 197.518C292.76 197.518 294.953 183.413 301.14 183.964C302.851 184.112 304.018 185.853 304.777 187.713C305.245 188.859 306.888 188.777 307.231 187.587C308.867 181.858 312.213 173.109 317.396 173.109C322.757 173.109 322.936 183.123 322.549 189.216C322.49 190.131 323.679 190.54 324.2 189.781C325.613 187.698 327.68 185.697 330.186 186.277C335.072 187.408 333.755 197.518 333.755 197.518H292.76Z" fill="url(#paint3_linear)"/>
<path d="M23.3965 43.0241C23.3965 43.0241 25.5902 28.9189 31.777 29.4694C33.4874 29.6182 34.6548 31.359 35.4133 33.2189C35.8818 34.3646 37.5252 34.2827 37.8673 33.0924C39.5032 27.364 42.8495 18.6152 48.0325 18.6152C53.394 18.6152 53.5725 28.6287 53.1858 34.7216C53.1263 35.6367 54.3161 36.0459 54.8366 35.287C56.2495 33.204 58.3167 31.2028 60.8227 31.7831C65.7083 32.9139 64.3921 43.0241 64.3921 43.0241H23.3965Z" fill="url(#paint4_linear)"/>
<path d="M260.39 26.3085C261.689 20.8361 258.308 15.3461 252.838 14.0462C247.368 12.7463 241.88 16.1288 240.581 21.6012C239.282 27.0735 242.663 32.5635 248.133 33.8634C253.603 35.1633 259.09 31.7809 260.39 26.3085Z" fill="white"/>
<path d="M43.0664 147.886C46.0356 143.109 44.5721 136.829 39.7976 133.858C35.0231 130.888 28.7457 132.352 25.7765 137.129C22.8074 141.905 24.2709 148.185 29.0453 151.156C33.8198 154.126 40.0973 152.662 43.0664 147.886Z" fill="white"/>
<path d="M316.76 142.312C318.055 136.838 314.67 131.35 309.199 130.055C303.728 128.759 298.242 132.145 296.947 137.619C295.652 143.092 299.037 148.58 304.508 149.876C309.979 151.172 315.464 147.785 316.76 142.312Z" fill="white"/>
<path d="M174.18 269.722C229.364 269.722 274.099 266.188 274.099 261.829C274.099 257.469 229.364 253.936 174.18 253.936C118.995 253.936 74.2598 257.469 74.2598 261.829C74.2598 266.188 118.995 269.722 174.18 269.722Z" fill="#0079C8" fill-opacity="0.5"/>
<path d="M257.545 159.581C219.516 213.286 230.976 255.356 204.89 262.967C203.648 263.332 202.488 263.503 201.402 263.503C201.268 263.503 201.134 263.503 200.993 263.495H200.956C200.867 263.488 200.785 263.488 200.696 263.48C200.681 263.48 200.666 263.48 200.643 263.48C200.569 263.48 200.502 263.473 200.435 263.465C200.309 263.451 200.182 263.436 200.049 263.421C199.959 263.406 199.87 263.391 199.781 263.376C199.721 263.361 199.662 263.354 199.602 263.346C199.491 263.324 199.379 263.302 199.275 263.279C199.179 263.257 199.082 263.235 198.978 263.205C198.941 263.198 198.911 263.19 198.874 263.175C198.799 263.153 198.725 263.131 198.643 263.108C198.643 263.108 198.643 263.108 198.636 263.108C198.599 263.101 198.554 263.086 198.517 263.071C198.39 263.034 198.264 262.989 198.138 262.945C198.041 262.908 197.944 262.87 197.847 262.833C197.81 262.818 197.773 262.803 197.736 262.788C197.632 262.744 197.52 262.699 197.416 262.647C197.297 262.588 197.178 262.528 197.059 262.469C196.933 262.402 196.806 262.335 196.68 262.26C196.561 262.186 196.435 262.111 196.308 262.03C196.301 262.03 196.293 262.022 196.293 262.015C196.204 261.955 196.115 261.896 196.018 261.836C195.907 261.762 195.795 261.68 195.684 261.598C195.438 261.412 195.193 261.211 194.962 261.003C194.88 260.936 194.806 260.862 194.724 260.787C194.65 260.72 194.583 260.653 194.509 260.579L194.494 260.564C194.375 260.445 194.256 260.326 194.137 260.2C194.077 260.14 194.025 260.081 193.973 260.021C193.847 259.887 193.72 259.746 193.601 259.597C193.423 259.389 193.252 259.173 193.088 258.95C193.036 258.875 192.977 258.808 192.925 258.734C192.91 258.712 192.895 258.697 192.88 258.674C192.813 258.585 192.746 258.496 192.687 258.399C192.605 258.288 192.523 258.176 192.449 258.05C192.263 257.774 192.077 257.484 191.899 257.187C191.839 257.09 191.78 256.986 191.72 256.882C191.646 256.748 191.571 256.614 191.49 256.48C191.438 256.383 191.385 256.286 191.333 256.19C190.954 255.483 190.59 254.739 190.24 253.95C190.173 253.802 190.106 253.653 190.047 253.504C189.876 253.095 189.705 252.678 189.541 252.254C189.497 252.128 189.445 252.001 189.4 251.875C189.355 251.756 189.311 251.637 189.266 251.51C189.222 251.391 189.177 251.272 189.132 251.146C189.05 250.915 188.969 250.684 188.894 250.454C188.835 250.283 188.775 250.104 188.716 249.933C188.656 249.769 188.604 249.598 188.552 249.435C188.478 249.197 188.404 248.951 188.329 248.706C188.285 248.564 188.247 248.423 188.203 248.282C188.143 248.096 188.091 247.91 188.039 247.716C187.987 247.53 187.935 247.337 187.876 247.143C187.66 246.377 187.452 245.596 187.258 244.8C187.206 244.592 187.154 244.376 187.102 244.168C187.028 243.848 186.953 243.528 186.879 243.2C186.827 242.985 186.775 242.761 186.73 242.546C186.671 242.278 186.611 242.003 186.552 241.72C186.492 241.445 186.433 241.169 186.373 240.894C186.329 240.671 186.284 240.448 186.24 240.225C186.091 239.51 185.95 238.789 185.816 238.052C185.764 237.784 185.712 237.509 185.667 237.241C185.615 236.966 185.57 236.698 185.518 236.423C185.496 236.319 185.481 236.215 185.459 236.103C181.927 215.95 181.042 191.459 173.442 187.784C160.273 194.152 167.27 263.004 145.72 263.503C144.56 263.532 143.325 263.361 141.994 262.974C115.916 255.364 127.367 213.294 89.3463 159.588C51.3178 105.883 81.4491 45.7797 114.235 47.6991C123.731 48.2571 132.335 50.1095 139.86 52.5422C156.443 57.8986 174.096 58.9029 191.066 55.5403C195.23 54.7145 199.357 53.6283 203.417 52.2744C207.217 51.0097 211.381 49.9235 215.917 49.1275C215.94 49.1275 215.955 49.12 215.977 49.12C221.071 48.2273 226.625 47.6991 232.649 47.6991C265.494 47.6917 295.574 105.876 257.545 159.581Z" fill="white"/>
<path d="M88.7509 134.956C88.7509 134.956 76.5259 117.95 82.1922 91.0934C87.8586 64.237 99.9275 54.4169 116.399 54.3946C133.39 54.3648 143.972 65.4347 163.187 64.542C163.187 64.542 151.802 70.0249 127.821 64.542C103.839 59.0591 83.9769 94.0766 88.7509 134.956Z" fill="#E8E8E8"/>
<path d="M257.544 159.581C219.515 213.286 230.974 255.357 204.888 262.967C203.647 263.332 202.486 263.503 201.401 263.503C201.267 263.503 201.133 263.503 200.992 263.495H200.955C200.865 263.488 200.784 263.488 200.694 263.48C200.679 263.48 200.665 263.48 200.642 263.48C200.568 263.48 200.501 263.473 200.434 263.466C200.308 263.451 200.181 263.436 200.047 263.421C199.958 263.406 199.869 263.391 199.78 263.376C199.72 263.361 199.661 263.354 199.601 263.347C199.49 263.324 199.378 263.302 199.274 263.28C199.177 263.257 199.081 263.235 198.977 263.205C198.939 263.198 198.91 263.19 198.872 263.175C198.798 263.153 198.724 263.131 198.642 263.108C198.642 263.108 198.642 263.108 198.635 263.108C198.597 263.101 198.553 263.086 198.516 263.071C198.389 263.034 198.263 262.989 198.136 262.945C198.04 262.908 197.943 262.87 197.846 262.833C197.809 262.818 197.772 262.803 197.735 262.789C197.631 262.744 197.519 262.699 197.415 262.647C197.296 262.588 197.177 262.528 197.058 262.469C196.932 262.402 196.805 262.335 196.679 262.26C196.56 262.186 196.433 262.112 196.307 262.03C196.3 262.03 196.292 262.022 196.292 262.015C196.203 261.955 196.114 261.896 196.017 261.836C195.905 261.762 195.794 261.68 195.682 261.598C195.437 261.412 195.192 261.211 194.961 261.003C194.879 260.936 194.805 260.862 194.723 260.787C194.649 260.72 194.582 260.653 194.507 260.579L194.493 260.564C194.374 260.445 194.255 260.326 194.136 260.2C194.076 260.14 194.024 260.081 193.972 260.021C193.846 259.887 193.719 259.746 193.6 259.597C193.422 259.389 193.251 259.173 193.087 258.95C193.035 258.875 192.976 258.808 192.924 258.734C192.909 258.712 192.894 258.697 192.879 258.675C192.812 258.585 192.745 258.496 192.686 258.399C192.604 258.288 192.522 258.176 192.448 258.05C192.262 257.774 192.076 257.484 191.897 257.187C191.838 257.09 191.778 256.986 191.719 256.882C191.645 256.748 191.57 256.614 191.488 256.48C191.436 256.383 191.384 256.286 191.332 256.19C190.953 255.483 190.589 254.739 190.239 253.951C190.172 253.802 190.105 253.653 190.046 253.504C189.875 253.095 189.704 252.678 189.54 252.254C189.495 252.128 189.443 252.001 189.399 251.875C189.354 251.756 189.31 251.637 189.265 251.51C189.22 251.391 189.176 251.272 189.131 251.146C189.049 250.915 188.968 250.685 188.893 250.454C188.834 250.283 188.774 250.104 188.715 249.933C188.655 249.77 188.603 249.598 188.551 249.435C188.477 249.197 188.402 248.951 188.328 248.706C188.283 248.564 188.246 248.423 188.202 248.282C188.142 248.096 188.09 247.91 188.038 247.716C187.986 247.53 187.934 247.337 187.874 247.143C187.659 246.377 187.451 245.596 187.257 244.8C187.205 244.592 187.153 244.376 187.101 244.168C187.027 243.848 186.952 243.528 186.878 243.201C186.826 242.985 186.774 242.762 186.729 242.546C186.67 242.278 186.61 242.003 186.551 241.72C186.491 241.445 186.432 241.17 186.372 240.894C186.328 240.671 186.283 240.448 186.238 240.225C186.09 239.511 185.948 238.789 185.815 238.052C185.763 237.785 185.71 237.509 185.666 237.242C185.614 236.966 185.569 236.698 185.517 236.423C185.495 236.319 185.48 236.215 185.458 236.103C181.925 215.95 181.041 191.459 173.441 187.784C160.271 194.152 167.269 263.004 145.719 263.503C146.053 263.428 153.586 260.534 155.698 234.772C157.825 208.845 161.037 179.125 174.638 179.125C185.235 179.125 187.495 214.67 193.013 239.54C194.359 244.986 197.311 251.986 205.952 250.737C216.541 249.212 217.686 219.699 229.212 182.703C239.749 148.883 259.076 146.54 253.06 102.312C246.955 57.3928 211.997 58.412 191.05 55.5404C195.214 54.7146 199.341 53.6285 203.401 52.2745C207.201 51.0098 211.365 49.9236 215.901 49.1276C215.938 49.1202 215.961 49.1202 215.961 49.1202C221.055 48.2274 226.609 47.6992 232.633 47.6992C265.493 47.6918 295.572 105.876 257.544 159.581Z" fill="#E8E8E8"/>
<path d="M45.4524 290.114C70.2703 290.114 90.3892 287.573 90.3892 284.438C90.3892 281.303 70.2703 278.762 45.4524 278.762C20.6345 278.762 0.515625 281.303 0.515625 284.438C0.515625 287.573 20.6345 290.114 45.4524 290.114Z" fill="#0079C8" fill-opacity="0.5"/>
<path d="M64.4123 286.169C65.3269 286.169 66.249 285.433 66.487 284.518L113.305 101.359C113.536 100.444 112.985 99.707 112.078 99.707C111.163 99.707 110.241 100.444 110.003 101.359L63.1853 284.518C62.9548 285.433 63.5051 286.169 64.4123 286.169Z" fill="#122029"/>
<path d="M21.0685 286.169C21.9832 286.169 22.9053 285.433 23.1432 284.518L69.9613 101.359C70.1919 100.444 69.6416 99.707 68.7344 99.707C67.8197 99.707 66.8976 100.444 66.6597 101.359L19.8416 284.518C19.611 285.433 20.1613 286.169 21.0685 286.169Z" fill="#122029"/>
<path d="M63.0974 121.944H106.398C107.313 121.944 108.235 121.207 108.473 120.292C108.703 119.377 108.153 118.641 107.246 118.641H63.9377C63.0231 118.641 62.101 119.377 61.863 120.292C61.6325 121.207 62.1828 121.944 63.0974 121.944Z" fill="#122029"/>
<path d="M57.8034 142.639H101.104C102.019 142.639 102.941 141.903 103.179 140.987C103.409 140.072 102.859 139.336 101.952 139.336H58.6511C57.7365 139.336 56.8144 140.072 56.5765 140.987C56.3385 141.903 56.8962 142.639 57.8034 142.639Z" fill="#122029"/>
<path d="M52.5154 163.33H95.8162C96.7309 163.33 97.6529 162.594 97.8909 161.679C98.1214 160.764 97.5711 160.027 96.6639 160.027H53.3557C52.441 160.027 51.5189 160.764 51.281 161.679C51.0505 162.594 51.6007 163.33 52.5154 163.33Z" fill="#122029"/>
<path d="M47.2283 184.018H90.5291C91.4437 184.018 92.3658 183.281 92.6038 182.366C92.8343 181.451 92.284 180.715 91.3768 180.715H48.0686C47.1539 180.715 46.2318 181.451 45.9939 182.366C45.7634 183.281 46.3136 184.018 47.2283 184.018Z" fill="#122029"/>
<path d="M41.9357 204.713H85.2365C86.1512 204.713 87.0733 203.977 87.3112 203.062C87.5417 202.147 86.9915 201.41 86.0843 201.41H42.7834C41.8688 201.41 40.9467 202.147 40.7087 203.062C40.4782 203.969 41.0285 204.713 41.9357 204.713Z" fill="#122029"/>
<path d="M36.6482 225.405H79.949C80.8637 225.405 81.7858 224.668 82.0237 223.753C82.2542 222.838 81.704 222.102 80.7967 222.102H37.4885C36.5738 222.102 35.6518 222.838 35.4138 223.753C35.1833 224.668 35.7336 225.405 36.6482 225.405Z" fill="#122029"/>
<path d="M31.3591 246.042H74.66C75.5746 246.042 76.4967 245.276 76.7346 244.338C76.9652 243.394 76.4149 242.635 75.5077 242.635H32.1994C31.2848 242.635 30.3627 243.401 30.1247 244.338C29.8942 245.276 30.4445 246.042 31.3591 246.042Z" fill="#122029"/>
<path d="M26.0651 266.789H69.3734C70.288 266.789 71.2101 266.053 71.4481 265.138C71.6786 264.223 71.1283 263.486 70.2211 263.486H26.9129C25.9982 263.486 25.0761 264.223 24.8382 265.138C24.6002 266.053 25.1579 266.789 26.0651 266.789Z" fill="#122029"/>
<path d="M126.808 95.9678C126.808 95.9678 124.302 92.6275 126.421 89.9865C128.541 87.3455 135.412 87.6728 140.327 91.1545C145.242 94.6362 152.619 96.4514 160.338 95.9678C160.338 95.9678 162.881 101.934 158.471 103.549C154.062 105.163 152.619 104.479 152.113 110.505C151.608 116.53 146.35 116.783 144.224 115.258C142.104 113.733 137.271 115.177 136.765 118.651C136.765 118.651 131.255 115.511 130.831 108.213C130.407 100.915 126.808 95.9678 126.808 95.9678Z" fill="#0386D1"/>
<path d="M104.457 92.729C104.457 92.729 104.598 93.0563 106.242 93.3688C107.885 93.6813 109.997 92.8332 109.61 92.2752C109.313 91.8586 108.562 92.0669 107.937 91.8437C107.216 91.5833 109.848 90.3856 110.763 89.5077C112.347 87.9826 110.317 84.4638 107.945 84.6944C105.573 84.925 102.33 87.8859 101.951 90.2368L104.457 92.729Z" fill="#F4B595"/>
<path d="M127.256 98.2443C127.256 98.2443 126.877 98.1922 126.074 96.5853C125.271 94.9784 125.523 92.5457 126.215 92.7837C126.735 92.9697 126.735 93.8104 127.152 94.3907C127.635 95.0602 128.096 91.9877 128.736 90.7825C129.844 88.692 134.082 89.7708 134.536 92.2853C134.99 94.8073 132.707 100.104 130.387 101.183L127.256 98.2443Z" fill="#F4B595"/>
<path d="M72.6296 94.4624C72.6296 94.4624 80.4004 98.7029 84.8175 99.6254C84.8175 99.6254 87.7622 97.4158 92.9155 95.0203C97.0872 93.0786 101.936 90.0508 101.936 90.0508C103.215 90.7352 104.218 91.7693 105.066 92.9968C105.066 92.9968 92.0008 104.595 85.0034 106.44L70.0195 102.862C70.0195 102.862 71.2614 98.383 72.6296 94.4624Z" fill="#0386D1"/>
<path d="M101.072 81.5137L101.965 84.4002C102.054 84.6829 101.89 84.973 101.608 85.0548L100.649 85.3301C100.656 85.3301 100.448 81.9005 101.072 81.5137Z" fill="#F4B595"/>
<path d="M82.3789 92.7411C84.3123 95.449 86.9075 96.5203 89.8671 96.7212L90.7595 94.1099L91.1908 92.8526L91.3023 92.5328L91.8972 90.7919C91.8972 90.7919 91.4139 89.6388 90.5066 88.3518C90.4248 88.2328 90.3356 88.1137 90.2464 87.9947C90.1869 87.9203 90.1348 87.8459 90.0753 87.7715C88.8558 86.239 87.0488 84.7213 84.7362 84.8627L82.3789 92.7411Z" fill="#F4B595"/>
<path d="M85.0566 87.9649L91.303 92.5327L91.8979 90.7919C91.8979 90.7919 91.4146 89.6388 90.5073 88.3518C90.4255 88.2327 90.3363 88.1137 90.2471 87.9947C90.1876 87.9203 90.1355 87.8459 90.0761 87.7715L85.0566 87.9649Z" fill="#ED9581"/>
<path d="M101.072 71.4874V87.0135C101.072 90.6886 97.4805 92.66 95.1902 92.4741C90.7954 92.1244 85.8504 90.7109 83.1808 84.1791C79.0314 73.987 91.7175 64.4124 101.072 71.4874Z" fill="#F4B595"/>
<path d="M102.545 74.6162C102.545 74.6162 101.08 79.6527 98.7677 78.1871C94.7745 75.6652 94.5663 81.3415 96.4551 83.0153C97.8605 84.2652 96.0387 86.7946 94.7745 88.4759C92.8114 91.0871 91.2052 91.8385 87.2119 90.1572C83.2187 88.4759 80.4896 84.905 80.7053 79.0204C80.9135 73.1357 81.7538 67.0428 86.5873 66.2022C91.4134 65.3615 97.9275 66.2022 102.969 65.9939C108.003 65.793 108.636 73.1506 102.545 74.6162Z" fill="#1D3B50"/>
<path d="M71.0154 155.088C71.127 155.096 71.2385 155.103 71.3501 155.111L70.4652 185.426L61.6013 217.148L69.0225 218.152L79.9165 185.85L87.2486 149.174L87.8286 144.651C87.8286 144.651 71.179 145.201 59.2737 142.203L57.8683 150.342L55.5556 185.426L46.9297 217.066L53.8676 217.773L65.007 185.843L71.0154 155.088Z" fill="#1D3B50"/>
<path d="M96.1494 102.477C96.1494 102.477 105.72 106.896 110.137 107.819C110.137 107.819 113.082 105.609 118.235 103.214C122.407 101.272 127.255 98.2441 127.255 98.2441C128.668 99.1146 129.627 100.126 130.386 101.19C130.386 101.19 117.32 112.788 110.323 114.633L94.1268 110.765C94.1268 110.765 92.1041 105.245 96.1494 102.477Z" fill="#009CDA"/>
<path d="M69.4019 217.78C69.4019 217.78 67.4313 216.441 64.7543 216.523C62.0773 216.605 61.6014 217.148 61.6014 217.148L60.4785 222.103C60.4785 222.103 67.7585 222.103 69.7886 222.103C71.8261 222.103 71.9971 219.313 69.4019 217.78Z" fill="white"/>
<path d="M54.3515 217.78C54.3515 217.78 52.3809 216.441 49.7039 216.523C47.0269 216.605 46.9377 217.074 46.9377 217.074L45.4355 222.11C45.4355 222.11 52.7156 222.11 54.7456 222.11C56.7757 222.103 56.9542 219.313 54.3515 217.78Z" fill="white"/>
<path d="M90.4767 94.8828L96.5074 102.657L85.6878 157.002C85.6878 157.002 73.195 159.115 56.2852 153.141C59.6463 131.716 66.4801 111.897 72.6299 94.4588L82.7059 91.7285C84.788 93.3503 87.3237 94.4588 90.4767 94.8828Z" fill="#009CDA"/>
<path d="M101.076 85.2093L98.2503 84.3984C98.2503 84.3984 99.1203 91.4213 93.625 92.2991C93.625 92.2991 95.8038 93.363 97.8934 92.2991C99.9829 91.2353 102.199 88.7728 101.076 85.2093Z" fill="#009CDA"/>
<path d="M98.8293 85.7011C98.8219 85.7011 98.8144 85.7011 98.807 85.7011C98.7177 85.6937 89.9802 85.1208 80.4619 77.2796C80.3058 77.1457 80.2835 76.9151 80.4099 76.7589C80.5437 76.6027 80.7743 76.5803 80.9304 76.7068C90.2703 84.3918 98.7624 84.9497 98.8442 84.9572C99.0524 84.972 99.2085 85.1431 99.1937 85.3514C99.1862 85.5523 99.0226 85.7011 98.8293 85.7011Z" fill="white"/>
<path d="M96.5079 91.7409C96.5004 91.7409 96.493 91.7409 96.4856 91.7409C96.2253 91.7261 90.0905 91.3467 81.0109 84.6958C80.8473 84.5768 80.8101 84.3387 80.9291 84.175C81.0481 84.0114 81.286 83.9742 81.4496 84.0932C90.3507 90.6102 96.4558 90.9896 96.5227 90.9896C96.731 90.997 96.8871 91.1756 96.8722 91.3764C96.8722 91.5847 96.7086 91.7409 96.5079 91.7409Z" fill="white"/>
<path d="M321.751 284.436C321.751 287.121 303.681 289.301 281.387 289.301C259.093 289.301 241.023 287.121 241.023 284.436C241.023 281.75 259.093 279.57 281.387 279.57C303.681 279.57 321.751 281.75 321.751 284.436Z" fill="#0079C8" fill-opacity="0.5"/>
<path d="M300.333 230.891C300.304 231.301 300.266 231.717 300.229 232.134C300.229 232.149 300.229 232.164 300.222 232.178C299.486 240.02 297.641 249.512 297.641 249.512C301.114 254.437 295.797 271.236 295.797 271.236L291.923 272.701L288.807 234.328L288.778 234.001L288.688 232.885L288.279 227.871C288.279 227.871 288.279 227.871 288.287 227.864C288.532 227.737 295.381 224.174 299.478 223.273C299.962 223.355 300.274 223.601 300.348 224.069C300.601 225.706 300.549 228.154 300.333 230.891Z" fill="#F4B595"/>
<path d="M300.332 230.89C300.302 231.299 300.265 231.716 300.228 232.132C296.904 233.218 291.78 234.089 288.813 234.334L288.783 234.007L288.694 232.891L288.285 227.877C288.285 227.877 288.285 227.877 288.293 227.869C288.538 227.743 295.387 224.179 299.484 223.279C299.967 223.361 300.28 223.607 300.354 224.075C300.599 225.705 300.547 228.152 300.332 230.89Z" fill="#ED9581"/>
<path d="M296.674 273.074C296.622 274.093 296.213 281.934 296.005 285.044H294.622V278.586C294.622 278.586 293.819 280.722 292.525 282.559L292.294 282.879C291.454 284.002 290.428 284.947 289.297 285.133C287.029 285.505 283.914 285.319 282.478 285.208C282.151 285.178 281.995 284.798 282.211 284.553C282.977 283.682 284.464 281.979 285.914 280.268C286.011 280.156 286.1 280.045 286.196 279.933C286.479 279.598 286.754 279.263 287.029 278.944C288.108 277.649 289.037 276.489 289.439 275.864C289.959 275.068 290.814 273.937 291.722 272.94C291.722 272.94 291.722 272.94 291.722 272.932C292.911 271.623 294.183 270.544 294.889 270.701C294.971 270.716 295.053 270.753 295.112 270.805C295.112 270.805 295.432 270.954 295.782 271.251C296.228 271.616 296.711 272.226 296.674 273.074Z" fill="white"/>
<path d="M295.797 271.245C295.536 271.61 295.001 272.093 294.852 272.465C294.815 272.555 294.369 273.321 294.324 273.41C293.149 276.178 290.874 279.555 288.866 280.53C286.323 281.757 285.929 280.321 285.914 280.262C286.011 280.15 286.1 280.039 286.197 279.927C286.479 279.592 286.754 279.258 287.029 278.938C288.108 277.643 289.037 276.483 289.439 275.858C289.959 275.062 290.814 273.931 291.722 272.934C291.722 272.934 291.722 272.934 291.722 272.927C292.911 271.617 294.183 270.539 294.89 270.695C294.971 270.71 295.053 270.747 295.113 270.799C295.127 270.799 295.447 270.948 295.797 271.245Z" fill="#F4B595"/>
<path d="M284.91 232.226C284.791 233.044 284.62 233.9 284.419 234.785C282.776 241.949 278.782 250.742 278.782 250.742C282.255 255.667 275.087 273.716 275.087 273.716H271.51L273.131 235.298L273.458 227.583C273.458 227.583 281.549 224.169 284.01 226.23C284.047 226.259 284.084 226.296 284.122 226.334C284.151 226.356 284.181 226.386 284.203 226.415C284.233 226.453 284.27 226.49 284.3 226.535C284.397 226.654 284.493 226.78 284.568 226.929C284.575 226.936 284.575 226.944 284.583 226.951C285.207 228.112 285.237 230.001 284.91 232.226Z" fill="#F4B595"/>
<path d="M284.908 232.226C284.789 233.044 284.618 233.9 284.417 234.785C280.647 236.228 274.795 236.28 273.129 235.298L273.456 227.583C273.456 227.583 281.547 224.169 284.008 226.23C284.045 226.259 284.082 226.296 284.12 226.334C284.149 226.356 284.172 226.386 284.201 226.415C284.328 226.557 284.447 226.728 284.566 226.929C284.573 226.936 284.573 226.944 284.581 226.951C285.205 228.112 285.235 230.001 284.908 232.226Z" fill="#ED9581"/>
<path d="M276.737 273.076C276.685 274.095 276.276 281.936 276.067 285.046H274.684V278.588C274.684 278.588 273.881 280.724 272.587 282.561L272.357 282.881C271.516 284.004 270.49 284.949 269.36 285.135C267.092 285.507 263.976 285.321 262.541 285.21C262.214 285.18 262.058 284.8 262.273 284.555C263.039 283.684 264.526 281.981 265.976 280.27C266.073 280.158 266.162 280.047 266.259 279.935C266.542 279.6 266.817 279.265 267.092 278.946C268.17 277.651 269.1 276.49 269.501 275.866C270.022 275.07 270.877 273.939 271.784 272.942C271.784 272.942 271.784 272.942 271.784 272.934C272.974 271.625 274.245 270.546 274.952 270.703C275.034 270.717 275.115 270.755 275.175 270.807C275.175 270.807 275.495 270.956 275.844 271.253C276.298 271.618 276.781 272.228 276.737 273.076Z" fill="white"/>
<path d="M275.865 271.245C275.605 271.61 275.069 272.093 274.921 272.465C274.884 272.555 274.437 273.321 274.393 273.41C273.218 276.178 270.942 279.555 268.935 280.53C266.391 281.757 265.997 280.321 265.982 280.262C266.079 280.15 266.168 280.039 266.265 279.927C266.548 279.592 266.823 279.258 267.098 278.938C268.176 277.643 269.106 276.483 269.507 275.858C270.028 275.062 270.883 273.931 271.79 272.934C271.79 272.934 271.79 272.934 271.79 272.927C272.98 271.617 274.251 270.539 274.958 270.695C275.04 270.71 275.121 270.747 275.181 270.799C275.196 270.799 275.516 270.948 275.865 271.245Z" fill="#F4B595"/>
<path d="M274.431 198.374C274.431 198.374 272.639 223.192 273.13 231.941C275.42 232.789 291.527 231.874 300.473 228.623C302.912 219.666 301.187 200.219 295.491 192.832C295.491 192.832 287.497 199.327 274.431 198.374Z" fill="#1D3B50"/>
<path d="M241.504 177.624C242.218 176.991 242.761 176.53 242.21 176.723C241.11 177.103 240.039 176.396 240.507 176.009C240.976 175.622 241.63 175.161 243.043 174.938C244.456 174.715 248.018 176.887 248.018 176.887L247.022 180.659C247.022 180.659 246.984 180.644 246.925 180.629C245.11 180.16 243.408 179.32 242.002 178.077C241.839 177.929 241.675 177.78 241.504 177.624Z" fill="#F4B595"/>
<path d="M265.363 180.29L269.126 181.652L271.922 182.663C271.922 182.663 280.399 171.259 279.202 162.279C279.046 162.064 278.875 161.863 278.704 161.677C277.202 161.163 272.242 159.668 270.94 161.818C270.94 161.818 270.65 162.845 270.16 164.541C269.148 168.008 267.304 174.272 265.363 180.29Z" fill="#009CDA"/>
<path d="M271.922 182.656C271.922 182.663 271.922 182.663 271.922 182.656L271.914 182.663C271.461 182.931 270.829 183.117 270.055 183.236C269.646 183.303 269.207 183.347 268.732 183.377C262.887 183.764 252.26 181.733 248.438 180.944C247.546 180.758 247.025 180.647 247.025 180.647L248.267 176.332C248.267 176.332 248.832 176.421 249.844 176.533C251.309 176.689 253.703 176.905 256.64 176.964C261.124 177.054 267.4 176.6 267.4 176.6C267.928 176.63 268.546 177.173 269.148 177.932C269.222 178.028 269.297 178.125 269.371 178.222C270.68 179.985 271.87 182.559 271.922 182.656Z" fill="#009CDA"/>
<path d="M271.921 182.654C271.914 182.661 271.914 182.661 271.921 182.654L271.914 182.661C271.46 182.929 270.828 183.115 270.055 183.234L269.371 178.22L268.939 175.065C268.977 173.429 269.118 171.792 269.348 170.17L270.159 164.531C270.65 162.835 270.94 161.808 270.94 161.808C272.241 159.658 277.201 161.154 278.703 161.667C278.882 161.853 279.045 162.054 279.201 162.27C280.376 171.167 272.085 182.43 271.921 182.654Z" fill="#0386D1"/>
<path d="M265.739 138.466C265.739 138.466 264.006 126.436 279.02 129.062C291.698 131.279 283.928 144.165 293.639 155.22C302.786 165.627 291.416 171.452 286.612 169.139C281.808 166.825 279.6 155.368 280.336 147.52C281.079 139.664 269.799 133.474 265.739 138.466Z" fill="#1D3B50"/>
<path d="M303.759 213.175C298.858 214.849 290.731 217.683 283.071 218.457C282.886 218.479 282.692 218.494 282.506 218.509C278.506 218.858 274.661 218.62 271.501 217.326L271.642 198.348L271.709 188.639L271.768 180.501C270.103 172.965 270.765 172.503 271.114 169.788L272.274 160.861L276.505 159.432L278.736 158.673L279.309 158.48L283.495 157.066L285.258 157.557L292.776 159.64L294.084 171.692L294.612 176.61L295.787 187.464L303.759 213.175Z" fill="#009CDA"/>
<path d="M285.55 175.803L285.453 175.811C283.825 175.907 282.419 174.672 282.323 173.036L282.137 169.986L288.138 169.621L288.324 172.671C288.42 174.301 287.178 175.707 285.55 175.803Z" fill="#0386D1"/>
<path d="M288.017 167.999L282.02 168.365L282.075 169.271L288.072 168.905L288.017 167.999Z" fill="#0386D1"/>
<path d="M283.077 218.465C282.892 218.487 282.698 218.502 282.512 218.517C278.065 198.066 278.482 168.092 278.742 158.674L279.315 158.48C279.047 167.646 278.593 197.917 283.077 218.465Z" fill="#0386D1"/>
<path d="M294.621 176.593C293.431 179.019 291.639 182.098 289.393 184.241C285.162 188.281 278.596 189.783 278.596 189.783C276.261 193.793 272.372 197.453 271.65 198.346L271.717 188.638C273.621 187.619 276.082 186.495 278.313 186.034C282.812 185.104 294.085 171.676 294.085 171.676L294.621 176.593Z" fill="#0386D1"/>
<path d="M268.415 130.996C268.415 130.996 263.835 133.831 264.192 138.815C264.638 144.938 268.415 150.272 268.415 150.272V130.996Z" fill="#1D3B50"/>
<path d="M283.51 157.177C283.258 157.594 282.997 157.973 282.715 158.315C281.19 160.19 279.287 160.986 277.175 161.15L276.416 158.539L275.673 155.965L275.457 155.221C275.457 155.221 275.94 153.852 276.855 152.423C277.39 151.59 278.067 150.75 278.885 150.147C279.651 149.582 280.529 149.224 281.518 149.299L282.053 151.404L283.473 157.006L283.51 157.177Z" fill="#F4B595"/>
<path d="M280.833 150.584C280.833 150.584 280.216 156.387 276.424 158.544L275.457 155.226C275.457 155.226 275.94 153.857 276.855 152.429L280.833 150.584Z" fill="#ED9581"/>
<path d="M283.607 148.621C283.184 149.67 282.648 150.592 282.046 151.403C281.6 152.006 281.109 152.549 280.588 153.032C280.402 153.204 280.216 153.367 280.031 153.523C279.473 153.985 278.885 154.386 278.283 154.744C277.435 155.242 276.558 155.644 275.673 155.964C274.104 156.536 272.52 156.864 271.085 157.042C268.252 157.399 265.738 155.19 265.738 152.333V135.937C265.909 135.81 266.08 135.684 266.251 135.572C275.539 129.219 287.69 138.622 283.607 148.621Z" fill="#F4B595"/>
<path d="M266.293 142.9L264.196 148.845C264.181 148.882 264.203 148.919 264.241 148.934L266.293 149.648C266.293 149.648 267.855 148.257 266.293 142.9Z" fill="#F4B595"/>
<path d="M283.605 148.619C283.181 149.668 282.646 150.591 282.043 151.402L283.464 157.004C282.162 156.483 280.616 154.928 280.021 153.529C279.515 152.332 279.121 151.156 278.876 150.152C278.474 148.485 278.489 147.273 279.084 147.154C281.865 146.596 282.854 139.826 279.151 140.153C275.998 140.429 277.143 143.918 275.574 143.873C275.239 143.866 274.994 143.702 274.808 143.449C273.477 141.619 272.503 140.354 269.454 139.67C267.625 139.253 266.383 138.628 265.729 137.907V135.943C265.9 135.816 266.071 135.69 266.242 135.578C275.537 129.217 287.688 138.621 283.605 148.619Z" fill="#1D3B50"/>
<path d="M265.736 149.456C265.736 149.456 270.086 149.649 274.005 148.221C274.005 148.221 276.622 152.275 275.075 156.181C275.075 156.181 272.666 157.706 268.718 156.754C264.776 155.794 265.736 149.456 265.736 149.456Z" fill="#009CDA"/>
<path d="M273.433 149.538C273.269 149.538 273.121 149.434 273.076 149.27C273.016 149.069 273.135 148.868 273.329 148.809C273.425 148.779 283.226 145.877 287.636 140.395C287.762 140.231 288 140.209 288.156 140.335C288.313 140.462 288.342 140.7 288.216 140.856C283.658 146.525 273.946 149.396 273.537 149.515C273.507 149.538 273.47 149.538 273.433 149.538Z" fill="white"/>
<path d="M274.687 155.443C274.509 155.443 274.352 155.317 274.323 155.138C274.285 154.937 274.419 154.744 274.62 154.706C274.717 154.692 284.176 152.906 289.106 147.066C289.24 146.91 289.477 146.888 289.626 147.022C289.782 147.155 289.805 147.386 289.671 147.542C284.562 153.591 275.148 155.361 274.754 155.436C274.732 155.443 274.709 155.443 274.687 155.443Z" fill="white"/>
<path d="M233.976 162.138L231.127 166.236L271.842 194.561L274.69 190.462L233.976 162.138Z" fill="#122029"/>
<path d="M193.52 137.024C193.49 137.068 193.468 137.106 193.438 137.143C185.816 148.25 188.582 163.441 199.655 171.141C210.727 178.841 225.927 176.14 233.675 165.123C233.705 165.085 233.735 165.048 233.764 165.004C241.491 153.889 238.747 138.616 227.63 130.886C216.512 123.164 201.239 125.909 193.52 137.024ZM229.741 162.043C229.689 162.125 229.63 162.206 229.57 162.281C223.331 170.985 211.196 173.098 202.376 166.96C193.557 160.823 191.311 148.704 197.29 139.828C197.342 139.747 197.401 139.665 197.454 139.583C203.64 130.678 215.918 128.468 224.819 134.658C233.72 140.855 235.928 153.138 229.741 162.043Z" fill="#1D3B50"/>
<path d="M241.244 165.025L236.219 172.258L268.024 194.377L273.05 187.145L241.244 165.025Z" fill="#1D3B50"/>
<path d="M240.898 161.939C241.367 162.259 241.657 162.743 241.746 163.263C241.842 163.784 241.738 164.335 241.411 164.803L236.213 172.272C235.566 173.21 234.287 173.433 233.358 172.786C232.889 172.458 232.599 171.982 232.51 171.462C232.421 170.941 232.517 170.39 232.845 169.929L238.035 162.452C238.69 161.515 239.961 161.284 240.898 161.939Z" fill="#122029"/>
<path d="M276.069 186.399C276.538 186.719 276.821 187.202 276.917 187.723C277.014 188.244 276.91 188.794 276.583 189.263L271.392 196.732C270.745 197.669 269.466 197.893 268.537 197.245C268.068 196.918 267.778 196.442 267.689 195.921C267.592 195.4 267.696 194.85 268.024 194.381L273.214 186.912C273.861 185.982 275.14 185.751 276.069 186.399Z" fill="#122029"/>
<path d="M215.332 131.229C215.533 131.243 215.733 131.266 215.942 131.288C219.035 131.653 222.091 132.761 224.828 134.666C230.256 138.437 233.194 144.471 233.26 150.623C233.305 154.566 232.167 158.569 229.751 162.05C229.684 162.147 229.609 162.251 229.542 162.348C229.386 162.564 229.23 162.764 229.074 162.973C228.07 164.252 226.94 165.376 225.705 166.328C224.092 167.593 222.3 168.575 220.418 169.266C219.333 169.668 218.21 169.973 217.072 170.167C216.239 170.315 215.399 170.412 214.551 170.457C211.398 170.613 208.193 170.01 205.219 168.604C204.245 168.143 203.3 167.6 202.385 166.96C196.176 162.645 193.224 155.362 194.109 148.332C194.25 147.179 194.503 146.041 194.853 144.917C195.098 144.121 195.403 143.34 195.752 142.574C196.228 141.547 196.801 140.543 197.47 139.583C198.682 137.835 200.132 136.347 201.739 135.134C202.058 134.896 202.378 134.666 202.713 134.442C205.055 132.888 207.687 131.861 210.424 131.415C212.03 131.147 213.681 131.087 215.332 131.229Z" fill="#83E0DD"/>
<path opacity="0.2" d="M195.747 142.58L220.413 169.265C219.327 169.667 218.204 169.972 217.066 170.166C216.234 170.314 215.393 170.411 214.546 170.456L194.104 148.338C194.245 147.185 194.498 146.047 194.847 144.924C195.093 144.127 195.39 143.339 195.747 142.58Z" fill="white"/>
<path opacity="0.2" d="M215.334 131.228L233.255 150.623C233.299 154.566 232.162 158.568 229.745 162.05C229.678 162.147 229.604 162.251 229.537 162.347C229.381 162.563 229.224 162.764 229.068 162.972L202.707 134.45C205.049 132.895 207.682 131.868 210.418 131.422C212.032 131.146 213.683 131.087 215.334 131.228Z" fill="white"/>
<path d="M241.42 179.376C240.103 178.178 240.966 177.047 241.665 176.363C241.94 176.095 242.647 175.805 243.249 175.991C244.372 176.34 247.569 179.42 247.257 180.96C246.893 182.753 243.695 181.459 241.42 179.376Z" fill="#F4B595"/>
<path d="M296.634 169.157C296.634 169.157 289.399 185.739 281.018 187.212C281.018 187.212 264.488 192.346 258.375 189.958L258.918 185.643C258.918 185.643 263.684 185.97 269.388 184.713C275.092 183.456 277.806 182.198 277.806 182.198L292.775 159.627C292.79 159.627 297.095 160.691 296.634 169.157Z" fill="#009CDA"/>
<path d="M253.087 188.91C254.961 190.658 257.668 191.216 259.81 190.353L260.903 185.622C260.903 185.622 260.851 184.536 260.553 183.509C260.412 183.018 259.468 182.572 259.319 183.063L259.029 185.027C259.029 185.027 257.051 184.268 256.211 184.223C255.586 184.208 254.664 184.082 253.928 184.238C251.526 184.736 251.213 187.162 253.087 188.91Z" fill="#F4B595"/>
<path d="M209.144 34.106L207.858 50.9266C203.835 52.3252 199.663 53.5453 195.35 54.5943C195.075 54.6612 194.8 54.7282 194.525 54.7951C190.48 55.7548 186.308 56.5583 182.025 57.2278L180.738 33.8754C180.738 33.8754 184.494 32.8711 189.23 32.3503C189.535 32.3206 189.84 32.2834 190.152 32.261C191.491 32.1346 192.896 32.0527 194.302 32.0527H194.532C194.681 32.0527 194.822 32.0527 194.971 32.0602H195.008C195.187 32.0676 195.373 32.0676 195.559 32.0751C196.83 32.1122 198.094 32.2238 199.299 32.4321L199.745 32.5065L209.144 34.106Z" fill="#009CDA"/>
<path d="M202.088 50.5697H201.991C200.355 50.5697 199.039 49.2454 199.039 47.6162V44.5586H205.047V47.6162C205.04 49.2454 203.716 50.5697 202.088 50.5697Z" fill="#0386D1"/>
<path d="M205.04 42.9297H199.031V43.8373H205.04V42.9297Z" fill="#0386D1"/>
<path d="M195.351 32.0618V54.5884C195.076 54.6554 194.801 54.7223 194.525 54.7893V32.0469C194.674 32.0469 194.815 32.0469 194.964 32.0543H195.001C195.12 32.0543 195.239 32.0618 195.351 32.0618Z" fill="#0386D1"/>
<path d="M191.381 32.3405V25.9277H198.475V32.3405C196.118 33.4044 193.753 33.3969 191.381 32.3405Z" fill="#F4B595"/>
<path d="M191.381 25.9375V30.974C194.155 30.7806 197.493 29.6572 198.475 28.2512V25.9375H191.381Z" fill="#ED9581"/>
<path d="M202.885 15.4622C202.885 15.4622 203.665 13.6246 205.227 13.2601C206.789 12.8956 206.744 16.8013 205.777 19.6431C204.811 22.4925 202.379 21.3914 202.379 21.3914L202.885 15.4622Z" fill="#ED9581"/>
<path d="M186.993 15.4622C186.993 15.4622 186.212 13.6246 184.651 13.2601C183.089 12.8956 183.134 16.8013 184.101 19.6431C185.067 22.4925 187.499 21.3914 187.499 21.3914L186.993 15.4622Z" fill="#ED9581"/>
<path d="M194.956 28.795C199.693 28.795 203.53 23.7064 203.53 19.2204V9.08789H186.375V19.2279C186.375 23.7064 190.22 28.795 194.956 28.795Z" fill="#F4B595"/>
<path d="M203.531 16.459C203.531 16.459 206.461 12.0474 204.423 9.08655C204.423 9.08655 205.673 6.55713 204.423 4.13931C203.174 1.72893 197.879 -1.04599 190.51 0.397267C183.141 1.84796 184.531 7.2862 185.454 8.80385C185.454 8.80385 183.617 12.1814 186.376 16.4516C186.376 16.4516 187.989 14.2495 187.491 9.56267C187.491 9.56267 195.693 11.9061 202.378 9.07911C202.386 9.08654 201.464 14.5322 203.531 16.459Z" fill="#1D3B50"/>
<path d="M192.482 11.3854C192.452 11.3854 192.422 11.3854 192.392 11.3779C192.236 11.3631 188.548 11.0208 184.688 9.51807C184.153 9.30976 183.893 8.71461 184.101 8.17897C184.309 7.64333 184.904 7.38295 185.439 7.59125C189.016 8.98243 192.541 9.30976 192.578 9.3172C193.143 9.36928 193.567 9.86772 193.515 10.4406C193.463 10.9762 193.017 11.3854 192.482 11.3854Z" fill="#009CDA"/>
<path d="M197.628 11.3589C197.1 11.3589 196.653 10.9572 196.601 10.429C196.542 9.86356 196.958 9.35768 197.523 9.29816C197.568 9.29072 201.085 8.92619 204.64 7.49782C205.168 7.28207 205.77 7.54245 205.986 8.07066C206.201 8.59886 205.941 9.20145 205.413 9.4172C201.569 10.9646 197.88 11.344 197.732 11.3589C197.702 11.3589 197.665 11.3589 197.628 11.3589Z" fill="#009CDA"/>
<path d="M198.355 9.60855C198.362 11.5056 196.838 13.0456 194.949 13.053C193.053 13.0605 191.513 11.5354 191.506 9.64574C191.498 7.74869 193.023 6.20872 194.912 6.20128C196.8 6.1864 198.34 7.71149 198.355 9.60855Z" fill="white"/>
<path d="M194.935 11.7448C193.768 11.7522 192.816 10.8074 192.809 9.63945C192.801 8.47145 193.746 7.5192 194.913 7.51176C196.081 7.50432 197.032 8.44913 197.04 9.61713C197.047 10.7851 196.103 11.7374 194.935 11.7448Z" fill="#E8E8E8"/>
<path d="M188.482 18.9062C188.482 18.9062 187.835 24.0767 189.419 26.487C189.419 26.487 190.907 28.7933 194.922 28.7933C198.938 28.7933 200.588 26.249 200.588 26.249C200.588 26.249 202.18 23.0203 201.235 18.9062C201.243 18.9062 194.654 21.577 188.482 18.9062Z" fill="#009CDA"/>
<path d="M188.838 19.9239C188.801 19.9239 188.756 19.9164 188.719 19.8941C188.593 19.8197 185.678 18.0863 184.473 12.6853C184.443 12.5588 184.525 12.4324 184.651 12.4026C184.778 12.3728 184.904 12.4547 184.934 12.5812C186.094 17.7813 188.927 19.4701 188.957 19.485C189.068 19.5519 189.106 19.6933 189.046 19.8049C188.994 19.8793 188.912 19.9239 188.838 19.9239Z" fill="white"/>
<path d="M189.217 25.4888C189.202 25.4888 189.18 25.4888 189.165 25.4814C189.12 25.4739 188.116 25.2284 186.904 23.4132C186.83 23.3016 186.86 23.1603 186.971 23.0859C187.083 23.0115 187.224 23.0412 187.298 23.1528C188.384 24.7895 189.261 25.0201 189.276 25.0275C189.403 25.0573 189.477 25.1838 189.447 25.3102C189.418 25.4144 189.321 25.4888 189.217 25.4888Z" fill="white"/>
<path d="M201.08 19.9239C200.998 19.9239 200.916 19.8793 200.879 19.8049C200.812 19.6933 200.849 19.5519 200.968 19.485C200.998 19.4701 203.838 17.759 204.991 12.5812C205.021 12.4547 205.147 12.3728 205.274 12.4026C205.4 12.4324 205.482 12.5588 205.452 12.6853C204.247 18.0863 201.332 19.8197 201.206 19.8941C201.154 19.909 201.117 19.9239 201.08 19.9239Z" fill="white"/>
<path d="M200.69 25.4891C200.586 25.4891 200.489 25.4147 200.459 25.3031C200.429 25.1766 200.511 25.0501 200.638 25.0204C200.66 25.0129 201.53 24.7749 202.616 23.1456C202.69 23.034 202.831 23.0117 202.943 23.0787C203.054 23.1531 203.077 23.2944 203.01 23.406C201.798 25.2212 200.794 25.4667 200.749 25.4742C200.727 25.4891 200.705 25.4891 200.69 25.4891Z" fill="white"/>
<path d="M230.002 98.9547L165.412 46.1049C165.285 46.0007 165.152 45.904 165.01 45.8222C163.449 44.8476 161.367 45.1675 160.169 46.6331C158.972 48.0986 159.076 50.1966 160.333 51.5357C160.444 51.6547 160.563 51.7663 160.69 51.8704L225.28 104.72L230.002 98.9547Z" fill="#1D3B50"/>
<path d="M217.058 88.3584L212.346 94.123L215.172 96.4356L219.885 90.671L217.058 88.3584Z" fill="#122029"/>
<path d="M221.797 88.3213L215.164 96.4355L232.784 110.853L239.418 102.738L221.797 88.3213Z" fill="#1D3B50"/>
<path d="M243.722 93.1874C243.617 93.0982 243.506 93.0238 243.387 92.9643C243.023 92.7708 242.628 92.6964 242.234 92.7411C241.714 92.7931 241.223 93.0386 240.866 93.4776L235.75 99.7416L238.896 102.316L244.012 96.0516C244.718 95.1738 244.592 93.8942 243.722 93.1874Z" fill="white"/>
<path d="M240.577 90.6113C240.473 90.522 240.361 90.4476 240.242 90.3881C239.878 90.1947 239.484 90.1203 239.09 90.1649C238.569 90.217 238.078 90.4625 237.722 90.9014L232.605 97.1654L235.751 99.7395L240.867 93.4755C241.581 92.5976 241.447 91.318 240.577 90.6113Z" fill="white"/>
<path d="M237.431 88.041C237.326 87.9517 237.215 87.8773 237.096 87.8178C236.732 87.6243 236.337 87.5499 235.943 87.5946C235.423 87.6467 234.932 87.8922 234.575 88.3311L229.459 94.5951L232.604 97.1692L237.721 90.9051C238.434 90.0273 238.301 88.7477 237.431 88.041Z" fill="white"/>
<path d="M234.294 85.4648C234.19 85.3755 234.078 85.3011 233.959 85.2416C233.595 85.0482 233.201 84.9738 232.807 85.0184C232.286 85.0705 231.795 85.316 231.438 85.7549L226.322 92.0189L229.468 94.593L234.584 88.329C235.29 87.4511 235.156 86.1715 234.294 85.4648Z" fill="white"/>
<path d="M231.145 82.8906C231.041 82.8013 230.93 82.7269 230.811 82.6674C230.446 82.474 230.052 82.3996 229.658 82.4442C229.138 82.4963 228.647 82.7418 228.29 83.1807L223.174 89.4447L226.319 92.0188L231.435 85.7547C232.142 84.8769 232.008 83.5973 231.145 82.8906Z" fill="white"/>
<path d="M243.387 92.9643C243.023 92.7708 242.628 92.6964 242.234 92.7411C241.714 92.7931 241.223 93.0386 240.866 93.4776L235.75 99.7416L237.014 100.776L243.387 92.9643Z" fill="#E8E8E8"/>
<path d="M240.242 90.3881C239.878 90.1947 239.484 90.1203 239.09 90.1649C238.569 90.217 238.079 90.4625 237.722 90.9014L232.605 97.1654L233.87 98.1995L240.242 90.3881Z" fill="#E8E8E8"/>
<path d="M237.096 87.8178C236.732 87.6243 236.337 87.5499 235.943 87.5946C235.423 87.6467 234.932 87.8922 234.575 88.3311L229.459 94.5951L230.723 95.6292L237.096 87.8178Z" fill="#E8E8E8"/>
<path d="M233.951 85.2416C233.587 85.0482 233.193 84.9738 232.799 85.0184C232.278 85.0705 231.787 85.316 231.431 85.7549L226.314 92.0189L227.579 93.053L233.951 85.2416Z" fill="#E8E8E8"/>
<path d="M230.805 82.6674C230.441 82.474 230.046 82.3996 229.652 82.4442C229.132 82.4963 228.641 82.7418 228.284 83.1807L223.168 89.4447L224.432 90.4788L230.805 82.6674Z" fill="#E8E8E8"/>
<path d="M232.002 80.8157C231.407 82.1474 231.482 83.784 232.746 85.2273C235.178 88.0096 238.866 90.7771 242.673 92.4138C248.808 95.0548 250.749 88.2403 250.749 88.2403C246.295 91.0226 243.03 83.9328 239.074 79.6179C239.015 79.551 238.948 79.484 238.888 79.4245C237.022 77.5275 234.65 77.9069 233.14 79.2683C232.657 79.6923 232.263 80.228 232.002 80.8157Z" fill="#009CDA"/>
<path d="M232.004 80.8162C232.919 82.252 234.547 84.5359 236.763 86.5892C239.916 89.5129 246.854 96.0075 250.75 88.2482C250.624 88.4639 249.189 90.8818 246.683 90.7925C244.065 90.7032 237.284 85.3394 234.949 81.7387C234.302 80.7492 233.714 79.916 233.149 79.2539C232.658 79.6928 232.264 80.2285 232.004 80.8162Z" fill="#0386D1"/>
<path d="M242.116 86.8712C238.064 83.0994 236.762 80.2427 235.097 78.2266C234.375 78.3977 233.699 78.7622 233.148 79.2681C233.706 79.9302 234.301 80.7634 234.948 81.7529C237.29 85.3461 244.065 90.7174 246.682 90.8067C249.136 90.896 250.571 88.5674 250.742 88.2698C250.549 88.5153 247.738 92.1086 242.116 86.8712Z" fill="white"/>
<path d="M209.143 34.1074C209.143 34.1074 216.126 51.4637 217.256 59.9818C217.256 59.9818 213.174 76.8099 207.983 80.8272L204.562 78.1415C204.562 78.1415 207.292 74.2135 209.143 68.6711C210.995 63.1287 211.307 60.1529 211.307 60.1529L207.857 50.9206C207.857 50.928 207.477 39.2778 209.143 34.1074Z" fill="#009CDA"/>
<path d="M204.362 84.8294C206.824 84.1152 208.69 82.0842 209.055 79.8003L205.56 76.4377C205.56 76.4377 204.6 75.9244 203.567 75.6565C203.076 75.5301 202.213 76.1029 202.548 76.4898L204.08 77.747C204.08 77.747 202.414 79.0564 201.946 79.7557C201.618 80.2839 201.031 81.0055 200.786 81.7271C199.975 84.0259 201.901 85.5436 204.362 84.8294Z" fill="#F4B595"/>
<path d="M169.39 64.1617C168.036 61.9894 167.91 58.8946 169.843 57.2207L173.606 57.8233C173.606 57.8233 175.13 57.9423 176.03 58.53C176.454 58.8053 176.246 59.4823 175.733 59.4823L173.621 59.4972C173.621 59.4972 172.892 61.3422 173.621 62.3614C173.978 62.8672 175.725 63.9534 175.725 64.2361C175.733 66.6837 170.803 66.4159 169.39 64.1617Z" fill="#F4B595"/>
<path d="M180.736 33.875C180.736 33.875 169.641 37.312 165.826 41.7608C165.648 46.5667 167.975 53.6937 169.849 57.4581C169.849 57.4581 171.411 58.6781 173.612 58.0607C173.612 58.0607 171.507 48.3894 172.035 45.4954C172.035 45.4954 177.94 42.847 181.695 42.9139C181.695 42.9139 183.777 34.7082 180.736 33.875Z" fill="#009CDA"/>
<defs>
<linearGradient id="paint0_linear" x1="174.095" y1="-995.759" x2="174.095" y2="470.847" gradientUnits="userSpaceOnUse">
<stop stop-color="white"/>
<stop offset="1" stop-color="white" stop-opacity="0"/>
</linearGradient>
<linearGradient id="paint1_linear" x1="305.033" y1="-82.4722" x2="305.033" y2="111.833" gradientUnits="userSpaceOnUse">
<stop stop-color="white"/>
<stop offset="1" stop-color="white" stop-opacity="0"/>
</linearGradient>
<linearGradient id="paint2_linear" x1="29.3308" y1="101.114" x2="29.3308" y2="222.574" gradientUnits="userSpaceOnUse">
<stop stop-color="white"/>
<stop offset="1" stop-color="white" stop-opacity="0"/>
</linearGradient>
<linearGradient id="paint3_linear" x1="313.335" y1="75.9636" x2="313.335" y2="223.104" gradientUnits="userSpaceOnUse">
<stop stop-color="white"/>
<stop offset="1" stop-color="white" stop-opacity="0"/>
</linearGradient>
<linearGradient id="paint4_linear" x1="43.9753" y1="-71.3585" x2="43.9753" y2="67.047" gradientUnits="userSpaceOnUse">
<stop stop-color="white"/>
<stop offset="1" stop-color="white" stop-opacity="0"/>
</linearGradient>
</defs>
</svg>
