<svg width="357" height="362" viewBox="0 0 357 362" fill="none" xmlns="http://www.w3.org/2000/svg">
<path d="M280.588 44.5367L172.212 3.35209C172.212 3.35209 153.2 -2.36441 148.454 1.13286C144.204 7.83018 155.587 15.1814 155.587 15.1814L275.168 60.6162L280.132 67.789L285.502 69.8299L286.641 53.6315L286.988 53.7603L306.426 40.3657L298.659 37.4133L280.588 44.5367Z" fill="#C0C5BF"/>
<path d="M195.682 29.201C195.682 29.201 220.143 85.2069 223.343 85.4645C226.543 85.7221 229.039 81.4223 229.039 81.4223L218.924 38.0284C218.924 38.0284 208.422 27.9329 195.682 29.201Z" fill="#E0E6E4"/>
<path d="M182.187 13.9614C180.969 13.4957 179.612 14.11 179.146 15.3286C178.68 16.5472 179.295 17.9045 180.513 18.3701C181.732 18.8358 183.089 18.2215 183.555 17.0029C184.02 15.7843 183.406 14.4171 182.187 13.9614Z" fill="white"/>
<path d="M171.855 10.0268C170.637 9.56118 169.28 10.1754 168.814 11.394C168.348 12.6126 168.963 13.9699 170.181 14.4356C171.4 14.9012 172.757 14.287 173.223 13.0684C173.678 11.8597 173.074 10.4925 171.855 10.0268Z" fill="white"/>
<path d="M160.996 5.90915C159.777 5.4435 158.42 6.05775 157.955 7.27635C157.489 8.49495 158.103 9.85224 159.322 10.3179C160.54 10.7835 161.898 10.1693 162.363 8.95068C162.819 7.73208 162.205 6.37479 160.996 5.90915Z" fill="white"/>
<path d="M192.521 17.8872C191.303 17.4215 189.946 18.0358 189.48 19.2544C189.014 20.473 189.629 21.8402 190.847 22.2959C192.066 22.7616 193.423 22.1473 193.889 20.9287C194.344 19.7101 193.74 18.3528 192.521 17.8872Z" fill="white"/>
<path d="M204.361 22.3823C203.143 21.9166 201.785 22.5309 201.32 23.7495C200.854 24.9681 201.468 26.3254 202.687 26.791C203.906 27.2567 205.263 26.6424 205.729 25.4238C206.194 24.2052 205.58 22.8479 204.361 22.3823Z" fill="white"/>
<path d="M215.148 26.4839C213.93 26.0182 212.573 26.6325 212.107 27.8511C211.641 29.0697 212.255 30.427 213.474 30.8926C214.693 31.3582 216.05 30.744 216.516 29.5254C216.981 28.3068 216.367 26.9495 215.148 26.4839Z" fill="white"/>
<path d="M226.998 30.9839C225.779 30.5182 224.422 31.1325 223.957 32.3511C223.491 33.5697 224.105 34.927 225.324 35.3926C226.542 35.8582 227.9 35.244 228.365 34.0254C228.821 32.8068 228.207 31.4495 226.998 30.9839Z" fill="white"/>
<path d="M239.621 35.7773C238.402 35.3117 237.045 35.9259 236.58 37.1445C236.114 38.3631 236.728 39.7204 237.947 40.186C239.165 40.6517 240.523 40.0374 240.988 38.8188C241.454 37.6002 240.84 36.243 239.621 35.7773Z" fill="white"/>
<path d="M251.459 40.2773C250.24 39.8117 248.883 40.4259 248.417 41.6445C247.952 42.8631 248.566 44.2204 249.785 44.686C251.003 45.1517 252.361 44.5374 252.826 43.3188C253.292 42.1002 252.678 40.743 251.459 40.2773Z" fill="white"/>
<path d="M262.258 44.3784C261.039 43.9127 259.682 44.527 259.216 45.7456C258.751 46.9642 259.365 48.3215 260.583 48.7871C261.802 49.2528 263.159 48.6385 263.625 47.4199C264.081 46.2013 263.476 44.844 262.258 44.3784Z" fill="white"/>
<path fill-rule="evenodd" clip-rule="evenodd" d="M256.492 169.909C255.877 171.772 254.986 173.872 253.311 174.397C252.152 174.764 248.417 172.465 247.595 171.544C246.782 170.622 242.413 126.267 243.543 123.573C245.059 119.947 261.931 124.95 262.297 131.241C262.763 139.276 261.723 147.826 260.167 155.791C259.246 160.557 258.017 165.282 256.492 169.909Z" fill="#222B54"/>
<path d="M285.837 206.248C284.252 207.08 282.489 207.545 280.695 207.595C280.121 205.594 279.546 203.583 278.962 201.581C278.892 201.324 278.813 201.066 278.872 200.808C278.962 200.432 279.308 200.174 279.645 199.986C280.923 199.273 282.964 198.47 283.608 200.155C284.381 202.176 285.094 204.217 285.837 206.248Z" fill="#E79E84"/>
<path d="M253.261 211.084C251.498 211.342 249.675 211.203 247.961 210.658C248.04 208.578 248.119 206.497 248.209 204.417C248.219 204.149 248.228 203.882 248.367 203.654C248.565 203.327 248.971 203.198 249.358 203.129C250.794 202.871 252.994 202.792 253.073 204.605C253.162 206.755 253.192 208.924 253.261 211.084Z" fill="#E79E84"/>
<path fill-rule="evenodd" clip-rule="evenodd" d="M247.089 164.798C248.853 161.112 254.044 158.586 257.313 164.976C262.297 174.725 253.668 192.964 253.707 204.744H247.664C247.327 203.604 246.108 166.848 247.089 164.798Z" fill="#222B54"/>
<path fill-rule="evenodd" clip-rule="evenodd" d="M270.154 134.373C268.678 135.532 266.736 135.711 264.913 135.711C249.884 135.711 243.266 132.134 243.266 123.921C243.266 116.51 258.85 117.977 265.874 120.255C267.39 120.751 269.599 121.226 270.63 122.643C272.126 124.684 273.731 131.55 270.154 134.373Z" fill="#223C5F"/>
<path d="M249.596 85.7471C249.111 92.6525 247.753 99.7362 243.87 105.463C243.028 106.701 241.819 107.979 240.333 107.821C239.461 107.731 238.708 107.137 238.242 106.394C237.777 105.661 237.559 104.789 237.39 103.937C236.132 97.19 238.193 90.3045 240.244 83.7558C241.086 81.061 242.215 76.2758 244.959 74.8194C247.823 73.3036 249.259 77.9897 249.527 79.8919C249.784 81.8337 249.725 83.8053 249.596 85.7471Z" fill="#E79E84"/>
<path fill-rule="evenodd" clip-rule="evenodd" d="M249.923 75.9271C249.794 74.7877 249.487 73.4403 248.427 72.9351C247.307 72.41 246.109 73.1728 245.237 73.9555C239.956 78.6912 237.965 85.3687 237.004 92.5416L249.656 93.3341C250.498 87.6176 250.597 81.7525 249.923 75.9271Z" fill="#82E7FD"/>
<path fill-rule="evenodd" clip-rule="evenodd" d="M268.876 169.909C268.371 171.772 267.588 173.872 265.943 174.397C264.804 174.764 262.357 170.058 261.495 169.137C260.623 168.215 252.232 133.421 253.212 130.716C254.53 127.09 257.829 124.752 261.218 124.207C266.151 123.424 271.818 124.95 272.532 131.241C273.443 139.276 272.878 147.826 271.769 155.791C271.105 160.557 270.134 165.283 268.876 169.909Z" fill="#223C5F"/>
<path d="M232.317 104.411C231.961 105.204 232.327 106.175 232.971 106.769C233.615 107.363 238.063 109.454 242.433 107.522C244.632 106.551 244.969 104.431 244.196 102.42C243.116 99.6259 232.733 103.47 232.317 104.411Z" fill="#ECB48E"/>
<path fill-rule="evenodd" clip-rule="evenodd" d="M260.385 166.136C260.514 162.193 264.883 157.576 270.104 162.916C278.515 171.515 280.972 187.902 284.252 200.088L278.545 202.089C277.762 201.158 260.316 168.325 260.385 166.136Z" fill="#223C5F"/>
<path fill-rule="evenodd" clip-rule="evenodd" d="M273.194 101.055C275.245 94.4762 277.762 86.3522 276.622 79.4667C273.838 76.0685 268.142 68.1724 256.847 68.1724C248.921 68.1724 242.997 76.1675 241.62 78.2084C240.084 80.4772 240.649 83.6971 241.025 86.3225C241.838 91.9102 244.255 113.845 242.155 129.072H274.145C274.086 121.8 271.134 107.683 273.194 101.055Z" fill="#82E7FD"/>
<path d="M280.556 93.0492C278.971 87.0058 275.593 81.4478 270.956 77.257C270.124 76.5041 268.985 75.7511 267.954 76.187C267.39 76.4248 267.013 76.9895 266.845 77.584C266.676 78.1784 266.696 78.8026 266.716 79.4168C267.003 86.5699 268.301 93.6338 269.599 100.668C269.995 102.828 270.402 105.017 271.343 107.009C272.274 109 273.81 110.803 275.87 111.576C276.95 111.982 278.704 112.22 279.695 111.447C280.497 110.823 280.626 109.238 280.824 108.336C281.537 105.136 281.765 101.817 281.498 98.5478C281.339 96.6951 281.032 94.8524 280.556 93.0492Z" fill="#E79E84"/>
<path fill-rule="evenodd" clip-rule="evenodd" d="M282.35 95.3203C282.359 95.3597 282.369 95.409 282.369 95.4583C282.369 95.409 282.359 95.3696 282.35 95.3203Z" fill="#4D878B"/>
<path fill-rule="evenodd" clip-rule="evenodd" d="M266.518 75.9281C266.577 74.7888 266.795 73.4414 267.825 72.9361C268.915 72.411 270.926 73.4017 271.848 74.1844C277.426 78.9201 280.527 85.3796 281.933 92.5525L267.875 93.3352C266.676 87.6187 266.211 81.7536 266.518 75.9281Z" fill="#82E7FD"/>
<path d="M253.679 60.2435C254.452 56.8255 257.037 56.033 258.533 56.8454C259.494 63.2355 260.475 66.0789 262.982 69.5663C259.871 71.5676 254.551 71.1911 253.401 69.5663C253.362 69.061 253.282 62.017 253.679 60.2435Z" fill="#E79E84"/>
<path d="M253.848 52.2285C250.757 50.0886 246.308 51.9412 245.664 55.9041C245.08 59.5203 248.716 65.7322 250.44 66.7427C253.462 68.5062 257.523 64.2758 257.662 62.2448C257.88 59.2726 256.454 54.0317 253.848 52.2285Z" fill="#ECB48E"/>
<path fill-rule="evenodd" clip-rule="evenodd" d="M256.046 52.9911C256.283 52.8326 256.61 52.8425 256.878 52.9614C257.145 53.0803 257.363 53.2784 257.571 53.4765C258.295 54.1403 259.028 54.814 259.592 55.6165C260.167 56.419 260.573 57.3701 260.573 58.3509C260.573 58.985 260.405 59.6488 260.623 60.2531C260.821 60.7881 261.316 61.2835 261.168 61.8383C261.059 62.2445 260.593 62.4922 260.167 62.4426C259.741 62.3931 259.375 62.1256 259.107 61.7888C258.84 61.4618 258.651 61.0754 258.433 60.7089C257.71 59.5002 256.67 58.5094 255.917 57.3107C255.174 56.1119 254.758 54.5465 255.431 53.3081L256.046 52.9911Z" fill="#222B56"/>
<path fill-rule="evenodd" clip-rule="evenodd" d="M241.711 54.5887C242.375 54.3212 243.048 54.0438 243.712 53.7763C243.405 54.1527 243.088 54.549 242.969 55.0246C242.85 55.5001 242.979 56.0748 243.405 56.3224C243.732 56.5107 244.158 56.4611 244.495 56.2927C244.832 56.1144 245.099 55.837 245.367 55.5695C245.228 55.8271 245.089 56.0946 245.089 56.3819C245.089 56.6692 245.278 56.9862 245.565 57.0159C245.793 57.0457 246.001 56.8872 246.179 56.7484C247.081 56.0351 247.992 55.3218 248.894 54.6085C248.844 54.8958 248.785 55.1831 248.834 55.4704C248.884 55.7577 249.042 56.0351 249.32 56.1441C249.795 56.3323 250.281 55.9063 250.568 55.4902C250.855 55.0741 251.153 54.5688 251.658 54.4896C252.223 54.4004 252.688 54.9057 253.025 55.3614C253.084 55.4407 253.144 55.5199 253.213 55.6091C253.847 56.4413 254.481 57.2834 255.115 58.1157C255.314 58.3732 255.512 58.6308 255.779 58.8092C256.047 58.9875 256.394 59.0866 256.691 58.9677C257.206 58.7695 262.734 50.6059 255.66 48.1093C254.63 47.7526 253.184 48.1489 252.153 48.4759C251.113 48.8028 250.132 49.318 249.062 49.5161C248.21 49.6647 247.338 49.6152 246.486 49.6945C244.069 49.9223 241.77 52.1217 241.711 54.5887Z" fill="#222B56"/>
<path d="M259.337 56.32C259.654 57.1224 259.654 58.0438 259.317 58.8364C258.366 61.1052 256.137 59.0742 256.028 57.4296C255.899 55.4679 258.465 54.1404 259.337 56.32Z" fill="#ECB48E"/>
<path fill-rule="evenodd" clip-rule="evenodd" d="M236.697 214.134C236.617 213.272 237.44 212.549 238.282 212.351C239.124 212.153 240.006 212.301 240.878 212.291C243.354 212.262 245.762 210.775 246.901 208.576C247.06 208.269 247.208 207.942 247.506 207.774C247.902 207.556 248.417 207.714 248.764 208.001C249.111 208.289 249.358 208.685 249.685 209.002C250.26 209.577 251.082 209.894 251.885 209.884C252.568 209.874 253.321 209.359 253.975 209.696C254.55 210.003 254.708 210.795 254.857 211.37C255.104 212.351 255.332 213.341 255.58 214.322C255.63 214.54 255.689 214.768 255.699 214.996H250.983C250.765 214.689 250.587 213.787 250.488 213.411C250.468 213.797 250.319 214.699 250.081 214.996H237.103C236.875 214.758 236.726 214.461 236.697 214.134Z" fill="#82E7FD"/>
<path fill-rule="evenodd" clip-rule="evenodd" d="M279.624 211.67C279.307 210.868 279.406 210.065 279.693 209.758C279.981 209.441 280.04 207.886 280.07 205.627C280.08 204.597 281.843 203.685 283.319 204.943C283.795 205.349 284.191 205.587 284.528 205.458C284.806 205.349 284.954 204.745 285.331 204.983C285.667 205.181 285.994 205.914 286.252 206.429C286.678 207.321 287.104 208.213 287.53 209.104C287.629 209.302 287.718 209.511 287.798 209.719L280.08 212.423C279.911 212.225 279.753 211.968 279.624 211.67Z" fill="#82E7FD"/>
<path d="M257.651 113.775H238.46C237.321 113.775 236.142 112.854 235.825 111.715L227.384 81.5568C227.067 80.4175 227.731 79.4961 228.86 79.4961H248.05C249.19 79.4961 250.369 80.4175 250.686 81.5568L259.127 111.715C259.444 112.854 258.78 113.775 257.651 113.775Z" fill="#A0CFE9"/>
<path d="M259.127 111.711L250.686 81.5529C250.369 80.4136 249.19 79.4922 248.051 79.4922H246C247.139 79.4922 248.318 80.4136 248.635 81.5529L257.076 111.711C257.393 112.85 256.73 113.771 255.6 113.771H257.651C258.78 113.771 259.444 112.85 259.127 111.711Z" fill="#4479A4"/>
<path d="M256.393 104.83C255.452 105.444 255.303 106.831 255.779 107.841C256.264 108.852 272.581 112.805 276.515 112.746C277.713 112.726 279.091 112.607 279.794 111.646C280.418 110.784 280.24 109.575 279.903 108.565C279.338 106.861 278.347 104.939 276.951 103.76C275.99 102.947 256.987 104.433 256.393 104.83Z" fill="#ECB48E"/>
<path d="M250.498 101.937C250.102 101.392 249.706 100.639 250.112 100.094C250.379 99.7375 250.905 99.6583 251.331 99.797C251.757 99.9357 252.103 100.233 252.45 100.51C252.916 100.897 253.431 101.273 254.025 101.352C254.62 101.442 255.323 101.125 255.462 100.54C255.62 99.8961 255.115 99.0936 255.591 98.6279C255.838 98.3902 256.255 98.4001 256.562 98.5685C256.869 98.7369 257.077 99.0242 257.285 99.3016C258.385 100.778 259.504 102.313 259.94 104.097C260.376 105.88 259.97 108.01 258.474 109.09C257.136 110.051 255.165 109.912 253.877 108.882C252.777 108.01 252.361 106.752 252.212 105.405C252.064 103.938 251.4 103.185 250.498 101.937Z" fill="#ECB48E"/>
<path d="M231.289 100.413C231.358 100.205 231.477 96.9157 231.645 96.777C231.953 96.5293 233.112 100.403 232.874 100.72C233.716 100.631 233.964 100.601 234.796 100.512C235.4 100.443 236.203 100.492 236.391 101.077C236.54 101.542 236.163 101.988 235.906 102.404C235.44 103.137 236.124 107.447 235.767 107.814C234.439 109.161 231.517 106.823 231.031 105.505C230.348 103.682 230.684 102.167 231.289 100.413Z" fill="#ECB48E"/>
<path d="M233.329 220.503C233.319 220.949 233.111 221.424 232.605 221.89C230.693 223.663 230.842 222.009 231.08 220.503H223.263C222.966 221.107 222.668 221.741 222.282 222.138C222.163 221.434 221.886 220.919 221.509 220.503H177.808L177.561 222.782L189.251 224.06L192.996 232.055L187.904 236.404L194.789 240.724L202.24 241.536L203.508 244.29C205.876 241.179 210.79 237.969 214.435 237.375C219.439 236.553 218.557 239.743 217.804 243.339C221.618 244.905 221.262 239.446 224.204 239.099C226.552 238.821 228.385 241.447 230.535 242.111C232.11 242.596 233.596 241.982 235.043 242.051C240.799 242.319 246.287 247.57 250.379 251.295C251.925 252.702 252.876 254.396 254.897 255.188C256.383 255.773 258.741 254.97 260.098 255.723C261.465 256.486 263.645 260.172 263.506 261.995C263.249 265.215 259.088 265.7 258.394 268.157C257.611 270.971 260.96 273.002 263.625 272.774C265.626 272.605 266.151 270.931 267.826 270.891C268.45 270.881 268.985 270.604 269.659 270.872C271.293 271.525 270.659 272.912 271.373 273.428C273.404 274.904 276.108 274.22 278.526 274.785C283.39 275.914 282.31 279.818 287.066 280.61C287.769 289.646 279.566 293.827 277.01 301.812C275.474 306.607 273.413 308.024 269.55 311.184C265.587 314.424 262.426 318.02 257.899 320.527C253.817 322.786 249.19 324.51 245.782 327.7C242.622 330.652 241.908 332.118 237.48 333.198C235.34 333.723 233.448 333.515 232.467 335.467C231.189 337.983 232.794 338.865 229.831 340.688C226.701 342.61 222.252 340.787 219.023 342.353C218.289 342.699 218.279 343.71 217.804 343.987C216.813 344.562 215.139 343.928 214.257 344.661C213.524 345.275 213.504 347.257 213.128 348.198C212.295 350.269 211.86 350.784 210.205 352.438C207.768 354.885 204.092 358.115 201.229 360.047C258.84 352.547 306.86 308.063 318.64 248.491C318.254 246.866 317.957 245.469 317.897 244.786C317.699 242.537 317.967 231.857 320.106 224.505C320.513 223.118 320.949 221.821 321.385 220.642C321.385 220.592 321.385 220.543 321.385 220.503H233.329Z" fill="#4880EF"/>
<path d="M202.22 297.64C199.545 295.867 196.127 294.242 195.879 290.864C195.721 288.615 196.83 287.703 195.988 285.375C195.295 283.463 193.898 282.125 192.421 280.748C189.122 277.687 185.803 277.023 190.46 273.922C192.114 272.822 193.699 273.328 193.382 270.782C193.105 268.552 190.856 268.404 190.955 265.461C191.024 263.411 192.838 259.487 194.492 258.061C195.978 256.763 197.514 257.476 198.99 256.555C201.447 255.019 201.378 251.026 202.081 247.727L197.712 243.685L191.797 243.041L182.831 235.839L179.047 229.627L170.467 226.456L165.058 220.492H47.4482C46.6655 291.488 98.6985 352.665 169.248 360.363C177.61 361.275 185.883 361.394 193.987 360.789C193.075 360.324 192.233 359.63 191.559 358.689C187.567 353.141 193.462 351.397 195.562 347.196C198.207 341.896 197.662 336.269 200.912 330.948C204.221 325.519 204.825 318.683 210.631 312.253C211.503 310.639 213.851 305.507 212.89 303.535C211.632 300.979 204.825 299.374 202.22 297.64Z" fill="#4880EF"/>
<path d="M317.917 244.784C317.976 245.468 318.274 246.875 318.66 248.49C319.463 244.428 320.107 240.306 320.562 236.115C321.127 230.914 321.404 225.752 321.404 220.64C320.959 221.819 320.523 223.117 320.126 224.504C317.986 231.865 317.719 242.535 317.917 244.784Z" fill="white"/>
<path d="M278.547 274.802C276.119 274.238 273.415 274.921 271.394 273.445C270.68 272.92 271.324 271.543 269.68 270.889C269.006 270.621 268.461 270.889 267.847 270.909C266.172 270.948 265.647 272.623 263.646 272.791C260.971 273.019 257.622 270.998 258.415 268.174C259.099 265.717 263.27 265.232 263.527 262.012C263.676 260.189 261.496 256.494 260.119 255.741C258.762 254.988 256.404 255.78 254.918 255.206C252.897 254.413 251.956 252.719 250.4 251.312C246.308 247.587 240.83 242.346 235.064 242.069C233.617 241.999 232.131 242.614 230.556 242.128C228.406 241.464 226.573 238.839 224.225 239.116C221.283 239.463 221.639 244.922 217.825 243.357C218.578 239.77 219.46 236.58 214.456 237.392C210.821 237.987 205.907 241.187 203.529 244.308L204.638 246.725L204.302 249.806L202.092 247.755C201.389 251.055 201.458 255.047 199.001 256.583C197.525 257.514 195.989 256.801 194.503 258.089C192.849 259.515 191.036 263.439 190.966 265.489C190.867 268.422 193.116 268.58 193.394 270.81C193.711 273.346 192.125 272.841 190.471 273.95C185.815 277.051 189.143 277.705 192.433 280.776C193.909 282.153 195.306 283.491 195.999 285.403C196.841 287.721 195.732 288.643 195.89 290.892C196.138 294.27 199.556 295.885 202.231 297.668C204.837 299.392 211.643 301.007 212.901 303.563C213.872 305.535 211.514 310.667 210.642 312.282C204.827 318.701 204.232 325.547 200.923 330.977C197.674 336.297 198.228 341.934 195.573 347.224C193.473 351.425 187.578 353.169 191.571 358.717C192.244 359.658 193.086 360.352 193.998 360.817C196.435 360.639 198.853 360.381 201.26 360.064C204.123 358.132 207.799 354.903 210.236 352.456C211.891 350.801 212.326 350.286 213.159 348.215C213.535 347.274 213.545 345.293 214.288 344.678C215.17 343.945 216.844 344.589 217.835 344.005C218.31 343.727 218.32 342.717 219.053 342.37C222.283 340.814 226.732 342.637 229.862 340.706C232.825 338.883 231.23 338.001 232.498 335.484C233.488 333.533 235.381 333.731 237.511 333.216C241.939 332.136 242.653 330.679 245.813 327.717C249.221 324.527 253.848 322.803 257.93 320.544C262.457 318.038 265.618 314.441 269.581 311.202C273.444 308.041 275.495 306.624 277.041 301.829C279.597 293.854 287.8 289.663 287.097 280.628C282.331 279.825 283.401 275.932 278.547 274.802Z" fill="white"/>
<path d="M194.8 240.724L187.915 236.404L193.007 232.055L189.262 224.06L177.571 222.782L177.819 220.503H165.068L170.478 226.467L179.057 229.637L182.842 235.849L191.808 243.052L197.723 243.696L202.092 247.738C202.349 246.529 202.706 245.42 203.33 244.548C203.39 244.459 203.469 244.37 203.528 244.28L202.26 241.526L194.8 240.724Z" fill="white"/>
<path d="M203.311 244.558C202.687 245.43 202.33 246.54 202.072 247.749L204.282 249.799L204.618 246.718L203.509 244.301C203.449 244.38 203.38 244.469 203.311 244.558Z" fill="white"/>
<path d="M223.053 129.463C223.053 137.002 223.053 144.542 223.053 152.091C223.053 153.26 221.23 153.26 221.23 152.091C221.23 144.552 221.23 137.012 221.23 129.463C221.24 128.294 223.053 128.294 223.053 129.463Z" fill="#0F1B58"/>
<path d="M200.424 129.463C200.424 137.002 200.424 144.542 200.424 152.091C200.424 153.26 198.602 153.26 198.602 152.091C198.602 144.552 198.602 137.012 198.602 129.463C198.611 128.294 200.424 128.294 200.424 129.463Z" fill="#0F1B58"/>
<path d="M198.117 127.445H224.094C225.203 127.445 226.115 128.357 226.115 129.466C226.115 130.576 225.203 131.487 224.094 131.487H198.117C197.007 131.487 196.096 130.576 196.096 129.466C196.106 128.357 197.007 127.445 198.117 127.445Z" fill="#65B3F7"/>
<path d="M200.276 149.271C202.119 148.052 205.507 147.527 208.43 147.309V147.17C208.43 147.17 209.52 147.131 211.105 147.18C212.69 147.141 213.78 147.17 213.78 147.17V147.309C216.703 147.527 220.091 148.052 221.934 149.271C225.619 151.698 228.175 152.758 231.544 153.967C234.902 155.175 237.042 157.147 237.042 157.147V214.817H185.178V157.147C185.178 157.147 187.308 155.175 190.676 153.967C194.035 152.748 196.591 151.688 200.276 149.271Z" fill="#4880EF"/>
<path d="M229.225 214.816C231.197 214.816 232.801 216.421 232.801 218.393C232.801 220.364 231.197 221.969 229.225 221.969C227.253 221.969 225.648 220.364 225.648 218.393C225.648 216.421 227.244 214.816 229.225 214.816Z" fill="#0F1B58"/>
<path d="M192.994 214.816C194.966 214.816 196.571 216.421 196.571 218.393C196.571 220.364 194.966 221.969 192.994 221.969C191.023 221.969 189.418 220.364 189.418 218.393C189.418 216.421 191.013 214.816 192.994 214.816Z" fill="#0F1B58"/>
<path d="M211.333 160.126C213.166 160.107 225.738 160.206 237.033 166.695V214.805H185.168V166.962C196.581 160.216 209.48 160.107 211.333 160.126Z" fill="#65B3F7"/>
<path d="M174.489 86.5936C174.489 98.304 174.489 110.004 174.489 121.715C174.489 123.389 174.489 125.064 174.489 126.738C174.489 127.907 172.666 127.907 172.666 126.738C172.666 115.027 172.666 103.327 172.666 91.6166C172.666 89.9423 172.666 88.2679 172.666 86.5936C172.666 85.4245 174.489 85.4245 174.489 86.5936Z" fill="#2736AB"/>
<path d="M154.397 86.5936C154.397 98.304 154.397 110.004 154.397 121.715C154.397 123.389 154.397 125.064 154.397 126.738C154.397 127.907 152.574 127.907 152.574 126.738C152.574 115.027 152.574 103.327 152.574 91.6166C152.574 89.9423 152.574 88.2679 152.574 86.5936C152.584 85.4245 154.397 85.4245 154.397 86.5936Z" fill="#2736AB"/>
<path d="M139.913 123.469H163.037H163.889H187.013C187.013 123.469 193.116 127.115 193.551 133.664C193.977 140.213 193.551 210.495 193.551 210.495C193.551 210.495 190.916 217.212 181.504 217.539C173.291 217.816 165.365 217.608 163.473 217.549C161.581 217.608 153.655 217.816 145.442 217.539C136.03 217.222 133.394 210.495 133.394 210.495C133.394 210.495 132.968 140.213 133.394 133.664C133.801 127.115 139.913 123.469 139.913 123.469Z" fill="#0F1B58"/>
<path d="M143.916 213.396C146.71 213.396 148.979 215.318 148.979 217.686C148.979 220.054 146.71 221.976 143.916 221.976C141.122 221.976 138.854 220.054 138.854 217.686C138.854 215.318 141.122 213.396 143.916 213.396Z" fill="#080E2C"/>
<path d="M143.916 215.856C145.115 215.856 146.085 216.679 146.085 217.689C146.085 218.7 145.115 219.522 143.916 219.522C142.717 219.522 141.746 218.7 141.746 217.689C141.756 216.669 142.717 215.856 143.916 215.856Z" fill="#99E0F9"/>
<path d="M183.545 213.396C186.339 213.396 188.608 215.318 188.608 217.686C188.608 220.054 186.339 221.976 183.545 221.976C180.751 221.976 178.482 220.054 178.482 217.686C178.482 215.318 180.741 213.396 183.545 213.396Z" fill="#080E2C"/>
<path d="M183.545 215.856C184.743 215.856 185.714 216.679 185.714 217.689C185.714 218.7 184.743 219.522 183.545 219.522C182.346 219.522 181.375 218.7 181.375 217.689C181.375 216.669 182.346 215.856 183.545 215.856Z" fill="#99E0F9"/>
<path d="M142.489 134.274H184.417C186.418 134.274 188.053 135.909 188.053 137.91V206.548C188.053 208.549 186.418 210.184 184.417 210.184H142.489C140.488 210.184 138.854 208.549 138.854 206.548V137.91C138.854 135.909 140.488 134.274 142.489 134.274Z" fill="#2736AB"/>
<path d="M151.694 82.4424H175.224C176.304 82.4424 177.196 83.3241 177.196 84.4139V84.622C177.196 85.7019 176.314 86.5935 175.224 86.5935H151.694C150.614 86.5935 149.723 85.7118 149.723 84.622V84.4139C149.723 83.334 150.614 82.4424 151.694 82.4424Z" fill="#0F1B58"/>
<path d="M138.854 129.738C153.2 129.738 167.546 129.738 181.892 129.738C183.942 129.738 186.003 129.738 188.054 129.738C188.638 129.738 188.638 130.65 188.054 130.65C173.708 130.65 159.362 130.65 145.017 130.65C142.966 130.65 140.905 130.65 138.854 130.65C138.27 130.65 138.27 129.738 138.854 129.738Z" fill="#2736AB"/>
<path d="M61.9627 260.616C61.9627 260.616 56.8109 263.905 53.2542 265.738C49.6975 267.571 49.2418 268.036 50.5297 269.027C51.8177 270.018 59.2382 269.869 60.4568 269.027C61.6655 268.185 62.3491 269.413 62.3491 269.413C62.3491 269.413 65.2321 269.948 65.8365 269.186C66.4408 268.423 65.8067 263.172 65.8067 263.172C65.8067 263.172 64.7665 260.388 61.9627 260.616Z" fill="#0F1B58"/>
<path d="M50.4517 191.71C47.4003 200.577 61.9243 239.632 58.4469 262.785C58.4469 262.785 61.538 260.744 65.5801 262.785C65.5801 262.785 76.8447 231.399 74.1896 214.923C71.5344 198.447 98.6704 199.052 100.454 198.447C102.237 197.833 114.661 189.58 114.661 189.58C114.661 189.58 53.5032 182.843 50.4517 191.71Z" fill="#49818D"/>
<path d="M127.54 137.872C112.402 136.406 101.632 149.038 101.632 149.038C98.4324 152.268 91.4478 168.139 87.0787 173.727C82.7096 179.315 64.6387 182.782 64.6387 182.782C65.4907 184.199 66.1149 186.656 66.1149 186.656C66.1149 186.656 88.5251 186.071 91.1506 185.477C93.776 184.882 102.207 179.602 105.417 176.362C108.617 173.132 110.658 173.717 110.658 173.717C117.058 177.828 113.571 191.352 113.571 191.352C129.868 200.169 139.766 191.352 139.766 191.352C139.766 191.352 138.597 190.173 138.309 183.713C138.022 177.244 143.837 160.788 144.709 154.328C145.581 147.869 142.668 139.349 127.54 137.872Z" fill="#DB3A88"/>
<path d="M119.414 120.475C117.512 119.484 115.045 119.435 113.034 120.316C111.656 120.921 110.487 121.961 109.883 123.437C108.1 127.796 110.943 133.513 114.153 136.426C114.688 136.911 115.292 137.278 115.926 137.525L116.798 141.231C116.798 141.231 120.811 142.806 122.594 139.428L121.99 135.584C122.178 135.346 122.356 135.098 122.535 134.821C125.556 130.065 124.645 123.2 119.414 120.475Z" fill="#E8A198"/>
<path d="M92.9531 182.117C89.5748 181.066 85.166 186.307 85.166 186.307C85.166 186.307 90.0998 186.565 91.9129 185.782C93.7259 185 94.5086 185.782 95.5488 186.307C96.5891 186.832 98.4021 186.307 98.4021 186.307C97.3619 184.207 98.4021 183.167 98.4021 183.167C98.4021 183.167 96.3315 183.167 92.9531 182.117Z" fill="#E8A198"/>
<path d="M64.6379 182.781C63.4688 182.197 58.5449 184.01 58.5449 184.01L59.4168 186.655H66.1141C66.1141 186.655 65.7971 183.376 64.6379 182.781Z" fill="#E8A198"/>
<path d="M123.944 117.592C123.568 116.958 123.855 116.166 123.578 115.502C123.31 114.868 122.696 114.382 122.161 113.986C119.714 112.183 119.04 113.986 117.039 113.986C115.81 113.986 114.641 112.946 113.383 113.53C112.135 114.115 111.62 115.65 110.361 116.245C109.391 116.701 107.34 116.453 107.161 117.899C107.151 117.949 107.151 117.998 107.142 118.048C107.052 119.058 107.369 119.762 106.339 120.515C104.784 121.644 104.338 122.992 104.556 125.241C104.774 127.49 107.003 127.262 107.677 127.49C108.34 127.717 108.122 129.966 109.014 130.64C110.173 131.512 111.055 132.691 111.947 133.82C111.679 133.008 112.056 132.106 111.996 131.274C111.937 130.571 111.54 129.54 112.065 128.936C112.432 128.51 113.126 128.252 113.571 127.916C114.394 127.311 115.107 126.766 115.701 125.914C117.267 123.665 118.594 122.764 119.04 123.665C119.486 124.567 120.606 126.37 121.715 126.37C122.825 126.37 124.955 127.935 124.113 130.64C123.271 133.345 122.884 134.236 122.884 134.236C122.884 134.236 125.946 132.899 126.173 129.521C126.391 126.142 125.728 125.696 126.847 124.349C127.957 123.002 127.511 120.971 126.847 119.623C126.173 118.266 124.618 118.722 123.944 117.592Z" fill="#14124F"/>
<path d="M126.806 152.128C122.873 159.618 123.457 172.844 123.457 176.371C123.457 179.898 97.9858 183.108 97.9858 183.108C96.0836 185.229 98.4217 186.655 98.4217 186.655C98.4217 186.655 131.314 189.736 134.663 187.24C138.011 184.743 149.949 151.831 143.104 145.639C136.267 139.467 130.739 144.638 126.806 152.128Z" fill="#E487B7"/>
<path d="M114.66 189.57C114.66 189.57 70.424 183.754 62.5378 189.57C54.6616 195.385 38.4433 227.277 12.0801 260.615C12.0801 260.615 14.7451 261.199 15.9637 263.547C15.9637 263.547 53.1457 243.099 59.6053 226.791C66.0648 210.474 79.4 214.754 88.9011 217.617C98.4022 220.48 124.359 227.505 134.455 213.644C144.56 199.774 139.755 191.373 139.755 191.373C139.755 191.373 128.907 195.791 114.66 189.57Z" fill="#82E7FD"/>
<path d="M47.0126 149.903C46.4875 148.249 45.9525 146.594 45.4274 144.94C44.8924 143.275 42.267 143.989 42.802 145.663C46.5667 157.463 50.3315 169.272 54.0963 181.072C54.6214 182.726 55.1563 184.381 55.6814 186.035C56.2164 187.7 58.8419 186.986 58.3069 185.312C54.5421 173.512 50.7773 161.703 47.0126 149.903Z" fill="#0F1B58"/>
<path d="M100.552 185.557C88.2963 185.606 76.0509 185.646 63.7956 185.695C62.042 185.705 60.2884 185.705 58.5448 185.715C57.3757 185.715 57.3757 187.538 58.5448 187.538C70.8001 187.489 83.0455 187.449 95.3008 187.399C97.0544 187.389 98.8079 187.389 100.552 187.38C101.731 187.38 101.731 185.557 100.552 185.557Z" fill="#0F1B58"/>
<path d="M12.0897 260.616C12.0897 260.616 6.93788 263.905 3.38117 265.738C-0.175543 267.571 -0.631278 268.036 0.656668 269.027C1.94461 270.018 9.36517 269.869 10.5838 269.027C11.7924 268.185 12.4761 269.413 12.4761 269.413C12.4761 269.413 15.3591 269.948 15.9634 269.186C16.5678 268.423 15.9337 263.172 15.9337 263.172C15.9337 263.172 14.8934 260.388 12.0897 260.616Z" fill="#0F1B58"/>
<path d="M246.308 184.965C245.04 181.498 233.24 181.617 231.705 181.656C226.543 181.765 221.381 181.934 216.22 181.795C211.058 181.646 205.946 181.091 200.784 181.537C197.911 181.785 194.869 181.894 194.741 184.965C194.741 184.965 194.552 189.493 194.384 195.219C194.107 204.73 193.899 217.55 194.741 218.402C196.098 219.76 199.902 221.929 204.509 220.304C209.126 218.68 220.519 217.59 220.519 217.59C220.519 217.59 231.923 218.68 236.53 220.304C241.146 221.929 244.941 219.76 246.298 218.402C247.14 217.56 246.932 204.73 246.655 195.219C246.506 189.493 246.308 184.965 246.308 184.965Z" fill="#DC3B87"/>
<path d="M216.923 175.334C214.149 176.444 211.672 178.445 209.849 180.803C208.78 182.19 211.147 183.557 212.207 182.18C211.781 182.735 212.306 182.081 212.435 181.923C212.762 181.556 213.099 181.2 213.446 180.863C214.546 179.793 215.784 178.871 217.161 178.188C221.778 175.899 225.959 178.396 228.842 182.18C229.892 183.557 232.26 182.2 231.2 180.803C227.732 176.266 222.679 173.026 216.923 175.334Z" fill="#E487B6"/>
<path d="M231.705 181.656C226.544 181.765 221.382 181.934 216.22 181.795C211.059 181.646 205.947 181.091 200.785 181.537C197.912 181.785 194.87 181.894 194.741 184.965C194.741 184.965 194.553 189.493 194.385 195.219C200.012 201.887 209.622 206.276 220.53 206.276C231.438 206.276 241.048 201.887 246.675 195.219C246.507 189.493 246.319 184.965 246.319 184.965C245.269 181.369 233.241 181.626 231.705 181.656Z" fill="#E487B6"/>
<path d="M238.254 196.715C227.494 202.422 214.13 201.49 203.212 196.715C202.152 196.249 201.22 197.815 202.29 198.28C213.832 203.323 227.792 204.314 239.165 198.28C240.206 197.735 239.284 196.17 238.254 196.715Z" fill="#DC3B87"/>
<path d="M308.098 155.183H306.711L306.721 153.36H308.098C310.06 153.36 311.853 153.33 313.587 153.271L313.656 155.094C311.903 155.153 310.09 155.183 308.098 155.183ZM299.796 155.074C297.488 155.024 295.179 154.955 292.871 154.876L292.95 153.053C295.249 153.132 297.547 153.201 299.836 153.251L299.796 155.074ZM320.621 154.658L320.413 152.845C322.791 152.617 325.06 152.3 327.15 151.903L327.546 153.687C325.396 154.093 323.058 154.42 320.621 154.658ZM285.955 154.569C283.647 154.45 281.349 154.321 279.04 154.172L279.179 152.349C281.477 152.498 283.766 152.627 286.064 152.746L285.955 154.569ZM272.145 153.677C269.846 153.499 267.548 153.3 265.249 153.082L265.447 151.269C267.736 151.487 270.025 151.686 272.303 151.864L272.145 153.677ZM258.374 152.379C256.085 152.131 253.796 151.864 251.508 151.577L251.775 149.773C254.054 150.061 256.333 150.328 258.611 150.576L258.374 152.379ZM334.323 151.973L333.669 150.249C335.868 149.536 337.939 148.684 339.792 147.703L340.763 149.288C338.811 150.328 336.641 151.23 334.323 151.973ZM244.652 150.665C242.373 150.348 240.095 150.011 237.816 149.655L238.143 147.861C240.412 148.218 242.671 148.555 244.939 148.872L244.652 150.665ZM231.01 148.525C228.741 148.129 226.482 147.723 224.223 147.297L224.619 145.513C226.868 145.939 229.117 146.345 231.376 146.742L231.01 148.525ZM217.447 145.949C215.198 145.484 212.949 144.998 210.71 144.493L211.175 142.719C213.404 143.225 215.634 143.7 217.873 144.166L217.447 145.949ZM346.548 145.484L345.231 144.126C345.835 143.621 346.42 143.086 346.974 142.541C347.935 141.6 348.817 140.57 349.6 139.5L351.235 140.52C350.392 141.669 349.441 142.769 348.411 143.779C347.817 144.374 347.192 144.939 346.548 145.484ZM204.002 142.918C201.773 142.373 199.524 141.808 197.335 141.223L197.87 139.47C200.049 140.044 202.288 140.609 204.508 141.154L204.002 142.918ZM190.697 139.42C188.517 138.806 186.298 138.162 184.099 137.498L184.713 135.764C186.893 136.428 189.102 137.072 191.272 137.677L190.697 139.42ZM177.55 135.447C175.38 134.744 173.191 134.021 171.041 133.278L171.734 131.574C173.874 132.307 176.044 133.04 178.204 133.734L177.55 135.447ZM354.514 134.695L352.671 134.041C353.444 132.168 354.028 130.157 354.395 128.067L356.347 128.354C355.95 130.573 355.336 132.703 354.514 134.695ZM164.581 130.979C162.441 130.197 160.292 129.384 158.181 128.552L158.944 126.878C161.044 127.7 163.184 128.502 165.305 129.285L164.581 130.979ZM151.831 126.006C149.73 125.134 147.62 124.232 145.549 123.321L146.392 121.676C148.452 122.578 150.553 123.479 152.633 124.341L151.831 126.006ZM354.871 121.874C354.841 119.834 354.623 117.743 354.236 115.673L356.178 115.365C356.584 117.535 356.802 119.715 356.842 121.855L354.871 121.874ZM139.328 120.507C137.277 119.556 135.206 118.565 133.175 117.565L134.107 115.96C136.118 116.951 138.169 117.931 140.209 118.882L139.328 120.507ZM127.102 114.484C125.121 113.453 123.1 112.373 121.108 111.274L122.119 109.708C124.1 110.798 126.101 111.868 128.073 112.898L127.102 114.484ZM352.602 109.609C351.898 107.628 351.036 105.686 350.046 103.833L351.809 103.021C352.849 104.953 353.741 106.974 354.474 109.045L352.602 109.609ZM115.203 107.925C113.272 106.796 111.31 105.627 109.388 104.448L110.478 102.932C112.39 104.111 114.332 105.27 116.254 106.389L115.203 107.925ZM103.661 100.831C101.769 99.6029 99.8769 98.3447 98.0341 97.0865L99.2032 95.6202C101.026 96.8685 102.909 98.1267 104.791 99.3453L103.661 100.831ZM346.618 98.4438C345.399 96.7595 344.022 95.0654 342.546 93.4208L344.062 92.2616C345.587 93.9657 347.004 95.6995 348.262 97.4332L346.618 98.4438ZM92.5158 93.2028C90.6928 91.8852 88.8699 90.5279 87.1064 89.1904L88.3646 87.7835C90.1182 89.121 91.9213 90.4585 93.7344 91.7663L92.5158 93.2028ZM337.959 88.7445C336.443 87.3179 334.779 85.8615 332.995 84.3952L334.303 83.0379C336.116 84.524 337.81 86.02 339.356 87.4665L337.959 88.7445ZM81.8159 85.0392C80.0821 83.6423 78.3385 82.2057 76.6443 80.7593L77.9818 79.4218C79.666 80.8484 81.3899 82.2751 83.1138 83.672L81.8159 85.0392ZM327.764 80.3134C326.11 79.0849 324.336 77.8069 322.345 76.41L323.534 74.9536C325.545 76.3604 327.338 77.6484 329.003 78.8868L327.764 80.3134ZM71.5916 76.3604C69.9371 74.8843 68.2826 73.3585 66.6677 71.8328L68.0745 70.5548C69.6795 72.0706 71.3241 73.5864 72.9588 75.0527L71.5916 76.3604ZM316.807 72.6254L314.488 71.07L315.648 69.5938L317.966 71.1492L316.807 72.6254ZM61.9122 67.1467C60.2478 65.4327 58.7716 63.8277 57.4044 62.2426L58.9499 61.1131C60.2874 62.6785 61.7339 64.2537 63.3785 65.9281L61.9122 67.1467ZM53.2929 57.0214C51.9554 55.149 50.7665 53.2666 49.756 51.4238L51.5194 50.6015C52.4904 52.3848 53.6396 54.2078 54.9375 56.0208L53.2929 57.0214ZM47.0314 45.4299C46.7045 44.5482 46.4172 43.6565 46.1695 42.7748C45.8129 41.5364 45.5255 40.2979 45.3076 39.1091L47.2494 38.8118C47.4575 39.9413 47.7349 41.1202 48.0717 42.3091C48.3095 43.1512 48.5869 44.0033 48.9039 44.8454L47.0314 45.4299ZM46.8036 32.6495L44.832 32.5703C44.941 30.3015 45.3571 28.1219 46.0605 26.0711L47.9429 26.6259C47.289 28.5182 46.9027 30.5492 46.8036 32.6495ZM50.8259 21.1472L49.1912 20.1366C50.4594 18.383 52.0247 16.7186 53.8477 15.1632L55.1851 16.5007C53.4811 17.9471 52.0148 19.5125 50.8259 21.1472ZM60.5351 12.7359L59.475 11.2003C61.3277 10.1006 63.3983 9.05038 65.6274 8.06956L66.4695 9.71417C64.3197 10.6653 62.3184 11.6857 60.5351 12.7359ZM72.7508 7.26707L72.0572 5.56302C72.9885 5.24598 73.9297 4.92895 74.8709 4.63173C76.1192 4.23544 77.3973 3.86887 78.6852 3.54193L79.2202 5.29552C77.9719 5.62246 76.7236 5.97912 75.505 6.3556C74.5836 6.64291 73.6622 6.95003 72.7508 7.26707ZM133.611 4.90913C131.144 4.56238 128.915 4.27507 126.795 4.01748L127.053 2.21435C129.193 2.47194 131.432 2.76916 133.908 3.11592L133.611 4.90913ZM85.8581 3.86887L85.4915 2.07565C87.7207 1.68927 90.039 1.38214 92.3969 1.14437L92.605 2.9574C90.3065 3.18527 88.0377 3.49239 85.8581 3.86887ZM119.969 3.27443C117.601 3.04657 115.303 2.86824 113.123 2.73944L113.252 0.916501C115.451 1.0453 117.779 1.23353 120.167 1.4614L119.969 3.27443ZM99.4311 2.51157L99.3518 0.688633C101.601 0.609375 103.959 0.58956 106.317 0.62919L106.277 2.45213C103.969 2.4125 101.64 2.43231 99.4311 2.51157Z" fill="#EAAB36"/>
<path d="M321.266 185.198C321.464 187.031 321.573 188.982 320.731 190.627C319.889 192.272 317.749 193.381 316.134 192.49C315.223 191.984 314.698 191.004 314.222 190.082C311.567 184.881 308.912 179.67 306.257 174.468C304.067 170.178 301.818 165.621 302.096 160.816C302.224 158.597 302.918 156.378 304.265 154.604C305.434 153.059 307.99 150.582 309.744 152.395C311.488 154.198 312.686 157.348 313.796 159.588C316.352 164.749 318.314 170.188 319.651 175.786C320.384 178.887 320.929 182.028 321.266 185.198Z" fill="#ECB48E"/>
<path fill-rule="evenodd" clip-rule="evenodd" d="M302.117 161.835C302.255 159.358 303.038 156.901 304.534 154.919C305.842 153.195 306.605 148.856 308.556 150.877C310.498 152.888 313.906 157.981 315.135 160.467C316.75 163.737 318.156 167.115 319.335 170.563L306.605 176.735C304.207 172.049 301.809 167.076 302.117 161.835Z" fill="#F2D047"/>
<path d="M320.87 184.839C319.582 183.264 317.353 182.719 315.332 182.937C313.311 183.164 311.428 184.046 309.586 184.918C306.217 186.523 302.849 188.128 299.48 189.733C296.003 191.397 292.525 193.052 289.048 194.716C288.503 194.974 287.909 195.291 287.73 195.866C287.542 196.48 287.948 197.154 288.513 197.471C289.068 197.788 289.741 197.847 290.375 197.877C295.597 198.144 300.847 197.649 305.93 196.43C308.496 195.816 311.022 195.023 313.469 194.043C315.58 193.21 318.562 192.279 320.266 190.734C321.89 189.267 322.307 186.582 320.87 184.839Z" fill="#ECB48E"/>
<path fill-rule="evenodd" clip-rule="evenodd" d="M299.024 196.553C295.15 195.988 276.752 195.988 272.879 196.553C268.054 197.256 268.787 203.26 269.391 206.847C270.055 210.76 270.867 214.971 273.74 217.705C276.554 220.38 295.348 220.38 298.162 217.705C301.045 214.971 301.847 210.76 302.511 206.847C303.125 203.26 303.849 197.266 299.024 196.553Z" fill="#222B54"/>
<path fill-rule="evenodd" clip-rule="evenodd" d="M231.525 213.009C229.504 215.238 228.176 218.904 229.939 221.222C231.426 223.184 272.957 219.32 279.099 219.32C283.468 213.752 283.29 205.311 272.105 199.614C269.707 198.396 267.082 199.674 264.486 200.219C256.957 201.804 236.548 207.461 231.525 213.009Z" fill="#222B54"/>
<path fill-rule="evenodd" clip-rule="evenodd" d="M321.334 173.359C324.336 173.102 327.645 174.261 329.111 176.896C330.31 179.046 330.052 181.771 329.042 184.02C328.031 186.268 326.367 188.141 324.722 189.974C300.974 216.506 300.588 217.704 296.615 218.774C289.849 220.587 281.675 218.745 287.679 203.21C288.64 200.713 313.874 174.013 321.334 173.359Z" fill="#222B54"/>
<path d="M300.202 227.624C301.787 226.703 304.918 222.631 308.584 217.261L301.678 214.824C299.419 222.839 298.538 228.595 300.202 227.624Z" fill="#ECB48E"/>
<path fill-rule="evenodd" clip-rule="evenodd" d="M327.347 173.807C323.137 171.776 318.976 172.301 315.617 177.76C311.08 185.111 304.997 203.053 301.678 214.823L309.604 218.409C314.617 206.966 324.514 192.115 328.338 185.368C330.488 181.594 330.666 175.412 327.347 173.807Z" fill="#223C5F"/>
<path d="M279.248 220.136L275.82 226.546C280.942 226.883 285.064 226.942 286.807 226.219C288.551 225.505 285.064 222.949 279.248 220.136Z" fill="#ECB48E"/>
<path fill-rule="evenodd" clip-rule="evenodd" d="M238.697 212.901C232.287 212.901 229.127 216.191 229.127 218.519C229.127 222.462 231.564 226.682 237.627 226.682C245.345 226.682 264.674 226.415 276.523 227.227L279.248 220.144C270.5 215.913 248.06 212.901 238.697 212.901Z" fill="#223C5F"/>
<path fill-rule="evenodd" clip-rule="evenodd" d="M289.334 225.323C289.097 225.174 287.333 222.578 286.184 222.113C285.52 221.845 284.618 221.419 283.895 221.776C283.083 222.172 283.043 223.302 282.568 223.985C282.201 224.5 281.706 224.917 281.151 225.194L280.031 223.688C276.068 225.521 279.219 230.128 275.236 232.03C274.275 232.486 273.225 232.813 272.403 233.486C271.58 234.16 271.055 235.389 271.61 236.3C271.818 236.647 272.145 236.885 272.522 237.023L285.342 230.801C285.342 230.801 285.421 228.206 285.054 227.918C285.49 228.097 286.511 228.572 286.976 228.572L289.334 225.323Z" fill="#223C5F"/>
<path fill-rule="evenodd" clip-rule="evenodd" d="M308.869 227.957C308.909 226.897 308.473 226.015 308.017 225.768C307.561 225.52 306.848 223.746 305.907 221.141C305.471 219.952 303.073 219.615 301.875 221.666C301.488 222.33 301.122 222.766 300.686 222.746C300.319 222.736 299.913 222.102 299.556 222.518C299.249 222.885 299.16 223.865 299.081 224.569C298.942 225.768 298.823 226.976 298.694 228.185C298.665 228.452 298.635 228.73 298.625 229.007H308.641C308.77 228.72 308.849 228.363 308.869 227.957Z" fill="#223C5F"/>
<path d="M250.636 185.198C250.438 187.031 250.329 188.982 251.171 190.627C252.013 192.272 254.153 193.381 255.768 192.49C256.68 191.984 257.205 191.004 257.67 190.082C260.325 184.881 262.981 179.67 265.636 174.468C267.825 170.178 270.074 165.621 269.797 160.816C269.668 158.597 268.975 156.378 267.627 154.604C266.458 153.059 263.902 150.582 262.148 152.395C260.405 154.198 259.206 157.348 258.096 159.588C255.54 164.749 253.579 170.188 252.241 175.786C251.518 178.887 250.973 182.028 250.636 185.198Z" fill="#ECB48E"/>
<path fill-rule="evenodd" clip-rule="evenodd" d="M269.807 161.835C269.668 159.358 268.885 156.901 267.389 154.919C266.082 153.195 265.319 148.856 263.367 150.877C261.425 152.888 258.017 157.981 256.789 160.467C255.174 163.737 253.767 167.115 252.588 170.563L265.319 176.735C267.716 172.049 270.114 167.076 269.807 161.835Z" fill="#F2D047"/>
<path d="M251.379 185.741C252.667 184.166 254.896 183.621 256.917 183.839C258.938 184.067 260.821 184.949 262.664 185.82C266.032 187.425 269.4 189.03 272.769 190.635C276.246 192.3 279.724 193.954 283.201 195.619C283.746 195.876 284.341 196.193 284.509 196.768C284.697 197.382 284.291 198.056 283.726 198.373C283.172 198.69 282.498 198.749 281.864 198.779C276.643 199.047 271.392 198.551 266.309 197.333C263.743 196.718 261.217 195.926 258.77 194.945C256.66 194.103 253.678 193.181 251.974 191.636C250.349 190.17 249.943 187.495 251.379 185.741Z" fill="#ECB48E"/>
<path fill-rule="evenodd" clip-rule="evenodd" d="M309.068 151.451C307.83 149.945 305.957 149.133 304.124 148.459C298.745 146.488 286.41 141.326 285.945 141.336C285.479 141.326 273.144 146.488 267.765 148.459C265.932 149.133 264.069 149.945 262.821 151.451C261.166 153.453 260.948 156.336 261.543 158.862C262.137 161.388 263.435 163.687 264.575 166.035C265.991 168.957 267.16 171.989 268.082 175.1C269.736 180.717 270.578 186.583 270.549 192.438C270.539 194.231 269.588 197.272 270.142 198.967C270.836 201.097 274.502 201.582 276.364 201.82C279.544 202.226 282.754 202.365 285.945 202.236C289.145 202.365 292.355 202.236 295.525 201.82C297.378 201.582 301.053 201.097 301.747 198.967C302.301 197.272 301.34 194.231 301.34 192.438C301.311 186.583 302.153 180.717 303.807 175.1C304.729 171.989 305.898 168.957 307.315 166.035C308.444 163.697 309.742 161.398 310.346 158.862C310.941 156.336 310.723 153.453 309.068 151.451Z" fill="#F2D047"/>
<path d="M290.009 140.701C289.504 139.086 289.236 136.075 288.245 134.995C287.651 134.351 284.52 134.351 283.926 134.995C282.925 136.065 282.658 139.086 282.162 140.701C281.597 142.504 281.112 144.674 281.697 146.467C282.103 147.716 282.975 148.469 283.856 148.726C284.589 148.934 287.591 148.934 288.325 148.726C289.206 148.469 290.078 147.726 290.484 146.467C291.059 144.684 290.573 142.514 290.009 140.701Z" fill="#E79E84"/>
<path d="M292.694 127.117C291.684 124.185 280.459 124.185 279.458 127.117C278.656 129.446 278.547 132.081 279.002 134.538C279.428 136.856 280.369 138.957 281.687 140.7C282.579 141.889 283.748 143.633 285.056 144.227H287.116C288.424 143.633 289.583 141.889 290.485 140.7C291.802 138.957 292.734 136.856 293.17 134.538C293.616 132.081 293.497 129.446 292.694 127.117Z" fill="#ECB48E"/>
<path fill-rule="evenodd" clip-rule="evenodd" d="M292.356 134.896C292.495 134.202 292.802 133.548 292.931 132.855C293.069 132.161 293.317 131.359 292.812 130.863C292.356 132.993 291.454 135.094 290.751 137.154C290.602 137.6 290.434 138.056 290.107 138.393C289.701 138.809 289.106 138.967 288.542 139.067C287.917 139.175 286.263 138.472 286.075 138.482C285.886 138.472 284.232 139.175 283.608 139.067C283.043 138.967 282.449 138.799 282.042 138.393C281.716 138.056 281.547 137.6 281.398 137.154C280.705 135.094 280.12 132.993 279.655 130.863C279.15 131.359 279.08 132.161 279.219 132.855C279.358 133.548 279.655 134.202 279.794 134.896C279.803 134.955 279.813 135.005 279.823 135.064C279.893 135.52 279.873 136.005 279.685 136.431C279.595 136.629 279.486 136.748 279.476 136.966C279.467 137.164 279.556 137.412 279.595 137.61C279.784 138.551 280.051 139.473 280.408 140.364C280.764 141.256 281.19 142.118 281.696 142.93C281.943 143.337 282.221 143.733 282.508 144.119C282.627 144.278 283.192 145.199 283.38 145.199L285.569 145.823H286.59L288.779 145.199C288.968 145.199 289.532 144.288 289.651 144.119C289.939 143.733 290.206 143.337 290.464 142.93C290.969 142.118 291.395 141.256 291.752 140.364C292.108 139.473 292.376 138.551 292.564 137.61C292.604 137.412 292.693 137.164 292.683 136.966C292.673 136.748 292.564 136.629 292.475 136.431C292.287 136.005 292.267 135.52 292.336 135.064C292.336 135.005 292.346 134.945 292.356 134.896Z" fill="#223C5F"/>
<path fill-rule="evenodd" clip-rule="evenodd" d="M297.072 121.045C295.704 119.232 293.188 118.518 291.167 119.4C290.315 119.767 289.552 120.381 288.65 120.569C287.6 120.787 286.53 120.391 285.53 119.995C284.529 119.588 283.479 119.162 282.419 119.331C281.359 119.489 280.328 120.48 280.467 121.61C279.04 121.045 277.307 121.52 276.306 122.739C275.305 123.967 275.097 125.86 275.811 127.296C276.247 128.168 276.97 128.862 277.277 129.783C277.634 130.843 277.217 133.369 278.476 133.855C279.447 134.231 279.992 126.504 282.716 126.315C284.162 127.861 286.57 128.257 288.383 127.247C289.067 126.87 289.78 126.296 290.513 126.543C290.999 126.712 291.603 126.94 291.92 127.376C292.683 128.426 292.455 133.201 293.505 133.994C294.07 132.309 294.288 130.486 294.159 128.703C294.635 128.713 295.11 128.644 295.556 128.455C296.844 127.93 297.805 128.515 298.072 127.068C298.34 125.622 297.934 122.194 297.072 121.045Z" fill="#223C5F"/>
<path d="M277.733 134.35C277.465 133.845 277.237 133.28 277.317 132.706C277.396 132.131 277.872 131.586 278.407 131.655C278.743 131.695 279.021 131.953 279.189 132.26C279.358 132.567 279.437 132.924 279.516 133.27C279.645 133.875 279.784 134.479 279.912 135.093C280.021 135.598 280.091 136.252 279.685 136.55C278.942 137.075 278.03 134.895 277.733 134.35Z" fill="#ECB48E"/>
<path d="M294.338 134.35C294.605 133.845 294.833 133.28 294.754 132.706C294.675 132.131 294.199 131.586 293.664 131.655C293.327 131.695 293.05 131.953 292.882 132.26C292.713 132.567 292.634 132.924 292.555 133.27C292.426 133.875 292.287 134.479 292.158 135.093C292.049 135.598 291.98 136.252 292.386 136.55C293.119 137.075 294.041 134.895 294.338 134.35Z" fill="#ECB48E"/>
<path d="M302.65 199.63H268.599C267.004 199.63 265.677 198.412 265.548 196.826L263.784 175.783C263.636 174 265.042 172.464 266.836 172.464H304.414C306.207 172.464 307.614 174 307.465 175.783L305.702 196.826C305.573 198.412 304.246 199.63 302.65 199.63Z" fill="#A0CFE9"/>
<path d="M263.863 176.685C264.19 175.357 265.389 174.347 266.836 174.347H304.414C305.87 174.347 307.069 175.357 307.386 176.685L307.465 175.783C307.614 174 306.207 172.464 304.414 172.464H266.836C265.042 172.464 263.636 174 263.784 175.783L263.863 176.685Z" fill="#4479A4"/>
<path fill-rule="evenodd" clip-rule="evenodd" d="M169.922 169.618C169.159 165.278 168.397 160.939 167.634 156.599C166.811 151.943 165.989 147.197 166.405 142.363C166.821 137.518 167.366 131.197 170.883 128.165C175.381 124.292 182.514 122.855 183.951 129.374C189.004 152.319 176.778 189.095 174.291 197.388C173.608 199.686 172.875 201.965 172.122 204.243H165.791C166.772 191.384 166.702 176.543 169.922 169.618Z" fill="#6A60CF"/>
<path d="M165.791 204.254H172.122C171.24 206.919 170.309 209.575 169.328 212.22C168.981 213.141 168.496 214.201 167.555 214.479C166.346 214.835 164.731 213.765 164.919 212.537C165.296 209.951 165.563 207.147 165.791 204.254Z" fill="#E79E84"/>
<path fill-rule="evenodd" clip-rule="evenodd" d="M165.515 175.138C164.742 177.238 163.494 179.596 161.503 179.665C160.294 179.705 159.184 178.813 158.491 177.684C157.797 176.544 157.46 175.187 157.133 173.86C155.707 168.103 154.28 162.357 152.853 156.601C151.694 151.945 150.535 147.199 150.605 142.364C150.674 137.52 152.15 132.477 155.449 129.445C159.66 125.572 167.328 126.037 168.834 132.645C170.825 141.393 170.726 151.122 169.399 159.97C168.606 165.171 167.308 170.273 165.515 175.138Z" fill="#7368E1"/>
<path fill-rule="evenodd" clip-rule="evenodd" d="M156.191 168.005C160.134 162.358 167.565 165.914 165.92 172.77C163.929 181.053 160.729 189.246 157.509 197.112C156.657 199.193 155.775 201.254 154.864 203.314L148.691 201.323C150.802 188.454 152.169 173.771 156.191 168.005Z" fill="#7368E1"/>
<path d="M148.691 201.321L154.863 203.313C153.704 205.928 152.496 208.534 151.247 211.1C150.821 211.972 150.247 212.943 149.286 213.061C148.057 213.22 146.571 211.892 146.858 210.694C147.562 207.811 148.146 204.63 148.691 201.321Z" fill="#ECB48E"/>
<path fill-rule="evenodd" clip-rule="evenodd" d="M145.006 214.487C145.115 213.368 145.224 212.228 145.67 211.198C146.106 210.187 146.403 209.137 147.344 208.562C147.473 209.127 148.157 209.979 148.721 210.098C149.167 210.187 151.575 209.365 151.971 209.593C152.258 209.751 152.02 214.428 153.209 215.567C154.398 216.706 155.894 217.479 157.261 218.41C157.737 218.737 158.212 219.094 158.52 219.579C158.827 220.065 158.936 220.719 158.668 221.224C158.639 221.274 158.609 221.303 158.579 221.343L148.791 219.718C148.612 219.342 148.484 218.955 148.345 218.559C147.869 217.162 147.404 215.765 146.928 214.378C146.274 215.914 145.848 217.548 145.67 219.203L144.58 219.025C144.719 217.509 144.867 215.993 145.006 214.487Z" fill="#7368E1"/>
<path fill-rule="evenodd" clip-rule="evenodd" d="M170.239 143.026C166.999 142.937 143.083 145.017 156.319 124.014C158.162 121.091 162.838 120.764 166.276 120.338C170.923 119.754 179.978 119.793 182.217 124.014C189.192 137.181 173.826 143.125 170.239 143.026Z" fill="#7368E1"/>
<path d="M174.024 96.5415C173.043 93.1136 172.291 89.2102 173.43 85.7327C173.787 84.6429 173.856 84.4745 174.827 85.0095C175.59 85.4355 176.293 86.2182 176.897 86.8423C178.136 88.1204 179.176 89.5767 180.078 91.1024C181.019 92.7074 181.802 94.3917 182.515 96.0957L175.104 99.91C174.708 98.8103 174.341 97.6809 174.024 96.5415Z" fill="#959BFB"/>
<path d="M182.504 96.1069C182.98 97.2463 183.426 98.3856 183.872 99.5349C186.329 105.836 188.776 112.127 191.233 118.428C191.461 119.022 191.698 119.676 191.52 120.281C191.233 121.252 189.984 121.658 189.013 121.37C188.043 121.083 187.3 120.31 186.626 119.548C181.563 113.821 177.63 107.114 175.094 99.9113L182.504 96.1069Z" fill="#E79E84"/>
<path d="M195.274 98.2955C195.136 97.6218 194.829 96.8193 194.145 96.74C193.501 96.6707 193.025 97.3146 192.708 97.8893C190.073 102.724 186.685 118.407 188.111 120.438C189.439 122.331 191.054 122.42 192.292 120.498C194.819 116.564 195.839 100.99 195.274 98.2955Z" fill="#ECB48E"/>
<path d="M185.716 98.5625H191.145C191.462 98.5625 191.799 98.3049 191.888 97.9779L195.207 86.4459C195.296 86.1288 195.108 85.8613 194.791 85.8613H189.361C189.044 85.8613 188.708 86.1189 188.618 86.4459L185.299 97.9779C185.21 98.3049 185.399 98.5625 185.716 98.5625Z" fill="#A0CFE9"/>
<path d="M185.299 97.9779L188.618 86.4459C188.708 86.1288 189.044 85.8613 189.361 85.8613H189.936C189.619 85.8613 189.282 86.1189 189.193 86.4459L185.874 97.9779C185.785 98.295 185.973 98.5625 186.29 98.5625H185.716C185.399 98.5625 185.21 98.3049 185.299 97.9779Z" fill="#4479A4"/>
<path d="M195.682 96.6715C195.83 95.2151 195.493 93.63 194.453 92.5996C193.621 91.7674 192.432 91.381 191.253 91.272C190.748 91.2324 190.094 91.3216 189.945 91.807C189.807 92.2429 190.163 92.659 190.342 93.0751C190.758 94.0262 190.272 95.1061 190.153 96.1365C190.025 97.2758 190.381 98.4647 191.124 99.3464C191.709 100.05 193.363 101.288 194.324 100.674C195.216 100.08 195.583 97.6424 195.682 96.6715Z" fill="#ECB48E"/>
<path d="M161.314 113.852C162.166 105.747 153.457 98.9412 154.279 90.8271C154.834 85.289 160.313 80.9199 165.871 80.9991C171.429 81.0685 176.541 85.1106 178.532 90.312C179.474 92.7789 179.791 95.4736 179.454 98.0892C179.216 99.9121 178.671 101.686 178.364 103.508C177.73 107.224 178.106 111.018 178.988 114.674C179.751 117.854 181.406 120.886 182.228 124.026H156.33C157.073 122.709 161.066 116.19 161.314 113.852Z" fill="#959BFB"/>
<path fill-rule="evenodd" clip-rule="evenodd" d="M163.602 216.569C163.523 215.449 163.444 214.31 163.721 213.21C163.988 212.14 164.375 211.06 165.207 210.337C165.425 210.872 165.98 211.605 166.554 211.625C167.01 211.645 169.279 210.684 169.705 210.842C170.012 210.951 170.517 215.35 171.875 216.281C173.242 217.213 174.837 217.728 176.333 218.421C176.858 218.659 177.383 218.936 177.76 219.372C178.146 219.798 178.364 220.423 178.176 220.967C178.156 221.017 178.126 221.057 178.106 221.106H168.179C167.941 220.769 167.743 220.403 167.555 220.036C166.862 218.738 166.168 217.44 165.475 216.143C165.078 217.767 164.93 219.442 165.019 221.106H163.909C163.81 219.6 163.711 218.084 163.602 216.569Z" fill="#6A60CF"/>
<path d="M149.89 93.8963C150.712 91.2213 152.188 88.6652 154.467 87.0503C155.032 86.654 155.745 86.3073 156.379 86.5748C156.974 86.8324 157.231 87.516 157.39 88.15C158.42 92.2616 157.836 96.5712 157.112 100.762L148.85 99.4741C149.048 97.5818 149.335 95.7093 149.89 93.8963Z" fill="#B1B6FC"/>
<path d="M148.612 102.169C148.682 101.268 148.761 100.376 148.86 99.4746L157.123 100.763C157.053 101.169 156.984 101.565 156.915 101.961C156.172 106.162 155.419 110.353 154.676 114.553C154.398 116.129 154.438 118.021 153.021 119.041C152.001 119.775 150.515 119.953 149.435 119.24C148.503 118.625 147.958 117.545 147.75 116.446C147.542 115.346 147.632 114.217 147.721 113.107C148.008 109.471 148.305 105.825 148.612 102.169Z" fill="#ECB48E"/>
<path d="M153.04 139.777C153.07 140.748 153.09 143.057 152.119 143.136C151.366 143.195 150.573 141.313 150.405 140.58C149.236 135.468 147.502 118.318 147.789 117.129C148.255 115.168 153.03 113.642 154.229 116.228C155.458 118.843 152.763 130.91 153.04 139.777Z" fill="#ECB48E"/>
<path d="M154.36 142.412C154.687 143.908 155.024 145.404 155.351 146.91C155.232 147.217 154.727 147.148 154.528 146.881C154.33 146.613 154.31 146.256 154.172 145.949C154.043 145.642 153.686 145.365 153.399 145.513C153.102 145.672 153.132 146.098 153.201 146.425C153.528 147.941 153.855 149.447 154.182 150.962C153.181 151.656 151.725 151.349 150.823 150.526C149.922 149.704 149.476 148.505 149.208 147.317C148.842 145.662 148.772 143.938 149 142.264C149.129 141.293 149.406 140.263 150.159 139.638C152.071 138.024 154.013 140.817 154.36 142.412Z" fill="#ECB48E"/>
<path fill-rule="evenodd" clip-rule="evenodd" d="M173.082 58.3494C172.399 56.6454 170.734 55.3673 168.911 55.1395C167.088 54.9116 165.166 55.7537 164.087 57.2398C163.542 58.0027 163.175 58.924 162.422 59.4888C161.431 60.2219 160.074 60.1129 158.885 60.42C157.072 60.8758 155.576 62.4213 155.18 64.2443C154.377 67.9496 157.776 71.5756 157.062 75.2909C156.745 76.985 155.606 78.4018 154.427 79.66C153.248 80.9182 151.97 82.1368 151.227 83.6922C150.484 85.2477 150.405 87.2688 151.554 88.5666C152.376 89.488 153.634 89.8645 154.833 90.1221C156.171 90.4193 157.548 90.4589 158.915 90.4589C162.095 90.4589 162.095 83.9102 162.254 78.8575C162.343 75.9249 169.129 75.6079 169.952 72.8041C170.407 71.2586 169.892 69.6041 170.041 68.009C170.189 66.4536 170.992 65.344 171.983 64.2046C172.726 63.3526 173.221 62.0448 173.37 60.9451C173.518 60.0832 173.419 59.1717 173.082 58.3494Z" fill="#222B56"/>
<path d="M168.831 74.6446C168.494 76.6954 168.623 78.8254 169.207 80.8168C169.386 81.4311 169.594 82.1543 169.227 82.6794C168.87 83.1846 168.167 83.2441 167.553 83.2639C166.522 83.2936 165.472 83.3234 164.481 83.036C163.491 82.7388 162.559 82.0651 162.242 81.0843C161.975 80.2818 162.153 79.4001 162.322 78.5679C162.658 76.9728 162.995 75.3777 163.342 73.7826C163.441 73.317 163.55 72.8216 163.877 72.465C164.412 71.8705 165.393 71.8606 166.096 72.2371C166.81 72.6037 167.315 73.2675 167.8 73.9015L168.831 74.6446Z" fill="#E79E84"/>
<path d="M171.864 73.9533C172.379 72.923 172.508 71.7539 172.627 70.6047C172.785 69.0294 172.934 67.4244 172.666 65.869C172.399 64.3036 171.646 62.768 170.338 61.8664C168.763 60.7865 166.633 60.8262 164.82 61.4404C163.244 61.9754 161.729 62.9959 161.114 64.5315C160.778 65.3736 160.728 66.295 160.688 67.1866C160.629 68.3557 160.579 69.5545 160.936 70.674C161.332 71.9124 162.214 72.9527 163.244 73.7354C164.285 74.518 165.474 75.0629 166.672 75.5583C167.366 75.8456 168.079 76.123 168.822 76.1626C170.318 76.2716 171.24 75.2016 171.864 73.9533Z" fill="#ECB48E"/>
<path fill-rule="evenodd" clip-rule="evenodd" d="M165.435 64.2444C164.772 65.7503 165.029 67.6426 163.979 68.9107C163.127 69.9411 161.482 70.1987 160.353 69.4853C159.491 68.9404 158.986 67.9299 158.926 66.9095C158.867 65.889 159.224 64.8785 159.788 64.0363C160.353 63.1843 161.116 62.4908 161.938 61.8766C163.196 60.9354 164.603 60.1626 166.139 59.8456C167.11 59.6375 168.13 59.6177 169.101 59.8357C169.834 59.9942 171.261 60.4004 171.449 61.2623C171.647 62.1242 170.884 62.2828 170.28 62.1044C169.349 61.8468 168.517 61.7775 167.595 62.1441C166.644 62.5403 165.852 63.3032 165.435 64.2444Z" fill="#222B56"/>
<path d="M161.779 68.5737C161.492 68.4647 161.184 68.3855 160.877 68.3954C160.57 68.4053 160.253 68.5242 160.055 68.7619C159.788 69.079 159.788 69.5446 159.896 69.9508C160.164 70.9614 161.056 71.6945 162.126 71.4864C162.938 71.3279 163.255 70.5948 163.106 69.8121C162.968 69.1483 162.373 68.7917 161.779 68.5737Z" fill="#ECB48E"/>
<path d="M201.09 199.478C198.692 193.028 196.741 192.434 196.741 192.434H188.29H184.902H176.451C176.451 192.434 174.499 193.028 172.101 199.478C169.704 205.927 168.505 204.56 165.206 208.394C161.907 212.218 161.461 220.877 161.461 220.877H184.149H189.033H211.721C211.721 220.877 211.275 212.218 207.976 208.394C204.686 204.57 203.488 205.927 201.09 199.478Z" fill="#F1CB30"/>
<path d="M195.9 192.444C195.286 191.591 193.849 192.414 194.473 193.276C195.355 194.504 196.118 195.911 196.593 197.348C196.901 198.279 197.178 199.379 196.851 200.34C196.425 201.578 195.078 201.915 193.918 202.103C188.39 203.005 183.456 199.24 180.048 195.297C179.167 194.266 178.314 193.187 177.611 192.027C177.056 191.116 175.63 191.948 176.184 192.86C178.324 196.387 181.475 199.646 185.012 201.746C187.766 203.371 190.936 204.213 194.127 203.728C195.583 203.51 197.109 203.044 197.971 201.756C198.674 200.706 198.724 199.408 198.515 198.19C198.159 196.159 197.109 194.118 195.9 192.444Z" fill="#EAAB36"/>
<path d="M176.004 208.117C176.004 208.127 176.004 208.137 176.004 208.147C176.004 214.062 181.086 218.847 187.358 218.847C193.629 218.847 198.711 214.052 198.711 208.147C198.711 208.137 198.711 208.127 198.711 208.117H176.004Z" fill="#EAAB36"/>
</svg>
