<svg width="176" height="52" viewBox="0 0 176 52" fill="none" xmlns="http://www.w3.org/2000/svg">
<path d="M169.368 51.2698H6.63227C3.31609 51.2698 0.646973 48.5928 0.646973 45.2667V6.65205C0.646973 3.32599 3.31609 0.648926 6.63227 0.648926H169.368C172.684 0.648926 175.353 3.32599 175.353 6.65205V45.3478C175.353 48.5928 172.684 51.2698 169.368 51.2698Z" fill="black"/>
<path d="M169.368 52H6.63235C2.99265 52 0 48.9984 0 45.3479V6.65211C0 3.00156 2.99265 0 6.63235 0H169.368C173.007 0 176 3.00156 176 6.65211V45.3479C176 48.9984 173.007 52 169.368 52ZM6.63235 1.29797C3.72059 1.29797 1.29412 3.65055 1.29412 6.65211V45.3479C1.29412 48.2683 3.63971 50.702 6.63235 50.702H169.368C172.279 50.702 174.706 48.3495 174.706 45.3479V6.65211C174.706 3.73167 172.36 1.29797 169.368 1.29797H6.63235Z" fill="#A7A9AC"/>
<path d="M88.8088 28.393C85.7353 28.393 83.2279 30.7456 83.2279 33.9094C83.2279 37.0732 85.7353 39.4258 88.8088 39.4258C91.8823 39.4258 94.3897 37.0732 94.3897 33.9094C94.3088 30.7456 91.8823 28.393 88.8088 28.393ZM88.8088 37.3166C87.1103 37.3166 85.6544 35.9375 85.6544 33.9905C85.6544 31.9624 87.1103 30.6645 88.8088 30.6645C90.5073 30.6645 91.9632 32.0436 91.9632 33.9905C91.8823 35.9375 90.4264 37.3166 88.8088 37.3166ZM76.6764 28.393C73.6029 28.393 71.0956 30.7456 71.0956 33.9094C71.0956 37.0732 73.6029 39.4258 76.6764 39.4258C79.75 39.4258 82.2573 37.0732 82.2573 33.9094C82.2573 30.7456 79.75 28.393 76.6764 28.393ZM76.6764 37.3166C74.9779 37.3166 73.522 35.9375 73.522 33.9905C73.522 31.9624 74.9779 30.6645 76.6764 30.6645C78.375 30.6645 79.8308 32.0436 79.8308 33.9905C79.8308 35.9375 78.375 37.3166 76.6764 37.3166ZM62.2794 30.0966V32.4492H67.8603C67.6985 33.7471 67.2132 34.7206 66.5661 35.4507C65.7573 36.262 64.4632 37.1543 62.1985 37.1543C58.7206 37.1543 56.0514 34.3961 56.0514 30.9078C56.0514 27.4195 58.7206 24.6613 62.1985 24.6613C64.0588 24.6613 65.4338 25.3915 66.4044 26.3649L68.022 24.7425C66.647 23.3634 64.7867 22.3899 62.1176 22.3899C57.3456 22.3899 53.3823 26.2838 53.3823 30.989C53.3823 35.7752 57.3456 39.588 62.1176 39.588C64.7059 39.588 66.5661 38.7768 68.1029 37.1543C69.6397 35.613 70.125 33.4227 70.125 31.6379C70.125 31.0701 70.0441 30.5833 69.9632 30.1777H62.2794V30.0966ZM121.243 31.9624C120.757 30.7456 119.382 28.393 116.471 28.393C113.64 28.393 111.213 30.6645 111.213 33.9094C111.213 36.9921 113.559 39.4258 116.713 39.4258C119.221 39.4258 120.676 37.8844 121.323 36.9921L119.463 35.6941C118.816 36.5865 118.007 37.2354 116.713 37.2354C115.5 37.2354 114.61 36.6676 114.044 35.5319L121.404 32.4492L121.243 31.9624ZM113.64 33.8283C113.559 31.7191 115.257 30.5833 116.551 30.5833C117.522 30.5833 118.331 31.0701 118.574 31.8002L113.64 33.8283ZM107.654 39.1824H110.081V22.8766H107.654V39.1824ZM103.691 29.691H103.61C103.044 29.042 101.993 28.4741 100.698 28.4741C97.9485 28.4741 95.3603 30.9078 95.3603 34.0716C95.3603 37.1543 97.8676 39.588 100.698 39.588C101.993 39.588 103.044 39.0202 103.61 38.2901H103.691V39.1013C103.691 41.2105 102.559 42.3462 100.698 42.3462C99.2426 42.3462 98.272 41.2916 97.9485 40.3993L95.8456 41.2916C96.4926 42.7518 98.0294 44.5365 100.779 44.5365C103.61 44.5365 106.037 42.833 106.037 38.7768V28.7175H103.691V29.691ZM100.86 37.3166C99.1617 37.3166 97.7867 35.9375 97.7867 33.9905C97.7867 32.0436 99.1617 30.5833 100.86 30.5833C102.478 30.5833 103.853 32.0436 103.853 33.9905C103.853 35.9375 102.559 37.3166 100.86 37.3166ZM132.566 22.8766H126.743V39.1824H129.169V33.017H132.566C135.235 33.017 137.904 31.0701 137.904 27.9874C137.904 24.9047 135.316 22.8766 132.566 22.8766ZM132.647 30.7456H129.169V25.1481H132.647C134.426 25.1481 135.478 26.6894 135.478 27.9063C135.478 29.2042 134.507 30.7456 132.647 30.7456ZM147.691 28.393C145.912 28.393 144.132 29.2042 143.323 30.9078L145.507 31.8002C145.993 30.9078 146.801 30.5833 147.691 30.5833C148.985 30.5833 150.198 31.3134 150.279 32.6925V32.8548C149.875 32.6114 148.904 32.2058 147.772 32.2058C145.426 32.2058 143.081 33.5038 143.081 35.8564C143.081 38.0467 145.022 39.4258 147.125 39.4258C148.743 39.4258 149.632 38.6957 150.198 37.8033H150.279V39.1013H152.625V32.8548C152.625 30.0155 150.441 28.393 147.691 28.393ZM147.368 37.3166C146.559 37.3166 145.426 36.911 145.426 35.9375C145.426 34.6395 146.801 34.2339 148.015 34.2339C149.066 34.2339 149.551 34.4773 150.198 34.8018C150.037 36.262 148.743 37.3166 147.368 37.3166ZM161.118 28.7175L158.368 35.7752H158.287L155.375 28.7175H152.787L157.154 38.6145L154.647 44.1309H157.154L163.868 28.7175H161.118ZM139.279 39.1824H141.706V22.8766H139.279V39.1824Z" fill="white"/>
<path d="M13.75 9.8968C13.3456 10.3024 13.1838 10.9514 13.1838 11.7626V40.5614C13.1838 41.3726 13.4265 42.0216 13.75 42.4272L13.8309 42.5083L29.9265 26.2837V26.1214V25.9592L13.8309 9.81567L13.75 9.8968Z" fill="#5BC9F4"/>
<path d="M35.2647 31.7189L29.9265 26.2836V26.1214V25.9591L35.2647 20.605L35.3456 20.6861L41.7353 24.3367C43.5147 25.3913 43.5147 27.0948 41.7353 28.0683L35.4265 31.6377L35.2647 31.7189Z" fill="url(#paint0_linear)"/>
<path d="M35.4265 31.6377L29.9265 26.1213L13.75 42.346C14.3162 42.995 15.3676 43.0761 16.4191 42.4271L35.4265 31.6377Z" fill="url(#paint1_linear)"/>
<path d="M35.4265 20.6051L16.4191 9.81575C15.2868 9.16676 14.3162 9.24789 13.75 9.89687L29.9265 26.1215L35.4265 20.6051Z" fill="url(#paint2_linear)"/>
<path d="M54.8199 17.5459H58.2399C60.9279 17.5459 62.7399 15.8179 62.7399 13.3459C62.7399 10.8739 60.9279 9.1459 58.2399 9.1459H54.8199V17.5459ZM55.7079 16.7779V9.9139H58.1919C60.4239 9.9139 61.8639 11.3299 61.8639 13.3459C61.8639 15.3619 60.4239 16.7779 58.1919 16.7779H55.7079ZM64.986 9.8539C65.346 9.8539 65.61 9.5779 65.61 9.2299C65.61 8.9059 65.334 8.6419 64.986 8.6419C64.638 8.6419 64.362 8.9179 64.362 9.2419C64.362 9.5779 64.638 9.8539 64.986 9.8539ZM64.554 17.5459H65.406V11.2339H64.554V17.5459ZM69.4686 17.6059C71.1126 17.6059 72.0726 16.8979 72.0726 15.8059C72.0726 13.3819 67.9806 14.6659 67.9806 12.9619C67.9806 12.3619 68.4846 11.9179 69.6246 11.9179C70.2726 11.9179 70.9326 12.0739 71.4846 12.4579L71.8566 11.7739C71.3286 11.4139 70.4406 11.1859 69.6246 11.1859C68.0166 11.1859 67.1286 11.9539 67.1286 12.9859C67.1286 15.4819 71.2206 14.1859 71.2206 15.8299C71.2206 16.4539 70.7286 16.8619 69.5286 16.8619C68.6406 16.8619 67.7886 16.5499 67.2846 16.1539L66.9006 16.8259C67.4166 17.2699 68.4246 17.6059 69.4686 17.6059ZM76.8997 11.1859C75.8557 11.1859 74.9797 11.6419 74.4637 12.4819V11.2339H73.6477V19.8739H74.4997V16.3579C75.0277 17.1739 75.8917 17.6059 76.8997 17.6059C78.6997 17.6059 80.0437 16.3099 80.0437 14.3899C80.0437 12.4819 78.6997 11.1859 76.8997 11.1859ZM76.8397 16.8499C75.4957 16.8499 74.4877 15.8659 74.4877 14.3899C74.4877 12.9259 75.4957 11.9299 76.8397 11.9299C78.1717 11.9299 79.1917 12.9259 79.1917 14.3899C79.1917 15.8659 78.1717 16.8499 76.8397 16.8499ZM84.3605 17.6059C86.2085 17.6059 87.5645 16.2619 87.5645 14.3899C87.5645 12.5179 86.2085 11.1859 84.3605 11.1859C82.5125 11.1859 81.1445 12.5179 81.1445 14.3899C81.1445 16.2619 82.5125 17.6059 84.3605 17.6059ZM84.3605 16.8499C83.0165 16.8499 82.0085 15.8659 82.0085 14.3899C82.0085 12.9139 83.0165 11.9299 84.3605 11.9299C85.7045 11.9299 86.7005 12.9139 86.7005 14.3899C86.7005 15.8659 85.7045 16.8499 84.3605 16.8499ZM92.52 11.1859C91.428 11.1859 90.576 11.6299 90.12 12.3979V11.2339H89.304V17.5459H90.156V14.2339C90.156 12.7939 91.008 11.9539 92.364 11.9539C93.564 11.9539 94.26 12.6379 94.26 13.9699V17.5459H95.112V13.8859C95.112 12.0739 94.056 11.1859 92.52 11.1859ZM97.0771 10.2619H97.9171L99.8611 8.7739H98.7211L97.0771 10.2619ZM97.4251 17.5459H98.2771V11.2339H97.4251V17.5459ZM105.112 11.2339L102.724 16.6099L100.36 11.2339H99.4717L102.268 17.5459H103.144L105.952 11.2339H105.112ZM112.484 14.3899C112.484 12.4939 111.2 11.1859 109.424 11.1859C107.648 11.1859 106.34 12.5179 106.34 14.3899C106.34 16.2619 107.684 17.6059 109.652 17.6059C110.648 17.6059 111.524 17.2459 112.088 16.5739L111.608 16.0219C111.128 16.5739 110.444 16.8499 109.676 16.8499C108.296 16.8499 107.288 15.9739 107.192 14.6539H112.472C112.472 14.5579 112.484 14.4619 112.484 14.3899ZM109.424 11.9179C110.66 11.9179 111.56 12.7819 111.668 14.0179H107.192C107.3 12.7819 108.2 11.9179 109.424 11.9179ZM114.218 17.5459H115.07V8.6419H114.218V17.5459ZM123.797 11.1859C122.705 11.1859 121.853 11.6299 121.397 12.3979V11.2339H120.581V17.5459H121.433V14.2339C121.433 12.7939 122.285 11.9539 123.641 11.9539C124.841 11.9539 125.537 12.6379 125.537 13.9699V17.5459H126.389V13.8859C126.389 12.0739 125.333 11.1859 123.797 11.1859ZM130.91 11.1859C129.914 11.1859 128.978 11.4979 128.342 12.0379L128.726 12.6739C129.242 12.2179 130.01 11.9299 130.826 11.9299C132.002 11.9299 132.614 12.5179 132.614 13.5979V13.9819H130.61C128.798 13.9819 128.174 14.7979 128.174 15.7699C128.174 16.8619 129.05 17.6059 130.478 17.6059C131.522 17.6059 132.266 17.2099 132.65 16.5619V17.5459H133.466V13.6339C133.466 12.0019 132.542 11.1859 130.91 11.1859ZM130.61 16.9339C129.602 16.9339 129.014 16.4779 129.014 15.7459C129.014 15.0979 129.41 14.6179 130.634 14.6179H132.614V15.6499C132.278 16.4779 131.57 16.9339 130.61 16.9339Z" fill="white"/>
<defs>
<linearGradient id="paint0_linear" x1="40.5951" y1="26.1316" x2="9.14347" y2="26.1316" gradientUnits="userSpaceOnUse">
<stop stop-color="#FEE000"/>
<stop offset="0.1941" stop-color="#FCCF0B"/>
<stop offset="0.5469" stop-color="#FAB318"/>
<stop offset="0.8279" stop-color="#F9A21B"/>
<stop offset="1" stop-color="#F99B1C"/>
</linearGradient>
<linearGradient id="paint1_linear" x1="32.4329" y1="29.1231" x2="2.76337" y2="58.7046" gradientUnits="userSpaceOnUse">
<stop stop-color="#EF4547"/>
<stop offset="1" stop-color="#C6186D"/>
</linearGradient>
<linearGradient id="paint2_linear" x1="2.71951" y1="-6.66282" x2="26.9439" y2="17.4897" gradientUnits="userSpaceOnUse">
<stop stop-color="#279E6F"/>
<stop offset="0.3168" stop-color="#4DAB6D"/>
<stop offset="0.7398" stop-color="#6ABA6A"/>
<stop offset="1" stop-color="#74C169"/>
</linearGradient>
</defs>
</svg>
