<svg width="48" height="48" viewBox="0 0 48 48" fill="none" xmlns="http://www.w3.org/2000/svg">
<mask id="path-1-outside-1" maskUnits="userSpaceOnUse" x="6" y="3" width="35" height="42" fill="black">
<rect fill="white" x="6" y="3" width="35" height="42"/>
<path d="M36.9028 36.6855C36.7038 36.0111 36.0944 35.6136 35.0921 35.503C34.9193 35.4843 34.7435 35.4737 34.5682 35.4737C33.2077 35.4737 32.2542 36.047 32.1502 36.1132C31.1404 36.7582 30.0828 37.2734 28.9791 37.6558C29.1433 37.4502 29.2895 37.227 29.4187 36.9895C29.4403 36.9481 29.4594 36.9067 29.4754 36.8633C29.7467 36.1369 29.5699 35.6283 29.3739 35.3282C29.07 34.8635 28.542 34.611 27.805 34.5766L27.6382 34.5726L22.5902 34.5716C21.0941 32.7602 18.3405 31.851 14.1982 31.7965L13.8049 31.7935C13.8024 31.7935 13.8004 31.7935 13.7983 31.7935C13.736 31.7935 13.6753 31.801 13.615 31.8121V31.3308C13.615 30.7731 13.1648 30.3206 12.6102 30.3206H8.00478C7.45014 30.3206 7 30.7731 7 31.3308V42.4432C7 43.0009 7.45014 43.4535 8.00478 43.4535H12.6102C13.1648 43.4535 13.615 43.0009 13.615 42.4432V42.1336C18.6203 43.3893 22.2968 44 24.8509 44C28.8113 44 35.2926 39.3792 35.5664 39.1827C35.584 39.1696 35.6016 39.155 35.6192 39.1413C36.0608 38.7771 37.2343 37.8093 36.9028 36.6855ZM12.6097 42.4422H8.00428V31.3298H12.6097V42.4422ZM34.9821 38.3599C34.9821 38.3599 28.5345 42.9898 24.8504 42.9898C22.3942 42.9898 18.7102 42.3725 13.7978 41.138V32.8037L14.1847 32.8057C18.2626 32.8597 20.8966 33.7851 22.0873 35.5818H27.6136L27.7573 35.5848C28.4923 35.6192 28.7515 35.9273 28.5345 36.5072C27.7854 37.8972 26.2174 38.5908 23.8281 38.5908C23.0318 38.5908 22.144 38.514 21.1664 38.3599V39.2853L21.5944 39.3419C22.4013 39.4409 23.1915 39.4909 23.9657 39.4909C27.1499 39.4909 30.0542 38.6509 32.6807 36.9709C32.6807 36.9709 33.4559 36.4844 34.5682 36.4844C34.7018 36.4844 34.84 36.492 34.9826 36.5072C36.2039 36.642 36.3542 37.229 34.9821 38.3599ZM27.8854 25.8094V30.1579H27.0202V25.8094H27.8854ZM18.9946 19.0697L19.2623 19.8971L15.1483 21.2412L14.881 20.4133L18.9946 19.0697ZM35.8864 19.0697L40 20.4133L39.7327 21.2412L35.6187 19.8971L35.8864 19.0697ZM35.2946 5.09323L35.9954 5.60491L33.4529 9.12301L32.7525 8.61134L35.2946 5.09323ZM19.6105 5.09323L22.1531 8.61134L21.4528 9.12301L18.9102 5.60491L19.6105 5.09323ZM20.7997 26.7075C20.451 26.7075 20.1335 26.5145 19.9717 26.2044C19.8773 26.0246 19.8436 25.8124 19.8778 25.6084L21.0805 18.558L15.9858 13.565C15.8069 13.3897 15.7064 13.1543 15.7034 12.9033C15.7004 12.6522 15.7948 12.4153 15.9687 12.2355C16.1113 12.088 16.3013 11.991 16.5032 11.9612L23.5442 10.9323L26.6942 4.5174C26.9102 4.07189 27.5 3.86833 27.9457 4.09058C28.1285 4.1815 28.2797 4.33304 28.3702 4.5174L31.5202 10.9323L38.5607 11.9612C39.0696 12.0355 39.4243 12.5128 39.3514 13.0255C39.3223 13.2306 39.2243 13.424 39.0746 13.5675L33.9834 18.5575L35.1856 25.6079C35.2735 26.1185 34.9314 26.606 34.423 26.6938C34.2039 26.7292 34.01 26.6933 33.8307 26.5989L27.5312 23.2702L21.2342 26.5984C21.1021 26.6701 20.9509 26.7075 20.7997 26.7075ZM16.7886 12.9407L21.9712 18.0201C22.0893 18.1362 22.1435 18.3034 22.1159 18.4671L20.8926 25.6392L27.2986 22.2529C27.4448 22.1756 27.6196 22.1756 27.7658 22.2529L34.1723 25.6382L32.9495 18.4671C32.9213 18.3034 32.9756 18.1362 33.0936 18.0201L38.2758 12.9401L31.1147 11.8941C30.9509 11.8703 30.8098 11.7668 30.7364 11.6178L27.5327 5.09272L24.3289 11.6178C24.2561 11.7668 24.1149 11.8703 23.9511 11.8941L16.7886 12.9407Z"/>
</mask>
<path d="M36.9028 36.6855C36.7038 36.0111 36.0944 35.6136 35.0921 35.503C34.9193 35.4843 34.7435 35.4737 34.5682 35.4737C33.2077 35.4737 32.2542 36.047 32.1502 36.1132C31.1404 36.7582 30.0828 37.2734 28.9791 37.6558C29.1433 37.4502 29.2895 37.227 29.4187 36.9895C29.4403 36.9481 29.4594 36.9067 29.4754 36.8633C29.7467 36.1369 29.5699 35.6283 29.3739 35.3282C29.07 34.8635 28.542 34.611 27.805 34.5766L27.6382 34.5726L22.5902 34.5716C21.0941 32.7602 18.3405 31.851 14.1982 31.7965L13.8049 31.7935C13.8024 31.7935 13.8004 31.7935 13.7983 31.7935C13.736 31.7935 13.6753 31.801 13.615 31.8121V31.3308C13.615 30.7731 13.1648 30.3206 12.6102 30.3206H8.00478C7.45014 30.3206 7 30.7731 7 31.3308V42.4432C7 43.0009 7.45014 43.4535 8.00478 43.4535H12.6102C13.1648 43.4535 13.615 43.0009 13.615 42.4432V42.1336C18.6203 43.3893 22.2968 44 24.8509 44C28.8113 44 35.2926 39.3792 35.5664 39.1827C35.584 39.1696 35.6016 39.155 35.6192 39.1413C36.0608 38.7771 37.2343 37.8093 36.9028 36.6855ZM12.6097 42.4422H8.00428V31.3298H12.6097V42.4422ZM34.9821 38.3599C34.9821 38.3599 28.5345 42.9898 24.8504 42.9898C22.3942 42.9898 18.7102 42.3725 13.7978 41.138V32.8037L14.1847 32.8057C18.2626 32.8597 20.8966 33.7851 22.0873 35.5818H27.6136L27.7573 35.5848C28.4923 35.6192 28.7515 35.9273 28.5345 36.5072C27.7854 37.8972 26.2174 38.5908 23.8281 38.5908C23.0318 38.5908 22.144 38.514 21.1664 38.3599V39.2853L21.5944 39.3419C22.4013 39.4409 23.1915 39.4909 23.9657 39.4909C27.1499 39.4909 30.0542 38.6509 32.6807 36.9709C32.6807 36.9709 33.4559 36.4844 34.5682 36.4844C34.7018 36.4844 34.84 36.492 34.9826 36.5072C36.2039 36.642 36.3542 37.229 34.9821 38.3599ZM27.8854 25.8094V30.1579H27.0202V25.8094H27.8854ZM18.9946 19.0697L19.2623 19.8971L15.1483 21.2412L14.881 20.4133L18.9946 19.0697ZM35.8864 19.0697L40 20.4133L39.7327 21.2412L35.6187 19.8971L35.8864 19.0697ZM35.2946 5.09323L35.9954 5.60491L33.4529 9.12301L32.7525 8.61134L35.2946 5.09323ZM19.6105 5.09323L22.1531 8.61134L21.4528 9.12301L18.9102 5.60491L19.6105 5.09323ZM20.7997 26.7075C20.451 26.7075 20.1335 26.5145 19.9717 26.2044C19.8773 26.0246 19.8436 25.8124 19.8778 25.6084L21.0805 18.558L15.9858 13.565C15.8069 13.3897 15.7064 13.1543 15.7034 12.9033C15.7004 12.6522 15.7948 12.4153 15.9687 12.2355C16.1113 12.088 16.3013 11.991 16.5032 11.9612L23.5442 10.9323L26.6942 4.5174C26.9102 4.07189 27.5 3.86833 27.9457 4.09058C28.1285 4.1815 28.2797 4.33304 28.3702 4.5174L31.5202 10.9323L38.5607 11.9612C39.0696 12.0355 39.4243 12.5128 39.3514 13.0255C39.3223 13.2306 39.2243 13.424 39.0746 13.5675L33.9834 18.5575L35.1856 25.6079C35.2735 26.1185 34.9314 26.606 34.423 26.6938C34.2039 26.7292 34.01 26.6933 33.8307 26.5989L27.5312 23.2702L21.2342 26.5984C21.1021 26.6701 20.9509 26.7075 20.7997 26.7075ZM16.7886 12.9407L21.9712 18.0201C22.0893 18.1362 22.1435 18.3034 22.1159 18.4671L20.8926 25.6392L27.2986 22.2529C27.4448 22.1756 27.6196 22.1756 27.7658 22.2529L34.1723 25.6382L32.9495 18.4671C32.9213 18.3034 32.9756 18.1362 33.0936 18.0201L38.2758 12.9401L31.1147 11.8941C30.9509 11.8703 30.8098 11.7668 30.7364 11.6178L27.5327 5.09272L24.3289 11.6178C24.2561 11.7668 24.1149 11.8703 23.9511 11.8941L16.7886 12.9407Z" fill="#00335B"/>
<path d="M36.9028 36.6855C36.7038 36.0111 36.0944 35.6136 35.0921 35.503C34.9193 35.4843 34.7435 35.4737 34.5682 35.4737C33.2077 35.4737 32.2542 36.047 32.1502 36.1132C31.1404 36.7582 30.0828 37.2734 28.9791 37.6558C29.1433 37.4502 29.2895 37.227 29.4187 36.9895C29.4403 36.9481 29.4594 36.9067 29.4754 36.8633C29.7467 36.1369 29.5699 35.6283 29.3739 35.3282C29.07 34.8635 28.542 34.611 27.805 34.5766L27.6382 34.5726L22.5902 34.5716C21.0941 32.7602 18.3405 31.851 14.1982 31.7965L13.8049 31.7935C13.8024 31.7935 13.8004 31.7935 13.7983 31.7935C13.736 31.7935 13.6753 31.801 13.615 31.8121V31.3308C13.615 30.7731 13.1648 30.3206 12.6102 30.3206H8.00478C7.45014 30.3206 7 30.7731 7 31.3308V42.4432C7 43.0009 7.45014 43.4535 8.00478 43.4535H12.6102C13.1648 43.4535 13.615 43.0009 13.615 42.4432V42.1336C18.6203 43.3893 22.2968 44 24.8509 44C28.8113 44 35.2926 39.3792 35.5664 39.1827C35.584 39.1696 35.6016 39.155 35.6192 39.1413C36.0608 38.7771 37.2343 37.8093 36.9028 36.6855ZM12.6097 42.4422H8.00428V31.3298H12.6097V42.4422ZM34.9821 38.3599C34.9821 38.3599 28.5345 42.9898 24.8504 42.9898C22.3942 42.9898 18.7102 42.3725 13.7978 41.138V32.8037L14.1847 32.8057C18.2626 32.8597 20.8966 33.7851 22.0873 35.5818H27.6136L27.7573 35.5848C28.4923 35.6192 28.7515 35.9273 28.5345 36.5072C27.7854 37.8972 26.2174 38.5908 23.8281 38.5908C23.0318 38.5908 22.144 38.514 21.1664 38.3599V39.2853L21.5944 39.3419C22.4013 39.4409 23.1915 39.4909 23.9657 39.4909C27.1499 39.4909 30.0542 38.6509 32.6807 36.9709C32.6807 36.9709 33.4559 36.4844 34.5682 36.4844C34.7018 36.4844 34.84 36.492 34.9826 36.5072C36.2039 36.642 36.3542 37.229 34.9821 38.3599ZM27.8854 25.8094V30.1579H27.0202V25.8094H27.8854ZM18.9946 19.0697L19.2623 19.8971L15.1483 21.2412L14.881 20.4133L18.9946 19.0697ZM35.8864 19.0697L40 20.4133L39.7327 21.2412L35.6187 19.8971L35.8864 19.0697ZM35.2946 5.09323L35.9954 5.60491L33.4529 9.12301L32.7525 8.61134L35.2946 5.09323ZM19.6105 5.09323L22.1531 8.61134L21.4528 9.12301L18.9102 5.60491L19.6105 5.09323ZM20.7997 26.7075C20.451 26.7075 20.1335 26.5145 19.9717 26.2044C19.8773 26.0246 19.8436 25.8124 19.8778 25.6084L21.0805 18.558L15.9858 13.565C15.8069 13.3897 15.7064 13.1543 15.7034 12.9033C15.7004 12.6522 15.7948 12.4153 15.9687 12.2355C16.1113 12.088 16.3013 11.991 16.5032 11.9612L23.5442 10.9323L26.6942 4.5174C26.9102 4.07189 27.5 3.86833 27.9457 4.09058C28.1285 4.1815 28.2797 4.33304 28.3702 4.5174L31.5202 10.9323L38.5607 11.9612C39.0696 12.0355 39.4243 12.5128 39.3514 13.0255C39.3223 13.2306 39.2243 13.424 39.0746 13.5675L33.9834 18.5575L35.1856 25.6079C35.2735 26.1185 34.9314 26.606 34.423 26.6938C34.2039 26.7292 34.01 26.6933 33.8307 26.5989L27.5312 23.2702L21.2342 26.5984C21.1021 26.6701 20.9509 26.7075 20.7997 26.7075ZM16.7886 12.9407L21.9712 18.0201C22.0893 18.1362 22.1435 18.3034 22.1159 18.4671L20.8926 25.6392L27.2986 22.2529C27.4448 22.1756 27.6196 22.1756 27.7658 22.2529L34.1723 25.6382L32.9495 18.4671C32.9213 18.3034 32.9756 18.1362 33.0936 18.0201L38.2758 12.9401L31.1147 11.8941C30.9509 11.8703 30.8098 11.7668 30.7364 11.6178L27.5327 5.09272L24.3289 11.6178C24.2561 11.7668 24.1149 11.8703 23.9511 11.8941L16.7886 12.9407Z" stroke="#00335B" stroke-width="0.4" mask="url(#path-1-outside-1)"/>
</svg>
