<svg width="18" height="18" viewBox="0 0 18 18" fill="none" xmlns="http://www.w3.org/2000/svg">
<path d="M0.161711 17.0577L5.399 11.82C2.98633 9.00541 3.11421 4.74922 5.78178 2.08988C7.13335 0.742425 8.9291 0 10.8382 0C12.7559 0 14.5573 0.747727 15.9113 2.10578C17.2618 3.46009 18.0037 5.26037 18 7.1742C17.9965 9.08803 17.2481 10.8854 15.8932 12.2349C14.5425 13.5832 12.7472 14.3256 10.8382 14.3256C9.10956 14.3256 7.4766 13.716 6.17937 12.6011L0.942522 17.8383C0.834732 17.9461 0.693369 18 0.552006 18C0.410643 18 0.269501 17.9461 0.161489 17.8383C-0.0538673 17.6229 -0.0538673 17.2735 0.161711 17.0577ZM15.1135 11.4529C16.2597 10.3113 16.8929 8.79092 16.8956 7.17221C16.8987 5.5535 16.2714 4.03088 15.1292 2.88554C13.9839 1.73711 12.4603 1.10447 10.8382 1.10447C9.22354 1.10447 7.70477 1.73225 6.56149 2.87207C4.19631 5.23033 4.1899 9.07345 6.54691 11.4394C7.69218 12.5883 9.21625 13.2212 10.8384 13.2212C12.4526 13.2214 13.9707 12.5936 15.1135 11.4529Z" fill="#959595"/>
</svg>
