<svg width="48" height="48" viewBox="0 0 48 48" fill="none" xmlns="http://www.w3.org/2000/svg">
<path d="M8.66662 6.66602H7.99998C7.63177 6.66602 7.33334 6.96445 7.33334 7.33266C7.33334 7.70086 7.63177 7.99938 7.99998 7.99938H8.66662C9.03482 7.99938 9.33326 7.70094 9.33326 7.33273C9.33326 6.96453 9.03482 6.66602 8.66662 6.66602Z" fill="#00335B"/>
<path d="M11.9999 6.66602H11.3333C10.9651 6.66602 10.6667 6.96445 10.6667 7.33266C10.6667 7.70086 10.9652 7.9993 11.3333 7.9993H11.9999C12.3681 7.9993 12.6666 7.70086 12.6666 7.33266C12.6666 6.96445 12.3681 6.66602 11.9999 6.66602Z" fill="#00335B"/>
<path d="M15.3333 6.66602H14.6666C14.2984 6.66602 14 6.96445 14 7.33266C14 7.70086 14.2984 7.9993 14.6666 7.9993H15.3333C15.7015 7.9993 15.9999 7.70086 15.9999 7.33266C15.9999 6.96445 15.7014 6.66602 15.3333 6.66602Z" fill="#00335B"/>
<path d="M36 6.66602H18C17.6318 6.66602 17.3333 6.96445 17.3333 7.33266C17.3333 7.70086 17.6318 7.9993 18 7.9993H36C36.3682 7.9993 36.6666 7.70086 36.6666 7.33266C36.6666 6.96445 36.3682 6.66602 36 6.66602Z" fill="#00335B"/>
<path d="M42.6666 28H42V24.6666C41.9995 22.8 41.2837 21.0045 40 19.6493V7.33336C39.9978 5.49328 38.5067 4.00219 36.6666 4H7.33336C5.49328 4.00219 4.00219 5.49328 4 7.33336V34C4.00219 35.84 5.49328 37.3311 7.33336 37.3334H25.3334V39.3334C25.3363 41.9095 27.4239 43.9971 30 44H39.3334C41.9095 43.997 43.9971 41.9095 44 39.3334V29.3334C44 28.597 43.403 28 42.6666 28ZM40.6666 24.6666V28H28.6666V24.6666C28.6666 21.353 31.353 18.6666 34.6666 18.6666C37.9803 18.6666 40.6666 21.353 40.6666 24.6666ZM5.33336 7.33336C5.33336 6.22883 6.22883 5.33336 7.33336 5.33336H36.6667C37.7713 5.33336 38.6667 6.22883 38.6667 7.33336V9.33336H5.33336V7.33336ZM25.3334 29.3334V36H7.33336C6.22883 36 5.33336 35.1045 5.33336 34V10.6666H38.6667V18.528C36.4145 17.0547 33.5356 16.9353 31.1691 18.2171C28.8027 19.4989 27.3298 21.9753 27.3334 24.6666V28H26.6667C25.9303 28 25.3334 28.597 25.3334 29.3334ZM42.6666 30.6666H40.6666C40.2984 30.6666 40 30.9651 40 31.3333C40 31.7015 40.2984 31.9999 40.6666 31.9999H42.6666V33.3333H40.6666C40.2984 33.3333 40 33.6317 40 33.9999C40 34.3681 40.2984 34.6666 40.6666 34.6666H42.6666V36H40.6666C40.2984 36 40 36.2984 40 36.6666C40 37.0348 40.2984 37.3333 40.6666 37.3333H42.6666V38.6666H40.6666C40.2984 38.6666 40 38.9652 40 39.3333C40 39.7015 40.2984 39.9999 40.6666 39.9999H42.6C42.281 41.5509 40.9167 42.6646 39.3334 42.6666H30C28.4166 42.6645 27.0523 41.5509 26.7334 39.9999H28.6667C29.0349 39.9999 29.3334 39.7014 29.3334 39.3333C29.3334 38.9651 29.0349 38.6666 28.6667 38.6666H26.6667V37.3333H28.6667C29.0349 37.3333 29.3334 37.0348 29.3334 36.6666C29.3334 36.2984 29.0349 36 28.6667 36H26.6667V34.6666H28.6667C29.0349 34.6666 29.3334 34.3682 29.3334 34C29.3334 33.6318 29.0349 33.3334 28.6667 33.3334H26.6667V32H28.6667C29.0349 32 29.3334 31.7016 29.3334 31.3334C29.3334 30.9652 29.0349 30.6667 28.6667 30.6667H26.6667V29.3334H42.6667V30.6666H42.6666Z" fill="#00335B"/>
<path d="M33.9996 36.5424V37.9984C33.9996 38.3666 34.2981 38.665 34.6663 38.665C35.0345 38.665 35.3329 38.3666 35.3329 37.9984V36.5424C36.2506 36.2192 36.8013 35.2811 36.6365 34.3222C36.4717 33.3633 35.6392 32.6632 34.6663 32.665C33.6933 32.6632 32.8609 33.3634 32.696 34.3222C32.5312 35.2811 33.0819 36.2192 33.9996 36.5424ZM34.6663 33.9984C35.0345 33.9984 35.3329 34.2969 35.3329 34.665C35.3329 35.0332 35.0344 35.3317 34.6663 35.3317C34.2981 35.3317 33.9996 35.0332 33.9996 34.665C33.9996 34.2969 34.2981 33.9984 34.6663 33.9984Z" fill="#00335B"/>
<path d="M15.3332 17.334C14.965 17.334 14.6666 17.6324 14.6666 18.0006V20.0006H9.3332V14.6673H11.9998C12.368 14.6673 12.6665 14.3688 12.6665 14.0006C12.6665 13.6324 12.368 13.334 11.9998 13.334H9.3332C8.59679 13.334 7.99984 13.9309 7.99984 14.6673V20.0006C7.99984 20.737 8.59679 21.334 9.3332 21.334H14.6666C15.403 21.334 15.9999 20.737 15.9999 20.0006V18.0006C15.9998 17.6324 15.7013 17.334 15.3332 17.334Z" fill="#00335B"/>
<path d="M11.1381 16.1956C10.8765 15.943 10.4607 15.9466 10.2036 16.2038C9.94639 16.4609 9.9428 16.8767 10.1955 17.1383L11.5288 18.4717C11.6538 18.5967 11.8233 18.667 12.0001 18.667H12.0301C12.2172 18.6586 12.3921 18.572 12.5122 18.4283L15.8455 14.4283C15.9982 14.2454 16.0417 13.9949 15.9596 13.7712C15.8775 13.5475 15.6823 13.3846 15.4476 13.3438C15.2128 13.3031 14.9741 13.3906 14.8215 13.5736L11.9548 17.0136L11.1381 16.1956Z" fill="#00335B"/>
<path d="M15.3332 28.6669C14.965 28.6669 14.6666 28.9654 14.6666 29.3336V31.3336H9.3332V26.0003H11.9998C12.368 26.0003 12.6665 25.7018 12.6665 25.3336C12.6665 24.9654 12.368 24.667 11.9998 24.667H9.3332C8.59679 24.667 7.99984 25.2639 7.99984 26.0004V31.3337C7.99984 32.0701 8.59679 32.6671 9.3332 32.6671H14.6666C15.403 32.6671 15.9999 32.0701 15.9999 31.3337V29.3337C15.9998 28.9654 15.7013 28.6669 15.3332 28.6669Z" fill="#00335B"/>
<path d="M11.1381 27.5286C10.8765 27.2759 10.4607 27.2795 10.2036 27.5367C9.94639 27.7939 9.9428 28.2097 10.1955 28.4712L11.5288 29.8046C11.6538 29.9296 11.8233 29.9999 12.0001 29.9999H12.0301C12.2172 29.9915 12.3921 29.905 12.5122 29.7612L15.8455 25.7612C15.9982 25.5783 16.0417 25.3279 15.9596 25.1042C15.8775 24.8805 15.6823 24.7176 15.4476 24.6768C15.2128 24.6361 14.9741 24.7236 14.8215 24.9066L11.9548 28.3466L11.1381 27.5286Z" fill="#00335B"/>
<path d="M18.6665 15.3334H23.9998C24.368 15.3334 24.6665 15.0349 24.6665 14.6667C24.6665 14.2985 24.368 14 23.9998 14H18.6665C18.2983 14 17.9998 14.2984 17.9998 14.6666C17.9998 15.0348 18.2984 15.3334 18.6665 15.3334Z" fill="#00335B"/>
<path d="M27.9999 17.9996C27.9999 17.6314 27.7014 17.333 27.3332 17.333H18.6665C18.2983 17.333 17.9998 17.6314 17.9998 17.9996C17.9998 18.3679 18.2983 18.6663 18.6665 18.6663H27.3331C27.7014 18.6663 27.9999 18.3679 27.9999 17.9996Z" fill="#00335B"/>
<path d="M23.9998 25.333H18.6665C18.2983 25.333 17.9998 25.6315 17.9998 25.9996C17.9998 26.3678 18.2983 26.6663 18.6665 26.6663H23.9998C24.368 26.6663 24.6665 26.3679 24.6665 25.9996C24.6665 25.6314 24.368 25.333 23.9998 25.333Z" fill="#00335B"/>
<path d="M23.3331 28.666H18.6665C18.2983 28.666 17.9998 28.9645 17.9998 29.3327C17.9998 29.7009 18.2983 29.9993 18.6665 29.9993H23.3331C23.7013 29.9993 23.9998 29.7009 23.9998 29.3327C23.9998 28.9645 23.7013 28.666 23.3331 28.666Z" fill="#00335B"/>
</svg>
