<svg width="40" height="51" viewBox="0 0 40 51" fill="none" xmlns="http://www.w3.org/2000/svg">
<path d="M4.97072 18.4908C4.42195 18.4908 3.97657 18.9362 3.97657 19.485C3.97657 20.0337 4.42195 20.4791 4.97072 20.4791C5.51948 20.4791 5.96486 20.0337 5.96486 19.485C5.96486 18.9362 5.51948 18.4908 4.97072 18.4908Z" fill="#00335B"/>
<path d="M28.8301 20.4791H23.8594V15.5084C23.8594 14.9594 23.4142 14.5143 22.8653 14.5143H16.9004C16.3515 14.5143 15.9063 14.9594 15.9063 15.5084V20.4791H10.9356C10.3866 20.4791 9.94142 20.9243 9.94142 21.4733V27.4381C9.94142 27.9871 10.3866 28.4323 10.9356 28.4323H15.9063V33.403C15.9063 33.9519 16.3515 34.3971 16.9004 34.3971H22.8653C23.4142 34.3971 23.8594 33.9519 23.8594 33.403V28.4323H28.8301C29.3791 28.4323 29.8243 27.9871 29.8243 27.4381V21.4733C29.8243 20.9243 29.3791 20.4791 28.8301 20.4791ZM27.836 26.444H22.8653C22.3163 26.444 21.8711 26.8892 21.8711 27.4381V32.4088H17.8946V27.4381C17.8946 26.8892 17.4494 26.444 16.9004 26.444H11.9297V22.4674H16.9004C17.4494 22.4674 17.8946 22.0222 17.8946 21.4733V16.5025H21.8711V21.4733C21.8711 22.0222 22.3163 22.4674 22.8653 22.4674H27.836V26.444Z" fill="#00335B"/>
<path d="M35.2299 3.05609C33.6204 4.10114 31.7511 4.65338 29.8243 4.65338C26.8775 4.65338 24.0997 3.35672 22.2034 1.09574C21.6193 0.399447 20.7734 0 19.8829 0C18.9923 0 18.1465 0.399447 17.5623 1.09565C15.666 3.35662 12.8882 4.65329 9.94143 4.65329C8.01458 4.65329 6.1453 4.10094 4.53578 3.056C2.57006 1.78021 0 3.28226 0 5.59772V25.8754C0 30.3859 1.44688 34.7928 4.0738 38.2842C10.5725 46.9252 19.1298 50.6643 19.4909 50.8193C19.616 50.873 19.7495 50.8999 19.8829 50.8999C20.0162 50.8999 20.1498 50.873 20.2749 50.8193C20.6359 50.6643 29.1932 46.9253 35.6918 38.2853C38.3189 34.7928 39.7657 30.3855 39.7657 25.8754V5.59782C39.7657 3.28216 37.1951 1.78021 35.2299 3.05609ZM34.1029 37.0902C28.6985 44.2754 21.6101 47.9794 19.8823 48.8104C18.1537 47.9814 11.079 44.2911 5.66274 37.0891C3.2932 33.9399 1.98829 29.9576 1.98829 25.8755V5.59782C1.98829 4.84098 2.82347 4.31518 3.45306 4.72377C5.38577 5.97848 7.62945 6.64167 9.94143 6.64167C13.4776 6.64167 16.8107 5.08604 19.0857 2.37352C19.294 2.12508 19.5771 1.98829 19.8829 1.98829C20.1887 1.98829 20.4717 2.12508 20.68 2.37352C22.9552 5.08594 26.2881 6.64167 29.8243 6.64167C32.1363 6.64167 34.3799 5.97848 36.3127 4.72377C36.932 4.32144 37.7774 4.82955 37.7774 5.59782V25.8754C37.7774 29.9572 36.4725 33.9399 34.1029 37.0902Z" fill="#00335B"/>
<path d="M35.3686 7.95518C35.1048 7.76888 34.7671 7.72236 34.4627 7.83022C32.967 8.36089 31.4064 8.62991 29.8244 8.62991C26.4072 8.62991 23.1118 7.36844 20.5449 5.07784C20.1678 4.74132 19.5982 4.74132 19.2211 5.07784C16.6543 7.36844 13.3587 8.62991 9.94155 8.62991C8.35957 8.62991 6.79896 8.36089 5.30328 7.83022C4.99867 7.72236 4.66116 7.76888 4.39731 7.95518C4.13367 8.14149 3.97679 8.4443 3.97679 8.7672V15.5085C3.97679 16.0574 4.42197 16.5026 4.97093 16.5026C5.5199 16.5026 5.96508 16.0574 5.96508 15.5085V10.111C7.26323 10.448 8.59558 10.6183 9.94165 10.6183C13.5598 10.6183 17.0572 9.38228 19.8831 7.1208C22.7089 9.38228 26.2063 10.6183 29.8245 10.6183C31.1706 10.6183 32.5029 10.448 33.8011 10.111V25.8754C33.8011 29.1015 32.7798 32.2343 30.9246 34.6974C27.1655 39.6976 22.5741 42.7936 19.8924 44.318C17.1896 42.7737 12.5687 39.6541 8.84113 34.699C6.98646 32.2344 5.96498 29.1008 5.96498 25.8753V23.4615C5.96498 22.9126 5.5198 22.4674 4.97083 22.4674C4.42187 22.4674 3.97669 22.9126 3.97669 23.4615V25.8753C3.97669 29.5294 5.14004 33.0876 7.25229 35.8944C11.4328 41.4518 16.6649 44.8168 19.4117 46.328C19.5609 46.41 19.7258 46.4511 19.8908 46.4511C20.0549 46.4511 20.2191 46.4105 20.3676 46.3293C23.0932 44.8397 28.2954 41.5029 32.5133 35.8929C34.6257 33.0878 35.7892 29.5303 35.7892 25.8753V8.7671C35.7892 8.4442 35.6323 8.14149 35.3686 7.95518Z" fill="#00335B"/>
</svg>
