<svg width="10" height="10" viewBox="0 0 10 10" fill="none" xmlns="http://www.w3.org/2000/svg">
<g clip-path="url(#clip0)">
<path d="M6.13744 6.75395C5.87377 6.959 5.49881 6.94141 5.25855 6.70119L3.30154 4.74414C3.06129 4.50393 3.04373 4.12305 3.24879 3.86523L0.770269 1.38086C-0.307875 2.62305 -0.249262 4.50979 0.928492 5.68752L4.31519 9.07422C5.51588 10.2749 7.42365 10.2868 8.62181 9.23244L6.13744 6.75395Z" fill="white"/>
<path d="M3.86375 1.99609L2.62156 0.748047C2.29344 0.419922 1.71336 0.419922 1.37938 0.748047L1.17432 0.958984L3.65869 3.44336L3.86375 3.23828C4.03369 3.06834 4.12156 2.85154 4.12156 2.61719C4.12156 2.38279 4.03369 2.16014 3.86375 1.99609Z" fill="white"/>
<path d="M9.25439 7.38083L8.00633 6.13864C7.6782 5.8047 7.09812 5.8047 6.76414 6.13864L6.55908 6.34374L9.04346 8.82812L9.25439 8.62306C9.41848 8.45898 9.50635 8.23632 9.50635 8.00196C9.50635 7.76757 9.41848 7.54491 9.25439 7.38083Z" fill="white"/>
<path d="M5.01826 0C4.63207 0 4.63049 0.582031 5.01826 0.582031C7.44155 0.582031 9.4167 2.55719 9.4167 4.98047C9.4167 5.36666 9.99873 5.36824 9.99873 4.98047C9.99873 2.23418 7.76457 0 5.01826 0Z" fill="white"/>
<path d="M5.01826 1.17188C4.63207 1.17188 4.63049 1.75391 5.01826 1.75391C6.79524 1.75391 8.24483 3.2035 8.24483 4.98047C8.24483 5.36666 8.82686 5.36824 8.82686 4.98047C8.82686 2.88047 7.11827 1.17188 5.01826 1.17188Z" fill="white"/>
<path d="M5.01826 2.34375C4.63207 2.34375 4.63049 2.92578 5.01826 2.92578C6.14895 2.92578 7.07295 3.84979 7.07295 4.98047C7.07295 5.36666 7.65498 5.36824 7.65498 4.98047C7.65498 3.5265 6.47223 2.34375 5.01826 2.34375Z" fill="white"/>
<path d="M5.01826 3.51562C4.63207 3.51562 4.63049 4.10156 5.01826 4.10156C5.50291 4.10156 5.89717 4.49582 5.89717 4.98047C5.89717 5.36666 6.48311 5.36824 6.48311 4.98047C6.48311 4.17279 5.82594 3.51562 5.01826 3.51562Z" fill="white"/>
</g>
<defs>
<clipPath id="clip0">
<rect width="10" height="10" fill="white"/>
</clipPath>
</defs>
</svg>
