<svg width="48" height="48" viewBox="0 0 48 48" fill="none" xmlns="http://www.w3.org/2000/svg">
<path d="M39.3333 9.33333C39.5101 9.33333 39.6797 9.2631 39.8047 9.13807C39.9298 9.01305 40 8.84348 40 8.66667V7.33333C39.999 6.44958 39.6475 5.60231 39.0226 4.97741C38.3977 4.3525 37.5504 4.00099 36.6667 4H12.6667C11.7829 4.00099 10.9356 4.3525 10.3107 4.97741C9.68583 5.60231 9.33433 6.44958 9.33333 7.33333V37.3333H10.6667V7.33333C10.6673 6.80309 10.8782 6.29474 11.2531 5.9198C11.6281 5.54486 12.1364 5.33395 12.6667 5.33333H34.0016C33.5672 5.90953 33.3325 6.61171 33.3333 7.33333V40.6667C33.3333 41.1971 33.1226 41.7058 32.7475 42.0809C32.3725 42.456 31.8638 42.6667 31.3333 42.6667C30.8029 42.6667 30.2942 42.456 29.9191 42.0809C29.544 41.7058 29.3333 41.1971 29.3333 40.6667V39.3333C29.3333 39.1565 29.2631 38.987 29.1381 38.8619C29.013 38.7369 28.8435 38.6667 28.6667 38.6667H4.66667C4.48986 38.6667 4.32029 38.7369 4.19526 38.8619C4.07024 38.987 4 39.1565 4 39.3333V40.6667C4.00099 41.5504 4.3525 42.3977 4.97741 43.0226C5.60231 43.6475 6.44958 43.999 7.33333 44H31.3333C32.2171 43.999 33.0644 43.6475 33.6893 43.0226C34.3142 42.3977 34.6657 41.5504 34.6667 40.6667V9.33333H39.3333ZM7.33333 42.6667C6.80308 42.6661 6.29472 42.4552 5.91978 42.0802C5.54483 41.7053 5.33393 41.1969 5.33333 40.6667V40H28V40.6667C27.9992 41.3883 28.2338 42.0905 28.6683 42.6667H7.33333ZM36.6667 5.33333C37.1969 5.33395 37.7053 5.54486 38.0802 5.9198C38.4551 6.29474 38.666 6.80309 38.6667 7.33333V8H34.6667V7.33333C34.6673 6.80309 34.8782 6.29474 35.2531 5.9198C35.6281 5.54486 36.1364 5.33395 36.6667 5.33333Z" fill="#00335B"/>
<path d="M18.0001 11.333C17.9966 11.5994 18.0557 11.8628 18.1727 12.1022C18.2896 12.3415 18.4611 12.55 18.6733 12.711C18.6406 12.9748 18.6685 13.2425 18.7549 13.4938C18.8413 13.7451 18.9839 13.9735 19.1718 14.1614C19.3597 14.3493 19.588 14.4919 19.8393 14.5783C20.0907 14.6646 20.3584 14.6925 20.6221 14.6598C20.7855 14.8695 20.9945 15.0391 21.2333 15.1557C21.4721 15.2724 21.7344 15.333 22.0001 15.333C22.2659 15.333 22.5282 15.2724 22.767 15.1557C23.0058 15.0391 23.2148 14.8695 23.3781 14.6598C23.6419 14.6926 23.9096 14.6647 24.161 14.5783C24.4123 14.4919 24.6406 14.3493 24.8285 14.1614C25.0165 13.9735 25.1591 13.7452 25.2454 13.4938C25.3318 13.2425 25.3597 12.9748 25.327 12.711C25.5366 12.5477 25.7062 12.3386 25.8229 12.0998C25.9395 11.861 26.0001 11.5988 26.0001 11.333C26.0001 11.0672 25.9395 10.805 25.8229 10.5662C25.7062 10.3274 25.5366 10.1184 25.327 9.95501C25.3597 9.69126 25.3318 9.42353 25.2454 9.17219C25.1591 8.92085 25.0165 8.69252 24.8285 8.5046C24.6406 8.31667 24.4123 8.1741 24.161 8.08772C23.9096 8.00135 23.6419 7.97346 23.3781 8.00617C23.2148 7.79654 23.0058 7.62695 22.767 7.51029C22.5282 7.39364 22.2659 7.33301 22.0001 7.33301C21.7344 7.33301 21.4721 7.39364 21.2333 7.51029C20.9945 7.62695 20.7855 7.79654 20.6221 8.00617C20.3584 7.97346 20.0907 8.00135 19.8393 8.08772C19.588 8.1741 19.3597 8.31667 19.1717 8.5046C18.9838 8.69252 18.8412 8.92085 18.7549 9.17219C18.6685 9.42353 18.6406 9.69126 18.6733 9.95501C18.4611 10.116 18.2896 10.3245 18.1727 10.5639C18.0557 10.8032 17.9966 11.0667 18.0001 11.333ZM19.6427 10.946C19.7468 10.9225 19.8437 10.8743 19.9253 10.8055C20.007 10.7368 20.0709 10.6494 20.1117 10.5508C20.1525 10.4522 20.1691 10.3452 20.16 10.2389C20.1509 10.1326 20.1164 10.03 20.0594 9.93976C20.0113 9.86363 19.9906 9.77342 20.0006 9.68395C20.0106 9.59447 20.0507 9.51106 20.1144 9.4474C20.178 9.38375 20.2615 9.34364 20.3509 9.33366C20.4404 9.32369 20.5306 9.34444 20.6067 9.39251C20.697 9.44949 20.7995 9.48398 20.9059 9.49308C21.0122 9.50218 21.1192 9.48562 21.2178 9.44479C21.3164 9.40397 21.4037 9.34006 21.4725 9.25846C21.5413 9.17685 21.5894 9.07993 21.613 8.97584C21.6328 8.88802 21.6819 8.80956 21.7523 8.75334C21.8226 8.69713 21.9099 8.6665 22 8.6665C22.09 8.6665 22.1774 8.69713 22.2477 8.75334C22.318 8.80956 22.3671 8.88802 22.387 8.97584C22.4105 9.07993 22.4587 9.17685 22.5275 9.25846C22.5962 9.34006 22.6836 9.40397 22.7822 9.44479C22.8808 9.48562 22.9877 9.50218 23.0941 9.49308C23.2004 9.48398 23.303 9.44949 23.3932 9.39251C23.4693 9.34444 23.5596 9.32369 23.649 9.33366C23.7385 9.34364 23.8219 9.38375 23.8856 9.4474C23.9493 9.51106 23.9894 9.59447 23.9994 9.68395C24.0094 9.77342 23.9886 9.86363 23.9406 9.93976C23.8836 10.03 23.8491 10.1326 23.84 10.2389C23.8309 10.3452 23.8474 10.4522 23.8883 10.5508C23.9291 10.6494 23.993 10.7368 24.0746 10.8055C24.1562 10.8743 24.2531 10.9225 24.3572 10.946C24.445 10.9658 24.5235 11.015 24.5797 11.0853C24.6359 11.1556 24.6666 11.243 24.6666 11.333C24.6666 11.423 24.6359 11.5104 24.5797 11.5807C24.5235 11.6511 24.445 11.7002 24.3572 11.72C24.2531 11.7435 24.1562 11.7917 24.0746 11.8605C23.993 11.9293 23.9291 12.0166 23.8883 12.1152C23.8474 12.2138 23.8309 12.3208 23.84 12.4271C23.8491 12.5334 23.8836 12.636 23.9406 12.7263C23.9887 12.8024 24.0094 12.8926 23.9994 12.9821C23.9894 13.0716 23.9493 13.1551 23.8856 13.2187C23.8219 13.2824 23.7385 13.3225 23.649 13.3325C23.5595 13.3424 23.4693 13.3216 23.3931 13.2735C23.3029 13.2165 23.2003 13.1821 23.094 13.173C22.9877 13.1639 22.8807 13.1804 22.7822 13.2213C22.6836 13.2621 22.5962 13.326 22.5275 13.4076C22.4587 13.4892 22.4105 13.5861 22.387 13.6902C22.3671 13.778 22.318 13.8565 22.2477 13.9127C22.1774 13.9689 22.09 13.9995 22 13.9995C21.9099 13.9995 21.8226 13.9689 21.7523 13.9127C21.6819 13.8565 21.6328 13.778 21.613 13.6902C21.5894 13.5861 21.5413 13.4892 21.4725 13.4076C21.4037 13.326 21.3164 13.2621 21.2178 13.2213C21.1192 13.1804 21.0123 13.1639 20.9059 13.173C20.7996 13.1821 20.697 13.2165 20.6068 13.2735C20.5307 13.3216 20.4405 13.3424 20.351 13.3325C20.2615 13.3225 20.178 13.2824 20.1143 13.2187C20.0506 13.1551 20.0105 13.0716 20.0005 12.9821C19.9905 12.8926 20.0113 12.8024 20.0594 12.7263C20.1164 12.636 20.1509 12.5334 20.16 12.4271C20.1691 12.3208 20.1525 12.2138 20.1117 12.1152C20.0709 12.0166 20.007 11.9293 19.9253 11.8605C19.8437 11.7917 19.7468 11.7435 19.6427 11.72C19.5549 11.7002 19.4764 11.6511 19.4202 11.5807C19.364 11.5104 19.3334 11.423 19.3334 11.333C19.3334 11.243 19.364 11.1556 19.4202 11.0853C19.4764 11.015 19.5549 10.9658 19.6427 10.946Z" fill="#00335B"/>
<path d="M18.6667 19.333H25.3333V20.6663H18.6667V19.333Z" fill="#00335B"/>
<path d="M20.6667 16.667H27.3333V18.0003H20.6667V16.667Z" fill="#00335B"/>
<path d="M16.6667 16.667H19.3333V18.0003H16.6667V16.667Z" fill="#00335B"/>
<path d="M15.3333 22.667H31.3333V24.0003H15.3333V22.667Z" fill="#00335B"/>
<path d="M12.6667 22.667H14V24.0003H12.6667V22.667Z" fill="#00335B"/>
<path d="M15.3333 25.333H26V26.6663H15.3333V25.333Z" fill="#00335B"/>
<path d="M27.3333 25.333H31.3333V26.6663H27.3333V25.333Z" fill="#00335B"/>
<path d="M15.3333 28H31.3333V29.3333H15.3333V28Z" fill="#00335B"/>
<path d="M12.6667 28H14V29.3333H12.6667V28Z" fill="#00335B"/>
<path d="M15.3333 30.667H19.3333V32.0003H15.3333V30.667Z" fill="#00335B"/>
<path d="M20.6667 30.667H31.3333V32.0003H20.6667V30.667Z" fill="#00335B"/>
<path d="M15.3333 33.333H26V34.6663H15.3333V33.333Z" fill="#00335B"/>
<path d="M12.6667 33.333H14V34.6663H12.6667V33.333Z" fill="#00335B"/>
<path d="M15.3333 36H31.3333V37.3333H15.3333V36Z" fill="#00335B"/>
<path d="M27.3333 33.333H31.3333V34.6663H27.3333V33.333Z" fill="#00335B"/>
<path d="M42 14.6667H41.3333C41.3333 13.9594 41.0524 13.2811 40.5523 12.781C40.0522 12.281 39.3739 12 38.6667 12C37.9594 12 37.2811 12.281 36.781 12.781C36.281 13.2811 36 13.9594 36 14.6667V36C36 36.1035 36.0243 36.2055 36.0709 36.2979H36.0704L38.0704 40.2979C38.1258 40.4086 38.2109 40.5018 38.3162 40.5668C38.4215 40.6319 38.5429 40.6664 38.6667 40.6664C38.7905 40.6664 38.9118 40.6319 39.0171 40.5668C39.1224 40.5018 39.2075 40.4086 39.2629 40.2979L41.2629 36.2979H41.2624C41.309 36.2055 41.3333 36.1035 41.3333 36V16H42C42.1768 16.0002 42.3462 16.0705 42.4712 16.1955C42.5962 16.3205 42.6665 16.4899 42.6667 16.6667V24H44V16.6667C43.9994 16.1364 43.7885 15.6281 43.4135 15.2531C43.0386 14.8782 42.5302 14.6673 42 14.6667ZM38.6667 13.3333C39.0202 13.3338 39.3591 13.4744 39.609 13.7243C39.859 13.9743 39.9996 14.3132 40 14.6667H37.3333C37.3338 14.3132 37.4744 13.9743 37.7243 13.7243C37.9743 13.4744 38.3132 13.3338 38.6667 13.3333ZM40 35.3333H37.3333V25.3333H40V35.3333ZM40 24H37.3333V22.6667H40V24ZM38.6667 38.5093L37.7453 36.6667H39.588L38.6667 38.5093ZM40 21.3333H37.3333V16H40V21.3333Z" fill="#00335B"/>
</svg>
