<svg width="29" height="29" fill="none" xmlns="http://www.w3.org/2000/svg">
    <path
        d="M29 14.127c0 7.801-6.374 14.126-14.238 14.126a14.28 14.28 0 0 1-6.88-1.756L0 29l2.57-7.581a13.983 13.983 0 0 1-2.042-7.293C.528 6.324 6.9 0 14.764 0 22.627.002 29 6.325 29 14.127zM14.761 2.253c-6.6 0-11.968 5.327-11.968 11.877 0 2.598.848 5.004 2.28 6.962l-1.494 4.41 4.598-1.462a11.966 11.966 0 0 0 6.585 1.963c6.6 0 11.97-5.326 11.97-11.876.001-6.547-5.37-11.874-11.97-11.874zm7.191 15.128c-.089-.143-.321-.23-.67-.404-.346-.174-2.065-1.01-2.383-1.124-.322-.117-.555-.175-.787.172-.23.347-.9 1.126-1.105 1.359-.203.231-.406.26-.755.09-.35-.176-1.474-.54-2.808-1.719-1.037-.919-1.738-2.05-1.94-2.398-.205-.346-.021-.533.152-.705.156-.156.349-.405.524-.608.175-.202.232-.345.349-.576.114-.232.056-.433-.03-.608-.087-.174-.783-1.876-1.076-2.57-.29-.692-.58-.577-.784-.577-.204 0-.436-.029-.67-.029-.232 0-.61.084-.929.432-.318.347-1.22 1.183-1.22 2.888 0 1.705 1.249 3.35 1.424 3.58.176.23 2.415 3.842 5.962 5.228 3.549 1.386 3.549.923 4.188.864.641-.058 2.066-.836 2.355-1.644.291-.811.291-1.506.203-1.651z"
        fill="#0079C8" />
</svg>