<svg width="32" height="23" viewBox="0 0 32 23" fill="none" xmlns="http://www.w3.org/2000/svg">
<path d="M31.0022 3.93108C30.8221 3.27928 30.4701 2.68484 29.9813 2.20696C29.4925 1.72907 28.884 1.38439 28.2162 1.20724C25.74 0.544011 15.8339 0.533215 15.8339 0.533215C15.8339 0.533215 5.92943 0.522418 3.45172 1.15634C2.78434 1.34165 2.17701 1.6912 1.68802 2.17143C1.19903 2.65166 0.844804 3.24645 0.659355 3.89869C0.00632733 6.31406 2.31666e-06 11.3237 2.31666e-06 11.3237C2.31666e-06 11.3237 -0.00632238 16.3581 0.641962 18.7488C1.00563 20.0706 2.07293 21.1148 3.42958 21.4711C5.93101 22.1343 15.8102 22.1451 15.8102 22.1451C15.8102 22.1451 25.7163 22.1559 28.1924 21.5235C28.8605 21.3466 29.4696 21.0028 29.9597 20.5259C30.4497 20.0489 30.8036 19.4555 30.9864 18.8043C31.641 16.3905 31.6457 11.3823 31.6457 11.3823C31.6457 11.3823 31.6774 6.34645 31.0022 3.93108ZM12.6653 15.9648L12.6732 6.71046L20.9064 11.3453L12.6653 15.9648Z" fill="#00335B"/>
</svg>
