<svg width="29" height="28" viewBox="0 0 29 28" fill="none" xmlns="http://www.w3.org/2000/svg">
    <path
        d="M28.3247 27.5815V27.5804H28.3318V17.5046C28.3318 12.5755 27.2384 8.77844 21.3006 8.77844C18.4461 8.77844 16.5305 10.2986 15.7485 11.7398H15.6659V9.23862H10.036V27.5804H15.8983V18.4982C15.8983 16.1069 16.3654 13.7946 19.4169 13.7946C22.4235 13.7946 22.4683 16.5236 22.4683 18.6516V27.5815H28.3247Z"
        fill="#0079C8"/>
    <path d="M0.488083 9.23999H6.35748V27.5818H0.488083V9.23999Z" fill="#0079C8"/>
    <path d="M3.42181 0.1073C1.54516 0.1073 0.0223732 1.58512 0.0223732 3.40636C0.0223732 5.2276 1.54516 6.73633 3.42181 6.73633C5.29846 6.73633 6.82125 5.2276 6.82125 3.40636C6.82007 1.58512 5.29728 0.1073 3.42181 0.1073V0.1073Z" fill="#0079C8"/>
</svg>
