<svg width="32" height="32" fill="none" xmlns="http://www.w3.org/2000/svg"><path d="M28.122 11.842a12.069 12.069 0 00-3.637-8.388A12.148 12.148 0 0015.998 0C12.824 0 9.776 1.24 7.51 3.454a12.069 12.069 0 00-3.637 8.388 4.34 4.34 0 00-2.76 1.407A4.313 4.313 0 000 16.133v4.254a4.314 4.314 0 001.27 3.05 4.342 4.342 0 003.06 1.266h2.105a.5.5 0 00.5-.499V12.316a.497.497 0 00-.5-.498H4.88c.062-2.9 1.26-5.661 3.34-7.69A11.146 11.146 0 0116.006.96c2.91 0 5.705 1.137 7.785 3.166a11.074 11.074 0 013.34 7.69h-1.557a.5.5 0 00-.5.499v11.886a.498.498 0 00.5.498h1.567v.67a4.403 4.403 0 01-1.296 3.114 4.432 4.432 0 01-3.124 1.292h-2.425a2.556 2.556 0 00-.602-2.06 2.57 2.57 0 00-1.96-.883h-3.456a2.6 2.6 0 00-1.884.728 2.583 2.583 0 00-.583 2.862 2.584 2.584 0 001.45 1.403c.325.125.67.184 1.018.173h3.444a2.597 2.597 0 002.2-1.226h2.788a5.436 5.436 0 003.83-1.585 5.4 5.4 0 001.59-3.817v-.693a4.34 4.34 0 002.759-1.408A4.313 4.313 0 0032 20.387v-4.254a4.313 4.313 0 00-1.114-2.886 4.34 4.34 0 00-2.764-1.405zM5.935 23.706H4.33c-.883 0-1.73-.35-2.354-.973A3.316 3.316 0 011 20.387v-4.254c0-.88.352-1.724.976-2.346a3.338 3.338 0 012.354-.973h1.605v10.892zm11.788 7.299h-3.445a1.596 1.596 0 01-1.529-.965 1.583 1.583 0 01.9-2.105c.2-.076.414-.111.629-.103h3.444a1.598 1.598 0 011.529.965 1.583 1.583 0 01-.9 2.105c-.2.076-.414.111-.628.102zM31 20.386c0 .88-.352 1.724-.976 2.346a3.338 3.338 0 01-2.354.973h-1.605V12.814h1.605c.883 0 1.73.35 2.354.973.624.622.975 1.466.976 2.346v4.254z" fill="#FFF"/></svg>