<svg width="57" height="72" fill="none" xmlns="http://www.w3.org/2000/svg"><path d="M57 0H0v57.108h57V0zM3.362 62.648c.816 0 1.444.173 1.874.516.434.342.647.822.647 1.438 0 .42-.076.782-.225 1.08a1.94 1.94 0 01-.64.745 2.84 2.84 0 01-.988.432 5.402 5.402 0 01-1.267.137H1.645l-.507 2.953s-1.29.085-1.126-.87c.169-.96 1.114-6.427 1.114-6.427h2.236v-.004zm-.555 3.256c.257 0 .499-.02.716-.057.221-.04.406-.104.559-.193.153-.089.273-.21.362-.355.088-.145.128-.33.128-.556a1.03 1.03 0 00-.104-.487.795.795 0 00-.294-.307 1.413 1.413 0 00-.45-.157 3.184 3.184 0 00-.575-.048h-.937l-.386 2.164h.981v-.004zM13.778 65.75c.172-.293.382-.531.619-.709.237-.177.523-.27.86-.27.049 0 .101.004.157.004a.673.673 0 01.145.025l-.169 1.144a1.153 1.153 0 00-.205-.04 1.301 1.301 0 00-.173-.012c-.285 0-.519.052-.7.157-.18.104-.33.23-.438.378a1.453 1.453 0 00-.241.452c-.048.153-.08.278-.093.367l-.47 2.695h-1.227l.704-3.957c.028-.133.056-.306.088-.515.033-.21.053-.4.069-.569 0 0 1.057-.137 1.057.838h.017v.013zM23.775 70.082c-.35 0-.672-.052-.97-.157a2.179 2.179 0 01-.768-.451 2.097 2.097 0 01-.506-.693 2.136 2.136 0 01-.185-.89c0-.412.072-.807.217-1.181a2.99 2.99 0 011.568-1.68 2.943 2.943 0 011.25-.258c.355 0 .684.052.982.157.298.104.555.254.768.447.217.193.386.423.507.693.12.27.185.564.185.886 0 .42-.073.818-.213 1.197-.141.379-.346.71-.611 1a2.872 2.872 0 01-.966.68c-.378.166-.796.25-1.258.25zm1.813-2.998c0-.378-.116-.693-.346-.939-.229-.245-.546-.366-.945-.366-.265 0-.506.052-.715.161a1.684 1.684 0 00-.543.435 2.096 2.096 0 00-.35.633 2.25 2.25 0 00-.125.757c0 .379.113.693.334.94.225.245.539.366.945.366.265 0 .507-.053.724-.157a1.65 1.65 0 00.55-.431c.15-.182.266-.395.35-.637.077-.238.121-.492.121-.762zM31.19 63.01c-.064-.02-.129-.04-.193-.052a1.311 1.311 0 00-.237-.02.85.85 0 00-.43.105.94.94 0 00-.29.274 1.653 1.653 0 00-.177.37c-.044.138-.08.27-.1.395l-.145.83H30.8s-.145.988-1.34.988c0 0-.43 2.433-.57 3.243-.161.943-1.335.806-1.335.806l.712-4.05h-.953l.168-.987h.933l.145-.765c.048-.278.125-.556.225-.822.1-.27.242-.512.419-.726.177-.213.398-.386.663-.515.265-.13.587-.194.965-.194.245 0 .45.025.62.073l-.262 1.047zM7.71 70.058c.988 0 1.52-.44 1.845-.94l-.016.077c-.093.468.297.758.663.758h.318l.885-5.045H10.31l-.145.77c-.197-.4-.756-.874-1.657-.874-1.592 0-2.537 1.317-2.694 2.715-.189 1.6.844 2.539 1.894 2.539zm.952-4.437c1.838.101 1.239 3.619-.627 3.518-1.69-.097-1.166-3.614.627-3.518zM18.069 65.972h1.134l.18-1.02h-1.137l.108-.712c.072-.516-.277-.778-.816-.778h-.274l-.253 1.49h-.88l-.182 1.02h.889l-.414 2.289a3.246 3.246 0 00-.065.645c0 .354.1.636.326.854.089.084.374.326 1.142.322.12 0 .41-.012.772-.137l.073-.943a1.772 1.772 0 01-.479.06.811.811 0 01-.438-.104c-.109-.069-.165-.198-.165-.379 0-.092.012-.19.032-.294l.447-2.313zM53.184 70.054c1.02 0 1.572-.452 1.906-.971l-.02.076c-.097.488.305.782.683.782h.33l.913-5.214h-1.134l-.15.794c-.204-.411-.78-.903-1.712-.903-1.645 0-2.622 1.358-2.787 2.809-.185 1.66.88 2.627 1.97 2.627zm.98-4.582c1.899.105 1.28 3.74-.647 3.63-1.745-.096-1.206-3.734.648-3.63zM38.554 64.38c0-1.18-.756-1.728-2.083-1.728-.817 0-2.1-.004-2.57-.004l-1.295 7.293h2.352c.54 0 1.05-.016 1.336-.08 1.319-.279 1.854-1.242 1.962-1.947.145-.975-.466-1.624-1.166-1.777.527-.112 1.464-.652 1.464-1.756zm-2.759 4.666c-.149.037-.382.057-.877.057h-.856l.434-2.446h1.267c1.677 0 1.524 2.019.032 2.39zm.499-3.324c-.161.053-.374.069-.768.069h-.877l.41-2.333h1.146c1.38 0 1.27 1.874.089 2.264zM43.552 64.735h-.337s-.5 2.865-.555 3.191c-.121.701-.459 1.18-1.408 1.18-.539 0-1.066-.325-.94-1.055.047-.282.405-2.365.433-2.53.101-.564-.378-.782-.772-.782h-.297c-.073.435-.402 2.265-.527 2.982-.052.29-.068.58-.048.77.112.97.965 1.567 2.018 1.567 1.822 0 2.506-.951 2.723-2.083.072-.375.414-2.26.442-2.454.08-.564-.382-.786-.732-.786zM45.426 72l.527-2.873c.205.411.792.93 1.721.93 1.681 0 2.719-1.313 2.823-2.852.113-1.636-.848-2.575-1.958-2.575-.965 0-1.62.472-1.955.96l.016-.07c.105-.503-.321-.78-.683-.78h-.362s-.977 5.608-1.114 6.285c-.157.794.486.979.688.979h.297V72zm2.735-6.435c1.745.097 1.202 3.748-.652 3.643-1.894-.105-1.275-3.752.652-3.643z" fill="#0079C8"/><path d="M51.68 33.532c-.684 0-1.62-.04-2.176-.23-.655-.225-1.238-.673-1.85-1.148-.31-.238-.627-.484-.969-.713-.418-.278-.768-.411-1.102-.411-.446 0-.884.245-1.411.793-.716.738-1.858 2.414-2.316 3.103-.033.04-.069.089-.13.089-.112 0-.116-.145-.116-.194-.024-1.918-.322-12.398-.53-15.525-.093-1.386-.523-2.244-1.123-2.244-.478 0-1.198.64-1.652 2.446-1.147 4.593-3.596 14.808-4.645 19.997-.032.141-.19.141-.221 0-.117-.531-.221-1.132-.322-1.64-.314-1.6-.587-2.981-1.122-3.743-.611-.866-1.516-.919-2.61-.19a7.39 7.39 0 00-.72.577c-.704.604-1.5 1.293-2.819 1.293H12.937l-.317 1.717h13.588c1.388 0 2.678-.802 3.447-1.354.39-.282.659-.443.876-.443.298 0 .434.306.543.761.056.222.12.532.197.89.258 1.185.643 3.051 1.134 4.296.23.576.567.899.957.899.595 0 1.199-.706 1.54-1.793.459-1.451 3.206-13.378 4.364-18.374.048-.206.072-.318.076-.33.02-.09.08-.146.149-.146.06 0 .129.053.129.166v.02c.088 5.053.337 13.93.715 14.844.21.503.527.77.921.77.459 0 1.006-.371 1.396-.94.197-.285.446-.66.716-1.055.655-.975 1.4-2.083 1.616-2.317.33-.35.704-.35 1.239.016.08.053.173.121.281.198.571.415 1.525.987 2.594 1.28.708.194 1.625.239 2.264.239.414 0 .853-.017.981-.025l.294-1.587c-.153-.004-.571.008-.957.008zM10.207 19.84c1.186 0 2.095.25 2.722.746.627.495.941 1.193.941 2.087 0 .609-.108 1.132-.326 1.568-.217.439-.527.797-.929 1.08-.402.285-.88.49-1.435.624a7.932 7.932 0 01-1.838.197H7.717l-.732 4.288s-1.878.124-1.632-1.266c.245-1.39 1.62-9.328 1.62-9.328h3.234v.005zm-.809 4.723c.374 0 .724-.028 1.042-.085.322-.056.59-.149.812-.282.225-.129.398-.302.523-.516.129-.213.189-.48.189-.805 0-.287-.048-.52-.153-.71a1.1 1.1 0 00-.426-.443 2.1 2.1 0 00-.652-.23 4.884 4.884 0 00-.836-.068H8.53l-.563 3.139h1.431zM26.397 9.852c.253-.427.55-.77.897-1.028.345-.258.76-.39 1.246-.39.069 0 .149.003.23.007.08.004.152.02.213.037l-.242 1.66a1.62 1.62 0 00-.297-.06c-.085-.009-.17-.017-.25-.017-.414 0-.756.077-1.017.23a2.155 2.155 0 00-.99 1.2 3.603 3.603 0 00-.136.537l-.684 3.916H23.59l1.017-5.742c.04-.193.085-.443.129-.75.044-.301.08-.58.1-.821 0 0 1.537-.198 1.537 1.217h.024v.004zM17.634 16.101c1.44 0 2.208-.636 2.678-1.362l-.024.11c-.136.68.43 1.1.965 1.1h.463l1.287-7.326H21.41l-.213 1.116c-.285-.576-1.098-1.27-2.409-1.27-2.312 0-3.683 1.91-3.913 3.945-.265 2.33 1.235 3.687 2.76 3.687zm1.38-6.435c2.666.15 1.797 5.255-.913 5.106-2.45-.141-1.685-5.25.913-5.106z" fill="#fff"/><path d="M24.237 22.866h-.49s-.724 4.158-.805 4.63c-.177 1.02-.663 1.712-2.042 1.712-.78 0-1.545-.475-1.368-1.535.069-.41.591-3.433.632-3.675.144-.818-.547-1.136-1.122-1.136h-.435c-.104.633-.583 3.288-.764 4.332-.072.419-.1.842-.068 1.12.16 1.41 1.4 2.272 2.928 2.272 2.642 0 3.635-1.382 3.953-3.026.104-.54.603-3.284.643-3.562.117-.814-.555-1.132-1.062-1.132zM29.308 23.817c1.026 0 1.323.31 1.69.484.076-.133.49-.923.614-1.148-.164-.133-.884-.524-2.139-.524h-.024c-2.087 0-3.089 1.366-3.089 2.413 0 2.164 3.005 1.83 3.005 3.155 0 .657-.672 1.1-1.577 1.1-.776 0-1.4-.367-1.85-.657-.076.145-.486.89-.623 1.116.334.234 1.154.766 2.57.766 1.81 0 3.205-1.184 3.205-2.502 0-2.236-3.044-2.003-3.044-3.256 0-.495.579-.947 1.262-.947zM16.251 19.94h-.426L13.93 30.454h1.717l1.685-9.356c.112-.66-.402-1.156-1.082-1.156zM36.479 12.495h-6.032c-.02.66.16 1.205.55 1.632.387.427.938.64 1.661.64.72 0 1.524-.153 2.41-.459l.212 1.237a7.628 7.628 0 01-2.803.552c-1.085 0-1.946-.326-2.573-.975-.612-.62-.917-1.418-.917-2.397 0-1.233.426-2.313 1.27-3.244.85-.93 1.883-1.398 3.101-1.398.985 0 1.762.322 2.333.97.567.65.852 1.504.852 2.576a8.064 8.064 0 01-.064.866zm-1.42-1.209a1.901 1.901 0 00-.486-1.265c-.358-.399-.825-.592-1.4-.592-.591 0-1.118.197-1.584.592a2.69 2.69 0 00-.853 1.265h4.323zM10.363 14.606c-4.508.286-3.559-7.49.455-7.744 1.13-.073 2.24.46 2.702 1.176l1.673-1.092c-.877-1.091-2.232-1.692-3.864-1.692-3.41 0-6.165 3.058-5.996 6.375.16 3.235 2.07 4.593 4.628 4.593 2.003 0 3.43-.73 4.412-1.7l-1.766-.875c-.514.444-1.483.91-2.244.96z" fill="#fff"/></svg>