<svg width="58" height="73" fill="none" xmlns="http://www.w3.org/2000/svg"><path d="M1.5 56.608V.5h56v56.108h-56z" stroke="#fff"/><path d="M4.362 62.648c.816 0 1.444.173 1.874.516.434.342.647.822.647 1.438 0 .42-.076.782-.225 1.08a1.94 1.94 0 01-.64.745 2.84 2.84 0 01-.988.432 5.402 5.402 0 01-1.267.137H2.645l-.507 2.953s-1.29.085-1.126-.87c.169-.96 1.114-6.427 1.114-6.427h2.236v-.004zm-.555 3.256c.257 0 .499-.02.716-.057.221-.04.406-.104.559-.193.153-.089.273-.21.362-.355.088-.145.128-.33.128-.556a1.03 1.03 0 00-.104-.487.795.795 0 00-.294-.307 1.413 1.413 0 00-.45-.157 3.184 3.184 0 00-.575-.048h-.937l-.386 2.164h.981v-.004zM14.778 65.75c.172-.293.382-.531.619-.709.237-.177.523-.27.86-.27.049 0 .101.004.157.004a.673.673 0 01.145.025l-.169 1.144a1.153 1.153 0 00-.205-.04 1.301 1.301 0 00-.173-.012c-.285 0-.519.052-.7.157-.18.104-.33.23-.438.378a1.453 1.453 0 00-.241.452c-.048.153-.08.278-.093.367l-.47 2.695h-1.227l.704-3.957c.028-.133.056-.306.088-.515.033-.21.053-.4.069-.569 0 0 1.057-.137 1.057.838h.017v.013zM24.775 70.082c-.35 0-.672-.052-.97-.157a2.18 2.18 0 01-.767-.451 2.1 2.1 0 01-.507-.693 2.138 2.138 0 01-.185-.89c0-.412.072-.807.217-1.181a2.99 2.99 0 011.568-1.68 2.943 2.943 0 011.251-.258c.354 0 .684.052.981.157.298.104.555.254.768.447.218.193.386.423.507.693.12.27.185.564.185.886 0 .42-.072.818-.213 1.197-.14.379-.346.71-.611 1a2.872 2.872 0 01-.965.68c-.378.166-.797.25-1.26.25zm1.814-2.998c0-.378-.117-.693-.346-.939-.23-.245-.547-.366-.945-.366-.266 0-.507.052-.716.161a1.683 1.683 0 00-.543.435 2.096 2.096 0 00-.35.633 2.25 2.25 0 00-.125.757c0 .379.113.693.334.94.225.245.539.366.945.366.266 0 .507-.053.724-.157a1.65 1.65 0 00.55-.431c.15-.182.266-.395.35-.637.077-.238.122-.492.122-.762zM32.19 63.01c-.064-.02-.128-.04-.193-.052a1.313 1.313 0 00-.237-.02.85.85 0 00-.43.105.94.94 0 00-.29.274 1.658 1.658 0 00-.177.37c-.044.138-.08.27-.1.395l-.145.83H31.8s-.145.988-1.339.988c0 0-.43 2.433-.57 3.243-.162.943-1.336.806-1.336.806l.712-4.05h-.953l.169-.987h.933l.144-.765c.049-.278.125-.556.226-.822.1-.27.24-.512.418-.726.177-.213.398-.386.663-.515.266-.13.587-.194.965-.194.246 0 .45.025.62.073l-.262 1.047zM8.71 70.058c.988 0 1.52-.44 1.845-.94l-.016.077c-.092.468.298.758.664.758h.317l.885-5.045H11.31l-.145.77c-.197-.4-.756-.874-1.657-.874-1.592 0-2.537 1.317-2.694 2.715-.189 1.6.845 2.539 1.894 2.539zm.952-4.437c1.838.101 1.239 3.619-.627 3.518-1.69-.097-1.166-3.614.627-3.518zM19.068 65.972h1.134l.181-1.02h-1.138l.109-.712c.072-.516-.278-.778-.816-.778h-.274l-.253 1.49h-.88l-.182 1.02h.889l-.414 2.289a3.217 3.217 0 00-.065.645c0 .354.1.636.326.854.088.084.374.326 1.142.322.12 0 .41-.012.772-.137l.073-.943a1.775 1.775 0 01-.479.06.811.811 0 01-.438-.104c-.109-.069-.165-.198-.165-.379 0-.092.012-.19.032-.294l.446-2.313zM54.184 70.054c1.021 0 1.572-.452 1.906-.971l-.02.076c-.097.488.305.782.683.782h.33l.913-5.214h-1.134l-.149.794c-.205-.411-.78-.903-1.713-.903-1.645 0-2.622 1.358-2.787 2.809-.185 1.66.88 2.627 1.97 2.627zm.98-4.582c1.9.105 1.28 3.74-.647 3.63-1.745-.096-1.206-3.734.648-3.63zM39.554 64.38c0-1.18-.756-1.728-2.083-1.728-.817 0-2.1-.004-2.57-.004l-1.295 7.293h2.352c.54 0 1.05-.016 1.336-.08 1.319-.279 1.854-1.242 1.962-1.947.145-.975-.466-1.624-1.166-1.777.527-.112 1.464-.652 1.464-1.756zm-2.759 4.666c-.149.037-.382.057-.877.057h-.856l.434-2.446h1.267c1.677 0 1.524 2.019.032 2.39zm.499-3.324c-.161.053-.374.069-.768.069h-.877l.41-2.333h1.146c1.38 0 1.27 1.874.089 2.264zM44.552 64.735h-.337l-.556 3.191c-.12.701-.458 1.18-1.407 1.18-.539 0-1.066-.325-.941-1.055l.434-2.53c.1-.564-.378-.782-.772-.782h-.297c-.073.435-.403 2.265-.527 2.982-.053.29-.069.58-.049.77.113.97.966 1.567 2.02 1.567 1.821 0 2.505-.951 2.722-2.083.072-.375.414-2.26.442-2.454.08-.564-.382-.786-.732-.786zM46.426 72l.527-2.873c.205.411.792.93 1.721.93 1.681 0 2.719-1.313 2.823-2.852.113-1.636-.848-2.575-1.958-2.575-.965 0-1.62.472-1.955.96l.016-.07c.105-.503-.321-.78-.683-.78h-.362s-.977 5.608-1.114 6.285c-.157.794.487.979.688.979h.297V72zm2.735-6.435c1.745.097 1.202 3.748-.652 3.643-1.894-.105-1.274-3.752.652-3.643zM52.68 33.532c-.684 0-1.62-.04-2.176-.23-.655-.225-1.238-.673-1.85-1.148-.31-.238-.627-.484-.969-.713-.418-.278-.768-.411-1.102-.411-.446 0-.884.245-1.411.793-.716.738-1.858 2.414-2.317 3.103-.032.04-.068.089-.128.089-.113 0-.117-.145-.117-.194-.024-1.918-.322-12.398-.53-15.525-.093-1.386-.524-2.244-1.123-2.244-.478 0-1.198.64-1.653 2.446-1.146 4.593-3.595 14.808-4.644 19.997-.033.141-.19.141-.222 0-.116-.531-.22-1.132-.321-1.64-.314-1.6-.587-2.981-1.122-3.743-.611-.866-1.516-.919-2.61-.19a7.379 7.379 0 00-.72.577c-.704.604-1.5 1.293-2.82 1.293H13.938l-.318 1.717h13.589c1.387 0 2.678-.802 3.446-1.354.39-.282.66-.443.877-.443.297 0 .434.306.543.761.056.222.12.532.197.89.257 1.185.643 3.051 1.134 4.296.23.576.567.899.957.899.595 0 1.198-.706 1.54-1.793.459-1.451 3.205-13.378 4.364-18.374.048-.206.072-.318.076-.33.02-.09.08-.146.149-.146.06 0 .128.053.128.166v.02c.089 5.053.338 13.93.716 14.844.21.503.527.77.921.77.459 0 1.005-.371 1.395-.94.198-.285.447-.66.716-1.055.656-.975 1.4-2.083 1.617-2.317.33-.35.704-.35 1.239.016.08.053.172.121.281.198.571.415 1.524.987 2.594 1.28.708.194 1.625.239 2.264.239.414 0 .853-.017.981-.025l.294-1.587c-.153-.004-.571.008-.957.008zM11.206 19.84c1.187 0 2.096.25 2.723.746.627.495.941 1.193.941 2.087 0 .609-.109 1.132-.326 1.568-.217.439-.527.797-.929 1.08-.402.285-.88.49-1.435.624a7.933 7.933 0 01-1.838.197H8.717l-.732 4.288s-1.878.124-1.632-1.266c.245-1.39 1.62-9.328 1.62-9.328h3.233v.005zm-.808 4.723c.374 0 .724-.028 1.042-.085.321-.056.59-.149.812-.282.225-.129.398-.302.523-.516.128-.213.189-.48.189-.805 0-.287-.049-.52-.153-.71a1.1 1.1 0 00-.426-.443 2.101 2.101 0 00-.652-.23 4.882 4.882 0 00-.836-.068H9.529l-.563 3.139h1.432zM27.397 9.852c.253-.427.55-.77.897-1.028.345-.258.76-.39 1.246-.39.069 0 .149.003.23.007.08.004.152.02.213.037l-.242 1.66a1.62 1.62 0 00-.297-.06c-.085-.009-.17-.017-.25-.017-.414 0-.756.077-1.017.23a2.155 2.155 0 00-.99 1.2 3.603 3.603 0 00-.136.537l-.684 3.916H24.59l1.017-5.742c.04-.193.085-.443.129-.75.044-.301.08-.58.1-.821 0 0 1.537-.198 1.537 1.217h.024v.004zM18.634 16.101c1.44 0 2.208-.636 2.678-1.362l-.024.11c-.137.68.43 1.1.965 1.1h.463l1.287-7.326H22.41l-.213 1.116c-.285-.576-1.098-1.27-2.409-1.27-2.312 0-3.683 1.91-3.913 3.945-.265 2.33 1.235 3.687 2.759 3.687zm1.38-6.435c2.666.15 1.797 5.255-.913 5.106-2.45-.141-1.685-5.25.912-5.106z" fill="#fff"/><path d="M25.237 22.866h-.49s-.724 4.158-.805 4.63c-.177 1.02-.663 1.712-2.043 1.712-.78 0-1.544-.475-1.367-1.535.069-.41.591-3.433.631-3.675.145-.818-.546-1.136-1.122-1.136h-.434c-.104.633-.583 3.288-.764 4.332-.072.419-.1.842-.068 1.12.16 1.41 1.4 2.272 2.927 2.272 2.642 0 3.636-1.382 3.953-3.026.105-.54.604-3.284.644-3.562.117-.814-.555-1.132-1.062-1.132zM30.308 23.817c1.026 0 1.323.31 1.69.484.076-.133.49-.923.615-1.148-.165-.133-.885-.524-2.14-.524h-.024c-2.087 0-3.088 1.366-3.088 2.413 0 2.164 3.004 1.83 3.004 3.155 0 .657-.672 1.1-1.577 1.1-.776 0-1.4-.367-1.85-.657-.076.145-.486.89-.623 1.116.334.234 1.154.766 2.57.766 1.81 0 3.205-1.184 3.205-2.502 0-2.236-3.044-2.003-3.044-3.256 0-.495.579-.947 1.262-.947zM17.25 19.94h-.426L14.93 30.454h1.718l1.684-9.356c.113-.66-.402-1.156-1.081-1.156zM37.478 12.495h-6.032c-.02.66.161 1.205.551 1.632.386.427.937.64 1.661.64.72 0 1.524-.153 2.409-.459l.213 1.237a7.627 7.627 0 01-2.803.552c-1.086 0-1.946-.326-2.573-.975-.612-.62-.917-1.418-.917-2.397 0-1.233.426-2.313 1.27-3.244.849-.93 1.882-1.398 3.1-1.398.986 0 1.762.322 2.333.97.567.65.853 1.504.853 2.576a8.09 8.09 0 01-.065.866zm-1.419-1.209a1.902 1.902 0 00-.487-1.265c-.358-.399-.824-.592-1.4-.592-.59 0-1.117.197-1.584.592a2.689 2.689 0 00-.852 1.265h4.323zM11.363 14.606c-4.508.286-3.559-7.49.455-7.744 1.13-.073 2.24.46 2.702 1.176l1.673-1.092c-.877-1.091-2.232-1.692-3.865-1.692-3.41 0-6.164 3.058-5.996 6.375.161 3.235 2.071 4.593 4.63 4.593 2.002 0 3.43-.73 4.41-1.7l-1.765-.875c-.514.444-1.484.91-2.244.96z" fill="#fff"/></svg>