<svg width="24" height="32" fill="none" xmlns="http://www.w3.org/2000/svg"><path d="M12 0C5.383 0 0 5.394 0 12.022c0 9.926 11.2 19.458 11.678 19.86a.497.497 0 00.64.003c.477-.394 11.681-9.762 11.681-19.863C24 5.394 18.617 0 12 0zm.002 30.837C10.16 29.192 1 20.578 1 12.022 1 5.944 5.935 1 12 1s11 4.944 11 11.022c0 8.702-9.152 17.192-10.998 18.815z" fill="#fff"/><path d="M12 6c-3.31 0-6 2.69-6 6 0 3.309 2.69 6 6 6 3.309 0 6-2.691 6-6 0-3.31-2.691-6-6-6zm0 11c-2.757 0-5-2.243-5-5s2.243-5 5-5 5 2.243 5 5-2.243 5-5 5z" fill="#fff"/></svg>