<svg width="121" height="36" fill="none" xmlns="http://www.w3.org/2000/svg"><path d="M116.44 35.495H4.56c-2.28 0-4.115-1.854-4.115-4.156V4.604C.445 2.303 2.28.45 4.56.45h111.88c2.28 0 4.115 1.854 4.115 4.156v26.79c0 2.246-1.835 4.1-4.115 4.1z" fill="#000"/><path d="M116.44 36H4.56C2.057 36 0 33.922 0 31.395V4.605C0 2.078 2.057 0 4.56 0h111.88c2.503 0 4.56 2.078 4.56 4.605v26.79c0 2.527-2.057 4.605-4.56 4.605zM4.56.899C2.558.899.89 2.527.89 4.605v26.79c0 2.021 1.612 3.706 3.67 3.706h111.88c2.002 0 3.67-1.628 3.67-3.706V4.605c0-2.022-1.612-3.706-3.67-3.706H4.56z" fill="#A7A9AC"/><path d="M27.025 17.636c0-2.92 2.39-4.324 2.502-4.437-1.334-2.021-3.448-2.246-4.226-2.302-1.78-.169-3.503 1.067-4.393 1.067-.945 0-2.28-1.067-3.781-1.011-1.946.056-3.726 1.18-4.727 2.92-2.057 3.539-.5 8.818 1.446 11.682 1.001 1.404 2.113 2.977 3.614 2.92 1.446-.056 2.002-.954 3.726-.954 1.724 0 2.28.954 3.781.898 1.557 0 2.558-1.404 3.504-2.864 1.112-1.629 1.557-3.201 1.612-3.314-.055.057-3.058-1.123-3.058-4.605zM24.133 9.043c.779-1.011 1.335-2.36 1.168-3.707-1.112.056-2.558.786-3.392 1.741-.723.842-1.39 2.246-1.223 3.594 1.334.113 2.613-.674 3.447-1.628zM48.1 28.25h-2.058L44.93 24.71h-3.892l-1.001 3.538h-2.002l3.837-12.018h2.39L48.1 28.248zm-3.504-5.055l-1-3.146a27.662 27.662 0 0 1-.612-2.246h-.056c-.11.505-.333 1.292-.556 2.246l-1 3.146h3.224zM57.998 23.813c0 1.46-.39 2.64-1.168 3.482-.723.787-1.613 1.124-2.613 1.124-1.113 0-1.947-.393-2.447-1.236h-.056v4.55h-1.89v-9.324c0-.954 0-1.853-.056-2.864h1.668l.111 1.348h.056c.612-1.011 1.613-1.573 2.892-1.573 1 0 1.835.393 2.557 1.236.556.842.946 1.91.946 3.257zm-1.947.056c0-.842-.166-1.516-.556-2.078-.389-.561-.945-.842-1.668-.842-.445 0-.89.168-1.279.45-.389.336-.611.73-.778 1.235-.056.224-.111.45-.111.561v1.46c0 .618.166 1.18.556 1.573.389.45.89.674 1.501.674.723 0 1.279-.28 1.668-.842.445-.562.667-1.292.667-2.19zM67.84 23.813c0 1.46-.39 2.64-1.168 3.482-.723.787-1.557 1.124-2.613 1.124-1.112 0-1.947-.393-2.447-1.236h-.056v4.55h-1.89v-9.324c0-.954 0-1.853-.056-2.864h1.668l.112 1.348h.055c.612-1.011 1.613-1.573 2.892-1.573 1 0 1.835.393 2.558 1.236.611.842.945 1.91.945 3.257zm-1.946.056c0-.842-.167-1.516-.556-2.078-.39-.561-.946-.842-1.668-.842-.445 0-.89.168-1.28.45-.389.336-.611.73-.722 1.235-.056.224-.111.45-.111.561v1.46c0 .618.166 1.18.555 1.573.39.45.89.674 1.502.674.723 0 1.279-.28 1.668-.842.445-.562.612-1.292.612-2.19zM78.906 24.88c0 1.011-.334 1.854-1.057 2.528-.778.73-1.835 1.067-3.225 1.067-1.279 0-2.335-.225-3.114-.73l.445-1.629c.834.506 1.78.786 2.78.786.723 0 1.28-.168 1.668-.505.39-.337.612-.786.612-1.292a1.66 1.66 0 0 0-.5-1.236c-.334-.336-.89-.617-1.668-.954-2.113-.787-3.114-1.966-3.114-3.426 0-1.011.389-1.797 1.112-2.415.723-.618 1.724-.955 2.891-.955 1.112 0 2.002.169 2.725.562l-.5 1.572c-.668-.393-1.446-.561-2.28-.561-.668 0-1.224.168-1.557.505-.334.281-.5.674-.5 1.067 0 .45.166.843.555 1.18.334.28.89.617 1.724.954 1.001.393 1.78.899 2.28 1.46.5.45.723 1.18.723 2.023zM85.245 21.005h-2.113v4.212c0 1.067.39 1.628 1.112 1.628.334 0 .612-.056.834-.112l.056 1.46c-.39.169-.89.225-1.502.225-.778 0-1.334-.225-1.78-.674-.444-.45-.61-1.236-.61-2.359v-4.38h-1.28v-1.46h1.28v-1.573l1.89-.562v2.134h2.113v1.46zM94.754 23.814c0 1.348-.39 2.415-1.113 3.313-.778.899-1.835 1.348-3.17 1.348-1.278 0-2.279-.45-3.002-1.292-.723-.842-1.112-1.909-1.112-3.2 0-1.349.39-2.472 1.168-3.314.778-.843 1.835-1.292 3.114-1.292s2.28.45 3.058 1.292c.667.786 1.057 1.853 1.057 3.145zm-2.002.056c0-.786-.167-1.46-.5-2.078-.39-.674-.946-1.067-1.724-1.067-.779 0-1.335.337-1.724 1.067-.334.562-.5 1.292-.5 2.078 0 .786.166 1.46.5 2.078.389.674 1 1.01 1.724 1.01.722 0 1.278-.336 1.723-1.066.334-.506.5-1.18.5-2.022zM100.926 21.23c-.167-.055-.389-.055-.612-.055-.667 0-1.167.28-1.557.786-.333.45-.5 1.01-.5 1.74v4.55h-1.89v-5.953c0-1.011 0-1.91-.056-2.752h1.668l.055 1.685h.056c.222-.562.5-1.011.945-1.348.445-.337.89-.45 1.391-.45.166 0 .333 0 .5.057v1.74zM109.489 23.477c0 .337 0 .618-.055.899h-5.728c0 .842.278 1.516.834 1.966.501.393 1.113.617 1.891.617.834 0 1.613-.112 2.336-.393l.278 1.348a7.593 7.593 0 0 1-2.892.562c-1.335 0-2.391-.393-3.114-1.18-.778-.786-1.168-1.853-1.168-3.2 0-1.293.334-2.416 1.057-3.258.723-.955 1.724-1.404 3.003-1.404 1.223 0 2.168.449 2.836 1.404.444.674.722 1.572.722 2.64zm-1.835-.505c0-.562-.111-1.067-.389-1.46-.333-.562-.834-.787-1.501-.787-.612 0-1.112.281-1.502.787-.333.393-.5.898-.556 1.516h3.948v-.056zM37.432 10.5h1.71c1.344 0 2.25-.864 2.25-2.1 0-1.236-.906-2.1-2.25-2.1h-1.71v4.2zm.444-.384V6.684h1.242c1.116 0 1.836.708 1.836 1.716s-.72 1.716-1.836 1.716h-1.242zm4.64-3.462a.303.303 0 1 0 0-.606.307.307 0 0 0-.313.3c0 .168.138.306.312.306zm-.217 3.846h.426V7.344H42.3V10.5zm2.458.03c.822 0 1.302-.354 1.302-.9 0-1.212-2.046-.57-2.046-1.422 0-.3.252-.522.822-.522.323 0 .654.078.93.27l.185-.342c-.264-.18-.708-.294-1.116-.294-.803 0-1.248.384-1.248.9 0 1.248 2.047.6 2.047 1.422 0 .312-.247.516-.847.516-.444 0-.87-.156-1.122-.354l-.192.336c.258.222.762.39 1.285.39zm3.715-3.21c-.522 0-.96.228-1.218.648v-.624h-.408v4.32h.426V9.906c.264.408.696.624 1.2.624.9 0 1.572-.648 1.572-1.608 0-.954-.672-1.602-1.572-1.602zm-.03 2.832c-.672 0-1.176-.492-1.176-1.23 0-.732.504-1.23 1.176-1.23.666 0 1.176.498 1.176 1.23 0 .738-.51 1.23-1.176 1.23zm3.76.378c.925 0 1.602-.672 1.602-1.608s-.678-1.602-1.602-1.602c-.923 0-1.608.666-1.608 1.602s.684 1.608 1.608 1.608zm0-.378c-.671 0-1.175-.492-1.175-1.23s.504-1.23 1.175-1.23c.672 0 1.17.492 1.17 1.23s-.498 1.23-1.17 1.23zm4.08-2.832c-.546 0-.972.222-1.2.606v-.582h-.408V10.5h.426V8.844c0-.72.426-1.14 1.104-1.14.6 0 .948.342.948 1.008V10.5h.426V8.67c0-.906-.528-1.35-1.296-1.35zm2.279-.462h.42l.972-.744h-.57l-.822.744zm.174 3.642h.426V7.344h-.426V10.5zm3.843-3.156l-1.194 2.688-1.182-2.688h-.444l1.398 3.156h.438l1.404-3.156h-.42zm3.686 1.578c0-.948-.642-1.602-1.53-1.602s-1.542.666-1.542 1.602.672 1.608 1.656 1.608c.498 0 .936-.18 1.218-.516l-.24-.276c-.24.276-.582.414-.966.414-.69 0-1.194-.438-1.242-1.098h2.64c0-.048.006-.096.006-.132zm-1.53-1.236c.618 0 1.068.432 1.122 1.05h-2.238c.054-.618.504-1.05 1.116-1.05zm2.397 2.814h.426V6.048h-.426V10.5zm4.79-3.18c-.546 0-.972.222-1.2.606v-.582h-.408V10.5h.426V8.844c0-.72.426-1.14 1.104-1.14.6 0 .948.342.948 1.008V10.5h.426V8.67c0-.906-.528-1.35-1.296-1.35zm3.556 0c-.498 0-.966.156-1.284.426l.192.318c.258-.228.642-.372 1.05-.372.588 0 .894.294.894.834v.192h-1.002c-.906 0-1.218.408-1.218.894 0 .546.438.918 1.152.918.522 0 .894-.198 1.086-.522v.492h.408V8.544c0-.816-.462-1.224-1.278-1.224zm-.15 2.874c-.504 0-.798-.228-.798-.594 0-.324.198-.564.81-.564h.99v.516c-.168.414-.522.642-1.002.642z" fill="#fff"/></svg>