<svg width="24" height="23" viewBox="0 0 24 23" fill="none" xmlns="http://www.w3.org/2000/svg">
<path d="M11.8501 5.59082C8.4909 5.59082 5.77136 8.23291 5.77136 11.49C5.77136 14.75 8.49386 17.3892 11.8501 17.3892C15.2093 17.3892 17.9288 14.7471 17.9288 11.49C17.9288 8.23003 15.2063 5.59082 11.8501 5.59082ZM11.8501 15.319C9.66953 15.319 7.90454 13.6052 7.90454 11.49C7.90454 9.37481 9.67051 7.661 11.8501 7.661C14.0297 7.661 15.7956 9.37481 15.7956 11.49C15.7966 13.6052 14.0307 15.319 11.8501 15.319Z" fill="#0079C8"/>
<path d="M16.7301 0.0722191C14.5505 -0.0264531 9.15188 -0.0216632 6.97033 0.0722191C5.05333 0.159395 3.36238 0.608689 1.99916 1.93166C-0.279133 4.14269 0.0120699 7.12201 0.0120699 11.4914C0.0120699 15.9632 -0.244583 18.8736 1.99916 21.0511C4.28633 23.2698 7.40071 22.9795 11.8497 22.9795C16.4142 22.9795 17.9896 22.9824 19.6036 22.376C21.798 21.5492 23.4544 19.6457 23.6163 16.2267C23.7189 14.1105 23.713 8.87225 23.6163 6.7551C23.4208 2.71912 21.1889 0.271479 16.7301 0.0722191ZM20.1801 19.5882C18.6865 21.0377 16.6146 20.9083 11.8211 20.9083C6.88544 20.9083 4.90625 20.9792 3.46208 19.5739C1.79877 17.9673 2.09984 15.3875 2.09984 11.476C2.09984 6.18319 1.54014 2.37138 7.01376 2.09931C8.27136 2.0562 8.64153 2.04183 11.8073 2.04183L11.8517 2.07057C17.1121 2.07057 21.2392 1.53602 21.487 6.84707C21.5433 8.05892 21.5561 8.42295 21.5561 11.4904C21.5551 16.2248 21.6479 18.157 20.1801 19.5882Z" fill="#0079C8"/>
<path d="M18.1697 6.7375C18.9543 6.7375 19.5902 6.12031 19.5902 5.35898C19.5902 4.59765 18.9543 3.98047 18.1697 3.98047C17.3852 3.98047 16.7493 4.59765 16.7493 5.35898C16.7493 6.12031 17.3852 6.7375 18.1697 6.7375Z" fill="#0079C8"/>
</svg>
