<svg xmlns="http://www.w3.org/2000/svg" viewBox="0 0 143.74 179.69"><defs><style>.cls-1{fill:none;stroke:#fff;stroke-miterlimit:10;stroke-width:2px;}.cls-2{fill:#fff;}</style></defs><title>Logo Care Plus-branco</title><g id="Camada_2" data-name="Camada 2"><g id="Layer_1" data-name="Layer 1"><rect class="cls-1" x="1" y="1" width="141.74" height="141.73"/><path class="cls-2" d="M9.36,156.48A7.37,7.37,0,0,1,14,157.76a4.28,4.28,0,0,1,1.62,3.57,6,6,0,0,1-.56,2.68,5,5,0,0,1-1.59,1.85A7.07,7.07,0,0,1,11,166.93a14.08,14.08,0,0,1-3.15.34H5.09l-1.26,7.32s-3.21.22-2.79-2.16,2.77-16,2.77-16ZM8,164.56a9.85,9.85,0,0,0,1.78-.15,3.91,3.91,0,0,0,1.4-.48,2.53,2.53,0,0,0,.9-.88,2.76,2.76,0,0,0,.32-1.38,2.44,2.44,0,0,0-.26-1.21,1.79,1.79,0,0,0-.73-.76,3.43,3.43,0,0,0-1.12-.39,7.87,7.87,0,0,0-1.43-.12H6.5l-1,5.37Z"/><path class="cls-2" d="M35.26,164.18a5.88,5.88,0,0,1,1.53-1.76,3.5,3.5,0,0,1,2.14-.67l.39,0a1.91,1.91,0,0,1,.37.06l-.42,2.84a2.85,2.85,0,0,0-.51-.1l-.43,0a3.45,3.45,0,0,0-1.74.39,3.51,3.51,0,0,0-1.1.94,3.6,3.6,0,0,0-.6,1.12,6,6,0,0,0-.23.91l-1.17,6.7H30.44l1.75-9.82c.06-.33.14-.76.22-1.28s.13-1,.17-1.41c0,0,2.62-.34,2.62,2.09Z"/><path class="cls-2" d="M60.12,174.93a7.21,7.21,0,0,1-2.41-.39,5.51,5.51,0,0,1-1.91-1.12,5.09,5.09,0,0,1-1.72-3.93,8.05,8.05,0,0,1,.53-2.93,7.38,7.38,0,0,1,7-4.81,7.3,7.3,0,0,1,2.44.39A5.92,5.92,0,0,1,66,163.25,5,5,0,0,1,67.24,165a5.16,5.16,0,0,1,.46,2.2,8.45,8.45,0,0,1-.53,3,7.6,7.6,0,0,1-1.53,2.48,7.35,7.35,0,0,1-2.39,1.69,7.74,7.74,0,0,1-3.13.62m4.51-7.44a3.26,3.26,0,0,0-.86-2.32,3.08,3.08,0,0,0-2.35-.91,3.85,3.85,0,0,0-1.78.4,4.34,4.34,0,0,0-1.36,1.08,5.33,5.33,0,0,0-.87,1.57,5.58,5.58,0,0,0-.31,1.88,3.36,3.36,0,0,0,.83,2.33,3,3,0,0,0,2.35.91A4,4,0,0,0,63.44,171a4.94,4.94,0,0,0,.87-1.58,5.7,5.7,0,0,0,.32-1.9"/><path class="cls-2" d="M78.56,157.38a4.27,4.27,0,0,0-.48-.13,2.65,2.65,0,0,0-.59-.05,2,2,0,0,0-1.07.26,2.2,2.2,0,0,0-.72.67,4,4,0,0,0-.44.93,8.17,8.17,0,0,0-.25,1l-.36,2.06h2.94a3.09,3.09,0,0,1-3.33,2.45s-1.07,6-1.42,8.05c-.4,2.34-3.32,2-3.32,2l1.77-10.06H68.92l.42-2.45h2.31l.37-1.9a11.44,11.44,0,0,1,.56-2,6.19,6.19,0,0,1,1-1.8,5,5,0,0,1,1.65-1.28,5.46,5.46,0,0,1,2.4-.48,5.66,5.66,0,0,1,1.54.18Z"/><path class="cls-2" d="M20.17,174.87a5,5,0,0,0,4.59-2.34l0,.19a1.58,1.58,0,0,0,1.65,1.88h.79l2.2-12.52H26.63L26.27,164a4.48,4.48,0,0,0-4.12-2.17c-4,0-6.32,3.27-6.71,6.74-.45,4,2.12,6.31,4.73,6.31m2.37-11c4.57.26,3.08,9-1.56,8.73-4.2-.24-2.9-9,1.56-8.73"/><path class="cls-2" d="M45.93,164.73h2.82l.45-2.53H46.37l.27-1.77c.17-1.28-.69-1.93-2-1.93h-.68l-.63,3.7H41.11l-.44,2.53h2.21l-1,5.68c-.05.25-.09.51-.12.8s0,.56,0,.8a2.78,2.78,0,0,0,.81,2.12,3.86,3.86,0,0,0,2.84.8,6,6,0,0,0,1.93-.34l.18-2.35a4.21,4.21,0,0,1-1.18.16,2.08,2.08,0,0,1-1.1-.26,1,1,0,0,1-.41-.94,3.88,3.88,0,0,1,.08-.73Z"/><path class="cls-2" d="M133.25,174.86a5.19,5.19,0,0,0,4.73-2.41l0,.19a1.63,1.63,0,0,0,1.7,1.94h.82l2.27-12.93h-2.81l-.38,2a4.62,4.62,0,0,0-4.26-2.24c-4.09,0-6.52,3.37-6.93,7-.46,4.11,2.19,6.51,4.9,6.51m2.44-11.37c4.71.26,3.18,9.28-1.62,9-4.33-.24-3-9.27,1.62-9"/><path class="cls-2" d="M96.87,160.78c0-2.93-1.88-4.29-5.18-4.29H85.31l-3.22,18.1h5.84a19.7,19.7,0,0,0,3.33-.19,5.92,5.92,0,0,0,4.88-4.83,3.76,3.76,0,0,0-2.9-4.41,4.61,4.61,0,0,0,3.63-4.37M90,172.36a10.07,10.07,0,0,1-2.18.14H85.71l1.07-6.07h3.16c4.16,0,3.78,5,.07,5.93m1.24-8.25a6.48,6.48,0,0,1-1.91.17H87.17l1-5.79H91c3.42,0,3.15,4.65.21,5.62"/><path class="cls-2" d="M109.3,161.66h-.84l-1.38,7.92a3.1,3.1,0,0,1-3.5,2.93,2.15,2.15,0,0,1-2.34-2.62c.12-.71,1-5.87,1.09-6.29.25-1.39-.94-1.94-1.93-1.94h-.74c-.18,1.08-1,5.63-1.31,7.41a7.38,7.38,0,0,0-.12,1.91c.28,2.41,2.4,3.89,5,3.89,4.53,0,6.23-2.37,6.77-5.18.18-.93,1-5.61,1.1-6.09a1.68,1.68,0,0,0-1.82-1.94"/><path class="cls-2" d="M114,179.69l1.31-7.14a4.71,4.71,0,0,0,4.28,2.32c4.18,0,6.77-3.26,7-7.08.28-4.06-2.1-6.39-4.87-6.39a5.74,5.74,0,0,0-4.86,2.38l0-.18a1.62,1.62,0,0,0-1.7-1.94h-.89s-2.44,13.92-2.77,15.6a1.85,1.85,0,0,0,1.71,2.43Zm6.8-16c4.34.24,3,9.29-1.61,9s-3.18-9.31,1.61-9"/><path class="cls-2" d="M129.51,84.22a19.76,19.76,0,0,1-5.41-.57,16.82,16.82,0,0,1-4.61-2.85c-.76-.58-1.55-1.19-2.41-1.76a5,5,0,0,0-2.73-1c-1.12,0-2.2.61-3.52,2a68.55,68.55,0,0,0-5.75,7.7c-.08.1-.17.22-.32.22s-.28-.36-.28-.48c-.06-4.77-.81-30.77-1.33-38.53-.23-3.44-1.29-5.57-2.78-5.57-1.2,0-3,1.59-4.11,6.07C93.41,60.8,87.33,86.15,84.71,99c-.08.36-.47.35-.55,0-.29-1.32-.55-2.81-.79-4.07-.78-4-1.46-7.4-2.79-9.28-1.53-2.15-3.77-2.29-6.5-.48a18.36,18.36,0,0,0-1.79,1.43c-1.75,1.5-3.73,3.21-7,3.21H33.17l-.79,4.26H66.17c3.45,0,6.66-2,8.57-3.36a4.48,4.48,0,0,1,2.18-1.1c.74,0,1.07.75,1.35,1.89.13.55.3,1.32.49,2.2a77.28,77.28,0,0,0,2.82,10.66c.57,1.43,1.41,2.23,2.38,2.23,1.47,0,3-1.75,3.83-4.45,1.14-3.6,8-33.2,10.85-45.6.12-.51.19-.8.19-.82a.42.42,0,0,1,.37-.36c.15,0,.32.13.32.41v.05c.22,12.54.84,34.57,1.77,36.83.52,1.25,1.31,1.91,2.29,1.91a4.77,4.77,0,0,0,3.48-2.33c.49-.71,1.11-1.64,1.77-2.62,1.63-2.43,3.48-5.17,4-5.76.81-.86,1.75-.86,3.07,0,.2.13.43.3.7.49a21,21,0,0,0,6.45,3.18,23.3,23.3,0,0,0,5.63.59c1,0,2.13,0,2.44-.06l.73-4c-.38,0-1.42,0-2.38,0"/><path class="cls-2" d="M26.38,50.24c2.95,0,5.2.61,6.77,1.85a6.22,6.22,0,0,1,2.34,5.18,8.63,8.63,0,0,1-.81,3.89,7.12,7.12,0,0,1-2.31,2.68A10.11,10.11,0,0,1,28.8,65.4a20.36,20.36,0,0,1-4.58.49h-4L18.36,76.53s-4.67.31-4.06-3.14,4-23.15,4-23.15ZM24.37,62A14.85,14.85,0,0,0,27,61.75a6,6,0,0,0,2-.7,3.65,3.65,0,0,0,1.3-1.29,3.8,3.8,0,0,0,.47-2A3.7,3.7,0,0,0,30.39,56a2.87,2.87,0,0,0-1.06-1.1,5,5,0,0,0-1.63-.56,11.15,11.15,0,0,0-2.08-.17h-3.4L20.82,62Z"/><path class="cls-2" d="M66.64,25.45a8.62,8.62,0,0,1,2.23-2.56,5,5,0,0,1,3.1-1l.56,0a2,2,0,0,1,.53.09l-.6,4.12a6.94,6.94,0,0,0-.74-.15l-.62,0a5,5,0,0,0-2.54.56A5.28,5.28,0,0,0,67,27.9a5.07,5.07,0,0,0-.87,1.63,8.58,8.58,0,0,0-.34,1.32l-1.71,9.72H59.64l2.54-14.25c.09-.48.2-1.1.32-1.86s.19-1.43.24-2c0,0,3.82-.49,3.82,3Z"/><path class="cls-2" d="M44.85,41a7.28,7.28,0,0,0,6.66-3.38l-.06.27a2.3,2.3,0,0,0,2.39,2.73H55l3.2-18.18h-4l-.53,2.78a6.49,6.49,0,0,0-6-3.15C42,22,38.55,26.77,38,31.81,37.33,37.59,41.06,41,44.85,41m3.43-16c6.64.37,4.48,13-2.26,12.66-6.1-.34-4.2-13,2.26-12.66"/><path class="cls-2" d="M61.27,57.75H60.05s-1.8,10.32-2,11.5c-.44,2.52-1.66,4.25-5.08,4.25-1.95,0-3.84-1.18-3.4-3.81.17-1,1.47-8.51,1.57-9.12.37-2-1.36-2.82-2.79-2.82H47.27c-.26,1.57-1.45,8.17-1.9,10.75a10.82,10.82,0,0,0-.17,2.78c.41,3.5,3.48,5.64,7.29,5.64,6.57,0,9-3.43,9.82-7.51.26-1.35,1.5-8.15,1.6-8.84a2.44,2.44,0,0,0-2.64-2.82"/><path class="cls-2" d="M73.88,60.11a7,7,0,0,1,4.19,1.2C78.26,61,79.3,59,79.6,58.46a9.24,9.24,0,0,0-5.32-1.31h0c-5.19,0-7.69,3.39-7.69,6C66.54,68.52,74,67.68,74,71c0,1.64-1.67,2.73-3.92,2.73a8.49,8.49,0,0,1-4.6-1.63c-.19.36-1.21,2.21-1.55,2.77a10.65,10.65,0,0,0,6.39,1.91c4.5,0,8-2.94,8-6.22,0-5.55-7.57-5-7.57-8.07C70.74,61.23,72.18,60.11,73.88,60.11Z"/><path class="cls-2" d="M41.41,50.49H40.34L35.63,76.58H39.9l4.18-23.22A2.47,2.47,0,0,0,41.41,50.49Z"/><path class="cls-2" d="M91.71,32h-15a5.53,5.53,0,0,0,1.36,4.05,5.28,5.28,0,0,0,4.13,1.59,18.45,18.45,0,0,0,6-1.13l.53,3.06a19,19,0,0,1-7,1.37,8.48,8.48,0,0,1-6.4-2.43,8.14,8.14,0,0,1-2.28-5.94,11.57,11.57,0,0,1,3.17-8,10.06,10.06,0,0,1,7.71-3.47,7.33,7.33,0,0,1,5.8,2.41,9.3,9.3,0,0,1,2.11,6.38A15.87,15.87,0,0,1,91.71,32Zm-3.53-3A4.71,4.71,0,0,0,87,25.87a4.45,4.45,0,0,0-3.49-1.47,5.86,5.86,0,0,0-3.93,1.47A6.7,6.7,0,0,0,77.42,29Z"/><path class="cls-2" d="M26.77,37.25C15.56,38,17.92,18.66,27.9,18A7.7,7.7,0,0,1,34.62,21l4.16-2.71A11.92,11.92,0,0,0,29.17,14c-8.48,0-15.32,7.59-14.91,15.82.41,8,5.15,11.4,11.51,11.4a15.07,15.07,0,0,0,11-4.21l-4.39-2.18A11,11,0,0,1,26.77,37.25Z"/></g></g></svg>