<svg width="512" height="512" viewBox="0 0 512 512" fill="none" xmlns="http://www.w3.org/2000/svg">
<g clip-path="url(#clip0)">
<path d="M-3.8147e-06 165.293H113.293V52H-3.8147e-06V165.293ZM30.0039 82.0039H83.293V135.293H30.0039V82.0039Z" fill="white"/>
<path d="M149.297 52V165.293H512V52H149.297ZM481.996 135.293H179.301V82.0039H481.996V135.293Z" fill="white"/>
<path d="M-3.8147e-06 312.301H113.293V199.008H-3.8147e-06V312.301ZM30.0039 229.008H83.293V282.297H30.0039V229.008Z" fill="white"/>
<path d="M149.297 312.301H512V199.008H149.297V312.301ZM179.301 229.008H481.996V282.297H179.301V229.008Z" fill="white"/>
<path d="M-3.8147e-06 459.309H113.293V346.012H-3.8147e-06V459.309ZM30.0039 376.016H83.293V429.305H30.0039V376.016Z" fill="white"/>
<path d="M149.297 459.309H512V346.012H149.297V459.309ZM179.301 376.016H481.996V429.305H179.301V376.016Z" fill="white"/>
</g>
<defs>
<clipPath id="clip0">
<rect width="512" height="512" fill="white"/>
</clipPath>
</defs>
</svg>
