<?xml version="1.0" encoding="UTF-8"?><svg id="Camada_1" xmlns="http://www.w3.org/2000/svg" viewBox="0 0 119.47 145.4"><defs><style>.cls-1{fill:#fff;}.cls-2{fill:#0079c8;}</style></defs><path class="cls-2" d="m109.68,73.02l-5.32,11.04c-.3.61-.92,1.02-1.65,1.02-.96,0-1.75-.74-1.83-1.69l-3.31-37.55-7.08,30.99c-.15.63-.68,1.1-1.33,1.19-.64.08-1.27-.24-1.58-.81l-3.46-6.37c-1.71,2.25-5.02,5.4-10.89,5.4h-28.14l.38-3.14h27.75c5.89,0,8.41-4.06,9.35-5.59.29-.48.47-.76.82-1,.37-.24.82-.32,1.25-.21.43.11.79.39,1,.78l2.74,5.06,7.65-32.96c.23-.95,1.11-1.6,2.1-1.53.98.07,1.77.83,1.87,1.81l3.57,39.47,4.63-9.9c.23-.44.65-.74,1.14-.82.49-.08.99.08,1.34.42.3.29.5.67.8,1.25.59,1.13,1.68,3.23,3.1,3.23h1.83V3.04H3.04v113.38h113.38v-40.19h-1.83c-2.37,0-3.92-1.68-4.92-3.22Z"/><path class="cls-1" d="m3.86,129.35h5.15c3.06,0,4.75,1.73,4.43,4.37v.04c-.36,2.93-2.9,4.46-5.78,4.46h-2.59l-.51,4.2h-2.29l1.6-13.06Zm4.13,6.79c1.74,0,2.94-.97,3.1-2.33v-.04c.19-1.53-.81-2.33-2.53-2.33h-2.67l-.58,4.7h2.67Zm6.1,1.36v-.04c.41-3.27,2.85-5.11,5.2-5.11,1.62,0,2.55.8,3.15,1.74l.19-1.53h2.26l-1.21,9.85h-2.26l.2-1.64c-.85,1.03-1.98,1.85-3.59,1.85-2.31,0-4.35-1.85-3.94-5.11Zm7.97,0v-.04c.24-1.9-.95-3.15-2.46-3.15s-2.98,1.19-3.22,3.15v.04c-.24,1.9.91,3.15,2.44,3.15s3.01-1.27,3.24-3.15Zm5.2-4.94h2.26l-.27,2.22c.8-1.47,2.06-2.48,3.79-2.41l-.29,2.39h-.13c-1.98,0-3.52,1.29-3.84,3.9l-.46,3.75h-2.26l1.21-9.85Zm6.83,7.13l.64-5.19h-1.25l.24-1.94h1.25l.33-2.71h2.26l-.33,2.71h2.65l-.24,1.94h-2.65l-.59,4.83c-.11.88.3,1.23,1.06,1.23.5,0,.97-.11,1.44-.33l-.23,1.85c-.6.32-1.24.5-2.1.5-1.66,0-2.75-.73-2.48-2.89Zm11.59-2.15v-.04c.35-2.82,2.88-5.15,5.9-5.15s4.96,2.3,4.62,5.11v.04c-.35,2.8-2.87,5.13-5.92,5.13s-4.94-2.29-4.6-5.09Zm8.25,0v-.04c.22-1.74-.86-3.17-2.63-3.17s-3.14,1.42-3.35,3.13v.04c-.21,1.72.86,3.15,2.61,3.15s3.16-1.42,3.37-3.12Zm4.96-3.04h-1.25l.23-1.88h1.25l.09-.73c.13-1.08.51-1.9,1.1-2.43.59-.52,1.35-.78,2.32-.78.78,0,1.31.11,1.8.26l-.23,1.9c-.43-.15-.81-.24-1.29-.24-.86,0-1.36.47-1.49,1.49l-.07.54h2.61l-.23,1.87h-2.58l-.97,7.91h-2.26l.97-7.91Zm12.07-5.15h5.86c1.49,0,2.62.41,3.27,1.16.51.58.72,1.29.61,2.17v.04c-.2,1.57-1.2,2.41-2.23,2.91,1.47.52,2.42,1.4,2.21,3.17v.04c-.29,2.33-2.37,3.58-5.28,3.58h-6.05l1.6-13.06Zm4.98,7.44h-3.64l-.44,3.58h3.81c1.57,0,2.6-.62,2.74-1.79v-.04c.14-1.1-.66-1.75-2.47-1.75Zm2.42-3.75c.13-1.03-.62-1.66-2.09-1.66h-3.3l-.43,3.47h3.13c1.47,0,2.53-.58,2.68-1.77v-.04Zm4.07,5.78l.77-6.27h2.26l-.69,5.6c-.19,1.53.47,2.39,1.81,2.39s2.33-.9,2.52-2.43l.68-5.56h2.28l-1.21,9.85h-2.28l.19-1.53c-.75.93-1.76,1.74-3.29,1.74-2.22,0-3.33-1.49-3.04-3.79Zm11.98-6.27h2.26l-.2,1.64c.85-1.03,1.98-1.85,3.58-1.85,2.31,0,4.35,1.83,3.94,5.11v.04c-.41,3.27-2.87,5.11-5.2,5.11-1.64,0-2.57-.82-3.15-1.74l-.55,4.52h-2.26l1.58-12.84Zm7.29,4.94v-.04c.24-1.9-.9-3.15-2.43-3.15s-3.03,1.27-3.26,3.15v.04c-.24,1.88.95,3.15,2.48,3.15s2.97-1.21,3.21-3.15Zm3.66,0v-.04c.41-3.27,2.85-5.11,5.2-5.11,1.62,0,2.55.8,3.15,1.74l.19-1.53h2.26l-1.21,9.85h-2.26l.2-1.64c-.85,1.03-1.98,1.85-3.59,1.85-2.31,0-4.35-1.85-3.94-5.11Zm7.97,0v-.04c.24-1.9-.95-3.15-2.46-3.15s-2.98,1.19-3.22,3.15v.04c-.24,1.9.91,3.15,2.44,3.15s3.01-1.27,3.24-3.15ZM0,0v119.47h119.47V0H0Zm3.04,116.43V3.04h113.38v70.05h-1.83c-1.42,0-2.51-2.1-3.1-3.23-.3-.58-.5-.96-.8-1.25-.36-.34-.85-.5-1.34-.42-.49.08-.91.38-1.14.82l-4.63,9.9-3.57-39.47c-.1-.98-.89-1.74-1.87-1.81-.99-.06-1.87.58-2.1,1.53l-7.65,32.96-2.74-5.06c-.21-.39-.57-.67-1-.78-.43-.11-.88-.03-1.25.21-.35.23-.53.52-.82,1-.95,1.53-3.46,5.59-9.35,5.59h-27.75l-.38,3.14h28.14c5.88,0,9.18-3.15,10.89-5.4l3.45,6.37c.31.57.94.89,1.58.81.65-.08,1.17-.56,1.33-1.19l7.08-30.99,3.31,37.55c.08.94.87,1.69,1.83,1.69.72,0,1.35-.42,1.65-1.02l5.32-11.04c1,1.55,2.56,3.22,4.92,3.22h1.83v40.19H3.04ZM10.78,25.44v-.06c.71-5.74,5.59-10.44,11.71-10.44,3.72,0,5.81,1.3,7.52,3.14l-2.6,2.62c-1.43-1.5-3.04-2.51-5.35-2.51-3.84,0-7.06,3.17-7.54,7.13v.06c-.49,3.95,1.91,7.16,5.78,7.16,2.48,0,4.19-.98,6.12-2.6l2,2.31c-2.38,2.19-4.85,3.58-8.63,3.58-5.89,0-9.71-4.59-9-10.39Zm18.83,2.45v-.06c.63-5.05,4.41-7.91,8.05-7.91,2.51,0,3.94,1.24,4.86,2.68l.29-2.37h3.49l-1.87,15.23h-3.49l.31-2.54c-1.32,1.59-3.06,2.86-5.54,2.86-3.58,0-6.72-2.86-6.1-7.9Zm12.32,0v-.06c.37-2.94-1.47-4.88-3.81-4.88s-4.61,1.85-4.98,4.88v.06c-.37,2.94,1.41,4.88,3.78,4.88s4.65-1.96,5.01-4.88Zm7.75-7.65h3.49l-.42,3.43c1.23-2.28,3.18-3.84,5.85-3.72l-.45,3.69h-.2c-3.06,0-5.44,1.99-5.93,6.03l-.71,5.8h-3.49l1.87-15.23Zm8.61,7.67v-.06c.54-4.36,4.07-7.93,8.43-7.93,4.85,0,6.83,3.81,6.29,8.19-.04.32-.11.64-.18.98h-11.2c.07,2.48,1.66,3.87,3.91,3.87,1.7,0,2.99-.63,4.35-1.82l1.83,1.82c-1.65,1.73-3.78,2.86-6.58,2.86-4.42,0-7.43-3.2-6.85-7.91Zm11.42-1.12c.04-2.25-1.07-4.01-3.37-4.01-2.13,0-3.84,1.64-4.45,4.01h7.82Zm-55.88,15.1h7.96c4.73,0,7.35,2.68,6.85,6.75v.06c-.56,4.53-4.49,6.9-8.93,6.9h-4.01l-.8,6.49h-3.55l2.48-20.2Zm6.39,10.5c2.68,0,4.54-1.5,4.8-3.61v-.06c.3-2.37-1.25-3.61-3.91-3.61h-4.13l-.89,7.27h4.13Zm11.78-11.37h3.49l-2.59,21.06h-3.49l2.59-21.06Zm4.96,15.52l1.19-9.69h3.49l-1.06,8.66c-.29,2.37.73,3.69,2.81,3.69s3.6-1.38,3.89-3.75l1.06-8.6h3.52l-1.87,15.23h-3.52l.29-2.37c-1.16,1.44-2.72,2.68-5.09,2.68-3.43,0-5.14-2.31-4.71-5.86Zm15.38,3.55l1.85-2.37c1.52,1.24,3.2,1.88,4.76,1.88s2.44-.63,2.57-1.64v-.06c.15-1.18-1.42-1.59-3.14-2.13-2.17-.63-4.57-1.56-4.21-4.47v-.06c.36-2.88,2.97-4.65,6-4.65,1.9,0,3.9.66,5.38,1.73l-1.69,2.48c-1.36-.89-2.85-1.44-4.12-1.44-1.36,0-2.21.63-2.32,1.5v.06c-.15,1.12,1.44,1.59,3.16,2.16,2.14.69,4.52,1.7,4.19,4.44v.06c-.4,3.2-3.08,4.79-6.25,4.79-2.16,0-4.46-.78-6.18-2.28Z"/></svg>