<svg width="480" height="141" viewBox="0 0 480 141" fill="none" xmlns="http://www.w3.org/2000/svg">
<path d="M290 14H190C183.4 14 178 19.4 178 26C178 32.6 183.4 38 190 38H290C296.6 38 302 32.6 302 26C302 19.4 296.6 14 290 14Z" fill="#727272"/>
<path d="M290 58H190C183.4 58 178 63.4 178 70C178 76.6 183.4 82 190 82H290C296.6 82 302 76.6 302 70C302 63.4 296.6 58 290 58Z" fill="#727272"/>
<path d="M290 102H190C183.4 102 178 107.4 178 114C178 120.6 183.4 126 190 126H290C296.6 126 302 120.6 302 114C302 107.4 296.6 102 290 102Z" fill="#727272"/>
<path d="M62.0212 32.1493L33.0529 0.815392C32.5084 0.271512 31.8556 0 31.0934 0C30.3852 0 29.7601 0.271512 29.2165 0.815392L0.657176 32.1496C-0.0501844 33.021 -0.186512 33.9721 0.248193 35.0059C0.683756 36.0393 1.47228 36.556 2.61464 36.556H20.8928V138.391C20.8928 139.153 21.1372 139.778 21.6273 140.268C22.1169 140.755 22.7417 141 23.5042 141H39.1707C39.9335 141 40.5594 140.755 41.0465 140.268C41.5355 139.778 41.7818 139.153 41.7818 138.391V36.556H60.06C61.1478 36.556 61.9357 36.039 62.4248 35.0059C62.862 33.971 62.7254 33.0198 62.0212 32.1493Z" fill="#727272"/>
<path d="M417.654 108.851L446.622 140.185C447.166 140.728 447.819 141 448.581 141C449.29 141 449.915 140.728 450.458 140.185L479.018 108.85C479.725 107.979 479.861 107.028 479.427 105.994C478.991 104.961 478.203 104.444 477.06 104.444H458.782V2.60852C458.782 1.84743 458.538 1.22151 458.047 0.732498C457.558 0.244644 456.933 0.000289917 456.171 0.000289917H440.504C439.741 0.000289917 439.115 0.244644 438.628 0.732498C438.139 1.2218 437.893 1.84743 437.893 2.60852V104.444H419.615C418.527 104.444 417.739 104.961 417.25 105.994C416.813 107.029 416.949 107.98 417.654 108.851Z" fill="#727272"/>
</svg>
