<svg width="512" height="512" viewBox="0 0 512 512" fill="none" xmlns="http://www.w3.org/2000/svg">
<path d="M467 0H45C20.187 0 0 20.187 0 45V467C0 491.813 20.187 512 45 512H467C491.813 512 512 491.813 512 467V45C512 20.187 491.813 0 467 0ZM482 467C482 475.271 475.271 482 467 482H45C36.729 482 30 475.271 30 467V150H482V467ZM482 120H30V45C30 36.729 36.729 30 45 30H467C475.271 30 482 36.729 482 45V120Z" fill="white"/>
<path d="M75 90C83.2843 90 90 83.2843 90 75C90 66.7157 83.2843 60 75 60C66.7157 60 60 66.7157 60 75C60 83.2843 66.7157 90 75 90Z" fill="white"/>
<path d="M135 90C143.284 90 150 83.2843 150 75C150 66.7157 143.284 60 135 60C126.716 60 120 66.7157 120 75C120 83.2843 126.716 90 135 90Z" fill="white"/>
<path d="M195 90C203.284 90 210 83.2843 210 75C210 66.7157 203.284 60 195 60C186.716 60 180 66.7157 180 75C180 83.2843 186.716 90 195 90Z" fill="white"/>
<path d="M225 180H75C66.716 180 60 186.716 60 195V317C60 325.284 66.716 332 75 332H225C233.284 332 240 325.284 240 317V195C240 186.716 233.284 180 225 180ZM210 302H90V210H210V302Z" fill="white"/>
<path d="M437 302H285C276.716 302 270 308.716 270 317C270 325.284 276.716 332 285 332H437C445.284 332 452 325.284 452 317C452 308.716 445.284 302 437 302Z" fill="white"/>
<path d="M437 241H285C276.716 241 270 247.716 270 256C270 264.284 276.716 271 285 271H437C445.284 271 452 264.284 452 256C452 247.716 445.284 241 437 241Z" fill="white"/>
<path d="M437 362H75C66.716 362 60 368.716 60 377C60 385.284 66.716 392 75 392H437C445.284 392 452 385.284 452 377C452 368.716 445.284 362 437 362Z" fill="white"/>
<path d="M437 422H75C66.716 422 60 428.716 60 437C60 445.284 66.716 452 75 452H437C445.284 452 452 445.284 452 437C452 428.716 445.284 422 437 422Z" fill="white"/>
</svg>
