<svg width="504" height="504" viewBox="0 0 504 504" fill="none" xmlns="http://www.w3.org/2000/svg">
<g clip-path="url(#clip0)">
<path d="M471.163 0.0189819H309.328C300.901 0.0189819 292.645 3.43198 286.693 9.38398L9.36 286.717C-3.12 299.197 -3.12 319.485 9.36 331.965L171.195 493.8C177.424 500.029 185.638 503.144 193.83 503.144C202.001 503.144 210.214 500.029 216.465 493.821L493.798 216.488C499.835 210.429 503.163 202.387 503.163 193.853V32.019C503.163 14.376 488.805 0.0189819 471.163 0.0189819ZM481.808 193.832C481.808 196.648 480.677 199.4 478.693 201.384L201.36 478.717C197.2 482.877 190.437 482.877 186.277 478.717L24.443 316.883C20.283 312.723 20.283 305.96 24.443 301.8L301.776 24.467C303.76 22.483 306.512 21.352 309.328 21.352H471.141C477.008 21.352 481.808 26.131 481.808 32.019V193.832Z" fill="white"/>
<path d="M385.829 64.019C356.41 64.019 332.496 87.955 332.496 117.352C332.496 146.749 356.411 170.685 385.829 170.685C415.248 170.685 439.162 146.749 439.162 117.352C439.162 87.955 415.248 64.019 385.829 64.019ZM385.829 149.352C368.186 149.352 353.829 134.995 353.829 117.352C353.829 99.709 368.186 85.352 385.829 85.352C403.472 85.352 417.829 99.709 417.829 117.352C417.829 134.995 403.472 149.352 385.829 149.352Z" fill="white"/>
</g>
<defs>
<clipPath id="clip0">
<rect width="503.163" height="503.163" fill="white"/>
</clipPath>
</defs>
</svg>
