<svg width="121" height="36" fill="none" xmlns="http://www.w3.org/2000/svg"><path d="M116.44 35.495H4.56c-2.28 0-4.115-1.854-4.115-4.156V4.604C.445 2.303 2.28.45 4.56.45h111.88c2.28 0 4.115 1.854 4.115 4.156v26.79c0 2.246-1.835 4.1-4.115 4.1z" fill="#000"/><path d="M116.44 36H4.56C2.057 36 0 33.922 0 31.395V4.605C0 2.078 2.057 0 4.56 0h111.88c2.503 0 4.56 2.078 4.56 4.605v26.79c0 2.527-2.057 4.605-4.56 4.605zM4.56.899C2.558.899.89 2.527.89 4.605v26.79c0 2.021 1.612 3.706 3.67 3.706h111.88c2.002 0 3.67-1.628 3.67-3.706V4.605c0-2.022-1.612-3.706-3.67-3.706H4.56z" fill="#A7A9AC"/><path d="M61.056 19.658c-2.113 0-3.837 1.629-3.837 3.819s1.724 3.819 3.837 3.819c2.113 0 3.837-1.629 3.837-3.819-.056-2.19-1.724-3.819-3.837-3.819zm0 6.178c-1.168 0-2.169-.955-2.169-2.303 0-1.404 1.001-2.303 2.169-2.303 1.168 0 2.169.955 2.169 2.303-.056 1.348-1.057 2.303-2.169 2.303zm-8.341-6.178c-2.113 0-3.837 1.629-3.837 3.819s1.724 3.819 3.837 3.819c2.113 0 3.837-1.629 3.837-3.819s-1.724-3.819-3.837-3.819zm0 6.178c-1.168 0-2.169-.955-2.169-2.303 0-1.404 1.001-2.303 2.169-2.303 1.168 0 2.169.955 2.169 2.303 0 1.348-1.001 2.303-2.169 2.303zm-9.898-4.999v1.63h3.837c-.111.898-.445 1.572-.89 2.077-.556.562-1.446 1.18-3.003 1.18-2.39 0-4.226-1.91-4.226-4.325s1.835-4.325 4.226-4.325c1.28 0 2.225.506 2.892 1.18l1.112-1.123c-.945-.955-2.224-1.629-4.06-1.629-3.28 0-6.005 2.696-6.005 5.953 0 3.314 2.725 5.953 6.006 5.953 1.78 0 3.058-.561 4.115-1.684 1.056-1.068 1.39-2.584 1.39-3.82 0-.393-.056-.73-.111-1.01h-5.283v-.057zm40.537 1.292c-.333-.842-1.279-2.471-3.28-2.471-1.947 0-3.615 1.572-3.615 3.819 0 2.134 1.613 3.819 3.781 3.819 1.724 0 2.725-1.067 3.17-1.685l-1.28-.898c-.444.617-1 1.067-1.89 1.067-.834 0-1.445-.393-1.835-1.18l5.06-2.134-.11-.337zm-5.227 1.292c-.055-1.46 1.112-2.247 2.002-2.247.667 0 1.223.337 1.39.843l-3.392 1.404zm-4.115 3.707h1.669v-11.29h-1.669v11.29zm-2.724-6.571h-.056c-.39-.45-1.112-.843-2.002-.843-1.89 0-3.67 1.685-3.67 3.875 0 2.135 1.724 3.82 3.67 3.82.89 0 1.613-.394 2.002-.9h.056v.562c0 1.46-.779 2.247-2.058 2.247-1 0-1.668-.73-1.89-1.348l-1.446.618c.445 1.01 1.501 2.246 3.392 2.246 1.946 0 3.614-1.18 3.614-3.987v-6.964h-1.612v.674zm-1.947 5.279c-1.167 0-2.113-.955-2.113-2.303 0-1.348.946-2.359 2.113-2.359 1.113 0 2.058 1.011 2.058 2.36 0 1.347-.89 2.302-2.058 2.302zm21.798-9.997h-4.004v11.289h1.669v-4.269h2.335c1.835 0 3.67-1.348 3.67-3.482 0-2.134-1.78-3.538-3.67-3.538zm.056 5.448h-2.391v-3.875h2.39c1.224 0 1.947 1.067 1.947 1.909 0 .899-.667 1.966-1.946 1.966zm10.343-1.629c-1.224 0-2.447.562-3.003 1.741l1.501.618c.334-.618.89-.843 1.502-.843.889 0 1.723.506 1.779 1.46v.113c-.278-.169-.945-.45-1.724-.45-1.612 0-3.225.9-3.225 2.528 0 1.516 1.335 2.471 2.78 2.471 1.113 0 1.724-.505 2.113-1.123h.056v.898h1.613v-4.324c0-1.966-1.502-3.089-3.392-3.089zm-.223 6.178c-.556 0-1.334-.281-1.334-.955 0-.898.945-1.18 1.779-1.18.723 0 1.057.17 1.501.394-.111 1.01-1 1.74-1.946 1.74zm9.453-5.953l-1.89 4.886h-.056l-2.002-4.886h-1.779l3.003 6.851-1.724 3.82h1.724l4.615-10.671h-1.891zm-15.014 7.245h1.669v-11.29h-1.669v11.29z" fill="#fff"/><path d="M9.453 6.853c-.278.28-.39.73-.39 1.292v19.937c0 .562.168 1.011.39 1.292l.056.056 11.065-11.232v-.225L9.51 6.797l-.056.056z" fill="#5BC9F4"/><path d="M24.244 21.96l-3.67-3.763v-.225l3.67-3.706.056.056 4.393 2.527c1.223.73 1.223 1.91 0 2.584l-4.337 2.47-.112.057z" fill="url(#paint0_linear)"/><path d="M24.356 21.905l-3.782-3.82-11.12 11.233c.388.45 1.111.506 1.834.056l13.068-7.469z" fill="url(#paint1_linear)"/><path d="M24.356 14.266l-13.068-7.47c-.778-.449-1.446-.393-1.835.057l11.121 11.232 3.782-3.819z" fill="url(#paint2_linear)"/><path d="M37.432 10.5h1.71c1.344 0 2.25-.864 2.25-2.1 0-1.236-.906-2.1-2.25-2.1h-1.71v4.2zm.444-.384V6.684h1.242c1.116 0 1.836.708 1.836 1.716s-.72 1.716-1.836 1.716h-1.242zm4.64-3.462a.303.303 0 1 0 0-.606.307.307 0 0 0-.313.3c0 .168.138.306.312.306zm-.217 3.846h.426V7.344H42.3V10.5zm2.458.03c.822 0 1.302-.354 1.302-.9 0-1.212-2.046-.57-2.046-1.422 0-.3.252-.522.822-.522.323 0 .654.078.93.27l.185-.342c-.264-.18-.708-.294-1.116-.294-.803 0-1.248.384-1.248.9 0 1.248 2.047.6 2.047 1.422 0 .312-.247.516-.847.516-.444 0-.87-.156-1.122-.354l-.192.336c.258.222.762.39 1.285.39zm3.715-3.21c-.522 0-.96.228-1.218.648v-.624h-.408v4.32h.426V9.906c.264.408.696.624 1.2.624.9 0 1.572-.648 1.572-1.608 0-.954-.672-1.602-1.572-1.602zm-.03 2.832c-.672 0-1.176-.492-1.176-1.23 0-.732.504-1.23 1.176-1.23.666 0 1.176.498 1.176 1.23 0 .738-.51 1.23-1.176 1.23zm3.76.378c.925 0 1.602-.672 1.602-1.608s-.678-1.602-1.602-1.602c-.923 0-1.608.666-1.608 1.602s.684 1.608 1.608 1.608zm0-.378c-.671 0-1.175-.492-1.175-1.23s.504-1.23 1.175-1.23c.672 0 1.17.492 1.17 1.23s-.498 1.23-1.17 1.23zm4.08-2.832c-.546 0-.972.222-1.2.606v-.582h-.408V10.5h.426V8.844c0-.72.426-1.14 1.104-1.14.6 0 .948.342.948 1.008V10.5h.426V8.67c0-.906-.528-1.35-1.296-1.35zm2.279-.462h.42l.972-.744h-.57l-.822.744zm.174 3.642h.426V7.344h-.426V10.5zm3.843-3.156l-1.194 2.688-1.182-2.688h-.444l1.398 3.156h.438l1.404-3.156h-.42zm3.686 1.578c0-.948-.642-1.602-1.53-1.602s-1.542.666-1.542 1.602.672 1.608 1.656 1.608c.498 0 .936-.18 1.218-.516l-.24-.276c-.24.276-.582.414-.966.414-.69 0-1.194-.438-1.242-1.098h2.64c0-.048.006-.096.006-.132zm-1.53-1.236c.618 0 1.068.432 1.122 1.05h-2.238c.054-.618.504-1.05 1.116-1.05zm2.397 2.814h.426V6.048h-.426V10.5zm4.79-3.18c-.546 0-.972.222-1.2.606v-.582h-.408V10.5h.426V8.844c0-.72.426-1.14 1.104-1.14.6 0 .948.342.948 1.008V10.5h.426V8.67c0-.906-.528-1.35-1.296-1.35zm3.556 0c-.498 0-.966.156-1.284.426l.192.318c.258-.228.642-.372 1.05-.372.588 0 .894.294.894.834v.192h-1.002c-.906 0-1.218.408-1.218.894 0 .546.438.918 1.152.918.522 0 .894-.198 1.086-.522v.492h.408V8.544c0-.816-.462-1.224-1.278-1.224zm-.15 2.874c-.504 0-.798-.228-.798-.594 0-.324.198-.564.81-.564h.99v.516c-.168.414-.522.642-1.002.642z" fill="#fff"/><defs><linearGradient id="paint0_linear" x1="27.909" y1="18.092" x2="6.286" y2="18.092" gradientUnits="userSpaceOnUse"><stop stop-color="#FEE000"/><stop offset=".194" stop-color="#FCCF0B"/><stop offset=".547" stop-color="#FAB318"/><stop offset=".828" stop-color="#F9A21B"/><stop offset="1" stop-color="#F99B1C"/></linearGradient><linearGradient id="paint1_linear" x1="22.298" y1="20.164" x2="1.758" y2="40.5" gradientUnits="userSpaceOnUse"><stop stop-color="#EF4547"/><stop offset="1" stop-color="#C6186D"/></linearGradient><linearGradient id="paint2_linear" x1="1.87" y1="-4.612" x2="18.64" y2="11.992" gradientUnits="userSpaceOnUse"><stop stop-color="#279E6F"/><stop offset=".317" stop-color="#4DAB6D"/><stop offset=".74" stop-color="#6ABA6A"/><stop offset="1" stop-color="#74C169"/></linearGradient></defs></svg>