<svg width="164" height="55" viewBox="0 0 164 55" fill="none" xmlns="http://www.w3.org/2000/svg">
<path fill-rule="evenodd" clip-rule="evenodd" d="M44.8283 9.37395C43.387 10.1118 42.9579 10.6541 42.9579 10.6541L46.1705 21.7175L46.5629 9.30386C46.6253 9.08989 46.706 8.96447 46.9957 8.92758L47.2561 8.78001L46.8343 8.45538C46.8343 8.45169 46.2695 8.63614 44.8283 9.37395Z" fill="#B3D59C"/>
<path fill-rule="evenodd" clip-rule="evenodd" d="M62.6481 5.96158C55.7791 5.33813 47.4504 7.17897 43.607 10.1044C45.8771 8.73206 51.5762 7.95736 57.4661 8.14919C57.7374 8.18608 57.9575 8.40743 57.9832 8.69148L60.8364 21.2822L64.3241 9.45881C64.3974 9.14155 64.7091 8.94234 65.0282 9.00874C65.0282 9.00874 65.0465 9.01243 65.0722 9.01612C69.0917 9.9015 70.9657 11.307 69.4511 12.6093H69.4657C72.6124 9.54735 69.6381 6.58872 62.6481 5.96158Z" fill="#B3D59C"/>
<path fill-rule="evenodd" clip-rule="evenodd" d="M50.6374 14.3837C49.0971 14.3837 47.8392 13.122 47.8392 11.5652C47.8392 10.0158 49.1008 8.75415 50.6374 8.75415C52.174 8.75415 53.4356 10.0158 53.4356 11.5652C53.4356 13.122 52.174 14.3837 50.6374 14.3837Z" fill="#007777"/>
<path fill-rule="evenodd" clip-rule="evenodd" d="M67.1076 11.0856C65.5673 11.0856 64.3094 9.8239 64.3094 8.26712C64.3094 6.71771 65.571 5.45605 67.1076 5.45605C68.6479 5.45605 69.9058 6.71771 69.9058 8.26712C69.9058 9.8239 68.6479 11.0856 67.1076 11.0856Z" fill="#007777"/>
<path fill-rule="evenodd" clip-rule="evenodd" d="M61.3865 5.6884C59.8462 5.6884 58.5883 4.42674 58.5883 2.86995C58.5883 1.32055 59.8462 0.0515137 61.3865 0.0515137C62.9341 0.0515137 64.1847 1.32055 64.1847 2.86995C64.1884 4.42674 62.9341 5.6884 61.3865 5.6884Z" fill="#B3D59C"/>
<path fill-rule="evenodd" clip-rule="evenodd" d="M45.2427 7.55509C43.7024 7.55509 42.4445 6.29344 42.4445 4.73665C42.4445 3.18725 43.7024 1.91821 45.2427 1.91821C46.7903 1.91821 48.0409 3.18725 48.0409 4.73665C48.0409 6.29344 46.7903 7.55509 45.2427 7.55509Z" fill="#B3D59C"/>
<path fill-rule="evenodd" clip-rule="evenodd" d="M43.0605 10.5508C42.9762 10.6356 42.8478 10.7168 42.7928 10.8016C42.8772 10.7205 42.9615 10.6393 43.0532 10.5582L43.0605 10.5508ZM69.044 12.9044L69.132 12.9192C66.2935 15.365 60.3266 17.1321 54.4405 17.4751C54.1654 17.4936 53.9344 17.7039 53.894 17.9879L50.586 29.1842L47.4577 17.4014C47.3771 17.2095 47.201 17.0657 46.9957 17.0361C46.9957 17.0361 46.9443 17.0214 46.8783 16.9993C41.9567 15.9257 40.1706 13.4098 42.8002 10.8053C41.6669 12.4433 45.5727 14.1402 52.1447 14.7305C59.0467 15.3539 66.4512 14.5423 69.044 12.9044Z" fill="#007777"/>
<path fill-rule="evenodd" clip-rule="evenodd" d="M64.6944 15.3833L64.8081 15.3501C65.0208 15.2985 65.1749 15.5125 65.2409 15.7264L64.4964 24.8089L69.8618 12.1702C69.8618 12.1702 68.8093 13.4576 64.9695 14.8816L64.6944 15.3833Z" fill="#007777"/>
<path fill-rule="evenodd" clip-rule="evenodd" d="M48.767 50.1011C48.8514 50.0974 48.9321 50.0974 49.0164 50.0974H54.7962C54.9906 50.0974 55.185 50.0863 55.3757 50.0863C55.5957 50.0863 55.8084 50.1159 55.9624 50.2929C56.1972 50.5585 56.0981 50.9274 56.0358 51.2373C55.9588 51.5989 55.8854 51.9604 55.8084 52.3256C55.7387 52.665 55.6984 53.1556 55.405 53.3733C55.2326 53.5024 55.0419 53.5172 54.8366 53.5098C54.6312 53.5061 54.4295 53.495 54.2204 53.495H45.9211C45.6974 53.495 45.47 53.5061 45.2463 53.5024C45.0116 53.4987 44.7842 53.4618 44.6265 53.27C44.3882 52.9786 44.5202 52.558 44.5899 52.226C45.7231 46.7957 46.8526 41.3654 47.9895 35.9351C48.0739 35.5367 48.1509 35.0055 48.492 34.7472C48.7083 34.5849 48.9651 34.5591 49.2218 34.5554C49.5372 34.5517 49.8599 34.5702 50.179 34.5702H58.0895C58.3682 34.5702 58.691 34.5075 58.8927 34.7583C59.0981 35.0092 58.9734 35.308 58.9184 35.581C58.8193 36.0495 58.7203 36.5143 58.625 36.9828C58.5663 37.2632 58.548 37.6099 58.3169 37.8055C58.0859 38.001 57.7558 37.953 57.4697 37.953H52.2437C52.009 37.953 51.7706 37.9457 51.5359 37.942C51.4919 37.942 51.3929 37.9383 51.3232 37.9457C51.2719 38.0932 51.2058 38.4695 51.1838 38.5765C50.9565 39.6648 50.7327 40.7567 50.498 41.845C50.4907 41.8745 50.4797 41.9151 50.4687 41.9593C50.6154 41.9593 50.7584 41.9557 50.9051 41.9557H55.7717C55.9624 41.9557 56.1531 41.9446 56.3402 41.9483C56.5602 41.952 56.7656 41.9889 56.916 42.1696C57.147 42.4574 56.9967 42.8742 56.9306 43.1989C56.8536 43.5641 56.7803 43.9293 56.7069 44.2945C56.6446 44.597 56.6116 44.9807 56.3512 45.1836C56.0835 45.3939 55.6214 45.3164 55.295 45.3164H50.388C50.212 45.3164 50.0396 45.309 49.8636 45.3016C49.8379 45.3016 49.8086 45.2979 49.7756 45.2979C49.7389 45.4455 49.7059 45.6632 49.6839 45.7591C49.3831 47.1757 49.0824 48.5886 48.789 50.0052C48.7854 50.0347 48.7744 50.0679 48.767 50.1011ZM42.0557 44.5564C43.7977 43.6342 45.0923 42.059 45.5104 40.0706C45.8001 38.6908 45.6387 37.1857 44.6669 36.1048C43.3613 34.6587 41.2415 34.4374 39.4152 34.4374C38.293 34.4374 37.1671 34.4742 36.0522 34.6292C35.7771 34.6698 35.4948 34.6919 35.2234 34.7399C34.9923 34.7768 34.7723 34.8358 34.5926 34.9981C34.3909 35.1825 34.3139 35.4334 34.2552 35.6916C34.1782 36.0347 34.1231 36.3889 34.0498 36.7356L30.8482 52.001L30.8078 52.2223C30.7491 52.5506 30.5878 52.9933 30.8225 53.2774C30.9692 53.4545 31.1709 53.4877 31.3873 53.4913C31.567 53.4913 31.7467 53.4803 31.9227 53.4803H33.2136C33.5254 53.4803 33.9324 53.543 34.1892 53.3327C34.4312 53.1298 34.4532 52.7572 34.5156 52.4658L35.7991 46.3198C35.8175 46.2276 35.8432 46.0542 35.8725 45.9251C35.9825 45.9251 36.1109 45.9325 36.1916 45.9325H37.3761C37.9079 45.9325 38.546 46.0099 38.9164 46.4452C39.3492 46.958 39.3785 47.9356 39.3858 48.5701C39.3932 49.485 39.4115 50.3999 39.4702 51.3148C39.4922 51.6653 39.5142 52.012 39.5655 52.3588C39.6169 52.6908 39.6462 53.1151 39.936 53.3327C40.2073 53.5356 40.6218 53.4692 40.9408 53.4692H42.2868C42.4885 53.4692 42.6865 53.4766 42.8882 53.4766C43.1192 53.4729 43.3393 53.4323 43.4713 53.211C43.5923 53.0081 43.541 52.8199 43.4677 52.6207C43.4163 52.4805 43.376 52.3514 43.3466 52.2039C43.2659 51.7944 43.2513 51.3591 43.2256 50.9422C43.1633 49.9388 43.1449 48.9317 43.1266 47.9246C43.1009 46.7404 42.8662 45.4455 42.0557 44.5564ZM25.3214 47.991C25.2591 47.9873 25.1857 47.991 25.1454 47.991C24.9143 47.9946 24.6833 48.002 24.4486 48.002H21.0746C20.9609 48.002 20.3961 47.9762 20.2898 48.0094C20.2091 48.0832 19.9744 48.5554 19.923 48.6476C19.2079 49.9794 18.4927 51.3111 17.7776 52.6429C17.6309 52.9195 17.4695 53.2626 17.1761 53.4028C16.9451 53.5098 16.6664 53.4766 16.417 53.4766C15.9036 53.4766 15.3901 53.4803 14.8804 53.4803C14.7043 53.4803 14.5283 53.4913 14.3522 53.495C14.1212 53.4987 13.8938 53.4655 13.7545 53.2479C13.5381 52.9048 13.8461 52.5064 14.0112 52.2076C17.0111 46.7219 20.0147 41.2326 23.0146 35.747C23.1173 35.5588 23.2053 35.3707 23.3007 35.1825C23.385 35.0129 23.4767 34.8579 23.6344 34.7436C23.9278 34.5333 24.3826 34.5739 24.7236 34.5739C25.028 34.5775 25.3324 34.5775 25.6331 34.5775C25.9375 34.5812 26.2493 34.5665 26.5537 34.5775C26.8104 34.5886 27.0561 34.6255 27.2541 34.8026C27.5695 35.0829 27.5842 35.6658 27.6355 36.0605C28.2993 41.2215 28.9778 46.3825 29.6343 51.5472C29.6746 51.8608 29.7296 52.167 29.77 52.4805C29.8066 52.7462 29.8176 53.0191 29.6343 53.2368C29.3519 53.5688 28.7431 53.495 28.347 53.495C28.0499 53.495 27.7566 53.4803 27.4632 53.4803C27.2321 53.4803 26.9974 53.4913 26.7664 53.484C26.5463 53.4766 26.3409 53.4434 26.1686 53.2921C25.8935 53.0487 25.8899 52.5654 25.8385 52.2223C25.6845 51.1156 25.5561 50.0015 25.4168 48.8948C25.3838 48.655 25.3654 48.4152 25.3397 48.1754C25.3397 48.1348 25.3324 48.0574 25.3214 47.991ZM12.2105 53.0597C12.5332 52.9454 12.933 52.8162 13.098 52.4879C13.2337 52.2149 13.164 51.8682 13.1493 51.573L13.1163 50.8795C13.098 50.5106 13.131 49.9757 12.7899 49.747C12.5516 49.5883 12.2912 49.6473 12.0418 49.7248C11.7631 49.8133 11.4917 49.9093 11.2093 49.9904C10.3658 50.2302 9.43061 50.3483 8.55411 50.3483C7.15316 50.3483 5.6532 50.0199 4.74369 48.8616C3.74249 47.5888 3.79384 45.7591 4.10923 44.2539C4.91606 40.3989 7.59325 37.669 11.631 37.669C12.4452 37.669 13.3364 37.7686 14.0992 38.0674C14.4109 38.1891 14.7703 38.3994 15.1114 38.3219C15.5295 38.226 15.7459 37.7501 15.9256 37.3997L16.2813 36.6951C16.439 36.3815 16.7067 36.0237 16.6297 35.6584C16.538 35.2194 16.0502 35.0276 15.6835 34.88C14.5723 34.4337 13.1383 34.2898 11.9501 34.2898C6.12629 34.2898 1.46871 38.3441 0.276809 44.0289C-0.276967 46.6629 -0.115601 49.5736 1.83912 51.6062C3.36842 53.1925 5.55418 53.768 7.69227 53.768C9.14822 53.7643 10.8316 53.5614 12.2105 53.0597ZM36.54 42.734L37.5815 37.7649C38.1096 37.68 38.6744 37.6727 39.1988 37.6764C39.9286 37.68 40.9922 37.787 41.5093 38.3773C41.9053 38.831 41.8833 39.4729 41.7697 40.0263C41.3809 41.8782 39.6609 42.7377 37.9042 42.7377H36.54V42.734ZM25.0207 44.7483L24.4889 40.5833C24.4706 40.4284 24.4486 40.2734 24.4339 40.1185C24.3129 40.3546 24.1919 40.5907 24.0635 40.8231L21.9217 44.752H25.0207V44.7483Z" fill="#007777"/>
<path fill-rule="evenodd" clip-rule="evenodd" d="M62.4391 46.8215C62.4317 46.8658 62.4244 46.91 62.4134 46.9469C62.3584 47.2089 62.3034 47.4745 62.2484 47.7364C61.8889 49.4444 61.5332 51.1488 61.1738 52.8568C61.1151 53.1409 61.1005 53.4987 60.8621 53.6942C60.6237 53.8861 60.2716 53.827 59.9819 53.827H58.3609C58.0382 53.827 57.6164 53.8897 57.3964 53.5983C57.1727 53.2995 57.3707 52.8531 57.4404 52.5211L60.7924 36.5327C60.8547 36.2302 60.9024 35.9314 60.9574 35.6252C61.0014 35.3891 61.0601 35.1567 61.2435 34.9833C61.4195 34.8173 61.6396 34.7693 61.8669 34.7398C62.142 34.7029 62.4207 34.6845 62.6958 34.6513C63.8583 34.5111 65.0282 34.4484 66.1981 34.4484C67.9878 34.4484 70.1039 34.773 71.3765 36.1638C72.473 37.3628 72.6454 39.0044 72.3227 40.5427C71.9743 42.1954 71.2041 43.6452 69.9242 44.7483C68.2042 46.2313 65.8827 46.8768 63.6493 46.8768C63.3266 46.8768 63.0002 46.8731 62.6774 46.851C62.6004 46.8436 62.5161 46.8326 62.4391 46.8215ZM75.1319 50.3962C75.1466 50.3409 75.1576 50.2855 75.1686 50.2449L78.2052 35.7691C78.2675 35.4592 78.4399 35.0718 78.2272 34.7915C78.0145 34.5148 77.6404 34.5738 77.336 34.5738H75.5976C75.3153 34.5738 74.9779 34.5185 74.7468 34.714C74.5158 34.9095 74.5084 35.2637 74.4461 35.544C73.3422 40.8083 72.2383 46.0689 71.1344 51.3332C71.0464 51.7501 70.9364 52.1669 70.8557 52.5838C70.7934 52.8974 70.753 53.2405 70.9621 53.5098C71.1418 53.7348 71.4132 53.7938 71.6809 53.816C71.9853 53.8381 72.308 53.8233 72.6124 53.8233C75.3299 53.8086 78.0475 53.8233 80.7613 53.8233C81.0804 53.8233 81.5095 53.8934 81.7772 53.6942C82.0229 53.5135 82.0669 53.1962 82.1293 52.9158C82.2283 52.4399 82.331 51.9604 82.43 51.4808C82.4923 51.1857 82.628 50.8352 82.4043 50.5733C82.1806 50.3077 81.7882 50.3925 81.4765 50.3925H75.3959C75.3153 50.3925 75.2236 50.3925 75.1319 50.3962ZM89.2917 36.09L87.2159 45.9878C87.1389 46.3493 87.0766 46.7182 87.0399 47.0871C86.9445 47.9983 86.9519 49.2231 87.5387 49.9793C87.9934 50.5622 88.6939 50.7319 89.398 50.7319C92.3283 50.7319 93.6009 48.227 94.1363 45.6742C94.8221 42.3983 95.5116 39.1261 96.1974 35.8502C96.2377 35.6547 96.2707 35.4555 96.3074 35.2563C96.3477 35.0571 96.4064 34.8763 96.5641 34.7398C96.8392 34.5037 97.3379 34.5738 97.679 34.5738H98.8599C99.0543 34.5738 99.2523 34.5628 99.4467 34.5628C99.6704 34.5628 99.8831 34.596 100.033 34.7804C100.184 34.9649 100.173 35.1825 100.129 35.4002C100.088 35.5883 100.041 35.7765 100 35.9683L97.932 45.8291C96.9382 50.5696 94.0153 54.1111 88.9249 54.1111C83.6292 54.1111 82.5217 50.1417 83.4679 45.6189C84.1573 42.3319 84.8468 39.045 85.5363 35.758C85.606 35.4223 85.639 34.928 85.9213 34.7029C86.0864 34.5738 86.2734 34.5554 86.4715 34.5554C86.6695 34.5591 86.8639 34.5701 87.0619 34.5701C87.4213 34.5701 87.7807 34.5701 88.1401 34.5701C88.3455 34.5701 88.5509 34.5628 88.7526 34.5628C88.9799 34.5664 89.1963 34.607 89.3467 34.7989C89.5007 34.9944 89.4787 35.2231 89.431 35.4518C89.3944 35.6695 89.3357 35.8761 89.2917 36.09ZM99.9308 49.9056C99.7841 49.8207 99.652 49.7285 99.5164 49.6252C99.3477 49.4998 99.19 49.3928 98.9626 49.4334C98.7279 49.4739 98.5958 49.6436 98.4932 49.8392C98.3978 50.0199 98.3135 50.2081 98.2181 50.3888L97.6717 51.4623C97.5286 51.7464 97.2976 52.0784 97.3783 52.4067C97.4663 52.7646 97.8624 52.9417 98.1484 53.1077C99.3147 53.7791 101.057 54.1111 102.388 54.1111C104.324 54.1111 106.253 53.6167 107.808 52.4178C109.11 51.4144 110.027 50.0015 110.364 48.382C110.618 47.172 110.563 45.962 109.913 44.8847C109.169 43.6378 107.812 42.8705 106.521 42.3209C105.828 42.0294 104.508 41.4613 104.207 40.7161C104.086 40.4136 104.112 40.0631 104.181 39.7533C104.291 39.222 104.632 38.7388 105.047 38.4031C105.692 37.8829 106.514 37.6948 107.321 37.6948C108.072 37.6948 108.846 37.8313 109.539 38.1338C109.719 38.2112 109.869 38.2998 110.031 38.4068C110.207 38.5248 110.368 38.6318 110.596 38.6023C110.97 38.5543 111.149 38.1338 111.314 37.835L111.982 36.6102C112.136 36.3298 112.371 36.0089 112.275 35.6732C112.173 35.3043 111.721 35.1493 111.41 34.9981C110.328 34.4705 108.989 34.2935 107.797 34.2935C104.449 34.2935 101.082 36.2376 100.356 39.709C99.6997 42.8336 101.794 44.5343 104.409 45.5894C105.058 45.8513 105.938 46.2276 106.341 46.8363C106.627 47.2716 106.638 47.7622 106.536 48.2602C106.176 49.9683 104.548 50.6876 102.949 50.6876C101.93 50.6803 100.822 50.4183 99.9308 49.9056ZM63.1395 43.4866C63.4549 43.5161 63.7776 43.5198 64.0894 43.5198C66.2531 43.5198 68.0905 42.5975 68.5636 40.3324C68.692 39.7201 68.714 39.0155 68.2775 38.5137C67.7311 37.8866 66.6455 37.7686 65.8717 37.7686C65.3693 37.7686 64.8302 37.7722 64.3204 37.846L63.1395 43.4866Z" fill="#B3D59C"/>
<path fill-rule="evenodd" clip-rule="evenodd" d="M63.7483 28.0479H110.962V29.4202H63.5246L63.7483 28.0479Z" fill="#007777"/>
<path fill-rule="evenodd" clip-rule="evenodd" d="M48.3563 28.0479L48.822 29.4239H4.5163V28.0479H48.3563Z" fill="#007777"/>
<path d="M164 13.229H123.915V53.6021H164V13.229Z" fill="#0079C8"/>
<path fill-rule="evenodd" clip-rule="evenodd" d="M148.381 26.967C148.568 26.967 148.652 27.1588 148.725 27.4503C148.762 27.5904 148.802 27.7896 148.85 28.0147C149.011 28.7672 149.257 29.9551 149.565 30.7446C149.708 31.1098 149.925 31.3127 150.17 31.3127C150.544 31.3127 150.929 30.8663 151.146 30.1765C151.436 29.2542 153.17 21.6769 153.904 18.5043C153.933 18.3752 153.951 18.3014 153.951 18.294C153.962 18.2387 153.999 18.2018 154.043 18.2018C154.08 18.2018 154.124 18.235 154.127 18.3051V18.3161C154.182 21.5256 154.344 27.1662 154.579 27.7454C154.707 28.0663 154.909 28.236 155.158 28.236C155.448 28.236 155.792 27.9999 156.042 27.6384C156.167 27.4576 156.324 27.2178 156.493 26.967C156.907 26.3472 157.377 25.6426 157.516 25.4951C157.725 25.2737 157.96 25.2737 158.301 25.5061C158.349 25.5393 158.411 25.5836 158.477 25.6315C158.836 25.8935 159.441 26.255 160.116 26.4431C160.567 26.5686 161.143 26.5907 161.547 26.5907C161.807 26.5907 162.086 26.5796 162.166 26.5759L162.353 25.5651C162.254 25.5688 161.99 25.5799 161.745 25.5799C161.312 25.5799 160.721 25.5541 160.369 25.4323C159.955 25.2885 159.588 25.0044 159.199 24.7056C159.005 24.5543 158.803 24.3994 158.587 24.2518C158.323 24.0748 158.103 23.9936 157.894 23.9936C157.611 23.9936 157.336 24.1485 156.999 24.4953C156.548 24.9638 155.822 26.03 155.536 26.4653C155.517 26.4948 155.492 26.5243 155.455 26.5243C155.385 26.5243 155.382 26.4321 155.382 26.3989C155.367 25.1778 155.176 18.5227 155.044 16.5343C154.986 15.6563 154.714 15.1104 154.336 15.1104C154.032 15.1104 153.577 15.5161 153.295 16.6634C152.569 19.5815 151.025 26.0705 150.361 29.3686C150.343 29.4608 150.24 29.4571 150.222 29.3686C150.148 29.0292 150.082 28.6492 150.02 28.3283C149.822 27.3101 149.65 26.4358 149.308 25.9525C148.923 25.4028 148.351 25.3696 147.658 25.8308C147.504 25.934 147.357 26.0595 147.203 26.196C146.76 26.5833 146.257 27.0186 145.421 27.0186H137.261L137.059 28.1069H145.645C146.521 28.1069 147.335 27.5978 147.823 27.2474C148.076 27.0703 148.245 26.967 148.381 26.967Z" fill="white"/>
<path fill-rule="evenodd" clip-rule="evenodd" d="M128.954 22.8241C128.822 22.8573 128.613 22.8758 128.173 22.8758H127.411L127.796 20.6845H128.929C130.421 20.6808 130.286 22.4921 128.954 22.8241ZM128.302 17.8144H129.325C130.553 17.8144 130.454 19.4929 129.402 19.8433C129.259 19.8913 129.068 19.9061 128.72 19.9061H127.939L128.302 17.8144ZM130.11 20.2196C130.579 20.1163 131.415 19.6331 131.415 18.6407C131.415 17.582 130.74 17.0913 129.556 17.0913C128.83 17.0913 127.682 17.0913 127.267 17.0913L126.112 23.6283C126.255 23.6283 127.502 23.6283 128.21 23.6283C128.69 23.6283 129.145 23.6136 129.402 23.5582C130.579 23.3074 131.056 22.4478 131.151 21.8133C131.283 20.9353 130.733 20.3561 130.11 20.2196Z" fill="white"/>
<path fill-rule="evenodd" clip-rule="evenodd" d="M133.704 23.728C135.328 23.728 135.937 22.8758 136.132 21.8576C136.194 21.5219 136.506 19.8286 136.528 19.6589C136.597 19.1535 136.187 18.958 135.875 18.958H135.574C135.574 18.958 135.13 21.5256 135.079 21.817C134.969 22.4442 134.672 22.8758 133.825 22.8758C133.344 22.8758 132.875 22.5807 132.985 21.9277C133.029 21.6732 133.348 19.8102 133.374 19.6589C133.465 19.1535 133.036 18.958 132.684 18.958H132.416C132.35 19.349 132.057 20.9907 131.947 21.6326C131.903 21.8908 131.885 22.1564 131.903 22.3261C132.002 23.1967 132.765 23.728 133.704 23.728Z" fill="white"/>
<path fill-rule="evenodd" clip-rule="evenodd" d="M139.407 22.968C137.716 22.872 138.266 19.6072 139.986 19.7031C141.541 19.788 141.057 23.0602 139.407 22.968ZM140.32 18.8657C139.458 18.8657 138.871 19.2863 138.574 19.7253L138.585 19.6626C138.68 19.2125 138.299 18.9616 137.973 18.9616H137.65C137.65 18.9616 136.777 23.9898 136.656 24.5948C136.513 25.3068 137.089 25.4728 137.268 25.4728H137.533L138.002 22.8979C138.185 23.2668 138.706 23.7316 139.539 23.7316C141.039 23.7316 141.963 22.5548 142.058 21.1751C142.168 19.7068 141.314 18.8657 140.32 18.8657Z" fill="white"/>
<path fill-rule="evenodd" clip-rule="evenodd" d="M144.757 22.8758C143.202 22.7872 143.686 19.5298 145.337 19.6183C147.027 19.7143 146.477 22.9717 144.757 22.8758ZM146.855 18.9543L146.719 19.6663C146.536 19.2974 146.023 18.8584 145.19 18.8584C143.723 18.8584 142.85 20.0758 142.707 21.3743C142.539 22.8573 143.492 23.728 144.46 23.728C145.373 23.728 145.861 23.3222 146.158 22.8573L146.144 22.9274C146.059 23.3627 146.419 23.6283 146.756 23.6283H147.049L147.864 18.9543H146.855Z" fill="white"/>
<path fill-rule="evenodd" clip-rule="evenodd" d="M124.018 6.52226H125.371L125.874 4.64453H127.044C128.723 4.64453 130.033 3.77022 130.033 2.22819C130.033 1.68959 129.875 1.27273 129.56 0.955466C129.112 0.505401 128.503 0.328326 127.627 0.328326H125.676L124.018 6.52226ZM126.189 3.45296L126.692 1.56047H127.572C127.975 1.56047 128.232 1.64901 128.415 1.83346C128.547 1.96627 128.617 2.14334 128.617 2.34624C128.617 3.04716 128.012 3.45296 127.113 3.45296H126.189ZM131.225 6.61079C130.407 6.61079 129.853 6.07957 129.853 5.33807C129.853 4.23873 130.741 3.63003 131.881 3.63003C132.391 3.63003 132.813 3.71857 133.209 3.844L133.227 3.78129C133.253 3.6743 133.278 3.56732 133.278 3.42714C133.278 3.09881 133.051 2.87009 132.391 2.87009C131.932 2.87009 131.478 2.98445 131.133 3.12832L130.924 2.06587C131.408 1.86297 132.006 1.73017 132.673 1.73017C133.938 1.73017 134.58 2.26139 134.58 3.19104C134.58 3.4382 134.536 3.66692 134.474 3.90671L133.781 6.52595H132.49L132.629 5.97628C132.255 6.38207 131.778 6.61079 131.225 6.61079ZM131.797 5.69222C132.35 5.69222 132.835 5.24953 132.981 4.73675L133.018 4.61132C132.791 4.52279 132.464 4.44163 132.138 4.44163C131.584 4.44163 131.181 4.72568 131.181 5.18682C131.184 5.47825 131.419 5.69222 131.797 5.69222ZM134.936 6.52226H136.271L136.718 4.84004C137.045 3.6079 137.731 3.09512 138.618 3.09512H138.688L139.065 1.6859C138.292 1.62319 137.749 2.03267 137.272 2.7299L137.525 1.77444H136.19L134.936 6.52226ZM140.331 6.60342C140.69 6.60342 141.035 6.53332 141.295 6.4079L141.603 5.26429C141.383 5.3602 141.13 5.41554 140.918 5.41554C140.672 5.41554 140.558 5.30856 140.558 5.13148C140.558 5.07983 140.576 4.9913 140.595 4.91752L141.123 2.92542H142.23L142.538 1.77444H141.431L141.757 0.560737H140.422L140.092 1.77813H139.531L139.223 2.92911H139.784L139.212 5.07983C139.161 5.2938 139.124 5.47825 139.124 5.67377C139.128 6.19762 139.524 6.60342 140.331 6.60342ZM147.563 6.62924C149.074 6.62924 150.288 5.30118 150.288 3.88458C150.288 2.61923 149.419 1.68959 148.021 1.68959C146.51 1.68959 145.296 3.01765 145.296 4.43425C145.296 5.6996 146.166 6.62924 147.563 6.62924ZM147.625 5.47825C147.02 5.47825 146.606 5.08721 146.606 4.39736C146.606 3.72595 147.141 2.84058 147.959 2.84058C148.564 2.84058 148.978 3.23162 148.978 3.92147C148.978 4.59288 148.443 5.47825 147.625 5.47825ZM150.86 6.52226H152.195L153.159 2.92911H154.267L154.575 1.77813H153.442L153.478 1.64532C153.574 1.29855 153.786 1.13254 154.138 1.13254C154.322 1.13254 154.542 1.17681 154.718 1.2469L155.008 0.132806C154.788 0.0516468 154.472 0 154.094 0C153.112 0 152.459 0.468511 152.187 1.52358L152.125 1.78182H151.571L151.263 2.9328H151.828L150.86 6.52226Z" fill="#0079C8"/>
<path fill-rule="evenodd" clip-rule="evenodd" d="M64.1737 27.9299H110.878V29.2875H63.95L64.1737 27.9299Z" fill="#007777"/>
<path fill-rule="evenodd" clip-rule="evenodd" d="M48.9467 27.9299L49.4088 29.2875H5.57983V27.9299H48.9467Z" fill="#007777"/>
</svg>
