<svg width="20" height="14" viewBox="0 0 20 14" fill="none" xmlns="http://www.w3.org/2000/svg">
<rect x="6.18115" y="3.32886" width="7.90153" height="6.58461" transform="rotate(-0.103113 6.18115 3.32886)" fill="#8D8D8D"/>
<path d="M18.974 2.63906C18.8684 2.26193 18.6628 1.91819 18.3775 1.64206C18.0922 1.36593 17.7373 1.16705 17.3481 1.06519C15.9048 0.683859 10.1335 0.687995 10.1335 0.687995C10.1335 0.687995 4.36315 0.69213 2.9203 1.06169C2.53168 1.16967 2.17822 1.37265 1.89383 1.65116C1.60945 1.92967 1.4037 2.27436 1.29634 2.65212C0.9184 4.05102 0.919934 6.95103 0.919934 6.95103C0.919934 6.95103 0.921494 9.86532 1.30167 11.2486C1.51492 12.0134 2.13782 12.6167 2.92857 12.8215C4.38659 13.2028 10.1422 13.1987 10.1422 13.1987C10.1422 13.1987 15.9135 13.1946 17.3554 12.8259C17.7444 12.7229 18.099 12.5232 18.3839 12.2466C18.6689 11.97 18.8745 11.6261 18.9803 11.2489C19.3592 9.85089 19.3567 6.95178 19.3567 6.95178C19.3567 6.95178 19.3699 4.03656 18.974 2.63906ZM8.30352 9.62436L8.29848 4.2672L13.1 6.94161L8.30352 9.62436Z" fill="#E5F2F9"/>
</svg>
