<svg width="32" height="22" viewBox="0 0 32 22" fill="none" xmlns="http://www.w3.org/2000/svg">
    <path
        d="M31.349 4.0433C31.1669 3.40366 30.811 2.82033 30.3167 2.35137C29.8225 1.8824 29.2071 1.54416 28.5318 1.37031C26.028 0.719469 16.0111 0.708874 16.0111 0.708874C16.0111 0.708874 5.99576 0.698278 3.49033 1.32036C2.81549 1.50221 2.20136 1.84524 1.7069 2.3165C1.21244 2.78777 0.854255 3.37145 0.666731 4.01152C0.00639811 6.38179 2.34257e-06 11.2979 2.34257e-06 11.2979C2.34257e-06 11.2979 -0.00639311 16.2383 0.649143 18.5843C1.01688 19.8815 2.09612 20.9062 3.46795 21.2558C5.99736 21.9066 15.9871 21.9172 15.9871 21.9172C15.9871 21.9172 26.004 21.9278 28.5078 21.3073C29.1833 21.1337 29.7993 20.7962 30.2948 20.3282C30.7903 19.8602 31.1482 19.2779 31.333 18.6388C31.995 16.27 31.9998 11.3554 31.9998 11.3554C31.9998 11.3554 32.0317 6.41358 31.349 4.0433ZM12.8069 15.8523L12.8149 6.77078L21.1402 11.3191L12.8069 15.8523Z"
        fill="#0079C8"/>
</svg>
