<svg width="50" height="50" viewBox="0 0 50 50" fill="none" xmlns="http://www.w3.org/2000/svg">
<circle cx="25" cy="25" r="25" fill="#04345A"/>
<path d="M34.4286 16H15.5714C14.1513 16 13 17.1513 13 18.5714V30.5714C13 31.9916 14.1513 33.1428 15.5714 33.1428H34.4286C35.8487 33.1428 37 31.9916 37 30.5714V18.5714C37 17.1513 35.8487 16 34.4286 16ZM35.2857 30.5714C35.2857 31.0448 34.9019 31.4286 34.4285 31.4286H15.5714C15.098 31.4286 14.7143 31.0448 14.7143 30.5714V30.0691L18.1429 26.6405L20.9654 29.4631C21.3001 29.7978 21.8427 29.7978 22.1774 29.4631L29.2857 22.3548L35.2857 28.3549V30.5714H35.2857ZM35.2857 25.9308L29.8917 20.5369C29.557 20.2022 29.0144 20.2022 28.6797 20.5369L21.5714 27.6451L18.7488 24.8225C18.4142 24.4879 17.8715 24.4879 17.5369 24.8225L14.7143 27.6451V18.5714C14.7143 18.098 15.098 17.7143 15.5714 17.7143H34.4286C34.902 17.7143 35.2857 18.098 35.2857 18.5714V25.9308H35.2857Z" fill="white"/>
<path d="M20.714 19.4286C19.2938 19.4286 18.1426 20.5799 18.1426 22C18.1426 23.4202 19.2938 24.5714 20.714 24.5714C22.1342 24.5714 23.2854 23.4202 23.2854 22C23.2854 20.5799 22.1342 19.4286 20.714 19.4286ZM20.714 22.8572C20.2406 22.8572 19.8568 22.4734 19.8568 22C19.8568 21.5266 20.2406 21.1429 20.714 21.1429C21.1874 21.1429 21.5712 21.5266 21.5712 22C21.5712 22.4734 21.1874 22.8572 20.714 22.8572Z" fill="white"/>
</svg>
