<svg width="32" height="28" viewBox="0 0 32 28" fill="none" xmlns="http://www.w3.org/2000/svg">
<path d="M27.3916 0H4.42285C3.4079 0.001228 2.43484 0.457804 1.71716 1.26955C0.99948 2.08129 0.595812 3.18189 0.594727 4.32987V22.8864C0.595812 24.0344 0.99948 25.135 1.71716 25.9468C2.43484 26.7585 3.4079 27.2151 4.42285 27.2163H27.3916C28.4065 27.2151 29.3796 26.7585 30.0973 25.9468C30.815 25.135 31.2186 24.0344 31.2197 22.8864V4.32987C31.2186 3.18189 30.815 2.08129 30.0973 1.26955C29.3796 0.457804 28.4065 0.001228 27.3916 0ZM26.4223 7.16206L16.5785 15.8218C16.3866 15.9906 16.1504 16.0822 15.9072 16.0822C15.6641 16.0822 15.4279 15.9906 15.2359 15.8218L5.39219 7.16206C5.27653 7.06328 5.17939 6.93948 5.1064 6.79786C5.03341 6.65624 4.98604 6.49963 4.96703 6.33712C4.94801 6.17461 4.95775 6.00945 4.99566 5.85123C5.03357 5.69302 5.0989 5.5449 5.18786 5.41549C5.27682 5.28608 5.38763 5.17796 5.51385 5.0974C5.64008 5.01685 5.77919 4.96547 5.92312 4.94626C6.06705 4.92705 6.21292 4.94038 6.35226 4.98548C6.49159 5.03058 6.62161 5.10655 6.73477 5.20898L15.9072 13.278L25.0797 5.20898C25.309 5.01307 25.5974 4.92715 25.8823 4.9698C26.1672 5.01244 26.4259 5.18022 26.6023 5.43686C26.7787 5.6935 26.8587 6.01837 26.825 6.34122C26.7913 6.66406 26.6467 6.95893 26.4223 7.16206Z" fill="#00335B"/>
</svg>
