<svg width="50" height="50" viewBox="0 0 50 50" fill="none" xmlns="http://www.w3.org/2000/svg">
<circle cx="25" cy="25" r="25" fill="#118384"/>
<path d="M35.3512 23.5433C36.1419 22.9877 36.6654 22.0635 36.6654 21.0218C36.6654 19.3176 35.2871 17.9393 33.5829 17.9393C31.8787 17.9393 30.5004 19.3176 30.5004 21.0218C30.5004 22.0635 31.0186 22.9877 31.8146 23.5433C31.1361 23.7784 30.5164 24.1417 29.9929 24.6118C29.2717 23.9974 28.4222 23.5273 27.4927 23.2495C28.6199 22.5657 29.3785 21.3209 29.3785 19.9052C29.3785 17.7469 27.6316 16 25.4733 16C23.315 16 21.5681 17.7523 21.5681 19.9052C21.5681 21.3209 22.3213 22.5657 23.4539 23.2495C22.535 23.5273 21.6963 23.9921 20.9804 24.5958C20.4569 24.1363 19.8478 23.7784 19.1801 23.5487C19.9707 22.9931 20.4943 22.0689 20.4943 21.0271C20.4943 19.3229 19.1159 17.9446 17.4118 17.9446C15.7076 17.9446 14.3292 19.3229 14.3292 21.0271C14.3292 22.0689 14.8474 22.9931 15.6435 23.5487C13.5226 24.2806 12 26.2946 12 28.6613V29.0139C12 29.0245 12.0107 29.0352 12.0214 29.0352H18.555C18.5176 29.329 18.4962 29.6336 18.4962 29.9381V30.3013C18.4962 31.872 19.7677 33.1435 21.3383 33.1435H29.6189C31.1896 33.1435 32.461 31.872 32.461 30.3013V29.9381C32.461 29.6336 32.4397 29.329 32.4023 29.0352H38.9786C38.9893 29.0352 39 29.0245 39 29.0139V28.6613C38.9893 26.2893 37.4721 24.2752 35.3512 23.5433ZM31.3552 21.0164C31.3552 19.7877 32.3542 18.7887 33.5829 18.7887C34.8116 18.7887 35.8106 19.7877 35.8106 21.0164C35.8106 22.2291 34.833 23.2175 33.6256 23.2442C33.6096 23.2442 33.5989 23.2442 33.5829 23.2442C33.5669 23.2442 33.5562 23.2442 33.5402 23.2442C32.3275 23.2228 31.3552 22.2345 31.3552 21.0164ZM22.4121 19.9052C22.4121 18.2224 23.7798 16.8548 25.4626 16.8548C27.1454 16.8548 28.5131 18.2224 28.5131 19.9052C28.5131 21.5293 27.2362 22.8595 25.6389 22.9503C25.5801 22.9503 25.5214 22.9503 25.4626 22.9503C25.4038 22.9503 25.3451 22.9503 25.2863 22.9503C23.689 22.8595 22.4121 21.5293 22.4121 19.9052ZM15.168 21.0164C15.168 19.7877 16.167 18.7887 17.3957 18.7887C18.6245 18.7887 19.6235 19.7877 19.6235 21.0164C19.6235 22.2291 18.6458 23.2175 17.4385 23.2442C17.4224 23.2442 17.4118 23.2442 17.3957 23.2442C17.3797 23.2442 17.369 23.2442 17.353 23.2442C16.1456 23.2228 15.168 22.2345 15.168 21.0164ZM18.7046 28.1751H12.8655C13.1059 25.8993 15.0291 24.115 17.3637 24.0989C17.3744 24.0989 17.385 24.0989 17.3957 24.0989C17.4064 24.0989 17.4171 24.0989 17.4278 24.0989C18.539 24.1043 19.554 24.5156 20.3393 25.1834C19.57 26.0168 18.9984 27.0425 18.7046 28.1751ZM31.5956 30.3013C31.5956 31.3965 30.7034 32.2887 29.6082 32.2887H21.3277C20.2325 32.2887 19.3403 31.3965 19.3403 30.3013V29.9381C19.3403 26.6205 21.9901 23.9066 25.2863 23.8104C25.3451 23.8158 25.4092 23.8158 25.4679 23.8158C25.5267 23.8158 25.5908 23.8158 25.6496 23.8104C28.9458 23.9066 31.5956 26.6205 31.5956 29.9381V30.3013ZM32.2313 28.1751C31.9375 27.0479 31.3765 26.0382 30.6126 25.2048C31.4032 24.521 32.429 24.1096 33.5508 24.0989C33.5615 24.0989 33.5722 24.0989 33.5829 24.0989C33.5936 24.0989 33.6043 24.0989 33.615 24.0989C35.9495 24.115 37.8728 25.8993 38.1132 28.1751H32.2313Z" fill="#118384" stroke="white" stroke-width="0.6"/>
</svg>
