<svg width="121" height="36" viewBox="0 0 121 36" fill="none" xmlns="http://www.w3.org/2000/svg">
<path d="M116.44 35.4945H4.55974C2.27987 35.4945 0.444855 33.6411 0.444855 31.3385V4.60522C0.444855 2.30257 2.27987 0.449219 4.55974 0.449219H116.44C118.72 0.449219 120.555 2.30257 120.555 4.60522V31.3946C120.555 33.6411 118.72 35.4945 116.44 35.4945Z" fill="black"/>
<path d="M116.44 36H4.55974C2.05744 36 0 33.922 0 31.3947V4.6053C0 2.078 2.05744 0 4.55974 0H116.44C118.943 0 121 2.078 121 4.6053V31.3947C121 33.922 118.943 36 116.44 36ZM4.55974 0.898596C2.5579 0.898596 0.889706 2.5273 0.889706 4.6053V31.3947C0.889706 33.4165 2.5023 35.1014 4.55974 35.1014H116.44C118.442 35.1014 120.11 33.4727 120.11 31.3947V4.6053C120.11 2.58346 118.498 0.898596 116.44 0.898596H4.55974Z" fill="#A7A9AC"/>
<path d="M27.0248 17.6361C27.0248 14.7157 29.4159 13.3116 29.5271 13.1993C28.1926 11.1775 26.0795 10.9528 25.301 10.8966C23.5216 10.7282 21.7978 11.9637 20.9081 11.9637C19.9628 11.9637 18.6282 10.8966 17.1268 10.9528C15.1806 11.009 13.4012 12.1322 12.4003 13.8732C10.3428 17.4115 11.8998 22.6907 13.846 25.555C14.847 26.9591 15.9591 28.5316 17.4605 28.4754C18.9062 28.4193 19.4623 27.5207 21.1861 27.5207C22.9099 27.5207 23.466 28.4754 24.9674 28.4193C26.5244 28.4193 27.5253 27.0152 28.4706 25.555C29.5827 23.9263 30.0276 22.3537 30.0832 22.2414C30.0276 22.2976 27.0248 21.1182 27.0248 17.6361Z" fill="white"/>
<path d="M24.1333 9.04265C24.9118 8.03173 25.4678 6.68383 25.301 5.33594C24.1889 5.3921 22.7431 6.12221 21.909 7.07697C21.1861 7.9194 20.5188 9.32346 20.6857 10.6714C22.0202 10.7837 23.2992 9.9974 24.1333 9.04265Z" fill="white"/>
<path d="M48.0997 28.2492H46.0423L44.9301 24.711H41.0377L40.0368 28.2492H38.0349L41.8718 16.2305H44.2629L48.0997 28.2492ZM44.5965 23.1946L43.5956 20.0495C43.4844 19.7125 43.262 18.9824 42.9839 17.803H42.9283C42.8171 18.3085 42.5947 19.0947 42.3722 20.0495L41.3713 23.1946H44.5965Z" fill="white"/>
<path d="M57.9977 23.8133C57.9977 25.2735 57.6084 26.4529 56.8299 27.2953C56.1071 28.0816 55.2174 28.4186 54.2164 28.4186C53.1043 28.4186 52.2702 28.0255 51.7697 27.183H51.7141V31.7322H49.8235V22.4092C49.8235 21.4545 49.8235 20.5559 49.7679 19.545H51.4361L51.5473 20.8929H51.6029C52.2146 19.8819 53.2155 19.3203 54.4945 19.3203C55.4954 19.3203 56.3295 19.7134 57.0524 20.5559C57.6084 21.3983 57.9977 22.4654 57.9977 23.8133ZM56.0515 23.8695C56.0515 23.027 55.8846 22.3531 55.4954 21.7914C55.1061 21.2298 54.5501 20.949 53.8272 20.949C53.3823 20.949 52.9375 21.1175 52.5482 21.3983C52.159 21.7353 51.9366 22.1284 51.7697 22.6339C51.7141 22.8585 51.6585 23.0832 51.6585 23.1955V24.6557C51.6585 25.2735 51.8254 25.8351 52.2146 26.2283C52.6038 26.6776 53.1043 26.9022 53.716 26.9022C54.4389 26.9022 54.9949 26.6214 55.3842 26.0598C55.829 25.4982 56.0515 24.768 56.0515 23.8695Z" fill="white"/>
<path d="M67.8401 23.8133C67.8401 25.2735 67.4508 26.4529 66.6723 27.2953C65.9494 28.0816 65.1153 28.4186 64.0588 28.4186C62.9467 28.4186 62.1126 28.0255 61.6121 27.183H61.5565V31.7322H59.6659V22.4092C59.6659 21.4545 59.6659 20.5559 59.6103 19.545H61.2785L61.3897 20.8929H61.4453C62.057 19.8819 63.0579 19.3203 64.3369 19.3203C65.3378 19.3203 66.1719 19.7134 66.8948 20.5559C67.5064 21.3983 67.8401 22.4654 67.8401 23.8133ZM65.8938 23.8695C65.8938 23.027 65.727 22.3531 65.3378 21.7914C64.9485 21.2298 64.3925 20.949 63.6696 20.949C63.2247 20.949 62.7799 21.1175 62.3906 21.3983C62.0014 21.7353 61.779 22.1284 61.6677 22.6339C61.6121 22.8585 61.5565 23.0832 61.5565 23.1955V24.6557C61.5565 25.2735 61.7233 25.8351 62.1126 26.2283C62.5018 26.6776 63.0023 26.9022 63.614 26.9022C64.3369 26.9022 64.8929 26.6214 65.2822 26.0598C65.727 25.4982 65.8938 24.768 65.8938 23.8695Z" fill="white"/>
<path d="M78.9058 24.8805C78.9058 25.8914 78.5721 26.7338 77.8493 27.4078C77.0708 28.1379 76.0142 28.4748 74.6241 28.4748C73.3451 28.4748 72.2886 28.2502 71.5101 27.7447L71.9549 26.116C72.789 26.6215 73.7344 26.9023 74.7353 26.9023C75.4582 26.9023 76.0142 26.7338 76.4035 26.3968C76.7927 26.0599 77.0152 25.6106 77.0152 25.1051C77.0152 24.5996 76.8483 24.2065 76.5147 23.8695C76.1811 23.5326 75.625 23.2517 74.8465 22.9148C72.7334 22.1285 71.7325 20.9491 71.7325 19.4889C71.7325 18.478 72.1218 17.6917 72.8447 17.0739C73.5675 16.4561 74.5685 16.1191 75.7362 16.1191C76.8483 16.1191 77.738 16.2876 78.4609 16.6808L77.9605 18.2533C77.2932 17.8602 76.5147 17.6917 75.6806 17.6917C75.0133 17.6917 74.4573 17.8602 74.1236 18.1971C73.79 18.478 73.6231 18.8711 73.6231 19.2642C73.6231 19.7135 73.79 20.1067 74.1792 20.4436C74.5129 20.7244 75.0689 21.0614 75.903 21.3984C76.9039 21.7915 77.6824 22.297 78.1829 22.8586C78.6834 23.3079 78.9058 24.038 78.9058 24.8805Z" fill="white"/>
<path d="M85.2449 21.0045H83.1319V25.2167C83.1319 26.2838 83.5211 26.8454 84.244 26.8454C84.5777 26.8454 84.8557 26.7893 85.0781 26.7331L85.1337 28.1933C84.7445 28.3618 84.244 28.418 83.6323 28.418C82.8539 28.418 82.2978 28.1933 81.8529 27.744C81.4081 27.2947 81.2413 26.5084 81.2413 25.3852V21.0045H79.9623V19.5443H81.2413V17.9718L83.1319 17.4102V19.5443H85.2449V21.0045Z" fill="white"/>
<path d="M94.7537 23.8138C94.7537 25.1617 94.3644 26.2287 93.6415 27.1273C92.863 28.0259 91.8065 28.4752 90.472 28.4752C89.193 28.4752 88.1921 28.0259 87.4692 27.1835C86.7463 26.3411 86.3571 25.274 86.3571 23.9823C86.3571 22.6344 86.7463 21.5111 87.5248 20.6687C88.3033 19.8263 89.3598 19.377 90.6388 19.377C91.9177 19.377 92.9186 19.8263 93.6971 20.6687C94.3644 21.455 94.7537 22.522 94.7537 23.8138ZM92.7518 23.8699C92.7518 23.0837 92.585 22.4097 92.2514 21.7919C91.8621 21.118 91.3061 20.7248 90.5276 20.7248C89.7491 20.7248 89.193 21.0618 88.8038 21.7919C88.4701 22.3536 88.3033 23.0837 88.3033 23.8699C88.3033 24.6562 88.4701 25.3302 88.8038 25.9479C89.193 26.6219 89.8047 26.9589 90.5276 26.9589C91.2504 26.9589 91.8065 26.6219 92.2514 25.8918C92.585 25.3863 92.7518 24.7124 92.7518 23.8699Z" fill="white"/>
<path d="M100.926 21.2308C100.759 21.1746 100.537 21.1746 100.314 21.1746C99.6471 21.1746 99.1466 21.4554 98.7574 21.9609C98.4237 22.4102 98.2569 22.9718 98.2569 23.7019V28.2511H96.3663V22.2979C96.3663 21.287 96.3663 20.3884 96.3107 19.5459H97.9789L98.0345 21.2308H98.0901C98.3125 20.6692 98.5905 20.2199 99.0354 19.8829C99.4803 19.5459 99.9251 19.4336 100.426 19.4336C100.592 19.4336 100.759 19.4336 100.926 19.4898V21.2308Z" fill="white"/>
<path d="M109.489 23.4773C109.489 23.8143 109.489 24.0951 109.434 24.3759H103.706C103.706 25.2183 103.984 25.8923 104.54 26.3416C105.041 26.7347 105.653 26.9593 106.431 26.9593C107.265 26.9593 108.044 26.847 108.767 26.5662L109.045 27.9141C108.21 28.2511 107.265 28.4757 106.153 28.4757C104.818 28.4757 103.762 28.0826 103.039 27.2963C102.261 26.51 101.871 25.443 101.871 24.0951C101.871 22.8033 102.205 21.6801 102.928 20.8377C103.651 19.8829 104.652 19.4336 105.931 19.4336C107.154 19.4336 108.099 19.8829 108.767 20.8377C109.211 21.5116 109.489 22.4102 109.489 23.4773ZM107.654 22.9718C107.654 22.4102 107.543 21.9047 107.265 21.5116C106.932 20.95 106.431 20.7253 105.764 20.7253C105.152 20.7253 104.652 21.0061 104.262 21.5116C103.929 21.9047 103.762 22.4102 103.706 23.028H107.654V22.9718Z" fill="white"/>
<path d="M37.4321 10.5H39.1421C40.4861 10.5 41.3921 9.636 41.3921 8.4C41.3921 7.164 40.4861 6.3 39.1421 6.3H37.4321V10.5ZM37.8761 10.116V6.684H39.1181C40.2341 6.684 40.9541 7.392 40.9541 8.4C40.9541 9.408 40.2341 10.116 39.1181 10.116H37.8761ZM42.5152 6.654C42.6952 6.654 42.8272 6.516 42.8272 6.342C42.8272 6.18 42.6892 6.048 42.5152 6.048C42.3412 6.048 42.2032 6.186 42.2032 6.348C42.2032 6.516 42.3412 6.654 42.5152 6.654ZM42.2992 10.5H42.7252V7.344H42.2992V10.5ZM44.7565 10.53C45.5785 10.53 46.0585 10.176 46.0585 9.63C46.0585 8.418 44.0125 9.06 44.0125 8.208C44.0125 7.908 44.2645 7.686 44.8345 7.686C45.1585 7.686 45.4885 7.764 45.7645 7.956L45.9505 7.614C45.6865 7.434 45.2425 7.32 44.8345 7.32C44.0305 7.32 43.5865 7.704 43.5865 8.22C43.5865 9.468 45.6325 8.82 45.6325 9.642C45.6325 9.954 45.3865 10.158 44.7865 10.158C44.3425 10.158 43.9165 10.002 43.6645 9.804L43.4725 10.14C43.7305 10.362 44.2345 10.53 44.7565 10.53ZM48.4721 7.32C47.9501 7.32 47.5121 7.548 47.2541 7.968V7.344H46.8461V11.664H47.2721V9.906C47.5361 10.314 47.9681 10.53 48.4721 10.53C49.3721 10.53 50.0441 9.882 50.0441 8.922C50.0441 7.968 49.3721 7.32 48.4721 7.32ZM48.4421 10.152C47.7701 10.152 47.2661 9.66 47.2661 8.922C47.2661 8.19 47.7701 7.692 48.4421 7.692C49.1081 7.692 49.6181 8.19 49.6181 8.922C49.6181 9.66 49.1081 10.152 48.4421 10.152ZM52.2025 10.53C53.1265 10.53 53.8045 9.858 53.8045 8.922C53.8045 7.986 53.1265 7.32 52.2025 7.32C51.2785 7.32 50.5945 7.986 50.5945 8.922C50.5945 9.858 51.2785 10.53 52.2025 10.53ZM52.2025 10.152C51.5305 10.152 51.0265 9.66 51.0265 8.922C51.0265 8.184 51.5305 7.692 52.2025 7.692C52.8745 7.692 53.3725 8.184 53.3725 8.922C53.3725 9.66 52.8745 10.152 52.2025 10.152ZM56.2822 7.32C55.7362 7.32 55.3102 7.542 55.0822 7.926V7.344H54.6742V10.5H55.1002V8.844C55.1002 8.124 55.5262 7.704 56.2042 7.704C56.8042 7.704 57.1522 8.046 57.1522 8.712V10.5H57.5782V8.67C57.5782 7.764 57.0502 7.32 56.2822 7.32ZM58.5607 6.858H58.9807L59.9527 6.114H59.3827L58.5607 6.858ZM58.7347 10.5H59.1607V7.344H58.7347V10.5ZM62.5781 7.344L61.3841 10.032L60.2021 7.344H59.7581L61.1561 10.5H61.5941L62.9981 7.344H62.5781ZM66.2641 8.922C66.2641 7.974 65.6221 7.32 64.7341 7.32C63.8461 7.32 63.1921 7.986 63.1921 8.922C63.1921 9.858 63.8641 10.53 64.8481 10.53C65.3461 10.53 65.7841 10.35 66.0661 10.014L65.8261 9.738C65.5861 10.014 65.2441 10.152 64.8601 10.152C64.1701 10.152 63.6661 9.714 63.6181 9.054H66.2581C66.2581 9.006 66.2641 8.958 66.2641 8.922ZM64.7341 7.686C65.3521 7.686 65.8021 8.118 65.8561 8.736H63.6181C63.6721 8.118 64.1221 7.686 64.7341 7.686ZM67.1312 10.5H67.5572V6.048H67.1312V10.5ZM71.9208 7.32C71.3748 7.32 70.9488 7.542 70.7208 7.926V7.344H70.3128V10.5H70.7388V8.844C70.7388 8.124 71.1648 7.704 71.8428 7.704C72.4428 7.704 72.7908 8.046 72.7908 8.712V10.5H73.2168V8.67C73.2168 7.764 72.6888 7.32 71.9208 7.32ZM75.4774 7.32C74.9794 7.32 74.5114 7.476 74.1934 7.746L74.3854 8.064C74.6434 7.836 75.0274 7.692 75.4354 7.692C76.0234 7.692 76.3294 7.986 76.3294 8.526V8.718H75.3274C74.4214 8.718 74.1094 9.126 74.1094 9.612C74.1094 10.158 74.5474 10.53 75.2614 10.53C75.7834 10.53 76.1554 10.332 76.3474 10.008V10.5H76.7554V8.544C76.7554 7.728 76.2934 7.32 75.4774 7.32ZM75.3274 10.194C74.8234 10.194 74.5294 9.966 74.5294 9.6C74.5294 9.276 74.7274 9.036 75.3394 9.036H76.3294V9.552C76.1614 9.966 75.8074 10.194 75.3274 10.194Z" fill="white"/>
</svg>
