<svg width="64" height="64" viewBox="0 0 64 64" fill="none" xmlns="http://www.w3.org/2000/svg">
<path fill-rule="evenodd" clip-rule="evenodd" d="M30.6667 52.52V62.12L34.4801 60.28C48.1601 53.6933 57.3334 40.4133 57.3334 27.2133C57.3334 13.24 45.9734 1.88 32.0001 1.88C18.0267 1.88 6.66675 13.24 6.66675 27.2133C6.66675 40.7333 17.3067 51.8267 30.6667 52.52ZM12.0001 27.2133C12.0001 16.1733 20.9601 7.21334 32.0001 7.21334C43.0401 7.21334 52.0001 16.1733 52.0001 27.2133C52.0001 37.1333 45.7067 47.2133 36.0001 53.3467V47.2133H32.0001C20.9601 47.2133 12.0001 38.2533 12.0001 27.2133ZM34.6667 37.88V43.2133H29.3334V37.88H34.6667ZM34.0546 25.4045C31.8457 27.0976 29.3334 29.0233 29.3334 33.88H34.6667C34.6667 30.959 36.5628 29.302 38.5088 27.6014C40.56 25.8089 42.6667 23.9678 42.6667 20.5467C42.6667 14.6533 37.8934 9.88 32.0001 9.88C26.1067 9.88 21.3334 14.6533 21.3334 20.5467H26.6667C26.6667 17.6133 29.0667 15.2133 32.0001 15.2133C34.9334 15.2133 37.3334 17.6133 37.3334 20.5467C37.3334 22.8912 35.7874 24.0763 34.0546 25.4045Z" fill="white"/>
</svg>
