<svg width="64" height="64" viewBox="0 0 64 64" fill="none" xmlns="http://www.w3.org/2000/svg">
<path fill-rule="evenodd" clip-rule="evenodd" d="M40.0001 5.33337H16.0001C13.7867 5.33337 11.8934 6.66671 11.0934 8.58671L3.04008 27.3867C2.80008 28 2.66675 28.64 2.66675 29.3334V34.6667C2.66675 37.6 5.06675 40 8.00008 40H24.8267L22.2934 52.1867L22.2134 53.04C22.2134 54.1334 22.6667 55.1467 23.3867 55.8667L26.2134 58.6667L43.7867 41.0934C44.7467 40.1334 45.3334 38.8 45.3334 37.3334V10.6667C45.3334 7.73337 42.9334 5.33337 40.0001 5.33337ZM40.0001 37.3334L28.4267 48.9067L32.0001 34.6667H8.00008V29.3334L16.0001 10.6667H40.0001V37.3334ZM61.3334 5.33337H50.6667V37.3334H61.3334V5.33337Z" fill="white"/>
</svg>
