<svg width="80" height="80" viewBox="0 0 80 80" fill="none" xmlns="http://www.w3.org/2000/svg">
<path fill-rule="evenodd" clip-rule="evenodd" d="M61.6668 3.33331H28.3334C24.6667 3.33331 21.6667 6.33331 21.6667 9.99998V20H28.3334V13.3333H61.6668V66.6666H28.3334V60H21.6667V70C21.6667 73.6666 24.6667 76.6666 28.3334 76.6666H61.6668C65.3334 76.6666 68.3334 73.6666 68.3334 70V9.99998C68.3334 6.33331 65.3334 3.33331 61.6668 3.33331ZM34.3334 36.6666V31.6666C34.3334 27 29.6667 23.3333 25.0001 23.3333C20.3334 23.3333 15.6667 27 15.6667 31.6666V36.6666C13.6667 36.6666 11.6667 38.6666 11.6667 40.6666V52.3333C11.6667 54.6666 13.6667 56.6666 15.6667 56.6666H34.0001C36.3334 56.6666 38.3334 54.6666 38.3334 52.6666V41C38.3334 38.6666 36.3334 36.6666 34.3334 36.6666ZM20.0001 36.6666H30.0001V31.6666C30.0001 29 27.6667 27.3333 25.0001 27.3333C22.3334 27.3333 20.0001 29 20.0001 31.6666V36.6666Z" fill="white"/>
</svg>
