<svg width="64" height="64" viewBox="0 0 64 64" fill="none" xmlns="http://www.w3.org/2000/svg">
<path fill-rule="evenodd" clip-rule="evenodd" d="M6.24047 2.47998L2.48047 6.23998L7.84047 11.6L7.8138 56.9066L18.4805 46.24H42.4805L57.7605 61.52L61.5205 57.76L6.24047 2.47998ZM55.8138 40.9066V8.90665H20.2405L14.9071 3.57331H55.8138C58.7471 3.57331 61.1471 5.97331 61.1471 8.90665V40.9066C61.1471 43.3066 59.5205 45.3333 57.3338 46L52.2405 40.9066H55.8138ZM23.8138 30.24H18.4805V35.5733H23.8138V30.24ZM50.4805 22.24H33.5738L38.9071 27.5733H50.4805V22.24ZM29.1471 14.24H50.4805V19.5733H30.9071L29.1471 17.8133V14.24ZM13.1471 44.0266L16.2671 40.9066H37.1471L23.8138 27.5733H18.4805V22.24L13.1471 16.9066V44.0266Z" fill="white"/>
</svg>
