<svg width="64" height="64" viewBox="0 0 64 64" fill="none" xmlns="http://www.w3.org/2000/svg">
<path fill-rule="evenodd" clip-rule="evenodd" d="M53.3333 5.33337H5.33333C2.37333 5.33337 0 7.70671 0 10.6667V42.6667C0 45.6 2.37333 48 5.33333 48H24V53.3334H18.6667V58.6667H40V53.3334H34.6667V48H40V42.6667H5.33333V10.6667H53.3333V24H58.6667V10.6667C58.6667 7.70671 56.2667 5.33337 53.3333 5.33337ZM48 29.3334L61.3333 29.36C62.8 29.36 64 30.5334 64 32V56C64 57.4667 62.8 58.6667 61.3333 58.6667H48C46.5333 58.6667 45.3333 57.4667 45.3333 56V32C45.3333 30.5334 46.5333 29.3334 48 29.3334ZM48 53.3334H61.3333V34.6667H48V53.3334ZM29.3333 16L31.92 24H40L33.4133 28.6934L35.92 36.4534L29.3333 31.6534L22.7467 36.4534L25.2533 28.6934L18.6667 24H26.7467L29.3333 16Z" fill="white"/>
</svg>
