<svg width="64" height="64" viewBox="0 0 64 64" fill="none" xmlns="http://www.w3.org/2000/svg">
<path d="M33.0401 29.0667C26.9868 27.4933 25.0401 25.8667 25.0401 23.3333C25.0401 20.4267 27.7334 18.4 32.2401 18.4C36.9868 18.4 38.7468 20.6667 38.9068 24H44.8001C44.6134 19.4133 41.8134 15.2 36.2401 13.84V8H28.2401V13.76C23.0668 14.88 18.9068 18.24 18.9068 23.3867C18.9068 29.5467 24.0001 32.6133 31.4401 34.4C38.1068 36 39.4401 38.3467 39.4401 40.8267C39.4401 42.6667 38.1334 45.6 32.2401 45.6C26.7468 45.6 24.5868 43.1467 24.2934 40H18.4268C18.7468 45.84 23.1201 49.12 28.2401 50.2133V56H36.2401V50.2667C41.4401 49.28 45.5734 46.2667 45.5734 40.8C45.5734 33.2267 39.0934 30.64 33.0401 29.0667Z" fill="white"/>
</svg>
