<svg width="799" height="421" viewBox="0 0 799 421" fill="none" xmlns="http://www.w3.org/2000/svg">
<path d="M798.144 402.799H0.9999" stroke="black" stroke-width="1.6113" stroke-miterlimit="10" stroke-linecap="round" stroke-linejoin="round"/>
<path d="M436.86 282.652C432.963 280.2 428.678 278.767 424.254 278.259C417.987 268.005 409.094 261.592 399.222 261.592C388.686 261.592 379.263 268.891 372.963 280.37C370.557 280.947 368.154 281.717 365.777 282.711C345.268 291.276 334.57 312.411 341.882 329.918C344.773 336.84 350.054 342.149 356.639 345.52C356.418 357.258 362.167 369.767 373.06 378.573C390.347 392.542 414.026 391.905 425.952 377.151C432.409 369.163 434.085 358.675 431.536 348.521C436.506 345.148 440.984 340.601 444.504 335.007C456.342 316.195 452.92 292.757 436.86 282.652Z" fill="#48C06A"/>
<path d="M723.059 356.554C763.709 299.95 721.059 253.932 679.234 274.605C679.624 264.173 675.416 254.697 667.157 249.927C662.171 247.049 656.438 246.314 650.733 247.395C642.343 203.785 609.988 171.251 571.261 171.251C535.772 171.251 505.656 198.594 494.401 236.72C484.527 226.268 471.977 221.683 461.795 226.16C447.659 232.379 443.317 253.752 451.605 274.584C447.443 273.116 443.055 272.291 438.501 272.291C414.626 272.291 394.978 293.96 392.277 321.866C384.346 314.086 374.429 309.408 363.63 309.408C337.699 309.408 316.675 336.107 316.675 369.042C316.675 381.278 319.589 392.649 324.567 402.115H752.379C761.85 368.461 747.794 357.386 723.059 356.554Z" fill="#6FDC8C"/>
<path d="M399.372 364.609C397.834 346.818 426.033 314.324 461.828 332.807" stroke="black" stroke-width="1.6113" stroke-miterlimit="10" stroke-linecap="round" stroke-linejoin="round"/>
<path d="M614.728 339.256C630.424 317.351 669.036 306.971 681.61 331.821" stroke="black" stroke-width="1.6113" stroke-miterlimit="10" stroke-linecap="round" stroke-linejoin="round"/>
<path d="M603.322 283.359C605.781 282.61 618.234 284.425 624.197 294.529" stroke="black" stroke-width="1.6113" stroke-miterlimit="10" stroke-linecap="round" stroke-linejoin="round"/>
<path d="M168.017 141.164H201.443V402.786H168.017V141.164Z" fill="white" stroke="black" stroke-width="1.6113" stroke-miterlimit="10" stroke-linecap="round" stroke-linejoin="round"/>
<path d="M490.909 140.442H524.334V402.811H490.909V140.442Z" fill="white" stroke="black" stroke-width="1.6113" stroke-miterlimit="10" stroke-linecap="round" stroke-linejoin="round"/>
<path d="M144.637 210.244H547.722V248.231H144.637V210.244Z" fill="#0079C8"/>
<path d="M144.637 159.056H547.722V197.044H144.637V159.056Z" fill="#0079C8"/>
<path d="M129.954 262.795H562.424V286.772H129.954V262.795Z" fill="#0079C8"/>
<path d="M280.941 146.364C275.336 134.813 257.11 130.89 267.808 117.866C274.602 109.594 287.739 108.934 294.604 108.105C305.18 106.831 315.842 106.207 326.489 105.997C337.303 105.781 348.646 105.642 358.936 107.083C371.319 108.818 382.489 111.535 390.964 122.323C396.962 129.956 389.483 139.581 385.758 147.383C383.272 152.595 376.096 161.365 373.046 166.272C373.046 166.272 382.417 238.783 386.874 260.103C366.921 260.026 282.738 272.575 268.948 262.113C271.916 242.698 279.857 169.155 279.857 169.155L280.941 146.364Z" fill="white"/>
<path d="M340.191 222.266H315.655C313.403 222.266 311.58 220.443 311.58 218.194V168.584C311.58 166.335 313.403 164.512 315.655 164.512H340.191C342.44 164.512 344.263 166.335 344.263 168.584V218.194C344.263 220.443 342.44 222.266 340.191 222.266Z" fill="#0D1846"/>
<path d="M316.67 169.566H323.957V176.852H316.67V169.566Z" fill="#0079C8"/>
<path d="M343.615 105.933C330.909 103.717 320.778 104.957 310.437 106.654C315.133 117.982 337.392 118.685 343.615 105.933Z" fill="#B9956E"/>
<path d="M344.371 199.583L341.27 199.337C343.367 199.373 346.838 199.599 346.995 196.662C347.121 195.085 345.945 193.709 344.371 193.583L323.863 191.958C328.373 189.19 334.155 188.194 339.323 188.551C342.841 188.721 343.3 183.224 339.76 182.854C338.089 182.623 335.652 182.359 333.752 182.41C326.941 182.597 319.834 184.746 313.878 188.418C313.308 189.511 307.069 203.034 301.737 202.939C300.096 208.667 303.963 221.175 303.963 221.175C307.842 218.282 322.063 213.119 327.937 210.346L340.954 209.85C343.557 209.832 343.935 205.814 341.357 205.334L344.186 205.293C347.711 205.309 347.919 199.796 344.371 199.583Z" fill="#B9956E"/>
<path d="M307.629 113.303C307.629 113.303 285.986 109.622 277.685 111.727C262.946 115.468 243.731 146.726 233.69 179.743C230.427 190.475 269.12 200.585 269.12 200.585C269.12 200.585 276.414 174.947 281.98 156.772C284.05 150.01 295.991 142.423 295.991 142.423L307.629 113.303Z" fill="white"/>
<path d="M233.4 181.163C231.415 190.488 223.816 222.652 234.856 227.718C248.119 233.8 310.61 220.629 310.61 220.629C310.61 220.629 309.852 204.86 306.414 197.956C285.68 199.394 269.243 199.332 269.243 199.332C269.243 199.332 240.103 149.638 233.4 181.163Z" fill="white"/>
<path d="M273.357 227.077C298.425 224.343 310.595 220.643 310.595 220.643C310.595 220.643 309.837 204.871 306.4 197.968C293.745 198.846 272.692 199.665 262.659 199.344" stroke="black" stroke-width="1.6113" stroke-miterlimit="10" stroke-linecap="round" stroke-linejoin="round"/>
<path d="M269.646 198.74C270.965 195.12 280.985 158.833 281.675 156.587" stroke="black" stroke-width="1.6113" stroke-miterlimit="10" stroke-linecap="round" stroke-linejoin="round"/>
<path d="M356.567 222.8C358.508 222.504 381.469 218.43 386.514 214.122C386.945 213.752 387.261 213.269 387.422 212.725C388.827 208.05 383.815 189.554 373.594 164.545C366.164 146.358 351.366 105.662 364.056 108.137C388.909 112.984 394.547 122.891 410.699 163.87C414.539 173.618 433.782 217.177 428.568 230.997C421.536 249.629 403.089 251.703 392.139 252.561C380.496 253.477 364.3 251.511 351.335 251.334C357.204 238.117 355.712 222.93 356.567 222.8Z" fill="white"/>
<path d="M356.55 222.788C358.491 222.493 381.451 218.419 386.496 214.11C386.927 213.741 387.243 213.258 387.405 212.714C388.809 208.039 378.824 181.255 369.862 155.766" stroke="black" stroke-width="1.6113" stroke-miterlimit="10" stroke-linecap="round" stroke-linejoin="round"/>
<path d="M387.407 212.719C387.242 213.266 386.929 213.746 386.495 214.118C385.235 215.191 382.86 216.252 379.974 217.245C376.346 191.954 373.73 168.051 373.247 165.353C382.274 191.299 388.801 208.079 387.407 212.719ZM269.47 199.299C270.821 194.567 275.701 177.538 280.14 162.783C280.14 162.783 278.402 182.449 276.523 199.224C272.726 199.294 270.21 199.299 269.47 199.299ZM410.68 163.866C403.35 145.265 398.185 133.08 392.405 124.852C392.051 123.989 391.589 123.142 390.945 122.323C382.47 111.535 371.299 108.818 358.914 107.083C348.626 105.642 337.283 105.781 326.469 105.997C315.822 106.207 305.16 106.831 294.585 108.105C288.087 108.888 275.981 109.535 268.944 116.61C256.41 126.99 242.708 151.373 234.456 177.247C234.266 177.779 234.089 178.357 233.919 178.96C233.837 179.219 233.753 179.481 233.673 179.743C233.611 179.943 233.593 180.143 233.563 180.344C233.501 180.606 233.437 180.857 233.38 181.129C231.396 190.457 223.794 222.619 234.836 227.684C240.916 230.472 257.342 229.212 273.352 227.032C271.637 241.72 269.974 255.276 268.929 262.113C282.718 272.575 366.901 260.026 386.855 260.103C386.434 258.09 385.969 255.618 385.471 252.796C387.805 252.788 390.038 252.722 392.123 252.557C403.07 251.697 421.517 249.625 428.549 230.991C433.764 217.173 414.524 173.612 410.68 163.866Z" stroke="black" stroke-width="1.6113" stroke-miterlimit="10" stroke-linecap="round" stroke-linejoin="round"/>
<path d="M343.61 105.943C343.61 115.383 342.521 121.958 333.271 123.704L326.919 150.903L320.747 124.397C311.497 122.654 310.336 116.076 310.336 106.636L343.61 105.943Z" fill="#B9956E"/>
<path d="M341.772 229.978L364.496 229.021C366.075 228.954 367.405 230.178 367.471 231.755C367.538 233.331 366.313 234.664 364.737 234.73C364.693 234.733 364.64 234.733 364.593 234.733L341.849 234.548C340.585 234.538 339.571 233.506 339.582 232.243C339.592 231.023 340.565 230.032 341.772 229.978Z" fill="#DEBF9F"/>
<path d="M290.623 358.351H316.153V376.156H290.623V358.351Z" fill="#B9956E"/>
<path d="M289.24 373.478C289.24 373.478 286.153 389.923 283.398 394.76C278.69 403.028 327.36 404.879 322.864 395.949C320.684 391.618 316.242 373.733 316.242 373.733C316.242 373.733 305.726 375.041 295.317 373.661" fill="white"/>
<path d="M289.24 373.478C289.24 373.478 286.153 389.923 283.398 394.76C278.69 403.028 327.36 404.879 322.864 395.949C320.684 391.618 316.242 373.733 316.242 373.733C316.242 373.733 305.726 375.041 295.317 373.661" stroke="black" stroke-width="1.6113" stroke-miterlimit="10" stroke-linecap="round" stroke-linejoin="round"/>
<path d="M305.477 388.886C294.619 387.617 279.328 392.239 279.328 400.806C279.328 401.884 280.321 402.742 281.489 402.742C281.489 402.742 310.558 402.429 323.161 402.742C324.809 402.783 325.88 401.617 325.88 400.231C325.88 393.689 318.514 391.53 313.518 391.248" fill="white"/>
<path d="M305.477 388.886C294.619 387.617 279.328 392.239 279.328 400.806C279.328 401.884 280.321 402.742 281.489 402.742C281.489 402.742 310.558 402.429 323.161 402.742C324.809 402.783 325.88 401.617 325.88 400.231C325.88 393.689 318.514 391.53 313.518 391.248" stroke="black" stroke-width="1.6113" stroke-miterlimit="10" stroke-linecap="round" stroke-linejoin="round"/>
<path d="M295.253 385.416C300.511 384.538 305.602 384.51 310.55 385.416" stroke="black" stroke-width="1.6113" stroke-miterlimit="10" stroke-linecap="round" stroke-linejoin="round"/>
<path d="M295.253 382.178C300.352 380.468 305.451 380.468 310.55 382.178" stroke="black" stroke-width="1.6113" stroke-miterlimit="10" stroke-linecap="round" stroke-linejoin="round"/>
<path d="M295.253 378.594C300.239 377.179 305.343 377.161 310.55 378.594" stroke="black" stroke-width="1.6113" stroke-miterlimit="10" stroke-linecap="round" stroke-linejoin="round"/>
<path d="M218.781 234.165L213.63 262.495L242.936 265.102L248.088 236.769L218.781 234.165Z" fill="#B9956E"/>
<path d="M233.38 233.881L209.862 227.833C208.039 227.378 206.206 228.541 205.839 230.382C205.839 230.382 199.575 258.878 198.768 265.935C197.962 272.993 191.015 304.914 191.015 304.914C190.473 307.648 192.689 310.126 195.469 309.918C200.961 309.504 203.898 305.029 210.101 294.48C218.255 280.616 223.685 269.222 226.902 266.036C227.462 258.639 228.132 251.735 229.233 244.398" fill="white"/>
<path d="M233.38 233.881L209.862 227.833C208.039 227.378 206.206 228.541 205.839 230.382C205.839 230.382 199.575 258.878 198.768 265.935C197.962 272.993 191.015 304.914 191.015 304.914C190.473 307.648 192.689 310.126 195.469 309.918C200.961 309.504 203.898 305.029 210.101 294.48C218.255 280.616 223.685 269.222 226.902 266.036C227.462 258.639 228.132 251.735 229.233 244.398" stroke="black" stroke-width="1.6113" stroke-miterlimit="10" stroke-linecap="round" stroke-linejoin="round"/>
<path d="M222.98 273.668C222.98 273.668 221.228 271.439 218.148 269.602L222.98 273.668Z" fill="white"/>
<path d="M222.98 273.668C222.98 273.668 221.228 271.439 218.148 269.602" stroke="black" stroke-width="1.6113" stroke-miterlimit="10" stroke-linecap="round" stroke-linejoin="round"/>
<path d="M220.352 277.84C220.352 277.84 218.6 275.611 215.52 273.774L220.352 277.84Z" fill="white"/>
<path d="M220.352 277.84C220.352 277.84 218.6 275.611 215.52 273.774" stroke="black" stroke-width="1.6113" stroke-miterlimit="10" stroke-linecap="round" stroke-linejoin="round"/>
<path d="M217.805 282.333C217.805 282.333 216.053 280.104 212.973 278.267L217.805 282.333Z" fill="white"/>
<path d="M217.805 282.333C217.805 282.333 216.053 280.104 212.973 278.267" stroke="black" stroke-width="1.6113" stroke-miterlimit="10" stroke-linecap="round" stroke-linejoin="round"/>
<path d="M197.496 303.393C201.36 280.351 206.486 257.545 212.852 235.074L197.496 303.393Z" fill="white"/>
<path d="M197.496 303.393C201.36 280.351 206.486 257.545 212.852 235.074" stroke="black" stroke-width="1.6113" stroke-miterlimit="10" stroke-linecap="round" stroke-linejoin="round"/>
<path d="M261.278 254.615C262.494 287.388 285.018 361.322 288.307 370.133C292.584 370.161 314.459 369.971 318.736 370C322.341 330.007 319.799 310.11 316.908 252.751C315.881 246.779 316.523 223.026 291.288 224.6C266.569 226.143 260.844 242.975 261.278 254.615Z" fill="#8A3FF5"/>
<path d="M424.514 276.609C413.059 279.217 245.637 272.069 232.288 266.009C232.021 257.739 231.403 235.519 231.076 228.438C235.663 227.174 399.156 204.711 427.898 222.114C449.516 235.204 447.686 271.332 424.514 276.609Z" fill="#8A3FF5"/>
<path d="M261.816 274.348L319.399 276.091" stroke="black" stroke-width="1.6113" stroke-miterlimit="10" stroke-linecap="round" stroke-linejoin="round"/>
<path d="M303.276 72.2044C303.276 72.2044 281.826 53.7114 284.491 40.9822C287.153 28.253 296.814 25.0283 298.447 21.5469C300.083 18.0629 295.867 6.81513 305.04 2.55324C318.075 -3.50071 323.13 10.0578 328.221 10.5995C331.808 10.982 349.117 1.71369 356.324 6.99742C363.528 12.2811 360.928 27.339 362.768 29.778C364.609 32.2145 377.698 44.7973 353.741 66.0067C329.785 87.216 303.276 72.2044 303.276 72.2044Z" fill="black" stroke="black" stroke-width="0.460372" stroke-miterlimit="10"/>
<path d="M323.074 13.9489C325.256 12.8243 347.677 -4.57753 357.662 4.49055C365.598 11.6998 360.987 34.1158 360.217 36.6319" stroke="black" stroke-width="1.6113" stroke-miterlimit="10" stroke-linecap="round" stroke-linejoin="round"/>
<path d="M310.34 71.5236H343.613V108.168H310.34V71.5236Z" fill="#B9956E"/>
<path d="M311.2 65.7033C311.2 60.8945 307.302 56.9946 302.491 56.9946C297.682 56.9946 293.782 60.8945 293.782 65.7033C293.782 70.512 297.682 74.4119 302.491 74.4119C307.302 74.4119 311.2 70.512 311.2 65.7033Z" fill="#B9956E"/>
<path d="M358.917 65.7033C358.917 60.8945 355.02 56.9946 350.209 56.9946C345.4 56.9946 341.5 60.8945 341.5 65.7033C341.5 70.512 345.4 74.4119 350.209 74.4119C355.02 74.4119 358.917 70.512 358.917 65.7033Z" fill="#B9956E"/>
<path d="M351.92 57.1315C351.912 56.9852 351.884 56.7618 351.84 56.4922C350.849 37.1725 339.845 27.3958 326.405 27.3958C312.885 27.3958 301.83 37.2855 300.952 56.8286C300.934 56.8927 300.926 56.9621 300.936 57.0417C300.936 57.0519 300.939 57.0596 300.939 57.0699C300.91 57.8196 300.89 58.5795 300.89 59.3575C300.89 63.6835 301.37 67.8376 302.245 71.7195C302.42 74.3614 302.623 76.726 303.172 79.9044C305.94 95.8685 314.068 100.688 326.751 100.688H327.216C339.902 100.688 349.74 92.5437 350.795 79.9044C351.342 73.3909 352.207 62.8081 351.92 57.1315Z" fill="#B9956E"/>
<path d="M326.275 18.4101C318.088 18.4101 310.509 26.7619 305.844 35.7966C315.259 33.2189 327.01 54.2947 346.422 49.7299C345.87 54.0585 348.704 59.7248 351.772 59.332C351.772 59.332 353.002 49.1625 351.772 44.4333C347.957 29.7657 336.925 18.4101 326.275 18.4101Z" fill="black"/>
<path d="M326.275 18.4101C318.088 18.4101 310.509 26.7619 305.844 35.7966C315.259 33.2189 327.01 54.2947 346.422 49.7299C345.87 54.0585 348.704 59.7248 351.772 59.332C351.772 59.332 353.002 49.1625 351.772 44.4333C347.957 29.7657 336.925 18.4101 326.275 18.4101Z" stroke="black" stroke-width="0.460372" stroke-miterlimit="10"/>
<path d="M301.335 69.1817C309.563 62.1008 308.372 38.3677 306.513 35.8208C302.077 41.7284 300.729 47.3973 300.729 56.2754C300.729 59.3717 300.875 66.2985 301.335 69.1817Z" fill="black" stroke="black" stroke-width="0.460372" stroke-miterlimit="10"/>
<path d="M304.138 35.4193C305.899 35.5219 308.174 36.0688 311.086 38.6285C313.679 40.9109 317.235 46.3076 321.997 48.4899C326.757 50.6722 330.318 51.2037 334.159 50.6414" stroke="black" stroke-width="1.6113" stroke-miterlimit="10" stroke-linecap="round" stroke-linejoin="round"/>
<path d="M300.287 57.1794C300.287 57.1794 302.18 79.9677 302.398 84.2963C303.081 97.806 313.553 103.578 326.593 103.578H327.071C340.11 103.578 350.221 97.0332 350.781 84.3708C351.099 77.123 353.335 54.06 353.335 54.06C353.335 54.06 350.452 48.9174 350.19 51.1408C349.433 57.5542 346.359 79.8213 340.698 77.6442L336.596 76.1063C330.398 73.7828 323.543 73.7263 317.304 75.9445L312.521 77.6442C307.245 80.4863 303.019 58.0831 302.531 51.8289C302.254 48.2884 300.287 57.1794 300.287 57.1794Z" fill="black" stroke="black" stroke-width="0.460372" stroke-miterlimit="10"/>
<path d="M474.73 206.556V203.102H479.005L481.909 206.006" fill="white"/>
<path d="M474.73 206.556V203.102H479.005L481.909 206.006" stroke="black" stroke-width="1.6113" stroke-miterlimit="10" stroke-linecap="round" stroke-linejoin="round"/>
<path d="M506.522 212.089H474.735L477.714 261.858H503.544L506.522 212.089Z" fill="white" stroke="black" stroke-width="1.6113" stroke-miterlimit="10" stroke-linecap="round" stroke-linejoin="round"/>
<path d="M472.353 206.553H508.89V212.055H472.353V206.553Z" fill="white" stroke="black" stroke-width="1.6113" stroke-miterlimit="10" stroke-linecap="round" stroke-linejoin="round"/>
<path d="M367.933 213.854C297.348 327.967 147.244 326.382 89.8904 276.848" stroke="black" stroke-width="1.6113" stroke-miterlimit="10" stroke-linecap="round" stroke-linejoin="round"/>
<path d="M167.588 344.14C165.079 348.055 162.132 351.67 158.807 354.92C158.689 355.002 158.576 355.09 158.455 355.172C158.363 355.233 158.296 355.326 158.266 355.434C152.502 360.882 147.464 363.387 146.384 363.318C182.728 369.724 188.345 344.846 208.045 334.258C227.745 323.667 233.94 328.943 233.94 328.943C230.838 304.668 217.506 297.295 217.506 297.295C188.461 300.162 182.895 316.16 170.309 339.534" fill="#380400"/>
<path d="M158.007 357.567C157.661 357.567 157.322 357.408 157.104 357.105C156.744 356.607 156.86 355.911 157.358 355.555C169.245 346.995 172.677 335.688 175.704 325.711C176.752 322.26 177.74 319 179.011 316.15C183.286 306.584 189.52 299.508 196.12 296.74C196.688 296.502 197.335 296.769 197.574 297.333C197.812 297.901 197.545 298.55 196.981 298.789C190.896 301.341 185.086 308.001 181.042 317.056C179.825 319.778 178.857 322.974 177.83 326.355C174.857 336.16 171.155 348.358 158.657 357.357C158.459 357.501 158.231 357.567 158.007 357.567Z" fill="#380400"/>
<path d="M63.8517 394.77C57.7285 395.928 55.8286 398.498 55.4845 402.023H75.5822C78.242 400.11 80.4859 393.753 80.3396 383.191C80.165 370.385 80.8659 334.074 80.8659 334.074L54.1777 327.301C54.1777 327.301 63.3254 352.141 65.7798 366.349C68.2369 380.557 70.3421 393.54 63.8517 394.77Z" fill="#B9956E"/>
<path d="M90.6807 339.497C90.6807 339.497 84.5755 368.429 97.8464 377.453C111.117 386.477 116.427 382.762 118.817 387.009C121.205 391.255 116.958 393.379 110.321 392.316C103.685 391.255 93.5999 391.255 92.2725 402.139H124.388C130.758 402.139 148.278 371.879 147.746 351.176L90.6807 339.497Z" fill="#B9956E"/>
<path d="M37.801 278.015C37.2541 278.015 36.7766 277.612 36.7021 277.052C36.6662 276.79 36.6226 276.523 36.5789 276.246C36.0962 273.183 35.4364 268.991 40.8922 261.571C42.3119 259.64 44.009 257.699 45.6496 255.825C49.5238 251.396 53.5289 246.818 53.8036 242.415C53.8396 241.802 54.3839 241.34 54.9795 241.376C55.5931 241.414 56.0604 241.94 56.0219 242.554C55.701 247.714 51.4416 252.58 47.3235 257.288C45.7112 259.129 44.0449 261.034 42.6816 262.888C37.7779 269.561 38.3299 273.075 38.774 275.899C38.8203 276.192 38.8665 276.477 38.9024 276.754C38.9871 277.363 38.561 277.923 37.9525 278.005C37.9011 278.012 37.8498 278.015 37.801 278.015Z" fill="#380400"/>
<path d="M50.3546 253.698C49.3995 255.876 48.2698 257.971 46.9759 259.968C38.5265 272.731 42.1209 279.562 42.1209 279.562C51.4688 284.774 73.3996 280.102 73.3996 280.102C69.0735 270.787 67.6332 260.394 69.2661 250.258C71.9644 233.182 56.6832 216.823 56.6832 216.823C58.6319 220.72 56.8064 236.792 51.9618 249.775" fill="#380400"/>
<path d="M33.9881 216.094C34.7609 215.558 35.4156 214.862 35.9522 214.092C36.6428 213.096 37.1178 211.964 37.395 210.785C35.4823 210.184 33.5953 209.489 31.7467 208.7C30.4528 208.125 28.9354 208.708 28.3603 210.005C28.327 210.084 28.2936 210.164 28.2679 210.246C27.6569 212.082 26.9945 214.682 26.8584 217.563C29.377 217.653 31.9521 217.504 33.9881 216.094Z" fill="black"/>
<path d="M33.9881 216.094C34.7609 215.558 35.4156 214.862 35.9522 214.092C36.6428 213.096 37.1178 211.964 37.395 210.785C35.4823 210.184 33.5953 209.489 31.7467 208.7C30.4528 208.125 28.9354 208.708 28.3603 210.005C28.327 210.084 28.2936 210.164 28.2679 210.246C27.6569 212.082 26.9945 214.682 26.8584 217.563C29.377 217.653 31.9521 217.504 33.9881 216.094Z" stroke="black" stroke-width="0.460372" stroke-miterlimit="10"/>
<path d="M160.826 351.024C160.226 340.931 155.774 331.45 148.39 324.541C125.442 303.024 88.505 281.152 87.0724 255.693C85.6398 230.235 88.1481 223.781 77.0338 215.891C65.917 208.001 59.1056 214.815 47.2699 213.021C43.922 212.556 40.6203 211.816 37.4008 210.805C37.1209 211.983 36.6485 213.118 35.9579 214.112C35.4188 214.885 34.7666 215.58 33.9913 216.114C31.9553 217.526 29.3802 217.673 26.8642 217.583C26.5894 223.424 28.4996 230.412 37.5035 234.515C57.2237 243.498 55.6191 262.618 51.293 278.312C45.8245 298.148 40.6357 326.972 71.7527 341.083C74.5974 349.299 76.8849 357.697 78.5974 366.22C81.0518 380.431 83.1597 393.409 76.6693 394.639C70.4433 395.817 68.5794 398.449 68.2816 402.066H88.1533C90.9184 400.377 93.3061 393.948 93.1572 383.06C93.0622 376.077 93.2265 362.11 93.3985 350.847C96.6719 352.331 99.9223 353.802 103.096 355.245C103.247 363.566 105.057 372.965 111.65 377.45C124.921 386.475 130.231 382.76 132.618 387.006C135.008 391.253 130.759 393.376 124.125 392.315C117.491 391.253 107.401 391.253 106.076 402.136H138.192C141.925 402.136 150.405 392.172 155.92 379.404C158.385 373.561 159.976 367.386 160.649 361.08C160.747 357.26 160.906 354.153 160.826 351.024Z" fill="#DEBF9F"/>
<path d="M89.9011 271.38H52.9356C51.9343 269.008 52.7559 265.283 53.9934 262.795H89.9011V271.38Z" fill="#0079C8"/>
<path d="M68.1975 277.819C68.1975 281.393 65.2989 284.297 61.7174 284.297C58.1435 284.297 55.2424 281.393 55.2424 277.819C55.2424 274.243 58.1435 271.339 61.7174 271.339C65.2989 271.339 68.1975 274.243 68.1975 277.819Z" fill="white"/>
<path d="M55.2424 277.819C55.2424 274.242 58.1425 271.342 61.7199 271.342C65.2974 271.342 68.1975 274.242 68.1975 277.819C68.1975 281.397 65.2974 284.297 61.7199 284.297C58.1425 284.297 55.2424 281.397 55.2424 277.819Z" stroke="black" stroke-width="1.6113" stroke-miterlimit="10" stroke-linecap="round" stroke-linejoin="round"/>
<path d="M79.4233 246.707C78.4939 263.289 81.1127 274.555 91.9163 287.865C91.9163 287.865 105.578 288.406 121.395 273.485C121.398 273.485 115.465 259.644 104.14 253.351C92.8149 247.058 91.5569 238.07 88.5017 230.701C86.1962 225.143 82.5581 220.237 77.906 216.421C79.2154 217.98 81.6801 223.102 80.0524 238.971" fill="#380400"/>
<path d="M85.0434 296.224C84.7199 296.224 84.3989 296.083 84.1807 295.811C74.7429 284.16 77.5055 261.89 79.5209 245.628C80.1833 240.275 80.7584 235.649 80.8148 232.198C80.8251 231.584 81.3437 231.099 81.9471 231.104C82.5607 231.115 83.0485 231.62 83.0382 232.234C82.9792 235.805 82.3989 240.483 81.7263 245.903C79.7596 261.767 77.0639 283.495 85.906 294.414C86.2937 294.889 86.2192 295.59 85.7417 295.978C85.5363 296.142 85.2898 296.224 85.0434 296.224Z" fill="#380400"/>
</svg>
