<svg width="60" height="73" viewBox="0 0 60 73" fill="none" xmlns="http://www.w3.org/2000/svg">
<g clip-path="url(#clip0_454_161)">
<path d="M55.0572 36.6639L52.3861 42.2041C52.3117 42.3591 52.1947 42.4898 52.0489 42.5809C51.903 42.6721 51.7343 42.7199 51.5623 42.7188C51.331 42.7197 51.1078 42.6334 50.9373 42.4772C50.7667 42.321 50.6613 42.1063 50.6419 41.8759L48.9748 23.0227L45.422 38.5814C45.3837 38.7358 45.2998 38.8751 45.1813 38.9811C45.0627 39.0871 44.9149 39.1549 44.7572 39.1757C44.5995 39.1966 44.4392 39.1694 44.2972 39.0979C44.1551 39.0263 44.0379 38.9136 43.9609 38.7745L42.223 35.5572C41.5977 36.4167 40.7734 37.1121 39.8206 37.5839C38.8679 38.0556 37.8151 38.2897 36.7521 38.2661H22.5921L22.7852 36.6897H36.7779C37.7427 36.6961 38.6909 36.438 39.5193 35.9433C40.3477 35.4487 41.0246 34.7365 41.4764 33.8842C41.5758 33.6891 41.7163 33.5178 41.8883 33.3823C41.9802 33.3227 42.0834 33.2826 42.1915 33.2646C42.2995 33.2466 42.4101 33.251 42.5163 33.2776C42.6226 33.3041 42.7223 33.3523 42.8091 33.419C42.896 33.4857 42.9681 33.5696 43.0212 33.6654L44.3986 36.2071L48.2604 19.6574C48.3157 19.4248 48.4517 19.2193 48.6442 19.0775C48.8368 18.9358 49.0734 18.8669 49.312 18.8831C49.5506 18.8993 49.7758 18.9995 49.9474 19.1661C50.119 19.3326 50.2259 19.5546 50.2492 19.7925L52.045 39.6109L54.375 34.6435C54.4313 34.534 54.5124 34.4392 54.6119 34.3666C54.7113 34.294 54.8264 34.2456 54.9478 34.2252C55.0642 34.2098 55.1825 34.221 55.2939 34.2577C55.4054 34.2945 55.5071 34.356 55.5914 34.4376C55.7618 34.6277 55.8989 34.8453 55.9969 35.081C56.293 35.6473 56.8401 36.7025 57.5545 36.7025H58.4685V1.53125H1.53223V58.4578H58.4749V38.279H57.561C57.04 38.2475 56.536 38.0823 56.0974 37.7994C55.6589 37.5165 55.3006 37.1255 55.0572 36.6639Z" fill="#0079C8"/>
<path d="M1.9377 64.944H4.51225C6.05055 64.944 6.90017 65.8191 6.73926 67.1381C6.55904 68.6117 5.28463 69.3774 3.84288 69.3774H2.55561L2.29817 71.4879H1.14604L1.9377 64.944ZM4.01668 68.3543C4.37664 68.394 4.7382 68.2949 5.02763 68.0773C5.31706 67.8597 5.51255 67.5399 5.57427 67.1832C5.67082 66.4175 5.16878 66.0121 4.287 66.0121H2.94181L2.65217 68.3736L4.01668 68.3543ZM7.08041 69.0428C7.11965 68.3664 7.40864 67.7286 7.89144 67.2531C8.37423 66.7775 9.01645 66.4981 9.69358 66.469C10.0137 66.4538 10.3318 66.5268 10.6133 66.68C10.8947 66.8332 11.1287 67.0606 11.2898 67.3376L11.3863 66.5719H12.5191L11.9141 71.5201H10.7813L10.8778 70.69C10.6711 70.9753 10.4004 71.2082 10.0874 71.3702C9.77452 71.5322 9.42804 71.6188 9.07567 71.623C7.89781 71.6101 6.87444 70.6772 7.08041 69.0428ZM11.0774 69.0428C11.1219 68.8547 11.1234 68.659 11.0819 68.4702C11.0403 68.2815 10.9568 68.1045 10.8374 67.9524C10.7181 67.8003 10.566 67.6771 10.3925 67.5918C10.219 67.5066 10.0285 67.4615 9.83516 67.4599C9.41659 67.4738 9.01846 67.6441 8.71936 67.9371C8.42026 68.2302 8.24194 68.6247 8.21962 69.0428C8.17537 69.2298 8.17361 69.4244 8.21443 69.6123C8.25526 69.8001 8.33765 69.9764 8.45556 70.1282C8.57348 70.28 8.72392 70.4035 8.89582 70.4896C9.06773 70.5757 9.25675 70.6222 9.44899 70.6257C9.86567 70.6023 10.2599 70.4293 10.5591 70.1385C10.8583 69.8476 11.0423 69.4585 11.0774 69.0428ZM13.6905 66.559H14.8234L14.6882 67.6722C14.8525 67.3009 15.1242 66.9872 15.4683 66.7716C15.8124 66.5561 16.2133 66.4484 16.6191 66.4625L16.4711 67.6658H16.4067C15.4155 67.6658 14.6432 68.3092 14.4758 69.5962L14.2441 71.4815H13.1113L13.6905 66.559ZM17.1212 70.1366L17.443 67.5306H16.7993L16.9216 66.559H17.5653L17.7326 65.2013H18.8654L18.6981 66.559H20.0304L19.9146 67.5306H18.5822L18.2861 69.9565C18.2282 70.4005 18.4342 70.5999 18.8139 70.5999C19.0662 70.6022 19.3153 70.5448 19.5412 70.4326L19.4254 71.3592C19.1039 71.5345 18.7424 71.6232 18.3763 71.6166C17.5331 71.5909 16.986 71.1983 17.1212 70.1366ZM22.9139 69.0621C23.0172 68.3496 23.3729 67.698 23.9163 67.2256C24.4597 66.7532 25.1546 66.4916 25.8746 66.4883C26.2065 66.4695 26.5385 66.5254 26.8459 66.652C27.1532 66.7786 27.4283 66.9725 27.6507 67.2196C27.8731 67.4666 28.0372 67.7604 28.1308 68.0793C28.2245 68.3982 28.2453 68.7341 28.1917 69.0621C28.0869 69.7761 27.7289 70.4288 27.1832 70.9012C26.6374 71.3736 25.9401 71.6343 25.2181 71.6359C24.8894 71.6487 24.5619 71.5884 24.2593 71.4592C23.9568 71.33 23.6867 71.1352 23.4687 70.8889C23.2506 70.6426 23.09 70.3509 22.9986 70.035C22.9071 69.7191 22.8869 69.3867 22.9396 69.0621H22.9139ZM27.0589 69.0621C27.0989 68.8701 27.0958 68.6717 27.0498 68.481C27.0038 68.2904 26.9161 68.1123 26.793 67.9597C26.6698 67.807 26.5144 67.6836 26.3377 67.5983C26.1611 67.513 25.9678 67.4679 25.7717 67.4663C25.3454 67.4743 24.9372 67.6398 24.6258 67.9309C24.3144 68.222 24.1218 68.6181 24.0853 69.0428C24.0463 69.234 24.0502 69.4315 24.0967 69.621C24.1432 69.8105 24.2312 69.9873 24.3543 70.1387C24.4774 70.2901 24.6327 70.4123 24.8088 70.4965C24.9848 70.5807 25.1774 70.6248 25.3726 70.6257C25.8013 70.6243 26.2142 70.4635 26.5307 70.1744C26.8472 69.8853 27.0447 69.4888 27.0847 69.0621H27.0589ZM29.5498 67.5306H28.9062L29.022 66.5848H29.6657L29.7107 66.218C29.7445 65.7597 29.9408 65.3285 30.2642 65.0019C30.5884 64.7274 31.0051 64.5871 31.4292 64.6094C31.7344 64.6064 32.0382 64.6498 32.3303 64.7381L32.2145 65.6968C32.0091 65.6175 31.791 65.5761 31.5708 65.5746C31.1396 65.5746 30.8821 65.8062 30.8242 66.3209L30.7856 66.5976H32.0729L31.957 67.5306H30.6697L30.187 71.5072H29.0478L29.5498 67.5306ZM35.6129 64.9568H38.5543C38.8549 64.9306 39.1576 64.9694 39.4419 65.0704C39.7262 65.1715 39.9854 65.3324 40.202 65.5424C40.3318 65.6888 40.4265 65.8627 40.4789 66.0512C40.5313 66.2396 40.5401 66.4375 40.5046 66.6298C40.4643 66.9515 40.3394 67.2567 40.1426 67.5145C39.9459 67.7722 39.6844 67.9731 39.3846 68.0969C39.7417 68.1628 40.0585 68.3664 40.2668 68.6637C40.4751 68.961 40.5582 69.3283 40.4981 69.6862C40.3565 70.8573 39.3138 71.4879 37.8528 71.4879H34.8148L35.6129 64.9568ZM38.1166 68.6953H36.2887L36.0699 70.497H38.0008C38.786 70.497 39.2881 70.1881 39.3717 69.5962C39.449 69.0106 39.0499 68.6825 38.1424 68.6825L38.1166 68.6953ZM39.3331 66.8164C39.3911 66.3017 39.0177 65.9799 38.2776 65.9799H36.6492L36.4303 67.7237H38.0072C38.7474 67.7237 39.2945 67.4341 39.3524 66.8357L39.3331 66.8164ZM41.3735 69.7184L41.7597 66.5719H42.8924L42.5513 69.3838C42.4548 70.1495 42.783 70.5806 43.4588 70.5806C43.7883 70.5811 44.1055 70.4553 44.3449 70.2291C44.5844 70.0028 44.728 69.6934 44.7461 69.3645L45.0873 66.5719H46.2329L45.6215 71.5201H44.4822L44.5724 70.7479C44.3861 71.0148 44.1389 71.2334 43.8512 71.3856C43.5635 71.5378 43.2437 71.6191 42.9182 71.623C41.8111 71.6101 41.2576 70.8573 41.3992 69.7055L41.3735 69.7184ZM47.3915 66.5719H48.5243L48.4277 67.3955C48.6353 67.1131 48.9054 66.8824 49.2169 66.7216C49.5284 66.5609 49.8729 66.4744 50.2235 66.469C51.3885 66.469 52.4119 67.3827 52.2059 69.0428C52.1625 69.7177 51.8721 70.3531 51.3902 70.8278C50.9082 71.3024 50.2684 71.5832 49.5927 71.6166C49.2751 71.6282 48.9603 71.5528 48.6824 71.3986C48.4044 71.2444 48.1739 71.0171 48.0158 70.7415L47.7326 73.0065H46.6256L47.3915 66.5719ZM51.0538 69.0556C51.098 68.8691 51.0998 68.6751 51.0594 68.4877C51.0189 68.3003 50.9371 68.1244 50.8199 67.9727C50.7027 67.821 50.5531 67.6973 50.382 67.6108C50.2108 67.5243 50.0226 67.4772 49.8309 67.4728C49.4131 67.4946 49.0173 67.6669 48.7168 67.9579C48.4162 68.2489 48.2313 68.6388 48.196 69.0556C48.1515 69.2443 48.15 69.4405 48.1919 69.6298C48.2338 69.819 48.3179 69.9963 48.438 70.1485C48.5581 70.3007 48.7109 70.4238 48.8853 70.5087C49.0596 70.5935 49.2508 70.6379 49.4447 70.6385C49.8678 70.6262 50.2708 70.4553 50.5737 70.1596C50.8765 69.864 51.0571 69.4654 51.0795 69.0428L51.0538 69.0556ZM52.8882 69.0556C52.9302 68.3802 53.2201 67.744 53.7023 67.2691C54.1845 66.7941 54.8251 66.5138 55.5013 66.4818C55.8192 66.4698 56.1344 66.5442 56.4132 66.6972C56.6921 66.8502 56.9241 67.076 57.0847 67.3505L57.1748 66.5848H58.3076L57.7026 71.533H56.5698L56.6728 70.7029C56.4649 70.987 56.194 71.2192 55.8813 71.3811C55.5686 71.543 55.2227 71.6302 54.8706 71.6359C53.7313 71.6102 52.7144 70.6772 52.9139 69.0428L52.8882 69.0556ZM56.8916 69.0556C56.9359 68.8681 56.9376 68.6729 56.8964 68.4846C56.8552 68.2963 56.7723 68.1197 56.6536 67.9678C56.535 67.8158 56.3838 67.6924 56.211 67.6068C56.0383 67.5211 55.8486 67.4753 55.6558 67.4728C55.237 67.488 54.839 67.6585 54.5391 67.9511C54.2393 68.2438 54.0591 68.6375 54.0338 69.0556C53.9896 69.2427 53.9878 69.4373 54.0286 69.6251C54.0695 69.8129 54.1518 69.9892 54.2698 70.1411C54.3877 70.2929 54.5381 70.4164 54.71 70.5025C54.8819 70.5885 55.0709 70.6351 55.2632 70.6385C55.6864 70.6209 56.0885 70.4488 56.3934 70.1547C56.6982 69.8606 56.8846 69.465 56.9173 69.0428L56.8916 69.0556ZM-0.0253906 0.0128817V60.0022H59.9811V0L-0.0253906 0.0128817ZM1.50647 58.4708V1.53143H58.4492V36.7027H57.5352C56.8208 36.7027 56.2479 35.6474 55.9776 35.0812C55.8796 34.8455 55.7425 34.6279 55.5721 34.4377C55.4846 34.3517 55.378 34.2875 55.2609 34.2505C55.1439 34.2135 55.0197 34.2046 54.8986 34.2247C54.7775 34.2448 54.6628 34.2932 54.564 34.366C54.4652 34.4388 54.385 34.534 54.3299 34.6437L51.9999 39.6111L50.2042 19.7927C50.1809 19.5547 50.0739 19.3328 49.9023 19.1662C49.7307 18.9997 49.5056 18.8994 49.267 18.8832C49.0284 18.867 48.7918 18.9359 48.5992 19.0777C48.4067 19.2195 48.2706 19.425 48.2153 19.6576L44.3535 36.2072L42.9761 33.6656C42.9231 33.5698 42.8509 33.4859 42.7641 33.4192C42.6772 33.3525 42.5776 33.3043 42.4713 33.2778C42.365 33.2512 42.2545 33.2468 42.1464 33.2648C42.0384 33.2828 41.9352 33.3229 41.8433 33.3825C41.6713 33.518 41.5307 33.6892 41.4314 33.8844C40.9796 34.7367 40.3027 35.4489 39.4743 35.9435C38.6459 36.4381 37.6977 36.6963 36.7328 36.6898H22.8753L22.6822 38.2663H36.8423C37.9052 38.2899 38.958 38.0558 39.9107 37.5841C40.8635 37.1123 41.6878 36.4169 42.3132 35.5573L44.051 38.7746C44.1281 38.9137 44.2452 39.0265 44.3873 39.098C44.5293 39.1696 44.6897 39.1968 44.8474 39.1759C45.005 39.1551 45.1528 39.0873 45.2713 38.9812C45.3899 38.8752 45.4738 38.736 45.512 38.5816L49.0649 23.0229L50.732 41.8761C50.7514 42.1065 50.8569 42.3212 51.0274 42.4774C51.198 42.6336 51.4211 42.7198 51.6524 42.719C51.8244 42.7201 51.9931 42.6723 52.139 42.5811C52.2849 42.49 52.4018 42.3593 52.4762 42.2043L55.1473 36.6641C55.3885 37.1221 55.7427 37.5109 56.1764 37.7935C56.6101 38.0762 57.1089 38.2434 57.6253 38.2792H58.5393V58.4579L1.50647 58.4708ZM5.3683 12.7855V12.7533C5.54013 11.3041 6.23793 9.96841 7.32939 8.99942C8.42085 8.03043 9.83008 7.49558 11.2898 7.49627C11.9974 7.45643 12.7049 7.57825 13.3584 7.85252C14.0119 8.12679 14.5943 8.54631 15.0615 9.07918L13.7742 10.3661C13.4486 9.96797 13.0394 9.64628 12.5756 9.42389C12.1117 9.20149 11.6047 9.08383 11.0903 9.07918C10.1337 9.11822 9.22352 9.50197 8.52789 10.1596C7.83225 10.8171 7.39812 11.7042 7.30566 12.6568C7.06108 14.6451 8.27113 16.2537 10.2149 16.2537C11.3651 16.2323 12.4635 15.7719 13.2851 14.9668L14.2891 16.125C13.7255 16.7026 13.0503 17.1596 12.3046 17.4682C11.5588 17.7768 10.7581 17.9306 9.95101 17.9203C6.9774 17.991 5.05936 15.6875 5.41336 12.7791L5.3683 12.7855ZM14.8298 14.0145C15.1387 11.4793 17.0439 10.0444 18.8654 10.0444C19.3564 10.0277 19.8429 10.1438 20.2733 10.3805C20.7038 10.6172 21.0624 10.9657 21.3112 11.3892L21.4593 10.2052H23.21L22.3153 17.7916H20.5646L20.7191 16.5046C20.3967 16.9424 19.9773 17.2997 19.4938 17.5486C19.0104 17.7976 18.4759 17.9313 17.9321 17.9395C16.1364 17.9781 14.5595 16.5432 14.8749 14.008L14.8298 14.0145ZM21.0152 14.0145C21.2018 12.5345 20.275 11.5629 19.0842 11.5629C18.4344 11.5801 17.8151 11.8423 17.3507 12.2971C16.8863 12.7518 16.6111 13.3653 16.5805 14.0145C16.4003 15.4944 17.2949 16.466 18.5114 16.466C19.1628 16.4368 19.7811 16.171 20.2504 15.7185C20.7196 15.2659 21.0076 14.6577 21.0602 14.008L21.0152 14.0145ZM24.9092 10.1537H26.7371L26.5247 11.8718C26.7781 11.3068 27.1921 10.8287 27.715 10.497C28.238 10.1652 28.8469 9.99442 29.4661 10.0058L29.2344 11.8589H29.1379C27.5996 11.8589 26.4024 12.8627 26.1578 14.8896L25.7974 17.798H24.0467L24.9092 10.1537ZM29.228 14.0145C29.3316 12.9515 29.8172 11.9621 30.5947 11.2297C31.3723 10.4973 32.3891 10.0716 33.4567 10.0315C35.8897 10.0315 36.8873 11.9619 36.617 14.1432C36.617 14.304 36.5655 14.4649 36.5269 14.6386H30.9014C30.889 14.8987 30.9318 15.1585 31.027 15.4009C31.1221 15.6433 31.2674 15.8629 31.4534 16.0451C31.6394 16.2274 31.8619 16.3684 32.1062 16.4587C32.3505 16.5489 32.6111 16.5865 32.871 16.569C33.6896 16.5603 34.4725 16.2325 35.0529 15.6553L35.9669 16.569C35.5488 17.0273 35.0384 17.392 34.4694 17.6393C33.9003 17.8866 33.2855 18.0108 32.665 18.0039C32.1612 18.0249 31.6592 17.9309 31.1971 17.729C30.735 17.5272 30.3249 17.2228 29.998 16.8389C29.6711 16.455 29.4359 16.0018 29.3103 15.5135C29.1847 15.0252 29.172 14.5148 29.2731 14.0209L29.228 14.0145ZM34.9628 13.4547C34.9628 12.3222 34.4286 11.4407 33.2701 11.4407C32.7251 11.4752 32.2078 11.693 31.8024 12.0587C31.3969 12.4243 31.127 12.9163 31.0366 13.4547H34.9628ZM6.90017 21.0346H10.8972C13.2786 21.0346 14.5916 22.3794 14.3406 24.4256C14.0639 26.697 12.0879 27.8874 9.83516 27.8874H7.87851L7.47946 31.1497H5.69657L6.90017 21.0346ZM10.1184 26.3045C11.47 26.3045 12.3968 25.5516 12.532 24.4963C12.68 23.3124 11.8884 22.6882 10.5689 22.6882H8.49638L8.04586 26.3367L10.1184 26.3045ZM16.0398 20.597H17.7905L16.5032 31.1754H14.7526L16.0398 20.597ZM18.5307 28.3892L19.1293 23.5247H20.9444L20.4101 27.868C20.2685 29.0584 20.777 29.7212 21.8197 29.7212C22.323 29.7214 22.8065 29.5251 23.1672 29.1742C23.5279 28.8232 23.7372 28.3453 23.7506 27.8423L24.2849 23.5247H26.0484L25.1087 31.1754H23.3451L23.4867 29.985C23.1965 30.3987 22.8111 30.7367 22.3632 30.9707C21.9152 31.2047 21.4176 31.3278 20.9122 31.3298C19.2001 31.3363 18.3698 30.1781 18.5629 28.3957L18.5307 28.3892ZM26.2544 30.1716L27.1812 28.9877C27.8485 29.5652 28.6935 29.8967 29.5755 29.9271C30.3286 29.9271 30.7985 29.6054 30.8628 29.1035V29.0713C30.9336 28.4794 30.1484 28.2734 29.2795 28.0032C28.1917 27.6815 26.9881 27.2182 27.1683 25.7575C27.3486 24.3098 28.6616 23.4282 30.1806 23.4282C31.1492 23.4351 32.0926 23.7382 32.8839 24.2969L32.0729 25.513C31.4645 25.0856 30.7491 24.8361 30.0068 24.7924C29.3246 24.7924 28.8933 25.1076 28.8418 25.5452C28.771 26.1114 29.5691 26.3431 30.4316 26.6326C31.5065 26.9801 32.7037 27.4884 32.5363 28.8654C32.3368 30.4741 30.9916 31.272 29.3953 31.272C28.2625 31.2849 27.1615 30.8975 26.2866 30.1781L26.2544 30.1716Z" fill="white"/>
</g>
<defs>
<clipPath id="clip0_454_161">
<rect width="60" height="73" fill="white"/>
</clipPath>
</defs>
</svg>
