<svg width="57" height="72" viewBox="0 0 57 72" fill="none" xmlns="http://www.w3.org/2000/svg">
<g clip-path="url(#clip0)">
<path d="M57 0H0V57.1076H57V0Z" fill="#0079C8"/>
<path d="M3.36191 62.6484C4.17827 62.6484 4.80561 62.8217 5.23591 63.1642C5.67022 63.5067 5.88336 63.9862 5.88336 64.6027C5.88336 65.0217 5.80695 65.3843 5.65816 65.6825C5.50937 65.9847 5.29623 66.2345 5.01875 66.4279C4.74127 66.6254 4.41151 66.7664 4.02947 66.8591C3.64744 66.9518 3.22116 66.9961 2.76272 66.9961H1.64475L1.13805 69.9496C1.13805 69.9496 -0.152832 70.0342 0.0120469 69.0792C0.180948 68.1203 1.12599 62.6525 1.12599 62.6525H3.36191V62.6484ZM2.80695 65.9041C3.06433 65.9041 3.30561 65.884 3.52277 65.8477C3.74395 65.8074 3.92894 65.743 4.08175 65.6543C4.23457 65.5657 4.35521 65.4448 4.44368 65.2997C4.53215 65.1547 4.57237 64.9693 4.57237 64.7437C4.57237 64.5462 4.53617 64.3851 4.46781 64.2561C4.39945 64.1272 4.29891 64.0265 4.17424 63.9499C4.04958 63.8774 3.89676 63.825 3.72384 63.7928C3.5469 63.7605 3.35789 63.7444 3.14878 63.7444H2.21178L1.82572 65.9082H2.80695V65.9041Z" fill="#0079C8"/>
<path d="M13.7775 65.7506C13.9504 65.4565 14.1595 65.2187 14.3968 65.0414C14.634 64.8642 14.9195 64.7715 15.2573 64.7715C15.3056 64.7715 15.3579 64.7755 15.4142 64.7755C15.4705 64.7795 15.5187 64.7876 15.559 64.7997L15.3901 65.944C15.3136 65.9239 15.2453 65.9078 15.185 65.9037C15.1246 65.8957 15.0683 65.8916 15.012 65.8916C14.7265 65.8916 14.4933 65.944 14.3123 66.0488C14.1313 66.1535 13.9825 66.2784 13.874 66.4275C13.7614 66.5726 13.6809 66.7257 13.6327 66.8788C13.5844 67.0319 13.5523 67.1568 13.5402 67.2455L13.0697 69.9411H11.8431L12.5469 65.9843C12.575 65.8513 12.6032 65.6781 12.6354 65.4686C12.6675 65.259 12.6876 65.0697 12.7037 64.9004C12.7037 64.9004 13.7614 64.7634 13.7614 65.7385H13.7775V65.7506Z" fill="#0079C8"/>
<path d="M23.7748 70.0821C23.4249 70.0821 23.1032 70.0297 22.8056 69.925C22.508 69.8202 22.2507 69.6711 22.0375 69.4737C21.8204 69.2763 21.6515 69.0466 21.5308 68.7807C21.4102 68.5147 21.3458 68.2166 21.3458 67.8902C21.3458 67.4792 21.4182 67.0843 21.563 66.7096C21.7037 66.3349 21.9088 66.0045 22.1742 65.7184C22.4397 65.4323 22.7574 65.2026 23.1313 65.0294C23.5053 64.8561 23.9236 64.7715 24.382 64.7715C24.7359 64.7715 25.0657 64.8239 25.3633 64.9286C25.6608 65.0334 25.9182 65.1825 26.1313 65.3759C26.3485 65.5693 26.5174 65.799 26.638 66.0689C26.7587 66.3389 26.823 66.633 26.823 66.9554C26.823 67.3744 26.7507 67.7733 26.6099 68.1521C26.4691 68.5308 26.2641 68.8612 25.9986 69.1514C25.7332 69.4374 25.4115 69.6671 25.0335 69.8323C24.6555 69.9975 24.2372 70.0821 23.7748 70.0821ZM25.5885 67.0843C25.5885 66.7056 25.4718 66.3913 25.2426 66.1455C25.0134 65.8997 24.6957 65.7788 24.2976 65.7788C24.0322 65.7788 23.7909 65.8312 23.5817 65.94C23.3686 66.0488 23.1876 66.1938 23.0389 66.3752C22.8901 66.5565 22.7734 66.77 22.689 67.0078C22.6045 67.2455 22.5643 67.4993 22.5643 67.7653C22.5643 68.144 22.6769 68.4583 22.8981 68.7041C23.1233 68.9499 23.437 69.0708 23.8431 69.0708C24.1086 69.0708 24.3498 69.0184 24.567 68.9136C24.7842 68.8089 24.9651 68.6638 25.1179 68.4825C25.2667 68.3012 25.3834 68.0876 25.4678 67.8459C25.5442 67.6081 25.5885 67.3543 25.5885 67.0843Z" fill="#0079C8"/>
<path d="M31.1903 63.0108C31.126 62.9906 31.0616 62.9705 30.9973 62.9584C30.933 62.9463 30.8525 62.9382 30.76 62.9382C30.5911 62.9382 30.4504 62.9745 30.3297 63.043C30.2131 63.1155 30.1166 63.2042 30.0402 63.317C29.9678 63.4298 29.9075 63.5547 29.8633 63.6877C29.819 63.8247 29.7828 63.9577 29.7627 64.0826L29.6179 64.9126H30.8003C30.8003 64.9126 30.6555 65.8998 29.4611 65.8998C29.4611 65.8998 29.0308 68.3335 28.8901 69.1434C28.7292 70.0863 27.5549 69.9493 27.5549 69.9493L28.2667 65.8998H27.3137L27.4826 64.9126H28.4155L28.5603 64.147C28.6086 63.869 28.685 63.591 28.7855 63.3251C28.886 63.0551 29.0268 62.8133 29.2037 62.5998C29.3807 62.3862 29.6019 62.213 29.8673 62.084C30.1327 61.9551 30.4544 61.8906 30.8324 61.8906C31.0777 61.8906 31.2828 61.9148 31.4517 61.9631L31.1903 63.0108Z" fill="#0079C8"/>
<path d="M7.70909 70.058C8.69837 70.058 9.2292 69.6188 9.55494 69.1191L9.53885 69.1957C9.44636 69.6631 9.83644 69.9532 10.2024 69.9532H10.5201L11.4048 64.9085H10.311L10.1662 65.6781C9.96914 65.2792 9.41016 64.8037 8.50936 64.8037C6.91687 64.8037 5.97183 66.1213 5.81499 67.5195C5.62598 69.1191 6.65949 70.058 7.70909 70.058ZM8.66217 65.6217C10.5 65.7224 9.90078 69.24 8.03483 69.1393C6.34582 69.0426 6.86861 65.525 8.66217 65.6217Z" fill="#0079C8"/>
<path d="M18.0683 65.9722H19.2024L19.3833 64.9528H18.2453L18.3539 64.2396C18.4262 63.7238 18.0764 63.4619 17.5375 63.4619H17.264L17.0107 64.9528H16.13L15.949 65.9722H16.8378L16.4236 68.2608C16.4035 68.3575 16.3874 68.4663 16.3753 68.5832C16.3632 68.7 16.3592 68.8088 16.3592 68.9055C16.3592 69.2601 16.4598 69.5422 16.685 69.7598C16.7734 69.8444 17.059 70.0861 17.8271 70.0821C17.9477 70.0821 18.2372 70.07 18.5992 69.9451L18.6716 69.0022C18.5992 69.0224 18.5268 69.0345 18.4423 69.0466C18.3619 69.0586 18.2775 69.0627 18.193 69.0627C18.008 69.0627 17.8632 69.0264 17.7547 68.9579C17.6461 68.8894 17.5898 68.7605 17.5898 68.5792C17.5898 68.4865 17.6018 68.3898 17.622 68.285L18.0683 65.9722Z" fill="#0079C8"/>
<path d="M53.1836 70.0542C54.2051 70.0542 54.756 69.6029 55.0898 69.0831L55.0697 69.1597C54.9732 69.6473 55.3753 69.9414 55.7533 69.9414H56.0831L56.996 64.7274H55.8619L55.7131 65.5212C55.508 65.1102 54.933 64.6187 54 64.6187C52.3552 64.6187 51.378 65.9765 51.2131 67.4271C51.0281 69.0872 52.0938 70.0542 53.1836 70.0542ZM54.1649 65.4729C56.063 65.5776 55.4437 69.2121 53.5174 69.1033C51.7721 69.0066 52.311 65.3681 54.1649 65.4729Z" fill="#0079C8"/>
<path d="M38.5536 64.381C38.5536 63.2005 37.7976 62.6525 36.4705 62.6525C35.6542 62.6525 34.3713 62.6484 33.9008 62.6484L32.6059 69.9415C32.7668 69.9415 34.1662 69.9415 34.9584 69.9415C35.4973 69.9415 36.008 69.9254 36.2936 69.8609C37.6126 69.5829 38.1475 68.6199 38.256 67.9148C38.4008 66.9397 37.7895 66.2909 37.0898 66.1378C37.6166 66.025 38.5536 65.4851 38.5536 64.381ZM35.7949 69.047C35.6461 69.0833 35.4129 69.1034 34.9182 69.1034H34.0617L34.496 66.6576H35.7627C37.4397 66.6576 37.2869 68.6763 35.7949 69.047ZM36.2936 65.7228C36.1327 65.7752 35.9196 65.7913 35.5255 65.7913H34.6488L35.059 63.4583H36.2051C37.5844 63.4583 37.4759 65.332 36.2936 65.7228Z" fill="#0079C8"/>
<path d="M43.5523 64.7354H43.2145C43.2145 64.7354 42.7158 67.6002 42.6595 67.9266C42.5389 68.6277 42.2011 69.1072 41.252 69.1072C40.7131 69.1072 40.1863 68.7808 40.311 68.0515C40.3593 67.7694 40.7172 65.6863 40.7453 65.5211C40.8458 64.957 40.3673 64.7394 39.9732 64.7394H39.6756C39.6032 65.1745 39.2735 67.0039 39.1488 67.7211C39.0965 68.0112 39.0804 68.3013 39.1005 68.4907C39.2131 69.4617 40.0657 70.0581 41.1193 70.0581C42.941 70.0581 43.6247 69.1072 43.8418 67.9749C43.9142 67.6002 44.256 65.7145 44.2842 65.5211C44.3646 64.957 43.9022 64.7354 43.5523 64.7354Z" fill="#0079C8"/>
<path d="M45.4263 72.0005L45.9531 69.1276C46.1582 69.5386 46.7453 70.0584 47.6743 70.0584C49.3552 70.0584 50.3928 68.7448 50.4973 67.2056C50.6099 65.5697 49.6488 64.6309 48.5389 64.6309C47.5737 64.6309 46.9182 65.1023 46.5844 65.5898L46.6005 65.5213C46.7051 65.0177 46.2788 64.7397 45.9169 64.7397H45.5549C45.5549 64.7397 44.5777 70.3485 44.441 71.0254C44.2842 71.8192 44.9276 72.0045 45.1287 72.0045H45.4263V72.0005ZM48.1608 65.5657C49.9062 65.6624 49.3633 69.3129 47.5094 69.2082C45.6153 69.1034 46.2346 65.4569 48.1608 65.5657Z" fill="#0079C8"/>
<path d="M51.6796 33.5322C50.996 33.5322 50.059 33.4919 49.504 33.3025C48.8485 33.0769 48.2654 32.6296 47.6542 32.1542C47.3445 31.9164 47.0268 31.6706 46.685 31.441C46.2668 31.1629 45.9169 31.03 45.5831 31.03C45.1367 31.03 44.6984 31.2758 44.1716 31.8238C43.4558 32.5611 42.3137 34.2373 41.8552 34.9263C41.8231 34.9666 41.7869 35.015 41.7266 35.015C41.614 35.015 41.6099 34.8699 41.6099 34.8216C41.5858 32.9036 41.2882 22.4233 41.0791 19.2966C40.9866 17.9105 40.5563 17.0522 39.9571 17.0522C39.4786 17.0522 38.7587 17.6929 38.3043 19.498C37.1582 24.0915 34.7091 34.3058 33.6595 39.4956C33.6274 39.6366 33.4705 39.6366 33.4384 39.4956C33.3217 38.9637 33.2172 38.3633 33.1166 37.8557C32.803 36.256 32.5295 34.874 31.9947 34.1124C31.3834 33.2461 30.4786 33.1937 29.3847 33.923C29.1434 34.0842 28.9102 34.2857 28.6649 34.4992C27.9611 35.1036 27.1649 35.7926 25.8459 35.7926H12.937L12.6193 37.5091H26.2078C27.5952 37.5091 28.8861 36.7073 29.6542 36.1553C30.0443 35.8732 30.3137 35.7121 30.5308 35.7121C30.8284 35.7121 30.9652 36.0183 31.0737 36.4736C31.13 36.6952 31.1944 37.0055 31.2708 37.3641C31.5282 38.5487 31.9142 40.4143 32.4048 41.6593C32.6341 42.2355 32.9719 42.5579 33.3619 42.5579C33.9571 42.5579 34.5603 41.8527 34.9022 40.7648C35.3606 39.3143 38.1073 27.3875 39.2654 22.3911C39.3137 22.1856 39.3378 22.0728 39.3418 22.0607C39.3619 21.9721 39.4223 21.9156 39.4906 21.9156C39.551 21.9156 39.6193 21.968 39.6193 22.0808V22.101C39.7078 27.1538 39.9571 36.0304 40.3351 36.945C40.5443 37.4487 40.8619 37.7146 41.256 37.7146C41.7145 37.7146 42.2614 37.3439 42.6515 36.7758C42.8485 36.4897 43.0979 36.115 43.3673 35.7201C44.0228 34.745 44.7668 33.637 44.9839 33.4032C45.3137 33.0527 45.6877 33.0527 46.2225 33.4194C46.303 33.4717 46.3955 33.5402 46.504 33.6168C47.0751 34.0318 48.0282 34.604 49.0979 34.8981C49.8056 35.0915 50.7225 35.1359 51.3619 35.1359C51.7762 35.1359 52.2145 35.1197 52.3432 35.1117L52.6367 33.5241C52.4839 33.5201 52.0657 33.5322 51.6796 33.5322Z" fill="white"/>
<path d="M10.2064 19.8405C11.3928 19.8405 12.3016 20.0903 12.9289 20.5859C13.5563 21.0815 13.87 21.7786 13.87 22.6731C13.87 23.2815 13.7614 23.8053 13.5442 24.2405C13.3271 24.6797 13.0174 25.0383 12.6153 25.3203C12.2131 25.6064 11.7346 25.8119 11.1796 25.9449C10.6206 26.0779 10.0094 26.1423 9.34182 26.1423H7.71715L6.98525 30.4295C6.98525 30.4295 5.10723 30.5544 5.35254 29.1643C5.59785 27.7742 6.97318 19.8364 6.97318 19.8364H10.2064V19.8405ZM9.39812 24.5628C9.77211 24.5628 10.122 24.5346 10.4397 24.4782C10.7614 24.4218 11.0308 24.3291 11.252 24.1962C11.4772 24.0672 11.6501 23.894 11.7748 23.6804C11.9035 23.4668 11.9638 23.2009 11.9638 22.8745C11.9638 22.5885 11.9155 22.3548 11.811 22.1654C11.7105 21.976 11.5697 21.8309 11.3847 21.7222C11.2037 21.6174 10.9826 21.5408 10.7332 21.4925C10.4799 21.4482 10.1984 21.424 9.89678 21.424H8.52948L7.96648 24.5628H9.39812Z" fill="white"/>
<path d="M26.3968 9.85192C26.6502 9.42481 26.9478 9.08231 27.2936 8.82444C27.6394 8.56656 28.0537 8.43359 28.5403 8.43359C28.6086 8.43359 28.689 8.43762 28.7695 8.44165C28.8499 8.44568 28.9223 8.4618 28.9826 8.47792L28.7413 10.138C28.6287 10.1058 28.5322 10.0856 28.4437 10.0776C28.3593 10.0695 28.2748 10.0614 28.1944 10.0614C27.7802 10.0614 27.4384 10.138 27.177 10.2911C26.9116 10.4442 26.6984 10.6255 26.5376 10.8391C26.3727 11.0527 26.2601 11.2702 26.1877 11.4919C26.1153 11.7175 26.0711 11.8948 26.051 12.0278L25.3673 15.9443H23.5898L24.6073 10.2025C24.6475 10.0091 24.6917 9.75924 24.736 9.45301C24.7802 9.15081 24.8164 8.87279 24.8365 8.63103C24.8365 8.63103 26.3727 8.43359 26.3727 9.84789H26.3968V9.85192Z" fill="white"/>
<path d="M17.634 16.1013C19.0737 16.1013 19.8418 15.4646 20.3123 14.7394L20.2882 14.8481C20.1515 15.5291 20.7185 15.9482 21.2533 15.9482H21.7158L23.0027 8.62284H21.4102L21.197 9.73896C20.9115 9.16277 20.0992 8.46973 18.7882 8.46973C16.4759 8.46973 15.1045 10.3796 14.8753 12.4144C14.6099 14.7434 16.1099 16.1013 17.634 16.1013ZM19.0134 9.66644C21.6796 9.81552 20.811 14.9207 18.1005 14.7716C15.6515 14.6306 16.4155 9.52138 19.0134 9.66644Z" fill="white"/>
<path d="M24.2373 22.8663H23.7466C23.7466 22.8663 23.0228 27.0246 22.9423 27.496C22.7654 28.5155 22.2788 29.2085 20.8995 29.2085C20.1193 29.2085 19.3552 28.733 19.5322 27.6733C19.6005 27.2623 20.1233 24.2403 20.1635 23.9986C20.3083 23.1806 19.6166 22.8623 19.0415 22.8623H18.6072C18.5027 23.4949 18.0241 26.1502 17.8432 27.1938C17.7708 27.6129 17.7426 28.036 17.7748 28.314C17.9356 29.7242 19.1743 30.5865 20.7024 30.5865C23.3445 30.5865 24.3378 29.2045 24.6555 27.5605C24.76 27.0206 25.2587 24.2766 25.2989 23.9986C25.4155 23.1847 24.744 22.8663 24.2373 22.8663Z" fill="white"/>
<path d="M29.3083 23.8176C30.3338 23.8176 30.6314 24.1278 30.9973 24.3011C31.0737 24.1681 31.4879 23.3784 31.6126 23.1527C31.4477 23.0198 30.7279 22.6289 29.4732 22.6289H29.449C27.3619 22.6289 26.3606 23.9948 26.3606 25.0425C26.3606 27.2062 29.3646 26.8718 29.3646 28.1974C29.3646 28.8542 28.693 29.2974 27.7882 29.2974C27.0121 29.2974 26.3887 28.9308 25.9383 28.6407C25.8619 28.7857 25.4517 29.5311 25.315 29.7568C25.6488 29.9905 26.4692 30.5224 27.8847 30.5224C29.6944 30.5224 31.0898 29.3377 31.0898 28.0201C31.0898 25.7839 28.0456 26.0176 28.0456 24.7644C28.0456 24.2688 28.6247 23.8176 29.3083 23.8176Z" fill="white"/>
<path d="M16.2507 19.9414C15.937 19.9414 15.945 19.9414 15.8244 19.9414L13.9303 30.4539H15.6475L17.3324 21.0978C17.445 20.437 16.9303 19.9414 16.2507 19.9414Z" fill="white"/>
<path d="M36.4786 12.4951H30.4464C30.4263 13.1559 30.6073 13.6999 30.9974 14.127C31.3834 14.5541 31.9344 14.7677 32.6582 14.7677C33.3781 14.7677 34.1823 14.6145 35.0671 14.3083L35.2802 15.5453C34.3472 15.912 33.4102 16.0973 32.4772 16.0973C31.3915 16.0973 30.5309 15.771 29.9035 15.1222C29.2923 14.5017 28.9866 13.7039 28.9866 12.7248C28.9866 11.4918 29.4129 10.412 30.2574 9.48118C31.1059 8.55041 32.1394 8.08301 33.3579 8.08301C34.3432 8.08301 35.1193 8.40535 35.6904 9.05407C36.2574 9.7028 36.5429 10.557 36.5429 11.6288C36.5349 11.9109 36.5188 12.201 36.4786 12.4951ZM35.059 11.2863C35.051 10.7988 34.8861 10.3757 34.5724 10.0211C34.2145 9.62221 33.748 9.4288 33.173 9.4288C32.5818 9.4288 32.055 9.62624 31.5885 10.0211C31.1743 10.3757 30.8848 10.7988 30.736 11.2863H35.059Z" fill="white"/>
<path d="M10.3633 14.6065C5.85524 14.8925 6.8043 7.11594 10.8177 6.8621C11.9477 6.78957 13.0576 7.32144 13.5201 8.03866L15.193 6.94671C14.3164 5.85476 12.9611 5.25439 11.3284 5.25439C7.91824 5.25439 5.16355 8.31265 5.33245 11.6288C5.49331 14.8643 7.40349 16.2222 9.96113 16.2222C11.9638 16.2222 13.3914 15.4929 14.3727 14.5218L12.6072 13.6475C12.0925 14.0907 11.1233 14.5581 10.3633 14.6065Z" fill="white"/>
</g>
<defs>
<clipPath id="clip0">
<rect width="57" height="72" fill="white"/>
</clipPath>
</defs>
</svg>
