<?xml version="1.0" encoding="UTF-8"?>
<svg fill="none" viewBox="0 0 165 55" xmlns="http://www.w3.org/2000/svg">
<g clip-path="url(#a)" fill="#fff">
<path d="m44.878 9.9112c-1.4367 0.73891-1.8639 1.2808-1.8639 1.2808l3.2253 11.035 0.3692-12.389c0.0619-0.21363 0.1421-0.33895 0.4311-0.37628l0.2596-0.14773-0.4214-0.32321c0-0.00369-0.5632 0.1814-1.9999 0.92029z" clip-rule="evenodd" fill-rule="evenodd"/>
<path d="m62.651 6.4738c-6.8547-0.60983-15.161 1.2422-18.991 4.1685 2.2625-1.3736 7.9475-2.157 13.824-1.9761 0.2709 0.03633 0.4908 0.25682 0.5169 0.54025l2.8695 12.56 3.4586-11.805c0.0726-0.31673 0.3833-0.51609 0.7018-0.4504 0 0 0.0183 0.00365 0.0439 0.00728 4.012 0.87632 5.8844 2.2756 4.3755 3.5779h0.0146c3.1341-3.0613 0.1612-6.0085-6.8143-6.6218z" clip-rule="evenodd" fill-rule="evenodd"/>
<path d="m50.679 14.9c-1.5368 0.0028-2.7942-1.254-2.797-2.8076-0.0028-1.5462 1.2537-2.8076 2.7869-2.8103 1.5332-0.00275 2.7942 1.254 2.797 2.8002 0.0028 1.5536-1.2501 2.815-2.7869 2.8177z" clip-rule="evenodd" fill-rule="evenodd"/>
<path d="m67.11 11.579c-1.5369 0.0028-2.7942-1.254-2.797-2.8076-0.0028-1.5462 1.2537-2.8076 2.7869-2.8103 1.5368-0.00276 2.7942 1.254 2.7969 2.8003 0.0028 1.5536-1.25 2.815-2.7868 2.8177z" clip-rule="evenodd" fill-rule="evenodd"/>
<path d="m61.392 6.2035c-1.5368 0.00277-2.7942-1.254-2.797-2.8076-0.0028-1.5462 1.25-2.8149 2.7869-2.8177 1.5441-0.002779 2.7942 1.2614 2.797 2.8076 0.0064 1.5536-1.2427 2.8149-2.7869 2.8177z" clip-rule="evenodd" fill-rule="evenodd"/>
<path d="m45.288 8.0954c-1.5368 0.00277-2.7942-1.254-2.797-2.8076-0.0028-1.5462 1.25-2.8149 2.7869-2.8177 1.5441-0.00278 2.7942 1.2614 2.797 2.8076 0.0028 1.5536-1.2464 2.8149-2.7869 2.8177z" clip-rule="evenodd" fill-rule="evenodd"/>
<path d="m69.045 13.391c-0.1242 0.0775-0.2595 0.1551-0.4057 0.2326l-0.0037 1e-4c-1.2722 0.6502-3.3314 1.1546-5.8081 1.4646h-0.0037c-1.0718 0.1345-2.2206 0.2323-3.4171 0.2896-2.316 0.1146-4.8007 0.0786-7.2271-0.1379-2.2471-0.1984-4.1797-0.5263-5.7063-0.9359-1.2557-0.3401-2.2371-0.7359-2.8892-1.1618-0.8719-0.5654-1.1584-1.187-0.7351-1.8026-2.166 2.1539-1.317 4.2397 1.8175 5.5005 0.5127 0.209 1.0839 0.392 1.7172 0.5455 0.1794 0.0475 0.3624 0.0914 0.5491 0.1315 0.0622 0.022 0.1172 0.0366 0.1172 0.0366 0.2049 0.0291 0.3808 0.1724 0.4617 0.3637l3.1424 11.753 3.2804-11.183c0.0398-0.2836 0.2736-0.4938 0.548-0.5127 1.8111-0.1064 3.6256-0.3489 5.3557-0.7091 0.8706-0.1746 1.7155-0.3823 2.5311-0.6157 0.8192-0.2334 1.6054-0.4962 2.3477-0.7847 1.8101-0.6917 3.3418-1.5302 4.4195-2.4599l-0.0915-0.0145zm-26.196-2.0513c0.0548-0.0517 0.1096-0.107 0.1681-0.1586-0.0658 0.0516-0.1316 0.1033-0.1681 0.1586z" clip-rule="evenodd" fill-rule="evenodd"/>
<path d="m64.71 15.872l0.1134-0.0334c0.2121-0.0519 0.3662 0.1614 0.4324 0.3748l-0.7265 9.0651 5.3307-12.622s-1.0479 1.2868-4.8764 2.7147l-0.2736 0.5012z" clip-rule="evenodd" fill-rule="evenodd"/>
<path d="m16.786 36.192c-0.0923-0.4379-0.5793-0.6285-0.9455-0.7788-1.1095-0.4434-2.5368-0.5845-3.726-0.5823-5.8071 0.0104-10.447 4.0684-11.626 9.74-0.5478 2.6296-0.38523 5.534 1.5724 7.559 1.5287 1.5803 3.7106 2.1507 5.8439 2.1468 1.4527-0.0026 3.1319-0.2081 4.5068-0.7113 0.3218-0.1147 0.7204-0.2442 0.8845-0.5722 0.1349-0.2726 0.0648-0.6186 0.0496-0.9131l-0.0342-0.6884c-0.0189-0.3681 0.013-0.9019-0.3277-1.1296-0.2381-0.1579-0.4978-0.0985-0.7501-0.0207-0.278 0.0888-0.5486 0.185-0.8302 0.2665-0.8412 0.2445-1.7704 0.3603-2.6449 0.3619-1.3978 0.0025-2.895-0.3187-3.8045-1.4768-1.0012-1.2683-0.95696-3.0981-0.64497-4.597 0.80175-3.8486 3.468-6.5777 7.4967-6.585 0.8087-0.0014 1.6981 0.0964 2.4634 0.3895 0.3076 0.121 0.6702 0.3338 1.0067 0.2559 0.417-0.1001 0.6357-0.5717 0.8107-0.9255l0.3536-0.7038c0.1568-0.3132 0.4196-0.6708 0.3458-1.0351zm13.152 16.764c-0.0408-0.3128-0.0962-0.6183-0.137-0.9312-0.6643-5.1528-1.3505-10.302-2.0221-15.451-0.0519-0.3975-0.0676-0.9755-0.3828-1.2547-0.1979-0.1764-0.4431-0.2127-0.6993-0.2233-0.3001-0.0105-0.6111 0.0011-0.9148 0.0016-0.3037-0.0031-0.6074-0.0026-0.9111-2e-3 -0.3403 6e-4 -0.7941-0.0391-1.0865 0.1713-0.1571 0.1144-0.2483 0.2655-0.3322 0.4387-0.0948 0.1879-0.1823 0.3758-0.2844 0.5638-2.9833 5.4797-5.9666 10.963-8.9536 16.443-0.1642 0.2985-0.4672 0.6966-0.2543 1.0386 0.1394 0.217 0.3627 0.2497 0.5969 0.2456 0.1756-4e-3 0.3476-0.0153 0.5232-0.0157 0.5123-9e-4 1.0246-0.0055 1.5368-0.0064 0.2489-5e-4 0.5234 0.0359 0.7574-0.075 0.2924-0.1404 0.4492-0.4831 0.595-0.7595 0.7148-1.3303 1.426-2.6606 2.1371-3.9909 0.0511-0.0921 0.2844-0.5637 0.3648-0.6375 0.1024-0.0296 0.6696-0.0086 0.783-0.0088l3.3628-6e-3c0.2342-5e-4 0.4647-0.0082 0.6952-0.0123 0.0403-1e-4 0.1098-0.0039 0.1757-4e-4 0.0074 0.0626 0.0149 0.1399 0.0186 0.1841 0.026 0.2392 0.0484 0.4785 0.0781 0.7177 0.1447 1.1079 0.2748 2.2158 0.4305 3.32 0.0482 0.3459 0.0563 0.8245 0.3312 1.0707 0.1686 0.1506 0.3772 0.1834 0.5931 0.1867 0.2306 0.0069 0.4684-0.0045 0.6989-5e-3 0.2928-5e-4 0.5855 0.0137 0.8819 0.0132 0.3952-7e-4 1.0028 0.0718 1.2839-0.26 0.1826-0.2176 0.1711-0.4937 0.134-0.755zm-7.8518-7.7023l2.1299-3.9246c0.1277-0.2321 0.248-0.468 0.3683-0.7038 0.0186 0.1583 0.0372 0.3129 0.0558 0.4674l0.5417 4.1555-3.0957 0.0055zm22.679-8.6628c-1.3052-1.4445-3.4206-1.6579-5.2465-1.6546-1.1197 2e-3 -2.243 0.0408-3.3515 0.1975-0.2744 0.0409-0.5561 0.0635-0.8304 0.1119-0.2305 0.0372-0.4499 0.0965-0.6289 0.2588-0.201 0.1845-0.2773 0.435-0.3354 0.6928-0.0763 0.3462-0.1305 0.696-0.2031 1.0422l-3.167 15.24-0.0398 0.221c-0.058 0.3277-0.2182 0.7698 0.0165 1.0528 0.1467 0.1765 0.348 0.2129 0.5639 0.2125 0.1756-3e-4 0.3549-0.0116 0.5342-0.012l1.288-0.0023c0.311-5e-4 0.7173 0.0613 0.9731-0.149 0.2411-0.1992 0.2624-0.5711 0.3241-0.8657l1.2697-6.1357c0.0181-0.092 0.0397-0.2614 0.0724-0.394 0.1062-2e-4 0.2379 0.0069 0.3147 0.0068l1.1819-0.0022c0.5306-9e-4 1.1675 0.0789 1.5342 0.5127 0.4363 0.5109 0.4673 1.4828 0.4758 2.1197 9e-3 0.913 0.0252 1.8259 0.0891 2.7388 0.0226 0.3461 0.0452 0.6958 0.097 1.0417 0.0518 0.3313 0.0819 0.7583 0.3713 0.975 0.2712 0.2019 0.6845 0.1349 1.0066 0.1344l1.3429-0.0025c0.1976-3e-4 0.3988 0.0067 0.6001 0.0063 0.2305-0.0041 0.45-0.045 0.5813-0.2661 0.1204-0.2027 0.0688-0.3904-0.0047-0.589-0.0515-0.1398-0.092-0.2723-0.1179-0.4158-0.0812-0.4085-0.0966-0.8429-0.123-1.2589-0.064-1.0012-0.0841-2.0062-0.1078-3.0112-0.0241-1.1928-0.2607-2.4846-1.0709-3.3703 1.7401-0.9199 3.0253-2.4979 3.4388-4.4829 0.2866-1.3737 0.1229-2.8792-0.8487-3.9524zm-2.8837 3.9112c-0.3845 1.8488-2.1028 2.7097-3.8519 2.7129l-1.3612 0.0024 1.0303-4.9645c0.5268-0.0819 1.0939-0.094 1.6172-0.0913 0.7282 0.0024 1.7858 0.1073 2.3029 0.6954 0.3959 0.4484 0.3788 1.0927 0.2627 1.6451zm17.079-5.2842c-0.2053-0.25-0.5236-0.1868-0.8017-0.1863l-7.8964 0.0142c-0.3184 6e-4 -0.6368-0.0173-0.9514-0.013-0.2598 0.0041-0.5159 0.0304-0.7279 0.1927-0.3435 0.2584-0.4194 0.7886-0.5028 1.1864-1.1246 5.4175-2.2455 10.839-3.3628 16.264-0.0689 0.3278-0.2035 0.7514 0.0385 1.0418 0.1613 0.1911 0.3846 0.2275 0.6188 0.2308 0.2232 0.0033 0.4501-0.0082 0.6733-0.0086l8.2806-0.0149c0.2086-3e-4 0.4099 0.0103 0.6148 0.0137 0.2049 0.0033 0.3952-0.0118 0.5669-0.1373 0.2924-0.2214 0.3281-0.7111 0.4006-1.0499 0.0762-0.361 0.1488-0.7219 0.225-1.0828 0.0616-0.3093 0.1634-0.6814-0.0749-0.946-0.1577-0.1727-0.3663-0.2055-0.5859-0.2051-0.1939 3e-4 -0.3841 0.0117-0.5781 0.0121l-5.7668 0.0103c-0.0805 2e-4 -0.1647 4e-3 -0.2452 0.0042 0.0073-0.0332 0.0146-0.0626 0.0182-0.0884 0.2902-1.4142 0.5913-2.8248 0.8852-4.239 0.0218-0.0994 0.0543-0.313 0.0906-0.4603 0.033-1e-4 0.0659 0.0035 0.0879 0.0035 0.1756 7e-3 0.3476 0.0141 0.5232 0.0138l4.896-0.0089c0.3257-5e-4 0.7868 0.0723 1.0573-0.1344 0.2594-0.2029 0.2916-0.5859 0.3533-0.8879 0.0725-0.3646 0.1487-0.7292 0.2212-1.0938 0.069-0.3241 0.2182-0.744-0.0128-1.0271-0.1503-0.1838-0.3553-0.2202-0.5749-0.2198-0.1903-0.0034-0.3805 8e-3 -0.5708 0.0084l-4.8557 0.0087c-0.1427 3e-4 -0.2891 0.0042-0.4354 0.0045 0.0109-0.0442 0.0218-0.0848 0.029-0.1142 0.2323-1.0865 0.4535-2.1766 0.6784-3.263 0.0181-0.1068 0.0833-0.4825 0.1343-0.6298 0.0695-0.0075 0.1683-4e-3 0.2122-0.0041 0.2342-4e-4 0.4684 0.0102 0.7063 0.0098l5.2143-0.0094c0.2854-5e-4 0.6111 0.0431 0.8449-0.1524 0.2302-0.1956 0.2479-0.5417 0.3059-0.8216 0.0943-0.4677 0.196-0.9317 0.2903-1.3995 0.058-0.2725 0.1782-0.5709-0.0235-0.8209z" clip-rule="evenodd" fill-rule="evenodd"/>
<path d="m112.22 36.032c-0.103-0.368-0.554-0.5218-0.865-0.6759-1.084-0.5208-2.416-0.6988-3.606-0.6966-3.34 6e-3 -6.696 1.9522-7.414 5.4177-0.6496 3.1194 1.447 4.8128 4.054 5.8647 0.648 0.2602 1.527 0.6342 1.93 1.2372 0.287 0.4339 0.298 0.9235 0.193 1.4207-0.355 1.7089-1.975 2.426-3.57 2.4289-1.021 0.0018-2.123-0.2576-3.017-0.7677-0.1465-0.0844-0.2784-0.1762-0.414-0.2791-0.1685-0.1248-0.3297-0.2313-0.5529-0.1904-0.2341 0.0372-0.3619 0.2068-0.4676 0.4058-0.0948 0.1769-0.1787 0.3648-0.2735 0.549l-0.5433 1.0723c-0.1422 0.2837-0.3721 0.6118-0.291 0.943 0.0885 0.3569 0.484 0.5329 0.7734 0.6981 1.1611 0.6716 2.8999 0.9961 4.2319 0.9937 1.932-0.0034 3.856-0.5002 5.405-1.6995 1.294-1.0037 2.206-2.419 2.543-4.0321 0.251-1.208 0.19-2.4154-0.456-3.4929-0.745-1.2393-2.1-2.0063-3.389-2.5489-0.693-0.2933-2.011-0.8578-2.312-1.601-0.122-0.3016-0.097-0.6477-0.031-0.9608 0.112-0.5303 0.448-1.0095 0.865-1.3489 0.639-0.5166 1.458-0.7095 2.267-0.711 0.75-0.0013 1.522 0.1335 2.214 0.4341 0.176 0.077 0.33 0.1651 0.491 0.2716 0.176 0.1175 0.337 0.2239 0.564 0.1941 0.373-0.0522 0.556-0.4686 0.716-0.767l0.664-1.2235c0.153-0.2801 0.387-0.6008 0.291-0.9356zm-12.216-0.8616c-0.1541-0.1875-0.3664-0.2202-0.5896-0.2198-0.1939 4e-3 -0.3878 0.0154-0.5818 0.0158l-1.1782 0.0021c-0.3403 6e-4 -0.8381-0.0722-1.1121 0.164-0.1607 0.1365-0.219 0.317-0.2589 0.5158-0.0362 0.1989-0.0651 0.3977-0.1087 0.5929-0.6784 3.2704-1.3567 6.5408-2.0388 9.8075-0.5296 2.5486-1.7912 5.0506-4.7185 5.0558-0.7026 0.0013-1.4018-0.1631-1.8566-0.7476-0.5868-0.7537-0.5963-1.9759-0.5028-2.8854 0.0396-0.3682 0.1011-0.7365 0.1773-1.0974l2.0533-9.8812c0.0436-0.2136 0.0981-0.4198 0.1453-0.6334 0.0471-0.2284 0.0687-0.453-0.0854-0.6515-0.1504-0.1912-0.3663-0.2276-0.5932-0.2309-0.2012-0.0033-0.4061 0.0044-0.6111 0.0048l-1.0757 0.0019c-0.1976 4e-4 -0.3916-0.0103-0.5892-0.0136-0.2013-0.0033-0.3878 0.0191-0.5523 0.1482-0.2813 0.2214-0.3134 0.7185-0.3823 1.0499-0.682 3.2852-1.364 6.5629-2.046 9.8443-0.9396 4.5189 0.1726 8.4745 5.46 8.465 5.0789-0.0091 7.9853-3.5486 8.9684-8.2811l2.046-9.8443c0.0399-0.1878 0.0869-0.3757 0.1269-0.5672 0.044-0.2172 0.054-0.4308-0.096-0.6146zm-17.558 15.788c-0.2237-0.2647-0.6151-0.1793-0.9261-0.1787l-6.0632 0.0109c-0.0915 1e-4 -0.183 3e-4 -0.2744 0.0041 0.0145-0.0552 0.029-0.1068 0.0363-0.151l3.0038-14.452c0.0653-0.3094 0.2366-0.6963 0.0202-0.9757-0.2128-0.2757-0.5859-0.2124-0.8896-0.2119l-1.7344 0.0031c-0.2818 5e-4 -0.6185-0.0541-0.8487 0.1415-0.2302 0.1918-0.2405 0.5489-0.2986 0.8251-1.0919 5.2555-2.1802 10.511-3.2722 15.766-0.087 0.4162-0.1961 0.8324-0.2758 1.2485-0.0617 0.3094-0.1013 0.6555 0.1077 0.9202 0.1797 0.2242 0.4506 0.2827 0.7214 0.3043 0.3038 0.0215 0.6221 0.0062 0.9258 0.0057 2.7114-0.0197 5.4229-0.0098 8.1343-0.0147 0.3147-6e-4 0.7466 0.0686 1.0134-0.1307 0.2412-0.1845 0.2882-0.4975 0.3462-0.7811 0.1016-0.4751 0.1995-0.9538 0.3011-1.4289 0.0581-0.2946 0.1928-0.6446-0.0272-0.9056zm-11.029-14.364c-1.2759-1.3856-3.3878-1.7057-5.1734-1.7025-1.1673 0.0021-2.3345 0.0668-3.4942 0.2087-0.2743 0.0337-0.5524 0.0526-0.8268 0.0899-0.2268 0.0298-0.4463 0.0781-0.6216 0.2441-0.1826 0.1733-0.2408 0.4017-0.2843 0.6411-0.0543 0.3019-0.1013 0.6039-0.163 0.9022l-3.3194 15.965c-0.0689 0.3314-0.2621 0.7772-0.042 1.075 0.2201 0.2905 0.6408 0.2271 0.9628 0.2265l1.621-0.0029c0.2854-5e-4 0.6368 0.0615 0.878-0.1341 0.2375-0.1918 0.2514-0.5527 0.3095-0.8326 0.3519-1.7051 0.7074-3.4103 1.0629-5.1118 0.0508-0.2651 0.1088-0.5266 0.1633-0.7918 0.0072-0.0368 0.0144-0.081 0.0217-0.1252 0.0805 0.0109 0.161 0.0255 0.2415 0.029 0.3221 0.0215 0.6441 0.0283 0.9698 0.0277 2.2284-4e-3 4.5435-0.6524 6.257-2.1391 1.275-1.1031 2.0445-2.5513 2.3855-4.2012 0.3229-1.5358 0.148-3.1737-0.9483-4.3683zm-2.8027 4.1689c-0.4716 2.2612-2.3032 3.1886-4.4621 3.1925-0.311 5e-4 -0.6294-0.0063-0.9478-0.0351l1.1718-5.6311c0.5085-0.0709 1.0427-0.0792 1.5477-0.0801 0.772-0.0014 1.8554 0.1181 2.4017 0.743 0.4327 0.4962 0.4157 1.2031 0.2887 1.8108z" clip-rule="evenodd" fill-rule="evenodd"/>
<path d="m63.789 28.513l47.104-0.0848 2e-3 1.3695-47.327 0.0852 0.2207-1.3699z" clip-rule="evenodd" fill-rule="evenodd"/>
<path d="m48.431 28.54l0.4672 1.3687-44.206 0.0795-0.00247-1.3695 43.742-0.0787z" clip-rule="evenodd" fill-rule="evenodd"/>
<path d="m123.43 13.249l0.074 41.023 40.726-0.0733-0.074-41.023-40.726 0.0733zm7.601 8.9176c-0.094 0.6334-0.568 1.492-1.742 1.7445-0.252 0.0556-0.71 0.0749-1.189 0.0757l-2.09 0.0038 1.138-6.5293 2.287-0.0041c1.178-0.0022 1.856 0.4899 1.858 1.5428 1e-3 0.9904-0.836 1.4778-1.304 1.5781 0.622 0.1387 1.172 0.7157 1.042 1.5885zm2.67 1.0628c0.841-0.0015 1.141-0.4328 1.249-1.0588 0.047-0.2946 0.489-2.8577 0.489-2.8577l0.3-6e-4c0.311-5e-4 0.721 0.1975 0.653 0.6983-0.022 0.1731-0.326 1.8635-0.392 2.1986-0.192 1.0127-0.798 1.8643-2.419 1.8672-0.936 0.0017-1.695-0.5271-1.799-1.3958-0.018-0.1693 0-0.4344 0.043-0.6921 0.109-0.6408 0.398-2.2796 0.464-2.67l0.267-4e-4c0.351-7e-4 0.776 0.1974 0.689 0.6982-0.029 0.151-0.344 2.0144-0.384 2.2685-0.109 0.6518 0.36 0.9455 0.84 0.9446zm6.476-4.0208c0.988-0.0018 1.843 0.8398 1.746 2.3015-0.092 1.377-1.012 2.5531-2.505 2.5558-0.831 0.0015-1.355-0.4651-1.539-0.8293l-0.463 2.5705-0.264 5e-4c-0.183 3e-4 -0.754-0.1643-0.612-0.8751 0.116-0.6003 0.977-5.6234 0.977-5.6234l0.322-6e-4c0.322-5e-4 0.703 0.2491 0.609 0.6984l-0.011 0.0626c0.296-0.4349 0.881-0.8593 1.74-0.8609zm21.812 7.6588c-0.084 0.0038-0.359 0.0153-0.622 0.0158-0.403 7e-4 -0.977-0.024-1.427-0.1447-0.674-0.1865-1.278-0.5462-1.638-0.8106-0.065-0.0478-0.128-0.0919-0.175-0.1249-0.337-0.2313-0.575-0.2309-0.783-0.0096-0.136 0.1511-0.603 0.8515-1.015 1.4744-0.168 0.2506-0.325 0.4865-0.449 0.6708-0.248 0.3613-0.592 0.5975-0.881 0.598-0.249 5e-4 -0.45-0.1685-0.579-0.4886-0.239-0.5775-0.406-6.2062-0.47-9.409v-0.0111c-1e-3 -0.0736-0.045-0.1067-0.085-0.1066s-0.077 0.037-0.091 0.0922c0 0.0074-0.018 0.081-0.047 0.21-0.726 3.1673-2.444 10.732-2.731 11.653-0.215 0.6925-0.594 1.1386-0.971 1.1393-0.245 5e-4 -0.458-0.2016-0.605-0.5695-0.309-0.7836-0.556-1.9686-0.719-2.7193-0.048-0.2282-0.088-0.4233-0.125-0.5631-0.07-0.2907-0.155-0.482-0.345-0.4816-0.135 2e-4 -0.303 0.1036-0.552 0.2807-0.482 0.3507-1.294 0.8602-2.172 0.8617l-8.566 0.0155 0.196-1.0864 8.145-0.0147c0.831-0.0015 1.331-0.4405 1.773-0.8242 0.157-0.1365 0.303-0.2619 0.457-0.3652 0.687-0.4651 1.262-0.4294 1.647 0.1185 0.337 0.4816 0.511 1.3575 0.71 2.3696 0.063 0.3238 0.13 0.7029 0.203 1.0415 0.019 0.0883 0.121 0.0881 0.143-3e-4 0.657-3.2924 2.185-9.7709 2.905-12.684 0.279-1.1454 0.732-1.5549 1.036-1.5554 0.381-7e-4 0.652 0.5474 0.709 1.4235 0.135 1.9804 0.337 8.6251 0.354 9.8436 0 0.0295 4e-3 0.1215 0.074 0.1214 0.036-1e-4 0.062-0.0296 0.08-0.0591 0.285-0.4349 1.004-1.5001 1.456-1.9685 0.333-0.3467 0.607-0.5018 0.889-0.5023 0.212-4e-4 0.432 0.0802 0.695 0.2565 0.217 0.1468 0.418 0.3011 0.612 0.4517 0.389 0.2975 0.751 0.584 1.169 0.7231 0.351 0.1209 0.941 0.1456 1.372 0.1448 0.246-4e-4 0.509-0.0083 0.604-0.0158l-0.181 1.0091zm-17.672-2.814c-0.969 0.0017-1.919-0.8617-1.757-2.342 0.144-1.2961 1.01-2.5126 2.473-2.5152 0.831-0.0015 1.344 0.4357 1.528 0.8035l0.134-0.7108 1.006-0.0018-0.804 4.6659-0.293 5e-4c-0.336 6e-4 -0.696-0.2675-0.612-0.702l0.014-0.07c-0.295 0.4644-0.781 0.8702-1.689 0.8719z"/>
<path d="m129.28 20.207c-0.142 0.0482-0.333 0.0595-0.68 0.0602l-0.78 0.0014 0.362-2.0844 1.021-0.0018c1.222-0.0022 1.13 1.673 0.077 2.0246z" clip-rule="evenodd" fill-rule="evenodd"/>
<path d="m128.84 23.183c-0.128 0.0334-0.34 0.0522-0.776 0.0529l-0.761 0.0014 0.377-2.1912 1.131-2e-3c1.489-0.0027 1.357 1.8052 0.029 2.1389z" clip-rule="evenodd" fill-rule="evenodd"/>
<path d="m139.27 23.307c-1.691-0.0927-1.144-3.3518 0.572-3.2591 1.552 0.0818 1.074 3.3482-0.572 3.2591z" clip-rule="evenodd" fill-rule="evenodd"/>
<path d="m144.61 23.206c-1.551-0.0856-1.074-3.3409 0.573-3.2518 1.69 0.0927 1.144 3.3444-0.573 3.2518z" clip-rule="evenodd" fill-rule="evenodd"/>
<path d="m153.93 1.4904c0.183-3.3e-4 0.403 0.04346 0.579 0.11309l0.287-1.1123c-0.22-0.080597-0.535-0.13157-0.911-0.13089-0.981 0.001765-1.632 0.47048-1.9 1.5239l-0.062 0.25414-0.553 9.9e-4 -0.305 1.1492 0.563-0.00101-0.959 3.5875 1.332-0.0024 0.959-3.5875 1.105-0.00199 0.306-1.1492-1.131 0.00204 0.033-0.1326c0.098-0.34255 0.306-0.51228 0.657-0.51291zm-6.102 0.56689c-1.508 0.00271-2.716 1.3302-2.714 2.7439 2e-3 1.2628 0.875 2.1889 2.269 2.1864 1.508-0.00271 2.713-1.3302 2.71-2.7439-2e-3 -1.2628-0.871-2.1889-2.265-2.1864zm-0.388 3.7816c-0.604 0.00109-1.018-0.38473-1.02-1.0768-1e-3 -0.67003 0.532-1.5546 1.348-1.556 0.607-0.00109 1.018 0.38841 1.019 1.0768 1e-3 0.67003-0.531 1.5546-1.347 1.556zm-6.493-2.5322l1.105-0.00199 0.306-1.1492-1.105 0.00199 0.323-1.2081-1.335 0.002404-0.32 1.2081-0.564 0.00101-0.305 1.1492 0.563-0.00101-0.567 2.1473c-0.05 0.21362-0.087 0.39776-0.086 0.59287 1e-3 0.51909 0.397 0.92703 1.202 0.92558 0.362-6.5e-4 0.702-0.07122 0.965-0.19686l0.306-1.1381c-0.22 0.09611-0.476 0.14812-0.684 0.14849-0.246 4.4e-4 -0.359-0.10244-0.36-0.27915 0-0.05522 0.015-0.1436 0.033-0.21358l0.523-1.989zm-3.842-0.1882l0.254-0.95396-1.332 0.00239-1.246 4.7366 1.332-0.0024 0.443-1.6796c0.324-1.2265 1.007-1.7395 1.892-1.7411l0.07-1.3e-4 0.374-1.407c-0.772-0.06119-1.313 0.34842-1.787 1.0451zm-4.587-0.99679c-0.666 0.0012-1.262 0.1348-1.745 0.33815l0.215 1.0599c0.34-0.14051 0.797-0.25914 1.25-0.25996 0.659-0.00118 0.886 0.23034 0.887 0.55431 0 0.14358-0.025 0.25039-0.051 0.35351l-0.018 0.06262c-0.395-0.12078-0.816-0.20837-1.325-0.20746-1.138 0.00205-2.022 0.61109-2.02 1.7082 1e-3 0.73997 0.555 1.2691 1.371 1.2676 0.552-9.9e-4 1.024-0.23009 1.4-0.63573l-0.138 0.54511 1.288-0.00232 0.687-2.6151c0.062-0.23941 0.105-0.46774 0.105-0.7144-2e-3 -0.92773-0.643-1.4567-1.906-1.4544zm0.313 3.0035c-0.149 0.51199-0.628 0.95463-1.18 0.95563-0.381 6.8e-4 -0.615-0.21242-0.616-0.50326-1e-3 -0.46018 0.401-0.74438 0.954-0.74537 0.325-5.9e-4 0.648 0.07982 0.878 0.16776l-0.036 0.12524zm-3.428-3.7674c-0.447-0.44834-1.051-0.62396-1.93-0.62238l-1.946 0.003504-1.636 6.1842 1.35-0.00243 0.495-1.8711 1.167-0.0021c1.676-0.00301 2.981-0.88156 2.978-2.4167-1e-3 -0.54118-0.159-0.9569-0.478-1.2729zm-2.433 2.4968l-0.918 0.00165 0.494-1.8932 0.878-0.00158c0.403-7.3e-4 0.659 0.08717 0.842 0.27459 0.132 0.1323 0.202 0.30888 0.203 0.51137 1e-3 0.69579-0.602 1.1055-1.499 1.1071z" clip-rule="evenodd" fill-rule="evenodd"/>
<path d="m64.213 28.394l46.599-0.0838 3e-3 1.3548-46.823 0.0842 0.2208-1.3552z" clip-rule="evenodd" fill-rule="evenodd"/>
<path d="m49.02 28.422l0.4634 1.354-43.734 0.0787-0.00244-1.3548 43.273-0.0779z" clip-rule="evenodd" fill-rule="evenodd"/>
</g>
<defs>
<clipPath id="a">
<rect transform="translate(.13135 .63696) rotate(-.10311)" width="164" height="54" fill="#fff"/>
</clipPath>
</defs>
</svg>
