<svg width="18" height="14" viewBox="0 0 18 14" fill="none" xmlns="http://www.w3.org/2000/svg">
<path d="M11.4528 0.596632C11.2475 0.908673 11.292 1.36193 11.5532 1.6083L13.3981 3.34967L15.822 5.9328L0.714108 5.95999C0.382052 5.96059 0.113863 6.28379 0.114579 6.68142C0.115295 7.07905 0.384645 7.40128 0.7167 7.40069L15.6736 7.37377L11.4841 11.7289C11.2338 11.9886 11.2062 12.4439 11.4238 12.7447C11.6415 13.0454 12.0209 13.0778 12.2715 12.8171L17.7372 7.13522C17.868 6.99956 17.9433 6.80301 17.9446 6.59555C17.9446 6.59363 17.9446 6.5917 17.9446 6.58978C17.9442 6.38424 17.8709 6.18892 17.7429 6.05276L14.1687 2.24567L12.2966 0.476975C12.0358 0.230605 11.6582 0.284111 11.4528 0.596632Z" fill="black"/>
</svg>
