<svg width="489" height="489" fill="none" xmlns="http://www.w3.org/2000/svg"><g opacity=".1" fill="#0079C8"><path d="M412.612 488.182c33.89-2.425 54.885-19.287 66.117-44.558.123-.308.275-.619.4-.91a97.11 97.11 0 0 0 3.819-10.454c7.084-23.039 7.6-51.368 3.36-81.452l-.209-1.374c-1.4-9.606-3.29-19.402-5.586-29.239a149.364 149.364 0 0 0-.849-3.559c-3.068-12.588-6.821-25.232-11.12-37.728-.459-1.297-.898-2.57-1.354-3.85-.583-1.606-1.144-3.171-1.718-4.726-.554-1.514-1.085-2.987-1.669-4.498a452.133 452.133 0 0 0-3.465-8.833c-.422-1.06-.845-2.12-1.281-3.17-.223-.56-.463-1.126-.703-1.693-1.552-3.734-3.129-7.433-4.812-11.116a459.373 459.373 0 0 0-6.27-13.434c-33.59-69.036-81.166-121.107-117.832-107.236-93.183 35.264-127.127-52.968-223.322-99.619C55.042-4.04 28.033 11.177 18.86 39.48c-7.332 22.722-1.76 60.548 15.772 100.826C55.2 187.595 93.398 257.23 152.967 299.839c96.893 69.321 148.546 196.363 259.645 188.343zM223.061 19.23c-15.078-10.762-10.028-24.625 6.164-17.072 13.394 6.242 28.234 15.461 32.905 27.081 5.463 13.55-20.056 3.57-39.069-10.009zM70.938 363.405c27.062 18.996 18.65 44.067-10.303 30.877-23.9-10.893-50.49-27.103-59.194-47.899-10.14-24.256 35.363-6.934 69.497 17.022z"/></g><path d="M418.84 224.245c-.592 31.339-3.386 52.377-9.269 66.176-3.781 8.841-8.818 14.692-15.392 18.361-4.346 2.423-9.044 3.627-13.798 3.627a29.22 29.22 0 0 1-8.973-1.417c-3.626-1.161-7.181-3.003-10.539-5.525-7.844-5.908-15.378-14.082-22.559-24.467-4.303-6.248-8.494-13.275-12.529-21.067a263.553 263.553 0 0 1-7.703-16.208c-8.959-20.443-13.967-37.883-14.179-38.606l21.713-6.446 21.515-9.096c.043.17 4.684 18.22 12.444 35.858 2.455 5.568 4.839 10.47 7.111 14.763a170.762 170.762 0 0 0 5.572 9.69c.015-.226.029-.467.057-.694.748-8.132 1.298-18.928 1.382-33.166.085-15.4-.423-29.766-.832-38.578-.282-6.149 3.118-11.886 8.663-14.351 8.126-3.613 16.732-4.336 25.903-1.743 6.052 1.7 10.299 7.254 10.595 13.629.522 10.881 1.171 29.681.818 49.26z" fill="#0079C8"/><path d="M409.571 290.422c-3.781 8.84-8.818 14.691-15.392 18.361-4.345 2.422-9.044 3.627-13.798 3.627a29.25 29.25 0 0 1-8.973-1.417c6.941-10.739 18.778-24.722 32.52-22.824 2.328.312 4.19 1.105 5.643 2.253zM338.31 281c-4.317-6.233-8.493-13.275-12.542-21.081 4.966-27.046 19.342-65.609 19.61-66.332-9.974 67.395-8.211 73.331-7.068 87.413zM372.353 249.888s-2.173 14.196-5.657 27.499v-37.19a155.629 155.629 0 0 0 5.572 9.691c.029-.241.043-.468.071-.709 0 .241.014.482.014.709z" fill="#005389"/><path d="M415.807 148.039s3.781 23.957-11.738 26.96a75.454 75.454 0 0 1-5.657.864 54.01 54.01 0 0 1-2.808.256c-9.946.637-15.011-1.531-15.011-1.531s-13.417-9.846-13.841-18.403c-.338-7.041 5.841-10.314 8.042-11.263.48-.199.762-.298.762-.298s-.353-.751-.804-1.997c-1.721-4.817.818-19.438 4.571-20.883 6.955-2.664 34.834 1.488 36.512 11.334.099.538.17 1.062.24 1.558.155 1.091.268 2.125.353 3.089.536 6.8-.621 10.314-.621 10.314z" fill="#F4AC97"/><path d="M390.793 158.054a3.23 3.23 0 0 1-.282.425c-1.002 1.303-2.991 1.955-5.474 1.955-2.794 0-6.208-.822-9.524-2.437a1.08 1.08 0 0 1-.493-1.431c.254-.538.874-.765 1.396-.51 5.545 2.692 11.146 2.806 12.458 1.091.79-1.02-.367-2.776-1.129-3.726-2.751-3.457-7.011-5.907-10.412-7.452-.07-.028-.141-.056-.197-.085a5.172 5.172 0 0 1-.282-.127 77.364 77.364 0 0 0-2.06-.85c.48-.199.762-.298.762-.298s-.353-.751-.804-1.997c.987.354 2.215.835 3.569 1.459.028.014.042.014.071.028.663.298 1.34.638 2.045 1.006.903.468 1.82.992 2.737 1.573a28.744 28.744 0 0 1 3.711 2.776 20.819 20.819 0 0 1 2.497 2.607c1.016 1.275 1.524 2.352 1.735 3.273.268 1.204.014 2.111-.324 2.72z" fill="#DB8276"/><path d="M398.411 175.849c-.973.113-1.918.198-2.807.255a15.136 15.136 0 0 1-1.439-1.828c-.861-1.275-1.524-2.649-2.032-4.038a22.418 22.418 0 0 1-.832-2.946c-.706-3.33-.706-6.645-.508-9.238.085-1.034.197-1.955.31-2.72.198-1.275.381-2.082.409-2.21a1.052 1.052 0 0 1 1.27-.779c.565.142.917.722.776 1.289-.028.114-2.765 11.873 2.342 19.424a11.904 11.904 0 0 0 2.511 2.791z" fill="#DB8276"/><path d="M387.082 173.285c-.493 0-.931-.354-1.03-.864a1.055 1.055 0 0 1 .833-1.247c.155-.028 3.682-.793 4.486-4.123a1.051 1.051 0 0 1 1.27-.779c.564.142.903.722.762 1.289-1.143 4.675-5.911 5.667-6.123 5.71-.071 0-.141.014-.198.014zM383.372 147.585c-.395 0-.762-.226-.945-.609-2.977-6.234-1.891-14.776-1.849-15.131a1.065 1.065 0 0 1 1.185-.921c.579.085.974.61.903 1.205-.014.085-1.044 8.273 1.651 13.912.254.538.042 1.176-.48 1.431a.939.939 0 0 1-.465.113zM392.599 150.589c-.395 0-.762-.227-.945-.61-2.977-6.233-1.891-14.776-1.849-15.13a1.058 1.058 0 0 1 1.171-.921c.579.085.974.609.903 1.204-.014.085-1.044 8.274 1.651 13.912.254.539.042 1.176-.48 1.431a1.012 1.012 0 0 1-.451.114zM403.434 151.028c-.395 0-.762-.227-.945-.609-2.963-6.205-2.23-14.352-2.201-14.692.056-.581.564-1.02 1.142-.963.579.057 1.002.581.946 1.162-.014.085-.706 7.891 2.003 13.544.254.524.042 1.176-.48 1.431a.828.828 0 0 1-.465.127zM416.4 137.724c-1.129 1.204-2.427 2.026-3.485 2.579-.988.51-1.778.779-2.004.836-.028.014-.056.014-.056.014a1.034 1.034 0 0 1-1.298-.737c-.155-.567.155-1.162.72-1.318.07-.014 4.02-1.232 5.77-4.476a48.15 48.15 0 0 1 .353 3.102z" fill="#DB8276"/><path d="M401.191 151.963c-10.666 0-23.956-6.021-24.761-6.39a1.083 1.083 0 0 1-.522-1.417c.24-.538.861-.779 1.383-.538.268.128 27.145 12.297 33.663 2.324.324-.525.239-3.16-.156-5.653a1.074 1.074 0 0 1 .861-1.233 1.055 1.055 0 0 1 1.213.879c.268 1.671.805 5.709-.155 7.182-2.37 3.599-6.673 4.846-11.526 4.846z" fill="#DB8276"/><path d="M343.361 418.679a156.974 156.974 0 0 1-10.878 4.987c-23.434 9.762-48.942 14.21-74.097 14.522h-1.143a238.039 238.039 0 0 1-23.857-1.048c-.96-.085-1.891-.17-2.836-.284a238.25 238.25 0 0 1-29.204-4.958c-.974-.241-1.933-.468-2.893-.709-1.199-.311-2.37-.609-3.527-.921-1.128-.297-2.229-.58-3.343-.906a218.592 218.592 0 0 1-6.49-1.955c-.776-.241-1.552-.482-2.314-.737a42.047 42.047 0 0 1-1.227-.411c-2.709-.907-5.376-1.842-7.986-2.876a197.562 197.562 0 0 1-9.466-3.896 1247.742 1247.742 0 0 1-7.591-68.131c-2.356-28.208-.691-60.084 3.4-90.544a616.1 616.1 0 0 1 2.78-18.545 536.794 536.794 0 0 1 5.953-30.191c.043-.156.071-.326.113-.468v-.014c9.608-41.95 22.673-73.883 33.226-77.439 22.122-7.438 142.099 28.094 145.598 54.162-1.058 19.324-20.542 72.311-22.7 83.177-7.492 37.643 7.11 104.371 18.482 147.185z" fill="#0079C8"/><path d="M214.114 190.91s-29.007 63.144-54.204 69.888a564.791 564.791 0 0 1 2.793-18.531 537.672 537.672 0 0 1 5.954-30.205c.042-.156.07-.326.113-.467 11.893-6.9 27.426-12.369 45.344-20.685zM280.593 178.513c-.706 0-1.425-.028-2.173-.07-18.341-1.191-28.795-19.934-29.233-20.727-.437-.794-.155-1.8.621-2.239a1.609 1.609 0 0 1 2.201.638c.099.184 10.059 17.978 26.623 19.055 15.815 1.034 17.17-10.47 17.212-10.952.099-.906.875-1.558 1.763-1.473.889.085 1.538.893 1.454 1.785-.029.128-1.524 13.983-18.468 13.983z" fill="#005389"/><path d="M248.313 144.27c22.305 33.124 41.634 22.881 41.634 22.881l5.107-20.16 3.626-14.352-27.822-24.226-7.167-6.234-.409 1.119-.748 2.054-14.221 38.918z" fill="#F4AC97"/><path d="M262.52 105.367c1.876 7.891 15.872 47.688 33.254 38.776l2.906-11.504-27.822-24.226-7.576-5.114-.762 2.068z" fill="#2C193F"/><path d="M309.19 60.371s17.255-8.09 23.575 8.713c6.321 16.788-7.9 28.08-23.024 22.47l-.551-31.183z" fill="#DB8276"/><path d="M329.323 88.933l-.042 1.587a90.03 90.03 0 0 1-.325 4.774c-1.114 11.631-4.768 23.079-12.838 32.174-19.047 21.478-41.027.383-56.518-24.368a201.384 201.384 0 0 1-5.362-9.124c-4.528-8.245-8.239-16.363-10.778-22.98a55.008 55.008 0 0 1-1.143-3.243c-10.229-32.5 17.508-53.227 33.324-55.48 15.336-2.21 28.696 2.352 38.741 16.647 1.835 2.592 3.542 5.525 5.15 8.783 0 0 9.114 22.06 9.777 46.314.057 1.629.057 3.272.014 4.916z" fill="#F4AC97"/><path d="M283.372 69.721a.701.701 0 0 1-.169-.028.638.638 0 0 1-.438-.78c.014-.07 2.258-7.749 10.031-8.698a.621.621 0 0 1 .692.553.622.622 0 0 1-.551.694c-6.955.85-8.958 7.721-8.987 7.792-.042.283-.296.467-.578.467zM323.256 63.87a.62.62 0 0 1-.507-.255c-3.443-4.675-9.792-4.732-9.862-4.732a.628.628 0 0 1-.621-.623c0-.34.282-.623.621-.623.338 0 7.04.07 10.863 5.241a.632.632 0 0 1-.127.879.698.698 0 0 1-.367.113zM300.74 85.787a.662.662 0 0 0-.678-.637.663.663 0 0 0-.62.694c0 .029.084 2.451-1.693 3.74-.085.057-.156.114-.24.156-.282.17-.409.524-.254.822l.042.1c.155.31.55.41.847.24.127-.07.254-.156.366-.24 2.357-1.715 2.244-4.747 2.23-4.875zM317.091 85.461a.666.666 0 0 1 .226-.906.656.656 0 0 1 .903.24c.014.015 1.269 2.097 3.456 2.197h.297a.625.625 0 0 1 .663.552l.014.1a.612.612 0 0 1-.579.665 2.245 2.245 0 0 1-.437 0c-2.906-.142-4.472-2.734-4.543-2.848zM292.26 89.428c-1.848 0-4.077-.552-6.673-1.657a.661.661 0 0 1-.353-.865.642.642 0 0 1 .847-.354c4.119 1.757 7.251 2.026 9.057.78 1.792-1.247 1.778-3.67 1.778-3.698a.661.661 0 0 1 .635-.68.651.651 0 0 1 .663.651c0 .128.056 3.16-2.328 4.817-.959.666-2.173 1.006-3.626 1.006zM322.114 85.575c-.494 0-.974-.057-1.467-.17-3.273-.751-5.079-3.769-5.15-3.896a.666.666 0 0 1 .226-.907.644.644 0 0 1 .889.227c.028.042 1.622 2.677 4.331 3.286 1.636.369 3.386-.056 5.178-1.289a.642.642 0 0 1 .903.184.676.676 0 0 1-.184.921c-1.594 1.091-3.188 1.644-4.726 1.644z" fill="#DB8276"/><path d="M314.396 28.92c-4.5 7.692-32.365 7.565-40.237 5.992-8.479-1.685-21.163.85-21.163.85l9.326 1.403s3.569 8.231 1.75 15.244c-1.806 7.013 4.274 22.512 4.274 22.512l-7.223 2.125-4.515-12.51c-7.223-3.215-14.292 3.216-14.292 3.216-3.654-11.588-2.469-21.69 1.284-29.978 6.758-14.96 21.868-24.056 32.054-25.501 15.322-2.21 28.697 2.352 38.742 16.647z" fill="#2C193F"/><path d="M321.14 37.207c-39.941-8.174-82.732 25.558-82.732 25.558-1.156-4.122-.296-10.186-1.975-15.881-2.652-8.983-2.342-22.045 4.515-31.891a29.498 29.498 0 0 1 3.146-3.797c3.104-3.16 7.111-5.766 12.176-7.523.225-.085.451-.156.691-.24a51.707 51.707 0 0 1 1.806-.553c3.724-1.091 7.252-1.729 10.623-2.012.791-.071 1.567-.114 2.342-.142 5.023-.17 9.622.496 13.827 1.757 1.255.368 2.483.793 3.668 1.275 22.009 8.77 31.913 33.45 31.913 33.45z" fill="#B3D59C"/><path d="M245.392 52.451a1.157 1.157 0 0 1-1.467-.765c-4.769-14.79-4.43-27.654-2.963-36.708a29.506 29.506 0 0 1 3.146-3.796c-1.947 8.727-3.357 23.107 2.018 39.782a1.191 1.191 0 0 1-.734 1.487zM264.721 42.151c-.24.156-.522.213-.79.17a1.109 1.109 0 0 1-.805-.552c-8.62-14.054-8.027-29.752-6.842-38.125.226-.085.451-.155.691-.24a52.373 52.373 0 0 1 1.806-.553c-1.199 7.693-2.229 23.73 6.307 37.657.338.581.169 1.303-.367 1.643zM279.534 30.123a1.188 1.188 0 0 1-.902.255 1.192 1.192 0 0 1-.734-.425c-6.758-8.486-8.239-21.591-8.507-29.1a44.14 44.14 0 0 1 2.342-.142c.268 7.197 1.693 19.849 7.971 27.74.409.524.324 1.261-.17 1.672zM299.286 31.724a.978.978 0 0 1-.451.014 1.198 1.198 0 0 1-.96-.878c-3.23-13.204-8.309-22.555-12.316-28.391 1.255.368 2.483.793 3.668 1.275 3.767 6.035 8.014 14.776 10.892 26.535.155.652-.212 1.29-.833 1.445z" fill="#81A47A"/><path d="M235.192 49.264s-.861 10.597 2.765 16.675c0 0 48.223-35.447 83.818-26.932 0 0 .226-10.91-6.278-17.71.014 0-41.775-7.508-80.305 27.967z" fill="#81A47A"/><path d="M254.238 93.976a202.509 202.509 0 0 0 5.347 9.124c4.191-3.67 6.095-9.308 6.095-9.308l-11.442.184z" fill="#DB8276"/><path d="M257.512 63.757s-18.807-2.735-20.161 15.201c-1.369 17.936 15.42 24.623 28.343 14.848l-8.182-30.05z" fill="#F4AC97"/><path d="M293.982 73.872a84.612 84.612 0 0 0-4.6 1.658c-.07 1.048.029 2.252.339 3.5.832 3.385 2.808 5.794 4.43 5.383 1.608-.411 2.257-3.485 1.425-6.871-.367-1.46-.931-2.72-1.594-3.67z" fill="#2C193F"/><path d="M283.231 78.052a.661.661 0 0 1-.621-.454.661.661 0 0 1 .41-.835l15.646-5.327a.643.643 0 0 1 .818.425.66.66 0 0 1-.409.836l-15.646 5.326c-.057.029-.127.029-.198.029z" fill="#DB8276"/><path d="M318.262 71.578a93.493 93.493 0 0 1 4.882-.043c.409.964.719 2.126.846 3.415.353 3.47-.719 6.418-2.37 6.588-1.651.17-3.273-2.494-3.626-5.965-.155-1.487-.042-2.876.268-3.995z" fill="#2C193F"/><path d="M329.76 71.79a.662.662 0 0 0 .424-.637.67.67 0 0 0-.663-.652l-16.493.41a.652.652 0 0 0-.635.68.67.67 0 0 0 .663.653l16.493-.411c.07 0 .141-.014.211-.043z" fill="#DB8276"/><path d="M323.764 52.848c-2.271-1.842-6.885-4.987-11.752-4.803-1.383.057-2.539 1.134-2.737 2.536l-.099.666c-.24 1.672.903 3.245 2.54 3.443 2.187.255 5.347 1.02 8.733 3.06 1.665 1.006 3.823.127 4.317-1.785.296-1.162-.099-2.38-1.002-3.117zM281.355 55.554c2.144-1.997 6.546-5.426 11.427-5.582 1.383-.042 2.596.964 2.893 2.352l.141.694c.352 1.644-.706 3.259-2.328 3.556-2.173.411-5.277 1.375-8.508 3.627a2.903 2.903 0 0 1-4.43-1.487 3.007 3.007 0 0 1 .805-3.16z" fill="#2C193F"/><path d="M302.983 65.698s15.448 19.424 15.519 25.487c.028 1.814-.974 2.99-2.37 3.726-4.346 2.295-9.65-.567-10.737-5.44-1.058-4.789-2.201-12.467-2.412-23.773zM258.739 89.442a1.179 1.179 0 0 1-.946-.793c-.028-.1-3.329-9.323-12.302-10.513h-.028c-.635-.099-1.073-.694-1.002-1.346.085-.651.677-1.119 1.312-1.034l.325.043c10.214 1.544 13.755 11.631 13.91 12.07.212.624-.112 1.318-.719 1.53-.169.043-.367.071-.55.043z" fill="#DB8276"/><path d="M247.621 88.266c-.056-.014-.127-.028-.183-.042-.621-.199-.959-.879-.776-1.502 1.256-4.066 5.601-7.367 5.784-7.495a1.163 1.163 0 0 1 1.651.255c.381.539.268 1.29-.254 1.686-.056.043-3.908 2.975-4.924 6.276a1.175 1.175 0 0 1-1.298.822z" fill="#DB8276"/><path opacity=".7" d="M273.525 92.12c-.029 1.8 4.119 3.316 9.269 3.4 5.149.086 9.354-1.303 9.382-3.102.028-1.8-4.12-3.315-9.269-3.4-5.15-.085-9.354 1.303-9.382 3.102zM329.323 88.932l-.042 1.587a91.094 91.094 0 0 1-.325 4.774c-4.176-.382-7.294-1.728-7.266-3.3.015-1.587 3.316-2.848 7.633-3.06z" fill="#DB8276"/><path d="M277.249 96.583s1.03 17.738-6.715 24.368c0 0 18.975 19.877 36.145 15.414 14.871-3.867 22.941-24.934 21.558-35.602 0 0-27.582 11.249-50.988-4.18z" fill="#0079C8"/><path d="M306.679 127.057c-7.223 0-13.995-3.528-14.433-3.755a.843.843 0 0 1-.353-1.133.836.836 0 0 1 1.129-.354c.155.085 14.997 7.792 23.392.127a.842.842 0 0 1 1.185.057c.31.34.282.878-.056 1.19-3.175 2.904-7.083 3.868-10.864 3.868z" fill="#005389"/><path d="M272.805 122a1.01 1.01 0 0 1-.593-.185c-.282-.198-6.87-4.873-13.529-16.533a1.059 1.059 0 0 1 .38-1.431 1.05 1.05 0 0 1 1.425.383c6.42 11.249 12.839 15.81 12.91 15.853a1.05 1.05 0 0 1-.593 1.913zM278.434 100.493a1.04 1.04 0 0 1-1.016-.822c-.056-.255-5.939-26.068-18.552-33.435-3.471-2.026-7.195-2.45-11.061-1.26a1.037 1.037 0 0 1-1.298-.695 1.043 1.043 0 0 1 .691-1.303c4.444-1.36 8.719-.879 12.712 1.459 13.403 7.82 19.3 33.69 19.54 34.78a1.041 1.041 0 0 1-.79 1.248c-.071.014-.141.028-.226.028z" fill="#0079C8"/><path d="M309.698 381.433c-11.174 0-22.856-2.026-34.89-6.05-13.46-4.505-27.385-11.503-41.394-20.826-23.815-15.839-39.87-33.137-40.026-33.307a1.67 1.67 0 0 1 .071-2.324 1.593 1.593 0 0 1 2.285.071c.156.17 15.999 17.228 39.504 32.84 21.586 14.338 54.233 30.375 87.246 25.346.889-.142 1.707.481 1.834 1.388.127.893-.479 1.743-1.354 1.87a87.277 87.277 0 0 1-13.276.992z" fill="#005389"/><path d="M301.247 366.515c-.056 0-.113 0-.169-.014-12.867-1.403-27.878-9.223-44.597-23.263-12.373-10.385-21.134-20.515-21.219-20.614a1.671 1.671 0 0 1 .141-2.323 1.58 1.58 0 0 1 2.272.156c.338.396 34.452 39.597 63.727 42.771.889.099 1.524.907 1.439 1.813a1.6 1.6 0 0 1-1.594 1.474zM185.107 427.392c-.776-.241-1.552-.482-2.314-.737-.409-.127-.818-.269-1.227-.411a723.926 723.926 0 0 1-7.28-46.441c-3.584-29.1-5.22-57.789-4.868-85.188.593-46.71 6.871-74.039 6.942-74.309a1.592 1.592 0 0 1 1.933-1.218c.86.198 1.382 1.105 1.185 1.984-.057.269-6.236 27.328-6.829 73.727-.395 31.65 1.834 77.297 12.458 132.593z" fill="#005389"/><path d="M328.448 120.851l16.507-4.873 3.485 5.752 21.741-2.21-23.476 7.537-4.346-7.537-13.911 1.331zM323.948 129.692l16.45 5.157-.198 6.758 19.371 10.314-23.688-6.829.424-8.741-12.359-6.659z" fill="#FFF3EF"/><path d="M69.898 281.864c.691 5.936 2.37 12.298 5.107 19.424.085.227.184.467.282.708 3.725 9.535 9.523 20.77 17.227 33.393 12.711 20.812 26.608 38.946 27.201 39.697 6.221 8.104 15.942 11.801 25.268 10.597 4.811-.623 9.523-2.536 13.614-5.808 12.035-9.634 14.137-27.4 4.713-39.669-.099-.128-9.679-12.623-19.583-28.038-10.849-16.887-15.477-27.017-17.424-32.315-.169-.44-.31-.851-.437-1.219 1.721-2.465 3.71-5.058 5.883-7.735 23.956-29.412 72.799-70.044 92.184-85.175 12.162-9.478 14.49-27.201 5.206-39.598-9.283-12.396-26.665-14.776-38.826-5.298-.903.694-22.249 17.369-46.826 39.272-33.676 29.992-56.532 54.813-67.974 73.769-.197.34-.41.666-.593 1.006-4.514 7.707-6.207 16.789-5.022 26.989z" fill="#0079C8"/><path d="M69.898 281.864c.691 5.937 2.37 12.298 5.107 19.424.085.227.184.468.282.708 15.124-22.455 6.603-39.81.24-48.112-.197.34-.41.666-.593 1.006-4.528 7.693-6.221 16.774-5.036 26.974zM126.303 279.868c-.169-.439-.31-.85-.437-1.219 1.721-2.465 3.71-5.057 5.883-7.735-9.537-2.04-24.45-4.094-35.596-.425.015 0 17.438 3.386 30.15 9.379z" fill="#005389"/><path d="M147.353 352.405c3.09-1.275 7.901-1.261 12.26-.652 5.757.794 14.151 3.783 18.44 6.716 6.448 4.406 24.718 18.403 25.635 24.835.917 6.432-15.773-4.42-19.23-6.573-3.47-2.154-6.617-2.338-6.617-2.338s36.372 27.867 36.541 33.067c.17 5.185-22.122-8.6-27.596-12.043 0 0 26.242 22.527 25.311 25.856-1.863 6.673-31.73-17.511-31.73-17.511s21.12 20.089 17.734 23.475c-3.583 3.585-26.157-17.978-26.157-17.978s11.865 15.117 10.271 19.381c-1.594 4.264-28.936-25.544-32.59-30.63-3.654-5.086-14.631-17.993-18.214-25.36-2.441-5.015 6.151-16.207 15.942-20.245z" fill="#F4AC97"/></svg>