<svg width="439" height="488" fill="none" xmlns="http://www.w3.org/2000/svg"><path d="M328.417 141.73a75.381 75.381 0 0 1-6.523 28.681c.248.75.204 1.562-.32 2.335a139.297 139.297 0 0 1-3.164 4.546c-4.175 7.353-9.493 13.967-15.654 19.638-.774.699-1.68.817-2.525.566a129.21 129.21 0 0 1-3.328 2.816c-17.037 13.8-38.321 22.399-61.867 21.874-13.759-.311-27.926-3.761-41.013-10.231.481 3.429.993 6.846 1.458 10.259 1.286 9.439 2.095 19.656-2.767 26.839-1.878 2.789-4.449 4.842-7.432 6.299-4.54 2.256-10.002 3.154-15.377 3.151a60.158 60.158 0 0 1-7.869-.549 59.982 59.982 0 0 1-10.275-2.325 86.522 86.522 0 0 1-2.052-.684c-5.831-2.08-11.659-5.196-15.878-10.095-5.061-5.872-7.214-13.869-6.221-20.856 1.008-7 4.995-12.93 10.459-16.763-12.819-4.101-23.858-16.324-26.708-29.581-1.262-5.872-1.008-11.685.263-17.195.915-4.012 2.347-7.856 4.114-11.443 2.523-5.104 5.773-9.828 10.058-13.385 6.289-5.186 14.5-7.567 22.67-9.466 8.154-1.9 16.553-3.459 23.827-7.231 4.415-2.302 8.387-5.596 11.12-9.734.82-2.201 1.625-4.404 2.447-6.573 3.791-9.909 8.706-18.813 16.065-26.124 12.746-12.615 30.834-19.702 50.079-18.59 18.718 1.085 37.783 10.546 52.182 24.84 16.219 16.116 24.809 37.848 24.231 58.981z" fill="#090E3F"/><path d="M361.404 270.213c.517.499 1.073 1.137.926 1.737-.051.265-.217.458-.45.585-9.296-2.669-18.622-5.296-28.022-6.792-9.336-1.49-18.792-1.824-27.539.023a162.662 162.662 0 0 1 16.861-6.301l.476.975c6.206.273 12.43.937 18.672 1.977 6.725 1.161 13.929 2.999 19.076 7.796z" fill="#D68982"/><path d="M331.838 277.542l-22.486 1.025.078.351c12.417 1.814 24.836 4.655 37.115 8.492-.858.62-2.052 1.015-3.119 1.144-5.721.712-33.401 3.426-52.83 5.635-6.142.68-11.477 1.342-15.03 1.846-4.752-8.502-10.54-16.544-17.165-23.856-1.246-1.385-2.602-2.782-4.071-3.927 9.071-13.877 23.137-24.033 39.586-28.444.476-.133.968-.249 1.46-.381l.015.002c3.107-.741 6.349-1.248 9.656-1.033 1.014.067 2.062.2 3.083.408.596.114 1.275.33 1.52.902.122.294.106.604.056.878-.294 1.695-1.543 2.924-2.782 4.015-2.479 2.196-5.089 4.253-7.684 6.297-3.315 2.6-6.615 5.203-9.93 7.803l.05.068c14.064-11.184 29.923-20.236 47.017-26.831a3.313 3.313 0 0 1-.276.747c-1.09 2.29-3.196 3.812-5.244 5.248-5.935 4.127-11.902 8.205-17.937 12.181a945.878 945.878 0 0 1-13.884 9.056l.224.461c13.034-4.607 26.947-7.388 41.276-8.254 3.644-.229 7.342-.313 11.067.199.266.045.613.131.687.404l.002.031.359.025c.082 1.099-.474 2.172-1.285 2.797-1.14.884-2.685 1.115-4.182 1.352a159.23 159.23 0 0 0-24.716 5.895c-5.654 1.809-11.136 3.964-16.465 6.401 8.529-1.844 17.771-1.414 26.914.219 9.19 1.638 18.311 4.452 27.402 7.309-.378.237-.919.301-1.4.325-9.017.389-18.049.807-27.081 1.21z" fill="#E7BAA8"/><path d="M354.319 249.593l-.364-.024-.001-.031c-.077-.267-.429-.366-.699-.395-3.777-.497-7.524-.397-11.217-.184-14.506.866-28.6 3.604-41.814 8.13l-.229-.452a943.342 943.342 0 0 0 14.047-8.887l.457.598a134.439 134.439 0 0 1 20.511-4.244c5.748-.74 12.28-.937 17.437 2.803.556.395 1.117.882 1.478 1.47.241.391.357.8.394 1.216zM348.045 281.989c.697 1.259.083 2.325-1.022 3.086-12.534-3.637-25.21-6.312-37.885-7.993l-.08-.339 22.952-1.121c5.043 1.154 9.911 2.637 13.64 4.501.928.455 1.907.989 2.395 1.866z" fill="#D68982"/><path d="M314.095 121.902c1.958 1.04 3.646 2.596 5.211 4.202a63.431 63.431 0 0 1 8.352 10.573l.482.048a58.52 58.52 0 0 0-2.327-15.388c.031.019.063.038.094.073 4.139 3.219 7.167 7.665 9.209 12.507 1.458 3.413 2.424 7.063 2.955 10.638.602 4.156.725 8.36.006 12.32-.816 4.604-2.742 8.794-4.856 12.789-5.205 9.823-11.697 18.799-19.296 26.645-5.344 5.553-11.394 10.701-14.536 17.941v.016c-.328-.128-.625-.27-.953-.398a756.622 756.622 0 0 0 14.393-38.625c.391-.662.752-1.328 1.096-2.01-.095-.089-.205-.212-.3-.317-6.477-6.433-11.965-13.93-16.177-22.017-1.157-2.219-2.225-4.653-1.91-6.964.165-1.195.78-2.345 1.826-2.814 1.339-.615 2.916-.011 4.33.927.534.357 1.053.775 1.541 1.175 5.357 4.551 10.048 10.009 13.787 16.008l.124-.003c-2.031-10.212-7.237-20.087-14.621-27.774l.168-.158c1.529-1.25 4.013-.268 5.85.967.189.115.362.243.535.388 5.106 3.571 9.093 8.671 12.953 13.663l.387-.041c-1.466-9.008-5.444-17.884-11.255-25.27 1.009.085 2.04.427 2.932.899z" fill="#E7BAA8"/><path d="M336.872 228.259c.771.554.895 1.566.687 2.447-17.075 6.627-32.935 15.682-46.973 26.891l-.05-.068c3.313-2.606 6.61-5.214 9.923-7.82 2.592-2.047 5.2-4.109 7.677-6.31 1.223-1.094 2.487-2.324 2.782-4.022.049-.275.066-.585-.056-.879-.243-.558-.921-.79-1.517-.903a23.143 23.143 0 0 0-3.078-.408c3.879-2.106 7.991-3.874 12.077-5.551 5.364-2.22 11.01-4.424 17.189-3.792.437.049.938.136 1.339.415zM321.752 118.395c1.694.485 3.344 1.456 4.8 2.595 1.549 5.049 2.411 10.229 2.576 15.301l-.479-.053a65.525 65.525 0 0 0-8.47-10.577c-1.596-1.613-3.298-3.173-5.227-4.222l-.016-.001c.507-2.171 2.74-3.427 5.02-3.335.585.001 1.205.116 1.796.292zM323.002 146.474l-.384.038c-3.877-5.013-7.881-10.118-12.98-13.689l.352-.598c-1.438-2.501-2.042-5.422-1.669-8.081.09-.658.257-1.307.612-1.825.592-.842 1.584-1.15 2.663-1.068 5.835 7.363 9.865 16.234 11.406 25.223z" fill="#D68982"/><path d="M317.807 413.821c.519.816 1.088 1.748.87 2.594-.175.773-.931 1.166-1.613 1.471-16.527 7.578-34.544 12.383-53.229 14.188-1.533.15-3.174.257-4.632-.582-1.834-1.053-2.751-3.241-3.509-5.254-5.013-13.583-9.02-27.437-11.938-41.379 3.764-2.456 6.844-6.047 9.059-10.238l.126.077c11.668-.999 19.851-10.778 24.39-21.459 3.056-7.122 4.926-14.801 6.081-22.715 5.829 29.086 17.64 57.712 34.395 83.297z" fill="#0075C1"/><path d="M301.176 136.156c.042-.678.147-1.35.345-1.98.196-.693.484-1.409.978-1.896 7.399 7.719 12.657 17.577 14.77 27.769l-.123.003c-3.767-6.002-8.457-11.466-13.83-16.034-.488-.401-1.008-.837-1.54-1.179l.708.011c-1.059-2.128-1.509-4.477-1.308-6.694z" fill="#D68982"/><path d="M313.378 173.348c.095.105.206.227.301.316a33.881 33.881 0 0 1-1.093 2.005c.264-.769.528-1.537.792-2.321zM304.177 192.226a1.86 1.86 0 0 1-.826.555c-6.144 8.672-13.447 16.412-21.721 22.91a99.074 99.074 0 0 1-6.835 5c-3.096 2.055-6.335 3.984-9.997 4.905-3.174.785-6.561.821-9.964.398a27.509 27.509 0 0 1-2.527-.421c-3.535-.658-7.076-1.853-10.447-3.455-6.445-3.076-12.377-7.689-16.996-13.402-7.428-9.208-11.353-21.072-10.622-31.997l-.124-.03c-.111 1.549-.674 2.985-1.144 4.415-2.072 6.362-2.629 13.301-3.078 20.221-3.083-5.843-5.093-12.23-6.422-18.526-1.799-8.555-2.49-17.146-3.643-25.74 2.39-4.057 5.478-7.532 9.356-10.1-2.64-5.116-3.931-10.809-3.671-16.204.211-4.234 1.413-8.343 3.996-11.321 2.585-2.963 6.681-4.624 10.871-3.767 3.119.644 6.144 2.854 7.853 5.723 18.564 1.828 36.652-2.909 50.469-13.556a2.756 2.756 0 0 1 1.304-.55c.866-.709 31.744 75.45 24.168 84.942z" fill="#E7BAA8"/><path d="M292.711 234.875c-.688 3.275-3.649 14.589-5.298 20.086-.488.134-.977.253-1.45.389-16.339 4.51-30.351 14.816-39.434 28.864 1.449 1.169 2.769 2.558 4.011 3.955a129.341 129.341 0 0 1 16.867 24.044c3.526-.537 8.804-1.209 14.914-1.915-.112 10.813-.358 21.752-1.842 32.208-1.123 7.868-2.935 15.487-5.955 22.577-1.326 3.11-2.964 6.154-4.921 8.926a30.672 30.672 0 0 1-2.334 2.981c-4.409 5.128-10.124 8.804-17.089 9.351l-.126-.077c-2.196 4.146-5.262 7.723-9.022 10.154-3.022 1.961-6.506 3.163-10.356 3.301 5.174 3.313 8.586 9.656 8.32 15.416-.28 5.775-4.221 10.639-9.587 11.837 3.814.896 7.739 3.424 9.444 7.17 1.721 3.747.323 8.548-3.321 9.229a70.592 70.592 0 0 1 10.152 14.156c-14.264 1.577-29.146 1.591-44.481-.097-60.859-6.715-116.776-38.985-157.081-85.206a259.442 259.442 0 0 1-10.728-13.119c.816-1.215 17.866-45.059 18.074-45.65 5.312-14.672 15.622-30.85 10.556-47.414-6.91-22.638-13.089-60.363 2.046-77.767 13.793-15.853 24.847-13.996 30.487-14.109 3.93-.082 8.039-1.844 8.875-5.669-3.425 14.394 2.216 30.692 15.364 40.649 3.386 2.564 7.136 4.585 11.026 5.836-5.447 3.831-9.437 9.792-10.456 16.791-1.019 6.998 1.134 15.026 6.178 20.904 4.203 4.889 10.018 8.021 15.836 10.083a32.34 32.34 0 0 0 2.048.684c2.248.706 4.539 1.307 6.823 1.734 1.151.238 2.284.427 3.431.57 2.636.356 5.249.536 7.856.543 5.367-.002 10.821-.906 15.358-3.171a57.301 57.301 0 0 0 14.428 9.958c8.68 4.205 18.176 6.063 27.002 5.014a23.67 23.67 0 0 0 1.488-.212c5.517-.882 10.797-3.08 13.924-7.469 3.171-4.43 3.715-10.569 2.83-16.568-.102-.641-.205-1.297-.323-1.924 3.817.566 7.499-1.464 8.845-4.87 1.305-3.269.394-7.603-2.193-10.613.84.172 1.694.314 2.531.423 3.161.383 6.323.404 9.29-.226.23-.038.459-.091.689-.144a20.474 20.474 0 0 0 3.18-1.078c2.155-.894 4.144-2.073 6.099-3.335l.722-.47a62.017 62.017 0 0 0 2.506-1.736 80.913 80.913 0 0 0 4.345-3.246c5.064.94 10.105 2.445 14.996 4.451.329.131.628.275.957.406a82.75 82.75 0 0 1 3.565 1.623c.346.164.708.362.892.713.198.321.136.723.042 1.059z" fill="#B3D59C"/><path d="M294.723 218.768c.329.131.628.274.957.405a83.987 83.987 0 0 1 3.565 1.623c.346.165.708.362.892.713.198.353.122.753.043 1.091-.689 3.275-3.651 14.59-5.284 20.089l-.016-.001c-.488.134-.977.253-1.449.389-16.339 4.511-30.351 14.819-39.435 28.869-1.275-1.023-2.634-1.867-4.118-2.346a284.79 284.79 0 0 0-3.295-28.013l-2.529-.014c-.103-.641-.206-1.297-.323-1.924 3.816.565 7.499-1.464 8.845-4.871 1.305-3.27.394-7.604-2.192-10.613.839.172 1.693.314 2.53.422 3.409.411 6.817.396 9.978-.386 3.664-.931 6.92-2.835 10.001-4.884a98.952 98.952 0 0 0 6.836-4.984c5.048.922 10.088 2.426 14.994 4.435z" fill="#81A47A"/><path d="M282.559 211.33c11.593-9.155 21.322-20.648 28.593-33.847-4.204 12.917-8.751 25.701-13.66 38.256-4.883-1.986-9.902-3.482-14.933-4.409z" fill="#D68982"/><path d="M287.131 298.643c-.355 10.932-.846 21.994-2.573 32.582-1.307 7.968-3.19 24.806-6.389 31.996-4.767 10.78-13.295 11.589-25.096 12.679l-.125-.077a34.847 34.847 0 0 0 2.803-6.751c2.788-9.367 2.392-19.688 1.609-29.92 6.604-4.301 13.064-8.823 19.318-13.604 1.395-1.057 2.849-2.283 3.206-4.097.256-1.409-.221-2.907-.727-4.344a121.45 121.45 0 0 0-7.086-16.327c3.562-.587 8.892-1.347 15.06-2.137z" fill="#81A47A"/><path d="M260.353 190.333c.03-.012.044-.042.074-.07.268-.239.553-.46.838-.665.075-.055.165-.108.24-.179 1.876-1.324 4.207-1.998 6.638-1.62 3.654.56 7.3 3.833 7.838 7.599.389 2.63-.709 5.034-2.083 7.028a22.026 22.026 0 0 1-8.793 7.505c.439-1.877.691-3.821.172-5.803-.325-1.298-.97-2.521-1.674-3.671a32.411 32.411 0 0 0-3.482-4.69c-.803-.893-1.729-1.784-2.817-2.062l-.031-.019a17.668 17.668 0 0 1 3.08-3.353z" fill="#252849"/><path d="M263.077 201.284c.713 1.154 1.335 2.377 1.653 3.679.508 1.987.247 3.939-.201 5.824-.258.13-.5.247-.773.36-1.73.732-3.696 1.265-5.624.598-2.331-.789-4.068-3.242-4.606-5.676-.522-2.432-.045-4.868.795-7.011.641-1.626 1.454-3.154 2.471-4.534l.031.02c1.085.275 2.005 1.166 2.802 2.06a31.944 31.944 0 0 1 3.452 4.68z" fill="#FF7900"/><path d="M206.474 205.573c1.632 3.187 3.599 6.22 5.926 8.973 6.631 7.844 16.709 13.202 25.802 11.811l.014-.03c3.354 1.595 6.88 2.78 10.405 3.426 2.55 3.016 3.418 7.374 2.087 10.672-1.39 3.435-5.08 5.498-8.864 4.951.111.63.223 1.292.304 1.935.825 6.034.225 12.217-2.978 16.695-3.439 4.833-9.416 7.065-15.437 7.817-14.094 1.76-29.811-3.947-41.178-14.865 2.985-1.488 5.568-3.575 7.468-6.4 4.919-7.276 4.227-17.576 3.052-27.088-1.68-13.562-4.043-27.292-2.884-40.534.691-7.775 2.783-15.479 6.546-21.831 1.087 8.63 1.714 17.259 3.446 25.848 1.297 6.369 3.256 12.762 6.291 18.62z" fill="#0079C8"/><path d="M239.043 225.595l-.014.03c-9.089 1.387-19.187-3.997-25.844-11.839a47.244 47.244 0 0 1-5.957-8.968c.461-6.942 1.061-13.902 3.156-20.271.476-1.436 1.027-2.879 1.145-4.433l.124.03c-.774 10.959 3.096 22.849 10.476 32.066 4.587 5.687 10.492 10.315 16.914 13.385z" fill="#D68982"/><path d="M168.872 311.373l.049.101a57.62 57.62 0 0 0-10.997 5.07c-.023-2.301-.08-4.717-1.054-6.946-.989-2.23-3.186-4.193-5.397-4.081-2.012.086-3.376 1.764-4.544 3.319-2.529 3.344-5.043 6.706-7.572 10.05 1.029-3.124-3.531-6.466-6.576-5.46-3.03 1.008-4.452 4.359-5.419 7.506a81.678 81.678 0 0 0-2.766 12.355c-2.079-25.223 4.777-49.887 18.909-68.318a58.226 58.226 0 0 0 10.202 2.28 277.903 277.903 0 0 1 15.165 44.124z" fill="#81A47A"/><path d="M251.427 351.542a442.674 442.674 0 0 1-41.274 19.462 460.21 460.21 0 0 1-21.485 8.197c-7.142 2.514-14.329 5.037-21.895 6.544-7.504 1.483-15.607 1.925-23.615-.483-7.247-2.185-13.93-6.564-19.644-11.887-6.173-5.761-11.241-12.558-15.878-19.493-4.839-7.236-9.436-14.631-13.956-22.048a790.177 790.177 0 0 1-28.726-51.423c-.865-1.705-3.23-.561-2.366 1.144A788.676 788.676 0 0 0 88.73 328.7c4.627 7.691 9.361 15.333 14.278 22.887 4.631 7.12 9.541 14.209 15.471 20.438 5.354 5.623 11.594 10.525 18.533 13.742 7.466 3.462 15.386 4.407 22.919 3.824 7.907-.603 15.362-2.787 22.602-5.197a451.558 451.558 0 0 0 22.242-8.052 448.451 448.451 0 0 0 48.184-22.232c1.492-.793-.04-3.361-1.532-2.568zM242.89 277.154c-24.818 5.527-48.487 14.004-70.452 25.26-1.496.774.041 3.335 1.552 2.562 21.767-11.155 45.188-19.581 69.79-25.056 1.687-.383.813-3.147-.89-2.766zM250.456 280.063a140.878 140.878 0 0 0-12.163 6.471c-.605.353-.849 1.136-.411 1.87.389.667 1.34 1.086 1.945.717a142.411 142.411 0 0 1 12.163-6.471c1.52-.733-.013-3.32-1.534-2.587zM254.861 288.201a68.454 68.454 0 0 1-10.677 7.615c-.604.355-.848 1.141-.414 1.879.386.669 1.317 1.071 1.936.718a71.463 71.463 0 0 0 11.218-7.993c1.269-1.094-.795-3.313-2.063-2.219zM263.69 298.338a44.055 44.055 0 0 1-10.128 7.081c-1.501.755.007 3.365 1.522 2.596a46.41 46.41 0 0 0 10.669-7.458c1.22-1.147-.844-3.366-2.063-2.219zM272.131 307.413c-.746-.475-1.449-.287-1.889.292-.263.347-.424.564-.764.95-.294.344-.59.672-.885 1a23.333 23.333 0 0 1-1.992 1.88c-1.388 1.179-2.727 2.05-4.406 2.914-.606.309-.863 1.19-.416 1.884.429.676 1.279 1.053 1.93.718 3.57-1.83 6.598-4.442 8.999-7.643.41-.55.042-1.596-.577-1.995zM279.323 318.733c-.6-.647-1.404-.643-1.974-.221l-8.739 6.557c-.555.423-.434 1.44.085 1.999.601.647 1.405.643 1.975.221l8.739-6.557c.554-.424.433-1.44-.086-1.999zM89.655 215.194c-.108-1.127-.859-2.09-1.59-2.973a33.357 33.357 0 0 0-2.667-2.857 36.926 36.926 0 0 0-6.143-4.736c-1.632-.999-2.943 1.288-1.295 2.289 1.647 1 3.239 2.136 4.698 3.429a31.68 31.68 0 0 1 2.237 2.181c.583.63 1.449 1.402 1.82 2.166.186.381.232.387-.146.58-.333.167-.795.209-1.196.212-.834.017-1.707-.191-2.534-.393-1.826-.439-3.56-.916-5.361-.771-.97.08-1.326 1.563-.508 2.298a54.276 54.276 0 0 1 5.815 6.144c.473.587.914 1.17 1.356 1.769.18.24.33.508.51.747a21.4 21.4 0 0 1-2.701-1.055c-5.152-2.427-10.012-5.655-14.447-9.447-1.474-1.264-2.769 1.041-1.296 2.289a68.05 68.05 0 0 0 8.917 6.459 71.87 71.87 0 0 0 4.57 2.535c1.404.723 2.922 1.567 4.406 1.968 1.234.342 2.638.295 3.287-.81.837-1.43-.343-3.069-1.276-4.35a56.308 56.308 0 0 0-4.484-5.321c1.172.304 2.36.656 3.521.723 2.062.167 4.751-.537 4.507-3.076zM224.122 392.705a441.712 441.712 0 0 0-29.707.053c-.945.034-1.14 1.214-.748 1.976.985 1.907 3.122 2.506 4.891 3.188a243.01 243.01 0 0 0 7.177 2.617 175.21 175.21 0 0 0 7.227 2.341c1.557.472 3.188.858 4.678 1.572-3.763 1.529-8.87 1.455-10.984 5.152-1.453 2.522 2.169 4.397 4.191 5.201 3.096 1.238 6.334 1.477 9.477 1.673 1.789.107 1.662-2.701-.127-2.809-2.489-.154-5.039-.284-7.526-1.063-.976-.313-2.517-.767-3.342-1.531.014-.029.029-.028.044-.057.162-.185.341-.352.535-.502.329-.291.691-.516 1.084-.737 3.286-1.802 7.363-1.859 10.478-4.007.767-.523.264-1.704-.381-2.245-1.661-1.404-3.616-2.092-5.581-2.671a286.971 286.971 0 0 1-6.924-2.167 217.724 217.724 0 0 1-6.637-2.322c-.789-.292-1.562-.582-2.351-.889a425.978 425.978 0 0 1 24.655.083c1.769.011 1.658-2.812-.129-2.856zM60.656 361.652c-4.513-5.662-10.475-10.525-16.47-14.306-1.614-1.013-2.927 1.279-1.298 2.294a68.406 68.406 0 0 1 13.345 10.954c.918.983 1.977 1.997 2.73 3.119.131.188.376.53.4.737.027.302.174.113-.022.217-.44.203-1.5-.103-1.996-.158-3.023-.384-6.016-1.173-8.945-2.316-1.3-.507-2.36 1.153-1.254 2.22 1.828 1.761 3.901 3.485 5.536 5.429.405.486 1.411 1.73.576 2.062-.684.27-1.817-.296-2.476-.59-4.316-1.864-8.33-4.67-11.75-8.102-1.367-1.379-3.254.409-1.889 1.788 2.297 2.3 4.816 4.358 7.521 6.059 2.404 1.51 5.377 3.35 8.09 3.683 2.79.342 4.437-2.055 3.094-4.8-.639-1.329-1.698-2.375-2.756-3.389-.016-.002-.016-.018-.032-.02 1.979.504 3.967.85 5.915.957 1.453.083 2.904-.275 3.196-1.863.253-1.388-.607-2.852-1.515-3.975z" fill="#81A47A"/><path d="M263.788 143.742c-.276-.755-1.007-1.308-1.742-1.185-.69.112-1.168.877-.908 1.631a52.192 52.192 0 0 1 2.644 10.824c-3.241-.879-6.497-1.744-9.738-2.623-.748-.194-1.495.023-1.664.807-.159.659.296 1.654 1.043 1.847l11.67 3.137c.826.218 1.813-.161 1.696-1.181-.435-4.425-1.443-8.897-3.001-13.257zM303.726 172.414a39.083 39.083 0 0 1-2.823-2.789 41.805 41.805 0 0 1-1.283-1.467c-.112-.123-.209-.26-.305-.381l.135-.08c.423-.238.861-.459 1.284-.697.604-.328.866-1.184.425-1.896-.424-.678-1.269-1.071-1.918-.715-.453.234-.891.487-1.344.721-.468.249-1.014.474-1.418.824-.581.521-.625 1.464-.137 2.212.326.51.743.998 1.129 1.466a39.345 39.345 0 0 0 4.363 4.585c.588.522 1.443.758 1.962.215.446-.457.565-1.439-.07-1.998z" fill="#090E3F"/><path d="M313.762 174.713a65.908 65.908 0 0 1-9.646-14.451 61.306 61.306 0 0 1-3.232-7.939c-.827-2.503-1.71-5.442-.118-7.492 1.052-1.356-1.394-3.023-2.431-1.681-1.622 2.094-1.387 5.078-.694 7.775.809 3.091 2.066 6.18 3.427 9.12 2.757 5.964 6.432 11.544 10.788 16.51 1.252 1.449 3.173-.392 1.906-1.842z" fill="#D68982"/><path d="M272.757 131.75c-4.662-2.184-9.492-3.645-14.371-4.203-2.282-.253-4.361.719-4.539 3.121-.151 2.004 1.616 4.807 3.929 5.064 4.171.479 8.23 1.547 12.22 3.424 5.175 2.426 7.985-4.959 2.761-7.406z" fill="#090E3F"/><path opacity=".31" d="M285.728 164.517c-5.705-3.069-13.612-5.501-19.635-3.556-2.889.931-3.241 2.998-2.53 5.416.433.885.947 1.5 1.512 2.214 3.046 3.902 8.374 3.382 12.789 4.619 4.51 1.278 6.563 5.302 11.031 6.359 1.737.411 3.559-.299 4.522-1.369 4.237-4.637-2.689-10.987-7.689-13.683z" fill="#E23D69"/><path d="M244.152 138.703c.209-.869-1.156-1.266-1.365-.397-.613 2.542-1.319 6.218-4.247 6.77-1.119.201-2.469-.194-3.19-1.303-.738-1.141-.652-2.594-.342-3.754.786-2.953 3.22-4.16 5.411-5.807 1.813-1.367 3.41-3.346 3.05-5.99-.116-.918-1.504-.967-1.372-.032.363 2.756-1.889 4.395-3.752 5.647-2.028 1.377-3.823 2.874-4.59 5.4-.567 1.879-.535 4.346 1.093 5.978 1.611 1.598 4.031 1.677 5.638.653 2.364-1.47 3.012-4.469 3.666-7.165zM223.946 158.793c-.687 1.276-1.445 2.783-2.926 3.181-1.359.364-2.705-.461-2.888-2.036-.166-1.525.882-2.572 2.066-3.129 1.078-.505 2.664-.448 3.214-1.691.449-1.016-.166-2.097-.549-3.122-.615-1.636.338-2.741 1.581-3.403 2.107-1.126 5.454-1.946 4.883-5.276-.149-.92-1.534-.956-1.37-.034.516 3.023-3.736 3.366-5.329 4.737-.781.663-1.384 1.647-1.383 2.789 0 .556.169 1.097.369 1.626.198.482.553 1.075.567 1.584.021.732-.699.847-1.249.979a8.099 8.099 0 0 0-1.645.603c-1.001.497-1.901 1.322-2.301 2.423-.671 1.865.125 4.473 2.27 5.255 2.97 1.092 4.818-1.584 5.973-3.732.394-.751-.873-1.505-1.283-.754zM238.118 154.478c-.288-.284-.752-.32-.973-.045-.221.259-.428.504-.666.73-.237.242-.371.369-.657.542a2.286 2.286 0 0 1-.774.324.157.157 0 0 1-.077.007.847.847 0 0 1-.201-.006l-.185-.021c.139.016-.063-.022-.125-.029-.062-.023-.124-.03-.171-.051a.703.703 0 0 1-.141-.063.775.775 0 0 0-.126-.061c-.063-.038-.127-.092-.189-.115a.243.243 0 0 0-.064-.054c-.047-.037-.08-.088-.128-.125 0 0-.015-.002-.016-.017-.016-.018-.017-.034-.033-.051a1.273 1.273 0 0 0-.098-.153c0-.016-.034-.082-.034-.098-.001-.016-.017-.034-.018-.065l-.001-.016c-.006-.174-.009-.237.03-.422.013-.078.069-.213.125-.364.071-.182.172-.36.257-.539.416-.837.815-1.675 1.231-2.511.157-.329-.015-.79-.361-.985-.347-.212-.759-.1-.916.229-.43.867-.844 1.719-1.274 2.585-.357.748-.71 1.592-.321 2.517.323.792 1.006 1.324 1.757 1.628.798.309 1.596.224 2.278-.079.803-.368 1.409-1.042 1.985-1.703.222-.259.189-.704-.114-.989zM267.746 231.654c-.641-3.75-1.297-7.501-1.937-11.25-.202-1.137-1.623-1.992-2.624-1.753-1.172.271-1.646 1.295-1.444 2.512.641 3.75 1.297 7.501 1.937 11.25.202 1.137 1.623 1.992 2.624 1.752 1.172-.27 1.646-1.294 1.444-2.511zM287.974 230.6c-2.292-3.666-4.599-7.317-6.89-10.983-.634-1.002-1.916-1.615-2.866-1.07-.89.504-1.309 1.771-.642 2.84 2.291 3.665 4.598 7.317 6.89 10.982.634 1.002 1.915 1.616 2.866 1.071.875-.506 1.309-1.771.642-2.84zM292.381 208.76c-3.916-1.686-7.815-3.355-11.73-5.041-1.071-.459-2.34.141-2.523 1.171-.211 1.119.471 2.245 1.605 2.726 3.916 1.686 7.815 3.355 11.73 5.041 1.071.458 2.339-.142 2.523-1.171.21-1.119-.471-2.245-1.605-2.726z" fill="#fff"/><path d="M292.251 78.973c-5.194 7.294-12.009 13.242-19.876 17.45-8.213 4.391-17.353 6.677-27.037 7.185-10.591.549-21.672-.485-31.699 2.397-7.923 2.278-15.418 6.937-18.553 14.916-3.177 8.1-1.062 17.683-2.137 26.393-.508 4.138-1.872 7.992-4.822 10.646-2.712 2.428-6.302 3.64-9.821 4.671-6.854 2.033-14.827 3.818-17.266 11.463-1.419 4.463-.424 9.65 1.079 14.403 1.678 5.31 4.133 10.421 5.933 15.696 3.633 10.634 5.163 22.28.743 31.725-1.94 4.137-4.964 7.698-9.016 9.71-3.795 1.883-8.394 2.447-12.901 1.382-2.253-.532-4.446-1.515-6.453-2.872-.885-.602-1.607.674-.722 1.276 8.187 5.571 18.482 4.532 24.852-.977 7.071-6.125 9.36-16.53 8.247-26.523-.65-5.826-2.3-11.637-4.467-17.268-1.998-5.219-4.409-10.372-5.674-15.762-1.171-4.954-1.151-10.155 1.838-13.829 2.237-2.765 5.649-4.201 9.012-5.296 6.954-2.244 15.039-3.495 18.754-10.401 4.016-7.471 2.011-17.404 2.661-25.957.338-4.535 1.536-8.738 4.086-12.193 2.506-3.413 6.047-5.907 9.877-7.676 9.144-4.24 19.857-4.004 30.201-4.139 5.403-.081 10.802-.274 16.019-1.211a62.81 62.81 0 0 0 12.948-3.821c8.264-3.455 15.66-8.693 21.556-15.341a55.69 55.69 0 0 0 4.015-5.075c.54-.792-.835-1.732-1.377-.972z" fill="#242C6B"/><path d="M281.199 70.568c-3.136 6.986-9.698 11.221-17.009 13.13-8.901 2.328-18.695 1.122-28.2-.569-9.802-1.756-19.675-4.083-29.416-4.045-8.581.043-16.659 2.086-23.015 7.175-5.637 4.527-9.675 11.035-11.292 18.458-.945 4.33-.718 8.949-1.459 13.334-.676 4.095-2.5 7.402-5.501 9.919-5.568 4.707-13.179 6.473-19.59 9.895-6.759 3.617-12.83 8.487-17.264 14.779-4.303 6.087-6.85 13.468-6.879 21.507-.015 7.648 2.19 15.859 6.903 22.673a36.617 36.617 0 0 0 3.785 4.641c.745.788 1.8-.206 1.056-.995-5.825-6.061-9.116-13.985-9.959-21.808-.871-8.109.875-15.783 4.637-22.229 3.906-6.695 9.744-11.952 16.336-15.855 3.183-1.885 6.568-3.388 10.002-4.822 3.373-1.409 6.792-2.829 9.815-4.827 2.782-1.852 5.249-4.21 6.71-7.323 1.856-3.977 1.842-8.666 2.207-13.172.619-7.988 3.717-15.151 8.964-20.49 5.633-5.734 13.211-8.633 21.616-9.165 9.393-.595 19.098 1.432 28.639 3.237 9.634 1.815 19.557 3.521 28.849 2.006 7.295-1.19 14.275-4.328 18.75-10.004a21.159 21.159 0 0 0 2.716-4.493c.366-.869-1.005-1.822-1.401-.957zM340.093 62.117c-11.359-4.257-23.713-3.712-33.09 1.483-.817.46.045 1.845.862 1.386 9.054-5.017 20.9-5.569 31.871-1.457 1.002.374 1.343-1.04.357-1.412zM339.728 74.45c-7.914-4.52-16.518-7.397-25.153-8.413-1.018-.122-.94 1.403.078 1.525 8.349.986 16.695 3.76 24.348 8.13.928.522 1.656-.705.727-1.243zM340.655 101.167c-3.076-8.422-8.906-15.673-15.727-21.457-3.892-3.316-8.124-6.144-12.486-8.637-.906-.508-1.656.778-.734 1.289 7.3 4.151 14.29 9.35 19.812 16.013 5.569 6.716 9.363 14.928 9.899 23.336.298 4.715-.454 9.32-2.47 13.267-.439.859.911 1.811 1.349.936 3.696-7.247 3.4-16.424.357-24.747zM314.556 116.767c-7.543-11.75-10.59-25.96-8.265-39.016.18-.991-1.366-1.562-1.53-.569-2.406 13.464.623 28.121 8.42 40.262.57.899 1.961.224 1.375-.677z" fill="#242C6B"/><path d="M282.35 67.463c-9.813-7.549-20.715-13.806-32.175-17.11-10.46-3.021-21.166-3.416-30.756-.358-9.01 2.871-16.71 8.668-21.008 17.152-4.911 9.703-5.416 21.374-6.842 32.44-1.324 10.182-3.598 20.918-10.676 27.914-6.262 6.193-15.314 8.071-24.255 8.893-9.233.853-18.786.681-27.654 2.909-4.281 1.061-8.337 2.711-11.848 5.208-3.69 2.649-6.678 6.225-8.794 10.321-4.22 8.148-5.03 18.419-1.598 28.159 3.36 9.528 10.331 18.187 18.973 23.58a41.244 41.244 0 0 0 6.517 3.302c.974.392 1.314-1.093.356-1.467-9.205-3.681-17.177-11.165-21.92-20.125-4.91-9.262-5.754-19.561-2.691-28.403 1.518-4.383 3.965-8.333 7.171-11.476 3.117-3.058 6.952-5.189 11.157-6.619 8.333-2.806 17.66-2.879 26.625-3.495 8.657-.587 17.622-1.58 24.742-6.091 8.022-5.101 11.991-14.062 14.007-23.57 2.21-10.413 2.228-21.526 4.907-31.793 1.32-5.065 3.33-9.848 6.425-13.836 2.801-3.596 6.373-6.494 10.392-8.651 8.281-4.444 18.267-5.779 28.262-4.285 11.393 1.696 22.588 6.808 32.705 13.495a126.647 126.647 0 0 1 7.26 5.207c.845.628 1.564-.642.718-1.301zM205.792 153.179c.735-.633-.396-1.874-1.13-1.241-6.592 5.766-11.226 13.65-13.409 22.437-2.258 9.114-1.63 18.662 1.25 28.103 3.044 9.967 7.911 19.58 9.743 29.784.867 4.874.899 9.845-.396 14.403-1.249 4.402-3.636 8.329-6.852 11.379-7.758 7.365-19.94 8.578-30.309 3.348-.95-.473-1.345 1.039-.411 1.495 9.198 4.639 20.145 4.476 28.114-.68 7.436-4.808 11.907-13.218 12.052-22.565.152-10.304-4.342-20.409-7.95-30.206-1.829-4.965-3.532-10.014-4.417-15.161a46.888 46.888 0 0 1-.265-14.305c1.441-10.502 6.326-20.103 13.98-26.791z" fill="#242C6B"/><path d="M240.164 228.82c-.743-.761-1.812.24-1.068 1.017 1.881 1.928 1.694 4.897.446 6.754-1.485 2.229-4.14 3.271-6.535 4.246-.488.203-.426.83-.123 1.243 2.599 3.497 3.305 8.339 1.576 11.878-1.686 3.464-5.397 5.413-9.335 5.051-.989-.087-.949 1.506.04 1.593 4.541.426 8.921-1.883 10.76-5.951 1.753-3.871 1.123-8.736-1.379-12.653 2.623-1.093 5.409-2.44 6.698-5.103 1.219-2.432 1.134-5.81-1.08-8.075zM225.026 227.369c-.906-.492-1.657.795-.736 1.289 2.344 1.278 3.082 4.167 2.621 6.485-.569 2.926-3.06 4.76-5.347 6.204-2.392 1.511-4.974 2.828-6.809 5.049-.82.994-1.482 2.131-1.848 3.427-.435 1.606-.342 3.363-.219 5.075.145 1.968.341 4.133-.522 5.837-.717 1.402-2.327 2.249-3.95 1.427-.936-.479-1.296 1.023-.376 1.485 3.153 1.602 5.821-1.103 6.33-3.956.655-3.727-.965-7.915 1.072-11.195 3.322-5.337 12.158-5.964 13.214-13.143.447-2.859-.556-6.411-3.43-7.984zM205.488 257.396c-.309-.331-.824-.404-1.107-.124-1.351 1.348-2.874 2.317-4.72 3-.366.131-.45.684-.233 1.036a.89.89 0 0 0 1.072.402 13.68 13.68 0 0 0 5.037-3.215c.283-.265.276-.765-.049-1.099zM202.073 256.185c-.322-.319-.805-.404-1.102-.123-1.072 1.011-2.159 2.005-3.231 3.016-.283.251-.276.802.045 1.12.322.319.804.404 1.102.123 1.072-1.011 2.159-2.005 3.231-3.016.283-.267.276-.802-.045-1.12zM250.992 397.136c-.805-2.374-1.609-4.749-2.429-7.125-.148-.429-.541-.723-.959-.653a.718.718 0 0 0-.526.934l2.429 7.125c.148.429.541.724.974.656.371-.091.658-.524.511-.937zM257.462 395.01c-.948-2.101-1.879-4.2-2.827-6.316-.18-.416-.739-.57-1.058-.397-.381.199-.431.654-.251 1.054.947 2.101 1.879 4.2 2.827 6.317.18.416.738.57 1.058.396.396-.197.446-.652.251-1.054zM265.332 390.691c-.883-2.095-1.767-4.189-2.65-6.268-.18-.416-.738-.553-1.058-.396-.397.198-.432.639-.253 1.055.884 2.095 1.767 4.189 2.65 6.268.18.416.738.553 1.059.396.381-.199.416-.641.252-1.055zM257.471 405.092c-.593-1.572-1.171-3.126-1.764-4.697-.148-.397-.543-.756-.973-.657-.368.089-.683.485-.518.931.593 1.572 1.171 3.126 1.764 4.697.148.397.543.756.973.657.368-.089.683-.485.518-.931zM265.538 401.023c-.864-1.662-1.728-3.34-2.592-5.002-.196-.386-.725-.585-1.058-.398-.348.2-.458.648-.246 1.052.864 1.662 1.729 3.339 2.593 5.001.196.386.725.585 1.058.399.363-.184.473-.632.245-1.052zM264.671 410.919c-.736-1.57-1.473-3.155-2.21-4.724-.18-.4-.74-.586-1.058-.398-.364.216-.444.636-.248 1.053.736 1.57 1.473 3.155 2.21 4.724.18.4.74.586 1.058.397.379-.197.445-.619.248-1.052zM265.47 439.968a58.383 58.383 0 0 1-4.529-11.096c-.299-1.017-1.779-.737-1.48.28a60.254 60.254 0 0 0 4.692 11.494c.499.927 1.816.264 1.317-.678zM272.615 436.638c-1.321-3.35-2.643-6.717-3.964-10.067-.163-.415-.526-.738-.957-.654-.371.074-.687.504-.524.934 1.321 3.351 2.643 6.717 3.964 10.067.163.415.526.738.973.656.339-.077.671-.521.508-.936zM281.797 434.799c-1.563-3.613-3.142-7.228-4.705-10.841-.179-.416-.738-.553-1.059-.395-.397.198-.433.655-.255 1.056 1.563 3.613 3.142 7.228 4.705 10.841.179.416.738.553 1.059.395.398-.182.434-.64.255-1.056zM291.672 430.721a66.487 66.487 0 0 1-4.812-9.605c-.165-.415-.528-.739-.957-.657-.368.073-.68.501-.514.931a69.449 69.449 0 0 0 4.977 10.004c.547.915 1.87.26 1.306-.673zM299.426 426.764c-1.527-2.795-3.071-5.608-4.598-8.403-.52-.943-1.824-.289-1.304.654 1.527 2.795 3.071 5.608 4.598 8.403.52.944 1.824.289 1.304-.654zM307.417 423.129l-4.103-8.818c-.195-.402-.739-.57-1.059-.396-.38.199-.446.653-.251 1.054l4.104 8.819c.195.402.723.568 1.058.396.38-.199.446-.653.251-1.055zM315.499 417.792c-1.636-2.327-3.273-4.67-4.909-6.996-.259-.376-.682-.596-1.06-.401-.318.155-.5.688-.241 1.048 1.636 2.327 3.273 4.67 4.908 6.997.26.375.683.595 1.061.4.318-.155.5-.672.241-1.048zM298.096 392.01l-3.052-4.6c-.243-.358-.698-.597-1.06-.4-.317.187-.501.656-.241 1.048l3.052 4.6c.243.358.697.598 1.06.4a.76.76 0 0 0 .241-1.048zM291.884 394.181c-.817-1.785-1.65-3.588-2.467-5.373-.18-.4-.739-.57-1.058-.397-.379.198-.429.653-.249 1.054.818 1.785 1.651 3.588 2.468 5.373.18.4.739.57 1.057.397.38-.183.429-.654.249-1.054zM289.526 382.965l-2.638-4.558c-.212-.371-.727-.601-1.059-.399-.348.2-.472.645-.244 1.05l2.638 4.557c.212.372.727.601 1.059.4.333-.186.472-.646.244-1.05zM206.956 212.977c-.361-.229-.869-.204-1.043.174-.581 1.205-1.162 2.427-1.743 3.633-.174.346-.082.862.31 1.11.361.229.869.204 1.043-.174.581-1.206 1.161-2.427 1.742-3.633.175-.346.083-.863-.309-1.11zM212.403 216.826a.996.996 0 0 0-.473-.415c-.374-.134-.879.019-.93.459a9.247 9.247 0 0 1-.375 1.628c-.043.123-.086.261-.145.382.001.016-.014.03-.014.03-.03.061-.058.137-.088.198-.117.257-.249.498-.382.738-.192.345-.07.882.306 1.112.376.246.838.183 1.045-.177a8.78 8.78 0 0 0 1.149-3.342.964.964 0 0 0-.093-.613zM208.152 219.301c-.362-.229-.854-.203-1.042.173-.567 1.078-1.134 2.156-1.717 3.217-.189.344-.065.879.312 1.11.361.229.854.202 1.042-.173.567-1.078 1.134-2.157 1.717-3.217.189-.344.08-.862-.312-1.11zM197.695 229.328c-.346-.227-.869-.203-1.042.174-.493 1.041-.971 2.067-1.464 3.108-.159.348-.082.863.311 1.111.345.227.868.203 1.042-.174.492-1.041.97-2.067 1.463-3.108a.881.881 0 0 0-.31-1.111zM200.769 233.323c-.464-.033-.703.275-.753.698v.016a.342.342 0 0 1 .001.032c.001.032-.014.062-.013.094-.013.078-.026.172-.04.25-.026.172-.068.342-.095.498-.069.31-.169.617-.284.906-.015.031-.029.077-.044.107-.029.076-.073.151-.102.227-.058.137-.132.256-.206.392-.162.284-.34.567-.549.815-.239.308-.038.901.307 1.112.408.265.79.146 1.044-.177.896-1.144 1.383-2.569 1.528-4.093.036-.409-.408-.853-.794-.877zM197.081 238.993c-.361-.229-.868-.203-1.041.175l-2.357 4.747c-.175.347-.083.864.309 1.112.36.229.867.203 1.041-.175l2.356-4.747a.9.9 0 0 0-.308-1.112z" fill="#0894C4"/><path d="M230.872 245.435c-.194-.386-.729-.581-1.071-.391-.358.204-.477.655-.268 1.058l.097.201v.016c0 .016.016.034.016.049a3.607 3.607 0 0 1 .165.607c0 .016.001.048.017.065.017.145.019.273.021.417.002.112.02.305-.026.412.014-.126.014-.142 0-.048 0 .032-.015.078-.014.11l-.045.188-.044.187c-.015.046-.029.172-.076.2.046-.108.046-.108.015-.031a2.58 2.58 0 0 1-.046.091.999.999 0 0 1-.107.181c-.199.348-.082.886.297 1.114.38.244.864.179 1.063-.184.736-1.221.729-2.864.006-4.242zM228.347 252.427c.016-.059.033-.118 0 0zM229.352 252.244c-.465-.194-.816-.021-.974.337-.016.042-.031.084-.047.111 0-.015.016-.012.016-.027 0 .015 0 .015-.016.027-.032.068-.079.134-.111.203-.079.134-.174.251-.253.385-.048.066-.096.116-.143.182a.348.348 0 0 0-.08.09c-.111.098-.222.211-.334.295-.127.095-.254.19-.382.27-.064.033-.127.081-.191.113-.032.009-.064.033-.096.042a4.692 4.692 0 0 1-.957.325c-.176.042-.319.224-.366.379a.808.808 0 0 0 .084.599.997.997 0 0 0 1.09.478 4.795 4.795 0 0 0 3.357-2.768c.11-.353-.213-.893-.597-1.041z" fill="#0894C4"/></svg>