<svg xmlns="http://www.w3.org/2000/svg" width="491" height="485"><defs><clipPath id="b"><path d="M5.06 374.1c10.02 40.986 34.037 73.043 65.728 97.244.383.278.775.592 1.139.865q6.249 4.722 12.934 9.037c28.22 18.345 61.177 31.245 95.156 39.3l1.549.35a385.438 385.438 0 0 0 32.713 6.1c1.331.2 2.624.385 3.946.544a394.292 394.292 0 0 0 41.378 3.268c1.407.023 2.789.057 4.177.075 1.738.011 3.433.029 5.114.027 1.638.005 3.232.018 4.86-.014a361.16 361.16 0 0 0 9.505-.25 178.2 178.2 0 0 0 3.4-.135c.6-.02 1.207-.057 1.812-.094 4-.208 7.953-.462 11.866-.846q7.238-.632 14.243-1.559c72.9-9.623 123.154-43.089 99.271-92.313-60.709-125.1 34.373-126.814 68-219.921 17.86-49.436-5.53-87.866-40.3-110.956-27.9-18.5-134.8-80.269-177.776-77.087-50.456 3.714-58.841 70.43-95.574 122.133C108.442 233.97-27.871 239.707 5.06 374.1z" fill="#0079c8" opacity=".1"/></clipPath><clipPath id="a"><path d="M0 0h491v485H0z"/></clipPath></defs><g clip-path="url(#a)"><path fill="transparent" d="M0 0h491v485H0z"/><path d="M5.06 325.397c10.02 40.986 34.037 73.043 65.728 97.244.383.278.775.592 1.139.865q6.249 4.722 12.934 9.037c28.22 18.345 61.177 31.245 95.156 39.3l1.549.35a385.438 385.438 0 0 0 32.713 6.1c1.331.2 2.624.385 3.946.544a394.292 394.292 0 0 0 41.378 3.268c1.407.023 2.789.057 4.177.075 1.738.011 3.433.029 5.114.027 1.638.005 3.232.018 4.86-.014a361.16 361.16 0 0 0 9.505-.25 178.2 178.2 0 0 0 3.4-.135c.6-.02 1.207-.057 1.812-.094 4-.208 7.953-.462 11.866-.846q7.238-.632 14.243-1.559c72.9-9.623 123.154-43.089 99.271-92.313-60.709-125.1 34.373-126.814 68-219.921 17.86-49.436-5.53-87.866-40.3-110.956-27.9-18.5-70.577-28.348-113.548-25.166-50.456 3.714-123.069 18.509-159.8 70.212C108.442 185.267-27.871 191.004 5.06 325.397z" fill="#0079c8" opacity=".1"/><g clip-path="url(#b)" transform="translate(0 -48.703)"><path d="M247.9 63.525c1.373-6.493 6.056-9.908 12.263-12.389a21.028 21.028 0 0 1 19.185 2.034c3.705 2.5 6.714 6.251 11 7.463 7.09 2.015 14.952-3.582 21.78-.858a9.427 9.427 0 0 1-3.5 18.192c4.627 1.4 6.4 7.743 3.969 11.885s-7.787 5.952-12.583 5.336-9.084-3.247-12.865-6.251c-3.762-3-7.185-6.456-11.191-9.161s-8.783-4.646-13.58-4.123c-6.507.709-11.849 5.9-14.426 11.867-2.6 5.971-2.9 12.632-2.9 19.143 0 6.494.244 13.08-1.354 19.387-.189.746-.489 1.567-1.2 1.828-1.035.373-2.013-.69-2.577-1.623A94.907 94.907 0 0 1 227 91.455c-1.129-7.128-1.317-13.938 2.313-20.207s13.438-11.268 18.587-7.723z" fill="#263238"/><path d="M238.124 106.122c-.338-.131-13.241-3.49-12.451 9.459s13.73 9.5 13.73 9.124-1.279-18.583-1.279-18.583z" fill="#b78876"/><path d="M235.115 120.041c-.056-.038-.226.168-.583.373a2.254 2.254 0 0 1-1.693.13c-1.41-.41-2.708-2.518-2.9-4.851a7.385 7.385 0 0 1 .432-3.265 2.63 2.63 0 0 1 1.6-1.829 1.145 1.145 0 0 1 1.373.542c.188.354.132.615.207.634.038.037.263-.224.132-.765a1.449 1.449 0 0 0-.565-.784 1.708 1.708 0 0 0-1.279-.261 3.2 3.2 0 0 0-2.257 2.146 7.526 7.526 0 0 0-.564 3.657c.245 2.612 1.731 4.963 3.649 5.392a2.389 2.389 0 0 0 2.05-.466c.398-.336.455-.635.398-.653z" fill="#aa6550"/><path d="M268.068 60.875a35.068 35.068 0 0 1 37.6 32.988c.846 16.214 1.6 33.772 1.429 42.6-.395 18.957-19.523 21.755-19.523 21.755s.414 5.617.9 12.6a25.172 25.172 0 1 1-50.275 2.612L235.36 97a35.011 35.011 0 0 1 32.708-36.125z" fill="#b78876"/><path d="M287.572 158.217s-11.755.6-24.526-7.5c0 0 5.774 13.789 24.864 12.24z" fill="#aa6550"/><path d="M299.271 107.223a2.7 2.7 0 0 1-2.652 2.706 2.611 2.611 0 0 1-2.8-2.463 2.7 2.7 0 0 1 2.652-2.706 2.6 2.6 0 0 1 2.8 2.463zM301 100.581c-.339.354-2.389-1.194-5.342-1.194-2.934-.056-5.1 1.418-5.416 1.063-.151-.168.188-.8 1.147-1.455a7.538 7.538 0 0 1 4.345-1.288 7.247 7.247 0 0 1 4.25 1.4c.885.672 1.186 1.325 1.016 1.474zM270.907 106.814a2.7 2.7 0 0 1-2.652 2.706 2.611 2.611 0 0 1-2.8-2.463 2.7 2.7 0 0 1 2.652-2.706 2.6 2.6 0 0 1 2.8 2.463zM272.13 100.9c-.339.354-2.408-1.176-5.342-1.194-2.934-.056-5.1 1.418-5.416 1.063-.151-.168.188-.8 1.147-1.455a7.489 7.489 0 0 1 4.345-1.287 7.246 7.246 0 0 1 4.25 1.4c.886.673 1.186 1.322 1.016 1.473zM282.606 122.6c-.018-.168 1.825-.467 4.778-.821.752-.075 1.467-.206 1.6-.728a3.671 3.671 0 0 0-.489-2.2c-.7-1.81-1.41-3.694-2.181-5.691-3.01-8.1-5.192-14.74-4.872-14.852.339-.112 3.047 6.344 6.057 14.442.733 2 1.41 3.9 2.087 5.709a4.237 4.237 0 0 1 .358 2.93 1.872 1.872 0 0 1-1.242 1.082 4.853 4.853 0 0 1-1.279.168c-2.955.127-4.798.127-4.817-.039zM273.954 124.538c.471-.019.452 3.135 3.179 5.411 2.708 2.276 6.113 1.94 6.132 2.388.037.205-.772.616-2.2.635a7.991 7.991 0 0 1-5.116-1.81 6.775 6.775 0 0 1-2.445-4.534c-.133-1.328.225-2.109.45-2.09zM272.638 91.4c-.3.784-3.235.392-6.677.784-3.461.317-6.245 1.287-6.7.578-.207-.336.282-1.082 1.411-1.847a11.055 11.055 0 0 1 4.965-1.679 11.177 11.177 0 0 1 5.21.653c1.302.523 1.923 1.139 1.791 1.511zM300.587 91.887c-.526.653-2.539-.037-4.965-.093-2.426-.131-4.495.41-4.966-.28-.207-.336.132-.989 1.035-1.623a7.243 7.243 0 0 1 7.993.317c.866.672 1.148 1.343.903 1.679z" fill="#263238"/><path d="M309.051 85.169c-3.7 5.336-18.432 3.172-25.786-2.314-5.154-3.844-9.687-6.773-15.95-8.284A16.48 16.48 0 0 0 254.9 77a31.4 31.4 0 0 0-8.972 9.217c4.5 9.926 2.558 21.42.545 32.13a5.513 5.513 0 0 1-1.41 3.247c-1.561 1.343-4.063.5-5.568-.877-2.407-2.221-3.5-5.5-4.269-8.695a55.446 55.446 0 0 1-1.185-22.167 38.2 38.2 0 0 1 9.442-19.946 36.737 36.737 0 0 1 25.053-11.121 45.105 45.105 0 0 1 26.576 7.706c3.63 2.388 7.016 5.355 9.028 9.161M324.907 371.914l56.519 402.334-54.845-1.048-60.639-337.1 13.335 338.709-60.077-3.677-21.081-401.663z" fill="#263238"/><path d="M238.557 185.626l-.734-22.5s4.514 20.6 28.1 20.319c22.552-.262 22.138-18.136 22.138-18.136l.809 9.068v36.643l-14.709 59.763-18.789 2.37-20.746-81.706z" fill="#0079c8"/><path d="M285.992 178.423a2.435 2.435 0 0 1-.263.485 11.2 11.2 0 0 1-.9 1.307 19.713 19.713 0 0 1-4.194 4.03 24.229 24.229 0 0 1-7.844 3.657 27.787 27.787 0 0 1-10.589.728 34.652 34.652 0 0 1-10.175-3.042 43.958 43.958 0 0 1-7.429-4.441 48.211 48.211 0 0 1-4.5-3.694c-.507-.466-.884-.84-1.147-1.1a2.687 2.687 0 0 1-.376-.41c.019-.019.169.112.432.336.32.261.715.615 1.2 1.026 1.035.9 2.577 2.146 4.571 3.564a45.5 45.5 0 0 0 7.41 4.31 35.231 35.231 0 0 0 10.044 2.966 28.49 28.49 0 0 0 10.42-.671 24.5 24.5 0 0 0 7.768-3.508 20.736 20.736 0 0 0 4.25-3.881c.871-1.065 1.284-1.699 1.322-1.662z" fill="#263238"/><path d="M270.908 486.962l.319-96.577-.414-126.1-31.936-77.507-1.016-23.324-18.526 13.9s-26.972 92.1-27.385 88.889c-.414-3.19 6.526 81.818 6.526 81.818L187.831 491.29z" fill="#fff"/><path d="M296.3 173.348c-5.436-9.422-8.257-8.452-8.257-8.452l.282 3.359v7.052l-2.577 30.283-17.209 56.816 2.689 125.7 6.433 99.413 80.011-6.493-27.893-136.9 9.969-94.58-.715-52.114z" fill="#fff"/><path d="M250.8 381.057a8.305 8.305 0 0 1-1.166 1.921 35.818 35.818 0 0 1-3.95 4.7 41.818 41.818 0 0 1-37.466 11.755 36.343 36.343 0 0 1-5.962-1.6 8.589 8.589 0 0 1-2.069-.915c.056-.186 3.047 1.045 8.144 1.829a43.453 43.453 0 0 0 36.846-11.568c3.743-3.51 5.474-6.234 5.623-6.122z" fill="#263238"/><path d="M234.4 399.21a25.191 25.191 0 0 0-.959-3.732l8.426-4.869a27.686 27.686 0 0 0-16.344-4.478c-5.361.279-10.74 3.115-14.408 5.5a9.459 9.459 0 0 0-2.764 1.866 5.277 5.277 0 0 0-.753.5 8 8 0 0 0-1.053 1.045.136.136 0 0 0-.056.056h.018a15.5 15.5 0 0 0-2.934 7.352 54.237 54.237 0 0 0-.32 17c.3 2.145 1.129 4.72 3.273 5.131a3.427 3.427 0 0 0 3.31-1.549 43.3 43.3 0 0 0 .734 7.3c.338 1.828 1.241 4.03 3.1 4.1 1.975.074 2.991-2.295 3.329-4.217a45.282 45.282 0 0 0 .508-12.352c1.035 2.089.64 4.571 1 6.885.339 2.313 2.144 4.851 4.458 4.4 2.276-.448 2.971-3.284 3.216-5.56.621-5.989 1.223-12 1.843-17.987 1.242 2.015 1.185 4.553 2.107 6.717s3.874 3.918 5.6 2.276c1.109-1.063.959-2.836.7-4.366-.658-3.685-1.316-7.361-2.031-11.018z" fill="#b3d59c"/><path d="M239.836 448.525a11.545 11.545 0 0 1-1.749 1.848 37.832 37.832 0 0 1-5.53 4.254 27.468 27.468 0 0 1-9.667 3.843 20.7 20.7 0 0 1-12.621-1.567 17.588 17.588 0 0 1-8.5-9.348 29.728 29.728 0 0 1-2.088-10.113 63.37 63.37 0 0 1 .113-6.922 13.249 13.249 0 0 1 .282-2.519c.188 0-.057 3.62.3 9.4a30.009 30.009 0 0 0 2.238 9.814 16.844 16.844 0 0 0 8.088 8.826 20.157 20.157 0 0 0 12.037 1.548 28.184 28.184 0 0 0 9.461-3.545c4.984-3 7.5-5.687 7.636-5.519zM330.022 382.175c.038.056-.394.374-1.2.9a24.332 24.332 0 0 1-3.611 1.885 35.389 35.389 0 0 1-26.408.522 24.866 24.866 0 0 1-3.686-1.735c-.828-.485-1.279-.784-1.241-.84.075-.149 1.956.858 5.172 1.941a38.877 38.877 0 0 0 25.9-.523c3.175-1.217 4.999-2.299 5.074-2.15zM271.19 396.132a5.9 5.9 0 0 1-.094-1.38c-.019-1.008-.057-2.314-.1-3.956-.056-3.545-.112-8.49-.188-14.554-.188-12.389-.47-29.331-.752-48.045-.32-18.715-.621-35.657-.828-48.046-.075-6.064-.15-11.009-.188-14.572v-3.956a12.763 12.763 0 0 1 .057-1.381 7.223 7.223 0 0 1 .131 1.381c.057 1.007.113 2.314.189 3.956.112 3.545.282 8.489.489 14.553.376 12.3.79 29.276 1.109 48.046s.489 35.75.47 48.046c-.018 6.157-.037 11.12-.112 14.572-.038 1.642-.076 2.967-.094 3.956a6.226 6.226 0 0 1-.089 1.38z" fill="#263238"/><path d="M219.6 192.53l3.762 2.817-2.652 17.185 44.388 46.1-40.307-52.5 3.423-13.6z" fill="#f1f1f1"/><path d="M271.284 316.087l-68.106-19.816-2.257-51.311 18.679-67.618s-44.52 22.036-47.548 36.067-10.326 48.12-11.116 72.75c-.7 22.035-.79 36.757 4.27 43.791 8.52 11.83 45.027 19.48 81.459 17.726 25.636-1.25 51.216-7.93 67.015-17.745" fill="#fff"/><path d="M265.942 259.757s-.075-.075-.226-.243c-.15-.186-.357-.447-.62-.765-.546-.69-1.317-1.679-2.314-2.948-2.012-2.593-4.89-6.288-8.445-10.859-7.109-9.217-16.89-21.924-27.686-35.955-.7-.914-1.392-1.81-2.088-2.705l-.075-.094.038-.112c1.185-4.7 2.351-9.254 3.442-13.6l.225.28c-2.971 0-5.849 0-8.614-.019h-.226v-.223c.019-5.561.019-10.654.038-15.17v-.093l.075-.056c5.624-4.236 10.195-7.687 13.392-10.094q2.37-1.764 3.668-2.743c.413-.3.733-.523.959-.709l.338-.224s-.094.093-.3.261c-.225.187-.545.429-.94.746-.846.653-2.069 1.605-3.611 2.818-3.179 2.444-7.712 5.933-13.279 10.225l.075-.15c.019 4.516.019 9.61.038 15.17l-.226-.224c2.765 0 5.643 0 8.614-.019h.3l-.075.28a13449.52 13449.52 0 0 1-3.423 13.621l-.038-.205c.7.9 1.392 1.81 2.088 2.705 10.759 14.069 20.5 26.794 27.573 36.049 3.5 4.608 6.339 8.34 8.314 10.952a346.878 346.878 0 0 0 2.238 2.985c.244.336.433.6.564.784.151.241.226.334.207.334z" fill="#263238"/><path d="M339.051 197.456s16.137 11.829 17.549 30.844c1.128 15.449 3.743 57.748 4.213 66.966.734 14.348-10.533 47.934-39.836 38.418-17.567-5.71-82.513-27.6-82.513-27.6l4.326-27.354 77.077 4.553 1.523-63.794z" fill="#fff"/><path d="M241.886 281.868s-21.818-2.333-26.877-1.139c-4.853 1.157-11.774 7.053-11.774 7.053l.094 8.546 35.1 9.74z" fill="#b78876"/><path d="M269.271 261.53a1.635 1.635 0 0 1 .094-.3c.075-.2.188-.485.32-.839.3-.765.752-1.848 1.3-3.228 1.166-2.836 2.821-6.867 4.89-11.867 2.088-5 4.552-10.953 7.3-17.558.7-1.642 1.373-3.358 2.238-5.038.827-1.7 1.787-3.358 2.8-5.037a115.5 115.5 0 0 1 6.922-9.927c1.26-1.6 2.52-3.172 3.837-4.683l-.038.242c-.922-2.332-1.824-4.627-2.708-6.847l-.094-.224.225-.075c3.988-1.343 7.787-2.631 11.379-3.825l-.112.317a22798.71 22798.71 0 0 0-12.884-21.345c-1.561-2.594-2.9-4.665-4.307-5.5a5.511 5.511 0 0 0-1.731-.691 5.1 5.1 0 0 1-.639-.149 4 4 0 0 1 .639.075 5.283 5.283 0 0 1 1.787.653 7.642 7.642 0 0 1 2.182 2.108 40.624 40.624 0 0 1 2.276 3.377c3.2 5.206 7.711 12.576 13.053 21.271l.131.224-.263.093c-3.573 1.213-7.373 2.519-11.36 3.863l.15-.3c.884 2.239 1.806 4.516 2.728 6.848l.056.13-.094.112c-1.3 1.493-2.558 3.06-3.818 4.665a114.659 114.659 0 0 0-6.9 9.87c-1 1.661-1.975 3.322-2.784 5-.846 1.661-1.542 3.358-2.238 5-2.783 6.587-5.285 12.539-7.392 17.521a6604.72 6604.72 0 0 1-5.021 11.811c-.6 1.362-1.054 2.444-1.392 3.19-.151.336-.282.616-.376.821-.099.149-.156.242-.156.242zM347.909 328.346s-.094.093-.263.28c-.207.186-.47.466-.827.8a24.206 24.206 0 0 1-3.536 2.668 24.668 24.668 0 0 1-6.489 2.706 26.182 26.182 0 0 1-9.292.578 28.514 28.514 0 0 1-5.323-1.119c-1.8-.579-3.63-1.269-5.529-1.941a1494.16 1494.16 0 0 0-40.269-13.732c-19.994-6.512-38.219-12-51.423-15.916-6.6-1.941-11.943-3.508-15.648-4.59-1.825-.541-3.254-.952-4.251-1.25-.47-.15-.827-.262-1.11-.336-.244-.075-.376-.131-.376-.131s.132.019.376.075c.283.075.64.168 1.11.3 1 .28 2.445.672 4.288 1.176 3.706 1.026 9.085 2.537 15.706 4.441 13.241 3.825 31.485 9.273 51.478 15.785a1352.685 1352.685 0 0 1 28.081 9.478c4.289 1.512 8.37 2.948 12.188 4.329 1.9.672 3.743 1.4 5.511 1.959a30.81 30.81 0 0 0 5.248 1.138 26.49 26.49 0 0 0 9.178-.5 24.748 24.748 0 0 0 6.451-2.594 27.453 27.453 0 0 0 3.574-2.575c.357-.317.658-.578.865-.765a1.17 1.17 0 0 1 .282-.264zM203.347 296.495c-.018.093-1.222-.168-3.178-.094a14.442 14.442 0 0 0-3.367.56 16.19 16.19 0 0 0-3.8 1.717 17.884 17.884 0 0 0-5.285 5.373c-1.035 1.661-1.486 2.8-1.561 2.762-.038-.019.056-.3.263-.821a14.293 14.293 0 0 1 1.015-2.109 16.458 16.458 0 0 1 5.3-5.616 14.728 14.728 0 0 1 3.931-1.735 13.9 13.9 0 0 1 3.48-.467 12.082 12.082 0 0 1 2.351.206 2.708 2.708 0 0 1 .851.224zM181.887 289.778c-.019 0 .019-.093.094-.243a2.28 2.28 0 0 1 .433-.6 4.445 4.445 0 0 1 2.426-1.194 12.525 12.525 0 0 1 4.006 0 22.982 22.982 0 0 1 4.74 1.138 20.748 20.748 0 0 1 7.523 4.572 16.175 16.175 0 0 1 1.749 2.033 4.028 4.028 0 0 1 .508.84c-.075.056-.846-1.119-2.482-2.612a22.14 22.14 0 0 0-7.449-4.366 23.1 23.1 0 0 0-4.645-1.157 13.148 13.148 0 0 0-3.875-.112 4.591 4.591 0 0 0-2.351.989c-.47.413-.621.749-.677.712zM207.316 230.854a7.555 7.555 0 0 1-.32-1.4c-.131-.429-.338-.952-.545-1.567-.3-.579-.583-1.269-1.016-1.96a27.784 27.784 0 0 0-3.479-4.59 36.645 36.645 0 0 0-5.323-4.646 32.232 32.232 0 0 0-11.624-5.3 23.963 23.963 0 0 0-3.874-.485 7.843 7.843 0 0 1-1.449-.112 8.03 8.03 0 0 1 1.449-.074 21.506 21.506 0 0 1 3.931.336 30.833 30.833 0 0 1 11.849 5.243 35.226 35.226 0 0 1 5.36 4.739 26.205 26.205 0 0 1 3.442 4.72c.414.728.677 1.437.96 2.034.188.635.376 1.176.489 1.624a5.772 5.772 0 0 1 .15 1.438zM336.624 309.314a2.242 2.242 0 0 1-.019-.335c0-.243-.018-.56-.018-.952-.019-.84-.057-2.09-.188-3.676a50.508 50.508 0 0 0-2.746-13.229 18.647 18.647 0 0 0-1.862-4.049 7.918 7.918 0 0 0-3.612-3.041c-3.1-1.325-6.827-1.157-10.626-1.362-7.637-.317-16.025-.672-24.846-1.045-20.521-.877-38.784-1.642-50.257-2.258l.151-.13c-.7 4.179-1.242 7.5-1.618 9.8a183.757 183.757 0 0 1-.451 2.593c-.057.28-.094.5-.132.672l-.056.224a1.992 1.992 0 0 1 .019-.224c.018-.168.056-.392.094-.672.094-.616.206-1.493.376-2.612.357-2.314.846-5.635 1.486-9.815l.018-.13h.132c11.511.466 29.755 1.231 50.256 2.071 8.8.373 17.191.746 24.828 1.082 1.9.093 3.761.131 5.586.28a15.828 15.828 0 0 1 5.172 1.157 8.308 8.308 0 0 1 3.762 3.19 19.127 19.127 0 0 1 1.88 4.124 49.185 49.185 0 0 1 2.6 13.322c.094 1.6.094 2.855.094 3.695-.019.41-.019.727-.019.951.015.255.015.369-.004.369z" fill="#263238"/><path d="M321.935 249.458c.132 0 .244 7.407.244 16.531 0 9.143-.112 16.55-.244 16.55s-.245-7.407-.245-16.55c0-9.124.11-16.531.245-16.531zM172.577 211.767s-.057.205-.188.616-.358.989-.565 1.791c-.451 1.586-1.015 3.956-1.655 7.053-1.3 6.176-2.877 15.225-4.645 26.57a992.196 992.196 0 0 0-2.746 18.64c-.471 3.358-.772 6.866-1.016 10.5s-.433 7.389-.583 11.233c-.282 7.725-.452 15.86-.226 24.368.057 2.127.151 4.273.32 6.419.056 1.082.226 2.145.376 3.227a27.017 27.017 0 0 0 .79 3.172 18.046 18.046 0 0 0 3.066 5.822 13.056 13.056 0 0 0 5.266 4.011l.038.019a82.474 82.474 0 0 0 13.711 5.206c4.778 1.418 9.724 2.575 14.746 3.6a202.688 202.688 0 0 0 33.122 3.993 152.482 152.482 0 0 0 15.818-.411c5.153-.354 10.175-.9 15.028-1.6a162.126 162.126 0 0 0 26.99-6.214 139.079 139.079 0 0 0 21.818-9.291l.018.3c-12.7-4.459-22.889-8.042-29.924-10.505-3.5-1.231-6.207-2.2-8.05-2.854-.9-.336-1.6-.579-2.088-.747-.47-.168-.7-.261-.7-.261s.245.075.715.224c.489.168 1.185.392 2.107.709 1.862.634 4.57 1.567 8.087 2.78 7.054 2.444 17.267 5.971 29.981 10.374l.357.131-.338.168a138.682 138.682 0 0 1-21.856 9.366 160.362 160.362 0 0 1-27.046 6.288q-7.308 1.092-15.066 1.624c-5.153.373-10.457.578-15.855.429a205.909 205.909 0 0 1-33.216-3.993c-5.022-1.026-9.987-2.183-14.783-3.6a81.011 81.011 0 0 1-13.806-5.243l.038.018a13.5 13.5 0 0 1-5.474-4.179 18.643 18.643 0 0 1-3.141-5.971 27.9 27.9 0 0 1-.808-3.228c-.132-1.1-.32-2.183-.376-3.265-.17-2.165-.245-4.31-.32-6.437-.207-8.509-.038-16.663.263-24.387q.227-5.793.6-11.251c.244-3.639.564-7.165 1.034-10.524.941-6.735 1.9-12.967 2.8-18.64 1.824-11.325 3.461-20.375 4.8-26.551.658-3.1 1.26-5.467 1.73-7.053.207-.8.471-1.38.6-1.791a5.261 5.261 0 0 1 .252-.655z" fill="#263238"/><path d="M203.253 290.152c11.38-12.5 10.891-34.761 4.345-50.527-.6 17.091-2.633 32.26-4.194 48.866" fill="#f1f1f1"/><path d="M207.636 242.814a1.967 1.967 0 0 1 0 .542c-.019.41-.057.932-.094 1.567-.113 1.418-.264 3.358-.452 5.728-.413 4.907-.959 11.55-1.561 18.92-.583 7.37-1.109 14.031-1.486 18.92-.188 2.369-.319 4.31-.432 5.728-.057.634-.094 1.157-.132 1.567a2.466 2.466 0 0 1-.075.541 2.366 2.366 0 0 1-.019-.541c.019-.41.019-.933.038-1.567.037-1.362.15-3.321.282-5.747.282-4.851.752-11.55 1.354-18.938s1.223-14.069 1.712-18.9c.244-2.369.451-4.31.6-5.728.076-.634.151-1.138.189-1.548a1.558 1.558 0 0 1 .076-.544zM235.7 220.219c.132 0 .245 4.348.245 9.7s-.113 9.7-.245 9.7-.245-4.347-.245-9.7c.017-5.371.111-9.7.245-9.7z" fill="#263238"/><path d="M228.287 252.442a10.06 10.06 0 0 0 2.088 5.15 6.879 6.879 0 0 0 5 2.631 7.669 7.669 0 0 0 6.734-3.34c2.125-3.359 2.652-10.374.94-14.516-1.166-2.855-3.818-5.486-6.921-5.561a7.623 7.623 0 0 0-7.486 5.785" fill="#f1f1f1"/><path d="M228.645 242.572a6.253 6.253 0 0 1 .752-1.977 8.211 8.211 0 0 1 1.524-1.978 6.972 6.972 0 0 1 2.877-1.68 7.287 7.287 0 0 1 1.938-.3 5.664 5.664 0 0 1 2.125.28 8.336 8.336 0 0 1 3.78 2.687 10.692 10.692 0 0 1 2.22 4.59 20.031 20.031 0 0 1 .414 5.448 14.92 14.92 0 0 1-2.37 7.93 7.164 7.164 0 0 1-3.066 2.295 8.482 8.482 0 0 1-3.48.578h.019a5.217 5.217 0 0 1-2.5-.615 8.762 8.762 0 0 1-1.878-1.286 9.436 9.436 0 0 1-2.05-3.023 8.977 8.977 0 0 1-.64-2.22 4.723 4.723 0 0 1-.056-.6v-.201a12.985 12.985 0 0 0 .9 2.948 9.178 9.178 0 0 0 2.05 2.873 8.132 8.132 0 0 0 1.824 1.213 5.092 5.092 0 0 0 2.314.541h.018a7.429 7.429 0 0 0 6.151-2.761 14.652 14.652 0 0 0 2.238-7.669c.207-3.638-.414-7.3-2.5-9.721a8.144 8.144 0 0 0-3.554-2.594 5.644 5.644 0 0 0-1.975-.28 7.174 7.174 0 0 0-1.844.262 7.1 7.1 0 0 0-2.8 1.548 7.7 7.7 0 0 0-1.542 1.885 14.962 14.962 0 0 0-.889 1.827z" fill="#263238"/><path d="M226.124 252.63a10.06 10.06 0 0 0 2.088 5.15 6.879 6.879 0 0 0 5 2.631 7.669 7.669 0 0 0 6.734-3.34c2.125-3.359 2.652-10.374.94-14.516-1.166-2.855-3.818-5.486-6.921-5.561a7.623 7.623 0 0 0-7.486 5.785" fill="#f1f1f1"/><path d="M226.482 242.76a6.253 6.253 0 0 1 .752-1.977 8.193 8.193 0 0 1 1.524-1.978 6.972 6.972 0 0 1 2.877-1.68 7.293 7.293 0 0 1 1.938-.3 5.664 5.664 0 0 1 2.125.28 8.344 8.344 0 0 1 3.781 2.687 10.7 10.7 0 0 1 2.219 4.59 20.032 20.032 0 0 1 .414 5.448 14.911 14.911 0 0 1-2.37 7.93 7.164 7.164 0 0 1-3.066 2.3 8.48 8.48 0 0 1-3.479.578h.018a5.217 5.217 0 0 1-2.5-.615 8.786 8.786 0 0 1-1.881-1.288 9.436 9.436 0 0 1-2.05-3.023 9.045 9.045 0 0 1-.64-2.22 4.723 4.723 0 0 1-.056-.6v-.205a12.985 12.985 0 0 0 .9 2.948 9.178 9.178 0 0 0 2.05 2.873 8.133 8.133 0 0 0 1.824 1.213 5.092 5.092 0 0 0 2.314.541h.019a7.428 7.428 0 0 0 6.15-2.761 14.652 14.652 0 0 0 2.238-7.669c.207-3.638-.414-7.3-2.5-9.721a8.152 8.152 0 0 0-3.555-2.594 5.643 5.643 0 0 0-1.975-.28 7.166 7.166 0 0 0-1.843.262 7.093 7.093 0 0 0-2.8 1.548 7.7 7.7 0 0 0-1.542 1.885 13.518 13.518 0 0 0-.886 1.828z" fill="#263238"/><path d="M230.055 241.715a4.754 4.754 0 0 0-4.965 2.836 8.043 8.043 0 0 0 .019 5.989 7.457 7.457 0 0 0 1.542 2.706 3.98 3.98 0 0 0 2.765 1.325 4.823 4.823 0 0 0 3.818-2.239 8.444 8.444 0 0 0 1.3-7.035c-.414-1.586-1.6-3.228-3.254-3.265" fill="#f1f1f1"/><path d="M231.259 242.031c0-.019.132-.037.376-.019a2.494 2.494 0 0 1 1 .336 4.964 4.964 0 0 1 2.126 3.153 8.68 8.68 0 0 1-.565 5.617 7.249 7.249 0 0 1-2.069 2.705 3.986 3.986 0 0 1-3.573.84 4.935 4.935 0 0 1-2.859-2.314 10.037 10.037 0 0 1-1.185-3.172 7.033 7.033 0 0 1 .922-5.542 4.994 4.994 0 0 1 3.235-2.033 3.208 3.208 0 0 1 1.053 0c.244.056.357.074.357.093a6.881 6.881 0 0 0-1.373.093 5 5 0 0 0-2.99 2.053 6.741 6.741 0 0 0-.771 5.261 9.934 9.934 0 0 0 1.166 3.023 4.415 4.415 0 0 0 2.576 2.09 3.594 3.594 0 0 0 3.16-.765 6.846 6.846 0 0 0 1.956-2.519 8.332 8.332 0 0 0 .64-5.355 4.86 4.86 0 0 0-1.881-3.079 4.139 4.139 0 0 0-1.301-.466z" fill="#263238"/><path d="M234.72 256.808c-.075.018-.169-.28-.489-.653a3.39 3.39 0 0 0-1.58-1.008 8.312 8.312 0 0 0-1.937-.3c-.508-.038-.847-.075-.847-.15 0-.056.32-.149.847-.186a5.358 5.358 0 0 1 2.088.186 3.048 3.048 0 0 1 1.711 1.269c.282.469.263.842.207.842zM235.435 240.463c.037.038-.151.336-.565.672a4.631 4.631 0 0 1-1.956.84 4.56 4.56 0 0 1-2.125-.112c-.527-.168-.79-.374-.771-.43a6.952 6.952 0 0 0 5.417-.97zM299.026 174.712c0-.018.113.019.3.112s.47.224.828.429a16.848 16.848 0 0 1 2.765 1.959 19.793 19.793 0 0 1 5.962 9.348 59.861 59.861 0 0 1 2.276 10.878c.15 1.418.244 2.557.3 3.359a4.694 4.694 0 0 1 .018 1.231 5.213 5.213 0 0 1-.206-1.212c-.113-.877-.264-2-.452-3.322a69.817 69.817 0 0 0-2.389-10.784 20.433 20.433 0 0 0-5.717-9.236 33.432 33.432 0 0 0-3.685-2.762zM287.5 275.767c2.689-.093 4.833-2.761 7.5-2.612a3.7 3.7 0 1 1-.62 7.37c-2.822-.317-4.458-3.6-7.223-4.235" fill="#263238"/><path d="M310.236 278.024a17.266 17.266 0 0 1-2.52-.2l.15-.915a10.757 10.757 0 0 0 8.276-1.6c2.746-2 4.495-5.561 5.247-10.617l.038-.187c.3-2 .715-41.254.715-48.717 0-11.643-10.307-13.229-10.74-13.285-.414-.075-9.78-1.623-14.746 11.083-5.21 13.322-13.523 38.978-14.068 41.982-.076.373-.17.821-.283 1.362-.865 3.844-2.67 11.867 2.728 16.476 6 5.149 10.739 3.153 10.946 3.06l.376.839c-.225.093-5.454 2.332-11.924-3.209-5.812-4.982-3.931-13.341-3.028-17.371.113-.523.207-.952.282-1.325.545-3.023 8.9-28.809 14.125-42.15 5.248-13.452 15.649-11.68 15.761-11.661.095.018 11.511 1.754 11.511 14.2 0 6.139-.414 46.721-.733 48.848l-.019.187c-.771 5.3-2.671 9.068-5.6 11.213a10.7 10.7 0 0 1-6.494 1.987z" fill="#263238"/><path d="M322.612 223.3a17.165 17.165 0 0 0-1.918-4.572 16.314 16.314 0 0 0-3.649-3.936 15.893 15.893 0 0 0-5.944-2.781 17.644 17.644 0 0 0-11.717 1.512 21.282 21.282 0 0 0-4.082 2.892c-.019-.019.057-.112.207-.28a5.58 5.58 0 0 1 .7-.728 14.13 14.13 0 0 1 3.009-2.183 17.33 17.33 0 0 1 11.981-1.7 15.742 15.742 0 0 1 6.113 2.911 14.842 14.842 0 0 1 3.668 4.1 11.928 11.928 0 0 1 1.429 3.414 5.665 5.665 0 0 1 .188.989 1.261 1.261 0 0 1 .015.362zM346.16 296.682a31.925 31.925 0 0 0-1.26-3.918 17.012 17.012 0 0 0-6.282-7.463 13.8 13.8 0 0 0-5.1-1.829c-1.674-.28-3.2-.373-4.476-.466-1.2-.075-2.22-.15-3.047-.206a4.261 4.261 0 0 1-1.11-.149 5.335 5.335 0 0 1 1.128-.037q1.242.027 3.047.056a36 36 0 0 1 4.533.373 14.03 14.03 0 0 1 5.285 1.847 16.718 16.718 0 0 1 6.339 7.743 14.985 14.985 0 0 1 .846 2.93 3.577 3.577 0 0 1 .097 1.119z" fill="#263238"/><path d="M299.5 281.363s9.1-13.677 11.417-15.468 22.175-10.691 24.508-9.254.9 4.534.9 4.534 8.408-2.93 9.311-1.773a4.088 4.088 0 0 1 0 4.7s4.645-.709 4.645.709a5.859 5.859 0 0 1-2.689 4.8c-2.145 1.605-16.1 10.822-17.229 13.36l-4.514-.28z" fill="#b78876"/><path d="M325.678 277.445a3.836 3.836 0 0 1 .414-.858 14.281 14.281 0 0 1 1.5-2.146 24.881 24.881 0 0 1 6.6-5.5A50.983 50.983 0 0 1 342 265.3c1.034-.392 1.862-.691 2.463-.877a5.96 5.96 0 0 1 .922-.261 3.247 3.247 0 0 1-.865.429c-.658.28-1.467.615-2.389 1.026a63.929 63.929 0 0 0-7.693 3.732 27.807 27.807 0 0 0-6.582 5.317c-1.445 1.623-2.103 2.817-2.178 2.779zM314.129 277.221a4.609 4.609 0 0 1 .433-1.008c.32-.634.771-1.548 1.392-2.649a25.994 25.994 0 0 1 2.5-3.676 12.02 12.02 0 0 1 1.9-1.866c.771-.522 1.58-.989 2.407-1.492a66.848 66.848 0 0 1 8.878-4.4 26.688 26.688 0 0 1 2.859-.951 4.692 4.692 0 0 1 1.091-.187c.019.075-1.505.429-3.818 1.455a83.709 83.709 0 0 0-8.765 4.5c-.828.485-1.636.97-2.389 1.455a11.066 11.066 0 0 0-1.843 1.773 30.11 30.11 0 0 0-2.558 3.564c-.6 1.007-1.11 1.866-1.523 2.556a3.533 3.533 0 0 1-.564.926z" fill="#aa6550"/></g></g></svg>