<svg xmlns="http://www.w3.org/2000/svg" width="491" height="485"><defs><clipPath id="b"><path transform="rotate(180 201.909 247.073)" fill="#fff" d="M0 0h256.308v417.686H0z"/></clipPath><clipPath id="a"><path d="M0 0h491v485H0z"/></clipPath></defs><g clip-path="url(#a)"><path fill="transparent" d="M0 0h491v485H0z"/><path d="M297.418 457.663c-42.018 15.032-81.082 15.914-115.771 7.465-.4-.11-.848-.207-1.243-.306q-6.792-1.693-13.374-3.894a205.735 205.735 0 0 1-73.08-43.087l-.919-.855a226.607 226.607 0 0 1-18.224-18.747 84.856 84.856 0 0 1-2.02-2.364 222.256 222.256 0 0 1-18.9-26.077c-.56-.934-1.122-1.845-1.671-2.768-.676-1.163-1.343-2.292-1.985-3.423-.632-1.1-1.255-2.163-1.85-3.275a201.418 201.418 0 0 1-3.41-6.521c-.4-.786-.8-1.572-1.179-2.359-.211-.415-.409-.842-.607-1.269-1.339-2.8-2.618-5.591-3.76-8.424q-2.186-5.2-4.006-10.4c-18.976-54.112-7.064-105.666 47.94-115.756 139.8-25.635 104.95-90.455 178.788-162.508 39.2-38.26 83.963-42.948 118.8-31.841 27.926 8.932 53.455 32.384 66.96 62.959 15.878 35.887 29.926 92.553-4.155 144.7-55.43 84.836-8.53 179.509-146.334 228.75z" fill="#0079c8" opacity=".1"/><g clip-path="url(#b)" transform="translate(-33.751 -23.646)"><path d="M400.193 112.57c-1.138-9.077-8.87-17.532-18.075-17.542-5.437 0-10.613 2.818-14.328 6.766a36.806 36.806 0 0 0-3.631 4.279 36.927 36.927 0 0 0-2.713-4.9c-2.86-4.59-7.368-8.372-12.711-9.428-9.027-1.793-18.283 4.994-21.195 13.667s-.49 18.412 4.3 26.225 13.023 18.018 28.207 23.085c10.467-1.337 24.482-10.548 30.722-17.273s10.561-15.813 9.424-24.879z" fill="#b3d59c"/><path d="M396.874 128.858a1.159 1.159 0 0 1-.3 0c-.24-.011-.532-.031-.887-.052-.825-.073-1.972-.156-3.413-.28-3.005-.269-7.273-.663-12.522-1.14l.229-.134c-1.513 3.906-3.276 8.486-5.217 13.511l-.314.818-.208-.849c-1.586-6.559-3.371-13.895-5.249-21.635-.574-2.393-1.148-4.756-1.7-7.056l.532.1c-3.4 4.642-6.627 9.045-9.559 13.045l-.094.124-.157-.021L336 123.014c-2.64-.29-4.738-.529-6.23-.694-.689-.083-1.232-.156-1.649-.208a2.182 2.182 0 0 1-.563-.1 3.27 3.27 0 0 1 .573.01l1.66.125c1.5.134 3.6.31 6.24.538 5.406.508 13.013 1.223 22.03 2.062l-.251.114c2.922-4.02 6.126-8.424 9.517-13.086l.376-.518.146.621c.553 2.3 1.127 4.663 1.7 7.057 1.858 7.739 3.621 15.086 5.2 21.644l-.522-.031c1.973-5 3.778-9.574 5.322-13.469l.063-.156.167.021c5.239.559 9.5 1.015 12.5 1.326 1.44.166 2.567.3 3.4.394.355.052.647.083.887.114a1.941 1.941 0 0 1 .308.08z" fill="#fafafa"/><path d="M311.036 195.708c.376-.145 14.933-3.937 14.046 10.673s-15.476 10.724-15.476 10.3c0-.405 1.43-20.973 1.43-20.973z" fill="#b78876"/><path d="M314.438 211.426c.063-.041.251.2.668.415a2.579 2.579 0 0 0 1.91.155c1.586-.476 3.047-2.849 3.276-5.481a8.337 8.337 0 0 0-.5-3.689 2.954 2.954 0 0 0-1.816-2.072 1.3 1.3 0 0 0-1.555.611c-.219.394-.146.695-.23.715-.041.031-.3-.259-.146-.86a1.627 1.627 0 0 1 .637-.88 1.953 1.953 0 0 1 1.44-.29 3.622 3.622 0 0 1 2.546 2.424 8.724 8.724 0 0 1 .647 4.124c-.271 2.943-1.951 5.6-4.122 6.092a2.768 2.768 0 0 1-2.327-.528c-.428-.383-.48-.715-.428-.736z" fill="#aa6550"/><path d="M274.271 143.5c-7.482 0-15.089 0-24.46 4.859-5.907 3.057-9.591 7.916-12.669 13.781a31.473 31.473 0 0 0-3.475 15.428c.271 5.056.292 8.589 2.327 13.231" fill="#263238"/><path d="M277.267 144.648a39.588 39.588 0 0 0-42.411 37.239c-.96 18.308-1.815 38.119-1.607 48.087.439 21.406 22.03 24.556 22.03 24.556s-.48 6.351-1.012 14.216a28.392 28.392 0 1 0 56.706 2.932l3.2-86.269a39.528 39.528 0 0 0-36.906-40.761z" fill="#b78876"/><path d="M255.268 254.53s13.253.684 27.654-8.465c0 0-6.522 15.573-28.05 13.811z" fill="#aa6550"/><path d="M243.111 193.791a3.06 3.06 0 0 0 3 3.057 2.942 2.942 0 0 0 3.151-2.777 3.076 3.076 0 0 0-3-3.067 2.938 2.938 0 0 0-3.151 2.787zM240.126 189.461c.386.393 2.7-1.337 6.021-1.358 3.308-.062 5.75 1.606 6.1 1.2.178-.176-.219-.891-1.283-1.658a8.435 8.435 0 0 0-4.895-1.45 8.141 8.141 0 0 0-4.779 1.575c-1.018.789-1.362 1.515-1.164 1.691zM275.6 193.792a3.061 3.061 0 0 0 3 3.057 2.943 2.943 0 0 0 3.151-2.777 3.076 3.076 0 0 0-3-3.067 2.943 2.943 0 0 0-3.151 2.787zM272.7 189.824c.386.394 2.7-1.337 6.021-1.357 3.308-.062 5.75 1.606 6.115 1.2.178-.176-.219-.891-1.283-1.648a8.49 8.49 0 0 0-4.9-1.461 8.232 8.232 0 0 0-4.79 1.575c-1.021.79-1.355 1.505-1.163 1.691zM260.862 214.307c.01-.187-2.046-.529-5.385-.922-.845-.083-1.649-.239-1.795-.808a4.273 4.273 0 0 1 .543-2.5q1.173-3.062 2.452-6.413c3.4-9.139 5.854-16.641 5.489-16.775s-3.433 7.159-6.835 16.3q-1.221 3.374-2.348 6.455a4.835 4.835 0 0 0-.418 3.295 2.1 2.1 0 0 0 1.4 1.212 5.951 5.951 0 0 0 1.44.187c3.37.155 5.446.155 5.457-.031zM270.629 216.5c-.542-.031-.521 3.543-3.579 6.1s-6.887 2.2-6.908 2.694c-.052.227.855.683 2.473.714a9 9 0 0 0 5.771-2.051 7.668 7.668 0 0 0 2.765-5.119c.136-1.474-.271-2.355-.522-2.338zM271.736 176.935c.334.891 3.642.446 7.524.881 3.9.352 7.044 1.461 7.555.653.23-.384-.323-1.223-1.6-2.083a12.7 12.7 0 0 0-5.614-1.9 12.5 12.5 0 0 0-5.875.736c-1.426.584-2.136 1.288-1.99 1.713zM240.586 177.752c.584.746 2.859-.051 5.6-.114 2.745-.155 5.072.467 5.6-.321.23-.383-.135-1.129-1.158-1.823a8.177 8.177 0 0 0-9.037.342c-.953.787-1.266 1.554-1.005 1.916z" fill="#263238"/><path d="M313.916 192.1s-.939 4.952-1.189 7.18c-.094.819.01 9.885-2.2 10.341-1.91.393-5.7-1.337-7.389-5.088s-4.9-12.755-4.55-16.847c.47-5.585.741-11.253-.386-16.744s-3.767-10.849-8.212-14.3-10.853-4.662-15.894-2.145c-3.11 1.555-5.437 4.3-8.338 6.207a13.028 13.028 0 0 1-8.891 2.3 8.375 8.375 0 0 1-6.877-5.6c-.918-3.264.772-6.849 3.4-9s6.032-3.16 9.392-3.813c9.3-1.834 19.149-1.471 27.988 1.937s16.676 9.958 20.454 18.589c4.362 9.983 3.851 16.105 2.692 26.983z" fill="#263238"/><path d="M264.64 193.926a24.826 24.826 0 0 1 .563-3.523 14.5 14.5 0 0 1 5.343-7.884 14.323 14.323 0 0 1 6.084-2.653 14.6 14.6 0 0 1 7.566.642 13.937 13.937 0 0 1 3.642 1.948 13.353 13.353 0 0 1 3.036 3.036 14.131 14.131 0 0 1 0 16.879 13.578 13.578 0 0 1-3.036 3.036 13.336 13.336 0 0 1-3.642 1.948 14.613 14.613 0 0 1-7.566.642 14.333 14.333 0 0 1-6.084-2.663 14.506 14.506 0 0 1-5.343-7.885 24.551 24.551 0 0 1-.563-3.523 1 1 0 0 0-.021.239c0 .186 0 .414.01.694a5.94 5.94 0 0 0 .094 1.129 11.092 11.092 0 0 0 .271 1.523 14.518 14.518 0 0 0 5.312 8.134 14.832 14.832 0 0 0 14.057 2.186 14.389 14.389 0 0 0 3.777-2 13.93 13.93 0 0 0 3.162-3.14 14.619 14.619 0 0 0 0-17.511 14.861 14.861 0 0 0-6.939-5.139 14.9 14.9 0 0 0-7.817-.611 14.72 14.72 0 0 0-11.541 10.931 9.686 9.686 0 0 0-.272 1.523 6.9 6.9 0 0 0-.093 1.13c0 .279-.011.507-.011.694 0 .146 0 .218.011.218zM226.7 193.926a24.834 24.834 0 0 1 .563-3.523 14.5 14.5 0 0 1 5.343-7.884 14.328 14.328 0 0 1 6.084-2.653 14.6 14.6 0 0 1 7.566.642 13.937 13.937 0 0 1 3.642 1.948 13.377 13.377 0 0 1 3.037 3.036 14.135 14.135 0 0 1 0 16.879 13.6 13.6 0 0 1-3.037 3.036 13.335 13.335 0 0 1-3.642 1.948 14.612 14.612 0 0 1-7.566.642 14.339 14.339 0 0 1-6.084-2.663 14.506 14.506 0 0 1-5.343-7.885 24.558 24.558 0 0 1-.563-3.523 1 1 0 0 0-.021.239c0 .186 0 .414.01.694a5.937 5.937 0 0 0 .094 1.129 11.083 11.083 0 0 0 .271 1.523 14.517 14.517 0 0 0 5.312 8.134 14.832 14.832 0 0 0 14.057 2.186 14.41 14.41 0 0 0 3.778-2 13.97 13.97 0 0 0 3.162-3.14 14.623 14.623 0 0 0 0-17.511 14.857 14.857 0 0 0-6.94-5.139 14.893 14.893 0 0 0-7.816-.611 14.723 14.723 0 0 0-11.542 10.931 9.561 9.561 0 0 0-.271 1.523 6.914 6.914 0 0 0-.094 1.13c0 .279-.011.507-.011.694-.014.146-.004.218.011.218z" fill="#263238"/><path d="M255.644 192.382a7.54 7.54 0 0 0 1.356-.466 8.759 8.759 0 0 1 6.554.425c.783.373 1.221.705 1.284.642.041-.041-.324-.487-1.1-.974a7.463 7.463 0 0 0-3.381-1.056 7.384 7.384 0 0 0-3.5.6c-.827.384-1.244.778-1.213.829zM249.769 156.263c-.209-1.109.156-1.73-.47-2.186-.72-.518-2.076.839-2.577 1.388-.157.176-.668-.508-.866-.632a3.756 3.756 0 0 1-.376-1.419c.094-.778 1.315-.985 1.889-1.513a5.626 5.626 0 0 1 2.035-1.14 1.946 1.946 0 0 1 1.951.114 1.868 1.868 0 0 1 .438 1.451 3.925 3.925 0 0 1-.292 1.512 2.152 2.152 0 0 1-1.033 1.109" fill="#263238"/><path d="M314.72 180.726s-10.571 3.844-16.071 6.165l.313-5.367 15.382-6.041c-.01 0 .386 3.989.376 5.243zM313.739 172.385a59.689 59.689 0 0 0-7.483 2.849 60.711 60.711 0 0 0-7.273 3.347 59.777 59.777 0 0 0 7.482-2.849 60.773 60.773 0 0 0 7.274-3.347z" fill="#f8f8f8"/><path d="M310.545 285.448l.814-25.406s-5.082 23.251-31.7 22.94c-25.442-.29-24.972-20.484-24.972-20.484l-.908 10.237v41.352l16.592 67.462 21.195 2.674L314.98 292z" fill="#0079c8"/><path d="M257.053 277.325a2.6 2.6 0 0 0 .3.539 13.617 13.617 0 0 0 1.013 1.471 21.841 21.841 0 0 0 4.737 4.559 27.333 27.333 0 0 0 8.85 4.124 31.345 31.345 0 0 0 11.938.818 39.2 39.2 0 0 0 11.469-3.429 49.673 49.673 0 0 0 8.379-5.015 56.882 56.882 0 0 0 5.072-4.176c.574-.518.991-.953 1.284-1.233a2.722 2.722 0 0 0 .417-.456 2.463 2.463 0 0 0-.49.384c-.355.3-.8.684-1.357 1.16a75.521 75.521 0 0 1-5.155 4.02 52.11 52.11 0 0 1-8.369 4.87 39.617 39.617 0 0 1-11.333 3.347 31.422 31.422 0 0 1-11.741-.767 27.556 27.556 0 0 1-8.755-3.958 22.887 22.887 0 0 1-4.79-4.372c-.958-1.202-1.417-1.917-1.469-1.886z" fill="#263238"/><path d="M275.524 494.146l.386-119.891 34.291-87.5 1.148-26.329 20.892 15.7s30.42 103.955 30.889 100.349.011 117.685.011 117.685h-87.617z" fill="#f8f8f8"/><path d="M276.348 493.815c.146 0 .272-27.012.272-60.334s-.126-60.335-.272-60.335-.271 27.013-.271 60.335.123 60.334.271 60.334z" fill="#263238"/><path d="M331.938 293.24l-4.237 3.191 2.985 19.4-50.06 52.055 45.458-59.277-3.872-15.366z" fill="#e0e0e0"/><path d="M273.645 432.735l76.816-22.36 2.547-57.93-21.07-76.322s50.216 24.878 53.639 40.71 11.657 54.314 12.533 82.124c.783 24.867.9 41.5-4.821 49.434-16.389 22.732-124.329 26.794-167.449-.031" fill="#f8f8f8"/><path d="M279.666 369.137c.011.01.094-.093.251-.28.177-.218.4-.5.689-.85.615-.787 1.492-1.9 2.609-3.315 2.264-2.922 5.51-7.108 9.517-12.268 8.014-10.413 19.045-24.743 31.233-40.585a497.917 497.917 0 0 0 2.348-3.067l.084-.1-.031-.124c-1.347-5.3-2.641-10.455-3.882-15.366l-.251.321c3.36 0 6.606-.01 9.726-.01h.25v-.249c-.01-6.279-.031-12.03-.041-17.127v-.1l-.084-.062c-6.334-4.777-11.489-8.673-15.1-11.387-1.774-1.327-3.172-2.363-4.143-3.088-.459-.332-.824-.6-1.085-.8a4.667 4.667 0 0 0-.386-.259 2.033 2.033 0 0 0 .344.3c.261.207.605.487 1.054.839.96.746 2.327 1.813 4.08 3.181 3.58 2.756 8.693 6.693 14.986 11.532l-.084-.166c-.01 5.1-.021 10.849-.041 17.128l.25-.249c-3.12 0-6.366-.01-9.726-.01h-.333l.084.321a14373.77 14373.77 0 0 0 3.861 15.366l.052-.228c-.772 1.015-1.565 2.03-2.348 3.067a297449.504 297449.504 0 0 0-31.1 40.678c-3.945 5.2-7.148 9.419-9.382 12.372l-2.525 3.377c-.271.373-.48.664-.647.892a2.143 2.143 0 0 0-.229.316z" fill="#263238"/><path d="M245.417 271.605c6.126-10.641 9.309-9.532 9.309-9.532l-.324 3.792-.01 7.968 2.9 34.182L275.9 382.3l-.386 111.84h-70.347l-8.755-136.531.793-58.811z" fill="#f8f8f8"/><path d="M197.215 298.8s-18.21 13.345-19.786 34.814c-1.283 17.438-4.216 65.194-4.748 75.586-.824 16.195 11.865 54.1 44.925 43.362 19.828-6.445 93.064-31.156 93.064-31.156l-4.87-30.884-86.939 5.14-1.721-71.991z" fill="#f8f8f8"/><path d="M306.789 394.087s24.607-2.642 30.3-1.275c5.478 1.316 13.274 7.968 13.274 7.968l-.115 9.657-39.577 10.983z" fill="#b78876"/><path d="M275.91 371.136a2.235 2.235 0 0 0-.105-.331c-.094-.239-.219-.56-.365-.953-.344-.871-.845-2.093-1.471-3.648-1.315-3.191-3.194-7.76-5.51-13.387-2.348-5.657-5.135-12.371-8.234-19.831-.783-1.855-1.555-3.792-2.515-5.689-.929-1.916-2.025-3.781-3.152-5.678a123.39 123.39 0 0 0-7.816-11.19c-1.419-1.813-2.849-3.585-4.331-5.284l.053.28c1.043-2.632 2.066-5.222 3.068-7.74l.1-.259-.261-.094a8446.623 8446.623 0 0 1-12.825-4.331l.136.353c5.948-9.864 10.978-18.2 14.536-24.1 1.764-2.922 3.267-5.263 4.853-6.217a6.351 6.351 0 0 1 1.941-.777 5.956 5.956 0 0 0 .709-.176 6.586 6.586 0 0 0-.73.093 6.238 6.238 0 0 0-2.014.726 8.728 8.728 0 0 0-2.463 2.372 42.214 42.214 0 0 0-2.557 3.824c-3.6 5.885-8.692 14.184-14.714 24.007l-.156.259.292.1c4.038 1.378 8.327 2.839 12.815 4.362l-.157-.342q-1.5 3.777-3.078 7.74l-.063.155.1.125c1.461 1.678 2.891 3.45 4.31 5.263a127.135 127.135 0 0 1 7.794 11.142c1.127 1.885 2.213 3.74 3.141 5.636.96 1.876 1.733 3.782 2.526 5.647 3.13 7.439 5.958 14.143 8.338 19.79a9146.87 9146.87 0 0 0 5.666 13.325c.668 1.544 1.19 2.756 1.566 3.616.177.394.313.694.417.933a1.365 1.365 0 0 0 .156.279zM187.228 446.567a2.009 2.009 0 0 0 .3.322q.345.325.939.9a25.917 25.917 0 0 0 11.312 6.051 29.893 29.893 0 0 0 10.478.663 33.571 33.571 0 0 0 6-1.264c2.046-.642 4.08-1.44 6.241-2.2a1655.02 1655.02 0 0 1 45.426-15.5c22.54-7.357 43.1-13.553 58-17.967 7.43-2.186 13.462-3.958 17.657-5.191 2.067-.611 3.674-1.088 4.8-1.419.532-.166.939-.29 1.242-.384a3.306 3.306 0 0 0 .417-.145 2.5 2.5 0 0 0-.438.094c-.313.082-.72.186-1.263.331-1.127.311-2.755.756-4.832 1.316-4.184 1.16-10.237 2.87-17.709 5.025-14.933 4.321-35.512 10.465-58.063 17.822a1450.593 1450.593 0 0 0-31.662 10.7c-4.842 1.7-9.444 3.326-13.743 4.9-2.15.756-4.216 1.575-6.22 2.217a32.609 32.609 0 0 1-5.917 1.275 29.891 29.891 0 0 1-10.362-.57 27.571 27.571 0 0 1-7.284-2.932 29.905 29.905 0 0 1-4.029-2.912c-.407-.363-.73-.653-.97-.86a1.835 1.835 0 0 0-.32-.272zM350.263 410.6c.021.114 1.378-.187 3.59-.093a17.085 17.085 0 0 1 3.8.621 17.546 17.546 0 0 1 4.278 1.938 19.725 19.725 0 0 1 5.948 6.072c1.169 1.865 1.67 3.149 1.764 3.108a3.643 3.643 0 0 0-.292-.922 15.941 15.941 0 0 0-1.148-2.383 18.557 18.557 0 0 0-5.99-6.331 16.9 16.9 0 0 0-4.435-1.958 15.481 15.481 0 0 0-3.924-.529 12.874 12.874 0 0 0-2.651.239 3.3 3.3 0 0 0-.94.238zM374.453 403.039c.021-.01-.021-.1-.094-.269a2.757 2.757 0 0 0-.48-.674 4.915 4.915 0 0 0-2.734-1.347 13.975 13.975 0 0 0-4.509.011 25.686 25.686 0 0 0-5.353 1.295 23.384 23.384 0 0 0-8.484 5.16 18.315 18.315 0 0 0-1.972 2.29 4.483 4.483 0 0 0-.574.942c.083.063.949-1.264 2.807-2.953a24.959 24.959 0 0 1 8.411-4.921 27.473 27.473 0 0 1 5.238-1.306 14.374 14.374 0 0 1 4.373-.124 5.09 5.09 0 0 1 2.651 1.119c.5.438.678.798.72.777zM345.776 336.5a8.359 8.359 0 0 0 .355-1.575c.156-.487.386-1.078.615-1.772.334-.653.658-1.42 1.138-2.217a31.7 31.7 0 0 1 3.913-5.171 42.482 42.482 0 0 1 6-5.243 36.127 36.127 0 0 1 13.117-5.978 27.281 27.281 0 0 1 4.373-.549 9.321 9.321 0 0 0 1.628-.135 9.231 9.231 0 0 0-1.628-.083 23.15 23.15 0 0 0-4.436.383 34.577 34.577 0 0 0-13.357 5.917 39.983 39.983 0 0 0-6.053 5.346 30.16 30.16 0 0 0-3.882 5.316c-.459.818-.772 1.616-1.085 2.289-.219.715-.417 1.327-.543 1.834a10.709 10.709 0 0 0-.155 1.638zM199.949 425.088a1.416 1.416 0 0 0 .021-.373c.01-.27.01-.632.021-1.088.031-.953.063-2.352.209-4.155a57.73 57.73 0 0 1 3.089-14.931 20.98 20.98 0 0 1 2.108-4.559 8.988 8.988 0 0 1 4.069-3.429c3.5-1.492 7.7-1.3 11.98-1.534 8.61-.362 18.075-.756 28.009-1.171 23.147-.994 43.736-1.865 56.676-2.549l-.177-.134c.782 4.714 1.4 8.465 1.826 11.055.219 1.254.386 2.238.511 2.933.063.31.1.559.146.756a.832.832 0 0 0 .063.249.989.989 0 0 0-.021-.259c-.021-.2-.052-.446-.094-.757-.1-.694-.24-1.678-.417-2.942-.4-2.6-.96-6.352-1.681-11.087l-.02-.145-.157.01c-12.992.539-33.55 1.389-56.675 2.342-9.935.425-19.4.839-28.009 1.212-2.15.1-4.248.156-6.3.321a18.2 18.2 0 0 0-5.843 1.306 9.387 9.387 0 0 0-4.237 3.606 21.051 21.051 0 0 0-2.119 4.662 55.656 55.656 0 0 0-2.932 15.045c-.1 1.813-.115 3.222-.1 4.176.01.455.02.808.031 1.087a1.618 1.618 0 0 0 .023.353z" fill="#263238"/><path d="M216.521 357.511c-.146 0-.271 8.362-.271 18.672s.125 18.671.271 18.671.271-8.362.271-18.671-.114-18.672-.271-18.672zM384.972 314.958s.062.238.219.683c.136.456.407 1.109.626 2.021.511 1.792 1.148 4.476 1.868 7.968 1.45 6.983 3.245 17.2 5.249 29.985.991 6.393 2.056 13.439 3.1 21.044.533 3.8.856 7.761 1.138 11.864s.49 8.331.647 12.693c.313 8.714.5 17.914.25 27.5-.073 2.393-.167 4.818-.365 7.253-.063 1.222-.261 2.424-.417 3.637a30.33 30.33 0 0 1-.887 3.574 20.334 20.334 0 0 1-3.455 6.559 14.9 14.9 0 0 1-5.937 4.538l-.032.011-.01.01a90.791 90.791 0 0 1-15.476 5.864c-5.4 1.606-10.968 2.9-16.624 4.052a230.074 230.074 0 0 1-37.359 4.517 171.623 171.623 0 0 1-17.835-.466 219.773 219.773 0 0 1-16.957-1.813 179.432 179.432 0 0 1-30.43-7.025 155.724 155.724 0 0 1-24.607-10.486l-.032.332 33.754-11.865c3.945-1.4 7-2.487 9.09-3.222 1.022-.373 1.805-.653 2.348-.85s.793-.3.793-.3-.282.083-.814.259-1.336.446-2.369.8c-2.1.715-5.166 1.772-9.121 3.129-7.941 2.757-19.462 6.735-33.811 11.709l-.4.134.375.2a156.881 156.881 0 0 0 24.639 10.579 179.979 179.979 0 0 0 30.5 7.1c5.489.818 11.166 1.43 16.989 1.834a175.6 175.6 0 0 0 17.886.476 229.955 229.955 0 0 0 37.453-4.517c5.677-1.161 11.26-2.456 16.676-4.072a90.654 90.654 0 0 0 15.57-5.917l-.041.021a15.378 15.378 0 0 0 6.177-4.714 20.919 20.919 0 0 0 3.549-6.735 29.529 29.529 0 0 0 .907-3.647c.157-1.233.355-2.466.418-3.689.2-2.445.282-4.87.355-7.274.24-9.605.041-18.816-.293-27.53q-.25-6.543-.678-12.7c-.282-4.1-.626-8.082-1.169-11.884a1073.995 1073.995 0 0 0-3.172-21.034c-2.056-12.786-3.9-22.992-5.406-29.965-.751-3.492-1.419-6.165-1.962-7.957-.24-.9-.521-1.565-.678-2.01l-.239-.674z" fill="#263238"/><path d="M350.368 403.443c-12.846-14.122-12.283-39.228-4.9-57.049.678 19.3 2.974 36.42 4.727 55.174" fill="#e0e0e0"/><path d="M345.432 350.01a2.345 2.345 0 0 0 0 .621c.031.467.073 1.047.114 1.762l.512 6.476c.459 5.533 1.085 13.045 1.774 21.354l1.69 21.366c.2 2.683.366 4.869.491 6.475.062.715.115 1.3.156 1.762a2.4 2.4 0 0 0 .094.611 2.853 2.853 0 0 0 .021-.622c-.01-.466-.031-1.046-.052-1.761a307.03 307.03 0 0 0-.324-6.486c-.313-5.481-.845-13.035-1.523-21.376s-1.388-15.884-1.931-21.344c-.281-2.673-.511-4.859-.688-6.455-.084-.715-.157-1.3-.22-1.751a2.454 2.454 0 0 0-.114-.632zM313.77 324.5c-.146 0-.272 4.9-.272 10.952s.126 10.952.272 10.952.271-4.9.271-10.952-.125-10.952-.271-10.952z" fill="#263238"/><path d="M322.14 360.881a11.091 11.091 0 0 1-2.369 5.8c-1.211 1.554-3.663 3.077-5.635 2.973a8.634 8.634 0 0 1-7.587-3.782c-2.4-3.8-3-11.708-1.064-16.381 1.325-3.212 4.3-6.206 7.805-6.279a8.624 8.624 0 0 1 8.453 6.518" fill="#e0e0e0"/><path d="M321.732 349.741a7.016 7.016 0 0 0-.845-2.238 9.369 9.369 0 0 0-1.722-2.238 8.089 8.089 0 0 0-3.245-1.9 8.231 8.231 0 0 0-2.181-.341 6.6 6.6 0 0 0-2.39.31 9.361 9.361 0 0 0-4.258 3.036 12.175 12.175 0 0 0-2.5 5.181 22.144 22.144 0 0 0-.47 6.144c.209 3.243.856 6.476 2.661 8.942a8.049 8.049 0 0 0 3.465 2.59 9.375 9.375 0 0 0 3.924.653h-.032a5.88 5.88 0 0 0 2.807-.694 9.446 9.446 0 0 0 2.119-1.461 10.841 10.841 0 0 0 3.035-5.925 5.506 5.506 0 0 0 .062-.684.535.535 0 0 0-.01-.238 13.916 13.916 0 0 1-1.023 3.336 10.514 10.514 0 0 1-2.317 3.244 8.867 8.867 0 0 1-2.045 1.367 5.566 5.566 0 0 1-2.609.612h-.031a8.4 8.4 0 0 1-6.94-3.119c-1.68-2.311-2.327-5.481-2.536-8.662-.219-4.1.47-8.227 2.818-10.973a8.986 8.986 0 0 1 4.018-2.922 6.488 6.488 0 0 1 2.233-.321 7.93 7.93 0 0 1 2.087.3 7.821 7.821 0 0 1 3.152 1.752 9.051 9.051 0 0 1 1.742 2.124 17.482 17.482 0 0 1 1.031 2.125z" fill="#263238"/><path d="M324.581 361.091a11.076 11.076 0 0 1-2.369 5.8c-1.21 1.554-3.663 3.077-5.635 2.974a8.637 8.637 0 0 1-7.587-3.782c-2.4-3.8-2.995-11.708-1.064-16.381 1.325-3.212 4.3-6.207 7.806-6.279a8.623 8.623 0 0 1 8.453 6.517" fill="#e0e0e0"/><path d="M324.174 349.938a7.015 7.015 0 0 0-.845-2.238 9.391 9.391 0 0 0-1.722-2.239 8.1 8.1 0 0 0-3.245-1.9 8.272 8.272 0 0 0-2.181-.342 6.619 6.619 0 0 0-2.39.311 9.356 9.356 0 0 0-4.258 3.036 12.174 12.174 0 0 0-2.5 5.181 22.144 22.144 0 0 0-.47 6.144c.209 3.243.856 6.476 2.661 8.942a8.043 8.043 0 0 0 3.465 2.59 9.373 9.373 0 0 0 3.923.653h-.031a5.9 5.9 0 0 0 2.807-.694 9.446 9.446 0 0 0 2.119-1.461A10.841 10.841 0 0 0 324.54 362a5.511 5.511 0 0 0 .062-.684.535.535 0 0 0-.01-.238 13.917 13.917 0 0 1-1.023 3.336 10.5 10.5 0 0 1-2.317 3.243 8.837 8.837 0 0 1-2.045 1.368 5.554 5.554 0 0 1-2.609.611h-.031a8.4 8.4 0 0 1-6.94-3.118c-1.68-2.311-2.327-5.481-2.536-8.662-.219-4.1.47-8.227 2.818-10.983a8.973 8.973 0 0 1 4.018-2.922 6.427 6.427 0 0 1 2.233-.321 7.931 7.931 0 0 1 2.087.3 7.821 7.821 0 0 1 3.151 1.751 9.074 9.074 0 0 1 1.743 2.124 17.863 17.863 0 0 1 1.033 2.133z" fill="#263238"/><path d="M320.144 348.778a5.383 5.383 0 0 1 5.6 3.2 9.135 9.135 0 0 1-.011 6.766 8.39 8.39 0 0 1-1.742 3.046 4.562 4.562 0 0 1-3.11 1.5 5.452 5.452 0 0 1-4.31-2.528 9.6 9.6 0 0 1-1.471-7.947c.48-1.793 1.8-3.637 3.673-3.689" fill="#e0e0e0"/><path d="M318.789 349.129a1.193 1.193 0 0 0-.417-.01 2.94 2.94 0 0 0-1.127.383 5.526 5.526 0 0 0-2.39 3.565 9.712 9.712 0 0 0 .647 6.341 8.266 8.266 0 0 0 2.338 3.046 4.553 4.553 0 0 0 4.028.953 5.591 5.591 0 0 0 3.214-2.611 11.592 11.592 0 0 0 1.336-3.575 7.92 7.92 0 0 0-1.044-6.258 5.61 5.61 0 0 0-3.642-2.3 3.738 3.738 0 0 0-1.189 0c-.272.052-.407.093-.4.114a8.222 8.222 0 0 1 1.555.093 5.5 5.5 0 0 1 3.36 2.311 7.623 7.623 0 0 1 .866 5.937 11.371 11.371 0 0 1-1.3 3.409 5.113 5.113 0 0 1-2.912 2.362 4.049 4.049 0 0 1-3.558-.85 7.9 7.9 0 0 1-2.213-2.839 9.436 9.436 0 0 1-.72-6.051 5.427 5.427 0 0 1 2.119-3.471 4.54 4.54 0 0 1 1.449-.549z" fill="#263238"/><path d="M314.887 365.811c.083.021.2-.321.553-.746a3.89 3.89 0 0 1 1.784-1.129 10.249 10.249 0 0 1 2.192-.342c.584-.041.949-.093.949-.166s-.355-.155-.949-.217a6.161 6.161 0 0 0-2.359.207 3.413 3.413 0 0 0-1.93 1.43c-.327.552-.303.952-.24.963zM314.073 347.368c-.053.041.156.373.647.756a5.21 5.21 0 0 0 4.6.819c.594-.187.9-.425.866-.477a13.544 13.544 0 0 1-3.173.083 13.08 13.08 0 0 1-2.94-1.181zM242.359 273.15c-.01-.021-.125.031-.344.124s-.532.249-.929.477a18.99 18.99 0 0 0-3.131 2.217 22.289 22.289 0 0 0-6.72 10.548 67.053 67.053 0 0 0-2.557 12.288 77.015 77.015 0 0 0-.334 3.782 8 8 0 0 0-.031 1.4 7.1 7.1 0 0 0 .24-1.378c.136-.995.3-2.249.511-3.761a78.958 78.958 0 0 1 2.7-12.185 22.941 22.941 0 0 1 6.449-10.424 36.485 36.485 0 0 1 4.146-3.088zM255.362 387.2c-3.026-.114-5.437-3.109-8.463-2.953a4.173 4.173 0 1 0 .71 8.31c3.172-.363 5.03-4.062 8.15-4.767" fill="#263238"/><path d="M229.712 389.756a19.379 19.379 0 0 0 2.828-.228l-.167-1.026c-3.736.6-6.877-.01-9.33-1.813-3.089-2.248-5.082-6.289-5.917-11.988l-.031-.218c-.344-2.258-.814-46.574-.814-54.987 0-13.138 11.615-14.941 12.116-15 .469-.082 11.03-1.833 16.634 12.517C250.9 332.043 260.277 361 260.9 364.4c.073.414.188.932.324 1.523.97 4.352 3.005 13.387-3.068 18.6-6.773 5.8-12.116 3.564-12.335 3.46l-.428.943c.251.114 6.147 2.642 13.452-3.626 6.543-5.616 4.424-15.066 3.412-19.614-.125-.581-.24-1.078-.313-1.492-.626-3.42-10.039-32.514-15.925-47.58-5.927-15.189-17.657-13.19-17.771-13.169s-12.993 1.969-12.993 16.029c0 6.932.459 52.75.825 55.143l.031.218c.877 5.978 3.005 10.247 6.334 12.672a11.846 11.846 0 0 0 7.267 2.249z" fill="#263238"/><path d="M215.759 327.982a19.324 19.324 0 0 1 2.171-5.17 17.539 17.539 0 0 1 4.122-4.435 17.843 17.843 0 0 1 6.7-3.139 19.758 19.758 0 0 1 13.211 1.709 23.31 23.31 0 0 1 4.592 3.264 1.394 1.394 0 0 0-.24-.321 9.528 9.528 0 0 0-.783-.829 15.671 15.671 0 0 0-3.391-2.456 19.522 19.522 0 0 0-13.525-1.906 17.908 17.908 0 0 0-6.887 3.274 17.072 17.072 0 0 0-4.143 4.632 13.3 13.3 0 0 0-1.607 3.854 8.063 8.063 0 0 0-.209 1.119c-.021.269-.031.404-.011.404zM189.19 410.81a36.867 36.867 0 0 1 1.43-4.424 19.4 19.4 0 0 1 7.075-8.434 15.413 15.413 0 0 1 5.74-2.062 49.711 49.711 0 0 1 5.051-.518c1.367-.094 2.515-.176 3.433-.239a6.043 6.043 0 0 0 1.252-.165 5.19 5.19 0 0 0-1.262-.042q-1.394.031-3.444.062a43.846 43.846 0 0 0-5.114.415 15.486 15.486 0 0 0-5.958 2.093 18.756 18.756 0 0 0-7.138 8.745 16.243 16.243 0 0 0-.95 3.315 4.38 4.38 0 0 0-.115 1.254z" fill="#263238"/><path d="M241.827 393.517s-10.258-15.428-12.888-17.459-25.024-12.058-27.644-10.444-1.012 5.119-1.012 5.119-9.486-3.3-10.488-2a4.621 4.621 0 0 0 0 5.3s-5.249-.8-5.249.8a6.577 6.577 0 0 0 3.027 5.408c2.421 1.8 18.168 12.206 19.431 15.086l5.1-.31z" fill="#b78876"/><path d="M212.294 389.1a3.5 3.5 0 0 0-.469-.974 17.918 17.918 0 0 0-1.691-2.414 28.121 28.121 0 0 0-7.44-6.217 56.547 56.547 0 0 0-8.808-4.1 107.54 107.54 0 0 0-2.765-.994 4.593 4.593 0 0 0-1.044-.291 4.468 4.468 0 0 0 .971.487c.751.322 1.648.705 2.7 1.15a71.778 71.778 0 0 1 8.672 4.218 31.064 31.064 0 0 1 7.431 6.009c1.619 1.834 2.36 3.181 2.443 3.126zM225.307 388.855a5.366 5.366 0 0 0-.5-1.14 64.636 64.636 0 0 0-1.576-2.984 28.539 28.539 0 0 0-2.828-4.155 12.585 12.585 0 0 0-2.15-2.114c-.866-.58-1.774-1.119-2.724-1.678a76.354 76.354 0 0 0-10.018-4.963 29.545 29.545 0 0 0-3.224-1.068 5 5 0 0 0-1.232-.217c-.021.093 1.7.487 4.31 1.637a93.088 93.088 0 0 1 9.893 5.077c.929.549 1.847 1.088 2.692 1.647a13.473 13.473 0 0 1 2.067 2 31.125 31.125 0 0 1 2.88 4.031c.678 1.139 1.263 2.113 1.722 2.89a5.885 5.885 0 0 0 .688 1.037z" fill="#aa6550"/></g></g></svg>