<svg width="488" height="396" fill="none" xmlns="http://www.w3.org/2000/svg"><path opacity=".1" d="M1.36 208.652c-13.063 83.795 69.728 173.564 174.5 186.31 392.97 20.549 325.643-454.815 267.934-384.95-46.167 55.894-102.593 37.902-125.036 21.92-47.632-23.746-149.842-46.83-218.469 0-61.85 42.205-86.965 99.969-98.93 176.72z" fill="#0079C8"/><path d="M171.681 199.211v-6.748s-.273-8.642 11.37-9.46c11.644-.804 52.37-.068 52.37-.068s12.081-.314 12.081 7.361v9.187l-75.821-.272z" fill="#0079C8"/><path opacity=".2" d="M171.681 199.211v-6.748s-.273-8.642 11.37-9.46c11.644-.804 52.37-.068 52.37-.068s12.081-.314 12.081 7.361v9.187l-75.821-.272z" fill="#000"/><path d="M171.681 199.212s35.369 2.167 37.214 9.16h6.56s4.332-7.252 32.047-8.887l-75.821-.273z" fill="#263238"/><path d="M183.775 382.934h55.295l-21.074-13.849-.287-80.249H228v-2.14h-10.304l-.082-22.641-1.914-5.371-.273-59.215h-6.437c-.219 1.199 0 59.051 0 59.051l-1.927 5.126v23.05h-16.755v2.14h16.755v80.249l-23.288 13.849zM203.687 79.294c-5.07 4.171-11.958 6.039-18.449 5.017-6.492-1.023-12.464-4.935-15.99-10.456-2.118-3.312-3.376-7.293-2.815-11.178.56-3.885 3.198-7.579 6.956-8.765 1.503-.477 3.088-.545 4.605-.954 1.517-.409 3.048-1.281 3.622-2.74.724-1.84-.287-3.926.055-5.861.574-3.176 4.277-4.594 6.245-7.143 2.624-3.394 1.818-8.193.889-12.377l2.856-2.44 12.026 56.897z" fill="#263238"/><path d="M244.796 85.374s23.984 32.838 25.324 33.683c4.113 2.603 45.96 18.729 45.96 18.729l-2.31 14.395s-53.367-15.117-56.469-17.353c-3.116-2.235-24.901-35.06-24.901-35.06l12.396-14.394z" fill="#FFBE9D"/><path d="M164.998 103.097l2.036-26.731c3.375-18.798 27.497-17.19 27.497-17.19l20.732-.34s14.418.45 22.645 12.105a2615.54 2615.54 0 0 0 13.967 19.52l-15.511 15.662-5.399-9.433s2.966 3.327 2.46 9.011c-.628 7.17-5.917 8.547-5.917 8.547l2.35 48.446-65.53-.6 10.851-24.932-2.118-34.937-8.063.872z" fill="#0079C8"/><path d="M190.294 103.354c.588-.096 1.189.695 1.504 1.717.3 1.022.218 2.004-.315 2.249-.533.246-1.38-.463-1.735-1.649-.342-1.172-.028-2.236.546-2.317zM192.29 77.47c.587.082.902 1.963.71 4.212-.191 2.25-.82 4.062-1.407 4.035-.588-.014-.916-1.908-.711-4.212.191-2.304.834-4.117 1.408-4.035zM188.491 95.87c-.588-.027-1.025-.736-.67-1.486.355-.75 1.189-.845 1.585-.409.397.437.492.995.342 1.336-.164.314-.67.586-1.257.56zM205.314 79.636c.574.11.847 1.227.601 2.481-.246 1.268-.916 2.195-1.489 2.086-.574-.11-.848-1.227-.602-2.481.246-1.268.916-2.208 1.49-2.086zM223.613 81.625c.109.573-.875 1.227-2.2 1.132-1.326-.096-2.201-.886-2.009-1.431.191-.56 1.134-.764 2.159-.696 1.039.082 1.954.41 2.05.995zM226.825 78.847c-.355.463-1.654.081-2.884-.86-1.23-.94-1.94-2.085-1.585-2.548.355-.464 1.654-.082 2.884.859 1.23.94 1.94 2.071 1.585 2.549zM229.872 76.705c-.587.014-1.066-1.445-.601-3.149.451-1.718 1.599-2.74 2.091-2.44.519.3.342 1.568-.027 2.985-.383 1.404-.861 2.604-1.463 2.604zM236.569 75.288c.437.395.014 1.568-.957 2.604-.956 1.036-2.091 1.567-2.528 1.158-.437-.395-.014-1.567.957-2.603.956-1.036 2.091-1.568 2.528-1.159zM233.426 83.874c-.11.572-1.394.831-2.87.572-1.476-.259-2.597-.954-2.487-1.526.109-.573 1.394-.832 2.869-.573 1.476.26 2.597.94 2.488 1.527zM216.507 82.512c-.123.573-1.258.818-2.529.532-1.271-.286-2.2-.968-2.077-1.554.123-.573 1.257-.818 2.528-.532 1.271.287 2.201.982 2.078 1.554zM218.925 77.059c-.3.504-1.394.422-2.46-.191-1.066-.614-1.681-1.527-1.38-2.031.301-.505 1.394-.423 2.46.204 1.066.6 1.681 1.5 1.38 2.018zM226.674 72.902c-.505.273-1.489-.531-1.804-1.922-.328-1.39.205-2.549.779-2.522.602.028 1.039.955 1.299 2.045.246 1.09.245 2.113-.274 2.4zM235.927 70.094c.519.272.656 1.05.287 1.744-.369.696-1.08 1.036-1.599.764-.52-.273-.656-1.05-.287-1.745.355-.695 1.066-1.036 1.599-.763zM241.298 78.204c.15.572-.356 1.2-1.121 1.404-.779.204-1.531-.082-1.681-.655-.15-.572.355-1.2 1.121-1.404.779-.204 1.53.096 1.681.655zM216.22 67.585c.314-.49 1.79-.081 2.979 1.24 1.189 1.323 1.449 2.822.929 3.081-.533.273-1.517-.572-2.514-1.663-.984-1.09-1.722-2.153-1.394-2.658zM229.64 64.775c.587 0 1.066.736 1.066 1.65 0 .913-.479 1.65-1.066 1.65-.588 0-1.066-.737-1.066-1.65 0-.913.478-1.65 1.066-1.65zM206.831 75.915c.191-.56 1.544-.6 3.006-.11 1.476.505 2.515 1.35 2.324 1.909-.192.559-1.531.6-3.007.109-1.476-.49-2.515-1.35-2.323-1.908zM212.912 71.144c-.41.422-1.271.245-1.9-.382-.628-.627-.806-1.472-.396-1.894.41-.423 1.271-.246 1.9.381.628.627.806 1.472.396 1.895zM222.465 62.486c.588-.04 1.134.805 1.216 1.895.082 1.09-.328 2.004-.915 2.045-.588.04-1.135-.805-1.217-1.895-.082-1.077.328-1.99.916-2.045zM197.169 75.273c.546.218.587 1.445.068 2.767-.506 1.322-1.367 2.208-1.927 2.004-.547-.218-.588-1.445-.068-2.767.519-1.323 1.366-2.209 1.927-2.004zM201.05 74.879c.574-.11 1.257.872 1.503 2.194.246 1.323-.014 2.482-.588 2.59-.573.11-1.257-.872-1.503-2.194-.259-1.322.014-2.481.588-2.59zM209.304 72.901c-.027.586-1.161 1.009-2.514.927-1.353-.068-2.433-.613-2.406-1.2.028-.586 1.162-1.008 2.515-.927 1.367.082 2.433.614 2.405 1.2zM193.766 72.302c.123.572-.67 1.24-1.777 1.472-1.107.245-2.118-.027-2.241-.6-.123-.572.669-1.24 1.776-1.472 1.121-.245 2.119.027 2.242.6zM201.022 70.122c.205.545-.369 1.281-1.284 1.622-.916.34-1.831.177-2.036-.368-.205-.545.369-1.281 1.284-1.622.916-.34 1.831-.177 2.036.368zM194.545 68.184c.054.572-1.558 1.213-3.608 1.036-2.05-.164-3.54-1.063-3.376-1.622.15-.573 1.722-.64 3.553-.491 1.845.15 3.376.49 3.431 1.077zM198.057 65.433c-.232.545-1.9.34-3.717-.45-1.818-.79-3.103-1.868-2.87-2.413.232-.545 1.899-.34 3.717.45s3.102 1.867 2.87 2.413zM217.723 62.76c.246.544-.369 1.335-1.285 1.949-.916.6-1.9.845-2.296.408-.396-.436.055-1.485 1.121-2.18 1.079-.723 2.227-.71 2.46-.178zM187.411 63.946c-.219.545-1.08.722-1.941.382-.847-.341-1.367-1.05-1.148-1.595.219-.545 1.08-.723 1.941-.382.847.327 1.366 1.05 1.148 1.595zM216.835 123.556c.013.586-1.394 1.117-3.144 1.172-1.763.054-3.197-.368-3.211-.954-.014-.586 1.394-1.104 3.143-1.173 1.749-.068 3.184.355 3.212.955zM220.019 119.822c-.424.409-1.504-.027-2.433-.968-.915-.94-1.312-2.044-.888-2.453.423-.409 1.503.027 2.432.968.916.954 1.312 2.044.889 2.453zM223.121 117.952c-.574.109-1.284-1.063-1.161-2.631.109-1.568.984-2.631 1.53-2.44.561.191.684 1.322.602 2.59-.096 1.254-.383 2.358-.971 2.481zM225.69 120.652c.383.45.082 1.35-.601 2.086-.697.736-1.572 1.104-2.036.749-.465-.354-.301-1.376.478-2.208.765-.818 1.777-1.063 2.159-.627zM224.365 129.745c-.588-.013-1.039-.913-.848-1.963.192-1.063.916-1.745 1.476-1.554.561.191.793 1.036.629 1.936-.164.872-.67 1.595-1.257 1.581zM219.185 126.324c.438.395.602.926.451 1.226-.164.3-.683.45-1.271.328a.91.91 0 0 1-.628-1.309c.3-.573 1.011-.641 1.448-.245zM228.055 110.618c.546.205.574 1.527-.178 2.849-.752 1.336-1.9 2.004-2.351 1.636-.464-.368-.164-1.513.492-2.686.656-1.145 1.476-2.003 2.037-1.799zM223.681 110.048c.028.586-1.12 1.131-2.582 1.213-1.463.082-2.665-.327-2.706-.913-.028-.587 1.12-1.132 2.583-1.214 1.462-.081 2.664.328 2.705.914zM214.17 119.52c-.465.368-1.271.123-1.818-.558-.547-.668-.601-1.514-.15-1.882.464-.368 1.271-.122 1.817.559.547.668.615 1.513.151 1.881zM205.505 124.075c-.41.422-1.749-.232-2.637-1.718-.889-1.486-.82-2.971-.26-3.121.574-.164 1.367.818 2.105 2.031.71 1.227 1.202 2.385.792 2.808zM200.982 124.007c-.151.573-.998.846-1.886.6-.889-.232-1.49-.886-1.34-1.458.151-.573.998-.846 1.886-.6.889.245 1.49.886 1.34 1.458zM171.011 155.915c-.588-.082-.861-1.472-.629-3.094.233-1.622.902-2.863 1.49-2.781.588.082.861 1.472.629 3.094-.246 1.609-.916 2.863-1.49 2.781zM179.06 154.991c-.533.246-1.639-.981-2.459-2.74-.834-1.758-1.066-3.394-.533-3.639.533-.246 1.64.981 2.459 2.74.82 1.758 1.066 3.394.533 3.639zM186.126 150.042c-.383.449-1.886-.219-3.471-1.35-1.572-1.131-2.693-2.331-2.392-2.835.301-.505 1.968-.082 3.635 1.104 1.668 1.199 2.611 2.644 2.228 3.081zM175.275 141.755c.547.218.629 1.281.191 2.385-.437 1.091-1.243 1.813-1.79 1.582-.547-.219-.629-1.282-.191-2.386.451-1.091 1.257-1.799 1.79-1.581zM186.413 156.272c-.465.354-1.462-.164-2.228-1.172-.765-.995-.997-2.099-.519-2.454.465-.354 1.462.164 2.228 1.172.751.995.984 2.1.519 2.454zM174.701 158.452c-.588.082-1.162-.599-1.298-1.513-.137-.927.232-1.731.82-1.813.587-.082 1.161.6 1.298 1.513.123.914-.246 1.732-.82 1.813zM197.319 147.71c-.15.573-2.036.668-4.209.218-2.173-.45-3.868-1.281-3.786-1.867.082-.586 1.968-.682 4.209-.218 2.255.449 3.936 1.295 3.786 1.867zM196.007 156.082c-.369.449-1.913-.191-3.43-1.432-1.517-1.254-2.446-2.631-2.064-3.08.369-.45 1.914.19 3.43 1.431 1.517 1.254 2.447 2.631 2.064 3.081zM203.66 153.723c-.178.559-1.462.668-2.87.231-1.408-.436-2.405-1.24-2.241-1.812.177-.559 1.462-.668 2.87-.232 1.421.45 2.419 1.254 2.241 1.813zM209.728 155.128c.027.6-.82 1.118-1.79 1.567-.984.437-1.941.723-2.365.314-.423-.395.11-1.622 1.49-2.249 1.38-.614 2.651-.205 2.665.368zM207.815 150.028c-.287.518-1.408.436-2.515-.177-1.107-.614-1.763-1.527-1.476-2.045.287-.518 1.408-.436 2.515.191 1.107.599 1.763 1.513 1.476 2.031zM214.047 149.402c.273.532-.014 1.227-.397 1.813-.41.573-.97 1.091-1.558 1.023-.587-.055-.929-1.173-.205-2.236.725-1.036 1.9-1.118 2.16-.6zM220.415 154.16c.014.586-1.107 1.104-2.515 1.145-1.407.041-2.569-.395-2.582-.982-.014-.586 1.106-1.104 2.514-1.145 1.408-.04 2.556.396 2.583.982zM221.331 150.751c-.232.546-1.353.587-2.487.096-1.148-.491-1.873-1.322-1.64-1.868.232-.545 1.353-.586 2.487-.095 1.134.491 1.872 1.336 1.64 1.867zM225.677 152.414c-.588-.082-.943-.968-.588-1.936.355-.954 1.203-1.404 1.695-1.09.505.313.574 1.104.3 1.826-.259.723-.82 1.281-1.407 1.2zM191.114 96.824c.492-.327 1.572.45 2.419 1.731.847 1.282 1.134 2.577.642 2.904-.491.327-1.571-.45-2.418-1.731-.848-1.268-1.135-2.577-.643-2.904zM200.093 94.917c.492.313.082 1.854-.929 3.435-1.011 1.581-2.241 2.604-2.733 2.29-.492-.313-.082-1.854.929-3.435 1.011-1.581 2.228-2.617 2.733-2.29zM205.04 100.887c.205.546-.792 1.432-2.227 1.977-1.435.545-2.775.532-2.98-.027-.205-.545.793-1.432 2.228-1.977 1.435-.531 2.774-.531 2.979.027zM203.715 110.442c-.356.464-1.64.096-2.775-.954-1.134-1.063-1.585-2.317-1.148-2.699.451-.382 1.558.177 2.597 1.145 1.052.968 1.681 2.031 1.326 2.508zM195.816 114.233c-.561.136-1.394-1.35-1.271-3.34.123-1.99 1.134-3.367 1.667-3.149.56.205.547 1.636.465 3.286-.11 1.649-.274 3.08-.861 3.203zM198.289 105.045c-.164.573-1.093.805-2.077.532s-1.654-.954-1.503-1.527c.164-.572 1.093-.804 2.077-.518.998.259 1.667.941 1.503 1.513zM206.516 94.099c.479.34 0 1.813-1.353 3.026-1.339 1.227-2.856 1.554-3.143 1.05-.301-.519.56-1.568 1.708-2.631 1.162-1.036 2.31-1.8 2.788-1.445zM194.599 90.54c.574-.136 1.299.9 1.367 2.317.082 1.418-.533 2.522-1.107 2.44-.588-.068-.957-1.117-1.025-2.33-.068-1.214.178-2.29.765-2.427zM202.416 86.75c.574.137.738 1.486.151 2.931-.574 1.459-1.627 2.317-2.132 2.031-.52-.3-.369-1.513.15-2.822.533-1.28 1.257-2.276 1.831-2.14zM212.297 99.838c.055.586-.792 1.145-1.913 1.254-1.107.109-2.064-.286-2.118-.873-.055-.586.792-1.145 1.913-1.254 1.107-.095 2.064.286 2.118.873zM209.277 107.459c-.205.545-1.408.654-2.679.245-1.271-.409-2.173-1.213-2.022-1.772.15-.573 1.353-.682 2.678-.245 1.326.422 2.228 1.226 2.023 1.772zM201.023 116.073c-.506.286-1.476-.478-1.859-1.8-.396-1.322 0-2.481.588-2.522.587-.041 1.134.832 1.462 1.909.314 1.09.328 2.126-.191 2.413zM195.569 121.171c-.587.041-1.12-.763-1.175-1.772-.055-1.022.369-1.867.957-1.894.587-.028 1.107.763 1.175 1.772.055 1.008-.369 1.854-.957 1.894zM209.086 118.541c-.547.245-1.476-.655-2.283-1.882-.806-1.24-1.243-2.453-.792-2.849.437-.381 1.681.3 2.583 1.691.888 1.377 1.024 2.808.492 3.04zM215.331 113.578c-.3.518-1.64.3-3.102-.3-1.449-.6-2.569-1.377-2.419-1.949.15-.559 1.626-.668 3.225-.014 1.613.641 2.583 1.758 2.296 2.263zM215.769 107.305c-.479.355-1.217.191-1.873-.15-.642-.354-1.202-.872-1.175-1.458.014-.586 1.08-.995 2.173-.423 1.093.586 1.339 1.691.875 2.031zM198.071 81.666c.587.096.847 1.445.697 3.013-.151 1.567-.67 2.835-1.258 2.822-.587-.014-1.025-1.377-.874-3.027.164-1.663.861-2.917 1.435-2.808zM210.302 86.273c.438.396-.027 1.623-1.038 2.754-1.012 1.132-2.187 1.731-2.638 1.336-.437-.395.027-1.622 1.039-2.754 1.025-1.131 2.2-1.73 2.637-1.335zM212.161 89.151c.478-.354 1.107-.3 1.421.123.314.423.191 1.05-.287 1.404-.478.354-1.107.3-1.421-.123-.315-.422-.192-1.05.287-1.404zM179.402 85.061c-.191.56-1.694.545-3.293-.19-1.599-.723-2.597-1.855-2.296-2.359.3-.518 1.694-.259 3.184.423 1.49.681 2.597 1.567 2.405 2.126zM172.76 96.62c-.547.218-1.38-.6-1.708-1.881-.328-1.268.013-2.386.601-2.468.588-.068 1.175.805 1.476 1.936.287 1.131.191 2.195-.369 2.413zM181.165 91.55c-.437.381-1.517-.11-2.391-1.105-.875-.995-1.23-2.126-.793-2.508.437-.382 1.517.11 2.392 1.104.888.995 1.243 2.113.792 2.508zM177.175 73.977c.423.41-.342 1.868-1.695 3.245-1.367 1.376-2.802 2.153-3.225 1.744-.424-.409.341-1.867 1.708-3.244 1.339-1.377 2.788-2.167 3.212-1.745zM170.888 71.444c.56.19.629 1.431.164 2.767-.465 1.336-1.298 2.263-1.859 2.058-.56-.19-.628-1.43-.164-2.767.479-1.322 1.312-2.249 1.859-2.058zM171.134 81.667c.328.49-.164 1.39-.929 2.195-.779.79-1.668 1.308-2.173.995-.492-.3-.315-1.5.642-2.481.943-.982 2.132-1.2 2.46-.709zM168.756 80.222c-.533.231-1.243-.232-1.284-1.077-.041-.846.628-1.377 1.175-1.186.56.177.929.654.956 1.09.014.423-.3.94-.847 1.173zM180.536 78.859c.082.586-.915 1.2-2.227 1.39-1.312.178-2.446-.136-2.515-.722-.082-.586.916-1.2 2.228-1.39 1.298-.191 2.432.136 2.514.722zM176.109 68.783c.478.34.218 1.54-.588 2.672-.806 1.131-1.859 1.772-2.337 1.431-.478-.34-.219-1.54.601-2.672.807-1.131 1.845-1.772 2.324-1.431zM180.003 98.787c-.41.41-1.708-.259-2.473-1.758-.766-1.486-.561-2.93.013-3.026.588-.11 1.271.872 1.886 2.058.602 1.186.998 2.318.574 2.726zM167.827 100.888c-.588.055-1.148-.858-1.053-2.03.096-1.173.807-1.991 1.367-1.827.574.15.834 1.036.765 2.003-.082.968-.492 1.8-1.079 1.854zM175.781 100.764c-.178.559-1.258.736-2.419.382-1.162-.355-1.968-1.104-1.791-1.663.178-.559 1.258-.736 2.419-.382 1.162.355 1.968 1.104 1.791 1.663zM185.853 97.969c-.438.395-1.545-.123-2.447-1.145-.915-1.022-1.298-2.168-.861-2.563.438-.395 1.545.123 2.447 1.145.915 1.023 1.298 2.168.861 2.563zM188.19 81.87c.027.587-1.244 1.146-2.87 1.228-1.613.095-2.952-.314-2.993-.9-.027-.586 1.244-1.131 2.87-1.227 1.626-.082 2.966.314 2.993.9zM185.033 71.579c.287.518-.533 1.526-1.845 2.262-1.312.737-2.611.914-2.898.41-.287-.519.533-1.527 1.845-2.264 1.312-.736 2.611-.926 2.898-.408zM173.239 66.154c.519.273.642 1.077.259 1.786-.382.709-1.107 1.076-1.626.79-.519-.272-.642-1.077-.26-1.785.369-.71 1.107-1.064 1.627-.791zM182.887 65.935c.424.41-.014 1.554-.97 2.563-.97 1.009-2.091 1.486-2.515 1.09-.423-.408.014-1.553.971-2.562.97-1.009 2.09-1.5 2.514-1.09zM188.887 76.553c.109.573-.848 1.24-2.146 1.486-1.298.245-2.433-.027-2.542-.6-.109-.572.847-1.24 2.146-1.485 1.298-.26 2.432.013 2.542.6zM189.72 90.61c-.341.49-1.585.204-2.87-.505-1.284-.723-2.173-1.636-1.927-2.181.233-.532 1.599-.45 2.98.313 1.366.777 2.145 1.895 1.817 2.372zM224.911 100.653c-.177.559-1.667.6-3.321.082-1.653-.518-2.856-1.39-2.678-1.963.177-.56 1.667-.6 3.321-.069 1.667.519 2.856 1.391 2.678 1.95zM225.403 106.299c-.396.436-1.435.15-2.337-.641-.902-.79-1.312-1.785-.915-2.235.396-.436 1.435-.15 2.337.64.902.791 1.312 1.786.915 2.236zM226.305 93.362c.192.56-1.066 1.582-2.815 2.304-1.749.709-3.362.859-3.622.327-.246-.531 1.012-1.567 2.816-2.303 1.804-.737 3.43-.873 3.621-.328zM228.656 97.166c.014.586-.806 1.09-1.845 1.118-1.039.027-1.886-.423-1.9-1.009-.013-.586.807-1.09 1.845-1.118 1.039-.04 1.886.41 1.9 1.01zM231.376 104.69c-.547.231-1.353-.396-2.228-1.036-.847-.668-1.667-1.282-1.585-1.868.054-.286.396-.504.956-.518.547-.013 1.285.205 1.927.695.643.491 1.053 1.145 1.176 1.677.136.532.013.913-.246 1.05zM231.444 110.265c-.465.368-1.544-.232-2.405-1.336-.861-1.104-1.189-2.29-.725-2.644.465-.368 1.545.231 2.406 1.336.861 1.09 1.189 2.276.724 2.644zM209.892 94.099c.287-.518 1.927-.137 3.649.845 1.722.981 2.883 2.18 2.583 2.685-.287.504-1.927.136-3.649-.845-1.722-.968-2.884-2.181-2.583-2.685zM216.78 85.58c.588-.028 1.148 1.622 1.257 3.694.11 2.072-.287 3.762-.874 3.79-.588.026-1.148-1.623-1.258-3.695-.109-2.058.287-3.749.875-3.79zM225.554 87.092c.355.464-.397 1.663-1.695 2.658-1.298 1.01-2.638 1.445-3.007.982-.355-.464.397-1.663 1.695-2.658 1.298-1.009 2.638-1.445 3.007-.982zM234.15 88.891c.137.573-1.093 1.364-2.747 1.773-1.654.409-3.116.272-3.253-.3-.136-.573 1.094-1.363 2.747-1.772 1.654-.396 3.116-.26 3.253.3zM236.569 95.871c-.178.559-1.462.668-2.884.246-1.421-.437-2.432-1.241-2.268-1.8.177-.559 1.462-.668 2.883-.245 1.422.422 2.433 1.227 2.269 1.8zM242.158 90.376c.082.586-.82 1.2-2.022 1.377-1.203.177-2.255-.15-2.351-.723-.082-.586.82-1.2 2.023-1.376 1.216-.191 2.268.136 2.35.722zM238.919 98.309c.246.532-.437 1.363-1.598 1.622-1.148.273-2.132-.177-2.16-.75-.027-.586.738-1.104 1.668-1.322.943-.218 1.844-.095 2.09.45zM241.803 97.302c-.56.177-1.271-.504-1.325-1.567-.041-1.064.615-1.813 1.189-1.677.573.136.915.831.942 1.581.028.764-.245 1.486-.806 1.663zM237.99 82.076c.574.109.82 1.39.547 2.876-.273 1.486-.97 2.59-1.558 2.48-.574-.108-.82-1.39-.547-2.876.287-1.472.984-2.576 1.558-2.48zM243.142 86.328c-.587-.055-.984-.94-.874-1.977.095-1.036.656-1.826 1.243-1.772.588.055.984.94.875 1.977-.096 1.036-.656 1.826-1.244 1.772zM246.764 91.944c-.588.068-1.175-.818-1.326-1.99-.15-1.172.219-2.181.793-2.25.588-.067 1.175.819 1.326 1.991.15 1.172-.219 2.181-.793 2.25zM168.305 94.957c-.588.028-1.134-1.84-1.066-4.157.068-2.318.724-4.144 1.312-4.09.588.055.888 1.909.82 4.158-.068 2.235-.478 4.076-1.066 4.09zM175.043 91.564c-.492.314-1.763-.777-2.829-2.44-1.066-1.663-1.517-3.271-1.025-3.585.492-.313 1.763.777 2.829 2.44 1.066 1.663 1.53 3.272 1.025 3.585zM219.882 107.363c-.519.286-1.79-1.009-2.842-2.89-1.053-1.881-1.49-3.64-.984-3.926.519-.286 1.79 1.009 2.842 2.89 1.053 1.881 1.49 3.639.984 3.926z" fill="#0079C8"/><g opacity=".2"><path opacity=".2" d="M190.294 103.354c.588-.096 1.189.695 1.504 1.717.3 1.022.218 2.004-.315 2.249-.533.246-1.38-.463-1.735-1.649-.342-1.172-.028-2.236.546-2.317zM192.29 77.47c.587.082.902 1.963.71 4.212-.191 2.25-.82 4.062-1.407 4.035-.588-.014-.916-1.908-.711-4.212.191-2.304.834-4.117 1.408-4.035zM188.491 95.87c-.588-.027-1.025-.736-.67-1.486.355-.75 1.189-.845 1.585-.409.397.437.492.995.342 1.336-.164.314-.67.586-1.257.56zM205.314 79.636c.574.11.847 1.227.601 2.481-.246 1.268-.916 2.195-1.489 2.086-.574-.11-.848-1.227-.602-2.481.246-1.268.916-2.208 1.49-2.086zM223.613 81.625c.109.573-.875 1.227-2.2 1.132-1.326-.096-2.201-.886-2.009-1.431.191-.56 1.134-.764 2.159-.696 1.039.082 1.954.41 2.05.995zM226.825 78.847c-.355.463-1.654.081-2.884-.86-1.23-.94-1.94-2.085-1.585-2.548.355-.464 1.654-.082 2.884.859 1.23.94 1.94 2.071 1.585 2.549zM229.872 76.705c-.587.014-1.066-1.445-.601-3.149.451-1.718 1.599-2.74 2.091-2.44.519.3.342 1.568-.027 2.985-.383 1.404-.861 2.604-1.463 2.604zM236.569 75.288c.437.395.014 1.568-.957 2.604-.956 1.036-2.091 1.567-2.528 1.158-.437-.395-.014-1.567.957-2.603.956-1.036 2.091-1.568 2.528-1.159zM233.426 83.874c-.11.572-1.394.831-2.87.572-1.476-.259-2.597-.954-2.487-1.526.109-.573 1.394-.832 2.869-.573 1.476.26 2.597.94 2.488 1.527zM216.507 82.512c-.123.573-1.258.818-2.529.532-1.271-.286-2.2-.968-2.077-1.554.123-.573 1.257-.818 2.528-.532 1.271.287 2.201.982 2.078 1.554zM218.925 77.059c-.3.504-1.394.422-2.46-.191-1.066-.614-1.681-1.527-1.38-2.031.301-.505 1.394-.423 2.46.204 1.066.6 1.681 1.5 1.38 2.018zM226.674 72.902c-.505.273-1.489-.531-1.804-1.922-.328-1.39.205-2.549.779-2.522.602.028 1.039.955 1.299 2.045.246 1.09.245 2.113-.274 2.4zM235.927 70.094c.519.272.656 1.05.287 1.744-.369.696-1.08 1.036-1.599.764-.52-.273-.656-1.05-.287-1.745.355-.695 1.066-1.036 1.599-.763zM241.298 78.204c.15.572-.356 1.2-1.121 1.404-.779.204-1.531-.082-1.681-.655-.15-.572.355-1.2 1.121-1.404.779-.204 1.53.096 1.681.655zM216.22 67.585c.314-.49 1.79-.081 2.979 1.24 1.189 1.323 1.449 2.822.929 3.081-.533.273-1.517-.572-2.514-1.663-.984-1.09-1.722-2.153-1.394-2.658zM229.64 64.775c.587 0 1.066.736 1.066 1.65 0 .913-.479 1.65-1.066 1.65-.588 0-1.066-.737-1.066-1.65 0-.913.478-1.65 1.066-1.65zM206.831 75.915c.191-.56 1.544-.6 3.006-.11 1.476.505 2.515 1.35 2.324 1.909-.192.559-1.531.6-3.007.109-1.476-.49-2.515-1.35-2.323-1.908zM212.912 71.144c-.41.422-1.271.245-1.9-.382-.628-.627-.806-1.472-.396-1.894.41-.423 1.271-.246 1.9.381.628.627.806 1.472.396 1.895zM222.465 62.486c.588-.04 1.134.805 1.216 1.895.082 1.09-.328 2.004-.915 2.045-.588.04-1.135-.805-1.217-1.895-.082-1.077.328-1.99.916-2.045zM197.169 75.273c.546.218.587 1.445.068 2.767-.506 1.322-1.367 2.208-1.927 2.004-.547-.218-.588-1.445-.068-2.767.519-1.323 1.366-2.209 1.927-2.004zM201.05 74.879c.574-.11 1.257.872 1.503 2.194.246 1.323-.014 2.482-.588 2.59-.573.11-1.257-.872-1.503-2.194-.259-1.322.014-2.481.588-2.59zM209.304 72.901c-.027.586-1.161 1.009-2.514.927-1.353-.068-2.433-.613-2.406-1.2.028-.586 1.162-1.008 2.515-.927 1.367.082 2.433.614 2.405 1.2zM193.766 72.302c.123.572-.67 1.24-1.777 1.472-1.107.245-2.118-.027-2.241-.6-.123-.572.669-1.24 1.776-1.472 1.121-.245 2.119.027 2.242.6zM201.022 70.122c.205.545-.369 1.281-1.284 1.622-.916.34-1.831.177-2.036-.368-.205-.545.369-1.281 1.284-1.622.916-.34 1.831-.177 2.036.368zM194.545 68.184c.054.572-1.558 1.213-3.608 1.036-2.05-.164-3.54-1.063-3.376-1.622.15-.573 1.722-.64 3.553-.491 1.845.15 3.376.49 3.431 1.077zM198.057 65.433c-.232.545-1.9.34-3.717-.45-1.818-.79-3.103-1.868-2.87-2.413.232-.545 1.899-.34 3.717.45s3.102 1.867 2.87 2.413zM217.723 62.76c.246.544-.369 1.335-1.285 1.949-.916.6-1.9.845-2.296.408-.396-.436.055-1.485 1.121-2.18 1.079-.723 2.227-.71 2.46-.178zM187.411 63.946c-.219.545-1.08.722-1.941.382-.847-.341-1.367-1.05-1.148-1.595.219-.545 1.08-.723 1.941-.382.847.327 1.366 1.05 1.148 1.595zM216.835 123.556c.013.586-1.394 1.117-3.144 1.172-1.763.054-3.197-.368-3.211-.954-.014-.586 1.394-1.104 3.143-1.173 1.749-.068 3.184.355 3.212.955zM220.019 119.822c-.424.409-1.504-.027-2.433-.968-.915-.94-1.312-2.044-.888-2.453.423-.409 1.503.027 2.432.968.916.954 1.312 2.044.889 2.453zM223.121 117.952c-.574.109-1.284-1.063-1.161-2.631.109-1.568.984-2.631 1.53-2.44.561.191.684 1.322.602 2.59-.096 1.254-.383 2.358-.971 2.481zM225.69 120.652c.383.45.082 1.35-.601 2.086-.697.736-1.572 1.104-2.036.749-.465-.354-.301-1.376.478-2.208.765-.818 1.777-1.063 2.159-.627zM224.365 129.745c-.588-.013-1.039-.913-.848-1.963.192-1.063.916-1.745 1.476-1.554.561.191.793 1.036.629 1.936-.164.872-.67 1.595-1.257 1.581zM219.185 126.324c.438.395.602.926.451 1.226-.164.3-.683.45-1.271.328a.91.91 0 0 1-.628-1.309c.3-.573 1.011-.641 1.448-.245zM228.055 110.618c.546.205.574 1.527-.178 2.849-.752 1.336-1.9 2.004-2.351 1.636-.464-.368-.164-1.513.492-2.686.656-1.145 1.476-2.003 2.037-1.799zM223.681 110.048c.028.586-1.12 1.131-2.582 1.213-1.463.082-2.665-.327-2.706-.913-.028-.587 1.12-1.132 2.583-1.214 1.462-.081 2.664.328 2.705.914zM214.17 119.52c-.465.368-1.271.123-1.818-.558-.547-.668-.601-1.514-.15-1.882.464-.368 1.271-.122 1.817.559.547.668.615 1.513.151 1.881zM205.505 124.075c-.41.422-1.749-.232-2.637-1.718-.889-1.486-.82-2.971-.26-3.121.574-.164 1.367.818 2.105 2.031.71 1.227 1.202 2.385.792 2.808zM200.982 124.007c-.151.573-.998.846-1.886.6-.889-.232-1.49-.886-1.34-1.458.151-.573.998-.846 1.886-.6.889.245 1.49.886 1.34 1.458zM171.011 155.915c-.588-.082-.861-1.472-.629-3.094.233-1.622.902-2.863 1.49-2.781.588.082.861 1.472.629 3.094-.246 1.609-.916 2.863-1.49 2.781zM179.06 154.991c-.533.246-1.639-.981-2.459-2.74-.834-1.758-1.066-3.394-.533-3.639.533-.246 1.64.981 2.459 2.74.82 1.758 1.066 3.394.533 3.639zM186.126 150.042c-.383.449-1.886-.219-3.471-1.35-1.572-1.131-2.693-2.331-2.392-2.835.301-.505 1.968-.082 3.635 1.104 1.668 1.199 2.611 2.644 2.228 3.081zM175.275 141.755c.547.218.629 1.281.191 2.385-.437 1.091-1.243 1.813-1.79 1.582-.547-.219-.629-1.282-.191-2.386.451-1.091 1.257-1.799 1.79-1.581zM186.413 156.272c-.465.354-1.462-.164-2.228-1.172-.765-.995-.997-2.099-.519-2.454.465-.354 1.462.164 2.228 1.172.751.995.984 2.1.519 2.454zM174.701 158.452c-.588.082-1.162-.599-1.298-1.513-.137-.927.232-1.731.82-1.813.587-.082 1.161.6 1.298 1.513.123.914-.246 1.732-.82 1.813zM197.319 147.71c-.15.573-2.036.668-4.209.218-2.173-.45-3.868-1.281-3.786-1.867.082-.586 1.968-.682 4.209-.218 2.255.449 3.936 1.295 3.786 1.867zM196.007 156.082c-.369.449-1.913-.191-3.43-1.432-1.517-1.254-2.446-2.631-2.064-3.08.369-.45 1.914.19 3.43 1.431 1.517 1.254 2.447 2.631 2.064 3.081zM203.66 153.723c-.178.559-1.462.668-2.87.231-1.408-.436-2.405-1.24-2.241-1.812.177-.559 1.462-.668 2.87-.232 1.421.45 2.419 1.254 2.241 1.813zM209.728 155.128c.027.6-.82 1.118-1.79 1.567-.984.437-1.941.723-2.365.314-.423-.395.11-1.622 1.49-2.249 1.38-.614 2.651-.205 2.665.368zM207.815 150.028c-.287.518-1.408.436-2.515-.177-1.107-.614-1.763-1.527-1.476-2.045.287-.518 1.408-.436 2.515.191 1.107.599 1.763 1.513 1.476 2.031zM214.047 149.402c.273.532-.014 1.227-.397 1.813-.41.573-.97 1.091-1.558 1.023-.587-.055-.929-1.173-.205-2.236.725-1.036 1.9-1.118 2.16-.6zM220.415 154.16c.014.586-1.107 1.104-2.515 1.145-1.407.041-2.569-.395-2.582-.982-.014-.586 1.106-1.104 2.514-1.145 1.408-.04 2.556.396 2.583.982zM221.331 150.751c-.232.546-1.353.587-2.487.096-1.148-.491-1.873-1.322-1.64-1.868.232-.545 1.353-.586 2.487-.095 1.134.491 1.872 1.336 1.64 1.867zM225.677 152.414c-.588-.082-.943-.968-.588-1.936.355-.954 1.203-1.404 1.695-1.09.505.313.574 1.104.3 1.826-.259.723-.82 1.281-1.407 1.2zM191.114 96.824c.492-.327 1.572.45 2.419 1.731.847 1.282 1.134 2.577.642 2.904-.491.327-1.571-.45-2.418-1.731-.848-1.268-1.135-2.577-.643-2.904zM200.093 94.917c.492.313.082 1.854-.929 3.435-1.011 1.581-2.241 2.604-2.733 2.29-.492-.313-.082-1.854.929-3.435 1.011-1.581 2.228-2.617 2.733-2.29zM205.04 100.887c.205.546-.792 1.432-2.227 1.977-1.435.545-2.775.532-2.98-.027-.205-.545.793-1.432 2.228-1.977 1.435-.531 2.774-.531 2.979.027zM203.715 110.442c-.356.464-1.64.096-2.775-.954-1.134-1.063-1.585-2.317-1.148-2.699.451-.382 1.558.177 2.597 1.145 1.052.968 1.681 2.031 1.326 2.508zM195.816 114.233c-.561.136-1.394-1.35-1.271-3.34.123-1.99 1.134-3.367 1.667-3.149.56.205.547 1.636.465 3.286-.11 1.649-.274 3.08-.861 3.203zM198.289 105.045c-.164.573-1.093.805-2.077.532s-1.654-.954-1.503-1.527c.164-.572 1.093-.804 2.077-.518.998.259 1.667.941 1.503 1.513zM206.516 94.099c.479.34 0 1.813-1.353 3.026-1.339 1.227-2.856 1.554-3.143 1.05-.301-.519.56-1.568 1.708-2.631 1.162-1.036 2.31-1.8 2.788-1.445zM194.599 90.54c.574-.136 1.299.9 1.367 2.317.082 1.418-.533 2.522-1.107 2.44-.588-.068-.957-1.117-1.025-2.33-.068-1.214.178-2.29.765-2.427zM202.416 86.75c.574.137.738 1.486.151 2.931-.574 1.459-1.627 2.317-2.132 2.031-.52-.3-.369-1.513.15-2.822.533-1.28 1.257-2.276 1.831-2.14zM212.297 99.838c.055.586-.792 1.145-1.913 1.254-1.107.109-2.064-.286-2.118-.873-.055-.586.792-1.145 1.913-1.254 1.107-.095 2.064.286 2.118.873zM209.277 107.459c-.205.545-1.408.654-2.679.245-1.271-.409-2.173-1.213-2.022-1.772.15-.573 1.353-.682 2.678-.245 1.326.422 2.228 1.226 2.023 1.772zM201.023 116.073c-.506.286-1.476-.478-1.859-1.8-.396-1.322 0-2.481.588-2.522.587-.041 1.134.832 1.462 1.909.314 1.09.328 2.126-.191 2.413zM195.569 121.171c-.587.041-1.12-.763-1.175-1.772-.055-1.022.369-1.867.957-1.894.587-.028 1.107.763 1.175 1.772.055 1.008-.369 1.854-.957 1.894zM209.086 118.541c-.547.245-1.476-.655-2.283-1.882-.806-1.24-1.243-2.453-.792-2.849.437-.381 1.681.3 2.583 1.691.888 1.377 1.024 2.808.492 3.04zM215.331 113.578c-.3.518-1.64.3-3.102-.3-1.449-.6-2.569-1.377-2.419-1.949.15-.559 1.626-.668 3.225-.014 1.613.641 2.583 1.758 2.296 2.263zM215.769 107.305c-.479.355-1.217.191-1.873-.15-.642-.354-1.202-.872-1.175-1.458.014-.586 1.08-.995 2.173-.423 1.093.586 1.339 1.691.875 2.031zM198.071 81.666c.587.096.847 1.445.697 3.013-.151 1.567-.67 2.835-1.258 2.822-.587-.014-1.025-1.377-.874-3.027.164-1.663.861-2.917 1.435-2.808zM210.302 86.273c.438.396-.027 1.623-1.038 2.754-1.012 1.132-2.187 1.731-2.638 1.336-.437-.395.027-1.622 1.039-2.754 1.025-1.131 2.2-1.73 2.637-1.335zM212.161 89.151c.478-.354 1.107-.3 1.421.123.314.423.191 1.05-.287 1.404-.478.354-1.107.3-1.421-.123-.315-.422-.192-1.05.287-1.404zM179.402 85.061c-.191.56-1.694.545-3.293-.19-1.599-.723-2.597-1.855-2.296-2.359.3-.518 1.694-.259 3.184.423 1.49.681 2.597 1.567 2.405 2.126zM172.76 96.62c-.547.218-1.38-.6-1.708-1.881-.328-1.268.013-2.386.601-2.468.588-.068 1.175.805 1.476 1.936.287 1.131.191 2.195-.369 2.413zM181.165 91.55c-.437.381-1.517-.11-2.391-1.105-.875-.995-1.23-2.126-.793-2.508.437-.382 1.517.11 2.392 1.104.888.995 1.243 2.113.792 2.508zM177.175 73.977c.423.41-.342 1.868-1.695 3.245-1.367 1.376-2.802 2.153-3.225 1.744-.424-.409.341-1.867 1.708-3.244 1.339-1.377 2.788-2.167 3.212-1.745zM170.888 71.444c.56.19.629 1.431.164 2.767-.465 1.336-1.298 2.263-1.859 2.058-.56-.19-.628-1.43-.164-2.767.479-1.322 1.312-2.249 1.859-2.058zM171.134 81.667c.328.49-.164 1.39-.929 2.195-.779.79-1.668 1.308-2.173.995-.492-.3-.315-1.5.642-2.481.943-.982 2.132-1.2 2.46-.709zM168.756 80.222c-.533.231-1.243-.232-1.284-1.077-.041-.846.628-1.377 1.175-1.186.56.177.929.654.956 1.09.014.423-.3.94-.847 1.173zM180.536 78.859c.082.586-.915 1.2-2.227 1.39-1.312.178-2.446-.136-2.515-.722-.082-.586.916-1.2 2.228-1.39 1.298-.191 2.432.136 2.514.722zM176.109 68.783c.478.34.218 1.54-.588 2.672-.806 1.131-1.859 1.772-2.337 1.431-.478-.34-.219-1.54.601-2.672.807-1.131 1.845-1.772 2.324-1.431zM180.003 98.787c-.41.41-1.708-.259-2.473-1.758-.766-1.486-.561-2.93.013-3.026.588-.11 1.271.872 1.886 2.058.602 1.186.998 2.318.574 2.726zM167.827 100.888c-.588.055-1.148-.858-1.053-2.03.096-1.173.807-1.991 1.367-1.827.574.15.834 1.036.765 2.003-.082.968-.492 1.8-1.079 1.854zM175.781 100.764c-.178.559-1.258.736-2.419.382-1.162-.355-1.968-1.104-1.791-1.663.178-.559 1.258-.736 2.419-.382 1.162.355 1.968 1.104 1.791 1.663zM185.853 97.969c-.438.395-1.545-.123-2.447-1.145-.915-1.022-1.298-2.168-.861-2.563.438-.395 1.545.123 2.447 1.145.915 1.023 1.298 2.168.861 2.563zM188.19 81.87c.027.587-1.244 1.146-2.87 1.228-1.613.095-2.952-.314-2.993-.9-.027-.586 1.244-1.131 2.87-1.227 1.626-.082 2.966.314 2.993.9zM185.033 71.579c.287.518-.533 1.526-1.845 2.262-1.312.737-2.611.914-2.898.41-.287-.519.533-1.527 1.845-2.264 1.312-.736 2.611-.926 2.898-.408zM173.239 66.154c.519.273.642 1.077.259 1.786-.382.709-1.107 1.076-1.626.79-.519-.272-.642-1.077-.26-1.785.369-.71 1.107-1.064 1.627-.791zM182.887 65.935c.424.41-.014 1.554-.97 2.563-.97 1.009-2.091 1.486-2.515 1.09-.423-.408.014-1.553.971-2.562.97-1.009 2.09-1.5 2.514-1.09zM188.887 76.553c.109.573-.848 1.24-2.146 1.486-1.298.245-2.433-.027-2.542-.6-.109-.572.847-1.24 2.146-1.485 1.298-.26 2.432.013 2.542.6zM189.72 90.61c-.341.49-1.585.204-2.87-.505-1.284-.723-2.173-1.636-1.927-2.181.233-.532 1.599-.45 2.98.313 1.366.777 2.145 1.895 1.817 2.372zM224.911 100.653c-.177.559-1.667.6-3.321.082-1.653-.518-2.856-1.39-2.678-1.963.177-.56 1.667-.6 3.321-.069 1.667.519 2.856 1.391 2.678 1.95zM225.403 106.299c-.396.436-1.435.15-2.337-.641-.902-.79-1.312-1.785-.915-2.235.396-.436 1.435-.15 2.337.64.902.791 1.312 1.786.915 2.236zM226.305 93.362c.192.56-1.066 1.582-2.815 2.304-1.749.709-3.362.859-3.622.327-.246-.531 1.012-1.567 2.816-2.303 1.804-.737 3.43-.873 3.621-.328zM228.656 97.166c.014.586-.806 1.09-1.845 1.118-1.039.027-1.886-.423-1.9-1.009-.013-.586.807-1.09 1.845-1.118 1.039-.04 1.886.41 1.9 1.01zM231.376 104.69c-.547.231-1.353-.396-2.228-1.036-.847-.668-1.667-1.282-1.585-1.868.054-.286.396-.504.956-.518.547-.013 1.285.205 1.927.695.643.491 1.053 1.145 1.176 1.677.136.532.013.913-.246 1.05zM231.444 110.265c-.465.368-1.544-.232-2.405-1.336-.861-1.104-1.189-2.29-.725-2.644.465-.368 1.545.231 2.406 1.336.861 1.09 1.189 2.276.724 2.644zM209.892 94.099c.287-.518 1.927-.137 3.649.845 1.722.981 2.883 2.18 2.583 2.685-.287.504-1.927.136-3.649-.845-1.722-.968-2.884-2.181-2.583-2.685zM216.78 85.58c.588-.028 1.148 1.622 1.257 3.694.11 2.072-.287 3.762-.874 3.79-.588.026-1.148-1.623-1.258-3.695-.109-2.058.287-3.749.875-3.79zM225.554 87.092c.355.464-.397 1.663-1.695 2.658-1.298 1.01-2.638 1.445-3.007.982-.355-.464.397-1.663 1.695-2.658 1.298-1.009 2.638-1.445 3.007-.982zM234.15 88.891c.137.573-1.093 1.364-2.747 1.773-1.654.409-3.116.272-3.253-.3-.136-.573 1.094-1.363 2.747-1.772 1.654-.396 3.116-.26 3.253.3zM236.569 95.871c-.178.559-1.462.668-2.884.246-1.421-.437-2.432-1.241-2.268-1.8.177-.559 1.462-.668 2.883-.245 1.422.422 2.433 1.227 2.269 1.8zM242.158 90.376c.082.586-.82 1.2-2.022 1.377-1.203.177-2.255-.15-2.351-.723-.082-.586.82-1.2 2.023-1.376 1.216-.191 2.268.136 2.35.722zM238.919 98.309c.246.532-.437 1.363-1.598 1.622-1.148.273-2.132-.177-2.16-.75-.027-.586.738-1.104 1.668-1.322.943-.218 1.844-.095 2.09.45zM241.803 97.302c-.56.177-1.271-.504-1.325-1.567-.041-1.064.615-1.813 1.189-1.677.573.136.915.831.942 1.581.028.764-.245 1.486-.806 1.663zM237.99 82.076c.574.109.82 1.39.547 2.876-.273 1.486-.97 2.59-1.558 2.48-.574-.108-.82-1.39-.547-2.876.287-1.472.984-2.576 1.558-2.48zM243.142 86.328c-.587-.055-.984-.94-.874-1.977.095-1.036.656-1.826 1.243-1.772.588.055.984.94.875 1.977-.096 1.036-.656 1.826-1.244 1.772zM246.764 91.944c-.588.068-1.175-.818-1.326-1.99-.15-1.172.219-2.181.793-2.25.588-.067 1.175.819 1.326 1.991.15 1.172-.219 2.181-.793 2.25zM168.305 94.957c-.588.028-1.134-1.84-1.066-4.157.068-2.318.724-4.144 1.312-4.09.588.055.888 1.909.82 4.158-.068 2.235-.478 4.076-1.066 4.09zM175.043 91.564c-.492.314-1.763-.777-2.829-2.44-1.066-1.663-1.517-3.271-1.025-3.585.492-.313 1.763.777 2.829 2.44 1.066 1.663 1.53 3.272 1.025 3.585zM219.882 107.363c-.519.286-1.79-1.009-2.842-2.89-1.053-1.881-1.49-3.64-.984-3.926.519-.286 1.79 1.009 2.842 2.89 1.053 1.881 1.49 3.639.984 3.926z" fill="#fff"/></g><path d="M188.49 78.163c.123 0 .273 5.153.355 11.519.082 6.365.055 11.532-.068 11.532s-.273-5.153-.355-11.519c-.082-6.366-.055-11.532.068-11.532z" fill="#263238"/><path d="M190.062 82.32c.109.055-.26.942-.601 2.06-.342 1.117-.52 2.058-.643 2.044-.109-.014-.123-1.009.233-2.167.355-1.16.915-1.99 1.011-1.936zM214.825 59.271c.014 0 .055.123.11.355.068.231.136.586.191 1.035.109.914.082 2.277-.383 3.872-.478 1.567-1.448 3.394-3.143 4.825-1.667 1.445-4.114 2.318-6.656 2.25-2.541-.069-4.933-1.064-6.532-2.59-1.613-1.514-2.487-3.381-2.897-4.976-.383-1.608-.342-2.972-.178-3.885.082-.45.164-.804.246-1.036.068-.232.123-.354.137-.34.136 0-.725 2.017.095 5.18.424 1.54 1.299 3.325 2.87 4.757 1.545 1.445 3.827 2.385 6.273 2.453 2.446.055 4.783-.763 6.396-2.126 1.64-1.35 2.61-3.094 3.116-4.608.97-3.108.219-5.18.355-5.166zM226.592 86.437c.055-.027.396.614.929 1.65.684 1.363 1.34 2.658 2.037 4.048a631.87 631.87 0 0 1 2.05 4.049c.519 1.036.833 1.69.779 1.717-.055.028-.451-.572-1.039-1.567a83.149 83.149 0 0 1-2.173-3.994 63.335 63.335 0 0 1-1.927-4.117c-.451-1.09-.697-1.772-.656-1.786z" fill="#263238"/><path d="M269.942 375.097l-2.214-12.336-23.192 3.994 3.048 18.089 1.448-.15c6.465-.75 32.8-4.253 36.859-6.284 4.523-2.277-15.949-3.313-15.949-3.313z" fill="#0079C8"/><path d="M255.961 383.208a8.091 8.091 0 0 0-3.813-4.417c-1.762-.94-3.785-1.24-5.712-.749l1.121 6.461 8.404-1.295z" fill="#0079C8"/><path d="M280.001 375.943s7.257.804 6.587 2.085c-.67 1.282-27.155 5.835-39.018 6.816l-.054-.518 30.941-5.043c.013 0 .205-3.054 1.544-3.34z" fill="#0079C8"/><path d="M247.16 384.367c0 .014.137 0 .41-.027.342-.041.725-.082 1.162-.123 1.148-.15 2.569-.327 4.25-.545a403.132 403.132 0 0 0 13.967-2.14 401.145 401.145 0 0 0 13.885-2.617c1.654-.355 3.048-.654 4.182-.9.424-.095.793-.191 1.135-.259.259-.068.396-.095.396-.109 0-.014-.137.014-.396.055-.342.068-.725.136-1.148.218-1.148.218-2.542.49-4.21.804a778.269 778.269 0 0 1-13.898 2.535 683.093 683.093 0 0 1-13.94 2.222c-1.667.246-3.089.464-4.237.627-.423.069-.806.123-1.148.178-.273.04-.41.068-.41.081z" fill="#263238"/><path d="M278.525 379.638c.082 0-.014-1.022.437-2.14.437-1.131 1.216-1.799 1.162-1.854-.028-.068-.943.546-1.422 1.745-.492 1.213-.246 2.276-.177 2.249zM271.077 377.348c.068.027.328-.423.574-1.009.246-.586.382-1.09.314-1.118-.068-.027-.328.423-.574 1.009-.246.586-.383 1.091-.314 1.118zM269.027 376.678c.068.055.382-.259.724-.681.342-.423.56-.818.506-.859-.069-.055-.383.259-.725.682-.341.422-.56.817-.505.858zM267.469 374.702c.013.081.56.054 1.229-.055.67-.109 1.203-.259 1.189-.341-.013-.081-.56-.054-1.23.055-.669.109-1.202.259-1.188.341zM266.785 373.23c-.013.068.629.232 1.422.164.792-.068 1.394-.355 1.366-.423-.027-.082-.628.068-1.394.136-.751.069-1.38.041-1.394.123z" fill="#263238"/><path d="M271.514 375.193c0 .028.587 0 1.489-.259a9.24 9.24 0 0 0 1.531-.627c.273-.15.56-.286.847-.531.137-.123.274-.287.287-.532.028-.232-.136-.463-.328-.559-1.558-.491-2.842.559-3.239 1.377-.232.423-.3.818-.314 1.077-.014.259.014.409.027.409.055.013 0-.6.465-1.391a2.836 2.836 0 0 1 1.134-1.049c.506-.246 1.244-.423 1.804-.191.274.136.219.423-.013.627-.219.204-.52.354-.779.504-.533.287-1.039.505-1.463.668-.888.341-1.448.437-1.448.477z" fill="#263238"/><path d="M271.91 375.207c.028.014.178-.409 0-1.063a2.63 2.63 0 0 0-.587-1.023c-.315-.286-.738-.681-1.367-.545-.342.109-.437.518-.342.763.069.259.233.464.369.627.287.328.588.587.861.777.547.382.943.491.957.45.014-.041-.342-.218-.834-.613a5.423 5.423 0 0 1-.779-.791c-.259-.272-.492-.818-.136-.954.369-.095.806.205 1.093.464.287.286.478.599.588.899.205.586.136 1.009.177 1.009zM246.545 377.947c.014.054.656-.178 1.722-.232 1.052-.068 2.583.109 4.004.9a7.717 7.717 0 0 1 2.911 2.889c.52.927.67 1.595.725 1.582.013 0 0-.177-.082-.464a6.439 6.439 0 0 0-.465-1.199c-.478-.968-1.462-2.236-2.952-3.054-1.49-.818-3.075-.968-4.155-.845-.546.055-.984.15-1.271.245-.3.096-.45.164-.437.178zM247.283 367.915c-.082.013.205 2.153.615 4.784.424 2.631.82 4.758.902 4.744.082-.014-.205-2.154-.615-4.785-.423-2.63-.82-4.757-.902-4.743zM258.49 380.455c0 .069 1.558.069 3.444-.245 1.886-.3 3.362-.777 3.348-.859-.027-.081-1.517.273-3.389.573-1.873.313-3.417.45-3.403.531z" fill="#263238"/><path d="M253.939 381.232c-.041.068.178.3.396.614.219.313.356.613.438.599.068-.013.054-.381-.192-.749-.259-.382-.601-.532-.642-.464zM251.862 379.392c-.041.068.15.273.423.477.287.205.547.314.588.246.041-.069-.15-.273-.424-.478-.273-.19-.546-.313-.587-.245zM249.238 378.847c.027.082.341.014.697.082.369.054.642.204.683.136.055-.054-.191-.354-.642-.422-.438-.069-.779.136-.738.204zM247.42 378.682c-.014.082.137.177.342.218.205.041.382.014.396-.068.014-.082-.137-.177-.342-.218-.205-.041-.382-.014-.396.068z" fill="#263238"/><path d="M245.78 163.606s74.687 12.473 68.797 34.938c-5.822 22.246-49.992 76.322-49.992 76.322l-27.948-17.639s41.3-51.132 39.715-52.822c-1.586-1.69-58.137-13.89-58.137-13.89l-12.614-32.239 40.179 5.33z" fill="#D5EAF3"/><path d="M226.674 186.016c-.041.191-.519.259-1.079.163-.561-.109-.984-.34-.943-.531.041-.191.519-.259 1.079-.164.547.096.971.327.943.532zM234.492 187.569c-.041.19-.943.163-2.023-.055s-1.927-.559-1.886-.75c.041-.191.943-.163 2.023.055 1.079.218 1.927.559 1.886.75zM242.295 189.26c-.041.191-.957.15-2.023-.082-1.079-.232-1.913-.586-1.872-.777.041-.191.943-.15 2.023.082 1.079.232 1.913.586 1.872.777zM250.058 191.087c-.041.191-.957.136-2.023-.123-1.066-.259-1.9-.613-1.859-.804.041-.191.957-.137 2.023.122 1.08.246 1.9.614 1.859.805zM257.793 193.05c-.055.191-.957.122-2.023-.15-1.066-.273-1.886-.655-1.845-.845.055-.191.957-.123 2.023.15 1.066.272 1.886.654 1.845.845zM265.487 195.135c-.055.191-.957.109-2.023-.191-1.066-.3-1.872-.682-1.831-.873.055-.19.957-.109 2.023.191 1.066.3 1.886.682 1.831.873zM273.154 197.356c-.055.191-.957.082-2.009-.218-1.053-.313-1.873-.722-1.818-.9.055-.19.957-.081 2.009.219 1.052.313 1.872.722 1.818.899zM280.766 199.714c-.055.191-.957.069-2.009-.259-1.052-.327-1.859-.749-1.79-.94.054-.191.956-.068 2.009.259 1.052.341 1.858.75 1.79.94zM282.748 205.523c-.178-.123.314-.913.765-1.813.492-.9.219-1.677.437-1.786.096-.041.233.15.383.546.137.395.082.995-.178 1.54-.533 1.077-1.271 1.608-1.407 1.513zM278.019 211.943c-.164-.123.246-.927.902-1.813.656-.886 1.312-1.513 1.462-1.391.164.123-.246.927-.902 1.813-.642.873-1.298 1.5-1.462 1.391zM273.29 218.351c-.164-.123.246-.927.902-1.813.656-.886 1.312-1.514 1.463-1.391.164.123-.246.927-.902 1.813-.643.886-1.299 1.5-1.463 1.391zM268.562 224.757c-.164-.122.246-.927.888-1.813.656-.886 1.312-1.513 1.463-1.39.164.123-.246.927-.902 1.813-.629.886-1.285 1.513-1.449 1.39zM263.833 231.164c-.164-.123.246-.927.889-1.813.656-.886 1.312-1.514 1.462-1.391.164.123-.246.927-.902 1.813-.629.886-1.285 1.513-1.449 1.391zM259.105 237.569c-.164-.122.246-.927.888-1.813.656-.886 1.312-1.513 1.462-1.39.164.123-.246.927-.888 1.813-.642.886-1.298 1.513-1.462 1.39zM254.376 243.978c-.164-.123.246-.927.888-1.813.656-.887 1.312-1.514 1.463-1.391.164.123-.246.927-.902 1.813-.629.886-1.285 1.513-1.449 1.391zM249.661 250.396c-.164-.122.246-.926.902-1.813.656-.886 1.312-1.513 1.462-1.39.164.123-.246.927-.902 1.813-.655.872-1.312 1.5-1.462 1.39zM246.081 255.25c-.164-.123-.014-.573.314-1.036.342-.45.738-.736.888-.614.164.123.014.573-.314 1.036-.342.45-.738.723-.888.614z" fill="#263238"/><path d="M285.85 201.162c.068.177-2.05 1.063-4.729 1.976-2.678.913-4.906 1.5-4.96 1.309-.055-.191 2.063-1.077 4.728-1.977 2.665-.913 4.893-1.499 4.961-1.308z" fill="#263238"/><path d="M286.793 203.71c.027.19-2.405.749-5.466.995-3.062.259-5.549.109-5.549-.082 0-.205 2.46-.368 5.494-.627 3.034-.246 5.494-.477 5.521-.286zM264.995 276.774l-16.823-10.851s-1.408-13.85-4.565-17.407l26.731 21.456-5.343 6.802z" fill="#263238"/><path d="M166.638 161.329s-4.579 14.586 10.208 36.601l49.774 76.813 11.274 99.755 36.9-3.272-12.491-110.537-52.438-97.997-43.227-1.363z" fill="#D5EAF3"/><path d="M170.533 164.056c-.192.013-.356-.45-.356-1.023 0-.572.164-1.036.356-1.008.191.013.355.477.355 1.022s-.164 1.009-.355 1.009zM171.817 172.165c-.191.055-.533-.817-.765-1.935-.233-1.118-.274-2.059-.069-2.086.192-.027.547.832.766 1.936.218 1.104.259 2.031.068 2.085zM174.455 179.937c-.178.082-.656-.723-1.066-1.799-.41-1.064-.588-1.991-.396-2.045.191-.068.669.736 1.066 1.799.396 1.064.574 1.977.396 2.045zM178.118 187.298c-.164.095-.766-.627-1.326-1.622-.533-1.009-.806-1.909-.629-1.991.178-.081.738.655 1.258 1.663.56.968.874 1.854.697 1.95zM182.463 194.277c-.164.109-.792-.586-1.407-1.54-.615-.955-.971-1.827-.807-1.923.164-.109.793.587 1.408 1.541.615.954.97 1.813.806 1.922zM186.987 201.146c-.164.109-.806-.573-1.435-1.513-.629-.941-.998-1.8-.834-1.909.164-.109.807.573 1.435 1.513.615.941.984 1.8.834 1.909zM191.565 207.991c-.164.109-.806-.573-1.448-1.514-.629-.94-1.012-1.799-.861-1.908.164-.109.806.573 1.448 1.513.643.941 1.025 1.799.861 1.909zM196.198 214.792c-.164.109-.82-.559-1.449-1.499-.642-.941-1.025-1.786-.861-1.909.164-.109.807.559 1.449 1.5.629.954 1.025 1.799.861 1.908zM200.845 221.594c-.164.109-.82-.559-1.463-1.5-.642-.94-1.025-1.785-.874-1.894.164-.109.82.559 1.462 1.499.642.941 1.039 1.786.875 1.895zM205.491 228.383c-.164.109-.82-.559-1.462-1.5-.643-.94-1.039-1.785-.875-1.894.164-.109.82.559 1.462 1.499.656.927 1.039 1.786.875 1.895zM210.151 235.158c-.164.109-.82-.559-1.462-1.499-.642-.941-1.039-1.786-.875-1.895.164-.109.82.559 1.463 1.5.656.94 1.038 1.785.874 1.894zM214.812 241.946c-.164.109-.82-.559-1.462-1.5-.643-.94-1.025-1.785-.875-1.894.164-.109.82.559 1.462 1.499.643.941 1.039 1.786.875 1.895zM219.445 248.748c-.164.109-.82-.559-1.449-1.499-.642-.941-1.025-1.786-.861-1.895.164-.109.806.559 1.449 1.499.642.941 1.025 1.786.861 1.895zM224.051 255.577c-.164.109-.807-.573-1.449-1.513-.629-.941-1.011-1.799-.861-1.908.164-.11.806.572 1.449 1.513.642.94 1.025 1.799.861 1.908zM228.588 262.434c-.164.109-.807-.572-1.422-1.526-.628-.955-.997-1.813-.833-1.922.164-.109.806.572 1.421 1.526.629.968.998 1.827.834 1.922zM232.742 269.55c-.164.041-.628-.695-1.202-1.677-.561-.981-.916-1.84-.738-1.949.164-.096.792.6 1.366 1.595.561.981.793 1.976.574 2.031zM233.726 277.702c-.191.027-.451-.873-.587-2.004-.123-1.131-.069-2.058.123-2.086.191-.027.451.873.587 2.004.137 1.132.082 2.059-.123 2.086zM234.614 285.867c-.191.027-.451-.873-.574-2.004-.123-1.131-.054-2.058.137-2.086.191-.027.451.873.574 2.004.123 1.132.055 2.059-.137 2.086zM235.475 294.032c-.191.014-.451-.872-.574-2.003-.123-1.132-.054-2.059.137-2.086.191-.014.451.872.574 2.004.123 1.131.055 2.072-.137 2.085zM236.323 302.211c-.192.014-.451-.872-.561-2.004-.123-1.131-.054-2.058.137-2.085.191-.014.451.872.56 2.004.123 1.131.069 2.058-.136 2.085zM237.17 310.388c-.191.014-.451-.886-.56-2.003-.123-1.132-.055-2.059.136-2.086.192-.014.451.886.561 2.004.123 1.131.068 2.058-.137 2.085zM238.017 318.555c-.191.014-.451-.872-.56-2.003-.109-1.132-.055-2.059.15-2.086.192-.014.451.872.561 2.004.109 1.131.041 2.072-.151 2.085zM238.851 326.747c-.191.014-.451-.886-.56-2.004-.109-1.131-.055-2.058.15-2.085.192-.014.451.886.561 2.017.109 1.118.041 2.045-.151 2.072zM239.685 334.926c-.191.014-.451-.886-.56-2.004-.11-1.131-.055-2.058.15-2.085.191-.014.451.886.56 2.003.11 1.132.041 2.059-.15 2.086zM240.505 343.105c-.191.013-.451-.886-.56-2.004-.11-1.132-.055-2.058.15-2.086.191-.013.451.886.56 2.004.11 1.132.055 2.058-.15 2.086zM241.338 351.284c-.191.014-.451-.886-.56-2.004-.109-1.131-.055-2.058.15-2.086.192-.013.451.887.561 2.004.109 1.132.041 2.072-.151 2.086zM242.158 359.476c-.191.014-.451-.886-.56-2.017-.11-1.132-.041-2.059.15-2.086.192-.013.451.886.56 2.018.11 1.131.041 2.058-.15 2.085zM242.978 367.655c-.191.013-.451-.886-.56-2.004-.109-1.132-.041-2.059.15-2.086.192-.014.451.886.561 2.004.109 1.131.041 2.072-.151 2.086zM243.593 373.803c-.191.014-.396-.423-.451-.982-.054-.558.055-1.036.246-1.049.192-.014.397.422.451.981.069.559-.054 1.023-.246 1.05zM263.628 272.453c-.123.013-.314-1.99-.861-5.18-.533-3.176-1.517-7.552-3.334-12.132-1.791-4.58-4.1-8.424-5.795-11.192-1.708-2.753-2.788-4.443-2.706-4.498.041-.027.356.354.902 1.091a61.74 61.74 0 0 1 2.214 3.148c1.804 2.699 4.209 6.544 6.027 11.192 1.845 4.635 2.747 9.092 3.171 12.309.205 1.622.328 2.931.355 3.831.082.913.082 1.417.027 1.431z" fill="#263238"/><path d="M235.858 369.086l1.107 6.516 38.949-4.444-1.12-7.77-38.936 5.698zM214.989 158.453c.069 0 .028.94-.082 2.576-.109 1.636-.3 3.967-.56 6.761l-.013-.123c.86 2.645 2.227 5.671 3.812 8.834 2.365 4.675 4.647 8.874 6.137 11.968.751 1.554 1.339 2.822 1.708 3.708.369.886.547 1.39.506 1.417-.041.014-.315-.449-.752-1.295-.519-.981-1.162-2.194-1.9-3.598-1.612-3.04-3.949-7.184-6.327-11.887-1.599-3.176-2.938-6.257-3.758-8.969l-.014-.068v-.055c.314-2.794.588-5.112.806-6.734.219-1.622.369-2.535.437-2.535z" fill="#263238"/><path d="M262.562 143.2c-.191-2.945-7.543-5.385-10.523-6.257l.055-.054-.943-.205a11.834 11.834 0 0 1-.342-.095l-.013.013-56.511-12.023-6.3-21.987h-20.418c.506 1.022 4.688 37.227 15.662 39.776 10.974 2.549 57.904 6.366 57.904 6.366s1.504.164 3.499.355c0 .027-.014.054-.014.095 0 1.908 2.037 2.099 4.223 2.195 5.426.218 6.998-2.113 6.998-2.113 1.653-1.186 3.006-3.667 3.006-3.667s1.23 3.708 1.736 5.916c.724 3.149 1.981 2.767 1.981 2.767s.137-8.983 0-11.082z" fill="#FFBE9D"/><path d="M253.064 149.891c-.014.191-1.927.191-4.264 0s-4.223-.518-4.195-.709c.013-.191 1.927-.191 4.263 0 2.337.191 4.223.518 4.196.709zM254.677 147.37c0-.055.205-.123.533-.068.314.054.806.286 1.038.79.246.505.069 1.077-.191 1.309-.26.259-.506.245-.506.191-.027-.055.137-.15.274-.382.136-.218.205-.586.041-.94-.356-.723-1.217-.777-1.189-.9zM256.877 144.754c-.027-.123.888-.082 1.285.845.341.94-.301 1.595-.369 1.486-.096-.055.232-.655-.028-1.336-.259-.668-.915-.886-.888-.995z" fill="#EB996E"/><path d="M253.064 137.256l5.494-9.788c.792-.163 1.216.055 1.421.505l-5.275 9.828-1.64-.545zM246.805 149.184l-2.2 4.103v2.126l2.2-1.486 2.487-4.389-2.487-.354z" fill="#D5EAF3"/><path d="M177.503 20.216c-.028.027-.383-.314-.779-1.077-.397-.764-.793-2.004-.738-3.572.054-1.567.642-3.394 1.776-5.111 1.134-1.704 2.829-3.367 5.084-4.254 2.241-.886 4.742-.804 6.628.178 1.886.954 3.089 2.63 3.444 4.17.369 1.555.041 2.864-.328 3.64-.369.791-.751 1.118-.779 1.091-.054-.04.246-.409.52-1.2a5.663 5.663 0 0 0 .095-3.407c-.369-1.39-1.517-2.877-3.252-3.708-1.709-.859-4.005-.927-6.068-.11-2.091.819-3.704 2.359-4.797 3.967-1.121 1.609-1.708 3.313-1.831 4.785a7.73 7.73 0 0 0 .478 3.435c.314.75.588 1.145.547 1.173z" fill="#263238"/><path d="M214.839 62.226c.11-5.52.301-11.327.301-11.327s6.683-.914 8.2-10.142c1.448-8.806.41-29.294.41-29.294a23.583 23.583 0 0 0-27.893 5.684l-.137 44.875c-.014 5.207 4.168 9.474 9.389 9.556 5.289.095 9.635-4.09 9.73-9.352z" fill="#FFBE9D"/><path d="M221.508 26.444a1.127 1.127 0 0 1-1.093 1.159c-.615.013-1.121-.49-1.134-1.118a1.128 1.128 0 0 1 1.093-1.159c.615-.013 1.121.491 1.134 1.118zM223.34 25.19c-.137.15-.97-.546-2.173-.6-1.203-.068-2.091.559-2.214.395-.068-.068.082-.34.465-.627.382-.286 1.025-.545 1.776-.504.752.04 1.367.354 1.722.668.369.313.492.6.424.668zM208.47 26.444a1.127 1.127 0 0 1-1.093 1.159c-.615.013-1.121-.49-1.134-1.118a1.128 1.128 0 0 1 1.093-1.159c.615-.013 1.121.491 1.134 1.118z" fill="#263238"/><path d="M210.056 25.422c-.137.15-.97-.545-2.173-.6-1.203-.068-2.091.56-2.214.396-.068-.068.082-.341.465-.627.382-.287 1.025-.546 1.776-.505.752.041 1.367.355 1.722.668.369.314.492.6.424.668zM214.552 35.7c0-.068.738-.177 1.954-.3.301-.027.602-.068.656-.3.082-.231-.041-.586-.191-.981-.273-.804-.56-1.65-.861-2.522-1.203-3.599-2.064-6.543-1.927-6.598.137-.04 1.216 2.836 2.419 6.42.287.887.56 1.732.834 2.536.109.382.3.805.136 1.295-.082.246-.314.41-.505.464-.192.054-.369.054-.52.054-1.23.028-1.981 0-1.995-.068z" fill="#263238"/><path d="M215.154 50.886s-5.85.163-11.59-3.79c0 0 2.72 6.489 11.439 5.97l.151-2.18zM214.129 38.834a2.33 2.33 0 0 0-1.394-1.704c-.492-.205-1.08-.218-1.544.027-.465.245-.793.79-.711 1.309.096.586.656 1.022 1.244 1.145.587.122 1.188.013 1.776-.123.164-.041.328-.068.465-.164.136-.095.232-.259.191-.422" fill="#EB996E"/><path d="M211.149 35.66c.192 0 .178 1.39 1.271 2.412 1.094 1.036 2.488.94 2.501 1.131.014.082-.314.26-.902.246-.574 0-1.407-.232-2.077-.86-.67-.626-.957-1.458-.984-2.017-.041-.586.109-.927.191-.913zM201.05 10.756c2.993 5.371 11.22 11.137 17.192 12.65-.669-1.104-4.277-3.898-4.933-5.002 2.651 2.48 6.436 5.807 10.058 6.175.424.04.888.068 1.257-.164.492-.313.615-.968.684-1.54.314-2.44.314-6.652.054-9.092-.259-2.44-1.134-4.908-2.911-6.625-2.241-2.168-5.548-2.836-8.664-3.067-2.624-.191-5.33-.137-7.763.845-2.432.981-4.551 3.053-4.988 5.63" fill="#263238"/><path d="M203.045 11.859s2.651 10.523-4.1 17.42c0 0-.902 9.883-5.603 14.532 0 0-2.447-12.05-2.529-16.699-.082-4.648-2.173-21.756 13.202-19.752l-.97 4.499z" fill="#263238"/><path d="M192.495 19.342c1.243-2.726.615-6.134-1.34-8.41-1.954-2.277-5.111-3.38-8.104-3.095-2.993.287-5.781 1.909-7.708 4.199-1.503 1.786-2.528 4.062-2.446 6.393.109 3.135 2.31 6.025 5.193 7.293 2.884 1.281 6.3 1.05 9.17-.232 2.87-1.295 5.221-3.571 6.943-6.202" fill="#263238"/><path d="M181.876 11.915l-4.428-8.683V1.637l1.49.79 4.523 8.738-1.585.75zM185.005 11.123c-.041-.122 0-10.319 0-10.319s.205-.818.984-.736c.779.082.82.777.82.777v10.483l-1.804-.205z" fill="#0079C8"/><path opacity=".3" d="M185.005 11.123c-.041-.122 0-10.319 0-10.319s.205-.818.984-.736c.779.082.82.777.82.777v10.483l-1.804-.205z" fill="#000"/><path d="M185.47 11.177L185.443.749h.67v10.496l-.643-.068z" fill="#0079C8"/><path d="M185.005.79l1.804.042s-.082-.832-.82-.832c-.642 0-.861.423-.984.79zM177.448 3.23s.301.164.56.055c.246-.11.26-.45.26-.45s.465.136.642 0c.178-.136.041-.409.041-.409l-1.052-.559-.451.246V3.23z" fill="#D5EAF3"/><path d="M191.06 14.436c.027-.014.355.532.656 1.608a10.42 10.42 0 0 1 .095 4.744c-.396 1.977-1.612 4.28-3.799 5.916-2.132 1.65-5.33 2.536-8.391 1.677a9.725 9.725 0 0 1-4.018-2.154 8.994 8.994 0 0 1-2.378-3.503c-.984-2.55-.697-5.18.191-7.007.875-1.854 2.064-3.026 2.884-3.776.847-.736 1.38-1.05 1.407-1.022.041.041-.451.436-1.216 1.227-.752.79-1.845 1.99-2.61 3.776-.779 1.758-.998 4.198-.041 6.57.902 2.372 3.102 4.485 5.972 5.207 2.856.791 5.795 0 7.817-1.526 2.078-1.513 3.253-3.626 3.69-5.507.465-1.895.315-3.504.123-4.567-.218-1.063-.451-1.636-.382-1.663zM211.723 18.908c.096.014-.246.873-1.503 1.213-.601.164-1.394.15-2.159-.15-.766-.286-1.504-.79-2.187-1.376-1.38-1.2-2.269-2.617-2.733-3.694-.479-1.077-.574-1.813-.492-1.84.191-.096 1.066 2.726 3.69 4.989 1.257 1.158 2.706 1.785 3.772 1.567 1.093-.15 1.53-.79 1.612-.709z" fill="#263238"/><path d="M199.15 29.158c-.929-.205-1.899-.205-2.801.095-.889.314-1.695.94-2.091 1.8-.41.858-.397 1.867-.096 2.767.301.9.861 1.69 1.517 2.372.465.49 1.011.94 1.654 1.158.642.218 1.407.178 1.94-.245" fill="#FFBE9D"/><path d="M198.48 34.746c.11.041-.314.586-1.161.34-.41-.122-.793-.49-1.025-.94a4.273 4.273 0 0 1-.424-1.554c-.041-.572.109-1.186.437-1.622.315-.436.82-.681 1.244-.681.875 0 1.121.613 1.025.627-.068.068-.396-.246-.97-.137-.547.082-1.107.818-1.012 1.759.082.954.424 1.84.916 2.072.533.286.916.054.97.136z" fill="#EB996E"/><path d="M195.46 36.546c.096.068-.396.586-.424 1.554a2.032 2.032 0 0 0 .588 1.459c.41.436 1.066.695 1.736.518a1.679 1.679 0 0 0 1.257-1.268c.137-.586 0-1.159-.232-1.581-.479-.846-1.107-1.173-1.039-1.268.014-.068.765.068 1.462.995.342.463.588 1.186.438 1.977-.11.79-.793 1.622-1.722 1.826-.916.245-1.886-.15-2.392-.763a2.46 2.46 0 0 1-.601-1.936c.191-1.186.902-1.595.929-1.513z" fill="#0079C8"/><path d="M189.953 22.001c-.164.082-.984-1.935-.451-4.484.505-2.55 2.05-4.09 2.173-3.954.177.123-1.012 1.745-1.463 4.09-.505 2.345-.054 4.294-.259 4.348z" fill="#263238"/><path d="M212.516 158.262l1.531-1.554h37.829l1.189 1.745-40.549-.191z" fill="#D5EAF3"/><path d="M75.606 161.848l48.105 220.598h5.631L80.607 161.848h-5.001z" fill="#263238"/><path d="M124.969 161.848L75.606 382.446h4.837l48.899-220.598h-4.373z" fill="#263238"/><path d="M84.885 353.165h34.658v-4.471H86.375l-1.49 4.471zM361.548 161.848l48.106 221.238h5.617l-48.735-221.238h-4.988z" fill="#263238"/><path d="M410.898 161.848l-49.35 221.238h4.824l48.899-221.238h-4.373z" fill="#263238"/><path d="M370.814 353.723h34.672v-4.498h-33.182l-1.49 4.498zM365.184 100.765l-19.721 57.497h-89.324l.67-2.958 36.107-1.117 16.645-53.449 55.623.027z" fill="#263238"/><path d="M325.605 127.77c-.587 2.358.424 4.662 2.255 5.152 1.832.491 3.8-1.022 4.401-3.38.588-2.358-.424-4.662-2.255-5.153-1.845-.477-3.813 1.036-4.401 3.381zM329.514 140.119l1.845 4.784 18.272-8.765-1.735-4.784-18.382 8.765z" fill="#fff"/><path d="M330.949 140.554l1.203 2.645 16.14-7.511-.888-3.285-16.455 8.151z" fill="#D5EAF3"/><path d="M348.538 113.675a5.796 5.796 0 0 1-5.808 5.793 5.796 5.796 0 0 1-5.809-5.793 5.797 5.797 0 0 1 5.809-5.794c3.198.014 5.808 2.604 5.808 5.794z" fill="#fff"/><path d="M341.718 109.039c-2.049.505-3.566 2.577-3.498 4.676.068 2.099 1.64 4.049 3.662 4.635.916.272 1.955.272 2.816-.15.874-.423 1.503-1.241 1.94-2.113.588-1.172.889-2.536.588-3.803-.328-1.391-1.367-2.59-2.706-3.095-1.339-.504-2.925-.313-4.086.505" fill="#B3D59C"/><path d="M309.069 138.197l5.576-2.453 3.868 3.026-2.816 6.816-7.161-2.863.533-4.526z" fill="#fff"/><path d="M309.561 138.715l4.92-2.29 3.171 2.658-2.337 5.657-6.082-2.303.328-3.722z" fill="#B3D59C"/><path d="M438.764 158.262H48.424v3.762h390.34v-3.762z" fill="#263238"/><path d="M390.18 131.19c-4.25-4.43-6.833-10.401-7.161-16.521-.151-2.931.287-6.121 2.296-8.275 2.569-2.767 7.475-2.849 10.14-.19 2.72 2.726 2.747 7.102 2.064 10.877-1.025 5.617-3.868 9.774-7.079 14.504M396.425 131.135c1.039-4.443 3.731-8.492 7.435-11.177 1.776-1.295 3.949-2.304 6.109-1.936 2.774.477 4.824 3.503 4.236 6.243-.601 2.795-3.334 4.594-5.972 5.712-3.936 1.649-7.694 1.567-11.958 1.486" fill="#B3D59C"/><path d="M390.18 143.542c-.192 0-.233-5.725-.096-12.786.15-7.061.424-12.786.615-12.773.191 0 .232 5.726.096 12.787-.137 7.047-.424 12.772-.615 12.772z" fill="#263238"/><path d="M408.93 123.544c.055.081-.929.817-2.569 1.922-1.64 1.104-3.95 2.549-6.56 4.062a125.764 125.764 0 0 1-6.806 3.667c-1.777.872-2.897 1.349-2.952 1.267-.041-.095.998-.722 2.706-1.704 1.941-1.117 4.196-2.412 6.683-3.83 2.473-1.445 4.715-2.754 6.655-3.871 1.722-.995 2.788-1.595 2.843-1.513z" fill="#263238"/><path d="M377.907 141.442l25.912 1.295-2.57 15.703h-20.773l-2.569-16.998z" fill="#D5EAF3"/><path d="M390.494 138.211c-.055.177-2.515-.341-5.371-1.527-2.856-1.186-4.961-2.562-4.865-2.726.095-.177 2.323.913 5.138 2.072 2.816 1.172 5.153 1.99 5.098 2.181z" fill="#263238"/></svg>