<svg width="18" height="20" viewBox="0 0 18 20" fill="none" xmlns="http://www.w3.org/2000/svg">
<path d="M17.5385 18.5948H0.461538C0.206769 18.5948 0 18.8054 0 19.0649C0 19.3244 0.206769 19.535 0.461538 19.535H17.5385C17.7932 19.535 18 19.3244 18 19.0649C18 18.8054 17.7932 18.5948 17.5385 18.5948ZM8.67354 15.2446C8.76369 15.3364 8.88185 15.3821 9 15.3821C9.11815 15.3821 9.23631 15.3364 9.32646 15.2446L15.9622 8.48573C16.1425 8.30208 16.1425 8.00466 15.9622 7.82101C15.7818 7.63735 15.4898 7.63735 15.3095 7.82101L9.46154 13.7772V1.00514C9.46154 0.74564 9.25477 0.535034 9 0.535034C8.74523 0.535034 8.53846 0.74564 8.53846 1.00514V13.7775L2.69046 7.82101C2.51015 7.63735 2.21815 7.63735 2.03785 7.82101C1.85754 8.00466 1.85754 8.30208 2.03785 8.48573L8.67354 15.2446Z" fill="#00335b"/>
</svg>
