<svg width="30" height="30" fill="none" xmlns="http://www.w3.org/2000/svg"><path d="M.9 15.117v0c.001-.957.357-1.88.999-2.591a3.897 3.897 0 0 1 2.392-1.253A10.66 10.66 0 0 1 7.5 3.951 10.73 10.73 0 0 1 14.998.9a10.73 10.73 0 0 1 7.497 3.05 10.66 10.66 0 0 1 3.21 7.323 3.897 3.897 0 0 1 2.395 1.251c.642.712.999 1.635 1 2.593v3.721a3.874 3.874 0 0 1-.998 2.59 3.897 3.897 0 0 1-2.388 1.254v.517a4.826 4.826 0 0 1-1.42 3.412 4.857 4.857 0 0 1-3.423 1.415h0-2.384a2.362 2.362 0 0 1-1.98 1.073h0-3.013a2.376 2.376 0 0 1-1.72-.665 2.361 2.361 0 0 1-.533-2.616 2.36 2.36 0 0 1 1.326-1.28c.296-.115.61-.169.927-.159h3.022v.1a2.258 2.258 0 0 1 1.716.773 2.242 2.242 0 0 1 .539 1.702L.9 15.117zm0 0v3.721h0a3.874 3.874 0 0 0 1.14 2.74 3.9 3.9 0 0 0 2.749 1.137H6.63a.538.538 0 0 0 .537-.536V11.776a.535.535 0 0 0-.537-.536H5.373a9.59 9.59 0 0 1 2.89-6.557 9.653 9.653 0 0 1 6.741-2.742c2.52 0 4.941.985 6.742 2.742a9.59 9.59 0 0 1 2.89 6.557h-1.26a.538.538 0 0 0-.538.536v10.4a.535.535 0 0 0 .538.537h1.271v.486a3.753 3.753 0 0 1-1.104 2.654 3.778 3.778 0 0 1-2.663 1.101H18.87L.9 15.117zm3.889 6.526h1.304v-9.33H4.79c-.746 0-1.462.296-1.99.821a2.802 2.802 0 0 0-.824 1.983s0 0 0 0m2.814 6.526l-2.914-6.526h.1m2.814 6.526a2.82 2.82 0 0 1-1.99-.822 2.802 2.802 0 0 1-.824-1.983m2.814 2.805l-2.814-2.805m0-3.721v3.721m0-3.721v3.721m0 0h0m0 0h0m14.536 9.191h0-3.018v0h-.004a1.296 1.296 0 0 1-1.242-.783 1.285 1.285 0 0 1 .731-1.71c.163-.061.337-.09.51-.083H16.508v0h.004a1.298 1.298 0 0 1 1.242.783 1.285 1.285 0 0 1-.731 1.71c-.163.062-.337.09-.51.083zm11.514-9.19c0 .743-.297 1.456-.825 1.982a2.82 2.82 0 0 1-1.989.822h-1.304v-9.33h1.304a2.82 2.82 0 0 1 1.99.821c.527.526.823 1.24.824 1.983v3.721z" fill="#00335B" stroke="#fff" stroke-width=".2"/></svg>