<svg width="24" height="24" fill="none" xmlns="http://www.w3.org/2000/svg"><path d="M12 24C5.383 24 0 18.617 0 12S5.383 0 12 0s12 5.383 12 12-5.383 12-12 12zm0-23C5.935 1 1 5.935 1 12s4.935 11 11 11 11-4.935 11-11S18.065 1 12 1z" fill="#FF3E1D"/><path d="M16.854 16.854a.5.5 0 0 1-.707 0L12 12.707l-4.146 4.146a.5.5 0 1 1-.707-.707L11.293 12 7.147 7.854a.5.5 0 1 1 .707-.707L12 11.293l4.146-4.146a.498.498 0 0 1 .707 0 .5.5 0 0 1 0 .707L12.707 12l4.146 4.146a.5.5 0 0 1 0 .707z" fill="#FF3E1D"/></svg>