<svg width="24" height="23" fill="none" xmlns="http://www.w3.org/2000/svg"><path d="M11.85 5.59c-3.36 0-6.079 2.643-6.079 5.9 0 3.26 2.723 5.9 6.08 5.9 3.358 0 6.078-2.643 6.078-5.9 0-3.26-2.723-5.9-6.079-5.9zm0 9.729c-2.18 0-3.945-1.714-3.945-3.829S9.67 7.661 11.85 7.661c2.18 0 3.946 1.714 3.946 3.829s-1.765 3.829-3.946 3.829z" fill="#fff"/><path d="M16.73.072c-2.18-.098-7.578-.094-9.76 0C5.053.16 3.362.61 2 1.932-.28 4.142.011 7.122.011 11.492c0 4.471-.257 7.382 1.987 9.56 2.287 2.218 5.402 1.928 9.85 1.928 4.565 0 6.14.002 7.755-.604 2.194-.827 3.85-2.73 4.012-6.15.103-2.115.097-7.354 0-9.47C23.421 2.718 21.19.27 16.73.071zm3.45 19.516c-1.494 1.45-3.565 1.32-8.359 1.32-4.936 0-6.915.071-8.359-1.334C1.8 17.967 2.1 15.387 2.1 11.476c0-5.293-.56-9.105 4.914-9.377 1.257-.043 1.628-.057 4.793-.057l.045.029c5.26 0 9.387-.535 9.635 4.776.056 1.212.07 1.576.07 4.643-.002 4.735.09 6.667-1.377 8.098z" fill="#fff"/><path d="M18.17 6.737c.784 0 1.42-.617 1.42-1.378 0-.761-.636-1.379-1.42-1.379-.785 0-1.42.618-1.42 1.379s.635 1.378 1.42 1.378z" fill="#fff"/></svg>