<svg width="29" height="28" fill="none" xmlns="http://www.w3.org/2000/svg"><path d="M14.182 7.09c-4.014 0-7.263 3.156-7.263 7.048 0 3.896 3.253 7.05 7.263 7.05 4.014 0 7.264-3.158 7.264-7.05 0-3.895-3.253-7.049-7.264-7.049zm0 11.624c-2.605 0-4.714-2.048-4.714-4.576 0-2.527 2.11-4.575 4.714-4.575 2.605 0 4.715 2.048 4.715 4.575.001 2.528-2.11 4.576-4.715 4.576z" fill="#0079C8"/><path d="M20.014.495C17.409.377 10.958.383 8.35.495c-2.29.104-4.31.64-5.94 2.222C-.31 5.359.037 8.919.037 14.14c0 5.343-.307 8.82 2.374 11.423 2.733 2.651 6.455 2.304 11.77 2.304 5.455 0 7.338.004 9.266-.721 2.622-.988 4.602-3.262 4.795-7.348.123-2.529.116-8.788 0-11.318-.234-4.822-2.9-7.747-8.229-7.985zm4.122 23.32c-1.785 1.732-4.26 1.577-9.988 1.577-5.898 0-8.263.085-9.989-1.594-1.987-1.92-1.627-5.003-1.627-9.677 0-6.324-.67-10.879 5.871-11.204 1.503-.052 1.945-.069 5.728-.069l.053.035c6.286 0 11.218-.64 11.514 5.707.067 1.448.082 1.883.082 5.549 0 5.657.11 7.966-1.644 9.676z" fill="#0079C8"/><path d="M21.734 8.459c.937 0 1.697-.738 1.697-1.648 0-.91-.76-1.647-1.697-1.647-.938 0-1.698.738-1.698 1.647 0 .91.76 1.648 1.698 1.648z" fill="#0079C8"/></svg>