<svg width="58" height="73" viewBox="0 0 58 73" fill="none" xmlns="http://www.w3.org/2000/svg">
<path d="M3.36435 62.6484C4.18071 62.6484 4.80805 62.8217 5.23835 63.1642C5.67266 63.5067 5.8858 63.9862 5.8858 64.6027C5.8858 65.0217 5.80939 65.3843 5.6606 65.6825C5.51181 65.9847 5.29867 66.2345 5.02119 66.4279C4.74371 66.6254 4.41395 66.7664 4.03191 66.8591C3.64988 66.9518 3.2236 66.9961 2.76516 66.9961H1.6472L1.14049 69.9496C1.14049 69.9496 -0.150391 70.0342 0.0144883 69.0792C0.183389 68.1203 1.12843 62.6525 1.12843 62.6525H3.36435V62.6484ZM2.80939 65.9041C3.06677 65.9041 3.30805 65.884 3.52521 65.8477C3.74639 65.8074 3.93138 65.743 4.08419 65.6543C4.23701 65.5657 4.35765 65.4448 4.44612 65.2997C4.5346 65.1547 4.57481 64.9693 4.57481 64.7437C4.57481 64.5462 4.53862 64.3851 4.47025 64.2561C4.40189 64.1272 4.30135 64.0265 4.17669 63.9499C4.05202 63.8774 3.89921 63.825 3.72628 63.7928C3.54934 63.7605 3.36033 63.7444 3.15122 63.7444H2.21422L1.82816 65.9082H2.80939V65.9041Z" fill="white"/>
<path d="M13.7799 65.7506C13.9528 65.4565 14.1619 65.2187 14.3992 65.0414C14.6365 64.8642 14.922 64.7715 15.2598 64.7715C15.308 64.7715 15.3603 64.7755 15.4166 64.7755C15.4729 64.7795 15.5212 64.7876 15.5614 64.7997L15.3925 65.944C15.3161 65.9239 15.2477 65.9078 15.1874 65.9037C15.1271 65.8957 15.0708 65.8916 15.0145 65.8916C14.729 65.8916 14.4957 65.944 14.3147 66.0488C14.1338 66.1535 13.985 66.2784 13.8764 66.4275C13.7638 66.5726 13.6834 66.7257 13.6351 66.8788C13.5869 67.0319 13.5547 67.1568 13.5426 67.2455L13.0721 69.9411H11.8456L12.5493 65.9843C12.5775 65.8513 12.6056 65.6781 12.6378 65.4686C12.67 65.259 12.6901 65.0697 12.7062 64.9004C12.7062 64.9004 13.7638 64.7634 13.7638 65.7385H13.7799V65.7506Z" fill="white"/>
<path d="M23.7772 70.0821C23.4274 70.0821 23.1056 70.0297 22.8081 69.925C22.5105 69.8202 22.2531 69.6711 22.04 69.4737C21.8228 69.2763 21.6539 69.0466 21.5333 68.7807C21.4126 68.5147 21.3483 68.2166 21.3483 67.8902C21.3483 67.4792 21.4207 67.0843 21.5654 66.7096C21.7062 66.3349 21.9113 66.0045 22.1767 65.7184C22.4421 65.4323 22.7598 65.2026 23.1338 65.0294C23.5078 64.8561 23.926 64.7715 24.3845 64.7715C24.7383 64.7715 25.0681 64.8239 25.3657 64.9286C25.6633 65.0334 25.9207 65.1825 26.1338 65.3759C26.3509 65.5693 26.5198 65.799 26.6405 66.0689C26.7611 66.3389 26.8255 66.633 26.8255 66.9554C26.8255 67.3744 26.7531 67.7733 26.6123 68.1521C26.4716 68.5308 26.2665 68.8612 26.0011 69.1514C25.7357 69.4374 25.414 69.6671 25.0359 69.8323C24.6579 69.9975 24.2397 70.0821 23.7772 70.0821ZM25.5909 67.0843C25.5909 66.7056 25.4743 66.3913 25.245 66.1455C25.0158 65.8997 24.6981 65.7788 24.3 65.7788C24.0346 65.7788 23.7933 65.8312 23.5842 65.94C23.3711 66.0488 23.1901 66.1938 23.0413 66.3752C22.8925 66.5565 22.7759 66.77 22.6914 67.0078C22.607 67.2455 22.5668 67.4993 22.5668 67.7653C22.5668 68.144 22.6794 68.4583 22.9005 68.7041C23.1257 68.9499 23.4394 69.0708 23.8456 69.0708C24.111 69.0708 24.3523 69.0184 24.5694 68.9136C24.7866 68.8089 24.9676 68.6638 25.1204 68.4825C25.2692 68.3012 25.3858 68.0876 25.4703 67.8459C25.5467 67.6081 25.5909 67.3543 25.5909 67.0843Z" fill="white"/>
<path d="M31.1928 63.0108C31.1284 62.9906 31.0641 62.9705 30.9997 62.9584C30.9354 62.9463 30.855 62.9382 30.7625 62.9382C30.5936 62.9382 30.4528 62.9745 30.3322 63.043C30.2156 63.1155 30.119 63.2042 30.0426 63.317C29.9703 63.4298 29.9099 63.5547 29.8657 63.6877C29.8215 63.8247 29.7853 63.9577 29.7652 64.0826L29.6204 64.9126H30.8027C30.8027 64.9126 30.6579 65.8998 29.4636 65.8998C29.4636 65.8998 29.0333 68.3335 28.8925 69.1434C28.7316 70.0863 27.5574 69.9493 27.5574 69.9493L28.2692 65.8998H27.3161L27.485 64.9126H28.418L28.5627 64.147C28.611 63.869 28.6874 63.591 28.788 63.3251C28.8885 63.0551 29.0292 62.8133 29.2062 62.5998C29.3831 62.3862 29.6043 62.213 29.8697 62.084C30.1351 61.9551 30.4568 61.8906 30.8349 61.8906C31.0802 61.8906 31.2853 61.9148 31.4542 61.9631L31.1928 63.0108Z" fill="white"/>
<path d="M7.71153 70.058C8.70081 70.058 9.23164 69.6188 9.55738 69.1191L9.54129 69.1957C9.4488 69.6631 9.83888 69.9532 10.2048 69.9532H10.5225L11.4072 64.9085H10.3134L10.1686 65.6781C9.97159 65.2792 9.4126 64.8037 8.5118 64.8037C6.91931 64.8037 5.97427 66.1213 5.81743 67.5195C5.62842 69.1191 6.66193 70.058 7.71153 70.058ZM8.66462 65.6217C10.5024 65.7224 9.90322 69.24 8.03727 69.1393C6.34826 69.0426 6.87105 65.525 8.66462 65.6217Z" fill="white"/>
<path d="M18.0708 65.9722H19.2048L19.3858 64.9528H18.2477L18.3563 64.2396C18.4287 63.7238 18.0788 63.4619 17.5399 63.4619H17.2665L17.0131 64.9528H16.1324L15.9515 65.9722H16.8402L16.426 68.2608C16.4059 68.3575 16.3898 68.4663 16.3778 68.5832C16.3657 68.7 16.3617 68.8088 16.3617 68.9055C16.3617 69.2601 16.4622 69.5422 16.6874 69.7598C16.7759 69.8444 17.0614 70.0861 17.8295 70.0821C17.9501 70.0821 18.2397 70.07 18.6016 69.9451L18.674 69.0022C18.6016 69.0224 18.5292 69.0345 18.4448 69.0466C18.3643 69.0586 18.2799 69.0627 18.1954 69.0627C18.0105 69.0627 17.8657 69.0264 17.7571 68.9579C17.6485 68.8894 17.5922 68.7605 17.5922 68.5792C17.5922 68.4865 17.6043 68.3898 17.6244 68.285L18.0708 65.9722Z" fill="white"/>
<path d="M53.1861 70.0542C54.2075 70.0542 54.7585 69.6029 55.0922 69.0831L55.0721 69.1597C54.9756 69.6473 55.3778 69.9414 55.7558 69.9414H56.0855L56.9984 64.7274H55.8644L55.7156 65.5212C55.5105 65.1102 54.9354 64.6187 54.0024 64.6187C52.3577 64.6187 51.3804 65.9765 51.2156 67.4271C51.0306 69.0872 52.0963 70.0542 53.1861 70.0542ZM54.1673 65.4729C56.0654 65.5776 55.4461 69.2121 53.5199 69.1033C51.7745 69.0066 52.3134 65.3681 54.1673 65.4729Z" fill="white"/>
<path d="M38.5561 64.381C38.5561 63.2005 37.8 62.6525 36.473 62.6525C35.6566 62.6525 34.3738 62.6484 33.9032 62.6484L32.6083 69.9415C32.7692 69.9415 34.1687 69.9415 34.9609 69.9415C35.4998 69.9415 36.0105 69.9254 36.296 69.8609C37.615 69.5829 38.1499 68.6199 38.2585 67.9148C38.4032 66.9397 37.792 66.2909 37.0923 66.1378C37.6191 66.025 38.5561 65.4851 38.5561 64.381ZM35.7973 69.047C35.6486 69.0833 35.4153 69.1034 34.9207 69.1034H34.0641L34.4984 66.6576H35.7652C37.4421 66.6576 37.2893 68.6763 35.7973 69.047ZM36.296 65.7228C36.1351 65.7752 35.922 65.7913 35.5279 65.7913H34.6512L35.0614 63.4583H36.2075C37.5869 63.4583 37.4783 65.332 36.296 65.7228Z" fill="white"/>
<path d="M43.5547 64.7354H43.2169C43.2169 64.7354 42.7183 67.6002 42.662 67.9266C42.5413 68.6277 42.2035 69.1072 41.2545 69.1072C40.7156 69.1072 40.1888 68.7808 40.3134 68.0515C40.3617 67.7694 40.7196 65.6863 40.7478 65.5211C40.8483 64.957 40.3697 64.7394 39.9756 64.7394H39.6781C39.6057 65.1745 39.2759 67.0039 39.1512 67.7211C39.099 68.0112 39.0829 68.3013 39.103 68.4907C39.2156 69.4617 40.0681 70.0581 41.1217 70.0581C42.9435 70.0581 43.6271 69.1072 43.8443 67.9749C43.9167 67.6002 44.2585 65.7145 44.2866 65.5211C44.3671 64.957 43.9046 64.7354 43.5547 64.7354Z" fill="white"/>
<path d="M45.4287 72.0005L45.9555 69.1276C46.1606 69.5386 46.7477 70.0584 47.6767 70.0584C49.3577 70.0584 50.3952 68.7448 50.4998 67.2056C50.6124 65.5697 49.6512 64.6309 48.5413 64.6309C47.5762 64.6309 46.9207 65.1023 46.5869 65.5898L46.603 65.5213C46.7075 65.0177 46.2813 64.7397 45.9193 64.7397H45.5574C45.5574 64.7397 44.5802 70.3485 44.4434 71.0254C44.2866 71.8192 44.93 72.0045 45.1311 72.0045H45.4287V72.0005ZM48.1633 65.5657C49.9086 65.6624 49.3657 69.3129 47.5118 69.2082C45.6177 69.1034 46.237 65.4569 48.1633 65.5657Z" fill="white"/>
<path fill-rule="evenodd" clip-rule="evenodd" d="M0.00244141 0H57.0024V57.1074H0.00244141V0ZM49.5065 33.3027C50.0615 33.4922 50.9984 33.5322 51.6821 33.5322C52.0681 33.5322 52.4864 33.52 52.6392 33.5244L52.3456 35.1118C52.2169 35.1196 51.7786 35.1357 51.3644 35.1357C50.725 35.1357 49.8081 35.0918 49.1003 34.8984C48.0306 34.604 47.0775 34.0317 46.5065 33.6167L46.4 33.541L46.3951 33.5381C46.3328 33.4932 46.2764 33.4526 46.225 33.4194C45.6901 33.0527 45.3161 33.0527 44.9864 33.4033C44.7722 33.6338 44.0455 34.7148 43.3967 35.6807L43.3698 35.7202C43.1003 36.1152 42.851 36.4897 42.6539 36.7759C42.2639 37.3442 41.7169 37.7148 41.2585 37.7148C40.8644 37.7148 40.5467 37.4487 40.3376 36.9453C39.9595 36.0303 39.7102 27.1538 39.6218 22.1011V22.0811C39.6218 21.9683 39.5534 21.9155 39.4931 21.9155C39.4247 21.9155 39.3644 21.9722 39.3443 22.0605C39.3403 22.0728 39.3161 22.1855 39.2679 22.3911L38.8632 24.1387C37.5676 29.7358 35.3158 39.4639 34.9046 40.7651C34.5628 41.853 33.9595 42.5581 33.3644 42.5581C32.9743 42.5581 32.6365 42.2358 32.4073 41.6592C31.9167 40.4146 31.5306 38.5488 31.2733 37.3643L31.2423 37.2192C31.1793 36.9214 31.1248 36.6646 31.0762 36.4736C30.9676 36.0186 30.8309 35.7119 30.5333 35.7119C30.3162 35.7119 30.0467 35.8735 29.6566 36.1553C28.8885 36.7075 27.5977 37.5093 26.2102 37.5093H12.6218L12.9395 35.7925H25.8483C27.1608 35.7925 27.9557 35.1104 28.6569 34.5083L28.6674 34.4995C28.9127 34.2856 29.1459 34.0845 29.3872 33.9233C30.481 33.1938 31.3859 33.2461 31.9971 34.1123C32.5319 34.874 32.8054 36.2559 33.1191 37.856C33.1419 37.9712 33.165 38.0913 33.1883 38.2144L33.2269 38.418L33.2285 38.4268C33.2957 38.7822 33.3657 39.1528 33.4408 39.4956C33.4566 39.5649 33.5024 39.6001 33.5489 39.6011C33.5663 39.6016 33.5837 39.5972 33.5997 39.5884C33.6279 39.5723 33.6516 39.5415 33.662 39.4956C34.7115 34.3057 37.1606 24.0918 38.3068 19.498C38.7612 17.6929 39.481 17.0522 39.9595 17.0522C40.5588 17.0522 40.9891 17.9106 41.0815 19.2969C41.2906 22.4233 41.5883 32.9038 41.6124 34.8218C41.6124 34.8701 41.6164 35.0151 41.729 35.0151C41.7377 35.0151 41.7458 35.0142 41.7536 35.0122C41.7604 35.0107 41.7668 35.0088 41.7729 35.0059C41.7812 35.002 41.7889 34.9971 41.7962 34.9917C41.8188 34.9751 41.8373 34.9521 41.8544 34.9307L41.8577 34.9263C42.3161 34.2373 43.4582 32.561 44.174 31.8237C44.7009 31.2759 45.1392 31.0303 45.5856 31.0303C45.9194 31.0303 46.2692 31.1631 46.6874 31.4409C47.0142 31.6606 47.3188 31.895 47.6155 32.1221L47.6566 32.1543C48.2679 32.6299 48.851 33.0771 49.5065 33.3027ZM10.2089 19.8408C11.3952 19.8408 12.3041 20.0903 12.9314 20.5859C13.5588 21.0815 13.8724 21.7788 13.8724 22.6733C13.8724 23.2817 13.7639 23.8057 13.5467 24.2407C13.3295 24.6797 13.0199 25.0386 12.6177 25.3203C12.2156 25.6064 11.7371 25.812 11.1821 25.9448C10.9888 25.9907 10.7892 26.0288 10.5833 26.0586C10.1936 26.1152 9.78101 26.1426 9.3443 26.1426H7.7196L6.98773 30.4297C6.98773 30.4297 5.10968 30.5547 5.35498 29.1646C5.41602 28.8188 5.547 28.0679 5.70929 27.1348L6.20959 24.2544L6.97565 19.8364H10.2089V19.8408ZM9.40057 24.563C9.7746 24.563 10.1245 24.5347 10.4421 24.4785C10.7639 24.4219 11.0333 24.3291 11.2545 24.1963C11.4797 24.0674 11.6526 23.894 11.7773 23.6807C11.8516 23.5571 11.9031 23.4165 11.9334 23.2563C11.9555 23.1396 11.9662 23.0122 11.9662 22.8745C11.9662 22.5889 11.918 22.355 11.8135 22.1655C11.7129 21.9761 11.5721 21.8311 11.3872 21.7222L11.335 21.6934C11.3099 21.6797 11.2841 21.667 11.2576 21.6548C11.2009 21.6284 11.1412 21.6045 11.0786 21.583C11.0295 21.5659 10.9786 21.5503 10.9261 21.5361C10.8647 21.52 10.8012 21.5054 10.7357 21.4927C10.4824 21.4482 10.2009 21.4243 9.89923 21.4243H8.53192L7.96893 24.563H9.40057ZM27.296 8.82422C26.9502 9.08203 26.6526 9.4248 26.3992 9.85205V9.84766H26.3751C26.3751 8.43359 24.8389 8.63086 24.8389 8.63086C24.829 8.74951 24.8152 8.87744 24.7985 9.01221C24.7812 9.15186 24.7609 9.29932 24.7384 9.45312C24.6942 9.75928 24.6499 10.0088 24.6097 10.2026L23.5923 15.9443H25.3698L26.0534 12.0278C26.0735 11.8945 26.1177 11.7173 26.1901 11.4917C26.2625 11.27 26.3751 11.0527 26.54 10.8389C26.7009 10.6255 26.914 10.4443 27.1794 10.291C27.4408 10.1377 27.7826 10.0615 28.1968 10.0615C28.2773 10.0615 28.3617 10.0693 28.4462 10.0776C28.5346 10.0854 28.6312 10.1055 28.7438 10.1377L28.985 8.47803C28.9247 8.46191 28.8524 8.4458 28.7719 8.44141C28.6915 8.4375 28.611 8.43359 28.5427 8.43359C28.0561 8.43359 27.6418 8.56641 27.296 8.82422ZM17.6365 16.1016C19.0762 16.1016 19.8442 15.4648 20.3148 14.7397L20.2906 14.8481C20.1539 15.5293 20.7209 15.9482 21.2558 15.9482H21.7183L23.0051 8.62305H21.4127L21.1995 9.73926C20.9139 9.16309 20.1016 8.46973 18.7906 8.46973C16.4783 8.46973 15.107 10.3799 14.8777 12.4146C14.6124 14.7437 16.1124 16.1016 17.6365 16.1016ZM19.0159 9.6665C21.6821 9.81592 20.8134 14.9209 18.103 14.772C15.6539 14.6309 16.418 9.52148 19.0159 9.6665ZM23.7491 22.8662H24.2397C24.7464 22.8662 25.418 23.1846 25.3014 23.9985C25.2612 24.2769 24.7625 27.0205 24.658 27.5605C24.3402 29.2046 23.3469 30.5864 20.7048 30.5864C19.1767 30.5864 17.9381 29.7241 17.7772 28.314C17.7451 28.0361 17.7732 27.6128 17.8456 27.1938C17.924 26.7422 18.0581 25.9883 18.1935 25.2271C18.3708 24.2305 18.5504 23.2212 18.6097 22.8623H19.044C19.6191 22.8623 20.3107 23.1807 20.166 23.9985C20.1257 24.2402 19.603 27.2622 19.5346 27.6733C19.3577 28.7329 20.1218 29.2085 20.9019 29.2085C22.2812 29.2085 22.7678 28.5156 22.9448 27.4961L23.273 25.603L23.7491 22.8662ZM29.3107 23.8174C30.1356 23.8174 30.4895 24.0186 30.7869 24.1875C30.8592 24.2285 30.9282 24.2676 30.9998 24.3013C31.0358 24.2383 31.1468 24.0298 31.2672 23.8032L31.2873 23.7651L31.4997 23.3662L31.6151 23.1528C31.4502 23.0195 30.7303 22.6289 29.4756 22.6289H29.4515C27.3644 22.6289 26.363 23.9946 26.363 25.0425C26.363 26.2559 27.3082 26.6836 28.1382 27.0591C28.788 27.353 29.3671 27.6152 29.3671 28.1973C29.3671 28.854 28.6955 29.2974 27.7906 29.2974C27.0145 29.2974 26.3912 28.9307 25.9408 28.6406C25.8644 28.7856 25.4542 29.5312 25.3174 29.7568C25.6512 29.9902 26.4716 30.5225 27.8871 30.5225C29.6968 30.5225 31.0923 29.3379 31.0923 28.02C31.0923 26.7412 30.0966 26.27 29.244 25.8667C28.6059 25.5649 28.048 25.3008 28.048 24.7646C28.048 24.269 28.6271 23.8174 29.3107 23.8174ZM15.8268 19.9414H16.2531C16.9327 19.9414 17.4475 20.437 17.3349 21.0977L15.6499 30.4536H13.9327L15.8268 19.9414ZM36.481 12.4951H30.4489C30.4287 13.1558 30.6097 13.6997 30.9998 14.127C31.3858 14.5542 31.9368 14.7676 32.6606 14.7676C33.3805 14.7676 34.1848 14.6147 35.0695 14.3081L35.2826 15.5454C34.3496 15.9121 33.4127 16.0972 32.4797 16.0972C31.3939 16.0972 30.5333 15.771 29.9059 15.1221C29.2947 14.5015 28.9891 13.7041 28.9891 12.7246C28.9891 11.4917 29.4153 10.4121 30.2598 9.48096C31.1083 8.55029 32.1418 8.08301 33.3604 8.08301C34.3456 8.08301 35.1218 8.40527 35.6928 9.0542C36.2598 9.70264 36.5453 10.5571 36.5453 11.6289C36.5424 11.7305 36.5385 11.8335 36.5327 11.9375C36.5225 12.1211 36.5067 12.3076 36.481 12.4951ZM35.0615 11.2861C35.0534 10.7988 34.8885 10.3755 34.5748 10.021C34.2169 9.62207 33.7504 9.42871 33.1754 9.42871C32.5842 9.42871 32.0574 9.62598 31.5909 10.021C31.1767 10.3755 30.8871 10.7988 30.7384 11.2861H35.0615ZM10.8201 6.8623C6.80676 7.11572 5.85767 14.8926 10.3657 14.6064C11.1258 14.5581 12.095 14.0908 12.6097 13.6475L14.3751 14.522C13.3939 15.4927 11.9662 16.2222 9.96356 16.2222C7.40594 16.2222 5.49573 14.8643 5.3349 11.6289C5.16602 8.3125 7.92065 5.25439 11.3309 5.25439C12.9636 5.25439 14.3188 5.85498 15.1955 6.94678L13.5226 8.03857C13.0601 7.32129 11.9502 6.78955 10.8201 6.8623Z" fill="white"/>
</svg>
