<svg width="164" height="55" fill="none" xmlns="http://www.w3.org/2000/svg"><path fill-rule="evenodd" clip-rule="evenodd" d="M44.828 9.374c-1.44.738-1.87 1.28-1.87 1.28l3.213 11.064.392-12.414c.062-.214.143-.34.433-.376l.26-.148-.422-.325c0-.003-.564.181-2.006.919z" fill="#B3D59C"/><path fill-rule="evenodd" clip-rule="evenodd" d="M62.648 5.962c-6.869-.624-15.198 1.217-19.041 4.142 2.27-1.372 7.97-2.147 13.859-1.955a.603.603 0 0 1 .517.542l2.853 12.591L64.324 9.46a.596.596 0 0 1 .704-.45l.044.007c4.02.886 5.894 2.291 4.379 3.593h.015c3.146-3.062.172-6.02-6.818-6.647z" fill="#B3D59C"/><path fill-rule="evenodd" clip-rule="evenodd" d="M50.638 14.384c-1.54 0-2.799-1.262-2.799-2.819a2.812 2.812 0 0 1 2.799-2.81 2.812 2.812 0 0 1 2.798 2.81c0 1.557-1.262 2.819-2.798 2.819zM67.108 11.086c-1.54 0-2.798-1.262-2.798-2.819a2.812 2.812 0 0 1 2.798-2.81 2.81 2.81 0 0 1 2.798 2.81c0 1.557-1.258 2.819-2.798 2.819z" fill="#077"/><path fill-rule="evenodd" clip-rule="evenodd" d="M61.387 5.688c-1.54 0-2.799-1.261-2.799-2.818 0-1.55 1.258-2.818 2.799-2.818 1.547 0 2.798 1.269 2.798 2.818a2.804 2.804 0 0 1-2.798 2.818zM45.243 7.555c-1.54 0-2.799-1.262-2.799-2.818 0-1.55 1.258-2.819 2.799-2.819 1.547 0 2.798 1.27 2.798 2.819a2.807 2.807 0 0 1-2.798 2.818z" fill="#B3D59C"/><path fill-rule="evenodd" clip-rule="evenodd" d="M43.06 10.55c-.084.086-.212.167-.267.252.084-.082.168-.163.26-.244l.007-.007zm25.984 2.354l.088.015c-2.839 2.446-8.806 4.213-14.692 4.556a.595.595 0 0 0-.546.513l-3.308 11.196-3.128-11.783a.604.604 0 0 0-.462-.365s-.052-.015-.118-.037c-4.922-1.073-6.708-3.59-4.078-6.194-1.133 1.638 2.773 3.335 9.345 3.925 6.901.624 14.306-.188 16.899-1.826z" fill="#077"/><path fill-rule="evenodd" clip-rule="evenodd" d="M64.695 15.383l.113-.033c.213-.051.367.162.433.376l-.744 9.083 5.365-12.639s-1.053 1.288-4.892 2.712l-.275.501zM48.767 50.101c.084-.004.165-.004.25-.004h5.78c.194 0 .388-.01.579-.01.22 0 .432.029.586.206.235.266.136.634.074.944-.077.362-.15.723-.228 1.089-.07.339-.11.83-.403 1.047-.172.13-.363.144-.569.137-.205-.004-.407-.015-.616-.015h-8.299c-.224 0-.451.011-.675.007-.234-.003-.462-.04-.62-.232-.238-.291-.106-.712-.036-1.044 1.133-5.43 2.263-10.86 3.4-16.29.084-.4.16-.93.502-1.189.216-.162.473-.188.73-.192.315-.003.638.015.957.015h7.91c.28 0 .602-.063.804.188.205.251.08.55.025.823-.099.468-.198.933-.293 1.402-.059.28-.077.627-.308.823-.231.195-.561.147-.847.147h-5.226c-.235 0-.473-.007-.708-.011-.044 0-.143-.004-.213.004-.051.147-.117.523-.14.63-.227 1.089-.45 2.18-.685 3.269l-.03.114c.147 0 .29-.003.437-.003h4.867c.19 0 .381-.011.568-.008.22.004.425.04.576.222.23.287.08.704.015 1.029-.077.365-.15.73-.224 1.096-.063.302-.096.686-.356.889-.268.21-.73.132-1.056.132h-4.907c-.176 0-.348-.007-.524-.014-.026 0-.055-.004-.088-.004-.037.148-.07.365-.092.461-.3 1.417-.602 2.83-.895 4.246-.004.03-.015.063-.022.096zm-6.711-5.545c1.742-.922 3.036-2.497 3.454-4.485.29-1.38.129-2.885-.843-3.966-1.306-1.446-3.425-1.668-5.252-1.668-1.122 0-2.248.037-3.363.192-.275.04-.557.063-.829.11-.23.038-.45.097-.63.26-.202.183-.28.434-.338.693-.077.343-.132.697-.205 1.044L30.848 52l-.04.221c-.059.329-.22.771.014 1.055.147.178.349.21.565.214.18 0 .36-.01.536-.01h1.29c.312 0 .72.062.976-.148.242-.203.264-.576.327-.867l1.283-6.146c.018-.092.044-.266.073-.395.11 0 .239.008.32.008h1.184c.532 0 1.17.077 1.54.512.433.513.463 1.49.47 2.125.007.915.025 1.83.084 2.745.022.35.044.697.096 1.044.05.332.08.756.37.974.271.203.686.136 1.005.136h1.346c.201 0 .4.008.601.008.231-.004.451-.045.583-.266.121-.203.07-.391-.003-.59a2.704 2.704 0 0 1-.121-.417c-.081-.41-.096-.845-.122-1.262-.062-1.003-.08-2.01-.099-3.017-.025-1.185-.26-2.48-1.07-3.369zM25.32 47.991c-.062-.004-.135 0-.176 0-.23.004-.462.011-.697.011h-3.373c-.114 0-.679-.026-.785.007-.081.074-.316.546-.367.639l-2.145 3.995c-.147.276-.308.62-.602.76-.231.107-.51.074-.76.074-.513 0-1.026.003-1.536.003-.176 0-.352.011-.528.015-.23.004-.458-.03-.598-.247-.216-.343.092-.742.257-1.04l9.004-16.461c.102-.188.19-.376.286-.565.084-.17.176-.324.333-.438.294-.21.748-.17 1.09-.17.304.004.608.004.91.004.303.003.615-.012.92 0 .256.01.502.047.7.225.316.28.33.863.381 1.258.664 5.16 1.343 10.322 2 15.486.04.314.095.62.135.934.037.265.048.538-.136.756-.282.332-.891.258-1.287.258-.297 0-.59-.015-.884-.015-.23 0-.466.011-.697.004-.22-.007-.425-.04-.597-.192-.276-.243-.28-.727-.33-1.07-.155-1.106-.283-2.22-.422-3.327-.033-.24-.052-.48-.077-.72 0-.04-.008-.118-.019-.184zm-13.11 5.069c.322-.115.722-.244.887-.572.136-.273.066-.62.051-.915l-.033-.694c-.018-.368.015-.903-.326-1.132-.238-.159-.499-.1-.748-.022-.279.088-.55.184-.833.265a9.93 9.93 0 0 1-2.655.358c-1.4 0-2.9-.328-3.81-1.486-1.002-1.273-.95-3.103-.635-4.608.807-3.855 3.484-6.585 7.522-6.585.814 0 1.705.1 2.468.398.312.122.671.332 1.012.255.418-.096.635-.572.814-.922l.356-.705c.158-.313.426-.671.349-1.037-.092-.439-.58-.63-.947-.778-1.11-.446-2.545-.59-3.733-.59-5.824 0-10.481 4.054-11.673 9.739-.554 2.634-.393 5.545 1.562 7.577 1.53 1.587 3.715 2.162 5.853 2.162 1.456-.004 3.14-.207 4.518-.708zM36.54 42.734l1.041-4.97c.528-.084 1.093-.091 1.618-.088.73.004 1.793.111 2.31.701.396.454.374 1.096.26 1.65-.388 1.851-2.108 2.71-3.865 2.71H36.54v-.003zm-11.52 2.014l-.531-4.165c-.018-.155-.04-.31-.055-.465-.121.237-.242.473-.37.705l-2.142 3.929h3.099v-.004z" fill="#077"/><path fill-rule="evenodd" clip-rule="evenodd" d="M62.44 46.822c-.008.044-.015.088-.026.125l-.166.79-1.074 5.12c-.059.284-.073.642-.312.837-.238.192-.59.133-.88.133h-1.621c-.323 0-.744.063-.964-.229-.224-.298-.026-.745.044-1.077l3.351-15.988c.063-.303.11-.602.166-.908.044-.236.102-.468.286-.642.176-.166.396-.214.623-.243.275-.037.554-.056.829-.089a29.248 29.248 0 0 1 3.502-.203c1.79 0 3.906.325 5.179 1.716 1.096 1.199 1.269 2.84.946 4.379-.349 1.652-1.119 3.102-2.399 4.205-1.72 1.483-4.041 2.129-6.275 2.129-.322 0-.649-.004-.971-.026a5.222 5.222 0 0 1-.239-.03zm12.692 3.574c.015-.055.026-.11.037-.151l3.036-14.476c.063-.31.235-.697.022-.977-.212-.277-.587-.218-.89-.218h-1.74c-.282 0-.619-.055-.85.14-.231.196-.238.55-.3.83-1.105 5.264-2.209 10.525-3.312 15.79-.089.416-.199.833-.28 1.25-.062.313-.102.656.107.926.18.225.451.284.719.306.304.022.627.007.931.007 2.718-.014 5.436 0 8.15 0 .319 0 .748.07 1.015-.129.246-.18.29-.498.352-.778.1-.476.202-.956.301-1.435.063-.295.198-.646-.026-.908-.223-.265-.616-.18-.927-.18h-6.08c-.082 0-.173 0-.265.003zm14.16-14.306l-2.076 9.898c-.077.361-.14.73-.176 1.1-.095.91-.088 2.135.499 2.891.454.583 1.155.753 1.86.753 2.93 0 4.202-2.505 4.737-5.058.686-3.276 1.376-6.548 2.062-9.824.04-.195.073-.395.11-.594.04-.199.098-.38.256-.516.275-.236.774-.166 1.115-.166h1.181c.194 0 .392-.011.587-.011.224 0 .436.033.587.217.15.185.139.402.095.62-.04.188-.088.377-.128.568l-2.069 9.861c-.994 4.74-3.917 8.282-9.007 8.282-5.296 0-6.403-3.97-5.457-8.492l2.068-9.861c.07-.336.103-.83.385-1.055.165-.13.352-.148.55-.148.199.004.393.015.591.015h1.078c.206 0 .411-.007.613-.007.227.003.443.044.594.236.154.195.132.424.084.653-.037.218-.095.424-.14.638zM99.93 49.906a3.903 3.903 0 0 1-.415-.28c-.168-.126-.326-.233-.553-.193-.235.04-.367.21-.47.406-.095.18-.18.37-.275.55l-.546 1.073c-.143.284-.374.616-.294.945.088.358.484.535.77.7 1.167.672 2.909 1.004 4.24 1.004 1.936 0 3.865-.494 5.42-1.693 1.302-1.004 2.219-2.416 2.557-4.036.253-1.21.198-2.42-.451-3.497-.745-1.247-2.102-2.014-3.393-2.564-.693-.292-2.013-.86-2.314-1.605-.121-.302-.095-.653-.026-.963.11-.531.451-1.014.866-1.35.645-.52 1.467-.708 2.274-.708.752 0 1.525.136 2.218.439.18.077.331.166.492.273.176.118.337.225.565.195.374-.048.553-.468.718-.767l.668-1.225c.154-.28.389-.601.293-.937-.102-.369-.553-.524-.865-.675-1.082-.527-2.421-.704-3.613-.704-3.348 0-6.715 1.944-7.441 5.415-.656 3.125 1.438 4.825 4.053 5.88.649.262 1.529.639 1.932 1.247.287.436.298.926.195 1.424-.36 1.708-1.988 2.428-3.587 2.428-1.019-.008-2.127-.27-3.018-.782zm-36.791-6.42c.315.03.638.034.95.034 2.163 0 4-.923 4.474-3.188.128-.612.15-1.316-.286-1.818-.547-.627-1.632-.745-2.406-.745-.503 0-1.042.003-1.552.077l-1.18 5.64z" fill="#B3D59C"/><path fill-rule="evenodd" clip-rule="evenodd" d="M63.748 28.048h47.214v1.372H63.524l.224-1.372zM48.356 28.048l.466 1.376H4.516v-1.376h43.84z" fill="#077"/><path d="M164 13.229h-40.084v40.373H164V13.23z" fill="#0079C8"/><path fill-rule="evenodd" clip-rule="evenodd" d="M148.381 26.967c.187 0 .271.192.345.483.036.14.077.34.124.565.162.752.407 1.94.715 2.73.143.365.36.568.605.568.375 0 .76-.447.976-1.136.29-.923 2.024-8.5 2.758-11.673.029-.129.048-.203.048-.21.011-.055.047-.092.091-.092.037 0 .081.033.085.103v.011c.055 3.21.216 8.85.451 9.43.128.32.33.49.579.49.29 0 .635-.236.884-.598.125-.18.282-.42.451-.671.414-.62.884-1.324 1.023-1.472.209-.221.444-.221.785.011l.176.125c.36.262.965.624 1.639.812.452.126 1.027.148 1.431.148.26 0 .539-.011.62-.015l.187-1.01c-.099.003-.364.014-.609.014-.433 0-1.023-.026-1.376-.148-.414-.143-.781-.428-1.169-.726a12.071 12.071 0 0 0-.613-.454c-.264-.177-.484-.258-.693-.258-.282 0-.557.154-.895.501-.451.469-1.177 1.535-1.463 1.97-.018.03-.044.06-.081.06-.069 0-.073-.093-.073-.126-.015-1.221-.206-7.876-.338-9.865-.058-.878-.33-1.424-.707-1.424-.305 0-.76.406-1.042 1.553-.726 2.918-2.27 9.407-2.934 12.706-.018.092-.121.088-.139 0-.074-.34-.14-.72-.202-1.04-.198-1.019-.37-1.893-.711-2.377-.385-.55-.958-.582-1.651-.121-.154.103-.3.229-.454.365-.444.387-.947.823-1.783.823h-8.16l-.201 1.088h8.585c.876 0 1.691-.51 2.178-.86.253-.177.422-.28.558-.28zM128.955 22.824c-.132.033-.342.052-.782.052h-.762l.385-2.192h1.133c1.492-.003 1.357 1.808.026 2.14zm-.653-5.01h1.023c1.229 0 1.129 1.679.077 2.03-.143.047-.334.062-.682.062h-.781l.363-2.092zm1.808 2.406c.469-.104 1.305-.587 1.305-1.58 0-1.058-.674-1.549-1.859-1.549h-2.288l-1.156 6.537h2.098c.48 0 .935-.014 1.192-.07 1.177-.25 1.654-1.11 1.749-1.745.132-.878-.418-1.457-1.041-1.593zM133.704 23.728c1.624 0 2.233-.852 2.428-1.87.062-.336.374-2.03.396-2.2.069-.505-.341-.7-.653-.7h-.301l-.495 2.859c-.11.627-.407 1.059-1.254 1.059-.481 0-.95-.295-.84-.948l.389-2.27c.091-.505-.338-.7-.69-.7h-.268c-.066.391-.359 2.033-.469 2.675a2.843 2.843 0 0 0-.044.693c.099.87.862 1.402 1.801 1.402zM139.406 22.968c-1.69-.096-1.14-3.36.58-3.265 1.555.085 1.071 3.357-.58 3.265zm.914-4.102c-.862 0-1.449.42-1.746.86l.011-.063c.095-.45-.286-.701-.613-.701h-.322s-.873 5.028-.994 5.633c-.143.712.433.878.612.878h.264l.47-2.575c.183.369.704.834 1.536.834 1.5 0 2.425-1.177 2.52-2.557.11-1.468-.745-2.31-1.738-2.31z" fill="#fff"/><path fill-rule="evenodd" clip-rule="evenodd" d="M144.757 22.876c-1.555-.089-1.071-3.346.58-3.258 1.69.096 1.14 3.354-.58 3.258zm2.098-3.922l-.136.712c-.183-.369-.697-.808-1.529-.808-1.467 0-2.34 1.218-2.483 2.516-.169 1.483.785 2.354 1.753 2.354.913 0 1.401-.406 1.698-.87l-.015.07c-.084.435.275.7.613.7h.293l.814-4.674h-1.008z" fill="#fff"/><path fill-rule="evenodd" clip-rule="evenodd" d="M124.018 6.522h1.353l.503-1.877h1.17c1.679 0 2.989-.875 2.989-2.417 0-.538-.158-.955-.474-1.273-.447-.45-1.056-.627-1.932-.627h-1.951l-1.658 6.194zm2.171-3.069l.503-1.893h.88c.403 0 .66.089.843.273a.71.71 0 0 1 .202.513c0 .701-.605 1.107-1.504 1.107h-.924zm5.035 3.158c-.817 0-1.371-.531-1.371-1.273 0-1.1.887-1.708 2.028-1.708.51 0 .931.089 1.328.214l.018-.063c.026-.107.051-.214.051-.354 0-.328-.227-.557-.887-.557-.459 0-.913.114-1.258.258l-.209-1.062a4.55 4.55 0 0 1 1.749-.336c1.265 0 1.907.531 1.907 1.461 0 .247-.044.476-.106.716l-.693 2.619h-1.291l.139-.55c-.374.406-.851.635-1.405.635zm.573-.919c.553 0 1.037-.442 1.184-.955l.037-.126a2.547 2.547 0 0 0-.88-.17c-.554 0-.958.285-.958.746.004.291.239.505.617.505zm3.139.83h1.335l.447-1.682c.327-1.232 1.012-1.745 1.9-1.745h.07l.377-1.41c-.773-.062-1.316.348-1.793 1.045l.253-.956h-1.335l-1.254 4.748zm5.395.081c.359 0 .704-.07.964-.195l.308-1.144a1.8 1.8 0 0 1-.686.152c-.245 0-.359-.107-.359-.285 0-.051.018-.14.037-.213l.528-1.993h1.107l.308-1.15h-1.107l.326-1.214h-1.335l-.33 1.217h-.561l-.308 1.151h.561l-.572 2.15a2.523 2.523 0 0 0-.088.595c.004.524.4.93 1.207.93zm7.232.026c1.511 0 2.725-1.328 2.725-2.744 0-1.266-.87-2.195-2.267-2.195-1.511 0-2.725 1.328-2.725 2.744 0 1.266.869 2.195 2.267 2.195zm.062-1.15c-.605 0-1.019-.392-1.019-1.082 0-.671.535-1.556 1.353-1.556.605 0 1.019.39 1.019 1.08 0 .672-.535 1.557-1.353 1.557zm3.235 1.043h1.335l.964-3.593h1.108l.308-1.15h-1.133l.036-.134c.096-.346.308-.512.66-.512.184 0 .404.044.58.114l.289-1.114c-.22-.081-.535-.133-.913-.133-.983 0-1.635.469-1.907 1.524l-.062.258h-.554l-.308 1.15h.565l-.968 3.59z" fill="#0079C8"/><path fill-rule="evenodd" clip-rule="evenodd" d="M64.174 27.93h46.704v1.358H63.95l.224-1.358zM48.947 27.93l.462 1.358H5.58V27.93h43.367z" fill="#077"/></svg>