<svg width="164" height="54" fill="none" xmlns="http://www.w3.org/2000/svg"><path fill-rule="evenodd" clip-rule="evenodd" d="M44.73 9.355c-1.439.736-1.867 1.277-1.867 1.277l3.206 11.041.391-12.388c.062-.214.143-.339.432-.376l.26-.147-.421-.324c0-.004-.564.18-2.002.917z" fill="#fff"/><path fill-rule="evenodd" clip-rule="evenodd" d="M62.51 5.95c-6.854-.623-15.164 1.214-19 4.134 2.266-1.37 7.952-2.143 13.829-1.952.27.037.49.258.516.542l2.847 12.565 3.48-11.8a.595.595 0 0 1 .702-.449l.044.008c4.01.883 5.88 2.286 4.369 3.585h.014c3.14-3.055.172-6.008-6.802-6.634z" fill="#fff"/><path fill-rule="evenodd" clip-rule="evenodd" d="M50.522 14.354c-1.537 0-2.792-1.259-2.792-2.813a2.806 2.806 0 0 1 2.792-2.805 2.806 2.806 0 0 1 2.792 2.805c0 1.554-1.255 2.813-2.792 2.813zM66.959 11.063c-1.537 0-2.792-1.26-2.792-2.813a2.806 2.806 0 0 1 2.792-2.805A2.804 2.804 0 0 1 69.75 8.25c0 1.554-1.255 2.813-2.792 2.813zM61.25 5.677c-1.536 0-2.791-1.26-2.791-2.813 0-1.546 1.255-2.812 2.791-2.812 1.545 0 2.792 1.266 2.792 2.812a2.799 2.799 0 0 1-2.792 2.813zM45.143 7.54c-1.537 0-2.792-1.26-2.792-2.813 0-1.546 1.255-2.813 2.792-2.813 1.544 0 2.792 1.267 2.792 2.813a2.803 2.803 0 0 1-2.792 2.813z" fill="#fff"/><path fill-rule="evenodd" clip-rule="evenodd" d="M68.891 12.878c-.124.077-.26.155-.406.232h-.004c-1.273.648-3.333 1.148-5.81 1.454h-.004a44.88 44.88 0 0 1-3.418.283c-2.316.11-4.8.07-7.227-.15-2.246-.203-4.178-.534-5.704-.947-1.255-.342-2.236-.74-2.887-1.167-.871-.567-1.157-1.189-.732-1.804-2.17 2.15-1.325 4.238 1.807 5.504.513.21 1.084.394 1.716.549.18.048.363.092.55.132.062.022.117.037.117.037.204.03.38.173.46.365l3.122 11.758 3.3-11.177a.597.597 0 0 1 .55-.511 37.142 37.142 0 0 0 5.356-.7c.871-.173 1.716-.38 2.532-.611a26.63 26.63 0 0 0 2.35-.78c1.81-.689 3.344-1.525 4.424-2.452l-.092-.015zm-26.192-2.099c.055-.051.11-.106.168-.158a.784.784 0 0 0-.168.158z" fill="#fff"/><path fill-rule="evenodd" clip-rule="evenodd" d="M64.551 15.352l.114-.033c.212-.052.365.162.431.375l-.743 9.064 5.354-12.613s-1.05 1.285-4.881 2.706l-.275.5zM16.59 35.585c-.091-.438-.578-.63-.944-.78-1.108-.446-2.536-.59-3.725-.59-5.807 0-10.454 4.05-11.643 9.72-.553 2.628-.395 5.533 1.559 7.562 1.526 1.583 3.706 2.157 5.84 2.157 1.452 0 3.132-.202 4.508-.703.322-.114.72-.243.885-.57.136-.273.066-.62.051-.914l-.032-.688c-.019-.368.014-.902-.326-1.13-.238-.159-.498-.1-.75-.023-.278.089-.55.185-.83.266a9.733 9.733 0 0 1-2.646.357c-1.398 0-2.895-.324-3.802-1.484-1-1.27-.952-3.1-.637-4.598.809-3.847 3.48-6.572 7.509-6.572.808 0 1.698.1 2.462.394.308.122.67.335 1.006.258.418-.1.637-.57.813-.924l.355-.703c.157-.313.42-.67.347-1.035zm13.122 16.788c-.04-.313-.095-.619-.135-.931-.655-5.155-1.332-10.305-1.995-15.455-.05-.398-.065-.976-.38-1.256-.198-.177-.443-.213-.699-.224-.3-.011-.611 0-.915 0-.303-.004-.607-.004-.91-.004-.341 0-.795-.04-1.088.17-.157.113-.248.264-.333.437-.095.188-.183.376-.285.564-2.993 5.474-5.986 10.952-8.983 16.426-.165.299-.469.696-.256 1.039.139.217.362.25.596.246.176-.003.348-.014.523-.014.513 0 1.025-.004 1.537-.004.249 0 .523.037.758-.074.292-.14.45-.482.596-.758.717-1.33 1.43-2.658 2.144-3.987.052-.092.286-.563.366-.637.103-.03.67-.007.783-.007H24.4c.234 0 .465-.008.695-.012.04 0 .11-.003.176 0 .007.063.015.14.018.185.026.239.048.478.077.718.143 1.108.27 2.216.425 3.32.047.346.054.825.329 1.072.168.15.377.184.593.187.23.008.468-.003.698-.003.293 0 .586.014.882.014.396 0 1.003.074 1.285-.257.183-.218.172-.494.135-.755zm-7.838-7.716l2.137-3.921a25.7 25.7 0 0 0 .37-.703l.055.467.534 4.157h-3.096zm22.694-8.622c-1.302-1.447-3.417-1.665-5.243-1.665-1.12 0-2.243.037-3.352.192-.274.04-.556.063-.83.11-.231.037-.45.096-.63.258-.201.184-.278.434-.337.692-.077.346-.131.696-.205 1.042l-3.194 15.234-.04.22c-.059.328-.22.77.014 1.054.147.177.348.213.564.213.175 0 .355-.01.534-.01h1.288c.311 0 .717.062.974-.148.241-.199.263-.57.325-.865l1.28-6.134c.02-.092.041-.26.074-.393.106 0 .238.007.315.007h1.182c.53 0 1.167.08 1.533.515.435.512.465 1.484.472 2.12.007.914.022 1.827.084 2.74.022.346.044.696.095 1.042.051.331.08.758.37.975.27.203.684.137 1.006.137h1.343c.198 0 .399.007.6.007.23-.004.45-.044.582-.265.12-.203.07-.39-.004-.59a2.441 2.441 0 0 1-.117-.415c-.08-.409-.095-.843-.12-1.26-.063-1-.081-2.006-.103-3.01-.022-1.194-.256-2.486-1.065-3.373 1.742-.917 3.03-2.492 3.447-4.477.289-1.373.128-2.879-.842-3.953zm-2.89 3.906c-.388 1.848-2.108 2.705-3.857 2.705H36.46l1.039-4.962c.527-.081 1.094-.092 1.617-.089.728.004 1.786.11 2.302.7.395.449.377 1.093.26 1.645zm17.088-5.254c-.205-.25-.523-.188-.801-.188h-7.897c-.318 0-.637-.018-.951-.014-.26.003-.516.029-.728.191-.344.258-.421.788-.506 1.185-1.134 5.416-2.265 10.835-3.392 16.258-.069.328-.204.75.037 1.042.161.191.384.228.619.232.223.003.45-.008.673-.008h8.28c.209 0 .41.011.615.015.205.004.395-.011.567-.136.293-.221.33-.71.403-1.05.077-.36.15-.721.227-1.082.062-.309.164-.68-.073-.946-.158-.173-.366-.206-.586-.206-.194 0-.384.011-.578.011h-5.767c-.08 0-.165.004-.245.004.007-.033.015-.063.018-.089.293-1.413.597-2.823.893-4.237.022-.1.055-.313.092-.46.033 0 .065.003.087.003.176.008.348.015.524.015h4.896c.325 0 .786.074 1.057-.132.26-.203.293-.586.355-.888.073-.364.15-.729.223-1.093.07-.324.22-.744-.01-1.027-.15-.184-.356-.221-.575-.221-.19-.004-.38.007-.571.007h-4.856c-.142 0-.289.004-.435.004.01-.044.022-.085.03-.114.233-1.086.456-2.176.683-3.262.019-.107.084-.482.136-.63.07-.007.168-.003.212-.003.234 0 .468.01.706.01h5.215c.285 0 .61.045.845-.15.23-.195.249-.541.307-.821.095-.468.198-.931.293-1.399.058-.272.18-.57-.022-.821zM112.029 35.596c-.103-.368-.553-.522-.864-.677-1.083-.523-2.415-.703-3.604-.703-3.341 0-6.7 1.94-7.425 5.404-.655 3.119 1.438 4.816 4.044 5.872.647.262 1.526.637 1.928 1.24.285.435.296.925.19 1.422-.358 1.708-1.979 2.422-3.575 2.422-1.021 0-2.122-.261-3.015-.773a3.896 3.896 0 0 1-.413-.28c-.169-.125-.33-.232-.553-.191-.234.037-.362.206-.468.405-.095.177-.18.364-.275.548l-.545 1.072c-.143.283-.373.61-.293.942.088.357.483.534.772.7 1.16.673 2.899 1.001 4.23 1.001 1.932 0 3.857-.493 5.409-1.69a6.893 6.893 0 0 0 2.55-4.027c.253-1.208.194-2.415-.45-3.494-.743-1.24-2.097-2.01-3.385-2.555-.691-.294-2.009-.861-2.309-1.605-.12-.302-.095-.648-.029-.96.114-.531.45-1.01.867-1.348.641-.516 1.46-.707 2.269-.707.75 0 1.522.136 2.214.438.175.077.329.166.49.272.176.118.337.225.564.196.373-.052.556-.468.717-.766l.666-1.222c.153-.28.388-.6.293-.936zm-12.215-.883c-.153-.188-.366-.221-.589-.221-.194.004-.388.015-.582.015h-1.178c-.34 0-.838-.074-1.112.162-.161.136-.22.316-.26.515-.037.199-.066.398-.11.593-.684 3.269-1.368 6.538-2.056 9.804-.535 2.547-1.8 5.047-4.728 5.047-.703 0-1.401-.166-1.855-.751-.586-.755-.593-1.977-.498-2.886.04-.369.103-.737.18-1.097l2.07-9.878c.044-.213.1-.42.147-.633.047-.228.07-.453-.084-.652-.15-.191-.366-.228-.593-.232-.201-.003-.406.004-.611.004h-1.076c-.198 0-.391-.011-.589-.015-.201-.003-.388.019-.553.148-.281.22-.314.717-.384 1.049l-2.063 9.84c-.948 4.517.157 8.475 5.444 8.475 5.08 0 7.992-3.534 8.984-8.265l2.063-9.84c.04-.188.088-.376.128-.567.044-.218.055-.431-.095-.615zM82.228 50.47c-.223-.265-.614-.18-.925-.18h-6.064c-.091 0-.183 0-.274.003.014-.055.03-.107.036-.151l3.03-14.446c.066-.31.238-.696.022-.976-.212-.276-.585-.213-.889-.213H75.43c-.282 0-.619-.056-.85.14-.23.191-.24.548-.3.824-1.1 5.254-2.198 10.507-3.3 15.76-.088.417-.198.833-.278 1.249-.062.309-.102.655.106.92.18.225.45.284.72.306.305.022.623.007.927.007 2.711-.015 5.423 0 8.134 0 .315 0 .746.07 1.014-.129.241-.184.289-.497.347-.78.103-.475.201-.954.304-1.429.058-.294.194-.644-.026-.905zM71.225 36.086c-1.273-1.388-3.384-1.712-5.17-1.712a29.18 29.18 0 0 0-3.495.203c-.274.033-.552.051-.827.088-.226.03-.446.077-.622.243-.183.173-.241.401-.285.64-.055.302-.103.604-.165.902l-3.348 15.96c-.07.331-.263.777-.044 1.075.22.29.64.228.962.228h1.621c.286 0 .637.063.879-.133.238-.191.252-.552.31-.832.356-1.704.714-3.409 1.073-5.11.051-.265.11-.526.165-.791l.021-.125c.081.01.162.026.242.03.322.021.644.029.97.029 2.228 0 4.544-.645 6.26-2.128 1.278-1.1 2.05-2.548 2.394-4.197.325-1.535.153-3.174-.94-4.37zm-2.81 4.164c-.476 2.26-2.309 3.184-4.468 3.184-.31 0-.63-.007-.948-.037l1.182-5.628c.509-.07 1.043-.078 1.548-.078.772 0 1.855.122 2.4.747.432.497.414 1.204.286 1.812zM63.607 27.99h47.104v1.37H63.384l.223-1.37zM48.25 27.99l.464 1.37H4.508v-1.37h43.741z" fill="#fff"/><path d="M123.273 12.834v41.022H164V12.834h-40.727zm7.586 8.931c-.095.633-.571 1.491-1.746 1.741-.252.056-.709.074-1.189.074h-2.089l1.149-6.527h2.287c1.178 0 1.855.493 1.855 1.546 0 .99-.838 1.476-1.306 1.576.622.14 1.171.717 1.039 1.59zm2.667 1.068c.842 0 1.142-.431 1.252-1.057.047-.294.494-2.857.494-2.857h.3c.311 0 .721.199.651.7-.022.173-.329 1.863-.395 2.198-.194 1.012-.801 1.862-2.422 1.862-.937 0-1.695-.53-1.797-1.399-.018-.169 0-.434.044-.692.11-.64.402-2.279.468-2.669h.267c.352 0 .776.199.688.7-.029.15-.347 2.014-.388 2.268-.109.651.359.946.838.946zm6.484-4.01c.988 0 1.841.844 1.742 2.305-.095 1.377-1.017 2.551-2.51 2.551-.831 0-1.354-.467-1.537-.832l-.468 2.57h-.264c-.183 0-.753-.166-.611-.876.117-.6.988-5.622.988-5.622h.322c.322 0 .703.25.608.7l-.011.062c.296-.434.882-.858 1.741-.858zm21.798 7.698a15.52 15.52 0 0 1-.622.015c-.402 0-.977-.026-1.427-.147a5.311 5.311 0 0 1-1.636-.814 15.613 15.613 0 0 0-.175-.125c-.337-.232-.575-.232-.783-.01-.136.15-.604.85-1.018 1.472-.168.25-.325.486-.45.67-.249.36-.593.596-.882.596-.248 0-.45-.17-.578-.49-.238-.578-.395-6.206-.453-9.41v-.01c0-.074-.044-.107-.085-.107-.04 0-.076.037-.091.092 0 .007-.018.08-.048.21-.732 3.166-2.462 10.728-2.751 11.648-.216.692-.597 1.137-.974 1.137-.245 0-.457-.202-.603-.57-.308-.784-.553-1.97-.714-2.72-.048-.229-.088-.424-.124-.564-.07-.29-.154-.482-.344-.482-.136 0-.304.103-.553.28-.483.35-1.295.857-2.173.857h-8.567l.198-1.086h8.145c.831 0 1.332-.438 1.775-.82.157-.137.304-.262.457-.365.688-.464 1.263-.427 1.647.121.337.483.509 1.359.706 2.371.062.324.128.703.202 1.042.018.088.12.088.142 0 .663-3.291 2.203-9.767 2.928-12.679.281-1.145.735-1.554 1.039-1.554.38 0 .651.549.706 1.425.132 1.98.322 8.626.337 9.845 0 .029.003.121.073.121.036 0 .062-.03.08-.059.286-.434 1.007-1.498 1.46-1.966.333-.346.608-.5.889-.5.213 0 .432.08.696.257.216.147.417.302.611.453.388.298.75.585 1.167.725.351.122.94.148 1.372.148.245 0 .509-.008.604-.015l-.183 1.008zm-17.666-2.845c-.97 0-1.918-.865-1.753-2.345.146-1.296 1.013-2.511 2.477-2.511.831 0 1.343.438 1.526.806l.135-.71h1.007l-.813 4.664h-.292c-.337 0-.696-.269-.611-.703l.014-.07c-.296.464-.783.869-1.69.869z" fill="#fff"/><path fill-rule="evenodd" clip-rule="evenodd" d="M129.109 19.803c-.142.047-.333.058-.68.058h-.78l.366-2.083h1.021c1.222 0 1.127 1.675.073 2.025zM128.667 22.777c-.128.034-.341.052-.776.052h-.761l.38-2.19h1.131c1.489 0 1.354 1.807.026 2.138zM139.095 22.92c-1.69-.095-1.138-3.353.578-3.257 1.552.084 1.069 3.35-.578 3.258zM144.434 22.829c-1.552-.088-1.069-3.343.578-3.25 1.691.095 1.138 3.346-.578 3.25zM153.794 1.13c.183 0 .403.044.578.114l.289-1.111c-.219-.081-.534-.133-.911-.133-.98 0-1.632.468-1.903 1.52l-.062.254h-.552l-.308 1.15h.564l-.966 3.585h1.332l.966-3.586h1.105l.307-1.149h-1.13l.033-.132c.098-.342.307-.512.658-.512zm-6.103.556c-1.508 0-2.719 1.325-2.719 2.74 0 1.262.871 2.19 2.265 2.19 1.508 0 2.715-1.326 2.715-2.74 0-1.262-.867-2.19-2.261-2.19zm-.396 3.781c-.603 0-1.017-.387-1.017-1.079 0-.67.534-1.553 1.35-1.553.608 0 1.018.39 1.018 1.078 0 .67-.535 1.554-1.351 1.554zm-6.487-2.544h1.105l.307-1.149h-1.105l.326-1.207h-1.336l-.322 1.207h-.563l-.308 1.15h.564l-.571 2.145a2.513 2.513 0 0 0-.088.593c0 .52.395.928 1.2.928.363 0 .703-.07.966-.195l.308-1.138c-.22.096-.476.147-.684.147-.246 0-.359-.103-.359-.28a1 1 0 0 1 .033-.213l.527-1.988zm-3.842-.195l.256-.954h-1.332l-1.255 4.735h1.332l.446-1.679c.326-1.226 1.01-1.738 1.896-1.738h.069l.377-1.406c-.772-.062-1.314.346-1.789 1.042zm-4.585-1.005c-.666 0-1.263.132-1.746.335l.213 1.06a3.42 3.42 0 0 1 1.251-.257c.659 0 .886.231.886.555 0 .144-.026.25-.052.354l-.018.062a4.367 4.367 0 0 0-1.325-.21c-1.138 0-2.023.608-2.023 1.705 0 .74.552 1.27 1.368 1.27.553 0 1.025-.228 1.402-.633l-.139.545h1.288l.691-2.614c.063-.24.107-.468.107-.714 0-.928-.641-1.458-1.903-1.458zm.307 3.004c-.15.512-.629.954-1.182.954-.38 0-.615-.214-.615-.505 0-.46.403-.743.956-.743.325 0 .647.08.878.169l-.037.125zM129.267.954c-.447-.45-1.05-.626-1.929-.626h-1.946l-1.647 6.18h1.35l.498-1.87h1.167c1.676 0 2.982-.876 2.982-2.41 0-.542-.157-.958-.475-1.274zm-2.437 2.492h-.919l.498-1.892h.878c.403 0 .659.088.842.276.132.132.201.309.201.511 0 .696-.604 1.105-1.5 1.105zM64.031 27.873h46.6v1.354H63.808l.223-1.354zM48.839 27.873l.46 1.354H5.566v-1.354H48.84z" fill="#fff"/></svg>