<svg width="58" height="73" viewBox="0 0 58 73" fill="none" xmlns="http://www.w3.org/2000/svg">
<path d="M1.5 56.6076V0.5H57.5V56.6076H1.5Z" stroke="white"/>
<path d="M4.36197 62.6479C5.17833 62.6479 5.80567 62.8212 6.23597 63.1637C6.67028 63.5062 6.88342 63.9857 6.88342 64.6022C6.88342 65.0212 6.80701 65.3839 6.65822 65.682C6.50943 65.9842 6.29629 66.234 6.01881 66.4275C5.74133 66.6249 5.41157 66.7659 5.02953 66.8586C4.6475 66.9513 4.22122 66.9956 3.76278 66.9956H2.64482L2.13811 69.9491C2.13811 69.9491 0.847229 70.0337 1.01211 69.0788C1.18101 68.1198 2.12605 62.652 2.12605 62.652H4.36197V62.6479ZM3.80701 65.9036C4.06439 65.9036 4.30567 65.8835 4.52283 65.8472C4.74401 65.8069 4.929 65.7425 5.08181 65.6538C5.23463 65.5652 5.35527 65.4443 5.44374 65.2992C5.53221 65.1542 5.57243 64.9688 5.57243 64.7432C5.57243 64.5458 5.53624 64.3846 5.46787 64.2557C5.39951 64.1267 5.29897 64.026 5.17431 63.9494C5.04964 63.8769 4.89683 63.8245 4.7239 63.7923C4.54696 63.76 4.35795 63.7439 4.14884 63.7439H3.21184L2.82578 65.9077H3.80701V65.9036Z" fill="white"/>
<path d="M14.7776 65.7506C14.9505 65.4565 15.1596 65.2187 15.3969 65.0414C15.6341 64.8642 15.9197 64.7715 16.2575 64.7715C16.3057 64.7715 16.358 64.7755 16.4143 64.7755C16.4706 64.7795 16.5189 64.7876 16.5591 64.7997L16.3902 65.944C16.3138 65.9239 16.2454 65.9078 16.1851 65.9037C16.1248 65.8957 16.0685 65.8916 16.0122 65.8916C15.7266 65.8916 15.4934 65.944 15.3124 66.0488C15.1315 66.1535 14.9827 66.2784 14.8741 66.4275C14.7615 66.5726 14.6811 66.7257 14.6328 66.8788C14.5845 67.0319 14.5524 67.1568 14.5403 67.2455L14.0698 69.9411H12.8433L13.547 65.9843C13.5752 65.8513 13.6033 65.6781 13.6355 65.4686C13.6677 65.259 13.6878 65.0697 13.7039 64.9004C13.7039 64.9004 14.7615 64.7634 14.7615 65.7385H14.7776V65.7506Z" fill="white"/>
<path d="M24.7748 70.0821C24.4249 70.0821 24.1032 70.0297 23.8056 69.925C23.508 69.8202 23.2507 69.6711 23.0375 69.4737C22.8204 69.2763 22.6515 69.0466 22.5308 68.7807C22.4102 68.5147 22.3458 68.2166 22.3458 67.8902C22.3458 67.4792 22.4182 67.0843 22.563 66.7096C22.7037 66.3349 22.9088 66.0045 23.1742 65.7184C23.4397 65.4323 23.7574 65.2026 24.1313 65.0294C24.5053 64.8561 24.9236 64.7715 25.382 64.7715C25.7359 64.7715 26.0657 64.8239 26.3633 64.9286C26.6608 65.0334 26.9182 65.1825 27.1313 65.3759C27.3485 65.5693 27.5174 65.799 27.638 66.0689C27.7587 66.3389 27.823 66.633 27.823 66.9554C27.823 67.3744 27.7507 67.7733 27.6099 68.1521C27.4691 68.5308 27.2641 68.8612 26.9986 69.1514C26.7332 69.4374 26.4115 69.6671 26.0335 69.8323C25.6555 69.9975 25.2372 70.0821 24.7748 70.0821ZM26.5885 67.0843C26.5885 66.7056 26.4718 66.3913 26.2426 66.1455C26.0134 65.8997 25.6957 65.7788 25.2976 65.7788C25.0322 65.7788 24.7909 65.8312 24.5817 65.94C24.3686 66.0488 24.1876 66.1938 24.0389 66.3752C23.8901 66.5565 23.7734 66.77 23.689 67.0078C23.6045 67.2455 23.5643 67.4993 23.5643 67.7653C23.5643 68.144 23.6769 68.4583 23.8981 68.7041C24.1233 68.9499 24.437 69.0708 24.8431 69.0708C25.1086 69.0708 25.3498 69.0184 25.567 68.9136C25.7842 68.8089 25.9651 68.6638 26.1179 68.4825C26.2667 68.3012 26.3834 68.0876 26.4678 67.8459C26.5442 67.6081 26.5885 67.3543 26.5885 67.0843Z" fill="white"/>
<path d="M32.1904 63.0105C32.1261 62.9904 32.0617 62.9702 31.9974 62.9581C31.933 62.9461 31.8526 62.938 31.7601 62.938C31.5912 62.938 31.4504 62.9743 31.3298 63.0428C31.2132 63.1153 31.1167 63.2039 31.0403 63.3168C30.9679 63.4296 30.9076 63.5545 30.8633 63.6875C30.8191 63.8245 30.7829 63.9574 30.7628 64.0823L30.618 64.9124H31.8003C31.8003 64.9124 31.6555 65.8996 30.4612 65.8996C30.4612 65.8996 30.0309 68.3333 29.8901 69.1432C29.7293 70.086 28.555 69.949 28.555 69.949L29.2668 65.8996H28.3137L28.4826 64.9124H29.4156L29.5604 64.1468C29.6086 63.8688 29.685 63.5908 29.7856 63.3248C29.8861 63.0549 30.0269 62.8131 30.2038 62.5995C30.3807 62.386 30.6019 62.2127 30.8673 62.0838C31.1328 61.9548 31.4545 61.8904 31.8325 61.8904C32.0778 61.8904 32.2829 61.9146 32.4518 61.9629L32.1904 63.0105Z" fill="white"/>
<path d="M8.70921 70.0577C9.69849 70.0577 10.2293 69.6185 10.5551 69.1189L10.539 69.1954C10.4465 69.6628 10.8366 69.9529 11.2025 69.9529H11.5202L12.4049 64.9082H11.3111L11.1663 65.6778C10.9693 65.2789 10.4103 64.8035 9.50948 64.8035C7.91699 64.8035 6.97195 66.1211 6.81511 67.5192C6.6261 69.1189 7.65961 70.0577 8.70921 70.0577ZM9.6623 65.6214C11.5001 65.7222 10.9009 69.2398 9.03495 69.139C7.34594 69.0423 7.86873 65.5247 9.6623 65.6214Z" fill="white"/>
<path d="M19.0684 65.9722H20.2024L20.3834 64.9528H19.2453L19.3539 64.2396C19.4263 63.7238 19.0764 63.4619 18.5376 63.4619H18.2641L18.0108 64.9528H17.1301L16.9491 65.9722H17.8378L17.4236 68.2608C17.4035 68.3575 17.3874 68.4663 17.3754 68.5832C17.3633 68.7 17.3593 68.8088 17.3593 68.9055C17.3593 69.2601 17.4598 69.5422 17.685 69.7598C17.7735 69.8444 18.059 70.0861 18.8271 70.0821C18.9478 70.0821 19.2373 70.07 19.5992 69.9451L19.6716 69.0022C19.5992 69.0224 19.5268 69.0345 19.4424 69.0466C19.362 69.0586 19.2775 69.0627 19.1931 69.0627C19.0081 69.0627 18.8633 69.0264 18.7547 68.9579C18.6461 68.8894 18.5898 68.7605 18.5898 68.5792C18.5898 68.4865 18.6019 68.3898 18.622 68.285L19.0684 65.9722Z" fill="white"/>
<path d="M54.1837 70.0537C55.2051 70.0537 55.7561 69.6024 56.0899 69.0827L56.0698 69.1592C55.9732 69.6468 56.3754 69.9409 56.7534 69.9409H57.0832L57.996 64.727H56.862L56.7132 65.5207C56.5081 65.1097 55.933 64.6182 55.0001 64.6182C53.3553 64.6182 52.3781 65.976 52.2132 67.4266C52.0282 69.0867 53.0939 70.0537 54.1837 70.0537ZM55.1649 65.4724C57.0631 65.5771 56.4438 69.2116 54.5175 69.1028C52.7722 69.0061 53.311 65.3676 55.1649 65.4724Z" fill="white"/>
<path d="M39.5537 64.3806C39.5537 63.2 38.7976 62.652 37.4706 62.652C36.6542 62.652 35.3714 62.6479 34.9009 62.6479L33.606 69.941C33.7668 69.941 35.1663 69.941 35.9585 69.941C36.4974 69.941 37.0081 69.9249 37.2936 69.8604C38.6127 69.5824 39.1475 68.6194 39.2561 67.9143C39.4009 66.9392 38.7896 66.2905 38.0899 66.1373C38.6167 66.0245 39.5537 65.4846 39.5537 64.3806ZM36.795 69.0465C36.6462 69.0828 36.4129 69.1029 35.9183 69.1029H35.0617L35.496 66.6571H36.7628C38.4397 66.6571 38.2869 68.6758 36.795 69.0465ZM37.2936 65.7223C37.1328 65.7747 36.9196 65.7908 36.5255 65.7908H35.6489L36.059 63.4578H37.2052C38.5845 63.4578 38.4759 65.3315 37.2936 65.7223Z" fill="white"/>
<path d="M44.5523 64.7351H44.2145C44.2145 64.7351 43.7158 67.6 43.6595 67.9263C43.5389 68.6274 43.2011 69.1069 42.252 69.1069C41.7131 69.1069 41.1863 68.7805 41.311 68.0512C41.3593 67.7692 41.7172 65.686 41.7453 65.5208C41.8458 64.9567 41.3673 64.7391 40.9732 64.7391H40.6756C40.6032 65.1743 40.2735 67.0036 40.1488 67.7208C40.0965 68.0109 40.0804 68.3011 40.1005 68.4904C40.2131 69.4615 41.0657 70.0578 42.1193 70.0578C43.941 70.0578 44.6247 69.1069 44.8418 67.9747C44.9142 67.6 45.256 65.7142 45.2842 65.5208C45.3646 64.9567 44.9022 64.7351 44.5523 64.7351Z" fill="white"/>
<path d="M46.4263 72L46.9531 69.1271C47.1582 69.5381 47.7453 70.0579 48.6743 70.0579C50.3552 70.0579 51.3928 68.7443 51.4973 67.2051C51.6099 65.5692 50.6488 64.6304 49.5389 64.6304C48.5737 64.6304 47.9182 65.1018 47.5844 65.5894L47.6005 65.5209C47.7051 65.0172 47.2788 64.7392 46.9169 64.7392H46.5549C46.5549 64.7392 45.5777 70.348 45.441 71.0249C45.2842 71.8187 45.9276 72.004 46.1287 72.004H46.4263V72ZM49.1608 65.5652C50.9062 65.6619 50.3633 69.3125 48.5094 69.2077C46.6153 69.1029 47.2346 65.4564 49.1608 65.5652Z" fill="white"/>
<path d="M52.6797 33.5319C51.996 33.5319 51.0591 33.4917 50.5041 33.3023C49.8486 33.0766 49.2655 32.6294 48.6542 32.1539C48.3446 31.9162 48.0269 31.6704 47.6851 31.4407C47.2668 31.1627 46.917 31.0297 46.5832 31.0297C46.1368 31.0297 45.6985 31.2755 45.1717 31.8235C44.4558 32.5609 43.3137 34.2371 42.8553 34.9261C42.8231 34.9664 42.7869 35.0147 42.7266 35.0147C42.614 35.0147 42.61 34.8697 42.61 34.8213C42.5859 32.9034 42.2883 22.4231 42.0792 19.2963C41.9867 17.9102 41.5564 17.052 40.9572 17.052C40.4786 17.052 39.7588 17.6927 39.3044 19.4978C38.1583 24.0912 35.7092 34.3056 34.6596 39.4953C34.6274 39.6364 34.4706 39.6364 34.4384 39.4953C34.3218 38.9635 34.2172 38.3631 34.1167 37.8554C33.803 36.2558 33.5296 34.8737 32.9947 34.1122C32.3835 33.2459 31.4786 33.1935 30.3848 33.9228C30.1435 34.084 29.9103 34.2854 29.665 34.499C28.9612 35.1034 28.165 35.7924 26.8459 35.7924H13.9371L13.6194 37.5089H27.2079C28.5953 37.5089 29.8861 36.7071 30.6542 36.155C31.0443 35.873 31.3138 35.7118 31.5309 35.7118C31.8285 35.7118 31.9652 36.018 32.0738 36.4734C32.1301 36.695 32.1944 37.0052 32.2709 37.3638C32.5282 38.5485 32.9143 40.414 33.4049 41.6591C33.6341 42.2353 33.9719 42.5576 34.362 42.5576C34.9572 42.5576 35.5604 41.8525 35.9022 40.7646C36.3607 39.314 39.1073 27.3872 40.2655 22.3909C40.3137 22.1854 40.3379 22.0725 40.3419 22.0605C40.362 21.9718 40.4223 21.9154 40.4907 21.9154C40.551 21.9154 40.6194 21.9678 40.6194 22.0806V22.1007C40.7078 27.1535 40.9572 36.0301 41.3352 36.9448C41.5443 37.4484 41.862 37.7144 42.2561 37.7144C42.7146 37.7144 43.2615 37.3437 43.6515 36.7755C43.8486 36.4895 44.0979 36.1147 44.3674 35.7199C45.0229 34.7448 45.7668 33.6367 45.984 33.403C46.3137 33.0525 46.6877 33.0525 47.2226 33.4191C47.303 33.4715 47.3955 33.54 47.5041 33.6166C48.0751 34.0316 49.0282 34.6037 50.0979 34.8979C50.8057 35.0913 51.7226 35.1356 52.362 35.1356C52.7762 35.1356 53.2146 35.1195 53.3432 35.1114L53.6368 33.5239C53.484 33.5199 53.0658 33.5319 52.6797 33.5319Z" fill="white"/>
<path d="M11.2064 19.8405C12.3928 19.8405 13.3016 20.0903 13.9289 20.5859C14.5563 21.0815 14.87 21.7786 14.87 22.6731C14.87 23.2815 14.7614 23.8053 14.5442 24.2405C14.3271 24.6797 14.0174 25.0383 13.6153 25.3203C13.2131 25.6064 12.7346 25.8119 12.1796 25.9449C11.6206 26.0779 11.0094 26.1423 10.3418 26.1423H8.71715L7.98525 30.4295C7.98525 30.4295 6.10723 30.5544 6.35254 29.1643C6.59785 27.7742 7.97318 19.8364 7.97318 19.8364H11.2064V19.8405ZM10.3981 24.5628C10.7721 24.5628 11.122 24.5346 11.4397 24.4782C11.7614 24.4218 12.0308 24.3291 12.252 24.1962C12.4772 24.0672 12.6501 23.894 12.7748 23.6804C12.9035 23.4668 12.9638 23.2009 12.9638 22.8745C12.9638 22.5885 12.9155 22.3548 12.811 22.1654C12.7105 21.976 12.5697 21.8309 12.3847 21.7222C12.2037 21.6174 11.9826 21.5408 11.7332 21.4925C11.4799 21.4482 11.1984 21.424 10.8968 21.424H9.52948L8.96648 24.5628H10.3981Z" fill="white"/>
<path d="M27.3968 9.85167C27.6502 9.42456 27.9478 9.08207 28.2936 8.82419C28.6394 8.56632 29.0537 8.43335 29.5403 8.43335C29.6086 8.43335 29.689 8.43738 29.7695 8.44141C29.8499 8.44544 29.9223 8.46156 29.9826 8.47767L29.7413 10.1378C29.6287 10.1055 29.5322 10.0854 29.4437 10.0773C29.3593 10.0693 29.2748 10.0612 29.1944 10.0612C28.7802 10.0612 28.4384 10.1378 28.177 10.2909C27.9116 10.444 27.6984 10.6253 27.5376 10.8389C27.3727 11.0524 27.2601 11.27 27.1877 11.4916C27.1153 11.7172 27.0711 11.8945 27.051 12.0275L26.3673 15.944H24.5898L25.6073 10.2022C25.6475 10.0088 25.6917 9.759 25.736 9.45277C25.7802 9.15057 25.8164 8.87255 25.8365 8.63079C25.8365 8.63079 27.3727 8.43335 27.3727 9.84764H27.3968V9.85167Z" fill="white"/>
<path d="M18.634 16.1013C20.0737 16.1013 20.8418 15.4646 21.3123 14.7394L21.2882 14.8481C21.1515 15.5291 21.7185 15.9482 22.2533 15.9482H22.7158L24.0027 8.62284H22.4102L22.197 9.73896C21.9115 9.16277 21.0992 8.46973 19.7882 8.46973C17.4759 8.46973 16.1045 10.3796 15.8753 12.4144C15.6099 14.7434 17.1099 16.1013 18.634 16.1013ZM20.0134 9.66644C22.6796 9.81552 21.811 14.9207 19.1005 14.7716C16.6515 14.6306 17.4155 9.52138 20.0134 9.66644Z" fill="white"/>
<path d="M25.2373 22.8661H24.7466C24.7466 22.8661 24.0228 27.0244 23.9423 27.4958C23.7654 28.5152 23.2788 29.2083 21.8995 29.2083C21.1193 29.2083 20.3552 28.7328 20.5322 27.6731C20.6005 27.2621 21.1233 24.2401 21.1635 23.9983C21.3083 23.1804 20.6166 22.8621 20.0415 22.8621H19.6072C19.5027 23.4947 19.0241 26.15 18.8432 27.1936C18.7708 27.6126 18.7426 28.0357 18.7748 28.3137C18.9356 29.724 20.1743 30.5863 21.7024 30.5863C24.3445 30.5863 25.3378 29.2042 25.6555 27.5603C25.76 27.0203 26.2587 24.2764 26.2989 23.9983C26.4155 23.1844 25.744 22.8661 25.2373 22.8661Z" fill="white"/>
<path d="M30.3084 23.8173C31.3338 23.8173 31.6314 24.1276 31.9974 24.3008C32.0738 24.1679 32.488 23.3781 32.6126 23.1525C32.4478 23.0195 31.7279 22.6287 30.4732 22.6287H30.4491C28.362 22.6287 27.3606 23.9946 27.3606 25.0422C27.3606 27.206 30.3647 26.8715 30.3647 28.1972C30.3647 28.854 29.6931 29.2972 28.7883 29.2972C28.0121 29.2972 27.3888 28.9305 26.9384 28.6404C26.862 28.7855 26.4518 29.5309 26.3151 29.7565C26.6488 29.9902 27.4692 30.5221 28.8848 30.5221C30.6944 30.5221 32.0899 29.3375 32.0899 28.0199C32.0899 25.7836 29.0456 26.0173 29.0456 24.7642C29.0456 24.2686 29.6247 23.8173 30.3084 23.8173Z" fill="white"/>
<path d="M17.2507 19.9409C16.937 19.9409 16.945 19.9409 16.8244 19.9409L14.9303 30.4534H16.6475L18.3324 21.0973C18.445 20.4365 17.9303 19.9409 17.2507 19.9409Z" fill="white"/>
<path d="M37.4785 12.4949H31.4464C31.4262 13.1557 31.6072 13.6996 31.9973 14.1268C32.3834 14.5539 32.9343 14.7674 33.6582 14.7674C34.378 14.7674 35.1823 14.6143 36.067 14.3081L36.2801 15.5451C35.3472 15.9117 34.4102 16.0971 33.4772 16.0971C32.3914 16.0971 31.5308 15.7707 30.9035 15.122C30.2922 14.5015 29.9866 13.7037 29.9866 12.7245C29.9866 11.4916 30.4128 10.4117 31.2573 9.48094C32.1059 8.55017 33.1394 8.08276 34.3579 8.08276C35.3431 8.08276 36.1193 8.40511 36.6903 9.05383C37.2573 9.70255 37.5429 10.5568 37.5429 11.6286C37.5348 11.9106 37.5187 12.2007 37.4785 12.4949ZM36.059 11.2861C36.0509 10.7985 35.886 10.3754 35.5724 10.0209C35.2145 9.62197 34.748 9.42856 34.1729 9.42856C33.5817 9.42856 33.0549 9.626 32.5884 10.0209C32.1742 10.3754 31.8847 10.7985 31.7359 11.2861H36.059Z" fill="white"/>
<path d="M11.3633 14.6062C6.85524 14.8923 7.8043 7.1157 11.8177 6.86185C12.9477 6.78932 14.0576 7.32119 14.5201 8.03841L16.193 6.94647C15.3164 5.85452 13.9611 5.25415 12.3284 5.25415C8.91824 5.25415 6.16355 8.31241 6.33245 11.6285C6.49331 14.8641 8.40349 16.222 10.9611 16.222C12.9638 16.222 14.3914 15.4927 15.3727 14.5216L13.6072 13.6472C13.0925 14.0905 12.1233 14.5579 11.3633 14.6062Z" fill="white"/>
</svg>
