<svg width="492" height="440" fill="none" xmlns="http://www.w3.org/2000/svg"><path opacity=".1" d="M245.533 440c135.604 0 245.533-31.696 245.533-70.795 0-39.099-109.929-70.795-245.533-70.795C109.929 298.41 0 330.106 0 369.205 0 408.304 109.929 440 245.533 440z" fill="#0079C8"/><path d="M384.241 57.054s-9.83-6.593-21.1 18.398c-11.269 24.991-15.429 39.332-15.429 39.332s-3.006 5.256-6.411 1.944c-3.405-3.296-8.178-12.776-13.806-10.908-5.841 1.945-7.622 8.979-6.268 19.218 1.339 10.24 3.519 32.815 3.704 34.851.185 2.005-.826 4.983-3.491 3.129-2.664-1.853-18.093-19.354-25.445-11.044-7.351 8.31.798 36.202 1.624 39.271.841 3.069.3 4.406-1.054 5.196-1.353.805-6.026-5.606-10.614-10.392-4.587-4.785-10.685-9.479-14.546-4.299-3.861 5.181-4.673 26.267 14.874 60.024l10.016 15.009 17.295-1.458c36.843-5.515 51.546-19.659 52.814-26.13 1.268-6.472-6.012-8.477-12.395-9.191-6.383-.699-13.99-.441-14.275-2.067-.285-1.625.327-2.916 3.077-4.193 2.75-1.276 28.067-12.396 29.377-23.745 1.297-11.333-21.185-12.837-24.22-13.824-3.034-1.003-1.524-3.738.043-4.862 1.596-1.154 19.262-13.779 27.511-19.218 8.249-5.438 12.196-11.394 9.859-17.425-2.251-5.803-12.138-3.676-16.697-4.36-4.56-.684-2.693-6.502-2.693-6.502s7.693-12.579 18.535-37.783c10.842-25.203-.484-29.092-.484-29.092" fill="#B3D59C"/><path d="M374.126 79.417c.014 0-.057.197-.2.547-.156.395-.37.911-.627 1.565a969.436 969.436 0 0 1-2.507 5.985c-2.18 5.196-5.4 12.685-9.403 21.922-8.007 18.489-19.291 43.904-31.842 71.933-12.509 28.045-23.821 53.43-32.042 71.843-4.046 9.176-7.323 16.62-9.616 21.815a1672.821 1672.821 0 0 0-2.622 5.925c-.299.638-.527 1.155-.698 1.534-.157.35-.256.517-.256.517-.015 0 .057-.197.199-.547.157-.395.37-.911.627-1.565.584-1.412 1.425-3.418 2.507-5.985 2.18-5.196 5.4-12.685 9.403-21.922 8.007-18.489 19.291-43.905 31.843-71.949 12.494-28.029 23.821-53.414 32.027-71.827 4.046-9.176 7.323-16.62 9.617-21.815 1.125-2.537 2.008-4.528 2.621-5.925.299-.638.527-1.155.698-1.535.171-.349.257-.531.271-.516z" fill="#263238"/><path d="M333.679 119.388c.099-.03.712 1.747 1.581 4.664s1.952 6.988 3.049 11.5c1.054 4.405 2.009 8.386 2.764 11.576.698 2.962 1.168 4.785 1.068 4.816-.099.03-.74-1.732-1.567-4.664-.84-2.932-1.866-7.019-2.977-11.531-1.083-4.39-2.066-8.37-2.835-11.545-.741-2.963-1.183-4.786-1.083-4.816zM343.752 152.231c-.057-.213 7.693-2.978 17.324-6.198 9.631-3.221 17.495-5.652 17.552-5.439.057.213-7.693 2.978-17.338 6.198-9.617 3.221-17.481 5.651-17.538 5.439zM322.652 194.359c0-.122 1.809-.167 4.744-.243 2.921-.091 6.967-.213 11.412-.501 4.459-.288 8.477-.682 11.383-.971 2.906-.303 4.716-.485 4.73-.364.014.106-1.767.486-4.673.926-2.906.44-6.938.925-11.398 1.213-4.473.288-8.519.334-11.454.273-2.935-.076-4.759-.227-4.744-.333zM307.408 166.787c.085-.061 1.04 1.413 2.493 3.844 1.467 2.43 3.433 5.818 5.57 9.586 2.137 3.768 4.047 7.201 5.386 9.708 1.339 2.507 2.137 4.087 2.051 4.133-.085.06-1.04-1.413-2.493-3.844-1.467-2.431-3.433-5.819-5.57-9.587a516.1 516.1 0 0 1-5.386-9.692c-1.353-2.522-2.137-4.102-2.051-4.148zM284.356 201.454c.042-.031.37.425.911 1.291.542.851 1.325 2.096 2.266 3.661a779.96 779.96 0 0 1 7.223 12.215 843.05 843.05 0 0 1 7.052 12.351 214.4 214.4 0 0 1 2.066 3.783c.47.897.712 1.413.67 1.443-.043.031-.371-.425-.912-1.291a162.729 162.729 0 0 1-2.265-3.661 720.235 720.235 0 0 1-7.224-12.23 787.206 787.206 0 0 1-7.038-12.336 219.89 219.89 0 0 1-2.065-3.783c-.485-.912-.727-1.428-.684-1.443zM304.273 235.211c0-.061.57-.121 1.61-.197 1.197-.076 2.664-.183 4.388-.304 3.704-.243 8.819-.592 14.461-1.124a494.504 494.504 0 0 0 14.418-1.594c1.724-.213 3.177-.38 4.373-.532 1.04-.121 1.61-.151 1.61-.106.015.061-.555.197-1.581.41a94.256 94.256 0 0 1-4.345.775 227.126 227.126 0 0 1-28.936 2.718c-1.852.045-3.362.06-4.402.045-1.012 0-1.596-.03-1.596-.091z" fill="#263238"/><path d="M161.091.206s.256-.121.797-.182c.542-.06 1.382-.03 2.394.38 1.011.395 2.151 1.2 3.248 2.415 1.111 1.216 2.08 2.902 3.021 4.862 1.837 3.98 3.063 9.282 4.459 15.435 1.368 6.183 2.878 13.293 3.904 21.375l-.015-.06c.456 1.17 1.297 2.506 2.522 2.567.598.015 1.168-.32 1.71-.73.541-.41 1.082-.865 1.624-1.336 1.083-.927 2.18-1.9 3.419-2.72 1.225-.775 2.736-1.504 4.331-1.078 1.525.5 2.721 1.731 3.434 3.25.684 1.535.855 3.267.755 4.968-.171 3.419-1.439 6.67-2.351 10.012-.983 3.358-1.98 6.79-3.006 10.3-.513 1.763-1.026 3.54-1.553 5.333-.256.896-.527 1.792-.798 2.704-.128.47-.285.896-.299 1.322-.043.425.014.88.171 1.23.299.76 1.197.593 1.952.137l2.393-1.413c1.61-.942 3.277-1.853 5.03-2.613 1.752-.745 3.604-1.398 5.57-1.52.983-.06 2.009.062 2.949.487a4.996 4.996 0 0 1 2.294 2.127c1.069 1.93 1.126 4.193.94 6.29-.199 2.126-.641 4.223-1.239 6.273-1.183 4.118-2.835 8.113-4.687 12.048-.442.987-1.026 1.944-1.283 2.917-.128.486-.142.972.029 1.367.085.197.228.38.399.547.085.061.156.076.399 0 .869-.319 1.766-1.003 2.621-1.611.855-.638 1.724-1.291 2.593-1.929 1.738-1.291 3.519-2.583 5.514-3.54.997-.47 2.051-.866 3.177-1.002 1.111-.152 2.393.09 3.305.942.926.82 1.439 2.035 1.596 3.236.128.592.114 1.2.156 1.792-.028.593-.028 1.2-.085 1.793-.214 2.37-.812 4.679-1.567 6.912-1.496 4.497-3.704 8.705-6.212 12.716-2.507 4.026-5.385 7.809-8.477 11.455-1.482 1.899-3.248 3.479-4.915 5.195l-5.072 5.09-.157.152-.199-.061a33.73 33.73 0 0 1-.941-.304c-2.251-.729-4.487-1.443-6.71-2.172l-3.334-1.079c-1.097-.395-2.165-.896-3.248-1.337-4.303-1.869-8.477-3.935-12.438-6.365-3.946-2.431-7.693-5.211-10.97-8.493-1.624-1.656-3.148-3.418-4.374-5.454-.57-1.033-1.154-2.081-1.453-3.266-.328-1.185-.342-2.537.242-3.692.599-1.154 1.738-1.808 2.821-2.127 1.097-.319 2.209-.395 3.306-.41 2.194 0 4.345.365 6.439.729l3.135.547c.512.076 1.04.152 1.552.198.485.03 1.069.061 1.382-.076.1-.061.029.015.1-.091.043-.122.071-.228.086-.334a1.453 1.453 0 0 0-.029-.654c-.114-.425-.427-.835-.798-1.185-.726-.683-1.652-1.291-2.464-1.959-3.348-2.644-6.54-5.424-9.375-8.523-1.41-1.55-2.75-3.19-3.847-4.998-1.068-1.793-2.051-3.829-1.894-6.092.071-1.11.512-2.203 1.225-3.008.712-.82 1.624-1.337 2.536-1.732 1.852-.76 3.804-.988 5.699-1.11 1.894-.106 3.775-.03 5.627.077.926.045 1.852.136 2.736.152.413.015.854-.061 1.125-.274.271-.197.356-.562.285-.972-.142-.85-.755-1.504-1.41-2.173a245.26 245.26 0 0 0-1.881-2.02 466.704 466.704 0 0 1-3.704-3.996 1722.929 1722.929 0 0 1-7.167-7.717c-2.279-2.537-4.815-4.8-6.496-7.748-.855-1.443-1.496-3.054-1.61-4.755-.086-1.702.427-3.418 1.596-4.619 1.268-1.154 2.934-1.154 4.359-1.033 1.453.167 2.85.517 4.203.851.684.167 1.353.334 2.009.456.669.106 1.325.182 1.866-.076 1.126-.547 1.297-2.203 1.183-3.449l.014.092c-2.664-7.596-4.474-14.585-5.998-20.692-1.482-6.092-2.764-11.348-2.949-15.754-.257-4.375.698-7.84 2.18-9.54.712-.867 1.453-1.292 1.951-1.49.513-.197.798-.212.798-.212s-.27.045-.769.273c-.499.213-1.211.653-1.895 1.52-1.41 1.686-2.322 5.104-2.037 9.449.213 4.36 1.524 9.57 3.034 15.663 1.553 6.077 3.405 13.065 6.084 20.6l.014.03v.03a6.58 6.58 0 0 1-.128 2.173c-.185.7-.584 1.474-1.311 1.793-.698.334-1.467.243-2.137.137a32.904 32.904 0 0 1-2.051-.456c-1.354-.334-2.736-.684-4.146-.82-1.382-.122-2.921-.076-3.975.911-.983 1.018-1.496 2.628-1.411 4.178.114 1.565.713 3.1 1.553 4.482 1.639 2.825 4.132 5.059 6.44 7.61 2.336 2.508 4.744 5.075 7.195 7.703 1.225 1.307 2.464 2.644 3.718 3.98.627.669 1.254 1.353 1.895 2.021.613.638 1.396 1.398 1.581 2.507.114.516-.014 1.276-.527 1.625-.484.365-1.011.395-1.496.395-.94-.015-1.852-.106-2.778-.152-1.838-.106-3.704-.167-5.57-.076-1.853.107-3.747.35-5.486 1.064-.854.364-1.681.85-2.293 1.565-.613.698-.969 1.61-1.04 2.582-.143 1.975.769 3.92 1.809 5.637 1.069 1.747 2.379 3.342 3.775 4.876 2.807 3.054 5.97 5.819 9.304 8.432.826.668 1.695 1.23 2.536 2.02.399.395.798.866.997 1.519a2.395 2.395 0 0 1-.085 1.474c-.043.152-.285.471-.442.486-.684.274-1.183.167-1.738.152a26.444 26.444 0 0 1-1.596-.197c-1.054-.183-2.094-.365-3.149-.532-2.094-.365-4.202-.714-6.325-.714-1.054 0-2.123.091-3.12.38-.983.304-1.909.85-2.38 1.762-.94 1.929.086 4.269 1.197 6.168 1.168 1.944 2.664 3.676 4.26 5.302 3.22 3.236 6.91 5.97 10.828 8.386 3.918 2.4 8.078 4.466 12.338 6.305 1.068.44 2.123.926 3.22 1.321l3.333 1.079c2.223.714 4.46 1.443 6.696 2.172.328.107.642.213.941.304l-.356.091c1.695-1.701 3.376-3.387 5.072-5.074 1.666-1.701 3.433-3.296 4.886-5.165 3.063-3.601 5.927-7.368 8.42-11.348 2.493-3.966 4.673-8.143 6.141-12.549.755-2.188 1.325-4.451 1.538-6.73.057-.562.057-1.14.086-1.702-.043-.562-.029-1.139-.143-1.671-.142-1.094-.584-2.111-1.339-2.795-.741-.684-1.752-.912-2.764-.775-1.011.122-2.009.486-2.963.927-1.909.911-3.676 2.187-5.4 3.464-.869.653-1.738 1.291-2.593 1.929-.883.623-1.724 1.291-2.821 1.701-.156.046-.285.092-.498.076-.143.046-.499-.151-.57-.243a2.752 2.752 0 0 1-.556-.774c-.285-.623-.228-1.322-.071-1.884.328-1.155.898-2.066 1.339-3.054 1.852-3.904 3.476-7.87 4.659-11.925.598-2.021 1.026-4.072 1.225-6.123.185-2.036.1-4.178-.84-5.864-.926-1.732-2.836-2.43-4.659-2.294-1.838.106-3.647.714-5.357 1.458-1.724.745-3.362 1.641-4.972 2.568-.812.47-1.61.942-2.408 1.413-.413.228-.898.456-1.425.456-.555.045-1.154-.365-1.367-.897-.456-1.018-.2-2.188.099-3.023.271-.912.527-1.808.798-2.704.527-1.793 1.054-3.57 1.567-5.333 1.04-3.509 2.052-6.958 3.035-10.3.94-3.373 2.194-6.563 2.351-9.86.114-1.625-.057-3.266-.684-4.679-.627-1.382-1.795-2.537-3.092-2.962-1.339-.395-2.749.258-3.932 1.003-1.197.774-2.294 1.732-3.376 2.658a28.68 28.68 0 0 1-1.653 1.352c-.556.41-1.24.82-1.995.805-.769-.015-1.424-.5-1.88-1.033a6.763 6.763 0 0 1-1.055-1.853l-.014-.015v-.03c-.983-8.037-2.465-15.162-3.804-21.345-1.367-6.168-2.55-11.455-4.331-15.405-.912-1.945-1.866-3.616-2.935-4.831-1.068-1.215-2.18-2.02-3.163-2.43-2.08-.806-3.248-.244-3.219-.305z" fill="#0079C8"/><path d="M164.994 16.813c.015 0 .057.121.129.38.085.303.185.668.313 1.123.271 1.049.655 2.507 1.14 4.36a1392.86 1392.86 0 0 1 3.989 16.074c3.305 13.581 7.693 32.389 12.466 53.187 4.787 20.767 9.104 39.575 12.252 53.247 1.568 6.761 2.85 12.26 3.747 16.119.428 1.854.755 3.327.998 4.391.099.471.171.85.242 1.139.057.258.071.395.057.395-.014 0-.057-.122-.128-.38-.086-.304-.186-.668-.314-1.124-.27-1.048-.655-2.507-1.14-4.36-.968-3.783-2.336-9.267-3.989-16.073-3.305-13.582-7.693-32.389-12.466-53.202-4.773-20.768-9.104-39.56-12.252-53.233-1.567-6.76-2.85-12.26-3.761-16.134-.428-1.853-.755-3.327-.998-4.39-.099-.471-.171-.851-.242-1.155-.043-.228-.057-.364-.043-.364z" fill="#0079C8"/><path d="M159.951 56.522c.057-.091 1.125.577 2.778 1.747 1.653 1.185 3.875 2.887 6.283 4.846a477.747 477.747 0 0 1 6.112 5.075c1.553 1.306 2.522 2.112 2.465 2.203-.057.09-1.126-.562-2.778-1.763-1.639-1.2-3.847-2.932-6.255-4.892-2.279-1.868-4.345-3.54-6.14-5.013-1.568-1.291-2.522-2.112-2.465-2.203zM178.543 69.834c-.171-.122 2.736-5.12 6.497-11.152 3.761-6.047 6.938-10.833 7.109-10.711.171.122-2.735 5.12-6.496 11.152-3.747 6.031-6.939 10.832-7.11 10.71zM184.541 102.085c-.128-.182 3.662-3.418 8.107-7.702 4.445-4.284 7.835-7.991 7.992-7.84.071.076-.684 1.094-2.023 2.644a85.537 85.537 0 0 1-5.471 5.773 86.854 86.854 0 0 1-5.926 5.241c-1.596 1.261-2.622 1.96-2.679 1.884zM165.365 93.925c.042-.106 1.139.243 2.906.896 1.767.639 4.174 1.58 6.824 2.674 2.65 1.079 5.03 2.112 6.739 2.887 1.71.775 2.75 1.306 2.721 1.413-.042.106-1.139-.243-2.906-.897-1.767-.638-4.174-1.58-6.824-2.673a194.577 194.577 0 0 1-6.739-2.887c-1.724-.775-2.764-1.306-2.721-1.413zM167.302 123.004c.043-.107 1.453.349 3.704 1.169 2.251.821 5.357 2.006 8.762 3.358a319.482 319.482 0 0 1 8.691 3.585c2.208.957 3.562 1.595 3.519 1.702-.043.106-1.453-.35-3.704-1.17a342.865 342.865 0 0 1-8.762-3.358 340.91 340.91 0 0 1-8.691-3.585c-2.208-.957-3.547-1.595-3.519-1.701zM191.437 132.423c-.071-.091 1.054-1.215 2.892-3.008 1.838-1.808 4.374-4.285 7.109-7.08 2.75-2.796 5.186-5.394 6.953-7.278 1.766-1.883 2.863-3.023 2.949-2.947.071.076-.898 1.352-2.565 3.342a141.771 141.771 0 0 1-6.81 7.46 143.215 143.215 0 0 1-7.28 6.943c-1.937 1.672-3.177 2.644-3.248 2.568z" fill="#0079C8"/><path d="M204.188 256.514c20.815-21.543 21.199-54.905 15.843-83.922-.898-4.846-1.169-10.057-3.99-13.961-2.82-3.889-8.334-5.94-12.11-3.175-3.134 2.294-3.974 6.745-5.342 10.558-1.824 5.059-5.001 9.541-9.047 12.762-2.664 2.111-6.112 3.722-9.232 2.522-4.288-1.641-5.642-7.353-6.34-12.215-1.325-9.039-2.636-18.063-3.961-27.103-.712-4.846-1.439-9.798-3.561-14.143-2.109-4.345-5.884-8.083-10.401-8.63-4.516-.546-9.46 3.039-9.645 7.931-.085 2.035.613 4.026.784 6.046.185 2.036-.357 4.406-2.066 5.272-1.724.881-3.747-.182-5.329-1.367-5.428-4.087-9.574-9.83-13.491-15.572-3.918-5.758-7.779-11.668-12.851-16.256-5.058-4.603-11.583-7.809-18.15-7.08-6.569.73-12.838 6.214-13.45 13.309-.613 7.11 4.174 13.399 9.09 18.215 7.28 7.156 15.514 13.172 24.362 17.805 1.596.836 3.319 1.732 4.146 3.434 1.481 3.053-.898 6.76-3.733 8.34-3.206 1.793-6.938 2.051-10.4 3.099-3.477 1.064-7.052 3.388-7.85 7.186-1.112 5.272 3.561 9.784 7.892 12.534 8.677 5.484 18.237 9.343 28.11 11.379 3.533.729 7.223 1.261 10.3 3.296 3.078 2.036 5.357 6.108 4.26 9.799-1.111 3.692-5.114 5.515-8.719 5.424-3.604-.091-7.038-1.565-10.585-2.34-6.625-1.428-14.618.426-17.738 6.867-2.052 4.239-1.482 9.541.527 13.81 2.009 4.284 5.3 7.687 8.705 10.771 11.911 10.786 26.243 18.641 41.53 21.497 15.273 2.871 28.907 2.005 42.442-6.092z" fill="#B3D59C"/><path d="M87.391 103.726c-.014.015.171.137.513.38.385.258.898.608 1.539 1.048 1.353.912 3.362 2.264 5.898 4.087a176.238 176.238 0 0 1 20.387 16.969c4.061 3.905 8.349 8.386 12.865 13.278 4.517 4.907 9.304 10.179 14.133 15.921 4.844 5.743 9.745 11.941 14.347 18.762 2.308 3.403 4.459 7.004 6.653 10.68 2.18 3.677 4.403 7.399 6.64 11.182 8.918 15.131 16.982 29.837 23.265 43.798 6.311 13.947 10.799 27.103 13.606 38.421 2.835 11.318 4.046 20.752 4.587 27.285.257 3.266.399 5.803.442 7.535.043.82.057 1.474.086 1.96.028.44.042.668.057.668.014 0 .028-.228.028-.668v-1.96c.014-1.732-.085-4.284-.285-7.551-.442-6.547-1.553-16.027-4.331-27.406-2.75-11.379-7.195-24.626-13.492-38.633-6.269-14.022-14.318-28.789-23.251-43.92-2.251-3.768-4.459-7.505-6.653-11.182-2.194-3.661-4.36-7.292-6.696-10.71-4.631-6.852-9.574-13.065-14.447-18.808-4.872-5.742-9.674-10.999-14.218-15.891-4.545-4.876-8.862-9.327-12.965-13.217-8.178-7.808-15.458-13.262-20.601-16.787a137.412 137.412 0 0 0-5.998-3.934c-.67-.411-1.197-.73-1.582-.973-.328-.243-.527-.349-.527-.334z" fill="#263238"/><path d="M157.5 173.64c.057 0 .1-.76.129-2.142.028-1.382.028-3.373-.029-5.849-.085-4.937-.427-11.743-.84-19.248-.399-7.504-.656-14.295-.684-19.217-.014-2.461-.014-4.452.014-5.834.014-1.382-.014-2.142-.071-2.142-.057 0-.143.76-.257 2.127-.128 1.367-.213 3.372-.27 5.833-.129 4.938.028 11.759.427 19.279.413 7.398.798 14.098 1.083 19.217.114 2.31.214 4.269.285 5.834.085 1.382.157 2.142.213 2.142z" fill="#263238"/><path d="M97.35 172.09c.014.061.855.015 2.38-.106 1.524-.122 3.718-.304 6.439-.426 5.442-.304 12.965-.456 21.285-.228 8.32.243 15.828.806 21.257 1.383 2.721.274 4.915.547 6.425.729 1.51.183 2.365.259 2.365.198.014-.061-.812-.258-2.322-.547-1.511-.289-3.69-.669-6.412-1.018-5.428-.745-12.964-1.398-21.299-1.657-8.334-.228-15.899.016-21.342.502a92.55 92.55 0 0 0-6.44.714c-1.51.243-2.35.395-2.336.456zM193.46 238.434c.029.016.128-.273.285-.835.171-.653.399-1.459.655-2.431.556-2.112 1.297-5.18 2.166-8.994 1.738-7.626 3.818-18.23 5.969-29.958 2.152-11.744 4.146-22.348 5.728-30.005.783-3.722 1.424-6.775 1.895-9.054.199-.988.37-1.793.498-2.461.1-.563.143-.866.114-.882-.028 0-.128.274-.285.836-.171.653-.399 1.458-.655 2.431-.556 2.111-1.297 5.18-2.166 8.993-1.738 7.627-3.818 18.231-5.969 29.959-2.151 11.744-4.146 22.348-5.713 29.99a2397.43 2397.43 0 0 0-1.895 9.054c-.2.988-.37 1.808-.499 2.461-.128.577-.156.881-.128.896z" fill="#263238"/><path d="M111.811 225.173c0 .03.284.106.826.212.641.107 1.425.244 2.379.411 2.194.364 5.143.85 8.748 1.428 7.38 1.215 17.566 3.008 28.807 5.013 11.255 2.005 21.456 3.706 28.865 4.755 3.704.531 6.71.926 8.79 1.154.955.091 1.752.183 2.394.243.555.046.84.061.84.031 0-.031-.285-.107-.826-.213-.641-.106-1.425-.243-2.379-.41-2.195-.365-5.144-.851-8.748-1.428-7.38-1.215-17.567-3.008-28.822-5.029-11.241-2.005-21.456-3.706-28.864-4.754-3.704-.532-6.711-.927-8.791-1.155-.954-.091-1.752-.182-2.393-.243-.527-.03-.826-.046-.826-.015z" fill="#263238"/><path d="M386.834 346.082c-.498-.182-1.382-.349-2.55-.516l-93.218-41.687h-92.691l-91.38 38.496c-9.275 3.297-22.51 22.591-15.002 45.652.213.638.427 1.261.655 1.869 5.998 16.042 22.667 24.383 38.31 19.932 12.623-3.601 30.759-8.872 49.437-14.311l2.095-.061 58.142-17.592c9.103 2.689 28.237 8.31 49.508 14.538h.014c25.859 7.581 54.851 16.028 72.745 21.132 15.644 4.467 32.313-3.889 38.311-19.931.228-.608.441-1.231.655-1.869 7.48-23.061-5.77-42.355-15.031-45.652z" fill="#455A64"/><path d="M239.891 378.093c0-.015.1-.061.313-.122.243-.076.556-.182.941-.319.883-.273 2.108-.653 3.69-1.154 3.276-.988 7.992-2.416 13.919-4.224l-.157.289c-2.393-9.404-5.599-21.907-9.289-36.355l.328.258c-3.092 0-6.269.015-9.56.015-3.277.046-6.639.304-10.073.471-6.881.395-14.076.821-21.456 1.246-26.499 1.641-50.462 3.555-67.801 5.044-8.634.759-15.629 1.382-20.53 1.808-2.394.212-4.26.364-5.585.486-.612.045-1.083.076-1.453.106-.328.015-.499.031-.499.015 0-.015.171-.045.485-.091.37-.045.84-.106 1.453-.182l5.571-.638a1682.28 1682.28 0 0 1 20.515-2.066c17.325-1.641 41.302-3.646 67.802-5.287 7.38-.426 14.574-.836 21.456-1.231 3.448-.152 6.824-.41 10.101-.44 3.277 0 6.482.015 9.574.015h.256l.072.258c3.604 14.478 6.724 26.997 9.075 36.416l.057.228-.214.061c-5.955 1.701-10.685 3.068-13.976 4.01-1.596.441-2.835.79-3.719 1.033-.399.107-.712.183-.954.243-.228.092-.342.107-.342.107z" fill="#263238"/><path d="M209.701 337.395c-.1.182-2.678-1.383-5.471-3.89-2.806-2.492-4.715-4.908-4.559-5.044.157-.152 2.28 1.99 5.044 4.436 2.735 2.462 5.1 4.3 4.986 4.498zM375.85 349.685c0 .03-.442.015-1.282-.03a480.07 480.07 0 0 0-3.647-.228c-3.234-.243-7.808-.562-13.435-.972-11.398-.821-27.041-1.945-44.308-3.175-17.282-1.109-32.925-2.127-44.337-2.856-5.628-.35-10.201-.638-13.435-.851-1.539-.106-2.75-.197-3.647-.258-.841-.076-1.268-.122-1.268-.152 0-.031.441-.031 1.282-.015.898.03 2.123.06 3.661.121 3.249.152 7.822.35 13.45.593 11.354.562 27.04 1.443 44.351 2.628 17.31 1.185 32.967 2.415 44.293 3.402 5.614.517 10.173.927 13.407 1.231 1.539.167 2.75.289 3.647.38.826.091 1.268.152 1.268.182zM378.315 359.541c-.228-.015-.143-2.217-1.054-4.662-.884-2.461-2.337-4.025-2.18-4.192.1-.167 1.909 1.245 2.878 3.903.983 2.643.541 4.997.356 4.951zM241.429 347.783c-.128-.151 1.397-1.639 3.819-2.292 2.422-.668 4.43-.137 4.388.061-.029.227-1.952.075-4.203.713-2.251.592-3.875 1.701-4.004 1.518zM243.965 354.059c-.028-.212 1.667-.607 3.776-.88 2.108-.272 3.847-.303 3.875-.09.029.212-1.667.606-3.775.879-2.123.273-3.861.318-3.876.091zM245.091 361.348c0-.227 2.066-.288 4.474-1.048 2.407-.728 4.188-1.867 4.317-1.67.114.152-1.553 1.64-4.104 2.43-2.536.789-4.701.501-4.687.288zM247.371 369.207c-.015-.228 1.98-.411 4.231-1.323 2.265-.896 3.861-2.158 4.003-1.976.143.137-1.339 1.764-3.747 2.721-2.393.973-4.502.775-4.487.578z" fill="#263238"/><path d="M289.841 333.626c.157.152-1.396 2.082-3.134 4.604-1.753 2.507-3.021 4.65-3.206 4.543-.171-.091.826-2.461 2.621-5.014 1.767-2.568 3.591-4.27 3.719-4.133z" fill="#263238"/><path d="M472.488 239.33c-2.223.121-19.277 3.16-19.277 3.16 21.186-6.032 21.926-8.645 21.414-10.301-.513-1.656-19.79 4.026-19.79 4.026s1.981-3.418 2.294-7.702c.499-6.594-6.796-12.61-9.089-11.713-2.294.896-1.368 4.071-1.368 4.071 6.767 3.737 5.713 12.473.071 15.086-5.642 2.628-8.762-4.983-5.471-8.189 7.224-7.034 2.892-8.416 2.892-8.416l-16.027 15.162c-.314.106-13.108 3.494-13.108 3.494l-54.836 11.667-22.382-34.972-23.551 22.621s4.246 5.393 22.881 32.223c7.451 10.725 20.316 15.329 32.198 11.515l54.552-17.501.1.289-.057-.198 30.346-8.31s9.773-3.008 12.067-3.692c3.035-.911 2.792-3.403.37-3.463-.926-.031-12.309.395-12.309.395s16.398-4.816 16.997-4.999c5.385-1.58 3.248-4.375 1.083-4.253zM165.465 200.014l-22.382 34.971-54.837-11.668s-12.794-3.387-13.107-3.494L59.11 204.662s-4.331 1.383 2.892 8.416c3.291 3.206.17 10.817-5.471 8.189-5.642-2.629-6.696-11.364.071-15.086 0 0 .926-3.175-1.367-4.071-2.294-.896-9.589 5.12-9.09 11.713.328 4.284 2.308 7.702 2.308 7.702s-19.276-5.682-19.79-4.026c-.498 1.641.229 4.269 21.414 10.3 0 0-17.053-3.038-19.276-3.16-2.151-.121-4.303 2.659 1.054 4.254.599.182 16.997 4.998 16.997 4.998s-11.384-.41-12.31-.38c-2.436.061-2.664 2.552.37 3.464 2.295.683 12.068 3.691 12.068 3.691l30.346 8.31-.057.197.1-.288 54.552 17.5c11.882 3.814 24.747-.79 32.198-11.515 18.635-26.828 22.881-32.221 22.881-32.221l-23.536-22.635z" fill="#FFBE9D"/><path d="M296.893 306.147l-9.218-44.133c.456-6.153 7.067-45.029 7.95-47.339l30.004 46.579 35.048-15.708s-29.777-53.248-42.741-73.104c-15.914-24.384-47.058-26.997-47.058-26.997l-40.063.578s-27.981-6.624-56.062 33.589l-32.212 54.205 27.668 14.995c2.635 1.534 5.926.851 7.835-1.626l22.724-29.533 6.924 41.717-9.588 35.337s-8.748 1.23-7.109 12.594c0 0 28.551 14.281 55.364 12.534 26.798-1.732 50.534-13.688 50.534-13.688z" fill="#0079C8"/><path d="M281.948 234.393c.028.015-.043.258-.171.714-.142.456-.342 1.155-.67 2.005-.612 1.732-1.652 4.178-3.205 7.035-3.063 5.712-8.591 13.066-16.612 18.55-8.021 5.5-16.584 7.81-22.738 8.402-3.092.319-5.614.304-7.338.183-.869-.031-1.538-.137-1.98-.183-.456-.061-.684-.106-.684-.121 0-.061.955-.016 2.679 0 1.724.03 4.217-.046 7.266-.426 6.083-.729 14.489-3.084 22.396-8.508 7.907-5.409 13.421-12.58 16.569-18.171a62.436 62.436 0 0 0 3.391-6.867c.684-1.686 1.04-2.628 1.097-2.613zM329.775 260.068c-.157.137-1.268-1.079-2.18-2.932-.912-1.839-1.239-3.51-1.054-3.571.199-.076.826 1.428 1.71 3.191.883 1.793 1.695 3.175 1.524 3.312zM336.898 256.556c-.199.091-.897-1.291-1.752-2.977s-1.553-3.068-1.382-3.19c.171-.121 1.154 1.079 2.037 2.81.87 1.732 1.283 3.281 1.097 3.357zM345.119 251.923c-.171.122-1.168-1.154-2.237-2.84-1.068-1.686-1.795-3.16-1.624-3.281.171-.122 1.168 1.154 2.237 2.84 1.069 1.686 1.795 3.16 1.624 3.281zM353.197 247.653c-.199.076-.783-1.246-1.538-2.81-.755-1.579-1.425-2.839-1.254-2.961.157-.121 1.125.972 1.909 2.612.798 1.625 1.083 3.098.883 3.159zM147.94 235.307c-.17-.122.414-1.368 1.297-2.796.883-1.429 1.752-2.477 1.923-2.356.171.122-.413 1.368-1.296 2.796-.898 1.414-1.753 2.478-1.924 2.356zM159.182 233.693c.171.122-.656 1.626-1.824 3.358-1.168 1.717-2.251 3.009-2.422 2.887-.171-.121.655-1.626 1.824-3.358 1.168-1.717 2.251-3.008 2.422-2.887zM166.561 238.971c.185.091-.285 1.534-1.054 3.22-.77 1.686-1.539 2.962-1.724 2.871-.185-.091.285-1.534 1.054-3.22.77-1.686 1.539-2.977 1.724-2.871zM173.884 243.934c.157.136-.655 1.443-1.823 2.917-1.169 1.473-2.237 2.552-2.394 2.415-.156-.136.656-1.443 1.824-2.917 1.168-1.473 2.237-2.552 2.393-2.415zM197.093 309.199c-.157.122-1.325-2.446-.77-5.759.513-3.313 2.394-5.334 2.508-5.167.185.137-1.311 2.219-1.781 5.304-.513 3.054.256 5.546.043 5.622zM204.857 312.378c-.086.046-.442-.425-.784-1.337-.342-.911-.584-2.279-.427-3.783.157-1.504.684-2.78 1.197-3.6.513-.82.968-1.185 1.04-1.124.185.137-1.24 2.005-1.496 4.816-.314 2.78.684 4.937.47 5.028zM213.818 306.24c.2.016.271 2.051.143 4.543-.128 2.491-.385 4.511-.598 4.496-.2-.015-.271-2.051-.143-4.542.128-2.491.385-4.512.598-4.497zM226.028 308.879c.2.107-.684 2.112-.912 4.785-.256 2.658.257 4.815.043 4.876-.171.091-1.054-2.112-.783-4.952.256-2.84 1.496-4.83 1.652-4.709zM235.46 310.427c.213.046-.114 2.188-.1 4.832 0 2.644.342 4.787.142 4.832-.185.061-.869-2.081-.883-4.832-.014-2.75.655-4.893.841-4.832zM247.256 319.804c-.214-.015-.214-2.309-.598-5.073-.356-2.779-.941-4.981-.741-5.057.185-.076 1.097 2.081 1.467 4.951.385 2.855.057 5.209-.128 5.179zM259.666 318.86c-.214-.045.042-2.172-.328-4.724-.342-2.568-1.168-4.527-.969-4.634.157-.106 1.339 1.793 1.696 4.512.384 2.719-.214 4.907-.399 4.846zM271.904 316.067c-.214 0-.271-2.172-.855-4.74-.57-2.567-1.439-4.527-1.24-4.633.157-.107 1.368 1.762 1.966 4.451.599 2.689.314 4.937.129 4.922zM282.204 313.106c-.228-.03-.014-2.233-.769-4.786-.713-2.553-2.038-4.269-1.867-4.421.114-.168 1.795 1.443 2.579 4.193.798 2.735.228 5.075.057 5.014zM291.294 309.517c-.214-.03-.014-2.294-.627-4.968-.584-2.674-1.752-4.588-1.567-4.724.142-.137 1.653 1.686 2.294 4.542.641 2.841.085 5.196-.1 5.15zM326.398 190.448c0 .015-.128.046-.384.076-.299.045-.684.091-1.14.152-1.069.121-2.536.304-4.417.532-1.909.228-4.259.486-6.995.714-2.735.243-5.827.547-9.275.759-6.881.517-15.073.897-24.191 1.11-9.118.152-19.134.091-29.648-.335a522.692 522.692 0 0 1-29.591-2.188c-9.075-.972-17.211-2.066-24.035-3.16-3.419-.501-6.482-1.079-9.189-1.55a177.958 177.958 0 0 1-6.91-1.307c-1.852-.379-3.305-.683-4.36-.896-.455-.106-.826-.182-1.125-.258-.256-.061-.385-.107-.385-.107 0-.015.143 0 .399.031.299.045.67.106 1.14.182 1.054.182 2.522.441 4.374.76 1.895.349 4.217.759 6.924 1.17 2.707.425 5.784.972 9.189 1.428 6.824 1.033 14.959 2.051 24.021 2.993 9.061.882 19.048 1.656 29.548 2.127 10.5.426 20.501.517 29.605.396 9.104-.168 17.296-.487 24.163-.927 3.434-.167 6.539-.456 9.275-.638 2.735-.183 5.072-.396 6.995-.578 1.881-.167 3.362-.289 4.417-.38.47-.03.855-.06 1.154-.076.313-.045.441-.045.441-.03z" fill="#263238"/><path opacity=".2" d="M230.245 271.279c-2.806-1.109-5.727-2.309-7.793-4.618-2.065-2.31-3.02-6.108-1.339-8.751 1.396-2.188 4.146-2.963 6.625-2.78 2.479.197 4.844 1.169 7.266 1.747 7.195 1.701 15.088-.304 20.786-5.287 4.189-3.677 7.124-8.721 11.013-12.747 1.226-1.261 2.679-2.476 4.374-2.613 2.949-.228 5.314 3.099 5.314 6.259s-1.695 6.017-3.519 8.508c-10.4 14.144-27.653 22.212-44.465 20.784M202.863 296.879c11.739 7.809 25.929 10.574 39.763 10.346 13.834-.227 27.468-3.266 41.003-6.304 1.225-.274 2.536-.593 3.419-1.535.898-.942 1.112-2.735.114-3.54-24.875 11.592-54.466 11.015-78.942-1.534-1.396-.714-2.949-1.489-4.46-1.064-1.496.441-2.436 2.811-1.182 3.783" fill="#000"/><path d="M322.823 349.077l-66.092 15.115-5.941-24.2 24.462-1.261s2.935-5.104 6.34-4.724c3.405.379 5.841 4.937 8.348 5.165 2.494.228 33.623-4.603 32.883 9.905zM175.167 178.136c-.385.638 151.645 10.999 151.645 10.999s-12.523-41.034-60.407-43.631c-47.885-2.613-71.478-.593-91.238 32.632z" fill="#FFBE9D"/><path d="M267.003 149.907c.299-10.741.812-22.044.812-22.044s12.908-1.883 16.028-19.855c2.977-17.137 1.353-57 1.353-57-18.293-8.736-40.333-4.042-53.925 11.47l-1.125 87.307c-.128 10.133 7.85 18.352 17.923 18.459 10.172.106 18.649-8.113 18.934-18.337z" fill="#FFBE9D"/><path d="M266.96 98.3c0-.137 1.439-.365 3.775-.608.599-.045 1.154-.152 1.268-.592.157-.456-.085-1.154-.341-1.899-.513-1.564-1.055-3.19-1.625-4.906-2.251-6.973-3.861-12.715-3.604-12.806.256-.09 2.294 5.484 4.545 12.471.541 1.717 1.054 3.358 1.553 4.937.199.73.57 1.565.242 2.507-.171.47-.613.805-.997.896-.385.106-.713.106-1.012.121-2.337.061-3.79.03-3.804-.121z" fill="#263238"/><path d="M267.815 127.852s-11.298.41-22.282-7.186c0 0 5.129 12.579 21.954 11.44l.328-4.254zM265.835 104.288a4.047 4.047 0 0 0-3.69-1.793c-1.012.076-2.037.577-2.664 1.428-.627.866-.798 2.112-.257 2.963.599.972 1.895 1.23 3.006.926 1.112-.303 2.08-1.048 3.006-1.807.257-.213.513-.426.684-.715.157-.288.2-.683.015-.926" fill="#EB996E"/><path d="M260.108 99.805c.37-.015.313 2.689 2.407 4.679 2.095 1.99 4.787 1.777 4.787 2.157.029.167-.612.501-1.738.501-1.111 0-2.721-.425-4.003-1.655-1.283-1.216-1.81-2.811-1.867-3.92-.057-1.124.243-1.777.414-1.762zM259.609 82.654c.071.076-.257.577-1.026 1.124a5.859 5.859 0 0 1-3.419 1.078c-1.425-.015-2.664-.561-3.405-1.123-.755-.563-1.069-1.079-1.012-1.14.114-.197 1.81 1.474 4.417 1.489 2.607.015 4.331-1.61 4.445-1.428zM283.216 82.76c.057.076-.242.486-.926.911-.67.425-1.738.79-2.949.775-1.211-.03-2.266-.456-2.921-.912-.655-.455-.94-.88-.883-.956.128-.182 1.624 1.048 3.818 1.078 2.194.076 3.747-1.093 3.861-.896zM260.52 73.007c-.17.653-2.293.562-4.772.881-2.494.289-4.545.881-4.844.304-.314-.547 1.61-2.294 4.587-2.659 2.978-.365 5.215.866 5.029 1.474zM283.301 75.347c-.37.547-2.18-.197-4.388-.744-2.208-.593-4.132-.805-4.231-1.474-.114-.623 2.066-1.535 4.744-.836 2.707.669 4.26 2.553 3.875 3.054z" fill="#263238"/><path d="M288.601 49.627c-2.735-4.604-7.935-6.7-12.865-8.174a114.365 114.365 0 0 0-15.572-3.464c-3.22-.47-6.568-.805-9.659.274a9.186 9.186 0 0 0-1.055.44c-7.436-.09-13.093 1.96-17.395 5.181-2.28 1.474-4.246 3.312-5.485 5.59-1.767 2.416-3.149 5.06-4.217 7.78-5.001 9.327-11.597 22.331-12.495 29.137-1.41 10.772.67 22.196 5.67 31.099a40.43 40.43 0 0 0 4.431 6.365c-2.863 2.735-4.758 6.624-5.086 10.711-.356 4.329 1.04 8.781 3.69 12.077-1.966 1.732-3.434 4.087-4.018 6.731-1.082 5.043 1.14 10.695 5.272 13.399.242.167.498.304.755.441a7.422 7.422 0 0 0-.656.714c-1.666 2.096-2.265 4.998-1.966 7.732.3 2.735 1.425 5.287 2.835 7.581 1.368 2.188 3.292 4.33 5.756 4.497.342.03.684 0 1.012-.061-1.924.912-3.334 3.069-3.362 5.333-.043 2.582 1.709 5.074 4.046 5.773.826.243 1.738.304 2.393.896.656.593.855 1.595.755 2.492-.114.896-.498 1.731-.883 2.552 1.254-.137 2.379-1.155 2.707-2.461 0 .85-.014 1.701-.014 2.567 1.88-1.23 3.077-3.372 3.789-5.606.713-2.233.998-4.679.527-6.988-.47-2.309-1.795-4.467-3.732-5.636a6.053 6.053 0 0 0-3.006-.851 8.582 8.582 0 0 0 1.894-3.646c.699-3.039.015-6.214-.698-9.252-.441-1.838-.911-3.692-1.837-5.317a8.881 8.881 0 0 0-1.069-1.474c1.239-1.428 2.037-3.373 2.479-5.302.841-3.722.67-7.854-1.254-11.075-.185-.319-.413-.608-.627-.896 1.34-1.626 1.852-3.996 2.209-6.199.527-3.145.997-6.32.826-9.51 1.695-1.474 3.718-3.798 5.058-7.353 5.2-12.047-.869-29.108-.869-29.108 8.861-9.359 10.542-27.179 10.713-37.707 1.539 2.279 3.42 4.3 5.614 5.864 1.595 1.155 3.476 2.112 5.385 1.838 1.909-.273 3.704-2.218 3.291-4.223 1.14 2.31 2.322 4.649 4.06 6.487 1.739 1.838 4.161 3.114 6.583 2.795 2.422-.334 4.658-2.643 4.487-5.24 1.397 2.096 2.992 4.162 5.172 5.256 2.18 1.093 5.072.941 6.682-.973 1.225-1.473 1.453-3.585 1.61-5.545.456-5.302.798-11.045-1.881-15.541z" fill="#263238"/><path d="M220.315 115.347c-.028.015-.114-.182-.27-.577-.157-.395-.328-1.003-.456-1.808-.243-1.61-.129-4.056.926-6.775 1.011-2.735 3.063-5.545 5.642-8.174 2.578-2.658 5.556-5.362 8.006-8.841 4.944-6.973 7.494-14.554 9.304-19.932.826-2.628 1.51-4.8 2.037-6.456.484-1.52.769-2.37.812-2.34.043.015-.142.881-.541 2.43-.399 1.55-.998 3.799-1.824 6.533-1.681 5.439-4.174 13.126-9.218 20.236-2.507 3.555-5.556 6.29-8.121 8.887-2.578 2.582-4.601 5.256-5.641 7.869-1.083 2.598-1.268 4.953-1.126 6.517.185 1.58.542 2.401.47 2.431zM228.863 147.996c-.014.046-.37-.076-.968-.38-.599-.304-1.439-.82-2.408-1.58-1.909-1.504-4.26-4.193-5.613-7.87-1.354-3.676-1.368-7.353-.927-9.845.214-1.261.499-2.248.741-2.901.243-.654.428-1.003.47-.988.129.046-.413 1.504-.698 3.965-.299 2.446-.199 5.956 1.097 9.465 1.297 3.51 3.477 6.153 5.258 7.718 1.78 1.626 3.105 2.294 3.048 2.416zM227.995 150.651c.028.091-.627.395-1.781.456-1.14.06-2.75-.228-4.289-1.139-1.524-.926-2.607-2.248-3.134-3.311-.541-1.078-.627-1.837-.556-1.852.114-.046.385.638.998 1.564.612.926 1.652 2.065 3.063 2.931 1.41.85 2.863 1.199 3.932 1.275 1.069.061 1.738-.045 1.767.076zM222.082 164.599c-.057-.121.669-.547 1.638-1.504.969-.941 2.109-2.46 2.85-4.435.74-1.975.897-3.919.812-5.301-.086-1.398-.328-2.248-.214-2.294.071-.03.499.775.727 2.233.227 1.443.142 3.554-.642 5.666-.797 2.096-2.094 3.691-3.205 4.557-1.111.896-1.938 1.154-1.966 1.078zM228.878 165.65c.086.045-.028.592-.541 1.29a4.593 4.593 0 0 1-2.75 1.761 4.518 4.518 0 0 1-3.177-.547c-.727-.44-1.026-.911-.955-.971.072-.091.485.197 1.183.47.698.273 1.724.501 2.807.273 1.082-.227 1.966-.834 2.507-1.366.556-.531.826-.956.926-.91zM230.075 185.231c-.214.091-1.525-4.208-4.46-8.705-2.906-4.527-6.197-7.353-6.041-7.535.057-.076.955.531 2.237 1.732 1.282 1.2 2.921 3.053 4.417 5.347 1.482 2.309 2.522 4.603 3.12 6.305.598 1.717.812 2.841.727 2.856zM232.254 185.795c.1.182-.826.956-2.179 1.472-1.34.515-2.522.576-2.551.364-.042-.213 1.026-.607 2.294-1.108 1.282-.5 2.322-.925 2.436-.728zM212.665 113.022c-.029 0-.086-.243-.171-.714a49.893 49.893 0 0 1-.342-2.096c-.257-1.823-.656-4.466-.698-7.793-.029-3.297.341-7.383 2.251-11.364a15.85 15.85 0 0 1 4.145-5.347c1.781-1.504 3.861-2.659 5.998-3.737 2.137-1.094 4.232-2.066 6.112-3.282a32.825 32.825 0 0 0 5.087-3.995 35.752 35.752 0 0 0 6.681-8.918c2.992-5.742 3.462-9.904 3.648-9.844.028 0 0 .259-.072.745a19.778 19.778 0 0 1-.413 2.08c-.427 1.794-1.225 4.36-2.692 7.293-1.454 2.932-3.648 6.198-6.682 9.19a32.03 32.03 0 0 1-5.186 4.133c-1.924 1.26-4.046 2.248-6.169 3.327-2.123 1.078-4.146 2.203-5.856 3.63a15.138 15.138 0 0 0-3.989 5.075c-1.866 3.798-2.294 7.778-2.336 11.029-.029 3.266.285 5.925.456 7.748.085.835.142 1.534.199 2.111.043.471.057.729.029.729zM263.441 55.277c.014.046-.228.259-.755.517-.527.273-1.354.516-2.394.577-2.08.122-5.057-.881-7.308-3.327-2.223-2.446-3.348-5.318-4.075-7.324-.698-2.036-1.026-3.327-.926-3.357.1-.046.598 1.185 1.425 3.145.826 1.93 2.009 4.68 4.117 6.974 2.109 2.279 4.844 3.297 6.782 3.327 1.951.06 3.077-.684 3.134-.532zM273.357 59.487c.014.076-.769.35-2.094.273-1.311-.06-3.149-.607-4.816-1.853-1.667-1.26-2.75-2.916-3.262-4.207-.513-1.307-.542-2.188-.456-2.203.128-.03.327.79.94 1.96a11.42 11.42 0 0 0 3.22 3.812c1.553 1.155 3.22 1.747 4.445 1.945 1.211.197 2.009.136 2.023.273z" fill="#455A64"/></svg>