<svg width="488" height="468" fill="none" xmlns="http://www.w3.org/2000/svg"><g clip-path="url(#clip0)"><path opacity=".1" fill-rule="evenodd" clip-rule="evenodd" d="M122.031 332.809s-6.557 69.71 67.341 75.769c73.899 6.077 92.111-71.546 141.205-69.332 49.111 2.214 69.522-25.834 39.722-76.92-29.8-51.085-26.35-82.292-19.277-101.621 15.964-43.635-14.746-84.627-109.741-46.742-94.978 37.885-118.512 150.44-119.25 218.846z" fill="#0079C8"/><path d="M190.591 68.474s-56.698 2.352-49.54 72.697c0 0-25.474 27.431-16.085 74.396 9.373 46.982 45.249 32.271 66.071 11.261 19.38-19.518-.446-158.354-.446-158.354z" fill="#6D280A"/><path fill-rule="evenodd" clip-rule="evenodd" d="M280.162 148.895s-21.217 41.25-22.539 42.142c-1.322.893-11.827 4.755-11.364 12.771.464 8 2.283 17.595 6.352 20.393 4.051 2.781 18.041 12.342 27.551 2.661 9.527-9.699 14.007-21.818 16.771-40.082 2.763-18.264 3.845-37.061 2.883-37.867-.961-.842-19.654-.018-19.654-.018z" fill="#511A07"/><path fill-rule="evenodd" clip-rule="evenodd" d="M307.919 134.819s23.225 96.266-24.925 89.365h-12.737s14.865-36.803 9.081-69.281c-5.785-32.477 2.042-62.277 3.656-62.277 1.613 0 14.368 6.489 16.822 9.87 2.455 3.382 4.549 15.518 4.549 15.518l3.554 16.805z" fill="#6D280A"/><path fill-rule="evenodd" clip-rule="evenodd" d="M276.814 213.438c-61.436 9.03 18.402 153.445 30.212 173.803 12.376 21.354 32.083 17.939 44.013 4.687-4.995-26.367-12.789-187.519-74.225-178.49z" fill="#fff"/><path d="M187.312 128.434s-7.175 84.833-33.284 108.745c-26.109 23.911 44.511 11.398 44.511 11.398s10.66-10.952 20.238-19.449c9.561-8.497 18.299-29.285 18.299-29.285l-5.562-46.553s-13.475-16.531-18.264-20.942c-4.79-4.412-13.613-11.038-14.711-10.66-1.099.36-11.227 6.746-11.227 6.746z" fill="#511A07"/><path d="M193.99 152.208s3.45 39.722-2.06 58.844c-5.51 19.123 50.021 7.176 51.857 6.249 1.837-.927 10.008-3.468 8.961-10.832-1.047-7.381-8.961-33.593-8.961-33.593l-18.779-16.926-31.018-3.742z" fill="#511A07"/><path d="M290.89 59.342zM290.118 58.775c-.035-.034-.086-.051-.12-.085.034.034.068.068.12.085zM291.216 59.582a3.973 3.973 0 0 0-.326-.24c.103.086.223.154.326.24z" fill="#2E333B"/><path d="M234.775 200.341c-19.86 1.184-42.519 5.922-51.874 10.557-9.356 4.635-24.994 18.178-26.71 20.805-2.712 4.12-.292 90.995-5.201 122.168-4.91 31.173-18.591 47.996-12.686 55.995 10.712 14.522 105.998 23.431 127.353 21.199 26.057-2.729 51.033-17.182 55.531-28.478 2.454-6.162-11.57-72.164-15.467-93.604-3.896-21.44-12.067-89.073-19.088-93.399-7.021-4.343-38.279-16.067-51.858-15.243z" fill="#A7D59D"/><path fill-rule="evenodd" clip-rule="evenodd" d="M281.535 224.854c1.013-1.751 1.648-6.712 2.06-10.883-8.514-4.137-27.448-11.038-40.752-13.081 1.871 10.197 4.927 21.99 4.446 25.354-2.266 15.913-38.022 59.102-56.921 81.674-30.401 36.306 11.724 80.199 34.468 31.088l29.011-62.621v-.069c7.501-15.672 19.242-41.455 19.809-42.571.635-1.321 6.128-5.853 7.879-8.891z" fill="#81A47A"/><path d="M208.598 414.844c-18.608-15.089-22.196-30.521-15.947-35.31 6.248-4.789 16.548 2.575 32.374-16.925 15.81-19.501 45.077-105.003 45.077-105.003l-17.835 4.72-32.649-21.955-21.8 19.621-23.929-42.674s-1.03.463-2.73 1.236c-7.158 5.407-13.87 11.484-14.968 13.149-2.712 4.12-.292 90.995-5.201 122.168-4.91 31.173-18.591 47.996-12.686 55.995 10.712 14.522 105.998 23.431 127.353 21.199 6.694-.703 13.303-2.18 19.534-4.188-.532.034-58.089 2.987-76.593-12.033z" fill="#81A47A"/><path d="M210.537 172.378c-1.029 5.802 5.665 44.391 8.652 49.489 2.987 5.081 20.256 8.411 32.186 1.596 3.484-1.991 3.656-50.415 3.656-50.415l-44.494-.67z" fill="#D68982"/><path fill-rule="evenodd" clip-rule="evenodd" d="M187.209 130.717c-.309.051-.618.12-.927.189h-.017c-5.63 1.407-9.733 6.54-9.613 12.582.138 7.021 5.957 12.6 12.978 12.445 7.02-.137 12.599-5.939 12.462-12.96a12.692 12.692 0 0 0-5.115-9.939c.48 3.742.051 8.394-4.721 9.046l-.137-7.329c-.052-2.936-2.884-4.189-4.91-4.034z" fill="#D68982"/><path fill-rule="evenodd" clip-rule="evenodd" d="M232.904 66.431c23.947-.927 35.053 28.324 45.215 41.782 10.162 13.457 1.528 39.549 1.528 39.549.927 23.912-17.904 44.236-41.833 45.18-23.929.927-44.271-17.869-45.198-41.781l-1.527-39.55c-.944-23.929 17.886-44.253 41.815-45.18z" fill="#E7BAA8"/><path fill-rule="evenodd" clip-rule="evenodd" d="M278.119 108.213c-3.674-4.858-7.484-11.793-11.965-18.625-4.051-.996-8.617-2.163-13.131-3.948-11.673-4.618-28.152-6.214-44.58-10.454-11.003 8.308-17.938 21.68-17.371 36.408l1.527 39.55c.103 2.523.429 4.995.944 7.399.996-.086 2.095-.447 3.313-1.133 21.887-12.188 20.119-53.884 20.119-53.884s4.875 11.347 26.606 16.239c21.732 4.892 37.319-6.403 37.353-6.42-.721-1.837-1.631-3.57-2.815-5.132z" fill="#D68982"/><path d="M254.19 148.981s-2.317-7.261-4.721-8.909c-2.386-1.648-2.935 10.3-1.836 12.96 1.115 2.678 8.067 2.558 6.557-4.051z" fill="#D68982"/><path fill-rule="evenodd" clip-rule="evenodd" d="M279.115 156.517s-11.21-8.634-28.358-9.235c-17.149-.601-53.883 10.128-53.883 10.128s-2.301-1.854-2.85 3.124c-.549 4.978 5.356 18.951 19.483 28.907 14.145 9.956 25.199 7.003 35.894 5.407 10.694-1.596 29.096-22.727 30.692-36.031 0 0 .395-1.974-.738-3.914l-.24 1.614z" fill="#C4F7F1"/><path fill-rule="evenodd" clip-rule="evenodd" d="M249.383 194.848c7.296-1.082 18.162-11.261 24.856-21.852-1.407-2.712-2.986-5.356-4.085-6.111-2.489-1.734-12.943-4.6-16.342-3.09-3.381 1.511-27.516 13.664-29.714 13.51-2.214-.138-7.587-4-6.488-6.077 1.098-2.077 31.859-13.664 37.421-12.668 5.562.995 17.612 3.742 16.05 2.832-1.562-.927-14.625-6.626-17.286-6.54-2.661.068-4.892 1.219-20.204 5.853-15.329 4.635-28.993 7.141-31.499 3.279-2.506-3.862 4.137-9.115 4.137-9.115-5.631 1.459-9.373 2.558-9.373 2.558s-2.3-1.854-2.849 3.124c-.549 4.978 5.356 18.951 19.483 28.907 14.144 9.939 25.216 6.986 35.893 5.39z" fill="#A3E5DB"/><path fill-rule="evenodd" clip-rule="evenodd" d="M229.282 44.39c-36.494 1.494-38.674 24.084-38.674 24.084-41.095 2.85-38.777 49.798-20.547 71.564l7.295-.961s2.815-6.832 8.978-7.09c6.162-.257 5.956 10.694 5.956 10.694s23.088-22.435 17.492-50.553c22.144 19.26 30.143 29.371 70.877 20.548 18.66 19.122 2.352 48.029 2.352 48.029l24.908-25.903c12.204-79.614-42.159-91.905-78.637-90.412z" fill="#6D280A"/><path d="M212.134 189.836s-5.682 2.437-5.888 6.128c-.206 3.69 2.918 7.003 2.953 9.269.034 2.266-2.575 10.42 1.253 14.917 3.828 4.498 12.101 9.476 27.465 8.926 15.363-.549 17.474-6.986 18.213-15.449.738-8.462-.275-8.462.738-12.222 1.012-3.776 1.665-5.647-2.197-7.141-22.745 17.355-42.537-4.428-42.537-4.428z" fill="#A7D59D"/><path d="M256.095 213.644c.738-8.462-.274-8.462.738-12.222.824-3.038 1.356-4.84-.48-6.214.583 2.541-.635 3.468-2.644 5.562-2.025 2.112-1.922 3.588.275 9.201 2.18 5.527-1.288 13.99-1.391 14.23 2.438-2.746 3.142-6.402 3.502-10.557z" fill="#8BB2C0"/><path d="M213.25 217.232c-.189-1.837-4.223-10.419 7.535-8.926 11.776 1.493 18.024-2.764 12.686-2.026-5.339.738-17.372-.652-22.625-5.424-5.235-4.789-1.407-9.458-1.407-9.458-1.511 1.081-3.107 2.66-3.21 4.583-.206 3.691 2.918 7.004 2.952 9.269.035 2.266-2.574 10.42 1.253 14.917 3.485 4.12 10.712 8.6 23.603 8.927-10.179-1.665-20.599-10.042-20.787-11.862z" fill="#81A47A"/><path fill-rule="evenodd" clip-rule="evenodd" d="M209.782 92.128s9.081 53.609-20.41 71.324c-21.406 12.857-33.748-14.608-33.748-14.608l9.441-29.731s12.137-15.175 17.098-18.488c4.978-3.313 27.619-8.497 27.619-8.497z" fill="#6D280A"/><path fill-rule="evenodd" clip-rule="evenodd" d="M193.681 223.017c-3.777-5.957-9.218-12.823-9.218-12.823s9.355-29.851 2.472-51.652c4.634-4.154 10.557-11.209 13.389-21.766 3.811-14.247 1.39-33.73 0-42.296-.275.069-.549.154-.841.223-.447 12.84-3.622 49.231-25.303 60.166 0 0 5.253 37.335-22.624 44.974-22.487 6.163-27.345-6.78-28.375-11.999-.635 8.274-.24 17.544 1.803 27.74 9.372 46.983 45.248 32.272 66.07 11.261.962-.979 1.837-2.283 2.627-3.828z" fill="#511A07"/><path d="M220.15 134.837c-1.905 0-3.21-.447-3.33-.498a2.2 2.2 0 1 1 1.459-4.154c.223.068 4.583 1.442 8.429-3.193.772-.944 2.162-1.064 3.107-.292.944.773 1.064 2.163.291 3.107-3.416 4.137-7.278 5.03-9.956 5.03zM273.845 134.837c-2.678 0-6.523-.893-9.956-5.03-.773-.944-.653-2.334.291-3.107.944-.772 2.335-.652 3.107.292 3.931 4.738 8.36 3.21 8.412 3.193a2.199 2.199 0 0 1 2.815 1.339 2.199 2.199 0 0 1-1.339 2.815c-.138.034-1.425.498-3.33.498zM231.377 141.36a4.6 4.6 0 1 1-9.202-.002 4.6 4.6 0 0 1 9.202.002zM273.192 141.36a4.6 4.6 0 1 1-9.201-.001 4.6 4.6 0 0 1 9.201.001z" fill="#6D280A"/><path fill-rule="evenodd" clip-rule="evenodd" d="M263.528 168.087s-17.252 5.218-21.045 7.278c-3.794 2.06-5.785 6.815-4.086 17.629 1.7 10.814 5.614 25.182 5.064 28.959-2.266 15.912-38.022 59.101-56.921 81.674-30.401 36.306 11.724 80.198 34.469 31.087l29.01-62.62v-.069c7.501-15.672 19.242-41.455 19.809-42.571.652-1.305 6.128-5.836 7.896-8.875 1.751-3.038 2.386-15.826 2.678-17.217.275-1.39 5.356-3.948 6.18-5.51.824-1.562.738-4.824.618-5.819-.121-.996-4.24-3.691-4.24-3.691s-2.043-5.871-3.537-6.643c-1.51-.772-3.759-.824-3.759-.824s-1.665-5.974-3.193-6.969c-1.527-.996-4.068-1.013-4.068-1.013s-1.236-4.978-4.875-4.806z" fill="#E7BAA8"/><path fill-rule="evenodd" clip-rule="evenodd" d="M269.673 225.369c-4.394 1.493-13.904.36-11.827 1.768 2.077 1.407 5.407 1.373 3.347 5.321-2.059 3.948-4.583 6.008-4.583 6.008s-5.544-6.386-11.243-7.69a12.982 12.982 0 0 0-4.961-.172c-1.356 2.833-3.124 5.957-5.184 9.304 1.648 2.523 5.218 6.969 6.694 8.634 1.494 1.683 11.484 3.897 16.823 4.824 5.596-12.033 10.694-23.225 11.054-23.946.653-1.305 6.129-5.837 7.897-8.875 1.751-3.038 2.386-15.827 2.678-17.217 0 0-6.3 20.547-10.695 22.041z" fill="#D68982"/><path fill-rule="evenodd" clip-rule="evenodd" d="M265.416 244.955c4.91 2.145 7.107 7.879 4.686 12.651-11.106 21.852-39.052 74.962-56.664 91.785-12.891 12.325-32.803 14.247-43.549-7.965-10.248-21.2-51.514-111.251 6.489-130.374 25.405-8.376 22.933 46.331 25.937 73.006 0 0 9.991-18.831 12.394-29.628 2.403-10.797 8.857-23.963 13.852-25.714 8.875-3.124 21.32 9.475 36.855 16.239z" fill="#fff"/><path fill-rule="evenodd" clip-rule="evenodd" d="M282.925 188.325s-.412-1.184-.995-2.54c0 0 .635 1.201-4.086 3.227-4.738 2.025-9.63 4.806-9.441 5.287.189.48 14.059-4.395 15.14-4.584 1.03-.171 1.597.206 1.665.258-1.098-.875-2.283-1.648-2.283-1.648zM264.695 172.704c-3.639 1.253-11.947 4.738-11.569 5.596.377.859 14.539-4.943 17.028-5.218-.979-.189-1.802-.189-1.802-.189s-.447-1.82-1.597-3.227c.069.086 1.494 1.819-2.06 3.038zM260.541 186.866c.24.378 14.437-5.133 17.046-5.785-1.047-.206-1.974-.24-1.974-.24s-.378-1.339-.927-2.85c.103.361.103 1.906-5.339 4.051-6.248 2.472-9.046 4.446-8.806 4.824z" fill="#D68982"/><path d="M289.397 165.889l19.757-12.582 5.614 7.518 18.024-3.759-19.483 16.05-7.553-9.904-16.359 2.677zM292.555 173.03l16.668.738.206 6.678 12.05 5.184-17.938 1.408-.36-8.875-10.626-5.133z" fill="#fff"/><path fill-rule="evenodd" clip-rule="evenodd" d="M270.257 63.376C256.37 58.14 273.896 75.237 274.239 86c.344 10.763-20.427-2.214-20.427-2.214s3.468 10.213 10.179 12.685c6.729 2.49-23.62 11.415-50.656-4.36 0 0 23.397 20.376 41.696 21.183 18.299.806 28.032-8.824 28.032-8.824l-2.146 8.858c5.459 14.024-1.27 34.417-1.27 34.417.085 2.352-.069 4.669-.344 6.935.017.069.017.137.035.206 0 0 11.072-24.204 11.157-44.339.086-20.135-6.351-41.919-20.238-47.171z" fill="#511A07"/><path fill-rule="evenodd" clip-rule="evenodd" d="M261.605 99.475c-32.683 3.021-60.131-18.71-63.29-25.062 0 0 4.635 11.707 11.484 17.715 21.681 18.865 29.834 28.942 68.423 21.063 3.999-.515 7.398-.515 7.398-.704 0-.412.138-10.763.138-10.763l-8.171.755c0 .017 16.685-6.025-15.982-3.004z" fill="#511A07"/><path fill-rule="evenodd" clip-rule="evenodd" d="M198.933 155.006c13.27-16.616 12.755-43.566 11.656-56.097-.086-1.991-.326-4-.687-6.06-5.132-9.561-11.26-16.136-11.587-18.436 0 0 6.489 59.926-24.135 80.439l8 27.585s11.552-19.637 11.844-21.903c0 0 2.06-1.974 4.927-5.287 0-.086 0-.155-.018-.241z" fill="#511A07"/></g><path d="M337.408 385.428s.601-21.097 2.283-23.105c1.683-2.009 6.952 20.599 6.678 23.294-.292 2.695-7.742 6.626-8.961-.189zM317.256 410.318s-19.5-8.085-20.771-10.368c-1.27-2.283 21.715.824 24.135 2.06 2.421 1.236 3.433 9.596-3.364 8.308zM350.866 443.877s-1.098 21.079-2.815 23.036c-1.733 1.957-6.488-20.753-6.128-23.431.326-2.695 7.862-6.437 8.943.395zM368.89 419.021s19.174 8.823 20.359 11.141c1.184 2.317-21.68-1.665-24.049-2.987-2.369-1.305-3.056-9.682 3.69-8.154z" fill="#005389"/><path d="M343.846 452.528c21.302 0 38.571-17.269 38.571-38.571s-17.269-38.571-38.571-38.571c-21.303 0-38.572 17.269-38.572 38.571s17.269 38.571 38.572 38.571z" fill="#0079C8"/><path d="M311.608 392.826c4.875.343 12.909-1.133 12.909-1.133l-5.476-7.244a38.44 38.44 0 0 0-7.433 8.377zM328.414 440.53l-6.781 4.909a37.971 37.971 0 0 0 8.703 4.583c1.15-7.106-1.922-9.492-1.922-9.492zM308.398 424.857s-.686.224-1.407.481c1.03 3.347 2.54 6.489 4.394 9.373 2.644-2.455 6.712-7.107 6.712-7.107l-9.699-2.747zM366.968 441.422l-6.249-.892s-.377 2.437.481 7.827c2.558-1.287 4.961-2.815 7.141-4.617l-1.373-2.318zM363.964 381.119c-.275.326-.447.601-.429.773.068.566 2.025 6.54 2.025 6.54s2.953-1.236 4.824-2.386a37.333 37.333 0 0 0-6.42-4.927zM375.345 410.507c-.704.566-1.786 4.875-1.786 4.875s5.82 1.871 8.6 2.832a38.15 38.15 0 0 0 .241-4.24c0-1.27-.069-2.523-.189-3.759-2.747-.051-6.214-.223-6.866.292z" fill="#005389"/><path d="M358.454 382.973s12.96-16.668 15.5-17.286c2.541-.618-6.557 20.719-8.377 22.728-1.836 2.025-10.162.789-7.123-5.442zM367.174 436.942s16.153 13.595 16.668 16.153c.515 2.558-20.462-7.347-22.384-9.252-1.94-1.906-.378-10.162 5.716-6.901zM373.285 406.421s21.096-.48 23.191 1.099c2.077 1.579-20.204 8.016-22.917 7.862-2.712-.155-7.003-7.381-.274-8.961zM328.791 445.457s-12.96 16.667-15.501 17.285c-2.54.618 6.558-20.719 8.377-22.727 1.837-2.008 10.162-.772 7.124 5.442zM320.071 391.487s-16.153-13.595-16.668-16.153c-.515-2.557 20.462 7.347 22.384 9.253 1.923 1.905.378 10.179-5.716 6.9zM315.144 429.303s-21.096.481-23.19-1.099c-2.077-1.579 20.204-8.016 22.916-7.861 2.712.154 7.003 7.381.274 8.96z" fill="#0079C8"/><path d="M324.929 410.576a4.546 4.546 0 0 1-4.549-4.549c0-7.999 6.506-14.522 14.522-14.522a4.545 4.545 0 0 1 4.549 4.549 4.545 4.545 0 0 1-4.549 4.548 5.407 5.407 0 0 0-5.407 5.408 4.564 4.564 0 0 1-4.566 4.566zM351.536 401.032a4.652 4.652 0 1 0 0-9.305 4.652 4.652 0 0 0 0 9.305zM339.142 406.971a2.754 2.754 0 0 1-2.746 2.746 2.755 2.755 0 0 1-2.747-2.746 2.755 2.755 0 0 1 2.747-2.747 2.744 2.744 0 0 1 2.746 2.747zM351.536 433.87a2.755 2.755 0 0 1-2.747 2.746 2.754 2.754 0 0 1-2.746-2.746 2.755 2.755 0 0 1 2.746-2.747 2.744 2.744 0 0 1 2.747 2.747zM358.745 429.646a4.545 4.545 0 0 1-4.549-4.548 4.546 4.546 0 0 1 4.549-4.549 3.063 3.063 0 0 0 3.056-3.056 3.062 3.062 0 0 0-3.056-3.055 4.546 4.546 0 0 1-4.549-4.549 4.546 4.546 0 0 1 4.549-4.549c6.712 0 12.171 5.459 12.171 12.17.017 6.661-5.459 12.136-12.171 12.136zM336.842 425.081a7.626 7.626 0 0 1-7.622 7.621 7.626 7.626 0 0 1-7.621-7.621 7.626 7.626 0 0 1 7.621-7.622 7.627 7.627 0 0 1 7.622 7.622zM353.784 417.459a7.626 7.626 0 0 1-7.621 7.622 7.627 7.627 0 0 1-7.622-7.622 7.627 7.627 0 0 1 7.622-7.622 7.626 7.626 0 0 1 7.621 7.622z" fill="#6AD3D1"/><path d="M32.972 214.198s.446-15.26 1.648-16.702c1.219-1.442 5.03 14.899 4.824 16.839-.207 1.94-5.597 4.772-6.472-.137zM18.398 232.205s-14.11-5.837-15.02-7.502c-.91-1.648 15.707.601 17.458 1.494 1.734.892 2.472 6.918-2.438 6.008zM42.705 256.46s-.79 15.243-2.043 16.668c-1.253 1.424-4.686-15.003-4.428-16.96.24-1.94 5.681-4.652 6.471.292zM55.734 238.487s13.87 6.369 14.728 8.068c.858 1.682-15.672-1.201-17.389-2.163-1.717-.944-2.214-7.02 2.66-5.905z" fill="#005389"/><path d="M65.158 239.316c2.48-15.206-7.835-29.543-23.04-32.023-15.206-2.48-29.543 7.836-32.023 23.041-2.48 15.205 7.835 29.542 23.04 32.022 15.206 2.481 29.543-7.835 32.023-23.04z" fill="#0079C8"/><path d="M14.313 219.536c3.536.241 9.338-.824 9.338-.824l-3.948-5.235a27.855 27.855 0 0 0-5.39 6.059zM26.466 254.04l-4.91 3.553a27.908 27.908 0 0 0 6.3 3.313c.825-5.133-1.39-6.866-1.39-6.866zM11.995 242.71s-.497.155-1.012.361a28.146 28.146 0 0 0 3.175 6.78c1.906-1.768 4.841-5.15 4.841-5.15l-7.003-1.991zM54.36 254.692l-4.531-.652s-.275 1.768.343 5.664c1.837-.927 3.588-2.042 5.167-3.347l-.978-1.665zM52.18 211.074c-.188.223-.326.429-.309.549.052.412 1.477 4.738 1.477 4.738s2.128-.893 3.484-1.734a29.248 29.248 0 0 0-4.652-3.553zM60.403 232.325c-.515.412-1.288 3.519-1.288 3.519s4.206 1.356 6.214 2.043c.104-1.013.172-2.026.172-3.056 0-.91-.051-1.819-.137-2.712-1.974-.034-4.498-.155-4.961.206z" fill="#005389"/><path d="M48.18 212.413s9.373-12.05 11.21-12.497c1.837-.446-4.738 14.986-6.06 16.445-1.321 1.442-7.33.549-5.15-3.948zM54.498 251.447s11.672 9.836 12.05 11.69c.378 1.854-14.797-5.321-16.187-6.694-1.39-1.374-.275-7.364 4.137-4.996zM58.927 229.372s15.26-.343 16.77.79c1.511 1.133-14.608 5.785-16.582 5.682-1.956-.103-5.063-5.339-.188-6.472zM26.74 257.61s-9.372 12.05-11.208 12.497c-1.837.446 4.737-14.986 6.06-16.445 1.321-1.442 7.329-.549 5.149 3.948zM20.424 218.575s-11.673-9.836-12.05-11.69c-.378-1.853 14.796 5.322 16.187 6.695 1.407 1.39.274 7.364-4.137 4.995zM16.87 245.92s-15.26.344-16.77-.789c-1.51-1.133 14.608-5.785 16.582-5.682 1.957.103 5.064 5.338.189 6.471z" fill="#0079C8"/><path d="M23.943 232.376a3.296 3.296 0 0 1-3.296-3.295c0-5.785 4.703-10.506 10.505-10.506a3.297 3.297 0 0 1 0 6.592 3.912 3.912 0 0 0-3.913 3.914 3.296 3.296 0 0 1-3.296 3.295zM43.186 225.476a3.365 3.365 0 1 0-.002-6.73 3.365 3.365 0 0 0 .002 6.73zM34.225 229.767a1.992 1.992 0 0 1-3.982 0c0-1.099.892-1.991 1.99-1.991 1.1.017 1.992.892 1.992 1.991zM43.186 249.233a1.992 1.992 0 0 1-3.983 0 1.992 1.992 0 0 1 3.983 0zM48.404 246.16a3.296 3.296 0 0 1 0-6.591 2.22 2.22 0 0 0 2.214-2.215 2.22 2.22 0 0 0-2.214-2.214 3.297 3.297 0 0 1 0-6.592c4.858 0 8.806 3.948 8.806 8.806 0 4.858-3.948 8.806-8.806 8.806zM32.56 242.865a5.517 5.517 0 0 1-5.51 5.51 5.516 5.516 0 0 1-5.51-5.51 5.517 5.517 0 0 1 5.51-5.511 5.517 5.517 0 0 1 5.51 5.511zM44.8 237.354a5.517 5.517 0 0 1-5.51 5.511 5.517 5.517 0 0 1-5.511-5.511 5.516 5.516 0 0 1 5.51-5.51 5.505 5.505 0 0 1 5.51 5.51z" fill="#6AD3D1"/><path d="M407.185 71.722s.446-15.26 1.648-16.702c1.201-1.442 5.029 14.9 4.823 16.84-.189 1.957-5.579 4.789-6.471-.138zM392.611 89.73s-14.11-5.837-15.02-7.502c-.91-1.648 15.707.6 17.457 1.493 1.751.893 2.49 6.935-2.437 6.008zM416.918 114.002s-.79 15.243-2.043 16.667c-1.253 1.425-4.686-15.002-4.429-16.959.258-1.957 5.699-4.652 6.472.292zM429.964 96.03s13.869 6.368 14.728 8.067c.858 1.682-15.673-1.201-17.389-2.163-1.717-.961-2.215-7.02 2.661-5.905z" fill="#005389"/><path d="M411.837 120.25c15.405 0 27.894-12.489 27.894-27.894 0-15.406-12.489-27.895-27.894-27.895-15.406 0-27.895 12.49-27.895 27.895s12.489 27.894 27.895 27.894z" fill="#0079C8"/><path d="M388.526 77.078c3.536.24 9.338-.824 9.338-.824l-3.948-5.235a28.275 28.275 0 0 0-5.39 6.06zM400.679 111.581l-4.91 3.553a27.932 27.932 0 0 0 6.3 3.313c.841-5.149-1.39-6.866-1.39-6.866zM386.208 100.252s-.498.154-1.013.36a28.16 28.16 0 0 0 3.176 6.781c1.905-1.768 4.841-5.15 4.841-5.15l-7.004-1.991zM428.573 112.234l-4.514-.635s-.275 1.768.343 5.664a27.782 27.782 0 0 0 5.167-3.347l-.996-1.682zM426.393 68.599c-.189.223-.326.429-.309.549.052.412 1.476 4.738 1.476 4.738s2.129-.893 3.485-1.734a29.526 29.526 0 0 0-4.652-3.553zM434.633 89.867c-.515.412-1.288 3.519-1.288 3.519s4.206 1.356 6.214 2.042c.103-1.012.172-2.025.172-3.055 0-.91-.052-1.82-.137-2.712-1.992-.052-4.498-.172-4.961.206z" fill="#005389"/><path d="M422.411 69.954s9.372-12.05 11.209-12.496c1.837-.447-4.738 14.985-6.06 16.445-1.321 1.441-7.346.549-5.149-3.949zM428.728 108.989s11.672 9.836 12.05 11.69c.378 1.854-14.797-5.321-16.187-6.694-1.408-1.391-.275-7.365 4.137-4.996zM433.139 86.897s15.261-.343 16.771.79c1.511 1.133-14.608 5.784-16.582 5.681-1.957-.085-5.064-5.321-.189-6.471zM400.954 115.135s-9.373 12.05-11.21 12.496c-1.836.447 4.738-14.985 6.06-16.445 1.339-1.441 7.347-.549 5.15 3.949zM394.654 76.117s-11.673-9.836-12.051-11.69c-.377-1.854 14.797 5.321 16.188 6.694 1.39 1.374.274 7.348-4.137 4.996zM391.083 103.462s-15.26.343-16.771-.79c-1.51-1.133 14.608-5.785 16.582-5.682 1.957.103 5.064 5.322.189 6.472z" fill="#0079C8"/><path d="M398.173 89.918a3.297 3.297 0 0 1-3.296-3.296c0-5.785 4.703-10.505 10.505-10.505a3.297 3.297 0 0 1 0 6.591 3.912 3.912 0 0 0-3.914 3.914 3.296 3.296 0 0 1-3.295 3.296zM417.416 83.017a3.364 3.364 0 1 0 0-6.728 3.364 3.364 0 0 0 0 6.728zM408.455 87.31a1.992 1.992 0 1 1-1.991-1.991c1.098-.001 1.991.891 1.991 1.99zM417.416 106.758a1.993 1.993 0 0 1-1.992 1.991 1.993 1.993 0 0 1-1.991-1.991 1.992 1.992 0 0 1 3.983 0zM422.634 103.702a3.296 3.296 0 0 1 0-6.591 2.22 2.22 0 0 0 2.214-2.215 2.22 2.22 0 0 0-2.214-2.214 3.297 3.297 0 0 1 0-6.592c4.858 0 8.806 3.948 8.806 8.806 0 4.858-3.965 8.806-8.806 8.806zM406.79 100.406a5.517 5.517 0 0 1-5.51 5.511 5.516 5.516 0 0 1-5.51-5.511 5.516 5.516 0 0 1 5.51-5.51 5.516 5.516 0 0 1 5.51 5.51z" fill="#6AD3D1"/><path d="M413.519 100.406a5.51 5.51 0 1 0 0-11.02 5.51 5.51 0 0 0 0 11.02z" fill="#6AD3D1"/><path d="M97.43 395.534s.292-10.402 1.133-11.398c.824-.978 3.433 10.162 3.296 11.501-.138 1.322-3.811 3.261-4.43-.103zM87.491 407.824s-9.63-3.982-10.248-5.115c-.618-1.133 10.712.412 11.913 1.013 1.202.618 1.7 4.738-1.665 4.102zM104.073 424.372s-.532 10.403-1.39 11.364c-.859.961-3.193-10.231-3.022-11.57.172-1.321 3.88-3.158 4.412.206zM112.982 412.116s9.458 4.343 10.042 5.493c.584 1.15-10.694-.824-11.861-1.476-1.168-.635-1.511-4.772 1.819-4.017z" fill="#005389"/><path d="M112.898 424.123c8.021-6.782 9.025-18.783 2.242-26.804-6.782-8.021-18.783-9.025-26.804-2.243-8.021 6.783-9.025 18.784-2.242 26.805 6.782 8.021 18.783 9.025 26.804 2.242z" fill="#0079C8"/><path d="M84.71 399.19c2.403.172 6.369-.566 6.369-.566l-2.695-3.571a18.754 18.754 0 0 0-3.674 4.137zM93.001 422.725l-3.347 2.42a19.725 19.725 0 0 0 4.291 2.266c.567-3.502-.944-4.686-.944-4.686zM83.13 415s-.343.103-.703.24a19.256 19.256 0 0 0 2.163 4.618c1.304-1.219 3.313-3.519 3.313-3.519L83.13 415zM112.021 423.171l-3.09-.446s-.189 1.201.24 3.862a19.026 19.026 0 0 0 3.519-2.283l-.669-1.133zM110.544 393.406c-.137.154-.223.291-.206.377.035.275.996 3.227.996 3.227s1.459-.618 2.386-1.184a20.6 20.6 0 0 0-3.176-2.42zM116.158 407.91c-.344.275-.876 2.404-.876 2.404s2.867.927 4.24 1.39c.069-.687.12-1.39.12-2.094 0-.618-.034-1.236-.085-1.854-1.357-.017-3.073-.103-3.399.154z" fill="#005389"/><path d="M107.815 394.332s6.386-8.222 7.639-8.531c1.253-.309-3.227 10.231-4.137 11.209-.893.996-4.995.395-3.502-2.678zM112.124 420.956s7.965 6.712 8.222 7.965c.258 1.27-10.093-3.622-11.055-4.566-.944-.927-.171-5.012 2.833-3.399zM115.145 405.885s10.42-.24 11.432.549c1.03.773-9.973 3.948-11.312 3.88-1.322-.069-3.45-3.639-.12-4.429zM93.19 425.162s-6.386 8.223-7.639 8.532c-1.253.309 3.227-10.231 4.137-11.21.91-.978 4.995-.394 3.502 2.678zM88.881 398.521s-7.965-6.712-8.222-7.965c-.258-1.27 10.093 3.622 11.055 4.566.944.944.171 5.013-2.833 3.399zM86.461 417.197s-10.42.241-11.432-.549c-1.03-.773 9.973-3.948 11.312-3.88 1.322.069 3.433 3.64.12 4.429z" fill="#0079C8"/><path d="M91.285 407.945a2.257 2.257 0 0 1-2.25-2.249 7.165 7.165 0 0 1 7.16-7.158 2.257 2.257 0 0 1 2.248 2.249 2.257 2.257 0 0 1-2.249 2.249 2.662 2.662 0 0 0-2.66 2.66 2.257 2.257 0 0 1-2.25 2.249zM106.717 400.941a2.3 2.3 0 1 1-4.601-.001 2.3 2.3 0 0 1 4.601.001zM98.305 406.177c0 .755-.6 1.356-1.356 1.356a1.348 1.348 0 0 1-1.356-1.356c0-.755.601-1.356 1.356-1.356.756 0 1.356.601 1.356 1.356zM104.416 419.446c0 .755-.6 1.356-1.356 1.356a1.348 1.348 0 0 1-1.356-1.356c0-.755.601-1.356 1.356-1.356a1.36 1.36 0 0 1 1.356 1.356zM107.97 417.352a2.257 2.257 0 0 1-2.249-2.249 2.257 2.257 0 0 1 2.249-2.249c.841 0 1.51-.669 1.51-1.51s-.669-1.511-1.51-1.511a2.257 2.257 0 0 1-2.249-2.249 2.256 2.256 0 0 1 2.249-2.248 6.015 6.015 0 0 1 6.008 6.008 6.015 6.015 0 0 1-6.008 6.008zM97.155 415.103a3.758 3.758 0 0 1-3.76 3.759 3.758 3.758 0 0 1-3.758-3.759 3.758 3.758 0 0 1 3.759-3.759 3.758 3.758 0 0 1 3.76 3.759zM105.515 411.344a3.758 3.758 0 0 1-3.759 3.759 3.759 3.759 0 1 1 3.759-3.759z" fill="#6AD3D1"/><path d="M457.965 239.373s.292-10.403 1.133-11.398c.824-.979 3.433 10.162 3.296 11.501-.137 1.321-3.811 3.261-4.429-.103zM448.026 251.663s-9.63-3.982-10.248-5.115c-.618-1.133 10.712.412 11.913 1.013 1.202.618 1.7 4.737-1.665 4.102zM464.608 268.211s-.532 10.402-1.39 11.364c-.858.961-3.193-10.231-3.021-11.57.171-1.322 3.879-3.158 4.411.206zM473.517 255.955s9.459 4.343 10.042 5.493c.584 1.15-10.694-.824-11.861-1.476-1.167-.635-1.511-4.772 1.819-4.017z" fill="#005389"/><path d="M475.339 266.103c6.992-7.839 6.307-19.862-1.531-26.854-7.839-6.993-19.861-6.307-26.854 1.531-6.993 7.838-6.307 19.861 1.531 26.854 7.838 6.992 19.861 6.307 26.854-1.531z" fill="#0079C8"/><path d="M445.245 243.029c2.404.172 6.369-.566 6.369-.566l-2.695-3.571a18.754 18.754 0 0 0-3.674 4.137zM453.537 266.563l-3.348 2.421a19.682 19.682 0 0 0 4.292 2.265c.566-3.501-.944-4.686-.944-4.686zM443.666 258.839s-.343.103-.704.24a19.224 19.224 0 0 0 2.163 4.617c1.305-1.218 3.313-3.518 3.313-3.518l-4.772-1.339zM472.556 267.01l-3.09-.447s-.189 1.202.241 3.863a19.023 19.023 0 0 0 3.518-2.284l-.669-1.132zM471.08 237.244c-.137.155-.223.292-.206.378.034.275.996 3.227.996 3.227s1.459-.618 2.386-1.184a20.718 20.718 0 0 0-3.176-2.421zM476.693 251.749c-.343.275-.875 2.404-.875 2.404s2.866.926 4.239 1.39c.069-.687.121-1.39.121-2.094 0-.618-.035-1.236-.086-1.854-1.356-.017-3.073-.103-3.399.154z" fill="#005389"/><path d="M468.368 238.171s6.385-8.222 7.639-8.531c1.253-.309-3.228 10.231-4.137 11.209-.893.996-5.013.395-3.502-2.678zM472.659 264.795s7.965 6.712 8.223 7.965c.257 1.27-10.094-3.622-11.055-4.566-.944-.927-.172-5.013 2.832-3.399zM475.68 249.724s10.42-.241 11.433.549c1.03.772-9.974 3.948-11.313 3.879-1.321-.068-3.45-3.639-.12-4.428zM453.725 269.001s-6.385 8.222-7.638 8.531c-1.254.309 3.227-10.23 4.137-11.209.892-1.013 4.995-.395 3.501 2.678zM449.417 242.377s-7.965-6.712-8.223-7.965c-.257-1.27 10.094 3.622 11.055 4.566.944.927.172 4.995-2.832 3.399zM446.997 261.036s-10.42.24-11.433-.549c-1.03-.773 9.973-3.948 11.312-3.88 1.322.069 3.433 3.639.121 4.429z" fill="#0079C8"/><path d="M451.82 251.784a2.257 2.257 0 0 1-2.249-2.249 7.165 7.165 0 0 1 7.158-7.158 2.256 2.256 0 0 1 2.249 2.248 2.257 2.257 0 0 1-2.249 2.249 2.663 2.663 0 0 0-2.66 2.661 2.257 2.257 0 0 1-2.249 2.249zM467.252 244.78a2.3 2.3 0 1 1-4.6 0 2.3 2.3 0 0 1 4.6 0zM458.84 250.016c0 .755-.6 1.356-1.356 1.356a1.348 1.348 0 0 1-1.356-1.356c0-.756.601-1.357 1.356-1.357.739 0 1.356.601 1.356 1.357zM464.952 263.284c0 .756-.601 1.356-1.357 1.356-.755 0-1.356-.6-1.356-1.356 0-.755.601-1.356 1.356-1.356a1.36 1.36 0 0 1 1.357 1.356zM468.505 261.19a2.256 2.256 0 0 1-2.249-2.248 2.257 2.257 0 0 1 2.249-2.249c.841 0 1.51-.67 1.51-1.511 0-.841-.669-1.51-1.51-1.51a2.257 2.257 0 0 1-2.249-2.249 2.257 2.257 0 0 1 2.249-2.249 6.015 6.015 0 0 1 6.008 6.008 6.015 6.015 0 0 1-6.008 6.008zM453.931 262.701a3.759 3.759 0 1 0 0-7.518 3.759 3.759 0 0 0 0 7.518zM466.05 255.183a3.758 3.758 0 0 1-3.759 3.759 3.759 3.759 0 1 1 0-7.519 3.759 3.759 0 0 1 3.759 3.76z" fill="#6AD3D1"/><g clip-path="url(#clip1)"><path d="M93.656 23.225S94.257 2.13 95.94.12c1.683-2.008 6.952 20.6 6.678 23.294-.292 2.695-7.742 6.626-8.96-.189zM73.504 48.133s-19.5-8.085-20.77-10.368c-1.271-2.283 21.714.84 24.134 2.06 2.42 1.235 3.433 9.578-3.364 8.308zM107.114 81.675s-1.098 21.079-2.815 23.036c-1.734 1.957-6.489-20.753-6.128-23.431.36-2.678 7.862-6.437 8.943.395zM125.138 56.819s19.174 8.823 20.359 11.14c1.184 2.335-21.681-1.665-24.05-2.987-2.368-1.304-3.055-9.681 3.691-8.153z" fill="#005389"/><path d="M100.093 90.326c21.303 0 38.572-17.269 38.572-38.571 0-21.303-17.269-38.572-38.572-38.572-21.302 0-38.571 17.27-38.571 38.572 0 21.302 17.269 38.571 38.571 38.571z" fill="#0079C8"/><path d="M67.856 30.624c4.875.343 12.909-1.133 12.909-1.133l-5.476-7.244a38.843 38.843 0 0 0-7.433 8.377zM84.661 78.344l-6.78 4.91a37.966 37.966 0 0 0 8.703 4.583c1.15-7.124-1.923-9.493-1.923-9.493zM64.646 62.672s-.687.223-1.407.48c1.03 3.348 2.54 6.49 4.394 9.373 2.644-2.455 6.695-7.106 6.695-7.106l-9.682-2.747zM123.216 79.22l-6.249-.893s-.377 2.438.481 7.828c2.558-1.288 4.961-2.815 7.141-4.618l-1.373-2.317zM120.212 18.917c-.275.326-.447.6-.43.772.069.567 2.026 6.54 2.026 6.54s2.952-1.236 4.824-2.386a37.306 37.306 0 0 0-6.42-4.926zM131.592 48.304c-.703.567-1.785 4.875-1.785 4.875s5.819 1.872 8.6 2.833c.155-1.39.241-2.798.241-4.24 0-1.27-.069-2.523-.189-3.76-2.747-.05-6.214-.223-6.867.292z" fill="#005389"/><path d="M114.701 20.77s12.96-16.667 15.501-17.285c2.541-.618-6.557 20.719-8.377 22.727-1.837 2.026-10.162.79-7.124-5.441zM123.422 74.74s16.152 13.595 16.667 16.153c.515 2.557-20.461-7.347-22.384-9.253-1.939-1.905-.377-10.162 5.717-6.9zM129.533 44.219s21.096-.48 23.19 1.099c2.077 1.579-20.204 8.016-22.916 7.861-2.712-.154-7.003-7.38-.274-8.96zM85.039 83.254s-12.96 16.668-15.5 17.286c-2.541.618 6.557-20.72 8.376-22.728 1.837-2.008 10.162-.772 7.124 5.442zM76.302 29.285S60.149 15.69 59.634 13.132c-.515-2.558 20.461 7.347 22.384 9.252 1.94 1.905.395 10.18-5.716 6.9zM71.392 67.1s-21.096.482-23.19-1.098c-2.078-1.579 20.203-8.016 22.916-7.862 2.712.155 7.003 7.382.274 8.96z" fill="#0079C8"/><path d="M81.177 48.373a4.546 4.546 0 0 1-4.55-4.549c0-8 6.507-14.522 14.523-14.522a4.546 4.546 0 0 1 4.549 4.549A4.546 4.546 0 0 1 91.15 38.4a5.407 5.407 0 0 0-5.407 5.407c-.017 2.523-2.043 4.566-4.566 4.566zM107.784 38.829a4.651 4.651 0 0 0 0-9.304 4.652 4.652 0 1 0 0 9.304zM95.39 44.768a2.755 2.755 0 0 1-2.747 2.747 2.755 2.755 0 0 1-2.746-2.747 2.755 2.755 0 0 1 2.746-2.746 2.744 2.744 0 0 1 2.747 2.746zM107.784 71.667a2.755 2.755 0 0 1-2.747 2.746 2.755 2.755 0 0 1-2.746-2.746 2.755 2.755 0 0 1 2.746-2.747 2.744 2.744 0 0 1 2.747 2.747zM114.993 67.444a4.546 4.546 0 0 1-4.549-4.549 4.546 4.546 0 0 1 4.549-4.549 3.063 3.063 0 0 0 3.056-3.055 3.063 3.063 0 0 0-3.056-3.056 4.546 4.546 0 0 1-4.549-4.549 4.546 4.546 0 0 1 4.549-4.548c6.712 0 12.171 5.458 12.171 12.17.017 6.66-5.459 12.136-12.171 12.136zM93.09 62.878a7.626 7.626 0 0 1-7.622 7.622 7.626 7.626 0 0 1-7.621-7.622 7.626 7.626 0 0 1 7.621-7.621 7.626 7.626 0 0 1 7.622 7.621zM110.032 55.257a7.626 7.626 0 0 1-7.621 7.621 7.626 7.626 0 0 1-7.622-7.621 7.626 7.626 0 0 1 7.622-7.622c4.205.017 7.621 3.416 7.621 7.622z" fill="#6AD3D1"/></g><defs><clipPath id="clip0"><path fill="#fff" d="M116.727 8.583h267.459v422.826H116.727z"/></clipPath><clipPath id="clip1"><path fill="#fff" d="M48.064 0h104.797v104.831H48.064z"/></clipPath></defs></svg>