<svg width="488" height="472" fill="none" xmlns="http://www.w3.org/2000/svg"><path d="M386.614 358.503l-22.438 97.072 9.487-.029 22.487-96.122-9.536-.921zM427.536 358.503l22.515 97.072h9.016l-21.784-97.072h-9.747zM371.469 285.604l12.769 66.82h14.519l-13.644-66.82h-13.644zM148.982 358.503l-18.3 97.072h9.314l19.118-97.072h-10.132zM187.461 358.503l20.918 96.545h9.208l-20.206-96.545h-9.92zM133.838 285.604l12.768 66.82h14.519l-13.643-66.82h-13.644z" fill="#E0E0E0"/><path d="M105.097 279.525l2.608 12.149H399.19l-3.406-12.149H105.097zM110.668 303.123l3.07 12.148h289.513l-2.627-12.148H110.668zM116.412 327.552l2.877 12.148h288.609l-2.733-12.148H116.412zM449.705 352.425h-311.22v12.149h311.22v-12.149z" fill="#EBEBEB"/><path d="M452.088 60.644C426.211 24.527 383.659-.88 339.264.024c-44.395.903-88.332 31.4-99.094 74.524-6.123 24.553-1.756 50.332-2.115 75.627-.359 25.296-7.348 53.266-28.636 66.911-18.01 11.539-41.08 9.695-62.467 9.41-28.042-.372-56.629 2.798-82.296 14.127-25.667 11.317-48.254 31.561-58.014 57.884-11.788 31.759-8.052 69.697 12.543 96.577 20.596 26.881 49.838 49.267 82.494 58.157 32.656 8.89 58.249 17.284 99.774 18.671l28.401-1.052c126.393-10.029 236.434-121.811 255.187-247.323a267.002 267.002 0 0 0 2.944-36.799c.47-44.437-10.02-89.977-35.897-126.094z" fill="#0079C8" fill-opacity=".1"/><path d="M461.896 455.576c0 .134-93.496.249-208.805.249-115.347 0-208.824-.115-208.824-.249s93.477-.249 208.824-.249c115.309 0 208.805.105 208.805.249zM254.332 120.723l37.439-.508-9.737 14.095-27.702.719v-14.306z" fill="#263238"/><path d="M216.672 75.823l19.004 3.413 19.811-5.935 2.646 14.353-21.399 3.404-20.716-6.04M324.717 73.454l-14.52 5.197-24.295-7.719-2.646 14.354 23.131 4.986c2.954.632 6.042.124 8.64-1.429l10.344-6.194" fill="#FFBE9D"/><path d="M255.785 121.165c-.019 0 5.446-52.045 5.446-52.045l6.986-1.419 17.617 1.4 6.187 3.672 3.137 16.32.529 29.119-13.172 4.046c-1.27.393-2.588.576-3.916.556l-14.048-.21-8.766-1.439z" fill="#0079C8"/><path d="M295.168 89.085l6.841 1.477 4.195-13.184-14.375-6.75-5.802-1.42 9.141 19.877zM261.241 69.122l-13.75 5.321 4.744 16.262 8.438-1.812.568-19.771z" fill="#0079C8"/><path d="M286.027 67.308v-.134c5.494-.71 8.015-5.983 8.381-12.302.192-3.365.346-3.624.105-10.873-.24-7.172-1.837-12.676-1.837-12.676s-4.455-5.551-12.865-4.928c-8.409.614-12.749 11.851-12.749 11.851s.058 17.096.549 20.548c.49 3.452.423 4.688.423 4.688l.192 4.22c.222 4.736 4.138 8.466 8.901 8.466 4.907 0 8.89-3.96 8.9-8.86z" fill="#FFBE9D"/><path d="M267.476 48.985c-.145-.068-5.898-1.784-5.754 4.075.144 5.858 6.023 4.506 6.023 4.343.01-.172-.269-8.418-.269-8.418z" fill="#FFBE9D"/><path d="M265.898 55.227c-.029-.019-.096.077-.27.154a1.058 1.058 0 0 1-.769.038c-.626-.211-1.174-1.18-1.232-2.234a3.271 3.271 0 0 1 .25-1.467c.173-.432.443-.738.751-.806a.535.535 0 0 1 .616.269c.086.163.048.278.076.288.02.01.126-.106.068-.346a.668.668 0 0 0-.241-.364.756.756 0 0 0-.567-.134c-.453.038-.847.47-1.049.94a3.489 3.489 0 0 0-.318 1.64c.068 1.178.703 2.272 1.559 2.492.414.096.76-.038.933-.182.183-.154.212-.278.193-.288z" fill="#EB996E"/><path d="M288.923 49.444c.019.672-.539 1.247-1.241 1.276-.702.028-1.289-.49-1.309-1.16-.019-.672.539-1.247 1.242-1.276.702-.038 1.289.48 1.308 1.16zM290.876 47.547c-.163.163-1.125-.556-2.501-.566-1.376-.029-2.396.671-2.541.508-.077-.076.087-.374.53-.69.433-.316 1.174-.623 2.04-.614.856.01 1.577.336 1.991.662.414.326.558.623.481.7zM275.866 49.973c.019.671-.539 1.246-1.241 1.275-.702.029-1.289-.489-1.309-1.16-.019-.671.539-1.247 1.242-1.275.702-.03 1.289.489 1.308 1.16zM277.319 47.7c-.163.164-1.126-.555-2.502-.565-1.375-.029-2.395.671-2.54.499-.077-.077.087-.374.539-.69.433-.317 1.174-.624 2.04-.614.856.01 1.578.335 1.992.661.413.336.548.633.471.71zM276.232 42.83c-.077.287-.904.325-1.819.613-.923.268-1.626.7-1.857.508-.105-.096-.038-.364.222-.68.26-.317.731-.653 1.328-.835.596-.182 1.173-.163 1.568-.048.394.115.596.297.558.441zM290.02 42.685c-.125.268-.596.307-1.049.096-.452-.211-.712-.604-.587-.863.126-.269.597-.307 1.049-.096.452.21.712.594.587.863zM280.946 57.71c.02.077-.163.23-.529.279a1.914 1.914 0 0 1-1.366-.384c-.462-.355-.693-.853-.741-1.208-.048-.364.038-.585.125-.585.173-.01.318.777 1.001 1.285.683.518 1.472.45 1.51.614z" fill="#263238"/><path d="M286.027 67.173s-7.053.115-8.718-1.102c0 0 1.068 3.375 8.535 3.02l.183-1.918z" fill="#EB996E"/><path d="M265.195 48.707c-.134.786-.269 1.601-.028 2.359.24.757.991 1.419 1.77 1.265 1.01-.192 1.366-1.438 1.491-2.454.356-2.858.568-5.734.645-8.61.019-.806.192-1.832.981-2.014.462-.105.915.144 1.376.259.914.24 1.954-.087 2.56-.815.096 1.102 1.587 1.591 2.598 1.131 1-.46 1.597-1.496 2.126-2.464-.038.614-.077 1.247.144 1.822.212.575.761 1.074 1.376 1.045.712-.038 1.203-.72 1.53-1.352a17.072 17.072 0 0 0 1.675-4.852c.49 2.599 2.059 4.977 4.252 6.463.251-.739.501-1.467.751-2.206.289.442.596.883 1.029 1.19.433.306 1.02.44 1.492.2.471-.239.693-.93.356-1.322.173.987 1.52 1.476 2.386.959.866-.509 1.155-1.726.789-2.657-.298 4.795-.818 10.27.106 14.987 1.395-2.445 3.647-5.648 3.772-8.457.086-2.013-.51-4.017-.385-6.04.086-1.381.51-2.724.51-4.104 0-2.052-.972-4.066-2.512-5.437-1.539-1.37-3.598-2.11-5.657-2.167-1.549-.038-3.108.288-4.638.067-1.299-.191-2.511-.767-3.791-1.093-2.636-.652-5.552-.115-7.774 1.448 0 0-2.695 1.563-6.024 5.418 0 0-6.023.182-5.754 8.6.27 8.419.866 9.454.866 9.454l1.982-.623z" fill="#263238"/><path d="M268.515 32.407c-.038.01-.106-.384-.423-.93a3.864 3.864 0 0 0-1.78-1.592 3.815 3.815 0 0 0-2.387-.154c-.606.163-.943.384-.962.355-.009-.01.068-.076.222-.172.153-.096.384-.22.702-.317a3.749 3.749 0 0 1 2.511.096 3.638 3.638 0 0 1 1.828 1.716c.145.288.222.547.26.72.039.172.048.278.029.278zM269.265 32.235c-.009.01-.105-.048-.259-.182a4.346 4.346 0 0 1-.578-.623 4.778 4.778 0 0 1-.962-2.618c-.058-1.112.298-2.1.674-2.704.183-.307.375-.537.51-.68.134-.145.221-.212.231-.202.028.029-.279.345-.616.959a4.996 4.996 0 0 0-.597 2.617 5.08 5.08 0 0 0 .876 2.541c.404.576.75.863.721.892zM283.621 50.49c.087-.02.25.278.443.786.096.25.202.556.308.901.048.173.106.355.163.537.058.173.135.403.145.662a1.04 1.04 0 0 1-.279.786 1.143 1.143 0 0 1-.664.326c-.222.029-.443.01-.635-.058a2.008 2.008 0 0 1-.453-.24c-.471-.373-.615-.69-.567-.747.058-.077.356.144.798.364.231.106.482.173.741.106a.585.585 0 0 0 .318-.182.453.453 0 0 0 .096-.336 2.48 2.48 0 0 0-.106-.518c-.048-.192-.086-.374-.125-.546a25.4 25.4 0 0 1-.183-.94c-.077-.537-.086-.882 0-.901z" fill="#263238"/><path d="M265.368 41.288c-.019 0-.038-.144-.077-.412a20.79 20.79 0 0 1-.115-1.132c-.067-.959-.135-2.31.202-3.768.337-1.457 1.107-2.637 1.847-3.28.366-.325.703-.536.953-.651.25-.115.395-.163.395-.154.019.039-.559.25-1.242.911-.692.652-1.414 1.803-1.741 3.222-.327 1.419-.289 2.761-.26 3.71.038.96.067 1.554.038 1.554zM270.459 39.109c-.019.02-.318-.278-.693-.844a7.95 7.95 0 0 1-1.039-2.416 7.84 7.84 0 0 1-.183-2.627c.077-.672.202-1.074.231-1.065.038.01-.048.413-.077 1.074-.039.662 0 1.582.241 2.56.24.978.625 1.822.962 2.388.327.575.587.901.558.93zM283.169 33.922c-.009 0-.009-.067-.019-.202-.01-.153-.01-.345-.019-.575-.02-.498-.029-1.227-.164-2.11-.135-.872-.423-1.927-1.135-2.847a3.993 3.993 0 0 0-1.395-1.141c-.568-.288-1.213-.45-1.877-.518-1.347-.124-2.646.192-3.714.671-.529.25-1.01.537-1.433.844a8.423 8.423 0 0 0-1.088.959c-.615.642-1 1.266-1.231 1.697-.241.441-.337.7-.356.69-.01 0 .009-.067.057-.191.049-.125.106-.307.222-.537a7.115 7.115 0 0 1 1.203-1.764 8.493 8.493 0 0 1 1.087-.998 9.26 9.26 0 0 1 1.453-.882c1.087-.498 2.415-.834 3.81-.7.693.067 1.366.24 1.953.547a4.188 4.188 0 0 1 1.453 1.208c.731.978 1.01 2.061 1.135 2.953.116.892.106 1.63.097 2.129-.01.249-.01.44-.02.575 0 .125-.009.192-.019.192z" fill="#455A64"/><path d="M289.924 35.207c-.01 0-.029-.067-.058-.202-.039-.153-.077-.354-.135-.585-.115-.508-.269-1.246-.529-2.138-.26-.891-.616-1.946-1.241-2.991-.626-1.045-1.569-2.062-2.848-2.656-1.27-.604-2.637-.796-3.859-.796-1.222.01-2.328.211-3.233.403-.914.201-1.635.402-2.145.537-.231.057-.424.115-.587.153-.135.029-.202.048-.212.039 0-.01.067-.039.192-.077.154-.048.347-.115.568-.192.501-.153 1.222-.384 2.136-.604.914-.22 2.021-.431 3.262-.45 1.241-.02 2.646.172 3.955.795 1.318.623 2.299 1.678 2.925 2.752.625 1.083.981 2.148 1.222 3.049.24.901.375 1.65.471 2.157.048.26.077.46.096.595.02.144.02.21.02.21zM293.234 36.318c-.039 0 .048-.652.134-1.687.068-1.026.145-2.513-.442-3.99-.289-.728-.722-1.36-1.242-1.792a3.777 3.777 0 0 0-1.587-.805c-1.02-.23-1.655.086-1.655.038 0-.01.029-.029.106-.058.067-.038.182-.067.327-.105.288-.077.731-.115 1.26-.02a3.666 3.666 0 0 1 1.684.806c.549.45 1.01 1.112 1.309 1.87.606 1.534.5 3.049.394 4.075-.058.518-.125.94-.173 1.227-.067.278-.106.441-.115.441z" fill="#455A64"/><path d="M274.307 53.848c-.057-.01-.077-.144-.048-.307.029-.153.106-.278.164-.268.058.01.077.143.048.306-.029.163-.106.278-.164.269zM276.771 53.34c-.058.02-.125-.038-.154-.134-.029-.097-.01-.184.038-.203.058-.02.126.039.155.135.039.087.02.184-.039.203zM275.52 54.814c-.058.01-.116-.115-.135-.279-.019-.153.019-.287.077-.297.058-.01.115.115.135.278.019.163-.02.298-.077.298zM272.422 54.536c-.058-.02-.068-.163-.02-.317.048-.153.135-.268.193-.258.058.019.067.163.019.316-.058.153-.135.268-.192.259zM288.798 53.28c-.058.01-.116-.106-.135-.25-.019-.144.019-.259.077-.268.058-.01.116.105.135.25.01.133-.019.258-.077.268zM291.098 53.225c-.058 0-.106-.125-.106-.288 0-.153.048-.288.106-.288.057 0 .106.125.106.288 0 .154-.049.288-.106.288zM293.003 53.099c-.058.01-.135-.106-.164-.269-.029-.153-.01-.297.048-.306.058-.01.135.105.164.268.029.163.009.297-.048.307zM290.01 55.158c-.058-.019-.067-.163-.019-.316.048-.154.135-.268.192-.259.058.02.068.163.02.317-.058.163-.145.278-.193.258zM292.175 54.873c-.058.01-.115-.086-.135-.21-.019-.125.02-.23.077-.24.058-.01.116.086.135.21.01.125-.019.24-.077.24z" fill="#EB996E"/><path d="M290.54 99.18c.028.01-.135.422-.462 1.16-.154.374-.366.815-.655 1.314-.279.498-.577 1.083-.991 1.678-.394.604-.827 1.265-1.366 1.927-.5.69-1.126 1.352-1.761 2.061a31.756 31.756 0 0 1-4.724 4.037 31.618 31.618 0 0 1-5.485 2.934c-.894.336-1.741.671-2.569.892-.808.259-1.587.431-2.299.575-.703.173-1.357.23-1.925.316-.567.087-1.058.115-1.462.135-.808.038-1.251.038-1.251 0-.01-.106 1.78-.154 4.57-.796.693-.163 1.453-.345 2.252-.623.808-.231 1.636-.576 2.511-.921a33.322 33.322 0 0 0 5.379-2.924 32.453 32.453 0 0 0 4.676-3.941c.635-.69 1.261-1.333 1.771-2.004.548-.642.991-1.275 1.395-1.86 1.616-2.359 2.299-3.999 2.396-3.96zM292.348 87.883c-.019.02-.221-.134-.548-.45-.327-.317-.76-.825-1.222-1.497-.933-1.342-1.915-3.47-2.136-5.983-.221-2.521.375-4.784 1.049-6.27.337-.748.673-1.314.943-1.688.259-.374.433-.556.462-.546.077.047-.501.882-1.078 2.368-.577 1.477-1.097 3.672-.876 6.088.212 2.417 1.107 4.488 1.934 5.84.828 1.361 1.54 2.08 1.472 2.138zM259.942 76.485c.135.01-.173 4.382-.693 9.751-.519 5.37-1.049 9.713-1.183 9.703-.135-.01.173-4.381.692-9.75.51-5.38 1.049-9.723 1.184-9.704z" fill="#263238"/><path opacity=".3" d="M288.865 81.527c-1.154-3.873.761 8.045 1.848 11.928.943 3.404 2.184 6.894 4.792 9.291l-.337-13.663s-3.839.68-6.303-7.556zM287.326 104.893c-1.001-.269-2.059.249-2.838.92-.78.681-1.396 1.534-2.204 2.177-1.636 1.284-3.849 1.543-5.937 1.649-2.088.105-4.262.134-6.109 1.102-1.848.969-3.214 3.232-2.406 5.149 0 0 6.302-.22 12.816-4.88 5.475-3.903 6.678-6.117 6.678-6.117z" fill="#000"/><path d="M310.255 79.877c.135.048-.058.815-.308 1.745-.25.93-.481 1.678-.616 1.66-.134-.02-.125-.835.135-1.794.26-.95.664-1.659.789-1.61z" fill="#EB996E"/><path d="M210.284 92.928l-8.602 39.551 36.861 5.274-5.735 28.122-40.373-12.33c-9.372-1.851-14.962-11.506-11.864-20.519l15.867-41.767 13.846 1.669zM198.179 73.05c-.414.691-.673 1.63-.414 2.858 0 0-1.924 1.055.116 2.503 0 0-1.03 1.352.481 2.07 0 0-1.107 1.554.712 2.427 1.818.872 6.985 1.073 6.985 1.073l5.119-1.035 1.838-1.889.491-2.08-5.138-4.785-7.246-2.205c-1.116-.336-2.347.076-2.944 1.064z" fill="#FFBE9D"/><path d="M209.831 78.073l-2.617-.767s-1.347-2.79-2.088-3.509c-.731-.719-3.993-1.4-3.435-4.238l8.121 2.905c2.685.96 4.128 3.864 3.262 6.568l-3.243-.959z" fill="#FFBE9D"/><path d="M201.701 69.56c.077.01.009.662.462 1.592.221.45.548.978 1.039 1.39.5.364 1.231.729 1.924 1.055.51.23 1.02.422 1.501.546l.183.048v.182c0 1.17.317 2.148.616 2.81.298.661.548 1.025.5 1.064-.038.029-.375-.269-.77-.92a6.134 6.134 0 0 1-.827-2.944l.183.23a8.947 8.947 0 0 1-1.588-.556c-.75-.365-1.405-.681-2.021-1.16-.567-.509-.866-1.103-1.068-1.602-.394-1.045-.192-1.764-.134-1.735zM197.698 78.095c.019-.067.751.067 1.934.326.587.125 1.289.316 2.05.46a5.38 5.38 0 0 0 1.183.087c.395-.01.76-.173.837-.47.087-.269-.24-.547-.596-.72-.366-.163-.77-.297-1.136-.421-.702-.23-1.376-.441-2.011-.643-1.145-.364-1.857-.613-1.838-.68.02-.068.761.057 1.934.335.587.144 1.29.317 2.06.547.384.115.788.24 1.212.422.212.105.423.22.616.421.192.192.336.528.25.854-.183.652-.857.834-1.299.834a5.156 5.156 0 0 1-1.299-.125c-.799-.172-1.472-.403-2.059-.566-1.155-.345-1.857-.594-1.838-.661z" fill="#EB996E"/><path d="M198.247 80.424c.019-.067.509.02 1.298.173.77.134 1.896.44 3.003.345.24-.038.404-.192.404-.316.019-.135-.154-.336-.337-.47a6.148 6.148 0 0 0-1.164-.69c-.712-.317-1.203-.422-1.184-.49.01-.057.529-.086 1.318.163.395.125.847.336 1.309.643.221.163.539.383.558.853-.01.48-.462.758-.808.796-.693.086-1.27-.029-1.8-.134a12.08 12.08 0 0 1-1.375-.364c-.78-.24-1.242-.451-1.222-.509zM200.219 76.52c.029-.066.625.097 1.597.336.472.096 1.087.307 1.645.202.299-.058.482-.192.51-.46.039-.25-.096-.595-.288-.825-1.213-.988-2.752-1.448-3.666-1.726l-.231-.058.106-.163c.269-.412.548-.556.712-.719.163-.144.24-.24.269-.22.029.01 0 .144-.135.335-.115.192-.394.441-.548.748l-.106-.22c.982.201 2.531.517 3.964 1.706.289.355.462.758.405 1.228a.985.985 0 0 1-.337.604 1.224 1.224 0 0 1-.578.23c-.769.096-1.337-.182-1.818-.307-.972-.345-1.53-.623-1.501-.69z" fill="#EB996E"/><path d="M210.235 93.111l5.494-6.347 1.453-9.406-2.001-4.852s-1.838-.288-1.819 1.534c.019 1.822-.029 5.331-.029 5.331l-2.165 3.576-5.551.969-6.832-1.055-2.396 8.582 2.098 1.467 11.748.201z" fill="#FFBE9D"/><path d="M196.389 91.442c-.019 0 .02-.211.116-.604.115-.451.25-1.017.433-1.717.413-1.553.981-3.682 1.674-6.3l.038-.153.164.02c2.011.297 4.32.632 6.841 1.006h-.077c1.732-.306 3.599-.642 5.552-.987l-.164.115c.693-1.15 1.415-2.35 2.165-3.586l-.038.124v-2.713-1.314c.01-.44-.029-.853.029-1.352.067-.479.346-.949.741-1.227a2.703 2.703 0 0 1 1.299-.499l.173-.019.067.173c.693 1.688 1.357 3.308 1.992 4.861l.029.058-.01.067c-.568 3.538-1.078 6.721-1.511 9.396l-.009.048-.029.039c-1.693 1.908-3.069 3.461-4.08 4.592-.462.499-.837.911-1.125 1.237-.26.278-.405.422-.424.413-.009-.01.106-.173.347-.47.279-.336.625-.767 1.058-1.295.981-1.16 2.319-2.752 3.955-4.698l-.039.086c.404-2.684.876-5.868 1.405-9.415l.019.124c-.645-1.553-1.318-3.173-2.011-4.851l.25.153c-.741.086-1.51.556-1.587 1.323-.048.355-.02.815-.029 1.256v4.123l-.039.058c-.75 1.227-1.481 2.435-2.174 3.576l-.058.096-.106.02c-1.953.335-3.82.651-5.552.948l-.038.01-.039-.01c-2.52-.402-4.82-.766-6.831-1.093l.202-.134c-.76 2.599-1.376 4.718-1.828 6.252l-.52 1.697c-.144.374-.211.575-.231.566z" fill="#EB996E"/><path d="M202.461 86.696c-.106-.067 1.327-1.812 3.839-2.848 2.501-1.055 4.763-.834 4.734-.719.009.153-2.146.163-4.542 1.18-2.405.987-3.926 2.502-4.031 2.387z" fill="#EB996E"/><path d="M343.162 70.501c.413.69.673 1.63.413 2.858 0 0 1.925 1.054-.115 2.502 0 0 1.029 1.352-.481 2.071 0 0 1.106 1.553-.712 2.426-1.819.873-6.986 1.074-6.986 1.074l-5.119-1.036-1.837-1.889-.953-2.282 5.59-4.592 7.246-2.206c1.125-.326 2.357.077 2.954 1.074z" fill="#FFBE9D"/><path d="M331.5 75.525l2.617-.767s1.347-2.79 2.088-3.51c.731-.718 3.993-1.4 3.435-4.237l-8.121 2.905c-2.685.959-4.128 3.864-3.262 6.568l3.243-.959z" fill="#FFBE9D"/><path d="M339.64 67c.058-.028.26.691-.135 1.727-.202.508-.5 1.102-1.068 1.601-.616.48-1.26.796-2.02 1.16-.53.24-1.078.432-1.588.556l.183-.23a6.167 6.167 0 0 1-.828 2.944c-.385.652-.731.959-.769.92-.049-.038.202-.403.5-1.064.298-.662.616-1.64.616-2.81v-.182l.183-.048a9.497 9.497 0 0 0 1.5-.546c.693-.336 1.434-.7 1.925-1.055.5-.412.818-.94 1.039-1.39.443-.911.385-1.573.462-1.582zM343.643 75.547c.019.067-.683.316-1.838.67-.577.174-1.251.394-2.059.567a5.156 5.156 0 0 1-1.299.124c-.443 0-1.116-.182-1.299-.834-.087-.316.058-.662.25-.853.193-.202.404-.326.616-.422.423-.192.827-.307 1.212-.422.77-.23 1.463-.403 2.059-.546 1.174-.279 1.915-.403 1.934-.336.02.067-.692.316-1.837.68-.635.202-1.309.422-2.011.643-.376.125-.78.259-1.136.422-.356.163-.673.45-.596.72.067.287.442.46.837.469.404.02.808-.02 1.183-.086.76-.144 1.463-.336 2.05-.46 1.174-.27 1.915-.403 1.934-.336z" fill="#EB996E"/><path d="M343.085 77.866c.019.067-.433.268-1.203.517-.385.125-.847.26-1.376.365-.529.096-1.106.22-1.799.134-.347-.048-.799-.317-.808-.796.019-.47.346-.68.558-.853a4.966 4.966 0 0 1 1.308-.643c.789-.259 1.309-.22 1.318-.163.01.077-.481.173-1.183.49-.356.162-.76.383-1.164.69-.193.134-.356.335-.337.47 0 .124.154.278.404.316 1.107.096 2.232-.22 3.002-.345.77-.163 1.261-.25 1.28-.182zM341.122 73.973c.019.058-.539.346-1.492.681-.49.134-1.049.403-1.818.307a1.224 1.224 0 0 1-.578-.23.898.898 0 0 1-.336-.604c-.058-.47.115-.882.404-1.227 1.443-1.19 2.983-1.496 3.964-1.707l-.106.22c-.154-.306-.433-.556-.548-.748-.135-.191-.164-.326-.135-.335.029-.01.096.076.269.22.164.163.443.307.712.72l.106.163-.211.067c-.924.278-2.454.738-3.666 1.725-.193.221-.337.576-.289.825.038.269.221.403.51.46.558.106 1.164-.105 1.645-.201.943-.24 1.54-.403 1.569-.336z" fill="#EB996E"/><path d="M322.994 132.094s-6.225 22.629 7.265 27.634c0 0 5.128-1.007 4.522-5.83-.481-3.845-11.286-21.468-11.286-21.468" fill="#0079C8"/><path opacity=".3" d="M322.994 132.094s-6.225 22.629 7.265 27.634c0 0 5.128-1.007 4.522-5.83-.481-3.845-11.286-21.468-11.286-21.468" fill="#000"/><path d="M331.106 90.558l8.601 39.552-36.861 5.273 5.735 28.123 40.373-12.331c9.372-1.851 14.962-11.506 11.864-20.519L344.951 88.89l-13.845 1.668z" fill="#FFBE9D"/><path d="M342.084 138.318c-.115.067-1.183-1.726-1.972-4.152-.799-2.426-.991-4.488-.866-4.507.144-.019.558 1.975 1.337 4.353.78 2.378 1.636 4.238 1.501 4.306z" fill="#EB996E"/><path d="M331.107 90.559l-5.494-6.348-1.453-9.406 2.001-4.851s1.838-.288 1.819 1.534c-.019 1.822.029 5.33.029 5.33l2.165 3.577 5.552.969 6.831-1.055 2.396 8.581-2.098 1.467-11.748.202z" fill="#FFBE9D"/><path d="M344.952 88.89c-.02 0-.087-.192-.212-.585-.135-.44-.308-.997-.52-1.697-.452-1.544-1.068-3.663-1.828-6.251l.202.134c-2.011.326-4.31.69-6.831 1.093l-.039.01-.038-.01c-1.732-.297-3.599-.614-5.552-.95l-.106-.019-.058-.095c-.692-1.141-1.424-2.35-2.174-3.577l-.039-.057v-.067-2.733-1.323c-.009-.432.02-.902-.029-1.256-.086-.767-.856-1.237-1.587-1.324l.25-.153c-.693 1.678-1.366 3.298-2.011 4.852l.019-.125c.53 3.538 1.001 6.731 1.405 9.416l-.038-.087c1.635 1.947 2.982 3.538 3.954 4.699.433.527.78.959 1.059 1.294.24.297.356.46.346.47-.01.01-.154-.125-.423-.403-.299-.326-.664-.728-1.126-1.237-1.01-1.131-2.386-2.694-4.08-4.592l-.029-.039-.029-.048c-.433-2.675-.942-5.858-1.51-9.396l-.01-.067.029-.058c.635-1.553 1.299-3.174 1.992-4.861l.067-.173.173.02c.472.057.905.21 1.299.498.395.288.674.748.741 1.227.058.499.019.911.029 1.352V76.8l-.038-.124c.74 1.227 1.472 2.435 2.164 3.586l-.163-.115c1.953.345 3.82.68 5.552.987h-.077c2.521-.374 4.83-.71 6.841-1.007l.163-.019.039.154c.693 2.617 1.26 4.746 1.674 6.3.173.7.318 1.274.433 1.715.087.394.135.605.116.614z" fill="#EB996E"/><path d="M338.88 84.145c-.106.116-1.626-1.4-4.032-2.387-2.386-1.007-4.541-1.016-4.541-1.18-.029-.114 2.223-.335 4.734.72 2.511 1.026 3.945 2.78 3.839 2.847z" fill="#EB996E"/><path d="M258.483 424.997l.837 19.541s-19.648 7.402-19.85 11.036l38.074-.249-.048-30.5-19.013.172z" fill="#0079C8"/><path opacity=".6" d="M271.075 442.822c.74.192 1.25 1.017 1.087 1.765-.164.747-1.001 1.275-1.742 1.093-.741-.183-1.385-1.151-1.145-1.87.25-.719 1.261-1.285 1.934-.93M277.541 455.324l-.125-3.077-36.458 1.39s-1.693.748-1.491 1.937l38.074-.25z" fill="#fff"/><path d="M258.691 444.345c.01.182.934.259 1.857.853.934.566 1.415 1.362 1.578 1.295.173-.039-.115-1.142-1.241-1.842-1.107-.699-2.232-.469-2.194-.306zM254.708 446.024c-.039.182.77.488 1.405 1.265.664.758.827 1.611 1.01 1.601.173.029.298-1.054-.51-2.013-.808-.959-1.905-1.036-1.905-.853zM252.476 450.799c.173.039.423-.891-.058-1.898-.481-1.016-1.357-1.41-1.434-1.256-.106.153.462.69.847 1.534.395.825.462 1.601.645 1.62zM258.999 439.879c.077.173.934-.096 1.982-.029 1.049.039 1.877.393 1.973.23.106-.134-.693-.815-1.934-.872-1.241-.067-2.117.527-2.021.671z" fill="#263238"/><path opacity=".3" d="M258.643 428.87l.145 3.48 18.714-.287.01-4.027-18.869.834z" fill="#000"/><path d="M258.903 435.928c0 .077.731.182 1.905-.019a8.555 8.555 0 0 0 1.992-.624 8.607 8.607 0 0 0 1.087-.584c.173-.116.385-.231.578-.451.202-.192.317-.69.076-.988-.192-.287-.538-.412-.817-.422a2.23 2.23 0 0 0-.712.106 7.105 7.105 0 0 0-1.184.412 6.856 6.856 0 0 0-1.751 1.16c-.876.825-1.174 1.515-1.107 1.554.087.057.51-.518 1.405-1.199a7.73 7.73 0 0 1 1.694-.968 6.847 6.847 0 0 1 1.097-.345c.404-.106.74-.116.846.067.039.067.039.096-.038.211-.087.105-.25.22-.424.326-.336.22-.673.412-1 .584-.664.336-1.299.566-1.838.72-1.097.306-1.809.364-1.809.46z" fill="#263238"/><path d="M259.143 436.194c.068.029.433-.642.491-1.84a6.236 6.236 0 0 0-.269-2.081 5.925 5.925 0 0 0-.491-1.151c-.221-.374-.5-.872-1.222-.949-.375-.01-.683.288-.789.537-.125.259-.144.479-.192.7-.068.441-.058.882.009 1.275.125.806.462 1.477.828 1.956.75.978 1.53 1.199 1.539 1.132.058-.096-.587-.451-1.164-1.391a4.389 4.389 0 0 1-.616-1.783 3.912 3.912 0 0 1 .029-1.103c.058-.402.202-.728.356-.69.193 0 .51.297.674.614.202.335.356.69.481 1.025.24.681.356 1.343.385 1.899.048 1.131-.145 1.822-.049 1.85z" fill="#263238"/><path d="M327.757 424.431l-.356 19.55s19.821 6.933 20.11 10.547l-38.074.671-.693-30.49 19.013-.278z" fill="#0079C8"/><path opacity=".6" d="M315.595 442.554c-.731.211-1.232 1.045-1.039 1.783.183.739 1.029 1.247 1.77 1.045.741-.201 1.357-1.189 1.097-1.898-.269-.71-1.289-1.256-1.963-.882M309.437 455.211l.048-3.078 36.487.508s1.703.71 1.539 1.898l-38.074.672z" fill="#fff"/><path d="M328.017 443.78c0 .182-.933.288-1.838.901-.923.585-1.376 1.4-1.549 1.333-.173-.029.087-1.141 1.193-1.87 1.097-.728 2.233-.527 2.194-.364zM332.039 445.363c.048.182-.751.508-1.376 1.304-.645.776-.789 1.63-.972 1.62-.173.029-.317-1.055.462-2.023.779-.988 1.876-1.084 1.886-.901zM334.387 450.082c-.164.038-.443-.883.019-1.899.452-1.026 1.318-1.438 1.405-1.285.105.154-.443.71-.809 1.554-.394.824-.433 1.61-.615 1.63zM327.603 439.322c-.077.173-.933-.067-1.982.019-1.049.067-1.867.432-1.963.278-.106-.134.674-.834 1.915-.92 1.232-.106 2.117.47 2.03.623z" fill="#263238"/><path opacity=".3" d="M327.68 428.307l-.058 3.49-18.714.153-.106-4.017 18.878.374z" fill="#000"/><path d="M327.594 435.373c0 .077-.732.201-1.906.019a8.257 8.257 0 0 1-2.001-.575 9.305 9.305 0 0 1-1.106-.556c-.174-.106-.385-.221-.587-.441-.212-.192-.337-.681-.106-.988.192-.297.529-.432.808-.441.279-.01.51.038.712.086.423.096.828.23 1.193.384a6.648 6.648 0 0 1 1.78 1.122c.895.795 1.213 1.486 1.145 1.524-.086.067-.519-.508-1.433-1.17a7.385 7.385 0 0 0-2.82-1.237c-.404-.095-.75-.095-.846.087-.039.067-.039.096.048.211.086.105.25.211.433.316.336.211.683.393 1.02.556a10.67 10.67 0 0 0 1.857.671c1.097.298 1.818.336 1.809.432z" fill="#263238"/><path d="M327.363 435.639c-.068.029-.443-.623-.539-1.822a6.32 6.32 0 0 1 .221-2.081c.106-.383.26-.776.462-1.16.221-.383.481-.882 1.203-.978.375-.019.693.269.808.518.135.259.164.47.212.69.077.441.077.873.019 1.275a4.355 4.355 0 0 1-.779 1.976c-.732.997-1.501 1.227-1.511 1.169-.067-.095.577-.46 1.126-1.419.269-.469.51-1.093.567-1.793.029-.354.02-.728-.057-1.093-.068-.402-.222-.728-.376-.681-.192 0-.51.307-.654.633a6.08 6.08 0 0 0-.452 1.036 6.75 6.75 0 0 0-.337 1.898c-.029 1.113.183 1.803.087 1.832z" fill="#263238"/><path d="M301.884 238.104l32.522 203.616h-27.961l-35.361-177.421 11.258 178.706-30.656-1.285-17.454-205.457 67.652 1.841z" fill="#263238"/><path d="M330.259 159.72s-2.906-.71-5.004-7.134c-3.762-11.506-2.261-20.5-2.261-20.5l-20.148 1.832-24.824.383s-1.376 9.809-12.345 9.358c-11.008-.45-10.613-8.14-10.613-8.14l-9.93-.451-29.424-1.141s-1.992.058-1.799 5.389c.202 5.341 2.781 24.182 2.781 24.182l15.549 5.359.519 7.431s-2.213 59.419-2.059 65.095l71.192-3.298c-.721-.959-1.058-44.854-.894-61.126.048-5.34 3.55-10.038 8.659-11.63l12.095-3.778 8.506-1.831z" fill="#0079C8"/><path d="M230.691 241.393s7.409 6.702 24.777 6.798c19.6.106 23.901-8.016 32.435-8.179 7.871-.153 14.702 2.589 14.702 2.589l-1.096-9.492-30.983-4.861-39.835 13.145z" fill="#0079C8"/><path d="M296.698 236.214c-.029.048-.77-.393-2.233-.901-1.462-.499-3.675-.969-6.446-.863-2.762.086-6.024.738-9.449 2.023-3.445 1.246-7.072 3.049-11.027 4.631-3.945 1.611-7.957 2.56-11.642 2.915a40.637 40.637 0 0 1-9.805-.23 37.117 37.117 0 0 1-6.437-1.496c-.75-.23-1.309-.46-1.684-.614-.385-.153-.577-.239-.567-.259.019-.047.827.25 2.318.681 1.492.432 3.676.988 6.428 1.333a41.86 41.86 0 0 0 9.708.125c3.647-.374 7.582-1.324 11.498-2.915 3.926-1.573 7.563-3.366 11.056-4.603 3.474-1.275 6.793-1.898 9.603-1.946 2.809-.067 5.061.47 6.523 1.036.732.287 1.28.537 1.636.747.337.211.52.317.52.336zM285.036 196.97c.039 0 .058.47.058 1.332.009.432.009.959-.058 1.563-.058.604-.087 1.304-.231 2.062-.115.757-.26 1.592-.491 2.464-.192.882-.51 1.803-.827 2.771a32.56 32.56 0 0 1-2.887 5.945 32.545 32.545 0 0 1-4.127 5.177c-.741.7-1.424 1.391-2.146 1.937-.683.595-1.376 1.074-2.011 1.515-.616.46-1.241.786-1.761 1.103-.519.316-.991.556-1.385.729-.78.364-1.213.556-1.232.517-.048-.096 1.693-.863 4.166-2.636.616-.451 1.29-.94 1.953-1.544.703-.556 1.367-1.247 2.079-1.947a34.163 34.163 0 0 0 4.031-5.12 34.027 34.027 0 0 0 2.877-5.839c.318-.949.655-1.841.857-2.713.25-.854.413-1.669.548-2.417.539-3.001.472-4.899.587-4.899z" fill="#263238"/><path opacity=".3" d="M229.046 167.763c3.705 1.17 8.496-5.753 11.219-10.767 1.857-3.414 9.237-5.389 12.364-7.69 3.137-2.301 4.282-7.297 7.669-9.205.914-.518 1.886-.94 2.656-1.659.769-.709 1.289-1.802.981-2.799-.529-1.698-2.819-1.918-4.59-1.765a102.068 102.068 0 0 0-19.926 3.73M315.287 162.528c3.734-8.083-1.453-20.932-3.646-29.551l-6.553.632-1.636 27.078 11.835 1.841z" fill="#000"/><path d="M250.676 189.425c-.134 0-.327-4.43-.423-9.895-.096-5.475-.067-9.905.077-9.905.135 0 .327 4.43.423 9.895.096 5.465.058 9.905-.077 9.905zM254.563 189.424c-.134-.009.02-4.592.347-10.23.327-5.648.712-10.212.847-10.202.134.009-.02 4.592-.347 10.24-.327 5.628-.712 10.202-.847 10.192zM258.2 190.451c-.134-.01.126-4.708.578-10.49.462-5.782.943-10.461 1.077-10.451.135.009-.125 4.708-.577 10.489-.452 5.782-.943 10.461-1.078 10.452zM263.945 190.959c-.135 0-.337-4.948-.443-11.046-.105-6.108-.086-11.055.058-11.055.135 0 .337 4.947.443 11.046.106 6.107.077 11.055-.058 11.055zM267.197 190.699c-.135-.019.5-4.842 1.424-10.767.924-5.926 1.79-10.72 1.924-10.691.135.019-.5 4.842-1.424 10.767-.933 5.926-1.789 10.711-1.924 10.691zM273.788 191.467c-.067 0-.164-1.198-.212-3.154a91.787 91.787 0 0 1 .164-7.623c.183-2.972.491-5.657.779-7.584.289-1.928.539-3.117.597-3.107.067.01-.058 1.208-.25 3.145a201.8 201.8 0 0 0-.626 7.575 185.585 185.585 0 0 0-.308 7.594c-.048 1.946-.067 3.154-.144 3.154zM280.283 190.191c-.135 0-.212-4.698-.174-10.48.048-5.791.193-10.48.328-10.48.134 0 .211 4.689.173 10.48-.039 5.792-.183 10.48-.327 10.48zM284.814 189.424c-.067.01-.279-1.035-.529-2.732-.25-1.697-.529-4.066-.731-6.674a107.037 107.037 0 0 1-.318-6.712c-.019-1.716.029-2.78.097-2.78.067 0 .154 1.055.259 2.771.126 1.87.289 4.161.462 6.683.222 2.522.424 4.804.587 6.673.164 1.697.25 2.762.173 2.771z" fill="#FAFAFA"/><path opacity=".3" d="M281.081 235.322c-2.184 0-4.329.528-6.312 1.448-8.736 4.056-18.714 5.456-28.23 3.883-.991-.163-2.04-.354-2.993-.009-.952.345-1.703 1.438-1.289 2.358 0 0 10.353 3.174 22.621-1.169 14.154-5.015 11.46-5.552 16.492-6.511h-.289z" fill="#000"/><path d="M277.002 214.689c.019.029-.27.326-.818.844-.539.527-1.376 1.227-2.454 2.052-2.145 1.639-5.349 3.624-9.189 5.149-3.848 1.515-7.553 2.253-10.237 2.522-1.347.134-2.435.191-3.195.182-.76 0-1.174-.019-1.174-.058 0-.096 1.665-.115 4.321-.47 2.655-.354 6.292-1.141 10.093-2.636a44.405 44.405 0 0 0 9.17-4.967c2.184-1.573 3.415-2.694 3.483-2.618z" fill="#263238"/><path opacity=".3" d="M278.118 211.122c-2.867 3.692-6.168 7.661-10.796 8.419-2.088.345-4.214-.029-6.321-.231-2.108-.201-4.33-.22-6.216.739-1.886.968-3.262 3.193-2.608 5.206 0 0 10.796-.393 19.148-6.28 6.908-4.871 6.793-7.853 6.793-7.853z" fill="#000"/><path d="M269.612 79.476c-.914-3.394-3.483-5.062-6.813-6.194-3.338-1.131-7.226-.508-10.035 1.62-1.876 1.42-3.349 3.49-5.571 4.268-3.666 1.275-7.967-1.467-11.489.172-2.078.969-3.29 3.5-2.742 5.724.558 2.225 2.81 3.893 5.109 3.778-2.396.873-3.137 4.277-1.741 6.396 1.395 2.119 4.272 2.924 6.773 2.454 2.502-.47 4.686-1.985 6.582-3.682 1.895-1.697 3.598-3.615 5.619-5.158 2.021-1.544 4.484-2.714 7.024-2.57 3.445.182 6.398 2.771 7.938 5.849 1.539 3.078 1.886 6.597 2.078 10.029.193 3.433.25 6.923 1.27 10.212.116.383.299.815.693.939.558.173 1.039-.422 1.309-.93a50.243 50.243 0 0 0 5.783-18.764c.394-3.806.288-7.412-1.809-10.614-2.079-3.193-7.38-5.552-9.978-3.529z" fill="#263238"/><path d="M276.27 95.401l1.761 38.516c.029 2.694 0 10.298-11.017 10.298-9.035-.681-12.287-3.27-12.076-11.381.077-2.906-.144-3.213-.182-3.51 0 0-9.882-.479-11.037-10.144-.558-4.679-.923-14.392-1.145-23.194-.24-9.445 6.851-17.499 16.28-18.496l.934-.096c10.18-.48 16.28 7.863 16.482 18.007z" fill="#FFBE9D"/><path d="M254.727 129.201s6.196-.153 12.287-4.928c0 0-2.252 7.287-12.047 7.44l-.24-2.512z" fill="#EB996E"/><path d="M247.501 100.618c.048.728.721 1.294 1.491 1.256.77-.039 1.347-.662 1.299-1.4-.048-.729-.722-1.295-1.482-1.256-.779.038-1.366.67-1.308 1.4z" fill="#263238"/><path d="M245.172 100.53c.193.163 1.164-.73 2.656-.883 1.491-.172 2.665.47 2.809.279.068-.087-.134-.394-.654-.69-.51-.298-1.347-.547-2.271-.442-.933.106-1.674.528-2.088.92-.423.394-.548.739-.452.816zM262.02 99.343c.048.729.722 1.295 1.492 1.256.769-.038 1.347-.661 1.299-1.4-.049-.728-.722-1.294-1.482-1.256-.78.039-1.367.662-1.309 1.4z" fill="#263238"/><path d="M259.884 99.245c.192.162 1.164-.73 2.656-.883 1.491-.172 2.665.47 2.809.278.068-.086-.134-.393-.654-.69-.51-.297-1.347-.547-2.271-.441-.933.106-1.674.527-2.088.92-.423.403-.548.748-.452.816zM255.641 110.855c0-.087-.943-.144-2.473-.182-.385 0-.751-.039-.847-.288-.115-.269 0-.69.135-1.151.26-.959.529-1.965.818-3.01 1.126-4.286 1.895-7.796 1.722-7.844-.173-.048-1.231 3.395-2.357 7.681-.27 1.054-.529 2.061-.77 3.029-.096.451-.298.959-.038 1.515a.968.968 0 0 0 .683.489c.25.048.471.029.654.02 1.54-.077 2.482-.173 2.473-.259zM260.153 111.421c-.24.01-.077 1.63-1.337 2.925-1.261 1.294-3.012 1.304-3.002 1.524-.01.106.414.269 1.154.211.722-.048 1.742-.393 2.512-1.179.77-.796 1.039-1.774 1.02-2.436-.02-.681-.241-1.064-.347-1.045zM258.874 93.454c.192.393 1.664.038 3.435.067 1.78-.01 3.243.355 3.435-.038.087-.182-.202-.537-.818-.873-.606-.335-1.549-.604-2.617-.613-1.068 0-2.011.268-2.617.594-.606.326-.895.68-.818.863zM245.259 96.156c.298.306 1.289-.154 2.53-.298 1.232-.191 2.31-.019 2.512-.393.086-.182-.116-.508-.607-.776-.481-.269-1.27-.451-2.116-.336-.847.115-1.55.499-1.944.892-.395.393-.5.757-.375.91z" fill="#263238"/><path d="M276.241 102.659c.154-.087 6.466-2.676 6.966 3.969.491 6.645-6.302 5.772-6.331 5.58-.019-.191-.635-9.549-.635-9.549z" fill="#FFBE9D"/><path d="M278.733 109.543c.029-.019.125.077.327.144.202.076.529.105.866-.048.683-.307 1.193-1.467 1.136-2.666a3.826 3.826 0 0 0-.453-1.63c-.24-.47-.577-.786-.943-.824a.592.592 0 0 0-.663.364c-.077.192-.02.326-.058.336-.019.019-.154-.106-.116-.384a.744.744 0 0 1 .231-.431c.154-.144.385-.221.626-.221.519 0 1.01.432 1.289.94.308.508.51 1.141.539 1.822.058 1.342-.539 2.646-1.482 2.991-.462.153-.866.048-1.078-.096-.202-.144-.25-.287-.221-.297z" fill="#EB996E"/><path d="M240.303 94.203c4.407.68 9.093-.91 12.172-4.123 2.155-2.253 3.666-5.312 6.533-6.539 1.925-.825 4.195-.633 6.129.182 1.934.815 3.58 2.186 5.023 3.71-1.357 5.12.5 10.48 2.319 15.457.202.547.433 1.141.933 1.448.847.518 1.973-.077 2.588-.863.972-1.256 1.232-2.924 1.338-4.506.26-3.615-.048-7.297-1.212-10.73-1.165-3.432-3.233-6.606-6.11-8.821-3.599-2.761-8.352-3.893-12.865-3.346-4.512.546-8.765 2.713-12.075 5.81-1.54 1.438-2.916 3.126-3.58 5.12" fill="#263238"/><path d="M306.291 150.677l2.174 10.825s11.768 1.438 12.364 3.394l-20.687 6.031-4.291-17.805 10.44-2.445z" fill="#455A64"/><path opacity=".6" d="M301.787 162.124c-.375.201-.548.729-.356 1.112.193.384.722.566 1.097.364.385-.201.606-.815.376-1.179-.231-.364-.866-.537-1.184-.249M300.142 170.926l-.49-1.86 20.1-5.024s1.029.182 1.077.863l-20.687 6.021z" fill="#fff"/><path d="M308.773 161.31c.019.106-.481.269-.904.72-.433.431-.587.939-.693.92-.096 0-.096-.642.433-1.17.519-.537 1.164-.565 1.164-.47zM311.178 161.692c.049.096-.356.374-.596.882-.26.508-.241.987-.337 1.007-.096.038-.308-.537.01-1.17.308-.623.904-.815.923-.719zM313.055 164.013c-.087.048-.347-.432-.222-1.055.125-.623.558-.949.616-.882.077.067-.163.441-.26.949-.115.518-.038.959-.134.988zM308.003 158.905c-.019.106-.519.077-1.087.249-.568.163-.972.461-1.049.394-.077-.058.27-.537.943-.739.674-.211 1.232 0 1.193.096zM307.532 156.728c.009.038-.375.201-1.049.24a4.683 4.683 0 0 1-1.174-.077 4.566 4.566 0 0 1-.673-.173c-.116-.038-.241-.076-.376-.172-.134-.077-.269-.336-.173-.528a.569.569 0 0 1 .395-.335c.154-.038.288-.038.404-.038.25 0 .481.028.702.067.443.086.818.239 1.116.402.587.336.847.672.818.7-.038.048-.346-.22-.933-.47a4.654 4.654 0 0 0-1.059-.306 3.557 3.557 0 0 0-.644-.039c-.231-.009-.424.039-.462.154-.01.038-.01.057.048.115a.955.955 0 0 0 .279.124 5.652 5.652 0 0 0 1.732.326c.635.02 1.03-.048 1.049.01z" fill="#263238"/><path d="M307.426 156.898c-.029.029-.318-.287-.52-.939a3.423 3.423 0 0 1-.125-1.18c.01-.22.048-.46.116-.7.077-.23.154-.546.539-.68.202-.058.413.067.51.191.105.125.144.24.202.355.096.23.144.47.163.7.039.46-.058.873-.192 1.18-.279.632-.674.862-.693.824-.048-.038.26-.326.452-.92.096-.288.154-.662.096-1.055a2.186 2.186 0 0 0-.163-.595c-.087-.21-.212-.373-.289-.326-.106.02-.24.231-.289.432a3.058 3.058 0 0 0-.125.623c-.038.403-.009.777.049 1.093.125.614.327.969.269.997z" fill="#263238"/><path d="M280.293 134.274l-.577-1.352c-.616-1.448 4.869-12.935 13.086-14.575 3.493-.7 6.62 1.285 9.092 3.884 3.772 3.96 5.879 9.204 6.168 14.66l1.145 21.938-12.037 1.975s-7.64-25.61-8.169-25.744c-.529-.134-8.708-.786-8.708-.786z" fill="#263238"/><path d="M296.226 118.491c-.009.115-1.308-.336-3.339.134-2.03.431-4.58 1.879-6.937 4.008-2.377 2.1-3.935 4.583-4.936 6.395-1.001 1.832-1.482 3.04-1.559 3.011-.029-.01.058-.326.26-.882s.529-1.343.991-2.292c.933-1.879 2.473-4.449 4.917-6.606 2.396-2.157 5.071-3.624 7.207-3.979 1.058-.192 1.934-.163 2.521-.048.577.105.875.23.875.259zM297.169 160.803c-.135.039-2.396-6.759-5.042-15.188-2.655-8.428-4.705-15.293-4.57-15.331.135-.039 2.386 6.76 5.042 15.188 2.655 8.418 4.695 15.293 4.57 15.331zM224.793 146.613l-3.714 11.142s-12.614-.019-13.499 1.975l21.043 9.061 6.87-18.237-10.7-3.941z" fill="#455A64"/><path opacity=".6" d="M228.046 159.29a.923.923 0 0 1 .23 1.217c-.25.384-.837.499-1.212.24s-.529-.939-.24-1.294c.288-.355.981-.451 1.289-.115M228.633 168.79l.76-1.898-20.562-7.93s-1.107.058-1.251.767l21.053 9.061z" fill="#fff"/><path d="M220.772 157.515c-.039.105.471.345.856.873.404.517.5 1.064.616 1.064.106.019.183-.662-.299-1.295-.481-.632-1.154-.747-1.173-.642zM218.183 157.612c-.057.096.328.441.52 1.007.212.565.115 1.074.221 1.112.097.058.395-.527.145-1.237-.251-.709-.847-.988-.886-.882zM215.903 159.818c.086.058.423-.412.375-1.083-.048-.672-.462-1.084-.539-1.007-.086.067.116.489.145 1.035.057.557-.077 1.007.019 1.055zM221.907 155.07c.01.115.539.143 1.116.402.577.25.972.614 1.058.547.087-.058-.211-.604-.894-.902-.693-.297-1.309-.153-1.28-.047zM222.696 152.837c-.019.038.375.258 1.077.393.347.067.78.105 1.251.076.241-.019.481-.048.741-.096.125-.028.26-.047.414-.134.154-.067.327-.316.26-.537a.632.632 0 0 0-.366-.412c-.154-.067-.298-.077-.423-.096a3.967 3.967 0 0 0-.751-.019 4.23 4.23 0 0 0-1.231.278c-.664.278-.982.604-.953.633.039.048.395-.182 1.049-.374a4.445 4.445 0 0 1 1.838-.144c.25.029.442.096.461.221.01.048 0 .067-.067.115a1.327 1.327 0 0 1-.308.096c-.231.057-.462.086-.683.115a6.11 6.11 0 0 1-1.183.009c-.693-.057-1.107-.182-1.126-.124z" fill="#263238"/><path d="M222.773 153.037c.029.029.375-.268.673-.93.145-.326.26-.748.289-1.227.01-.24.01-.489-.029-.748-.048-.259-.096-.594-.481-.796a.523.523 0 0 0-.558.135c-.125.115-.183.239-.26.354-.135.23-.221.48-.269.719-.106.48-.058.93.048 1.276.212.709.606.997.625.958.058-.038-.231-.373-.356-1.025a2.697 2.697 0 0 1 .039-1.132c.057-.201.134-.412.25-.614.115-.21.269-.364.346-.306.106.038.222.278.241.489.038.23.048.46.048.68-.01.432-.087.825-.192 1.141-.203.643-.462.988-.414 1.026z" fill="#263238"/><path d="M254.967 131.606l-.202-2.272c-5.792-.604-9.573-3.797-10.757-8.582-2.357.47-5.032 1.304-7.659 2.733-9.256 5.005-8.053 4.392-8.053 4.392a12.265 12.265 0 0 0-4.176 6.778l-4.455 20.021 14.885 6.117 8.005-22.264 12.509-3.011a22.891 22.891 0 0 1-.097-3.912z" fill="#263238"/><path d="M244.479 130.687c.029.009-.057.441-.24 1.217-.183.777-.481 1.889-.857 3.26-.76 2.743-1.895 6.501-3.271 10.615a222.753 222.753 0 0 1-3.791 10.451 95.468 95.468 0 0 1-1.28 3.116c-.317.729-.51 1.131-.539 1.112-.028-.009.097-.431.356-1.189.299-.843.674-1.908 1.126-3.173a520.907 520.907 0 0 0 3.647-10.48 551.74 551.74 0 0 0 3.406-10.557l1.01-3.212c.241-.758.395-1.17.433-1.16z" fill="#455A64"/><path d="M247.376 133.246c.125.019-.337 1.745-1.819 3.308-1.462 1.582-3.156 2.157-3.185 2.042-.067-.134 1.444-.882 2.82-2.377 1.404-1.477 2.049-3.03 2.184-2.973z" fill="#455A64"/><path d="M437.543 430.28c2.925-1.505 6.37-1.697 9.622-1.169 1.742.287 3.57.805 4.753 2.119 1.184 1.304 1.415 3.605.048 4.727-.808.671-1.943.767-2.992.757-2.54-.029-5.369-.479-7.399 1.045-1.155.873-1.934 2.321-3.32 2.742-1.357.422-2.886-.383-3.608-1.601-.722-1.217-.741-2.742-.404-4.123 0 .01.356-2.982 3.3-4.497zM430.836 417.374c1.79 2.551 5.264 1.707 6.88.154 1.617-1.553 2.29-3.807 2.915-5.954 1.415-4.91 2.849-10.059 1.79-15.054-.317-1.496-.875-2.982-1.934-4.094-1.058-1.112-2.675-1.764-4.157-1.381-1.751.46-2.848 2.177-3.627 3.797a35.74 35.74 0 0 0-3.56 15.408c0 2.474.289 5.082 1.693 7.124zM425.929 421.037c1.944-2.301 2.31-5.647 1.444-8.524-.866-2.876-2.82-5.331-5.071-7.325a27.43 27.43 0 0 0-9.074-5.341c-1.308-.46-2.694-.825-4.079-.69-1.386.134-2.781.834-3.426 2.061-.952 1.812-.038 4.018.953 5.811a67.903 67.903 0 0 0 5.966 9.041c1.789 2.292 3.829 4.564 6.552 5.6 2.723 1.035 5.552.911 6.995-.969" fill="#B3D59C"/><path d="M430.721 455.796c.029 0 .087-.412.164-1.16.086-.844.182-1.898.307-3.154.145-1.333.347-2.915.712-4.632.366-1.716.943-3.576 1.694-5.465.77-1.879 1.703-3.586 2.8-4.947 1.087-1.372 2.357-2.359 3.541-2.934a9.917 9.917 0 0 1 2.983-.93c.74-.077 1.154-.135 1.154-.164 0-.028-.414-.038-1.174-.019-.75.048-1.857.24-3.108.806-1.25.556-2.597 1.563-3.733 2.963-1.154 1.39-2.126 3.135-2.906 5.043-.75 1.918-1.327 3.806-1.674 5.561-.356 1.755-.51 3.346-.616 4.689a70.02 70.02 0 0 0-.154 3.174c-.038.757-.028 1.169.01 1.169z" fill="#263238"/><path d="M430.933 453.369c.019 0 .029-.182.029-.537v-1.534c0-1.333 0-3.26.067-5.638.116-4.765.529-9.885 1.328-17.115.75-6.798 1.761-14.699 2.829-19.848.231-1.169.462-2.224.673-3.144.202-.921.385-1.717.558-2.369.145-.604.27-1.102.356-1.496.077-.345.106-.527.097-.527-.02 0-.077.173-.183.508-.116.384-.27.873-.443 1.467-.202.643-.404 1.429-.635 2.349-.24.921-.5 1.966-.75 3.136-1.059 4.66-2.175 11.17-2.974 18.419-.798 7.239-1.154 13.836-1.183 18.611a92.446 92.446 0 0 0 .087 5.657c.038.623.067 1.131.096 1.534.009.345.038.527.048.527z" fill="#263238"/><path d="M430.971 440.646c.029 0 .029-.575-.009-1.601a44.26 44.26 0 0 0-.491-4.344 57.644 57.644 0 0 0-1.415-6.328c-.298-1.074-.981-3.644-2.655-7.488-2.204-5.207-5.196-9.474-7.804-12.11-.606-.7-1.289-1.209-1.837-1.698-.279-.239-.53-.469-.789-.661-.25-.173-.491-.336-.712-.489-.857-.585-1.338-.892-1.357-.863-.077.105 1.924 1.275 4.445 3.95 2.512 2.666 5.427 6.894 7.611 12.062a59.193 59.193 0 0 1 2.675 7.422 64.925 64.925 0 0 1 1.511 6.27c.336 1.803.529 3.28.644 4.305.077 1.007.145 1.582.183 1.573z" fill="#263238"/><path d="M99.67 429.4c10.305-10.634 9.988-26.579 6.793-40.348-.529-2.301-.76-4.784-2.261-6.606-1.501-1.812-4.349-2.704-6.244-1.323-1.569 1.141-1.925 3.289-2.57 5.13a13.84 13.84 0 0 1-4.425 6.241c-1.328 1.055-3.07 1.88-4.686 1.362-2.223-.709-2.993-3.423-3.435-5.724-.818-4.296-1.626-8.591-2.444-12.887-.433-2.301-.895-4.65-2.04-6.702-1.145-2.042-3.137-3.768-5.446-3.95-2.32-.183-4.782 1.611-4.811 3.95-.01.978.375 1.908.5 2.877.125.968-.115 2.109-.972 2.56-.866.45-1.924-.02-2.742-.566-2.838-1.86-5.042-4.535-7.14-7.22-2.097-2.685-4.156-5.446-6.821-7.556-2.656-2.109-6.043-3.538-9.391-3.077-3.349.46-6.466 3.183-6.668 6.577-.202 3.404 2.348 6.328 4.926 8.553a52.4 52.4 0 0 0 12.73 8.102c.827.374 1.732.777 2.175 1.572.798 1.439-.356 3.241-1.78 4.047-1.607.91-3.512 1.093-5.273 1.658-1.761.566-3.55 1.736-3.907 3.567-.48 2.541 1.973 4.622 4.234 5.849a45.117 45.117 0 0 0 14.548 4.967c1.819.287 3.714.479 5.321 1.409 1.607.921 2.839 2.829 2.329 4.612-.51 1.784-2.531 2.714-4.378 2.733-1.848.019-3.628-.633-5.446-.94-3.406-.575-7.467.441-8.958 3.567-.982 2.062-.606 4.583.49 6.587 1.097 2.014 2.83 3.586 4.619 5.005 6.254 4.957 13.701 8.476 21.563 9.579 7.86 1.122 14.817.489 21.61-3.605z" fill="#B3D59C"/><path d="M104.26 449.851c-.327-3.117-.799-4.823-2.396-10.212-1.578-5.389-4.06-11.64-7.495-18.227-3.416-6.597-7.775-13.52-12.567-20.596-1.202-1.764-2.395-3.509-3.57-5.235-1.173-1.716-2.347-3.414-3.588-5.005-2.473-3.193-5.1-6.079-7.678-8.745-2.58-2.665-5.12-5.101-7.515-7.354-2.396-2.253-4.676-4.315-6.832-6.098a83.44 83.44 0 0 0-10.795-7.68 72.29 72.29 0 0 0-3.128-1.784c-.346-.182-.625-.326-.827-.441-.183-.096-.289-.144-.289-.134 0 .01.087.067.27.173.202.115.471.278.808.479.712.412 1.751 1.026 3.079 1.851a87.374 87.374 0 0 1 10.68 7.766c2.136 1.803 4.397 3.864 6.784 6.127 2.386 2.272 4.907 4.708 7.476 7.373 2.56 2.666 5.167 5.542 7.63 8.726 1.232 1.582 2.386 3.269 3.57 4.995 1.174 1.717 2.367 3.462 3.57 5.226 4.791 7.076 9.14 13.98 12.575 20.538 3.445 6.558 5.937 12.771 7.553 18.131 1.627 5.36 2.146 7.038 2.521 10.145" fill="#263238"/><path d="M74.519 390.577c.028 0 .038-.365.028-1.026 0-.662-.038-1.611-.105-2.79-.125-2.359-.404-5.6-.732-9.176-.327-3.577-.558-6.818-.644-9.167a114.982 114.982 0 0 1-.087-2.78c-.02-.662-.038-1.026-.067-1.026-.03 0-.068.364-.096 1.016a44.588 44.588 0 0 0-.049 2.79c.01 2.359.193 5.619.52 9.205.327 3.529.625 6.721.856 9.166.097 1.103.174 2.033.24 2.781.059.643.097 1.007.136 1.007z" fill="#263238"/><path d="M43.738 390.834c.01.029.433 0 1.213-.086.779-.077 1.895-.201 3.28-.307 2.781-.24 6.62-.431 10.883-.46 4.253-.019 8.111.125 10.892.307 1.395.086 2.52.182 3.3.239.78.068 1.213.087 1.213.058 0-.029-.424-.105-1.194-.23a57.334 57.334 0 0 0-3.29-.384c-2.78-.259-6.649-.46-10.921-.431-4.262.029-8.13.268-10.902.594a48.506 48.506 0 0 0-3.28.451c-.78.125-1.194.211-1.194.249zM93.897 420.934c.02 0 .058-.134.135-.403.077-.316.183-.7.298-1.169.25-1.017.587-2.493.962-4.334.77-3.673 1.665-8.774 2.589-14.411.914-5.648 1.77-10.749 2.453-14.421.337-1.793.626-3.26.828-4.353.086-.47.163-.863.221-1.189.048-.269.058-.412.048-.422-.019 0-.058.134-.135.403-.077.316-.182.7-.298 1.169-.25 1.017-.587 2.493-.962 4.334-.77 3.673-1.665 8.774-2.588 14.411-.914 5.638-1.77 10.749-2.454 14.421-.337 1.793-.625 3.26-.827 4.353-.087.47-.164.863-.222 1.189-.048.278-.057.422-.048.422z" fill="#263238"/><path d="M51.955 415.947c0 .019.145.048.424.086.327.038.73.096 1.222.163l4.493.537c3.791.46 9.025 1.15 14.808 1.927 5.783.777 11.027 1.419 14.828 1.793 1.905.192 3.444.326 4.512.403.49.029.895.057 1.232.076.279.01.433.01.433 0 0-.019-.145-.047-.424-.086-.327-.038-.73-.096-1.222-.163l-4.493-.537c-3.791-.46-9.025-1.15-14.808-1.927-5.783-.777-11.027-1.419-14.827-1.793a167.409 167.409 0 0 0-4.513-.403c-.49-.028-.895-.057-1.232-.076-.279-.01-.433-.01-.433 0z" fill="#263238"/><path d="M117.896 431.222c-7.284-8.792-6.072-21.036-2.791-31.43.549-1.735.866-3.634 2.136-4.938 1.27-1.304 3.512-1.812 4.879-.642 1.135.978 1.279 2.646 1.664 4.094a10.59 10.59 0 0 0 3.031 5.062c.962.892 2.242 1.63 3.522 1.324 1.751-.413 2.511-2.455 2.983-4.2l2.655-9.761c.472-1.745.962-3.528 1.973-5.024 1-1.505 2.636-2.704 4.426-2.714 1.789 0 3.579 1.525 3.454 3.328-.048.747-.404 1.447-.558 2.186-.154.738-.039 1.63.597 2.023.644.393 1.481.096 2.145-.269 2.3-1.256 4.157-3.183 5.927-5.12 1.771-1.937 3.531-3.941 5.696-5.398 2.175-1.467 4.859-2.359 7.409-1.803 2.54.557 4.782 2.829 4.734 5.456-.048 2.637-2.184 4.727-4.301 6.28a40.54 40.54 0 0 1-10.276 5.466c-.664.239-1.376.489-1.761 1.083-.702 1.055.077 2.512 1.126 3.212 1.184.796 2.636 1.055 3.955 1.592 1.318.537 2.626 1.544 2.79 2.972.221 1.975-1.799 3.433-3.608 4.248a34.902 34.902 0 0 1-11.479 2.953c-1.415.115-2.887.153-4.176.767-1.289.614-2.348 2.004-2.069 3.404.289 1.4 1.78 2.244 3.204 2.368 1.415.125 2.829-.268 4.244-.393 2.655-.24 5.715.786 6.677 3.279.635 1.64.193 3.558-.77 5.044-.962 1.476-2.395 2.589-3.848 3.576-5.11 3.433-11.046 5.696-17.156 6.079-6.149.365-11.46-.546-16.434-4.104z" fill="#B3D59C"/><path d="M169.91 380.309c0 .01-.067.048-.212.115-.163.077-.375.183-.644.317-.568.278-1.415.681-2.483 1.237a67.944 67.944 0 0 0-8.679 5.331c-1.751 1.256-3.617 2.704-5.58 4.305a189.42 189.42 0 0 0-6.197 5.216c-2.126 1.889-4.31 3.95-6.389 6.252-1.049 1.141-2.04 2.368-3.04 3.624a2904.54 2904.54 0 0 0-3.06 3.806c-4.118 5.159-7.871 10.202-10.911 15.044-3.041 4.833-5.34 9.464-6.899 13.491-1.578 4.027-2.434 7.431-2.906 9.799a55.107 55.107 0 0 0-.481 2.743l-.116.719a3.164 3.164 0 0 1-.048.239c-.009 0 0-.086.02-.249.019-.182.048-.412.077-.719.067-.633.211-1.563.423-2.752.443-2.378 1.26-5.801 2.819-9.857 1.54-4.055 3.83-8.706 6.861-13.567 3.03-4.871 6.793-9.924 10.911-15.082 1.029-1.285 2.059-2.56 3.06-3.807 1.01-1.246 2.011-2.483 3.059-3.634 2.098-2.311 4.292-4.372 6.428-6.261a176.859 176.859 0 0 1 6.225-5.206c1.982-1.592 3.858-3.04 5.619-4.286a64.453 64.453 0 0 1 8.756-5.255 68.173 68.173 0 0 1 2.511-1.189c.28-.124.501-.22.664-.287.135-.067.212-.096.212-.087z" fill="#263238"/><path d="M139.572 402.877c-.019 0-.009-.287.039-.786.038-.508.125-1.237.25-2.138.241-1.803.645-4.286 1.116-7.019.462-2.732.837-5.206 1.049-7.009.106-.901.183-1.63.231-2.138.048-.508.086-.786.115-.786.02 0 .029.278.02.796a35.21 35.21 0 0 1-.125 2.148c-.145 1.812-.491 4.305-.953 7.047-.462 2.694-.885 5.13-1.212 6.99-.145.844-.26 1.553-.356 2.119-.087.508-.145.786-.174.776z" fill="#263238"/><path d="M163.223 404.921c-.01.019-.337-.029-.924-.144-.587-.106-1.443-.269-2.511-.441a114.052 114.052 0 0 0-8.333-1.007c-3.271-.268-6.244-.393-8.39-.412-1.078-.019-1.944-.01-2.55-.01-.606 0-.933-.009-.933-.029 0-.019.327-.057.933-.105a46.559 46.559 0 0 1 2.55-.096c2.155-.038 5.138.048 8.419.317 3.281.278 6.235.699 8.352 1.102 1.058.202 1.915.393 2.492.547.577.163.904.259.895.278zM122.84 425.065c-.01 0-.039-.106-.077-.317-.039-.249-.096-.546-.154-.92a92.02 92.02 0 0 1-.481-3.385c-.366-2.867-.751-6.846-1.116-11.237-.366-4.392-.712-8.371-1.02-11.238-.154-1.4-.279-2.541-.375-3.394-.039-.374-.068-.671-.097-.93-.019-.211-.019-.326-.009-.326.009 0 .038.105.077.316.038.25.096.547.154.921.134.796.298 1.956.481 3.384.365 2.867.75 6.846 1.116 11.238.365 4.391.712 8.37 1.02 11.237.154 1.4.279 2.541.375 3.395.039.373.067.671.096.93.019.211.019.316.01.326zM155.391 423.741c0 .01-.116.029-.327.038-.26.01-.568.029-.953.048-.876.039-2.05.087-3.483.144-2.944.125-7.005.345-11.498.595-4.494.249-8.564.431-11.508.489-1.472.028-2.665.048-3.493.038-.385-.01-.693-.01-.952-.01-.222-.009-.328-.019-.328-.028 0-.01.116-.029.328-.039.25-.009.567-.029.952-.048.876-.038 2.05-.086 3.483-.144 2.945-.124 7.015-.345 11.498-.594 4.494-.249 8.564-.431 11.508-.489 1.472-.029 2.665-.048 3.493-.038.385.009.693.009.953.009.211.01.327.019.327.029z" fill="#263238"/><path d="M102.922 302c-19.31-5.024-36.188-17.68-45.579-34.172-9.39-16.492-11.16-36.599-4.782-54.298 4.975-13.808 14.577-25.965 18.686-40.022 4.667-15.955 1.886-32.878-.991-49.197-2.887-16.319-5.821-33.185-1.443-49.217 4.378-16.022 18.156-31.075 35.88-32.216 16.444-1.055 31.627 10.278 38.478 24.23 6.86 13.95 6.908 29.934 5.301 45.198-1.597 15.265-4.724 30.51-3.743 45.823 1.983 30.989 20.639 60.166 18.446 91.146-1.145 16.137-7.852 26.463-19.331 38.592-9.891 10.461-26.345 17.336-40.922 14.133z" fill="#B3D59C"/><path d="M108.744 455.576c-.174 0-.308-68.661-.308-153.335 0-84.703.134-153.355.308-153.355.173 0 .308 68.643.308 153.355 0 84.674-.135 153.335-.308 153.335zM107.849 248.421c-.058.057-1.145-.902-2.839-2.493a157.45 157.45 0 0 1-6.418-6.424c-2.415-2.58-4.657-4.862-6.263-6.53-1.607-1.668-2.589-2.723-2.521-2.781.057-.057 1.144.902 2.838 2.493a157.187 157.187 0 0 1 6.418 6.424c2.415 2.58 4.657 4.862 6.264 6.53 1.606 1.668 2.588 2.723 2.521 2.781z" fill="#263238"/><path d="M161.067 442.842H58.152v12.532h102.915v-12.532zM109.706 184.18c-.068-.163 2.751-.326 6.283-2.608 1.751-1.122 3.589-2.819 5.042-5.053 1.472-2.225 2.53-5.005 2.742-8.016.009-.096.019-.182.029-.269l.356.298c-3.156.469-5.725 2.253-7.573 4.151-1.895 1.899-3.194 3.941-4.224 5.648a54.835 54.835 0 0 0-2.203 4.19c-.481 1.007-.741 1.572-.789 1.553-.039-.009.154-.604.567-1.639a39.6 39.6 0 0 1 2.04-4.306c.991-1.754 2.261-3.844 4.186-5.82 1.866-1.965 4.551-3.864 7.909-4.362l.395-.058-.039.355c-.01.086-.019.182-.029.278-.221 3.116-1.337 5.983-2.877 8.256-1.53 2.291-3.454 4.007-5.282 5.11-1.828 1.122-3.503 1.707-4.676 1.975-.578.163-1.059.192-1.367.25-.317.067-.49.086-.49.067z" fill="#263238"/><path d="M109.705 184.179c-.134-.106 1.8-2.493 4.311-5.341 2.511-2.848 4.657-5.072 4.792-4.976.134.096-1.8 2.493-4.311 5.341-2.511 2.847-4.657 5.072-4.792 4.976z" fill="#263238"/></svg>