<svg width="487" height="506" fill="none" xmlns="http://www.w3.org/2000/svg"><path opacity=".1" fill-rule="evenodd" clip-rule="evenodd" d="M34.719 291.308s-39.799 83.865 49.51 124.944c89.299 41.1 147.208-47.334 207.361-22.299 60.174 25.042 98.326-.638 84.383-77.798-13.943-77.159 4.515-114.469 22.096-135.339 39.686-47.114 20.03-112.112-115.498-108.021C147.065 76.894 66.677 206.429 34.719 291.308z" fill="#0079C8"/><path d="M422.407 227.801l12.86-15.561s3.231-21.098 2.774-24.079c-.374-2.494-2.472-8.633-3.553-11.697a1.821 1.821 0 0 1 1.434-2.41c2.337-.385 6.16.02 9.131 5.64 2.722 5.174 4.155 12.185 4.841 16.746a3.945 3.945 0 0 0 5.069 3.179c5.859-1.829 14.221-3.917 18.055-4.374 3.521-.415 7.489 2.94 8.258 5.454.582 1.891-2.379 5.516-2.379 5.516s3.065 1.205 4.187 3.366c.145.28.27.561.394.831a5.5 5.5 0 0 1-.665 5.422l-.81 1.091s3.74.634 4.394 2.67c.655 2.036.333 4.612.333 4.612l-3.065 3.875s1.735 1.257 2.109 3.158c.364 1.901-4.28 7.167-4.28 7.167l-23.601 8.955-8.269 7.926-27.217-27.487z" fill="#B78876"/><path d="M480.944 206.776c.01.021-.167.114-.499.291a93.3 93.3 0 0 1-1.465.737c-1.35.655-3.179 1.548-5.412 2.639-2.316 1.101-5.038 2.41-8.061 3.843-1.527.696-3.075 1.538-4.841 2.161-1.724.602-3.937.8-5.672-.436-.852-.613-1.392-1.569-1.61-2.535-.218-.976-.145-1.974.104-2.888.499-1.87 1.849-3.262 3.2-4.28 1.381-1.018 2.815-1.745 4.134-2.441 1.319-.696 2.545-1.34 3.677-1.942 2.203-1.143 4.01-2.088 5.34-2.774.592-.291 1.08-.54 1.464-.727.343-.166.52-.239.53-.218.011.02-.156.124-.478.322l-1.412.82c-1.309.727-3.086 1.725-5.257 2.93-1.122.613-2.337 1.288-3.646 1.994-1.309.717-2.722 1.455-4.051 2.452-1.299.987-2.545 2.306-2.992 4.02-.478 1.652-.187 3.75 1.309 4.841.737.53 1.652.779 2.545.8.904.031 1.797-.156 2.639-.437 1.682-.592 3.261-1.433 4.799-2.108 3.033-1.403 5.776-2.67 8.102-3.74a917.977 917.977 0 0 0 5.485-2.483c.603-.26 1.101-.478 1.507-.644.374-.145.561-.208.561-.197z" fill="#AA6550"/><path d="M483.509 217.537c.011.031-.384.25-1.132.603-.748.353-1.828.841-3.179 1.413a158.844 158.844 0 0 1-10.741 4.082c-1.059.353-2.098.727-3.168.956-1.06.218-2.161.259-3.148-.063-1.984-.664-3.116-2.451-3.251-3.968a4.716 4.716 0 0 1 .987-3.365c.259-.333.519-.541.685-.676.177-.124.281-.187.291-.166.031.042-.353.301-.81.966-.436.655-.956 1.787-.779 3.2.166 1.371 1.246 2.971 3.023 3.542.883.27 1.88.239 2.888.021 1.007-.218 2.036-.592 3.095-.946a264.35 264.35 0 0 0 10.772-3.916c1.289-.498 2.379-.914 3.242-1.257.779-.311 1.215-.457 1.225-.426z" fill="#AA6550"/><path d="M484.195 227.656c.011.031-.395.166-1.122.374-.851.228-1.89.498-3.116.831a645.334 645.334 0 0 1-10.315 2.524c-1.008.229-1.995.499-2.992.613-.997.125-2.026.031-2.898-.374-.873-.384-1.569-1.122-1.798-1.963-.238-.831-.114-1.652.146-2.317.561-1.34 1.579-2.005 2.233-2.379.676-.363 1.091-.478 1.101-.446.021.041-.363.218-.997.623-.602.415-1.527 1.101-1.984 2.327-.218.602-.301 1.34-.073 2.046.219.707.8 1.309 1.579 1.642.779.342 1.694.415 2.629.301.945-.115 1.921-.385 2.929-.613 4.041-.956 7.697-1.797 10.357-2.369 1.246-.259 2.296-.477 3.158-.654.737-.135 1.163-.197 1.163-.166z" fill="#AA6550"/><path d="M483.832 236.849c0 .073-1.33.135-3.491.166-2.15.032-5.131.042-8.424.021-.821-.01-1.621-.01-2.4-.021-.769-.01-1.548-.01-2.285-.197-.728-.177-1.392-.571-1.818-1.122a2.125 2.125 0 0 1-.395-1.839c.332-1.153 1.184-1.693 1.735-1.942.571-.249.935-.229.935-.198.01.052-.333.094-.842.385-.488.28-1.226.862-1.454 1.839a1.75 1.75 0 0 0 .374 1.475c.363.446.935.768 1.589.914.655.156 1.392.156 2.171.156.779 0 1.579.01 2.4.01 3.293.021 6.264.073 8.414.135 2.161.062 3.491.145 3.491.218zM462.152 227.885c-.083.155-2.462-1.32-5.797-1.839-3.324-.561-6.056.093-6.077-.083-.062-.115 2.712-1.029 6.16-.457 3.47.54 5.807 2.285 5.714 2.379z" fill="#AA6550"/><path d="M346.948 279.056l78.627-56.583 27.965 32.047-61.56 63.45c-27.507 24.879-37.137 31.185-82.74 5.204l-28.941-16.579 10.689 132h-130.92c-14.377-.457 18.698-36.524 16.434-36.524l-28.702-96.93-44.43 29.855 42.113 32.919-15.582 36.067-71.947-33.335c-26.105-17.358-22.594-51.161-.333-73.235 40.088-39.734 71.117-68.644 105.397-74.503 17.712-5.308 28.1-6.233 28.1-6.233 27.59-.395 29.657-.301 44.429.395 3.968.187 4.301.426 8.57 1.049 16.133 2.379 31.414 8.716 44.575 18.345l58.256 42.591z" fill="#0079C8"/><path d="M348.829 305.515c-.032.021-.25-.322-.603-.956-.364-.633-.81-1.579-1.288-2.794-.488-1.205-.935-2.69-1.319-4.373a33.978 33.978 0 0 1-.707-5.548 33.039 33.039 0 0 1 .312-5.588c.26-1.704.613-3.221 1.008-4.457.384-1.236.768-2.223 1.08-2.877.312-.655.488-1.008.53-.997.104.041-.551 1.506-1.216 3.989-.343 1.236-.644 2.732-.872 4.414a38.448 38.448 0 0 0-.26 5.496c.083 1.953.322 3.802.644 5.464.343 1.651.748 3.127 1.184 4.342.852 2.42 1.6 3.833 1.507 3.885z" fill="#263238"/><path d="M277.515 337.011c8.04-9.661 11.458-23.01 9.058-35.351-2.399-12.341-10.585-23.425-21.669-29.367" fill="#0079C8"/><path d="M264.862 274.34c.011-.011.208.103.561.332.353.239.894.571 1.538 1.07 1.319.956 3.137 2.462 5.194 4.529 4.134 4.103 8.892 10.741 12.548 18.844 1.891 4.051 2.774 8.321 2.774 12.185.01 3.885-.758 7.313-1.621 10.087-.851 2.794-1.828 4.945-2.493 6.42-.342.685-.623 1.236-.841 1.672-.197.384-.312.571-.322.571-.021-.01.062-.218.228-.612.198-.447.437-1.008.748-1.714.603-1.496 1.527-3.657 2.317-6.441.81-2.763 1.527-6.171 1.485-9.983-.02-3.802-.903-7.968-2.763-11.967-3.636-8.051-8.29-14.668-12.33-18.802-2.005-2.088-3.771-3.626-5.049-4.623-.623-.519-1.143-.872-1.475-1.143-.333-.27-.509-.415-.499-.425zM235.828 311.612c.021 0 .021.156.01.446-.02.291-.01.717-.083 1.268-.104 1.101-.363 2.68-.914 4.591-1.07 3.782-3.615 8.882-8.186 12.933-4.57 4.041-9.951 5.942-13.836 6.545-1.953.312-3.564.384-4.665.343-.55 0-.976-.052-1.267-.073-.291-.031-.436-.052-.436-.073 0-.041.613-.041 1.703-.072a30.816 30.816 0 0 0 4.602-.509c3.823-.686 9.059-2.618 13.546-6.576 4.477-3.958 7.022-8.934 8.176-12.642.592-1.86.903-3.418 1.07-4.498.166-1.081.238-1.683.28-1.683zM184.459 360.623c.021 0 .063.197.146.581.083.447.176 1.008.301 1.694.135.737.28 1.641.363 2.7.094 1.06.26 2.265.281 3.605.021.675.052 1.371.073 2.098.02.728-.021 1.486-.032 2.275 0 1.579-.176 3.252-.322 5.018a68.842 68.842 0 0 1-2.254 11.292 69.817 69.817 0 0 1-4.248 10.699c-.842 1.558-1.6 3.065-2.462 4.384-.416.665-.79 1.33-1.205 1.932-.416.592-.821 1.174-1.205 1.725-.738 1.111-1.538 2.036-2.192 2.867a24.08 24.08 0 0 1-1.777 2.067c-.477.509-.872.924-1.173 1.257-.271.28-.426.426-.437.415-.01-.01.114-.176.353-.488.291-.343.655-.779 1.102-1.319a29.349 29.349 0 0 0 1.703-2.119c.634-.852 1.403-1.777 2.119-2.899.374-.55.769-1.132 1.174-1.724.405-.602.769-1.267 1.174-1.932.841-1.319 1.579-2.826 2.4-4.374 1.537-3.157 3.012-6.741 4.176-10.626a71.373 71.373 0 0 0 2.275-11.188c.155-1.746.353-3.408.363-4.976.021-.779.073-1.538.063-2.265-.011-.727-.032-1.423-.042-2.088.01-1.329-.135-2.534-.197-3.584a33.479 33.479 0 0 0-.271-2.701c-.083-.696-.145-1.256-.207-1.703-.052-.405-.063-.613-.042-.623zM75.717 329.614c-.01-.031.395-.166 1.133-.384.363-.114.82-.229 1.36-.332.53-.104 1.143-.25 1.818-.323 1.361-.207 2.992-.322 4.81-.311 1.818.041 3.812.218 5.88.623a36.108 36.108 0 0 1 5.66 1.683c1.684.686 3.148 1.423 4.322 2.14.603.332 1.101.696 1.559.997.457.301.831.582 1.121.831.603.478.915.759.894.79-.062.083-1.392-.966-3.771-2.286-1.184-.665-2.649-1.35-4.311-2.005a38.24 38.24 0 0 0-5.589-1.62 38.424 38.424 0 0 0-5.786-.655c-1.787-.041-3.407.032-4.758.198-2.68.301-4.31.758-4.342.654zM164.847 274.465c-.021 0 .01-.219.093-.613.083-.457.197-1.029.333-1.735a61.36 61.36 0 0 0 .862-6.43c.197-2.722.239-6.005-.291-9.578-.509-3.563-1.673-7.417-3.698-11.053-2.036-3.615-4.758-6.617-7.75-8.622-2.981-2.015-6.118-3.085-8.798-3.522-2.691-.425-4.924-.27-6.431-.01-1.506.249-2.316.54-2.326.488-.011-.02.197-.093.581-.228.385-.146.956-.301 1.714-.468 1.507-.322 3.771-.54 6.524-.155a22.242 22.242 0 0 1 9.017 3.49c3.075 2.026 5.869 5.08 7.936 8.767 2.057 3.699 3.231 7.625 3.719 11.24.509 3.626.426 6.939.177 9.682a51.777 51.777 0 0 1-1.039 6.44c-.177.748-.322 1.33-.436 1.714-.104.395-.167.593-.187.593z" fill="#263238"/><path d="M123.938 268.741c-.145 0-.249-3.833-.228-8.55.021-4.726.166-8.549.312-8.549.145 0 .249 3.833.228 8.549-.021 4.717-.156 8.55-.312 8.55zM104.201 293.631c-.114.093-1.932-1.839-4.072-4.332s-3.781-4.591-3.667-4.685c.114-.093 1.932 1.839 4.072 4.332s3.781 4.591 3.667 4.685zM137.318 288.749c.042.145-3.251 1.121-7.344 2.191-4.093 1.07-7.438 1.818-7.48 1.673-.041-.146 3.252-1.122 7.345-2.192s7.438-1.818 7.479-1.672zM151.113 277.914c-.072.01-.249-.79-.436-2.099a50.725 50.725 0 0 1-.436-5.142 53.999 53.999 0 0 1 .052-5.163c.083-1.319.208-2.129.28-2.129.156.01.052 3.262.208 7.271.145 4 .488 7.231.332 7.262zM99.516 323.361c-.145 0-.27-3.179-.27-7.105 0-3.927.125-7.106.28-7.106.146 0 .27 3.179.27 7.106 0 3.926-.124 7.105-.28 7.105zM76.673 315.789c-.052.135-3.989-1.299-8.788-3.21-4.8-1.912-8.643-3.574-8.591-3.719.052-.135 3.989 1.298 8.788 3.21 4.8 1.911 8.643 3.573 8.591 3.719zM56.8 341.676c-.145-.021.084-3.21.52-7.137.436-3.926.914-7.095 1.06-7.074.145.021-.084 3.21-.52 7.137-.436 3.926-.914 7.095-1.06 7.074zM89.253 362.97c-.02.073-1.06-.197-2.732-.633-1.672-.437-3.968-1.039-6.534-1.642a253.391 253.391 0 0 0-6.586-1.423c-1.693-.343-2.742-.561-2.722-.633.01-.073 1.08.01 2.795.259 1.714.25 4.072.665 6.638 1.268 2.576.602 4.872 1.257 6.513 1.797 1.652.54 2.649.935 2.628 1.007zM100.586 353.373c-.145.031-.955-3.127-1.797-7.054-.852-3.926-1.413-7.136-1.267-7.167.145-.032.956 3.126 1.797 7.053.852 3.927 1.413 7.137 1.267 7.168zM112.034 384.256c-.011.072-.935.02-2.41-.187a51.246 51.246 0 0 1-5.714-1.174 48.452 48.452 0 0 1-5.547-1.818c-1.392-.551-2.213-.966-2.181-1.039.03-.073.903.218 2.316.675a108.57 108.57 0 0 0 5.558 1.652c2.191.582 4.186 1.018 5.64 1.319 1.444.312 2.348.499 2.338.572zM124.925 381.14c-.072-.01 0-.987.125-2.545.125-1.569.28-3.729.384-6.118.094-2.39.115-4.561.115-6.14 0-1.568.01-2.545.083-2.555.072 0 .197.966.301 2.545a65.283 65.283 0 0 1-.499 12.31c-.228 1.558-.436 2.513-.509 2.503zM174.601 308.486c-.125.093-2.223-2.587-5.028-5.703-2.805-3.117-5.246-5.485-5.142-5.599.052-.052.727.467 1.745 1.402a56.252 56.252 0 0 1 3.792 3.844 54.296 54.296 0 0 1 3.418 4.176c.82 1.111 1.267 1.838 1.215 1.88zM203.926 282.35c.094.114-1.953 1.901-4.57 3.999-2.618 2.088-4.82 3.688-4.904 3.573-.093-.114 1.953-1.901 4.571-3.999 2.618-2.098 4.81-3.698 4.903-3.573zM187.586 267.795c-.146 0-.208-4.456-.125-9.951.083-5.496.26-9.942.415-9.942.146 0 .208 4.457.125 9.952-.083 5.495-.27 9.941-.415 9.941zM235.142 239.997c-.135-.073 1.579-3.594 3.834-7.874 2.243-4.28 4.176-7.698 4.311-7.625.135.073-1.579 3.594-3.834 7.874-2.254 4.28-4.186 7.698-4.311 7.625zM231.683 270.954c-.125.083-2.805-3.418-5.994-7.822-3.189-4.415-5.672-8.062-5.557-8.145.124-.083 2.804 3.418 5.993 7.822 3.19 4.415 5.683 8.062 5.558 8.145zM267.387 249.813c.114.104-2.13 2.732-5.007 5.869-2.878 3.138-5.298 5.6-5.412 5.506-.115-.104 2.129-2.732 5.007-5.869 2.877-3.148 5.297-5.61 5.412-5.506zM256.292 299.708c-.125.083-2.597-3.262-5.516-7.469-2.929-4.217-5.194-7.697-5.069-7.78.124-.084 2.597 3.261 5.516 7.479 2.919 4.197 5.183 7.687 5.069 7.77zM216.6 315.498c-.135-.052 1.091-3.355 2.742-7.365 1.652-4.01 3.106-7.22 3.252-7.157.135.051-1.091 3.355-2.743 7.365-1.651 4.009-3.106 7.219-3.251 7.157zM190.048 337.51c-.073.136-4.654-2.15-10.253-5.09-5.589-2.939-10.066-5.433-9.993-5.568.072-.135 4.653 2.151 10.253 5.09 5.588 2.94 10.066 5.433 9.993 5.568zM207.448 375.498c-.062-.031.436-1.039 1.35-2.587a69.593 69.593 0 0 1 3.917-5.858c1.641-2.213 3.251-4.114 4.477-5.433 1.226-1.33 2.036-2.088 2.088-2.036.062.051-.655.903-1.797 2.295a138.059 138.059 0 0 0-4.332 5.506 135.347 135.347 0 0 0-4.02 5.734c-.998 1.486-1.61 2.421-1.683 2.379zM173.593 368.518c-.146 0-.343-2.535-.426-5.672-.083-3.137-.042-5.682.114-5.693.146 0 .343 2.535.426 5.672.094 3.137.042 5.682-.114 5.693zM204.851 406.091c-.125.093-1.964-2.213-4.405-4.914-2.431-2.7-4.539-4.768-4.436-4.882.094-.104 2.39 1.797 4.841 4.519 2.462 2.722 4.124 5.194 4 5.277zM187.835 420.645c.083.125-2.753 2.327-6.337 4.924-3.583 2.597-6.565 4.602-6.658 4.488-.083-.125 2.753-2.327 6.336-4.924 3.595-2.597 6.566-4.602 6.659-4.488zM227.268 422.505c.011.083-.935.239-2.441.529a86.539 86.539 0 0 0-5.859 1.33 84.019 84.019 0 0 0-5.734 1.787c-1.454.509-2.348.841-2.379.769-.031-.063.821-.52 2.244-1.122a45.144 45.144 0 0 1 5.734-1.953c2.285-.613 4.405-.998 5.942-1.185 1.527-.197 2.493-.228 2.493-.155zM243.878 419.055c-.145.021-1.028-4.913-1.963-11.011-.935-6.108-1.579-11.073-1.433-11.094.145-.021 1.028 4.903 1.963 11.011.945 6.098 1.589 11.063 1.433 11.094zM247.805 378.895c-.021.073-1.111-.166-2.846-.654a91.503 91.503 0 0 1-6.7-2.192 93.753 93.753 0 0 1-6.524-2.66c-1.641-.747-2.628-1.277-2.597-1.34.031-.072 1.07.333 2.742.987 1.673.655 3.989 1.558 6.566 2.504 2.576.945 4.924 1.745 6.627 2.327 1.704.592 2.753.955 2.732 1.028zM276.757 399.609c.124.083-1.818 3.283-4.332 7.157-2.524 3.875-4.664 6.95-4.789 6.867-.125-.083 1.818-3.283 4.342-7.157 2.504-3.875 4.654-6.95 4.779-6.867zM271.49 435.738c-.094.114-2.846-1.839-6.16-4.363-3.314-2.524-5.921-4.674-5.838-4.789.093-.114 2.846 1.839 6.16 4.363 3.324 2.525 5.931 4.675 5.838 4.789zM265.766 356.509c.146.042-.789 3.823-2.098 8.446-1.299 4.622-2.473 8.341-2.618 8.3-.145-.042.79-3.823 2.098-8.446 1.309-4.623 2.483-8.341 2.618-8.3zM257.269 340.729c-.052.125-2.795-1.08-5.786-3.199-3.002-2.109-5.049-4.28-4.955-4.373.114-.115 2.306 1.849 5.266 3.937 2.951 2.088 5.548 3.49 5.475 3.635zM269.9 315.477c.125.083-1.122 2.202-2.773 4.727-1.662 2.524-3.106 4.508-3.231 4.425-.125-.083 1.112-2.202 2.774-4.727 1.662-2.524 3.106-4.508 3.23-4.425zM291.082 268.118c-.145-.042.8-3.677 2.109-8.124 1.309-4.446 2.483-8.019 2.628-7.978.145.042-.8 3.678-2.109 8.124-1.309 4.456-2.483 8.019-2.628 7.978zM307.204 301.826c-.042.052-.977-.529-2.41-1.61a54.777 54.777 0 0 1-5.277-4.581 56.25 56.25 0 0 1-4.665-5.215c-1.101-1.412-1.693-2.347-1.641-2.389.062-.052.769.8 1.943 2.14a89.513 89.513 0 0 0 4.747 5.069 89.523 89.523 0 0 0 5.142 4.665c1.351 1.163 2.202 1.859 2.161 1.921zM320.095 287.688c-.135-.083 1.34-2.534 2.732-5.755 1.403-3.22 2.171-5.973 2.327-5.931.135.031-.405 2.877-1.828 6.139-1.413 3.283-3.116 5.631-3.231 5.547zM330.203 314.521c-.146-.031.301-2.608.997-5.745s1.382-5.661 1.527-5.62c.146.031-.301 2.608-.997 5.745s-1.382 5.651-1.527 5.62zM354.199 330.311c-.093.114-2.701-1.787-5.817-4.249-3.127-2.462-5.578-4.55-5.485-4.675.093-.114 2.701 1.787 5.817 4.249 3.117 2.462 5.579 4.56 5.485 4.675zM370.893 297.132c.073.041-.395.914-1.112 2.327a83.344 83.344 0 0 0-2.638 5.609 91.98 91.98 0 0 0-2.223 5.786c-.52 1.496-.831 2.441-.904 2.421-.062-.021.114-.987.54-2.535.426-1.537 1.132-3.636 2.088-5.88.956-2.243 1.984-4.207 2.805-5.578.8-1.382 1.381-2.181 1.444-2.15zM383.826 280.261c-.042.146-4.456-1.091-9.869-2.753-5.401-1.662-9.754-3.126-9.702-3.262.042-.145 4.456 1.091 9.869 2.753 5.401 1.652 9.754 3.117 9.702 3.262zM397.663 295.47c.062.062-.654.851-1.745 2.181a51.77 51.77 0 0 0-3.896 5.464 52.716 52.716 0 0 0-3.127 5.942c-.706 1.569-1.09 2.566-1.163 2.545-.062-.021.197-1.059.81-2.69.613-1.621 1.631-3.813 3.023-6.077a37.636 37.636 0 0 1 4.062-5.423c1.174-1.288 1.994-1.984 2.036-1.942zM404.405 272.221c-.083-.011-.031-1.164.01-3.013.052-1.859.083-4.425-.01-7.251a129.559 129.559 0 0 0-.457-7.24c-.166-1.849-.291-2.992-.208-3.013.073-.01.322 1.122.592 2.961.27 1.849.53 4.415.623 7.271.094 2.847 0 5.433-.155 7.293-.146 1.849-.333 2.992-.395 2.992zM429.72 271.826c-.093.115-2.732-1.901-5.88-4.498-3.147-2.597-5.63-4.799-5.536-4.913.093-.114 2.721 1.901 5.879 4.498 3.148 2.597 5.631 4.799 5.537 4.913zM439.807 254.52c-.073.02-.457-1.081-1.101-2.857a150.312 150.312 0 0 0-2.639-6.867 149.621 149.621 0 0 0-2.992-6.721c-.8-1.703-1.309-2.752-1.236-2.794.062-.031.686.956 1.579 2.618a74.607 74.607 0 0 1 3.148 6.69 79.581 79.581 0 0 1 2.503 6.949c.551 1.818.8 2.961.738 2.982z" fill="#B3D59C"/><path opacity=".3" d="M233.137 321.242c-4.196 10.939-15.457 15.863-25.928 16.569l-.592.042a41.625 41.625 0 0 0-14.211 1.703c3.719 6.243 10.637 10.471 17.899 10.928 7.261.458 14.647-2.867 19.124-8.601 4.477-5.734 5.911-13.712 3.708-20.641zM160.006 346.371c2.534 9.453 6.118 20.568 8.653 30.031 2.223 8.28 5.62 17.4 7.843 25.669l.976-.083c4.28-19.259-2.992-42.217-17.472-55.617zM296.826 303.561c-4.134-8.788-11.987-15.727-21.087-19.114 5.246 7.48 11.053 16.517 11.655 26.199l7.739 4.446c2.369-2.317 3.106-8.529 1.693-11.531z" fill="#000"/><path d="M185.872 230.575c.01.156-1.517.239-2.961 1.309-1.464 1.039-2.025 2.462-2.171 2.399-.062-.02-.021-.415.26-.976.27-.561.81-1.288 1.6-1.859.789-.572 1.641-.852 2.264-.935.623-.083 1.008-.011 1.008.062zM198.535 246.812c-.063.01-.239-.436-.301-1.226-.063-.779.051-1.88.498-3.002.457-1.111 1.143-1.984 1.735-2.503.592-.52 1.039-.717 1.07-.665.104.124-1.465 1.246-2.306 3.376-.873 2.098-.53 3.999-.696 4.02zM185.02 246.074c-.062 0-.073-.779.208-1.995.28-1.215.924-2.846 2.036-4.404 1.122-1.559 2.472-2.68 3.532-3.335 1.059-.654 1.807-.883 1.828-.831.104.145-2.774 1.434-4.924 4.477-2.192 3.013-2.503 6.14-2.68 6.088zM176.096 226.836c-.051-.031.136-.457.655-.997.509-.53 1.392-1.122 2.493-1.423 1.101-.291 2.161-.219 2.878-.011.716.208 1.09.478 1.059.54-.041.156-1.735-.581-3.792-.01-2.077.53-3.178 2.005-3.293 1.901zM212.974 245.897c-.156 0-.28-1.205-.633-2.639-.343-1.433-.78-2.566-.634-2.628.125-.073.8.997 1.163 2.503.364 1.507.25 2.764.104 2.764zM227.902 246.074c-.166.021-.395-2.265-1.725-4.685-1.298-2.441-3.074-3.885-2.96-4.01.052-.125 2.077 1.205 3.438 3.761 1.382 2.534 1.382 4.955 1.247 4.934zM234.176 234.491c-.146.052-.54-.768-1.465-1.298-.904-.561-1.818-.509-1.838-.665-.011-.073.218-.187.623-.197.395-.021.966.083 1.496.405a2.78 2.78 0 0 1 1.07 1.122c.176.353.187.602.114.633zM246.112 229.423c-.073.062-.582-.468-1.548-1.122-.966-.654-2.431-1.361-4.186-1.683-1.745-.311-3.376-.166-4.509.114-1.132.271-1.807.593-1.849.509-.031-.051.582-.498 1.745-.872 1.154-.384 2.868-.603 4.706-.27 1.839.332 3.366 1.153 4.311 1.911.956.748 1.372 1.382 1.33 1.413zM242.84 220.197c-.063.145-1.372-.384-3.044-.218-1.673.145-2.857.914-2.95.779-.104-.094 1.049-1.153 2.898-1.319 1.849-.177 3.189.654 3.096.758zM187.482 206.548c-11.032.249-26.874-1.05-33.45-9.91-6.575-8.861-3.729-25.046-.301-35.538-9.785-10.928-9.328-29.502.987-39.931 1.87-1.891 4.02-3.553 5.381-5.838 2.566-4.28 1.808-9.682 2.431-14.637 1.008-8.05 6.108-15.478 13.255-19.312 7.147-3.833 16.153-3.968 23.415-.363 6.149-5.37 12.548-10.793 20.256-13.463s17.13-2.005 22.927 3.75c3.178 3.158 5.162 7.666 9.162 9.703 4.041 2.056 8.944.966 13.348 2.004 8.404 1.984 13.048 10.98 15.25 19.332s3.303 17.494 8.944 24.028c2.94 3.407 6.96 5.869 9.36 9.671 2.659 4.207 2.929 9.827.675 14.263-2.254 4.446-6.939 7.542-11.915 7.884 5.121 6.472 6.191 15.572 3.968 23.519-2.223 7.947-7.001 17.982-15.218 20.579-8.872 2.815-16.476-1.185-16.476-1.185s-4.28 8.124-23.871 7.334c-30.604-1.236-43.464 9.609-48.128-1.89z" fill="#263238"/><path d="M258.183 169.91c1.433-12.809-.166-33.616-2.026-50.611-1.672-15.291-12.704-33.636-27.912-31.32l-47.162 14.263c-4.623.707-7.926 4.831-7.625 9.495l9.952 112.731a7.54 7.54 0 0 0 1.413 3.791c4.02 5.423 12.829 13.764 28.027 11.801 18.542-2.4 22.687-14.294 23.539-18.075a7.588 7.588 0 0 0 .187-1.932c-.468-14.616-.738-20.34-.727-20.236.01 0 19.456-4.155 22.334-29.907z" fill="#B78876"/><path d="M248.117 136.107c.145 1.725-1.205 3.273-3.013 3.449-1.797.177-3.376-1.07-3.511-2.805-.145-1.724 1.205-3.272 3.002-3.459 1.808-.166 3.387 1.081 3.522 2.815zM252.667 132.399c-.385.447-2.961-1.278-6.482-1.101-3.522.124-6.036 2.057-6.43 1.641-.198-.187.186-.976 1.267-1.849 1.07-.873 2.929-1.756 5.121-1.839 2.202-.093 4.083.634 5.184 1.413 1.132.769 1.537 1.527 1.34 1.735zM214.543 137.653c.145 1.725-1.205 3.273-3.013 3.449-1.797.177-3.376-1.07-3.511-2.804-.145-1.725 1.205-3.273 3.002-3.46 1.797-.176 3.376 1.081 3.522 2.815zM217.742 133.561c-.384.447-2.96-1.277-6.482-1.101-3.521.125-6.035 2.057-6.43 1.642-.197-.187.177-.977 1.268-1.849 1.07-.873 2.929-1.756 5.121-1.839 2.202-.094 4.082.634 5.183 1.413 1.122.779 1.527 1.537 1.34 1.734zM231.496 158.192c-.021-.197 2.15-.675 5.682-1.298.894-.135 1.745-.354 1.86-.977.187-.665-.239-1.61-.727-2.638-.946-2.14-1.943-4.384-2.982-6.732-4.145-9.598-7.199-17.504-6.814-17.67.384-.166 4.072 7.48 8.217 17.078.997 2.369 1.963 4.623 2.867 6.783.384 1.008 1.028 2.14.633 3.512-.207.685-.851 1.205-1.423 1.381-.571.208-1.08.239-1.516.281-3.553.353-5.766.478-5.797.28z" fill="#263238"/><path d="M235.859 199.818s-17.14 1.901-34.654-7.552c0 0 9.463 17.638 34.945 14.075l-.291-6.523zM230.395 166.763c-1.35-1.621-3.615-2.441-5.807-2.099-1.527.239-3.033 1.05-3.906 2.338-.872 1.288-.987 3.064-.083 4.217 1.018 1.299 3.013 1.517 4.675.956 1.662-.561 3.054-1.735 4.383-2.898.364-.322.738-.665.956-1.091.218-.426.239-.977-.062-1.309" fill="#AA6550"/><path d="M221.233 161.112c.571-.063.758 3.77 4.155 6.336 3.397 2.577 7.459 1.953 7.51 2.493.063.239-.872.79-2.597.915-1.682.135-4.176-.291-6.264-1.86-2.077-1.579-3.043-3.76-3.241-5.319-.207-1.61.167-2.576.437-2.565zM218.792 126.363c-.302.976-3.844.685-7.958 1.371-4.134.602-7.406 1.974-7.998 1.143-.26-.406.28-1.33 1.578-2.317 1.299-.987 3.387-1.974 5.859-2.358 2.473-.384 4.768-.094 6.306.447 1.537.54 2.337 1.257 2.213 1.714zM251.93 126.156c-.582.831-3.055.114-5.974.207-2.929-.01-5.37.79-5.983-.021-.27-.394.083-1.215 1.132-2.025 1.029-.8 2.784-1.506 4.799-1.538 2.016-.031 3.782.613 4.841 1.392 1.06.769 1.434 1.579 1.185 1.985zM194.504 87.553c.208 5.121 2.784 10.087 6.856 13.203 4.073 3.117 9.547 4.301 14.544 3.158 3.874-.883 8.071-3.043 11.541-1.111 3.656 2.036 4.03 7.386 7.313 9.983 4.675 3.719 11.686-.27 17.483 1.173 4.477 1.112 7.417 5.215 10.513 8.643 3.095 3.428 7.635 6.607 11.998 5.101-.457-3.958-.925-7.957-2.275-11.707-1.351-3.751-3.688-7.282-7.116-9.308-1.88-1.112-4.041-1.745-5.797-3.044-3.802-2.794-4.871-7.916-7.323-11.946-3.158-5.204-8.955-8.695-15.032-9.048-5.048-.29-10.169 1.444-15.124.426-3.667-.758-6.929-2.971-10.638-3.5-7.209-1.05-13.629 4.373-18.584 9.712" fill="#263238"/><path d="M180.013 144.323c-.405-.177-16.195-4.789-15.675 11.323.519 16.112 16.589 12.268 16.6 11.811 0-.467-.925-23.134-.925-23.134z" fill="#B78876"/><path d="M175.806 161.506c-.072-.052-.27.207-.737.436-.457.228-1.247.395-2.099.114-1.724-.571-3.241-3.231-3.417-6.129a9.243 9.243 0 0 1 .654-4.041c.457-1.194 1.195-2.046 2.047-2.223.841-.228 1.475.27 1.682.717.229.447.136.769.229.789.052.042.343-.28.187-.945a1.748 1.748 0 0 0-.665-.987c-.395-.301-.966-.446-1.568-.363-1.237.124-2.317 1.309-2.857 2.597-.603 1.298-.925 2.877-.831 4.518.208 3.242 1.963 6.233 4.321 6.825 1.143.26 2.078-.114 2.556-.509.488-.415.561-.768.498-.799z" fill="#AA6550"/><path d="M173.583 143.182c5.339 1.163 11.198-.322 15.343-3.896 4.134-3.584 6.451-9.162 6.067-14.616 5.952-.301 11.073-4.882 13.431-10.346 2.358-5.475 2.379-11.666 1.652-17.577-.166-1.381-.405-2.825-1.215-3.947-1.766-2.452-5.361-2.43-8.373-2.171-7.76.675-15.769 1.433-22.604 5.152-6.846 3.72-12.258 11.23-11.032 18.917.602 3.76 2.7 7.458 1.755 11.146-.696 2.743-3.002 4.966-3.272 7.781-.208 2.171.872 4.3 2.399 5.848 1.517 1.558 3.449 2.628 5.361 3.688M176.45 168.84c3.117.498 6.358 1.433 8.134 4.041 1.776 2.607 2.42 5.963 1.735 9.037 2.503-.124 4.56 2.068 5.505 4.384 2.431 5.942-.311 13.162-5.37 17.12-1.766 1.381-3.968 2.472-6.191 2.171-2.078-.281-3.782-1.714-5.34-3.127-2.524-2.286-4.976-4.706-6.814-7.573-1.829-2.867-3.002-6.264-2.743-9.661.25-3.199 1.766-6.212 3.823-8.684 2.067-2.462 4.623-5.869 7.261-7.708z" fill="#263238"/><path d="M155.196 118.842c.01-.094.873.478 2.462.093.779-.187 1.673-.633 2.587-1.329.924-.686 1.755-1.694 2.701-2.815.955-1.091 2.036-2.379 3.656-3.158 1.641-.8 3.626-.634 5.516-.457.956.072 1.932.145 2.909.01.966-.125 1.911-.488 2.784-1.018 1.745-1.07 3.127-2.805 4.113-4.747.998-1.964 1.621-4.052 2.307-6.046.664-2.005 1.464-3.906 2.43-5.6 1.912-3.407 4.55-5.962 7.22-7.271 2.659-1.35 5.142-1.569 6.773-1.423 1.652.135 2.483.56 2.483.56-.011.063-.873-.28-2.493-.342-1.6-.073-4.02.197-6.576 1.548-2.566 1.32-5.111 3.833-6.96 7.178-.945 1.672-1.704 3.532-2.368 5.526-.676 1.984-1.299 4.093-2.317 6.119-1.018 2.015-2.462 3.823-4.311 4.955-.924.561-1.953.945-2.992 1.08-1.038.135-2.057.063-3.012-.02-1.912-.187-3.771-.354-5.288.363-1.516.696-2.597 1.922-3.563 3.002-.955 1.091-1.849 2.119-2.815 2.805-.956.696-1.901 1.132-2.722 1.288-.82.177-1.485.083-1.901-.041-.436-.125-.623-.26-.623-.26zM146.886 138.08c-.01 0-.021-.072-.042-.239-.02-.155-.052-.394 0-.706.052-.613.281-1.506.748-2.576.468-1.07 1.153-2.327 2.119-3.688.499-.665 1.039-1.371 1.704-2.046.655-.686 1.403-1.361 2.337-1.891 1.901-1.06 4.457-.997 6.753-.052 1.153.457 2.264 1.132 3.303 1.943a18.93 18.93 0 0 0 3.376 2.067c2.431 1.153 5.308 1.828 8.227 1.444 2.888-.374 5.807-1.818 7.698-4.28 1.88-2.441 2.327-5.807 4.716-7.957a5.242 5.242 0 0 1 2.036-1.091c.738-.208 1.496-.26 2.223-.27 1.465 0 2.836.093 4.176-.104 2.68-.364 5.101-1.434 7.054-2.846 1.953-1.413 3.438-3.169 4.404-4.976a15.908 15.908 0 0 0 1.787-9.422c-.125-1.153-.374-2.015-.519-2.608-.187-.581-.271-.893-.26-.893 0 0 .634 1.153.987 3.47a15.839 15.839 0 0 1-1.662 9.629c-1.901 3.719-6.14 7.324-11.728 8.134-1.382.218-2.836.125-4.239.125-.706.01-1.413.062-2.088.26a4.862 4.862 0 0 0-1.838.986c-2.203 1.933-2.67 5.278-4.634 7.885-1.994 2.597-5.048 4.093-8.061 4.477-3.043.395-6.014-.322-8.507-1.527a18.825 18.825 0 0 1-3.449-2.14c-1.008-.789-2.078-1.444-3.189-1.901-2.192-.935-4.623-.997-6.399-.031-.883.488-1.631 1.132-2.275 1.797-.655.655-1.205 1.34-1.704 1.984-.976 1.32-1.683 2.545-2.171 3.595-.499 1.038-.748 1.911-.831 2.503-.062.301-.052.53-.052.686.021.176.01.259 0 .259zM280.746 103.862c-.083.052-.343-1.267-1.953-2.805-1.589-1.547-4.654-2.94-8.612-3.282-1.984-.187-4.176-.187-6.534-.406-2.337-.218-4.934-.706-7.219-2.181-2.286-1.454-4.135-3.636-5.859-5.942-1.746-2.285-3.428-4.768-5.693-6.752-2.275-1.974-5.059-3.158-7.853-3.657-2.795-.53-5.579-.498-8.196-.301-2.629.208-5.101.623-7.418 1.008-2.326.374-4.498.706-6.492.883-3.999.384-7.292.114-9.464-.468-2.181-.55-3.272-1.184-3.272-1.184.011-.02.302.083.852.28.27.104.623.219 1.029.333.405.135.882.25 1.433.363 2.171.51 5.412.717 9.38.291 1.985-.197 4.145-.55 6.462-.945 2.316-.405 4.799-.831 7.448-1.06 2.649-.218 5.464-.26 8.342.27 2.856.51 5.755 1.725 8.102 3.771 2.338 2.047 4.031 4.56 5.766 6.846 1.714 2.296 3.511 4.425 5.703 5.838 2.181 1.423 4.685 1.922 7.001 2.16 2.327.24 4.519.26 6.524.468 4.02.395 7.136 1.88 8.715 3.511a7.219 7.219 0 0 1 1.507 2.109c.124.27.187.488.239.634.041.135.062.208.062.218zM292.619 129.854c0 .01-.083.041-.259.103-.177.063-.437.156-.78.25-.696.166-1.755.395-3.137.27-.685-.042-1.444-.218-2.233-.478-.79-.301-1.61-.706-2.41-1.257-1.6-1.132-3.137-2.794-4.436-4.882-1.309-2.099-2.088-4.696-3.397-7.21-.654-1.257-1.496-2.462-2.638-3.407-1.153-.924-2.587-1.558-4.135-1.89-3.106-.696-6.523-.416-10.024-.925-3.511-.53-6.991-2.14-9.796-4.664-1.402-1.257-2.587-2.732-3.553-4.28-.976-1.537-1.828-3.096-2.898-4.446-1.049-1.371-2.379-2.441-3.896-3.096-1.506-.665-3.116-.987-4.705-1.122-3.179-.249-6.223.24-9.09.395-2.867.208-5.589-.041-7.967-.592a26.978 26.978 0 0 1-10.42-4.883c-2.16-1.682-3.095-2.887-3.095-2.887.01-.01.083.052.218.176.156.146.353.333.592.55.53.479 1.319 1.175 2.41 1.985a27.43 27.43 0 0 0 10.378 4.685c2.358.52 5.017.738 7.853.52 2.836-.177 5.89-.686 9.152-.447 1.62.124 3.293.457 4.872 1.153 1.589.675 3.023 1.818 4.103 3.23 1.112 1.403 1.974 2.971 2.94 4.488.945 1.527 2.088 2.94 3.459 4.166 2.722 2.451 6.098 4.009 9.516 4.539 3.417.52 6.856.239 10.055.966 1.59.353 3.106 1.018 4.322 2.016 1.205 1.007 2.077 2.285 2.742 3.563 1.319 2.576 2.067 5.162 3.324 7.219 1.247 2.057 2.743 3.709 4.29 4.831.78.561 1.569.966 2.327 1.267.769.27 1.496.468 2.171.519 2.691.229 4.135-.54 4.145-.425zM285.046 193.969c-.062-.063.966-.738 2.057-2.546 1.091-1.797 2.067-4.809 1.984-8.59-.062-1.881-.332-3.958-1.142-6.015a13.326 13.326 0 0 0-1.631-2.981c-.696-.946-1.527-1.839-2.431-2.691-1.818-1.714-3.968-3.251-5.994-5.132-1.994-1.869-3.958-4.155-4.737-7.074-.363-1.454-.384-2.95-.218-4.373s.488-2.795.758-4.135c.281-1.34.53-2.649.582-3.947.062-1.288-.093-2.556-.499-3.709-.799-2.337-2.441-4.144-4.082-5.609-1.662-1.475-3.387-2.639-4.934-3.75-3.117-2.192-5.381-4.405-6.451-6.285-.551-.925-.821-1.724-.998-2.254-.135-.551-.197-.842-.176-.842.073-.02.239 1.185 1.35 2.982 1.112 1.807 3.366 3.947 6.493 6.087 1.558 1.091 3.314 2.234 5.017 3.719 1.683 1.475 3.397 3.324 4.259 5.786.437 1.216.603 2.556.54 3.896-.052 1.34-.311 2.68-.581 4.03-.54 2.66-1.257 5.485-.54 8.259.727 2.753 2.617 4.976 4.57 6.825 1.984 1.849 4.145 3.407 5.973 5.162.925.873 1.766 1.798 2.473 2.774.706.987 1.277 2.026 1.672 3.096.821 2.129 1.07 4.248 1.112 6.17.041 3.854-1.018 6.919-2.182 8.705-.301.447-.561.852-.841 1.143-.27.312-.488.582-.717.748-.447.384-.675.571-.686.551zM154.864 161.391s-.707-.624-1.392-2.13c-.696-1.485-1.268-3.947-.644-6.877.571-2.919 2.68-6.108 6.014-8.206a17.216 17.216 0 0 1 5.672-2.317c2.078-.467 4.29-.602 6.524-.654 4.456-.083 8.757 0 12.372-1.33 3.605-1.288 6.285-3.688 7.999-5.994a18.153 18.153 0 0 0 3.002-6.129c.395-1.579.457-2.483.519-2.483.021 0 .011.229-.031.655-.021.436-.125 1.06-.28 1.87-.364 1.589-1.164 3.906-2.899 6.305-1.714 2.379-4.425 4.883-8.133 6.233-3.719 1.402-8.103 1.309-12.528 1.402-2.223.063-4.394.187-6.42.634a16.973 16.973 0 0 0-5.516 2.213c-3.252 2.015-5.308 5.059-5.911 7.864-.644 2.825-.156 5.235.467 6.71.593 1.517 1.237 2.192 1.185 2.234z" fill="#455A64"/><path d="M194.058 153.029l-6.586 14.47s11.115 18.19 19.747 24.329c17.494 12.445 34.997 5.194 34.997 5.194s18.595-6.877 17.193-39.381c0 0-12.57-4.685-20.579-5.412-8.009-.727-25.814 4.197-32.577 3.282-6.752-.914-12.195-2.482-12.195-2.482z" fill="#B3D59C"/><path d="M193.912 153.361c-.083.124-3.48-1.984-7.583-4.716-4.114-2.732-7.376-5.039-7.292-5.163.083-.125 3.48 1.984 7.593 4.716 4.103 2.722 7.365 5.038 7.282 5.163zM187.534 167.114c.01.146-2.078.478-4.675.738s-4.716.353-4.737.208c-.01-.146 2.078-.478 4.675-.738 2.597-.259 4.716-.353 4.737-.208z" fill="#263238"/><path d="M252.698 185.637c.01.021-.208.114-.634.291-.426.177-1.049.436-1.859.738-1.652.55-4.052 1.36-7.116 1.921-3.064.561-6.783.977-10.907.821-4.114-.166-8.654-.789-13.204-2.223-2.285-.675-4.435-1.589-6.482-2.524a60.634 60.634 0 0 1-5.672-3.117c-3.511-2.16-6.523-4.311-9.089-6.056-2.556-1.756-4.664-3.127-6.139-4.03-.707-.426-1.268-.769-1.704-1.039-.395-.239-.592-.374-.582-.385.011-.02.229.083.634.291.405.208 1.008.52 1.766.956 1.516.852 3.656 2.181 6.253 3.895s5.631 3.823 9.131 5.953c1.756 1.059 3.626 2.109 5.641 3.064 2.026.914 4.145 1.818 6.41 2.483 4.498 1.423 8.985 2.057 13.068 2.244 4.082.176 7.77-.187 10.824-.707 3.054-.509 5.454-1.257 7.116-1.745.779-.27 1.402-.478 1.89-.644.416-.135.645-.197.655-.187z" fill="#84A86C"/><path d="M257.383 171.665c0 .021-.218.062-.644.114-.478.062-1.091.135-1.849.218-1.61.177-3.937.405-6.815.613-5.755.416-13.764.79-22.573.011-8.809-.769-16.631-2.764-22.023-4.862-2.7-1.039-4.83-2.026-6.253-2.784-.727-.364-1.257-.686-1.631-.893-.364-.219-.561-.333-.551-.354.011-.02.218.073.603.25.384.176.935.467 1.672.8 1.455.696 3.595 1.631 6.295 2.617 5.402 1.995 13.183 3.917 21.94 4.675 8.757.769 16.745.467 22.5.145 2.826-.187 5.142-.332 6.815-.446.758-.052 1.371-.083 1.859-.114.426-.011.655-.011.655.01z" fill="#263238"/><path d="M256.51 163.521c-6.035-1.974-12.154-3.927-18.48-4.478-6.181-.54-12.393.281-18.584.676-6.191.394-13.099.02-18.896-2.192l-1.558-.031c17.473 9.245 38.425 11.707 57.56 6.762.166-.041.364-.114.405-.291.042-.218-.228-.374-.447-.446z" fill="#84A86C"/><path d="M258.972 163.717c0 .021-.228-.031-.654-.124-.478-.114-1.091-.27-1.839-.457-1.599-.405-3.906-1.018-6.762-1.683-2.867-.665-6.295-1.392-10.16-1.828-3.854-.468-8.134-.447-12.611-.208-4.487.228-8.767.55-12.684.488-3.905-.041-7.437-.467-10.315-1.184-2.877-.707-5.1-1.652-6.555-2.441-.727-.405-1.277-.728-1.631-.977-.363-.239-.55-.374-.54-.395.031-.052.79.457 2.265 1.185 1.475.716 3.688 1.61 6.555 2.254 2.856.654 6.347 1.039 10.232 1.059 3.885.032 8.154-.301 12.652-.529 4.488-.239 8.809-.25 12.695.249 3.885.467 7.323 1.236 10.19 1.943a155.02 155.02 0 0 1 6.732 1.859c.748.229 1.34.416 1.818.561.405.135.623.208.612.228z" fill="#263238"/><path d="M194.369 167.634c5.423 3.075 10.741 6.534 16.683 8.404 13.629 4.29 25.004 5.329 36.587 4.903.945-.031 2.213.166 2.327 1.111.093.842-.873 1.372-1.683 1.611-2.701.789-5.526 1.038-8.331 1.132-8.29.27-16.662-.821-24.474-3.605-7.812-2.784-15.063-7.282-20.735-13.328" fill="#84A86C"/><path d="M244.855 179.913c.01.063-1.122.374-3.002.676-1.88.29-4.498.54-7.407.477-2.908-.062-5.516-.405-7.386-.779-1.869-.374-2.981-.727-2.971-.789.021-.083 1.164.145 3.034.415 1.87.27 4.456.551 7.334.613a60.72 60.72 0 0 0 7.344-.322c1.88-.197 3.044-.374 3.054-.291z" fill="#263238"/><path d="M144.351 370.689c.187.343 4.363 3.584 4.363 3.584l7.656-2.763 9.557 4.882s8.57.904 8.643 3.999c.072 3.096 5.1 18.304-1.424 28.713-6.523 10.409-11.136 13.857-11.136 13.857l-23.196-21.659-7.126-1.485 12.663-29.128z" fill="#B78876"/></svg>