<svg width="472" height="543" fill="none" xmlns="http://www.w3.org/2000/svg"><g clip-path="url(#clip0)" opacity=".1"><path d="M417.581 235.526c.076 73.353-37.767 137.874-95.043 175.047v.015c-.732.473-1.464.93-2.196 1.403a243.991 243.991 0 0 1-8.222 4.942 202.092 202.092 0 0 1-8.587 4.607 206.464 206.464 0 0 1-50.016 17.785c-14.17 3.066-28.89 4.683-43.99 4.698-65.452.061-123.872-30.064-162.127-77.227-28.936-35.754-46.309-81.27-46.355-130.843-.122-115.04 93.03-208.375 208.07-208.496 7.52-.016 14.948.38 22.254 1.159.641.06 1.282.137 1.922.198 1.541.183 3.066.381 4.592.58a208.063 208.063 0 0 1 34.365 7.718c3.005.96 5.949 1.968 8.893 3.035 1.342.504 2.669 1.007 3.996 1.51.031.016.061.03.076.046 77.411 30.308 132.277 105.644 132.368 193.823z" fill="#0079C8"/></g><path d="M21.32 375.653c-3.227-16.94 39.166-39.391 62.982-46.023 23.817-6.633 109.455 31.265 124.83 32.375 15.375 1.109 85.069-64.59 131.207-48.464 13.36 4.672.371 69.608-40.156 90.049-40.526 20.453-90.112 2.157-90.112 2.157s-41.663 12.649-86.367 2.158C53.28 391.372 21.319 375.653 21.319 375.653z" fill="#273033"/><path d="M265.07 425.534s6.378 2.059 14.214 1.776c5.549-.21 12.606-1.948 16.215.271 8.689 5.351 10.913 18.025 17.031 24.657 6.118 6.633 28.365 16.25 33.371 19.628 8.379 5.659 12.73 19.048 8.676 20.416-10.765 3.612-57.941-16.077-72.426-23.745-4.696-2.49-24.768-7.175-24.768-7.175s1.866-29.873 7.687-35.828z" fill="#B3D59C"/><path d="M21.32 375.652c2.792 13.488 20.009 40.907 40.55 52.003 20.542 11.095 181.633 31.167 200.543 38.342 7.712 2.922 15.079-30.662 11.791-38.54-3.288-7.878-124.731-58.758-163.366-61.976-38.648-3.218-91.731-.481-89.519 10.171z" fill="#273033"/><path d="M273.648 426.139c-26.041-15.719-113.212-53.717-149.462-60.054-7.786-1.356-14.052-1.898-21.925-2.342-4.19-1.763-8.664-2.774-13.089-3.76-.296-.062-.346.394-.062.456 3.3.851 6.477 2.009 9.678 3.156-6.069-.173-12.162.074-18.206.838-.123.013-.086.185.025.185 13.645-.739 27.537.469 40.996 2.972 51.02 9.48 138.771 51.213 151.761 58.943.383.222.667-.16.284-.394z" fill="#273033"/><path d="M171.3 478.511s-15.276 16.04-17.254 17.655c-4.239 3.477-42.479 15.707-45.148 16.175-2.67.469-9.084-1.134-11.754.937-2.67 2.072-4.783 7.805-3.436 9.777 1.36 1.973 10.196 6.67 12.001 8.297 1.804 1.628 8.515 8.865 14.436 11.207 5.92 2.343 27.203-10.615 32.035-12.415 4.833-1.8 16.03-5.942 20.962-6.916 4.931-.987 8.836-11.256 9.368-12.218.531-.962 16.846-11.786 16.846-11.786s-13.324-18.284-28.056-20.713z" fill="#B3D59C"/><path d="M284.709 343.549c11.556-8.593 39.513-29.355 55.63-30.008 16.129-.654 29.353 21.797 28.043 32.301-1.31 10.504-24.879 74.786-78.259 108.135-53.38 33.349-99.876 57.427-104.066 57.44-4.202.012-21.258-11.663-24.336-27.037-.667-3.28 68.138-100.06 122.988-140.831z" fill="#273033"/><path d="M298.75 336.916c-4.993 1.997-9.801 4.463-14.461 7.249 2.188-2.404 4.388-4.783 6.971-6.83.247-.185-.049-.567-.297-.37-3.423 2.725-7.02 5.573-9.714 9.086-11.111 7.126-21.246 16.089-30.342 25.213-14.782 14.831-27.797 31.302-40.996 47.515-8.837 10.861-17.328 22.031-26.165 32.856-.05.061.049.123.099.074 9.727-11.725 19.849-23.166 29.613-34.878 8.528-10.233 16.957-20.552 25.843-30.489 8.59-9.604 17.575-18.876 27.401-27.234 10.011-8.52 20.764-15.337 32.332-21.563.383-.198.136-.802-.284-.629z" fill="#273033"/><path d="M139.499 177.912c-11.556 4.685-21.653 12.095-27.895 23.376-6.241 11.268-51.217 140.424-48.955 149.904 2.261 9.481 46.15 10.048 56.618 2.91 16.883-11.515 25.386-86.77 29.329-106.779 3.942-20.022-.853-72.752-9.097-69.411zM261.14 179.342c9.344 5.906 22.333 18.839 38.326 52.718 15.993 33.879 26.635 57.587 26.103 64.27-.531 6.694-8.293 19.158-15.103 23.473-6.822 4.303-30.861-4.82-43.974-18.53-13.114-13.697-7.923-123.546-5.352-121.931z" fill="#0079C8"/><path d="M203.508 157.952c-16.623-1.849-56.976 16.447-64.009 19.948-3.942 1.973 10.901 35.322 5.191 47.737-8.157 17.716-12.989 32.696-13.175 40.45-.346 14.647 13.274 15.793 12.767 36.974-.543 23.043-12.668 41.893-8.293 46.467 6.798 7.114 5.809 5.844 24.435 17.704 18.625 11.848 39.463 18.296 60.944 15.325 21.48-2.971 51.427-46.196 59.695-55.936 4.116-4.845-5.079-25.68-8.948-37.195-3.868-11.503-7.008-107.593-10.975-110.083-3.967-2.479-38.462-19.258-57.632-21.391z" fill="#0079C8"/><path d="M280.89 312.185c-14.645-14.56-13.99-40.685-18.588-60.867-2.237-9.814-4.363-20.441-8.911-29.503-4.857-9.702-14.56-17.987-15.684-29.317-.013-.111-.186-.124-.186 0 .371 10.787 6.959 17.987 12.248 26.888 6.081 10.233 8.491 22.994 11.062 34.496 2.546 11.404 3.745 47.367 19.787 58.525.52.345.73.234.272-.222zM202.866 282.78c-9.294-1.775-19.268 1.825-28.18 4.032-9.442 2.33-21.035 3.994-29.736-1.529-.173-.111-.346.16-.173.284 7.576 5.239 15.993 5.757 24.916 4.179 5.191-.925 10.221-2.503 15.301-3.859 5.933-1.578 11.655-2.256 17.773-2.466.346-.012.482-.567.099-.641zM256.518 278.527c-7.527 6.3-15.87 8.63-25.658 8.457-10.184-.185-20.48-2.675-30.577-.357-.186.037-.149.345.037.333 11.704-.518 23.272 2.367 34.94 1.664 7.774-.468 17.216-2.725 21.752-9.703.21-.32-.235-.616-.494-.394zM178.098 173.018c2.509 1.923 29.736 8.408 49.536.407 2.472-.999 2.212-19.566 1.199-21.021-1.014-1.455-29.848-9.998-50.599.284-2.658 1.319-1.508 19.27-.136 20.33z" fill="#005389"/><path d="M237.657 31.743s-2.027-9.198-6.686-11.454c-4.66-2.268-38.364-12.156-46.743-9.48-8.38 2.675-41.627 23.547-47.905 34.927-6.279 11.38-13.262 90.234-13.262 90.234s60.512 14.03 74.564 14.128c14.053.087 71.981-20.995 71.981-20.995s-13.879-77.129-16.969-83.848c-3.078-6.732-14.98-13.512-14.98-13.512z" fill="#273033"/><path d="M134.902 52.517c.049-.37-.482-.481-.569-.111-8.132 32.202-9.949 48.994-16.154 81.616-.024.136.186.185.223.037 6.822-32.499 11.605-48.698 16.5-81.542zM252.538 44.824c-.124-.358-.655-.198-.556.172 7.972 32.24 9.813 33.695 19.688 65.404.037.136.247.074.21-.062-9.257-31.906-8.219-34.212-19.342-65.514z" fill="#273033"/><path d="M145.84 183.584s-1.014 16.36 9.405 25.533c10.419 9.184 33.346 2.884 39.291 3.402 15.436 1.356 37.56-26.913 37.56-26.913l-86.256-2.022z" fill="#B3D59C"/><path d="M142.033 165.374s-8.095 15.202-3.51 21.76c4.585 6.559 24.879 7.533 28.142 8.359 3.251.826 38.042 13.55 50.303 10.369 12.273-3.181 40.254-24.128 42.788-28.529 2.533-4.414-3.325-9.259-3.325-9.259l-114.398-2.7z" fill="#B3D59C"/><path d="M206.462 117.107c-19.379-2.158-53.318 1.442-60.004 7.989-6.687 6.546-4.24 21.489-5.649 26.112-1.421 4.623-7.848 14.856-4.399 20.367 9.838 15.744 45.432 21.933 73.797 22.488 18.477.369 46.224-16.065 52.206-24.621 3.053-4.352-5.698-22.216-6.377-25.212-.68-2.996 2.336-12.6-.68-17.384-3.016-4.783-30.058-7.656-48.894-9.739z" fill="#B3D59C"/><path d="M219.934 176.543s-10.567 12.083-23.94 11.996c-13.373-.086-23.804-12.304-23.804-12.304s10.085-9.616 9.912-12.846c-.185-3.23-1.013-23.77-1.013-23.77l30.428.197s-1.087 20.527-1.322 23.758c-.223 3.217 9.739 12.969 9.739 12.969zM153.008 93.978s-7.638-11.712-14.238-10.146c-6.6 1.565 2.175 28.799 8.503 32.313 3.449 1.923 8.714-1.183 8.714-1.183l-2.979-20.984z" fill="#F3A070"/><path d="M153.478 107.873c-.173-.284-2.262-6.966-6.168-12.33-1.384-1.91-4.029-3.611-6.253-1.824-.075.062.012.16.086.148 5.08-1.294 9.208 10.344 10.147 12.008-1.05-.53-2.249-.727-3.411-.382-1.718.518-2.732 2.306-1.99 3.97.049.123.21.025.198-.086-.322-2.182 1.817-3.292 3.695-2.811 1.224.308 2.126 1.183 3.14 1.874.346.234.766-.234.556-.567z" fill="#C56A59"/><path d="M240.735 94.533s7.786-11.614 14.361-9.962c6.576 1.652-2.546 28.763-8.911 32.203-3.473 1.874-8.701-1.295-8.701-1.295l3.251-20.946z" fill="#F3A070"/><path d="M240.08 108.428c.173-.272 2.361-6.929 6.316-12.255 1.409-1.886 4.078-3.563 6.278-1.739.074.062-.012.16-.086.148-5.055-1.356-9.344 10.221-10.296 11.885 1.051-.517 2.262-.702 3.411-.345 1.718.53 2.695 2.343 1.941 3.995-.062.123-.21.024-.198-.087.346-2.17-1.78-3.316-3.658-2.86-1.224.296-2.138 1.159-3.152 1.837-.346.234-.766-.247-.556-.579z" fill="#C56A59"/><path d="M237.929 125.083c-2.521 5.893-27.994 22.106-41.428 22.019-13.435-.086-38.698-16.619-41.157-22.549-2.46-5.93-9.776-64.17-3.003-74.01 12.754-18.53 34.705-22.598 44.914-22.536 10.196.062 32.109 4.414 44.629 23.104 6.65 9.937-1.421 68.079-3.955 73.972z" fill="#F3A070"/><path opacity=".8" d="M237.929 125.083c-2.521 5.893-27.994 22.106-41.428 22.019-13.435-.086-38.698-16.619-41.157-22.549-2.46-5.93-9.776-64.17-3.003-74.01 12.754-18.53 34.705-22.598 44.914-22.536 10.196.062 32.109 4.414 44.629 23.104 6.65 9.937-1.421 68.079-3.955 73.972z" fill="url(#paint0_linear)"/><path d="M182.152 71.281c2.224 1.517 2.335 4.587.964 6.325-5.092 6.435-18.675 7.792-20.159 2.885-1.001-3.329 7.589-5.487 9.344-6.19 1.323-.517 6.884-5.042 9.851-3.02z" fill="#273033"/><path d="M182.572 70.122c-.037-.025-.074.012-.05.05 4.128 4.61-1.223 9.443-5.339 11.305-.161.074-.086.345.087.271 2.756-1.048 5.747-2.675 7.02-5.499 1.05-2.268.235-4.66-1.718-6.127zM211.826 71.466c-2.237 1.48-2.397 4.562-1.038 6.313 5.018 6.497 18.576 8.026 20.121 3.143 1.051-3.316-7.514-5.585-9.269-6.3-1.31-.542-6.81-5.128-9.814-3.156z" fill="#273033"/><path d="M211.418 70.307c.038-.024.075.025.05.05-4.19 4.561 1.1 9.456 5.203 11.379.161.074.087.345-.099.271-2.743-1.085-5.722-2.75-6.958-5.585-1.001-2.293-.161-4.672 1.804-6.115z" fill="#273033"/><path d="M185.253 98.712s-2.224 1.862-5.945 2.688a16.14 16.14 0 0 1-5.166.296 10.641 10.641 0 0 1-3.114-.863c-4.376-1.96-7.206-6.362-7.206-6.362s3.115-1.196 8.145-1.307c.779-.024 1.607 0 2.484.037 2.188.111 4.19.826 5.846 1.726 3.041 1.603 4.956 3.785 4.956 3.785z" fill="#fff"/><path d="M185.427 98.675c-2.472-3.353-5.871-6.189-9.999-7.015-8.194-1.627-12.631 3.243-17.785-2.207-.025-.024-.05 0-.037.025 1.816 3.588 4.424 5.338 7.316 4.882 10.222-1.603 14.498-.246 19.961 4.722.272.271.791-.062.544-.407z" fill="#273033"/><path d="M180.94 97.504a5.532 5.532 0 0 1-1.631 3.896 16.148 16.148 0 0 1-5.167.296 10.641 10.641 0 0 1-3.114-.863 5.65 5.65 0 0 1-1.137-3.39 5.499 5.499 0 0 1 2.076-4.279c.779-.024 1.607 0 2.484.037 2.188.111 4.19.826 5.846 1.726.433.765.655 1.64.643 2.577z" fill="#273033"/><path opacity=".5" d="M185.266 95.124c-1.768-3.797-5.327-8.075-9.48-9.37-4.264-1.33-8.849.642-12.112 3.342-.062.049.025.172.087.123 4.078-2.626 9.368-4.167 13.805-1.48 3.065 1.85 5.277 4.821 7.477 7.558.112.111.285-.037.223-.172z" fill="#C56A59"/><path d="M208.427 98.86s2.2 1.899 5.908 2.762a16 16 0 0 0 5.166.358c1.1-.111 2.151-.407 3.127-.827 4.4-1.898 7.28-6.275 7.28-6.275s-3.09-1.233-8.133-1.418a33.316 33.316 0 0 0-2.484 0c-2.188.087-4.19.765-5.871 1.652-3.052 1.59-4.993 3.748-4.993 3.748z" fill="#fff"/><path d="M208.254 98.823c2.522-3.329 5.945-6.115 10.098-6.892 8.207-1.528 12.582 3.403 17.81-1.985.024-.024.049 0 .037.037-1.866 3.563-4.499 5.29-7.379 4.796-10.196-1.738-14.497-.431-20.022 4.476-.272.246-.791-.099-.544-.432z" fill="#273033"/><path d="M212.753 97.713a5.518 5.518 0 0 0 1.582 3.921c1.471.345 3.226.543 5.166.358 1.1-.111 2.151-.407 3.127-.826a5.616 5.616 0 0 0 1.174-3.379 5.512 5.512 0 0 0-2.014-4.302 33.343 33.343 0 0 0-2.485 0c-2.187.086-4.189.764-5.87 1.652a5.079 5.079 0 0 0-.68 2.576z" fill="#273033"/><path opacity=".5" d="M208.464 95.273c1.817-3.773 5.426-8.002 9.591-9.247 4.276-1.282 8.849.752 12.063 3.49.062.06-.025.16-.099.122-4.042-2.675-9.307-4.278-13.781-1.652-3.09 1.813-5.339 4.76-7.576 7.46-.099.123-.26-.038-.198-.173z" fill="#C56A59"/><path d="M200.653 104.088c-.42 1.849-2.743 2.256-3.868 2.256-1.125-.013-3.448-.456-3.832-2.306-.37-1.763 3.053-21.785 3.993-21.785.939.013 4.115 20.084 3.707 21.835zM202.409 125.084c-3.758 2.231-7.54 2.441-11.482.123-.124-.074-.26.074-.161.197 3.003 3.736 8.998 3.896 11.902-.037.124-.172-.099-.382-.259-.283z" fill="#C56A59"/><path d="M175.341 109.734a5.352 5.352 0 0 1-5.401 5.314c-2.966-.025-5.351-2.429-5.326-5.388a5.352 5.352 0 0 1 5.401-5.314c2.966.025 5.351 2.429 5.326 5.388z" fill="#fff"/><path d="M174.13 109.722c-.012 2.293-1.891 4.13-4.177 4.117a4.148 4.148 0 0 1-4.128-4.167c.012-2.293 1.891-4.13 4.177-4.117 2.299.012 4.153 1.886 4.128 4.167z" fill="#C56A59"/><path d="M187.379 121.742l-.914.642-3.263 2.342-11.173-11.096.569-.641 1.174-1.294.568-.642 1.533 1.246.297.259 1.816 1.479.285.247 1.829 1.491.296.247 1.817 1.479.297.247 1.817 1.504.284.222 1.842 1.492.284.246.642.53z" fill="#fff"/><path d="M172.363 112.767l11.692 11.305 2.41-1.689-12.977-10.923-1.125 1.307z" fill="#C56A59"/><path d="M176.169 112.557c-.21.222-.42.432-.63.641-.198.198-.408.37-.618.531-.049.024-.086-.025-.074-.074a5.71 5.71 0 0 1 .457-.654 28.8 28.8 0 0 1 .569-.69l.296.246zM178.27 114.283c-.197.234-.42.456-.642.666a5.169 5.169 0 0 1-.618.542.054.054 0 0 1-.074-.074c.136-.234.284-.444.457-.666.198-.234.395-.468.606-.715l.271.247zM180.396 116.022c-.222.247-.445.468-.679.69a5.13 5.13 0 0 1-.631.543.055.055 0 0 1-.074-.074 5.09 5.09 0 0 1 .47-.678c.198-.247.408-.493.618-.728l.296.247zM182.51 117.748c-.223.246-.445.505-.692.727-.21.198-.421.382-.643.543-.049.049-.087-.025-.074-.062.148-.234.296-.468.482-.678.198-.271.42-.518.63-.764l.297.234zM184.611 119.473c-.21.272-.445.518-.704.765-.198.197-.421.37-.643.542-.05.05-.099-.024-.074-.061.136-.247.296-.469.482-.703.21-.284.432-.53.667-.789l.272.246zM186.737 121.212c-.235.284-.482.53-.742.789a7.1 7.1 0 0 1-.655.567.054.054 0 0 1-.074-.074c.136-.234.297-.468.482-.703.222-.283.47-.542.704-.813l.285.234z" fill="#273033"/><path d="M213.433 116.774c-5.117-1.368-12.261-1.825-16.512-.74-5.685 1.455-9.752 4.587-14.09 9.074-.074.087.025.235.124.161 4.264-2.996 9.652-6.263 14.04-7.57 5.228-1.554 11.025-.851 16.364-.481.272.025.321-.382.074-.444z" fill="#C56A59"/><path d="M244.307 93.608s-6.205-8.445-8.034-13.796c-1.829-5.35-5.858-31.117-5.858-31.117s-19.071 11.527-27.302 14.153c-11.988 3.834-46.842 8.827-46.842 8.827s-.754 10.603-1.273 13.537c-.519 2.935-4.907 8.79-4.907 8.79s-4.239-28.91-.42-41.177c3.819-12.255 26.486-27.185 47.757-27.05 21.27.136 43.443 15.917 47.163 26.544 3.696 10.628-.284 41.29-.284 41.29z" fill="#273033"/><path d="M231.935 47.129c-6.785 4.857-13.447 9.85-20.875 13.722-8.083 4.204-16.463 5.782-25.299 7.496-.038.012-.038.074.012.074 8.676-.333 16.908-1.96 24.719-5.857 7.873-3.932 14.992-9.419 21.802-14.954.259-.222-.075-.678-.359-.481z" fill="#273033"/><path d="M239.511 88.023c-1.853-2.983-3.88-5.819-5.116-9.147-1.298-3.477-1.558-7.188-1.965-10.838-.779-6.94-1.187-13.931-2.015-20.872-.012-.16-.235-.148-.247.012-.433 7.89.296 15.966 1.483 23.77 1.026 6.744 3.325 11.885 7.638 17.223.099.124.309 0 .222-.148z" fill="#273033"/><path d="M152.143 131.013c3.708 1.973 22.593 6.535 30.194 6.72 7.601.172 20.294-5.487 29.514-6.202 9.22-.715 18.143 1.763 23.977 1.381 5.834-.37-3.411 56.49-37.177 58.549-33.704 2.071-46.508-60.448-46.508-60.448z" fill="#B3D59C"/><path d="M241.983 191.202c-5.03 20.343 12.508 34.669 16.994 47.676 3.832 11.108 15.523 64.281 22.395 73.096 6.18 7.916 26.894 11.195 35.558 10.209 10.382-1.184 20.962-36.74 14.893-53.766-7.86-22.031-26.684-51.67-29.897-60.423-3.214-8.753-8.145-33.078-20.999-38.034-12.161-4.685-36.311 10.627-38.944 21.242z" fill="#0079C8"/><path d="M260.102 153.587c0 2.713-3.35 3.403-5.438 3.773-1.941.333-4.067-.037-5.933.592-2.2.74-3.46 2.601-4.684 4.414-1.557 2.33-2.942 4.98-5.5 6.386-3.485 1.911-7.49.616-11.222.764-1.57.074-3.177.247-4.511 1.122a10.473 10.473 0 0 0-1.817 1.948c-.186.21-.371.432-.581.629-.383.172-.729.481-1.199.468-1.718-.037-1.99-1.763-2.002-3.094-.025-2.343.531-4.611.494-6.978 0-.493-.037-1.011-.099-1.517a24.803 24.803 0 0 0-2.496-8.05c-.445-.876-.964-1.739-1.496-2.589-1.532-2.528-3.188-5.018-3.658-7.989-.618-3.822.828-7.422 2.064-10.948 1.434-4.118 1.483-8.15 2.237-12.366.939-5.277 5.203-9.838 9.022-11.281 4.153-1.59 7.589-.641 11.668.555 4.016 1.196 8.527 1.097 11.852 3.933 2.064 1.775 3.436 4.426 3.189 7.175-.235 2.7-1.965 4.254-.544 7.225.692 1.479 2.064 2.626 2.855 4.056 2.002 3.625 1.471 8.026 2.67 11.873.803 2.613 2.163 4.697 3.695 6.904.63.912 1.446 1.824 1.434 2.995z" fill="#fff"/><path d="M251.475 122.914s-.445-6.386.878-9.752c1.322-3.354 5.561-7.274 7.415-6.349 1.842.912-1.26 7.273-.927 10.356.334 3.082 1.755 8.531 2.25 12.279.494 3.748.383 11.281.383 11.281l-9.999-17.815z" fill="#F3A070"/><path d="M248.534 176.482s13.447 2.33 22.147-8.211c0 0-6.711-12.39-7.39-14.474-.68-2.083-1.446-19.837-2.794-23.067-1.359-3.23-16.067-17.457-18.712-18.493-2.645-1.035-16.944 1.936-19.206 3.921-2.25 1.997-.21 3.797 3.399 3.39 3.609-.407 10.011-.961 11.16-.604 1.15.358 7.885 6.892 7.712 7.126-.16.234-12.47-4.796-15.325-3.908-2.855.888-12.026 4.019-13.447 5.535-1.421 1.517-.309 3.477 3.325 2.996 3.757-.505 9.504-2.096 10.567-2.243 1.075-.148 9.887 4.265 9.887 4.265s-7.749-2.268-9.727-2.379c-1.989-.111-13.286 4.401-14.868 5.93-1.582 1.516-.556 3.526 2.311 2.922 2.868-.604 9.146-2.343 10.11-2.602.964-.258 7.601 1.998 7.601 1.998s-7.292.419-9.022.986c-1.73.567-7.898 7.447-8.652 8.766-.754 1.319.297 3.55 2.806 2.392 2.509-1.159 6.464-4.796 7.082-4.981.618-.185 5.895-.333 6.637-.185.741.148 2.608 11.872 5.314 14.831 2.707 2.959 5.13 4.106 5.822 4.697.704.58 3.263 11.392 3.263 11.392z" fill="#F3A070"/><path d="M248.274 190.981c2.731.801 22.457-2.663 32.332-12.674 1.681-1.702-4.499-17.113-5.821-18-1.323-.888-23.545 1.713-32.987 13.598-1.657 2.096 4.993 16.644 6.476 17.076z" fill="#005389"/><path d="M166.134 291.201c-20.628-3.921-37.276 13.068-50.056 18.234-10.913 4.414-37.115 15.374-45.569 22.697-7.6 6.572-9.764 27.382-8.305 35.963 1.742 10.282 37.906 18.912 54.616 11.947 21.641-9 25.646-18.469 34.235-22.143 8.59-3.674 34.162-15.99 38.426-29.058 4.041-12.354-12.582-35.581-23.347-37.64z" fill="#0079C8"/><g opacity=".4" fill="#fff"><path opacity=".4" d="M253.774 262.907c-2.163 1.295-4.548 2.231-7.008 2.885 2.422-.715 4.82-1.677 7.008-2.885z"/><path opacity=".4" d="M253.774 262.907c-2.188 1.209-4.586 2.17-7.008 2.885-1.928.567-6.6 1.319-6.723 1.332-.149.012-.149-.222 0-.235.135-.012 12.47-5.868 8.577-12.131-2.398-3.834-7.638-4.882-11.482-6.719-5.698-2.7-11.296-6.658-13.83-12.637-5.933-14.092 9.677-27.296 21.27-31.944.025-.049-10.06 9.395-5.153 19.011 4.226 8.285 20.64 10.812 24.36 22.833 2.472 7.94-3.597 14.03-10.011 17.605z"/></g><path opacity=".4" d="M260.571 239.076c-.939 4.512-4.375 8.63-8.033 11.28-1.879 1.357-4.017 2.207-5.92 3.514-5.587 3.871-3.795 11.737 2.904 12.859.297.049.297.16-.012.136-1.051-.099-17.798-1.985-15.672-14.955.766-4.697 4.981-8.162 8.367-11.256 1.928-1.751 4.005-3.391 5.735-5.339 4.487-5.017 2.299-10.294-2.521-13.832-.099-.062-.087-.173-.037-.235.012-.061.037-.111.111-.111 8.441.679 16.908 9.099 15.078 17.939z" fill="#fff"/><path d="M225.718 305.922c-1.965-.173-4.325-.136-6.179-.666-3.807-1.097-5.055-8.544-5.587-12.329-.667-4.722-2.138-13.019 4.857-14.375 2.472-.481 5.476.246 8.837-.21 1.36-.185 1.162-3.587-1.594-4.5-4.548-1.504-12.285-1.122-15.82 2.071-4.066 3.674-3.967 10.529-3.189 15.153 1.038 6.213 1.57 12.119 4.932 16.249 3.312 4.081 9.393 4.672 14.695 3.871 2.385-.382 1.211-5.079-.952-5.264z" fill="#C56A59"/><path d="M260.893 320.088l-33.58-.789a4.333 4.333 0 0 1-4.24-4.316l-.148-46.947c-.012-2.429 2.002-4.389 4.437-4.34l36.102.851c2.435.061 4.35 2.108 4.227 4.537l-2.361 46.886a4.344 4.344 0 0 1-4.437 4.118z" fill="#C56A59"/><path d="M178.938 291.065c1.903-3.452 6.748-11.773 8.713-13.943 1.965-2.17 13.447-2.503 16.611-2.17 3.152.333 4.511 3.723-.618 5.141-5.042 1.393-5.339 1.627-7.7 2.219-2.36.604-3.572 3.674-3.572 3.674l-13.434 5.079z" fill="#F3A070"/><path d="M170.373 296.132s.148 14.746 13.768 21.637c0 0 4.623-4.302 7.379-4.302 2.756 0 22.766-.592 30.045-5.795 2.645-1.899 1.496-4.931.828-6.053-.667-1.122 1.199-3.724.643-5.141-.556-1.418-1.421-2.022-1.829-3.477-.223-.777 1.434-3.28.902-4.858-.531-1.578-2.843-2.638-3.263-3.205-.42-.555-.198-2.959-1.236-4.241-1.965-2.417-16.19-1.739-21.208.641-8.776 4.167-26.029 14.794-26.029 14.794z" fill="#F3A070"/><path d="M156.432 300.904c-.21 2.835 4.894 21.711 19.28 28.824 2.138 1.061 15.808-8.026 16.401-9.493.593-1.479-6.674-22.586-20.331-29.268-2.398-1.171-15.239 8.396-15.35 9.937zM144.159 295.8c-.235-3.909-1.755-10.147-4.932-13.759-10.011-11.367-6.377-22.143-3.473-30.687 3.461-10.195 7.008-20.441 10.691-30.55.099-.271-.333-.395-.432-.136-1.459 3.687-3.065 7.348-4.672 11.01.21-2.441.259-4.919.729-7.336.05-.271-.346-.394-.408-.123-.717 3.156-1.73 6.781-1.458 10.085-3.078 7.052-6.069 14.141-8.034 21.538-2.15 8.1-3.448 17.433 4.771 26.236 2.089 2.231 4.968 7.113 6.056 14.289.111.826 1.211.259 1.162-.567z" fill="#005389"/><path d="M168.667 291.299c-6.723-3.538-15.239-.628-21.666 2.306-3.04 1.393-12.618 6.756-12.631 6.756-4.091 2.342-8.182 4.648-12.532 6.522-9.95 4.278-20.665 7.262-30.59 11.651-5.277.086-10.023 1.504-14.658 4.006-.123.062-.025.235.099.185 3.696-1.578 7.7-2.49 11.704-2.872-6.043 2.909-11.741 6.472-16.672 11.342-.248.247.11.604.37.382 13.793-11.293 31.356-15.189 47.572-21.686 7.811-3.131 14.868-7.409 22.209-11.466 7.416-4.105 17.81-9.69 26.4-6.25.507.185.877-.629.395-.876zM189.542 323.182c-.061-.247-.457-.21-.445.049.161 10.097-9.492 16.742-16.623 22.389-7.91 6.263-17.192 9.74-25.794 14.831-.148.087-.062.346.111.284 10.222-3.575 20.542-8.852 28.921-15.719 6.452-5.277 16.154-12.267 13.83-21.834z" fill="#005389"/><path d="M27.408 29.072V27.68h-7.904v11.2h1.6v-4.528h5.616v-1.376h-5.616v-3.904h6.304zm9.426 5.616c0-2.608-1.744-4.368-4.192-4.368-2.448 0-4.256 1.808-4.256 4.32 0 2.528 1.824 4.336 4.56 4.336 1.408 0 2.576-.48 3.344-1.376l-.848-.992c-.624.688-1.456 1.024-2.448 1.024-1.68 0-2.88-.992-3.072-2.48h6.88c.016-.144.032-.336.032-.464zm-4.192-3.072c1.488 0 2.56 1.008 2.72 2.432h-5.44c.16-1.44 1.248-2.432 2.72-2.432zm10.821-1.296c-1.2 0-2.256.448-2.96 1.36v-4.672h-1.536V38.88h1.472v-1.344c.688.96 1.776 1.44 3.024 1.44 2.48 0 4.288-1.744 4.288-4.336 0-2.592-1.808-4.32-4.288-4.32zm-.128 7.312c-1.616 0-2.848-1.184-2.848-2.992s1.232-2.976 2.848-2.976c1.632 0 2.864 1.168 2.864 2.976s-1.232 2.992-2.864 2.992zm8.01-5.808V30.4h-1.471v8.48h1.535v-4.224c0-1.856 1.025-2.864 2.672-2.864.112 0 .224 0 .352.016V30.32c-1.487 0-2.544.512-3.087 1.504zm12.568 2.864c0-2.608-1.744-4.368-4.192-4.368-2.448 0-4.256 1.808-4.256 4.32 0 2.528 1.823 4.336 4.56 4.336 1.407 0 2.575-.48 3.343-1.376l-.848-.992c-.623.688-1.456 1.024-2.448 1.024-1.68 0-2.88-.992-3.072-2.48h6.88c.017-.144.032-.336.032-.464zm-4.192-3.072c1.488 0 2.56 1.008 2.72 2.432H57c.16-1.44 1.248-2.432 2.72-2.432zM169.594 109.06a.79.79 0 0 1-.285-.061L97.006 48.731H6.857c-.346 0-.618-.616-.618-.616s.272-.617.618-.617h90.298c.099 0 .197.025.284.062l72.439 60.329c.309.148.42.53.272.826a.638.638 0 0 1-.556.345z" fill="#0079C8"/><path d="M9.269 48.759a4.533 4.533 0 0 1-4.536 4.525 4.525 4.525 0 1 1 0-9.05 4.525 4.525 0 0 1 4.536 4.525zM17.152 185.311h1.584v-9.808h3.84v-1.392h-9.264v1.392h3.84v9.808zm9.7.096c2.543 0 4.4-1.808 4.4-4.336 0-2.528-1.857-4.32-4.4-4.32-2.545 0-4.417 1.792-4.417 4.32 0 2.528 1.872 4.336 4.416 4.336zm0-1.344c-1.633 0-2.865-1.184-2.865-2.992s1.232-2.976 2.864-2.976 2.848 1.168 2.848 2.976-1.216 2.992-2.848 2.992zm8.956 1.344c2.256 0 3.664-.976 3.664-2.512 0-3.296-5.376-1.664-5.376-3.664 0-.672.656-1.168 2-1.168.832 0 1.68.176 2.448.672l.656-1.216c-.736-.48-1.984-.768-3.088-.768-2.176 0-3.536 1.024-3.536 2.544 0 3.376 5.36 1.728 5.36 3.632 0 .72-.592 1.152-2.016 1.152-1.104 0-2.256-.368-2.976-.88l-.64 1.216c.704.56 2.096.992 3.504.992zm8.015 0c2.256 0 3.664-.976 3.664-2.512 0-3.296-5.376-1.664-5.376-3.664 0-.672.656-1.168 2-1.168.832 0 1.68.176 2.448.672l.656-1.216c-.736-.48-1.984-.768-3.088-.768-2.176 0-3.536 1.024-3.536 2.544 0 3.376 5.36 1.728 5.36 3.632 0 .72-.592 1.152-2.016 1.152-1.104 0-2.256-.368-2.976-.88l-.64 1.216c.704.56 2.096.992 3.504.992zm13.248-4.288c0-2.608-1.744-4.368-4.192-4.368-2.448 0-4.256 1.808-4.256 4.32 0 2.528 1.824 4.336 4.56 4.336 1.408 0 2.576-.48 3.344-1.376l-.848-.992c-.624.688-1.456 1.024-2.448 1.024-1.68 0-2.88-.992-3.072-2.48h6.88c.016-.144.032-.336.032-.464zm-4.192-3.072c1.488 0 2.56 1.008 2.72 2.432h-5.44c.16-1.44 1.248-2.432 2.72-2.432z" fill="#0079C8"/><path d="M65.405 195.974H13.187a.611.611 0 0 1-.618-.617.61.61 0 0 1 .618-.616h52.045l124.372-72.789a.612.612 0 0 1 .841.222.607.607 0 0 1-.223.838l-124.52 72.863c-.075.074-.186.099-.297.099z" fill="#0079C8"/><path d="M13.533 195.358a4.533 4.533 0 0 1-4.536 4.524 4.525 4.525 0 1 1 0-9.049c2.509.012 4.536 2.034 4.536 4.525zM301.317 16h4.72c3.6 0 6.048-2.272 6.048-5.6s-2.448-5.6-6.048-5.6h-4.72V16zm1.6-1.392V6.192h3.024c2.768 0 4.544 1.696 4.544 4.208 0 2.512-1.776 4.208-4.544 4.208h-3.024zm15.027 1.488c2.544 0 4.4-1.808 4.4-4.336 0-2.528-1.856-4.32-4.4-4.32-2.544 0-4.416 1.792-4.416 4.32 0 2.528 1.872 4.336 4.416 4.336zm0-1.344c-1.632 0-2.864-1.184-2.864-2.992s1.232-2.976 2.864-2.976 2.848 1.168 2.848 2.976-1.216 2.992-2.848 2.992zm7.996-5.808V7.52h-1.472V16h1.536v-4.224c0-1.856 1.024-2.864 2.672-2.864.112 0 .224 0 .352.016V7.44c-1.488 0-2.544.512-3.088 1.504zm15.852-4.816V8.8c-.704-.912-1.76-1.36-2.96-1.36-2.48 0-4.288 1.728-4.288 4.32 0 2.592 1.808 4.336 4.288 4.336 1.248 0 2.336-.48 3.024-1.44V16h1.472V4.128h-1.536zm-2.832 10.624c-1.632 0-2.864-1.184-2.864-2.992s1.232-2.976 2.864-2.976c1.616 0 2.848 1.168 2.848 2.976s-1.232 2.992-2.848 2.992zm14.938-2.944c0-2.608-1.744-4.368-4.192-4.368-2.448 0-4.256 1.808-4.256 4.32 0 2.528 1.824 4.336 4.56 4.336 1.408 0 2.576-.48 3.344-1.376l-.848-.992c-.624.688-1.456 1.024-2.448 1.024-1.68 0-2.88-.992-3.072-2.48h6.88c.016-.144.032-.336.032-.464zm-4.192-3.072c1.488 0 2.56 1.008 2.72 2.432h-5.44c.16-1.44 1.248-2.432 2.72-2.432zm14.318 7.36c1.52 0 2.784-.64 3.456-1.824l-1.168-.736c-.544.832-1.376 1.216-2.304 1.216-1.664 0-2.912-1.152-2.912-2.992 0-1.808 1.248-2.976 2.912-2.976.928 0 1.76.384 2.304 1.216l1.168-.752c-.672-1.184-1.936-1.808-3.456-1.808-2.608 0-4.48 1.792-4.48 4.32 0 2.528 1.872 4.336 4.48 4.336zm8.532-8.656c-1.36 0-2.624.384-3.504 1.088l.64 1.152c.656-.56 1.68-.912 2.688-.912 1.52 0 2.272.752 2.272 2.048v.304h-2.432c-2.528 0-3.408 1.12-3.408 2.48 0 1.472 1.216 2.496 3.136 2.496 1.328 0 2.272-.448 2.784-1.216V16h1.456v-5.12c0-2.32-1.312-3.44-3.632-3.44zm-.352 7.472c-1.168 0-1.872-.528-1.872-1.376 0-.72.432-1.312 1.952-1.312h2.368v1.184c-.384.976-1.296 1.504-2.448 1.504zm11.323-7.472c-1.2 0-2.256.448-2.96 1.36V4.128h-1.536V16h1.472v-1.344c.688.96 1.776 1.44 3.024 1.44 2.48 0 4.288-1.744 4.288-4.336 0-2.592-1.808-4.32-4.288-4.32zm-.128 7.312c-1.616 0-2.848-1.184-2.848-2.992s1.232-2.976 2.848-2.976c1.632 0 2.864 1.168 2.864 2.976s-1.232 2.992-2.864 2.992zm14.202-2.944c0-2.608-1.744-4.368-4.192-4.368-2.448 0-4.256 1.808-4.256 4.32 0 2.528 1.824 4.336 4.56 4.336 1.408 0 2.576-.48 3.344-1.376l-.848-.992c-.624.688-1.456 1.024-2.448 1.024-1.68 0-2.88-.992-3.072-2.48h6.88c.016-.144.032-.336.032-.464zm-4.192-3.072c1.488 0 2.56 1.008 2.72 2.432h-5.44c.16-1.44 1.248-2.432 2.72-2.432zm10.005 6.016c-1.664 0-2.912-1.152-2.912-2.992 0-1.808 1.248-2.976 2.912-2.976.928 0 1.76.384 2.304 1.216l1.168-.752c-.672-1.184-1.936-1.808-3.456-1.808-2.608 0-4.48 1.792-4.48 4.32 0 2.256 1.488 3.92 3.648 4.272l-.368 1.424h.432c.64 0 .912.256.912.624 0 .4-.288.64-.896.64-.4 0-.752-.08-1.088-.272l-.336.784c.4.24.864.352 1.424.352 1.2 0 1.984-.56 1.984-1.456 0-.704-.464-1.232-1.392-1.328l.192-.704c1.504 0 2.752-.64 3.424-1.824l-1.168-.736c-.544.832-1.376 1.216-2.304 1.216zm8.549-7.312c-1.36 0-2.624.384-3.504 1.088l.64 1.152c.656-.56 1.68-.912 2.688-.912 1.52 0 2.272.752 2.272 2.048v.304h-2.432c-2.528 0-3.408 1.12-3.408 2.48 0 1.472 1.216 2.496 3.136 2.496 1.328 0 2.272-.448 2.784-1.216V16h1.456v-5.12c0-2.32-1.312-3.44-3.632-3.44zm-.352 7.472c-1.168 0-1.872-.528-1.872-1.376 0-.72.432-1.312 1.952-1.312h2.368v1.184c-.384.976-1.296 1.504-2.448 1.504zM227.41 54.932c-.21 0-.42-.111-.532-.309a.607.607 0 0 1 .223-.838l45.73-26.297a.68.68 0 0 1 .309-.086h155.14c.346 0 .618.27.618.616a.611.611 0 0 1-.618.616H273.3l-45.581 26.224a.673.673 0 0 1-.309.074z" fill="#0079C8"/><path d="M435.682 28.018a4.525 4.525 0 0 1-4.536 4.524c-2.497 0-4.536-2.022-4.536-4.524a4.525 4.525 0 0 1 4.536-4.525 4.525 4.525 0 0 1 4.536 4.525zM311.996 153.28h4.72c3.6 0 6.048-2.272 6.048-5.6s-2.448-5.6-6.048-5.6h-4.72v11.2zm1.6-1.392v-8.416h3.024c2.768 0 4.544 1.696 4.544 4.208 0 2.512-1.776 4.208-4.544 4.208h-3.024zm15.026 1.488c2.544 0 4.4-1.808 4.4-4.336 0-2.528-1.856-4.32-4.4-4.32-2.544 0-4.416 1.792-4.416 4.32 0 2.528 1.872 4.336 4.416 4.336zm0-1.344c-1.632 0-2.864-1.184-2.864-2.992s1.232-2.976 2.864-2.976 2.848 1.168 2.848 2.976-1.216 2.992-2.848 2.992zm7.997-5.808V144.8h-1.472v8.48h1.536v-4.224c0-1.856 1.024-2.864 2.672-2.864.112 0 .224 0 .352.016v-1.488c-1.488 0-2.544.512-3.088 1.504zm15.851-4.816v4.672c-.704-.912-1.76-1.36-2.96-1.36-2.48 0-4.288 1.728-4.288 4.32 0 2.592 1.808 4.336 4.288 4.336 1.248 0 2.336-.48 3.024-1.44v1.344h1.472v-11.872h-1.536zm-2.832 10.624c-1.632 0-2.864-1.184-2.864-2.992s1.232-2.976 2.864-2.976c1.616 0 2.848 1.168 2.848 2.976s-1.232 2.992-2.848 2.992zm14.938-2.944c0-2.608-1.744-4.368-4.192-4.368-2.448 0-4.256 1.808-4.256 4.32 0 2.528 1.824 4.336 4.56 4.336 1.408 0 2.576-.48 3.344-1.376l-.848-.992c-.624.688-1.456 1.024-2.448 1.024-1.68 0-2.88-.992-3.072-2.48h6.88c.016-.144.032-.336.032-.464zm-4.192-3.072c1.488 0 2.56 1.008 2.72 2.432h-5.44c.16-1.44 1.248-2.432 2.72-2.432zm17.278-1.216v1.312c-.72-.928-1.872-1.392-3.136-1.392-2.448 0-4.304 1.648-4.304 4.096 0 2.448 1.856 4.112 4.304 4.112 1.216 0 2.32-.432 3.056-1.312v.672c0 1.92-.912 2.848-2.912 2.848-1.248 0-2.48-.432-3.264-1.104l-.736 1.184c.928.832 2.496 1.264 4.048 1.264 2.88 0 4.4-1.36 4.4-4.352V144.8h-1.456zm-2.96 6.784c-1.712 0-2.928-1.136-2.928-2.768 0-1.648 1.216-2.752 2.928-2.752 1.696 0 2.912 1.104 2.912 2.752 0 1.632-1.216 2.768-2.912 2.768zm10.439-6.864c-1.36 0-2.624.384-3.504 1.088l.64 1.152c.656-.56 1.68-.912 2.688-.912 1.52 0 2.272.752 2.272 2.048v.304h-2.432c-2.528 0-3.408 1.12-3.408 2.48 0 1.472 1.216 2.496 3.136 2.496 1.328 0 2.272-.448 2.784-1.216v1.12h1.456v-5.12c0-2.32-1.312-3.44-3.632-3.44zm-.352 7.472c-1.168 0-1.872-.528-1.872-1.376 0-.72.432-1.312 1.952-1.312h2.368v1.184c-.384.976-1.296 1.504-2.448 1.504zm8.298-5.968V144.8h-1.472v8.48h1.536v-4.224c0-1.856 1.024-2.864 2.672-2.864.112 0 .224 0 .352.016v-1.488c-1.488 0-2.544.512-3.088 1.504zm11.559-1.424v1.312c-.72-.928-1.872-1.392-3.136-1.392-2.448 0-4.304 1.648-4.304 4.096 0 2.448 1.856 4.112 4.304 4.112 1.216 0 2.32-.432 3.056-1.312v.672c0 1.92-.912 2.848-2.912 2.848-1.248 0-2.48-.432-3.264-1.104l-.736 1.184c.928.832 2.496 1.264 4.048 1.264 2.88 0 4.4-1.36 4.4-4.352V144.8h-1.456zm-2.96 6.784c-1.712 0-2.928-1.136-2.928-2.768 0-1.648 1.216-2.752 2.928-2.752 1.696 0 2.912 1.104 2.912 2.752 0 1.632-1.216 2.768-2.912 2.768zm10.439-6.864c-1.36 0-2.624.384-3.504 1.088l.64 1.152c.656-.56 1.68-.912 2.688-.912 1.52 0 2.272.752 2.272 2.048v.304h-2.432c-2.528 0-3.408 1.12-3.408 2.48 0 1.472 1.216 2.496 3.136 2.496 1.328 0 2.272-.448 2.784-1.216v1.12h1.456v-5.12c0-2.32-1.312-3.44-3.632-3.44zm-.352 7.472c-1.168 0-1.872-.528-1.872-1.376 0-.72.432-1.312 1.952-1.312h2.368v1.184c-.384.976-1.296 1.504-2.448 1.504zm11.355-7.472c-1.344 0-2.432.496-3.056 1.36v-1.28H418.6v8.48h1.536v-4.368c0-1.84 1.056-2.816 2.688-2.816 1.456 0 2.288.816 2.288 2.48v4.704h1.536v-4.88c0-2.496-1.456-3.68-3.52-3.68zm10.65 6.96c-.32.256-.752.4-1.2.4-.848 0-1.328-.512-1.328-1.424v-4.592h2.432V144.8h-2.432v-1.856h-1.536v1.856h-1.44v1.264h1.44v4.656c0 1.712.976 2.656 2.688 2.656.688 0 1.392-.192 1.856-.592l-.48-1.104zm5.425-6.96c-1.36 0-2.624.384-3.504 1.088l.64 1.152c.656-.56 1.68-.912 2.688-.912 1.52 0 2.272.752 2.272 2.048v.304h-2.432c-2.528 0-3.408 1.12-3.408 2.48 0 1.472 1.216 2.496 3.136 2.496 1.328 0 2.272-.448 2.784-1.216v1.12h1.456v-5.12c0-2.32-1.312-3.44-3.632-3.44zm-.352 7.472c-1.168 0-1.872-.528-1.872-1.376 0-.72.432-1.312 1.952-1.312h2.368v1.184c-.384.976-1.296 1.504-2.448 1.504zM448.873 170.256H347.687l-89.667-16.643a.617.617 0 0 1-.495-.716.618.618 0 0 1 .717-.493l89.556 16.632 101.075-.013c.346 0 .618.272.618.617a.611.611 0 0 1-.618.616z" fill="#0079C8"/><path d="M457.037 169.64a4.533 4.533 0 0 1-4.536 4.524c-2.496 0-4.536-2.022-4.536-4.524a4.526 4.526 0 0 1 4.536-4.525c2.497 0 4.536 2.022 4.536 4.525zM308.945 73.017h4.72c3.6 0 6.048-2.272 6.048-5.6s-2.448-5.6-6.048-5.6h-4.72v11.2zm1.6-1.392v-8.416h3.024c2.768 0 4.544 1.696 4.544 4.208 0 2.512-1.776 4.208-4.544 4.208h-3.024zm12.163-8.72c.608 0 1.04-.448 1.04-1.024 0-.544-.448-.976-1.04-.976-.592 0-1.04.448-1.04 1.008s.448.992 1.04.992zm-.768 10.112h1.536v-8.48h-1.536v8.48zm12.165-10.112c.608 0 1.04-.448 1.04-1.024 0-.544-.448-.976-1.04-.976-.592 0-1.04.448-1.04 1.008s.448.992 1.04.992zm-7.472.88v.752h-1.44V65.8h1.44v7.216h1.536V65.8h2.432v-1.264h-2.464V63.8c0-.976.464-1.488 1.376-1.488.448 0 .864.16 1.184.4l.464-1.168c-.432-.336-1.072-.496-1.728-.496-1.808 0-2.8 1.088-2.8 2.736zm6.704 9.232h1.536v-8.48h-1.536v8.48zm8.159.096c1.52 0 2.784-.64 3.456-1.824l-1.168-.736c-.544.832-1.376 1.216-2.304 1.216-1.664 0-2.912-1.152-2.912-2.992 0-1.808 1.248-2.976 2.912-2.976.928 0 1.76.384 2.304 1.216l1.168-.752c-.672-1.184-1.936-1.808-3.456-1.808-2.608 0-4.48 1.792-4.48 4.32 0 2.528 1.872 4.336 4.48 4.336zm11.812-8.576v4.384c0 1.824-1.024 2.816-2.624 2.816-1.456 0-2.288-.832-2.288-2.496v-4.704h-1.536v4.88c0 2.496 1.456 3.696 3.648 3.696 1.2 0 2.256-.496 2.88-1.376v1.28h1.456v-8.48h-1.536zm4.46 8.48h1.536V61.145h-1.536v11.872zm10.933-11.872v4.672c-.704-.912-1.76-1.36-2.96-1.36-2.48 0-4.288 1.728-4.288 4.32 0 2.592 1.808 4.336 4.288 4.336 1.248 0 2.336-.48 3.024-1.44v1.344h1.472V61.145h-1.536zm-2.832 10.624c-1.632 0-2.864-1.184-2.864-2.992s1.232-2.976 2.864-2.976c1.616 0 2.848 1.168 2.848 2.976s-1.232 2.992-2.848 2.992zm10.362-7.312c-1.36 0-2.624.384-3.504 1.088l.64 1.152c.656-.56 1.68-.912 2.688-.912 1.52 0 2.272.752 2.272 2.048v.304h-2.432c-2.528 0-3.408 1.12-3.408 2.48 0 1.472 1.216 2.496 3.136 2.496 1.328 0 2.272-.448 2.784-1.216v1.12h1.456v-5.12c0-2.32-1.312-3.44-3.632-3.44zm-.352 7.472c-1.168 0-1.872-.528-1.872-1.376 0-.72.432-1.312 1.952-1.312h2.368v1.184c-.384.976-1.296 1.504-2.448 1.504zm13.338-10.784v4.672c-.704-.912-1.76-1.36-2.96-1.36-2.48 0-4.288 1.728-4.288 4.32 0 2.592 1.808 4.336 4.288 4.336 1.248 0 2.336-.48 3.024-1.44v1.344h1.472V61.145h-1.536zm-2.832 10.624c-1.632 0-2.864-1.184-2.864-2.992s1.232-2.976 2.864-2.976c1.616 0 2.848 1.168 2.848 2.976s-1.232 2.992-2.848 2.992zm14.938-2.944c0-2.608-1.744-4.368-4.192-4.368-2.448 0-4.256 1.808-4.256 4.32 0 2.528 1.824 4.336 4.56 4.336 1.408 0 2.576-.48 3.344-1.376l-.848-.992c-.624.688-1.456 1.024-2.448 1.024-1.68 0-2.88-.992-3.072-2.48h6.88c.016-.144.032-.336.032-.464zm-4.192-3.072c1.488 0 2.56 1.008 2.72 2.432h-5.44c.16-1.44 1.248-2.432 2.72-2.432zm8.757 7.36c2.256 0 3.664-.976 3.664-2.512 0-3.296-5.376-1.664-5.376-3.664 0-.672.656-1.168 2-1.168.832 0 1.68.176 2.448.672l.656-1.216c-.736-.48-1.984-.768-3.088-.768-2.176 0-3.536 1.024-3.536 2.544 0 3.376 5.36 1.728 5.36 3.632 0 .72-.592 1.152-2.016 1.152-1.104 0-2.256-.368-2.976-.88l-.64 1.216c.704.56 2.096.992 3.504.992zm14.408-8.656c-1.344 0-2.432.496-3.056 1.36v-1.28h-1.472v8.48h1.536v-4.368c0-1.84 1.056-2.816 2.688-2.816 1.456 0 2.288.816 2.288 2.48v4.704h1.536v-4.88c0-2.496-1.456-3.68-3.52-3.68zm9.451 0c-1.36 0-2.624.384-3.504 1.088l.64 1.152c.656-.56 1.68-.912 2.688-.912 1.52 0 2.272.752 2.272 2.048v.304h-2.432c-2.528 0-3.408 1.12-3.408 2.48 0 1.472 1.216 2.496 3.136 2.496 1.328 0 2.272-.448 2.784-1.216v1.12h1.456v-5.12c0-2.32-1.312-3.44-3.632-3.44zm-.352 7.472c-1.168 0-1.872-.528-1.872-1.376 0-.72.432-1.312 1.952-1.312h2.368v1.184c-.384.976-1.296 1.504-2.448 1.504zM310.193 84.96v-1.424h-1.472v8.48h1.536v-4.224c0-1.856 1.024-2.864 2.672-2.864.112 0 .224 0 .352.016v-1.488c-1.488 0-2.544.512-3.088 1.504zm12.567 2.864c0-2.608-1.744-4.368-4.192-4.368-2.448 0-4.256 1.808-4.256 4.32 0 2.528 1.824 4.336 4.56 4.336 1.408 0 2.576-.48 3.344-1.376l-.848-.992c-.624.688-1.456 1.024-2.448 1.024-1.68 0-2.88-.992-3.072-2.48h6.88c.016-.144.032-.336.032-.464zm-4.192-3.072c1.488 0 2.56 1.008 2.72 2.432h-5.44c.16-1.44 1.248-2.432 2.72-2.432zm8.757 7.36c2.256 0 3.664-.976 3.664-2.512 0-3.296-5.376-1.664-5.376-3.664 0-.672.656-1.168 2-1.168.832 0 1.68.176 2.448.672l.656-1.216c-.736-.48-1.984-.768-3.088-.768-2.176 0-3.536 1.024-3.536 2.544 0 3.376 5.36 1.728 5.36 3.632 0 .72-.592 1.152-2.016 1.152-1.104 0-2.256-.368-2.976-.88l-.64 1.216c.704.56 2.096.992 3.504.992zm10.08-8.656c-1.248 0-2.336.48-3.024 1.424v-1.344h-1.472V95.12h1.536v-4.384c.704.912 1.76 1.376 2.96 1.376 2.48 0 4.288-1.728 4.288-4.336 0-2.592-1.808-4.32-4.288-4.32zm-.128 7.312c-1.616 0-2.848-1.184-2.848-2.992 0-1.792 1.232-2.976 2.848-2.976 1.632 0 2.864 1.184 2.864 2.976 0 1.808-1.232 2.992-2.864 2.992zm7.306-8.864c.608 0 1.04-.448 1.04-1.024 0-.544-.448-.976-1.04-.976-.592 0-1.04.448-1.04 1.008s.448.992 1.04.992zm-.768 10.112h1.536v-8.48h-1.536v8.48zm5.941-7.056v-1.424h-1.472v8.48h1.536v-4.224c0-1.856 1.024-2.864 2.672-2.864.112 0 .224 0 .352.016v-1.488c-1.488 0-2.544.512-3.088 1.504zm8.053-1.504c-1.36 0-2.624.384-3.504 1.088l.64 1.152c.656-.56 1.68-.912 2.688-.912 1.52 0 2.272.752 2.272 2.048v.304h-2.432c-2.528 0-3.408 1.12-3.408 2.48 0 1.472 1.216 2.496 3.136 2.496 1.328 0 2.272-.448 2.784-1.216v1.12h1.456v-5.12c0-2.32-1.312-3.44-3.632-3.44zm-.352 7.472c-1.168 0-1.872-.528-1.872-1.376 0-.72.432-1.312 1.952-1.312h2.368v1.184c-.384.976-1.296 1.504-2.448 1.504zm10.554-.16c-1.664 0-2.912-1.152-2.912-2.992 0-1.808 1.248-2.976 2.912-2.976.928 0 1.76.384 2.304 1.216l1.168-.752c-.672-1.184-1.936-1.808-3.456-1.808-2.608 0-4.48 1.792-4.48 4.32 0 2.256 1.488 3.92 3.648 4.272l-.368 1.424h.432c.64 0 .912.256.912.624 0 .4-.288.64-.896.64-.4 0-.752-.08-1.088-.272l-.336.784c.4.24.864.352 1.424.352 1.2 0 1.984-.56 1.984-1.456 0-.704-.464-1.232-1.392-1.328l.192-.704c1.504 0 2.752-.64 3.424-1.824l-1.168-.736c-.544.832-1.376 1.216-2.304 1.216zm7.652-9.584c.592 0 1.104 1.072 2.128 1.072.928 0 1.536-.768 1.568-1.904h-.864c-.032.592-.352.96-.816.96-.592 0-1.104-1.088-2.128-1.088-.928 0-1.536.768-1.568 1.952h.864c.032-.624.352-.992.816-.992zm.896 2.272c-1.36 0-2.624.384-3.504 1.088l.64 1.152c.656-.56 1.68-.912 2.688-.912 1.52 0 2.272.752 2.272 2.048v.304h-2.432c-2.528 0-3.408 1.12-3.408 2.48 0 1.472 1.216 2.496 3.136 2.496 1.328 0 2.272-.448 2.784-1.216v1.12h1.456v-5.12c0-2.32-1.312-3.44-3.632-3.44zm-.352 7.472c-1.168 0-1.872-.528-1.872-1.376 0-.72.432-1.312 1.952-1.312h2.368v1.184c-.384.976-1.296 1.504-2.448 1.504zm10.506 1.184c2.544 0 4.4-1.808 4.4-4.336 0-2.528-1.856-4.32-4.4-4.32-2.544 0-4.416 1.792-4.416 4.32 0 2.528 1.872 4.336 4.416 4.336zm0-1.344c-1.632 0-2.864-1.184-2.864-2.992s1.232-2.976 2.864-2.976 2.848 1.168 2.848 2.976-1.216 2.992-2.848 2.992zM428.899 103.275H198.268a.612.612 0 0 1-.618-.617c0-.345.272-.616.618-.616h230.631c.346 0 .618.271.618.616a.612.612 0 0 1-.618.617z" fill="#0079C8"/><path d="M435.683 102.658a4.533 4.533 0 0 1-4.536 4.524 4.525 4.525 0 1 1 0-9.049 4.533 4.533 0 0 1 4.536 4.525z" fill="#0079C8"/><defs><linearGradient id="paint0_linear" x1="196.871" y1="90.286" x2="197.117" y2="51.755" gradientUnits="userSpaceOnUse"><stop stop-color="#C56A59" stop-opacity="0"/><stop offset="1" stop-color="#C56A59"/></linearGradient><clipPath id="clip0"><path fill="#fff" d="M1.045 32.032h416.536v416.551H1.045z"/></clipPath></defs></svg>