<svg width="489" height="361" fill="none" xmlns="http://www.w3.org/2000/svg"><path d="M475.542 210.615c.085 50.739-42.18 95.368-106.149 121.08v.01c-.817.327-1.635.644-2.453.971a334.836 334.836 0 0 1-9.182 3.418 291.135 291.135 0 0 1-9.591 3.187c-17.462 5.497-36.201 9.675-55.86 12.302-15.826 2.121-32.265 3.239-49.13 3.249-73.1.043-138.346-20.795-181.072-53.418-32.316-24.73-51.72-56.214-51.77-90.503-.137-79.573 103.899-144.133 232.382-144.217 8.398-.01 16.694.263 24.855.802.715.042 1.43.095 2.146.137 1.721.126 3.424.263 5.128.4a358.275 358.275 0 0 1 38.381 5.34c3.356.664 6.644 1.36 9.932 2.099 1.499.348 2.981.696 4.463 1.044.034.01.068.021.085.032 86.456 20.964 147.733 73.074 147.835 134.067z" fill="#0079C8" fill-opacity=".1"/><path d="M252.542 280.749c-99.889 0-185.276 5.564-219.67 13.413a285.654 285.654 0 0 0 14.111 18.073c40.46 6.422 117.35 10.761 205.559 10.761 130.269 0 235.878-9.458 235.878-21.124 0-11.665-105.609-21.123-235.878-21.123z" fill="url(#paint0_linear)"/><path d="M222.33 64.749a3.111 3.111 0 0 1-2.732-1.64l-7.334-13.49-6.957 13.428c-.544 1.043-1.6 1.702-2.762 1.702a3.144 3.144 0 0 1-2.777-1.702l-16.51-32.145-18.049 32.237a3.126 3.126 0 0 1-2.717 1.61h-17.883c-1.72 0-3.124-1.426-3.124-3.173 0-1.748 1.404-3.174 3.124-3.174h16.072l19.981-35.7a3.126 3.126 0 0 1 2.717-1.61h.06a3.112 3.112 0 0 1 2.717 1.701l16.404 31.93 6.866-13.29a3.135 3.135 0 0 1 2.732-1.701c1.132-.03 2.218.613 2.762 1.64l7.183 13.229 10.413-22.334c.528-1.135 1.706-1.825 2.898-1.81a3.095 3.095 0 0 1 2.807 1.948l10.775 25.997h13.854c1.72 0 3.124 1.426 3.124 3.173 0 1.748-1.404 3.174-3.124 3.174h-15.922a3.126 3.126 0 0 1-2.882-1.947l-8.874-21.4-10.035 21.523a3.11 3.11 0 0 1-2.732 1.808c-.015.016-.045.016-.075.016zM88.243 129.913v-15.851H57.306v15.851c0 4.721-3.773 8.553-8.421 8.553s-8.421 3.832-8.421 8.554v136.167c0 8.078 6.444 14.624 14.397 14.624h35.827c7.953 0 14.397-6.546 14.397-14.624V147.02c0-4.722-3.773-8.554-8.421-8.554s-8.421-3.832-8.421-8.553z" fill="#B3D59C"/><path d="M105.085 165.307h-56.2v49.911h56.2v-49.911z" fill="#fff"/><path d="M96.664 138.466c-4.648 0-8.421-3.832-8.421-8.553v-15.851h-11.44v15.851c0 4.721 3.774 8.553 8.422 8.553 4.648 0 8.42 3.832 8.42 8.554v136.167c0 8.078-6.443 14.624-14.396 14.624h11.439c7.953 0 14.397-6.546 14.397-14.624V147.02c0-4.722-3.773-8.554-8.421-8.554z" fill="url(#paint1_linear)"/><path d="M88.228 114.062H57.306v14.256h30.922v-14.256z" fill="url(#paint2_linear)"/><path d="M89.073 121.987H56.476c-2.52 0-4.573-2.084-4.573-4.644v-11.712c0-2.559 2.052-4.644 4.573-4.644h32.582c2.52 0 4.572 2.085 4.572 4.644v11.712c.016 2.56-2.037 4.644-4.557 4.644z" fill="#fff"/><path d="M72.774 77.335c-4.995 0-9.04 4.108-9.04 9.181v14.471H81.8v-14.47c.015-5.074-4.03-9.182-9.025-9.182z" fill="#fff"/><path d="M75.325 86.516v14.471h6.474V86.516c0-5.074-4.044-9.182-9.04-9.182-1.147 0-2.233.245-3.244.629a9.17 9.17 0 0 1 5.81 8.553z" fill="url(#paint3_linear)"/><path d="M89.073 100.972h-6.489c2.52 0 4.573 2.085 4.573 4.645v11.711c0 2.56-2.053 4.645-4.573 4.645h6.474c2.52 0 4.573-2.085 4.573-4.645v-11.711c.015-2.56-2.037-4.645-4.558-4.645z" fill="url(#paint4_linear)"/><path opacity=".3" d="M53.095 222.499c-2.324 0-4.21-1.916-4.21-4.276V153.81c0-2.36 1.886-4.276 4.21-4.276s4.21 1.916 4.21 4.276v64.413c0 2.36-1.886 4.276-4.21 4.276zM53.095 247.976c-2.324 0-4.21-1.916-4.21-4.277v-5.779c0-2.361 1.886-4.277 4.21-4.277s4.21 1.916 4.21 4.277v5.779c0 2.361-1.886 4.277-4.21 4.277z" fill="#fff"/><path d="M416.902 199.737H249.675c-3.441 0-6.233 2.836-6.233 6.331v87.007c0 3.495 2.792 6.331 6.233 6.331h167.227c3.441 0 6.233-2.836 6.233-6.331v-87.007c0-3.495-2.792-6.331-6.233-6.331z" fill="#B3D59C"/><path d="M286.724 241.401c5.534-5.622 5.534-14.735 0-20.356a14.017 14.017 0 0 0-20.041 0c-5.534 5.621-5.534 14.734 0 20.356a14.017 14.017 0 0 0 20.041 0zM286.717 286.195c5.534-5.621 5.534-14.734 0-20.355a14.017 14.017 0 0 0-20.041 0c-5.534 5.621-5.534 14.734 0 20.355a14.015 14.015 0 0 0 20.041 0zM322.444 244.538c7.237-3.025 10.691-11.436 7.713-18.788-2.978-7.352-11.26-10.86-18.497-7.835-7.238 3.025-10.691 11.437-7.714 18.789 2.978 7.351 11.26 10.859 18.498 7.834zM322.44 289.331c7.237-3.025 10.691-11.437 7.713-18.788-2.978-7.352-11.259-10.86-18.497-7.835-7.238 3.025-10.691 11.437-7.713 18.789 2.978 7.351 11.259 10.859 18.497 7.834zM362.783 244.537c7.238-3.025 10.691-11.436 7.713-18.788-2.978-7.352-11.259-10.86-18.497-7.835-7.238 3.025-10.691 11.437-7.713 18.789 2.978 7.351 11.259 10.859 18.497 7.834zM362.779 289.33c7.238-3.025 10.691-11.437 7.713-18.789-2.977-7.351-11.259-10.859-18.497-7.834-7.237 3.024-10.691 11.436-7.713 18.788 2.978 7.352 11.26 10.859 18.497 7.835zM403.123 244.537c7.238-3.025 10.691-11.437 7.713-18.789-2.978-7.351-11.259-10.859-18.497-7.834-7.238 3.025-10.691 11.436-7.713 18.788 2.978 7.352 11.259 10.86 18.497 7.835zM403.119 289.33c7.238-3.025 10.691-11.437 7.713-18.789-2.977-7.351-11.259-10.859-18.497-7.834-7.237 3.025-10.691 11.436-7.713 18.788 2.978 7.352 11.26 10.859 18.497 7.835z" fill="#28BBC6"/><path d="M287.512 229.719c1.254-7.847-3.993-15.24-11.718-16.514-7.725-1.274-15.004 4.055-16.258 11.902-1.254 7.847 3.993 15.241 11.718 16.514 7.725 1.274 15.004-4.055 16.258-11.902z" fill="#fff"/><path d="M270.32 241.431c1.026.245 2.098.383 3.199.383 1.102 0 2.158-.138 3.185-.383v-28.037a13.745 13.745 0 0 0-3.185-.383c-1.101 0-2.158.138-3.199.383v28.037z" fill="#E7EDF4"/><path d="M278.955 285.018c7.231-3.043 10.664-11.463 7.669-18.807-2.995-7.345-11.285-10.832-18.516-7.79-7.23 3.042-10.664 11.462-7.669 18.807 2.995 7.344 11.285 10.832 18.516 7.79z" fill="#fff"/><path d="M270.32 285.732c1.026.246 2.098.384 3.199.384 1.102 0 2.158-.138 3.185-.384v-28.036a13.692 13.692 0 0 0-3.185-.384 13.81 13.81 0 0 0-3.199.384v28.036z" fill="#E7EDF4"/><path d="M327.86 229.685c1.223-7.852-4.053-15.223-11.783-16.465-7.73-1.242-14.987 4.117-16.21 11.968-1.222 7.852 4.053 15.224 11.783 16.466 7.73 1.241 14.988-4.117 16.21-11.969z" fill="#fff"/><path d="M310.659 241.431a13.76 13.76 0 0 0 3.199.383c1.102 0 2.158-.138 3.199-.383v-28.037a13.76 13.76 0 0 0-3.199-.383c-1.102 0-2.158.138-3.199.383v28.037z" fill="#E7EDF4"/><path d="M319.038 285.119c7.289-2.894 10.889-11.243 8.039-18.647-2.85-7.404-11.069-11.06-18.358-8.166-7.29 2.894-10.889 11.243-8.039 18.647 2.849 7.404 11.069 11.06 18.358 8.166z" fill="#fff"/><path d="M310.659 285.732a13.76 13.76 0 0 0 3.199.383c1.102 0 2.158-.138 3.199-.383v-28.037a13.76 13.76 0 0 0-3.199-.383c-1.102 0-2.158.138-3.199.383v28.037z" fill="#E7EDF4"/><path d="M364.199 237.604c5.534-5.621 5.534-14.735 0-20.356a14.016 14.016 0 0 0-20.04 0c-5.533 5.621-5.533 14.735 0 20.356a14.014 14.014 0 0 0 20.04 0z" fill="#fff"/><path d="M350.998 241.431a13.76 13.76 0 0 0 3.199.383c1.102 0 2.158-.138 3.184-.383v-28.037a13.73 13.73 0 0 0-3.184-.383c-1.102 0-2.158.138-3.199.383v28.037z" fill="#E7EDF4"/><path d="M367.979 275.063c1.806-7.735-2.904-15.492-10.519-17.326-7.615-1.834-15.252 2.95-17.057 10.684-1.806 7.735 2.904 15.492 10.519 17.326 7.615 1.834 15.252-2.949 17.057-10.684z" fill="#fff"/><path d="M350.998 285.732c1.026.246 2.097.384 3.199.384a13.58 13.58 0 0 0 3.184-.384v-28.036a13.677 13.677 0 0 0-3.184-.384c-1.102 0-2.158.138-3.199.384v28.036z" fill="#E7EDF4"/><path d="M408.516 229.702c1.25-7.848-4-15.239-11.726-16.509-7.726-1.269-15.002 4.064-16.252 11.911-1.25 7.848 4 15.239 11.726 16.509 7.726 1.269 15.003-4.064 16.252-11.911z" fill="#fff"/><path d="M391.337 241.43c1.027.245 2.098.383 3.2.383 1.101 0 2.158-.138 3.199-.383v-28.037a13.767 13.767 0 0 0-3.199-.383c-1.102 0-2.158.138-3.2.383v28.037z" fill="#E7EDF4"/><path d="M399.924 285.039c7.238-3.025 10.691-11.437 7.713-18.788-2.978-7.352-11.259-10.86-18.497-7.835-7.238 3.025-10.691 11.437-7.713 18.789 2.978 7.351 11.259 10.859 18.497 7.834z" fill="#fff"/><path d="M391.337 285.731c1.026.246 2.098.384 3.199.384 1.102 0 2.159-.138 3.2-.384v-28.036a13.715 13.715 0 0 0-3.2-.383 13.81 13.81 0 0 0-3.199.383v28.036z" fill="#E7EDF4"/><path d="M104.044 74.146c-2.445 0-4.422-2.008-4.422-4.491V53.498c0-2.483 1.977-4.491 4.422-4.491 2.445 0 4.422 2.008 4.422 4.491V69.64c0 2.483-1.977 4.506-4.422 4.506z" fill="#0079C8"/><path d="M91.669 61.576c0-2.483 1.977-4.491 4.422-4.491h15.891c2.444 0 4.421 2.008 4.421 4.491 0 2.484-1.977 4.492-4.421 4.492H96.091c-2.445 0-4.422-2.008-4.422-4.492z" fill="#0079C8"/><path d="M17.962 360.613c-2.444 0-4.421-2.008-4.421-4.491v-16.141c0-2.484 1.977-4.492 4.421-4.492 2.445 0 4.422 2.008 4.422 4.492v16.141c.015 2.483-1.977 4.491-4.422 4.491z" fill="#E7EDF4"/><path d="M5.587 348.044c0-2.484 1.977-4.492 4.422-4.492H25.9c2.445 0 4.422 2.008 4.422 4.492 0 2.483-1.977 4.491-4.422 4.491H10.024c-2.444.015-4.437-2.008-4.437-4.491zM35.453 25.124c-2.445 0-4.422-2.008-4.422-4.491V4.49C31.031 2.008 33.008 0 35.453 0c2.445 0 4.422 2.008 4.422 4.491v16.142c.015 2.483-1.977 4.491-4.422 4.491z" fill="#E7EDF4"/><path d="M23.093 12.57c0-2.483 1.977-4.491 4.422-4.491h15.891c2.445 0 4.422 2.008 4.422 4.491 0 2.483-1.977 4.491-4.422 4.491h-15.89c-2.446 0-4.423-2.008-4.423-4.491z" fill="#E7EDF4"/><path d="M409.206 74.146c-2.445 0-4.422-2.008-4.422-4.491V53.498c0-2.483 1.977-4.491 4.422-4.491 2.445 0 4.422 2.008 4.422 4.491V69.64c0 2.483-1.977 4.506-4.422 4.506z" fill="#0079C8"/><path d="M396.831 61.576c0-2.483 1.977-4.491 4.421-4.491h15.892c2.445 0 4.421 2.008 4.421 4.491 0 2.484-1.976 4.492-4.421 4.492h-15.892c-2.429 0-4.421-2.008-4.421-4.492zM371.553 25.124c-2.445 0-4.422-2.008-4.422-4.491V4.49c0-2.483 1.977-4.491 4.422-4.491 2.444 0 4.421 2.008 4.421 4.491v16.142c.015 2.483-1.977 4.491-4.421 4.491z" fill="#0079C8"/><path d="M359.178 12.57c0-2.483 1.977-4.491 4.421-4.491h15.892c2.444 0 4.421 2.008 4.421 4.491 0 2.483-1.977 4.491-4.421 4.491h-15.892c-2.429 0-4.421-2.008-4.421-4.491zM219.356 297.811h-72.498c-5.267 0-9.523-4.338-9.523-9.673V169.814h91.559v118.324c-.015 5.335-4.271 9.673-9.538 9.673z" fill="#0079C8"/><path d="M230.222 183.979h-94.245c-2.943 0-5.327-2.422-5.327-5.411v-26.504c0-2.989 2.384-5.411 5.327-5.411h94.245c2.943 0 5.327 2.422 5.327 5.411v26.504c0 2.989-2.384 5.411-5.327 5.411z" fill="#E7EDF4"/><path d="M228.879 206.451H137.32v41.526h91.559v-41.526z" fill="#B3D59C"/><path d="M139.221 152.752c-.905 0-1.645.752-1.645 1.671v29.554h3.305v-29.554c0-.919-.739-1.671-1.66-1.671zM151.792 152.753c-.905 0-1.644.751-1.644 1.671v29.554h3.305v-29.554c0-.92-.74-1.671-1.661-1.671zM164.363 152.753c-.905 0-1.645.751-1.645 1.671v29.554h3.305v-29.554c0-.92-.739-1.671-1.66-1.671zM176.935 152.753c-.906 0-1.645.751-1.645 1.671v29.554h3.305v-29.554c0-.92-.74-1.671-1.66-1.671zM189.521 152.753c-.906 0-1.645.751-1.645 1.671v29.554h3.305v-29.554c-.015-.92-.755-1.671-1.66-1.671zM202.092 152.753c-.906 0-1.645.751-1.645 1.671v29.554h3.305v-29.554c-.015-.92-.755-1.671-1.66-1.671zM214.663 152.753c-.905 0-1.645.751-1.645 1.671v29.554h3.305v-29.554c-.015-.92-.755-1.671-1.66-1.671zM227.234 152.753c-.906 0-1.645.751-1.645 1.671v29.554h3.305v-29.554c-.015-.92-.755-1.671-1.66-1.671z" fill="#fff"/><path opacity=".3" d="M166.023 183.978h-15.876V297.81h15.876V183.978z" fill="#fff"/><path d="M230.222 146.652h-22.245c2.943 0 5.327 2.422 5.327 5.411v26.504c0 2.989-2.384 5.411-5.327 5.411h-1.343v104.16c0 5.35-4.271 9.673-9.523 9.673h22.26c5.267 0 9.523-4.338 9.523-9.673v-104.16h1.343c2.943 0 5.327-2.422 5.327-5.411v-26.504c-.015-2.989-2.399-5.411-5.342-5.411z" fill="url(#paint5_linear)"/><path d="M449.439 159.222V143.28h-80.452v15.942c0 3.833-3.048 6.929-6.821 6.929-3.773 0-6.822 3.097-6.822 6.929v122.095c0 6.683 5.343 12.11 11.923 12.11h83.907c6.58 0 11.922-5.427 11.922-12.11V173.08c0-3.832-3.048-6.929-6.821-6.929-3.788.015-6.836-3.096-6.836-6.929z" fill="#0079C8"/><path d="M450.918 195.507h-83.425v59.583h83.425v-59.583z" fill="#E7EDF4"/><path opacity=".3" d="M379.958 295.19V173.095c0-3.832 3.049-6.929 6.822-6.929 3.772 0 6.821-3.096 6.821-6.929v-15.942h-12.466v15.942c0 3.833-3.048 6.929-6.821 6.929-3.773 0-6.821 3.097-6.821 6.929V295.19c0 6.683 5.342 12.11 11.922 12.11h12.465c-6.579 0-11.922-5.427-11.922-12.11z" fill="#fff"/><path d="M449.439 159.222V143.28h-80.452v15.942c0 3.833-3.049 6.929-6.821 6.929h94.109c-3.788.015-6.836-3.096-6.836-6.929z" fill="url(#paint6_linear)"/><path d="M455.627 152.57h-92.842c-3.32 0-6.007-2.729-6.007-6.101v-6.776c0-3.372 2.687-6.101 6.007-6.101h92.842c3.32 0 6.006 2.729 6.006 6.101v6.776c0 3.372-2.686 6.101-6.006 6.101z" fill="#B3D59C"/><path d="M456.26 166.165c-3.773 0-6.821-3.096-6.821-6.929v-6.652h6.187c3.321 0 6.007-2.729 6.007-6.101v-6.776c0-3.372-2.686-6.101-6.007-6.101h-28.658c3.32 0 6.006 2.729 6.006 6.101v6.776c0 3.372-2.686 6.101-6.006 6.101h-6.187v6.652c0 3.833 3.048 6.929 6.821 6.929 3.773 0 6.821 3.097 6.821 6.929v122.095c0 6.683-5.342 12.11-11.922 12.11h28.658c6.58 0 11.923-5.427 11.923-12.11V173.094c0-3.832-3.049-6.929-6.822-6.929z" fill="url(#paint7_linear)"/><path d="M186.14 278.511h-6.232v1.487c-4.709 2.345-7.938 7.235-7.938 12.922 0 5.672 3.244 10.577 7.938 12.923v1.487h6.232c7.833 0 14.171-6.454 14.171-14.394 0-7.987-6.338-14.425-14.171-14.425z" fill="#D1DDE8"/><path d="M179.908 307.299c7.826 0 14.17-6.444 14.17-14.393 0-7.95-6.344-14.394-14.17-14.394-7.827 0-14.171 6.444-14.171 14.394 0 7.949 6.344 14.393 14.171 14.393z" fill="#fff"/><path d="M176.724 306.931a13.76 13.76 0 0 0 3.199.383c1.102 0 2.158-.138 3.184-.383v-28.037a13.73 13.73 0 0 0-3.184-.383c-1.102 0-2.158.138-3.199.383v28.037z" fill="#E7EDF4"/><path d="M139.569 278.511h-6.233v1.487c-4.708 2.345-7.938 7.235-7.938 12.922 0 5.672 3.245 10.577 7.938 12.923v1.487h6.233c7.832 0 14.171-6.454 14.171-14.394 0-7.987-6.339-14.425-14.171-14.425z" fill="#D1DDE8"/><path d="M133.336 307.299c7.826 0 14.171-6.444 14.171-14.393 0-7.95-6.345-14.394-14.171-14.394s-14.171 6.444-14.171 14.394c0 7.949 6.345 14.393 14.171 14.393z" fill="#fff"/><path d="M130.137 306.931a13.76 13.76 0 0 0 3.199.383c1.102 0 2.158-.138 3.199-.383v-28.037a13.76 13.76 0 0 0-3.199-.383c-1.102 0-2.158.138-3.199.383v28.037z" fill="#E7EDF4"/><path d="M86.01 283.922H51.027c-6.354 0-11.515 5.228-11.515 11.696 0 6.454 5.146 11.696 11.515 11.696h34.981c6.354 0 11.515-5.227 11.515-11.696 0-6.468-5.161-11.696-11.515-11.696z" fill="#fff"/><path d="M86.01 283.922H68.519v23.377h17.49c6.354 0 11.515-5.227 11.515-11.696 0-6.453-5.161-11.681-11.514-11.681z" fill="#0079C8"/><path d="M91.14 298.316H45.911c-2.354 0-4.527-.721-6.353-1.947.392 6.101 5.372 10.93 11.47 10.93h34.981c6.097 0 11.077-4.829 11.47-10.93a11.29 11.29 0 0 1-6.339 1.947z" fill="url(#paint8_linear)"/><path d="M33.567 265.666L4.909 286.038c-5.207 3.709-6.475 10.991-2.823 16.279 3.653 5.289 10.821 6.576 16.027 2.867l28.659-20.372c5.206-3.71 6.474-10.991 2.822-16.28-3.637-5.288-10.82-6.576-16.027-2.866z" fill="#E7EDF4"/><path d="M33.567 265.664l-14.322 10.194 13.205 19.161 14.322-10.193c5.206-3.71 6.474-10.991 2.822-16.28-3.637-5.304-10.82-6.591-16.027-2.882z" fill="#0079C8"/><path d="M45.897 274.48l-37.05 26.335a11.266 11.266 0 0 1-6.308 2.1c3.758 4.768 10.564 5.825 15.574 2.269l28.659-20.372c4.995-3.557 6.353-10.409 3.23-15.636a11.727 11.727 0 0 1-4.105 5.304z" fill="url(#paint9_linear)"/><defs><linearGradient id="paint0_linear" x1="260.647" y1="405.531" x2="260.647" y2="159.383" gradientUnits="userSpaceOnUse"><stop offset=".002" stop-color="#0079C8" stop-opacity=".1"/><stop offset="1" stop-color="#235196" stop-opacity="0"/></linearGradient><linearGradient id="paint1_linear" x1="-10.596" y1="164.046" x2="208.535" y2="258.353" gradientUnits="userSpaceOnUse"><stop offset=".002" stop-color="#fff" stop-opacity="0"/><stop offset="1" stop-color="#235196"/></linearGradient><linearGradient id="paint2_linear" x1="33.76" y1="99.979" x2="122.836" y2="146.915" gradientUnits="userSpaceOnUse"><stop offset=".002" stop-color="#fff" stop-opacity="0"/><stop offset="1" stop-color="#235196"/></linearGradient><linearGradient id="paint3_linear" x1="32.366" y1="71.609" x2="161.89" y2="123.354" gradientUnits="userSpaceOnUse"><stop offset=".002" stop-color="#fff" stop-opacity="0"/><stop offset="1" stop-color="#235196"/></linearGradient><linearGradient id="paint4_linear" x1="26.311" y1="86.767" x2="155.835" y2="138.513" gradientUnits="userSpaceOnUse"><stop offset=".002" stop-color="#fff" stop-opacity="0"/><stop offset="1" stop-color="#235196"/></linearGradient><linearGradient id="paint5_linear" x1="143.446" y1="178.017" x2="284.81" y2="263.377" gradientUnits="userSpaceOnUse"><stop offset=".002" stop-color="#fff" stop-opacity="0"/><stop offset="1" stop-color="#235196"/></linearGradient><linearGradient id="paint6_linear" x1="357.905" y1="195.67" x2="453.637" y2="126.224" gradientUnits="userSpaceOnUse"><stop offset=".002" stop-color="#fff" stop-opacity="0"/><stop offset="1" stop-color="#235196"/></linearGradient><linearGradient id="paint7_linear" x1="331.369" y1="178.124" x2="521.515" y2="250.171" gradientUnits="userSpaceOnUse"><stop offset=".002" stop-color="#fff" stop-opacity="0"/><stop offset="1" stop-color="#235196"/></linearGradient><linearGradient id="paint8_linear" x1="50.902" y1="267.887" x2="87.712" y2="328.129" gradientUnits="userSpaceOnUse"><stop offset=".002" stop-color="#fff" stop-opacity="0"/><stop offset="1" stop-color="#235196"/></linearGradient><linearGradient id="paint9_linear" x1="-4.254" y1="272.977" x2="59.85" y2="301.043" gradientUnits="userSpaceOnUse"><stop offset=".002" stop-color="#fff" stop-opacity="0"/><stop offset="1" stop-color="#235196"/></linearGradient></defs></svg>