<svg width="32" height="22" fill="none" xmlns="http://www.w3.org/2000/svg"><path d="M31.349 4.043a3.75 3.75 0 0 0-1.032-1.692 4.063 4.063 0 0 0-1.785-.98C26.028.718 16.012.708 16.012.708S5.995.699 3.49 1.32a4.147 4.147 0 0 0-1.783.996 3.833 3.833 0 0 0-1.04 1.696C.007 6.382 0 11.298 0 11.298s-.006 4.94.65 7.286c.367 1.297 1.446 2.322 2.818 2.672 2.53.65 12.52.661 12.52.661s10.016.01 12.52-.61a4.08 4.08 0 0 0 1.787-.979 3.766 3.766 0 0 0 1.038-1.69c.662-2.368.667-7.283.667-7.283s.032-4.941-.651-7.312zm-18.542 11.81l.008-9.082 8.325 4.548-8.333 4.533z" fill="#0079C8"/></svg>