<svg width="488" height="337" viewBox="0 0 488 337" fill="none" xmlns="http://www.w3.org/2000/svg">
<path opacity="0.5" d="M321.102 278.782C331.715 268.348 365.636 230.788 334.837 198.444C298.835 160.675 275.319 179.664 269.493 158.171C263.458 136.678 211.016 121.654 192.495 154.624C173.974 187.802 189.789 209.086 166.898 218.685C144.007 228.284 138.596 203.035 117.578 232.457C96.5595 261.879 114.664 281.703 114.664 281.703H120.699C54.1066 286.502 9.98891 294.64 9.98891 304.031C9.98891 311.751 72.2115 323.019 63.4712 323.019C28.51 323.019 0 326.149 0 329.906C0 333.662 28.51 336.792 63.4712 336.792C98.4324 336.792 126.942 333.662 126.942 329.906C126.942 328.445 122.364 326.984 114.872 325.732C153.163 328.653 199.362 330.323 249.098 330.323C381.035 330.323 488 318.429 488 303.822C488 292.136 417.87 282.12 321.102 278.782Z" fill="#DEFCD7"/>
<path opacity="0.5" d="M421.615 292.137C424.113 290.468 427.026 288.798 430.148 287.129C430.356 286.92 430.564 286.92 430.772 286.712C402.054 282.955 364.179 280.243 321.102 278.573C331.715 268.14 365.636 230.58 334.837 198.236C324.015 186.759 314.235 180.499 305.702 176.743C307.159 183.838 309.24 190.307 311.529 196.149C326.096 233.71 293.632 225.154 284.06 250.195C277.401 267.097 279.898 280.66 287.598 291.928H421.615V292.137Z" fill="#8FCE82"/>
<path d="M427.858 292.137H293.84C286.14 281.077 283.851 267.514 290.302 250.403C300.083 225.363 332.339 233.918 317.772 196.358C303.205 158.797 298.835 88.2673 365.636 87.8499C415.372 87.6412 428.066 128.54 431.188 174.447C434.309 220.355 449.917 212.008 460.322 229.745C470.727 247.481 469.687 269.392 436.39 287.129C433.269 289.007 430.355 290.467 427.858 292.137Z" fill="#A7D59D"/>
<path d="M371.463 292.137V157.754" stroke="#723D39" stroke-width="1.5" stroke-miterlimit="10" stroke-linecap="round"/>
<path d="M386.862 171.526L371.463 195.106" stroke="#723D39" stroke-width="1.5" stroke-miterlimit="10" stroke-linecap="round"/>
<path d="M349.404 183.42L371.463 223.902" stroke="#723D39" stroke-width="1.5" stroke-miterlimit="10" stroke-linecap="round"/>
<path d="M386.862 229.327L371.463 249.985" stroke="#723D39" stroke-width="1.5" stroke-miterlimit="10" stroke-linecap="round"/>
<path d="M155.66 269.809L202.691 249.359" stroke="#2E2044" stroke-width="1.525" stroke-miterlimit="10" stroke-linecap="round" stroke-linejoin="round"/>
<path d="M155.66 272.522C165.315 272.522 173.141 271.307 173.141 269.809C173.141 268.311 165.315 267.096 155.66 267.096C146.006 267.096 138.18 268.311 138.18 269.809C138.18 271.307 146.006 272.522 155.66 272.522Z" fill="#942151"/>
<path d="M161.071 236.63L146.504 249.359L156.285 254.785L167.522 245.812C167.522 245.812 162.528 240.595 161.071 236.63Z" fill="#DE8370"/>
<path d="M146.504 249.359L140.261 253.324C140.261 253.324 149.001 261.462 155.244 266.888C158.366 269.392 164.193 267.931 165.025 267.931C166.066 267.931 165.233 262.923 160.031 263.758C158.366 259.375 156.285 254.993 156.285 254.993C156.285 254.993 149.625 251.029 146.504 249.359Z" fill="#2E2044"/>
<path d="M159.615 186.759C159.615 186.759 181.465 208.46 187.084 212.217C174.39 221.607 155.244 239.761 155.244 239.761L166.69 253.742C166.69 253.742 212.889 222.024 215.178 215.764C217.675 209.504 203.108 191.35 203.108 191.35C203.108 191.35 165.233 181.125 159.615 186.759Z" fill="#65915B"/>
<path d="M263.041 146.695L306.743 254.576L111.959 258.959L159.614 183.42V257.915" stroke="#2E2044" stroke-width="2" stroke-miterlimit="10" stroke-linecap="round" stroke-linejoin="round"/>
<path d="M159.614 204.704L271.157 166.518" stroke="#2E2044" stroke-width="2" stroke-miterlimit="10" stroke-linecap="round" stroke-linejoin="round"/>
<path d="M148.169 176.743C148.169 176.743 138.804 175.908 137.764 177.369C136.723 178.829 136.099 185.716 140.053 186.55C144.007 187.176 173.141 185.09 173.141 185.09C173.141 185.09 152.955 176.743 148.169 176.743Z" fill="#C6007E"/>
<path d="M244.52 138.556C244.52 138.556 256.798 135.635 260.336 137.096C263.874 138.556 266.995 145.025 260.336 148.572C260.336 144.816 252.428 145.442 252.012 148.572C251.596 151.702 251.596 151.702 251.596 151.702L244.312 148.572L244.52 138.556Z" fill="#DE8370"/>
<path d="M262.209 149.825C262.209 152.746 259.711 155.25 256.798 155.25C253.885 155.25 251.387 152.746 251.387 149.825C251.387 146.903 253.885 144.399 256.798 144.399C259.711 144.399 262.209 146.903 262.209 149.825Z" fill="#942151"/>
<path d="M170.019 258.958C170.019 291.093 144.007 317.177 111.959 317.177C79.9112 317.177 53.8984 291.093 53.8984 258.958C53.8984 226.823 79.9112 200.74 111.959 200.74C144.007 200.74 170.019 226.823 170.019 258.958Z" stroke="#942151" stroke-width="2" stroke-miterlimit="10" stroke-linecap="round" stroke-linejoin="round"/>
<path d="M111.959 309.873C140.002 309.873 162.736 287.078 162.736 258.958C162.736 230.838 140.002 208.043 111.959 208.043C83.9156 208.043 61.1819 230.838 61.1819 258.958C61.1819 287.078 83.9156 309.873 111.959 309.873Z" stroke="#2E2044" stroke-width="1.525" stroke-miterlimit="10" stroke-linecap="round" stroke-linejoin="round"/>
<path d="M111.959 263.966C114.717 263.966 116.953 261.724 116.953 258.958C116.953 256.192 114.717 253.95 111.959 253.95C109.201 253.95 106.964 256.192 106.964 258.958C106.964 261.724 109.201 263.966 111.959 263.966Z" fill="#2E2044"/>
<path d="M364.803 253.95C364.803 286.085 338.791 312.169 306.743 312.169C274.695 312.169 248.682 286.085 248.682 253.95C248.682 221.816 274.695 195.732 306.743 195.732C338.791 195.732 364.803 221.607 364.803 253.95Z" stroke="#942151" stroke-width="2" stroke-miterlimit="10" stroke-linecap="round" stroke-linejoin="round"/>
<path d="M306.743 304.865C334.786 304.865 357.52 282.07 357.52 253.95C357.52 225.831 334.786 203.035 306.743 203.035C278.699 203.035 255.966 225.831 255.966 253.95C255.966 282.07 278.699 304.865 306.743 304.865Z" stroke="#2E2044" stroke-width="1.525" stroke-miterlimit="10" stroke-linecap="round" stroke-linejoin="round"/>
<path d="M306.743 258.958C309.501 258.958 311.737 256.716 311.737 253.95C311.737 251.185 309.501 248.942 306.743 248.942C303.984 248.942 301.748 251.185 301.748 253.95C301.748 256.716 303.984 258.958 306.743 258.958Z" fill="#2E2044"/>
<path d="M221.212 251.029C221.212 262.923 211.64 272.521 199.778 272.521C187.916 272.521 178.343 262.923 178.343 251.029C178.343 239.134 187.916 229.536 199.778 229.536C211.432 229.536 221.212 239.134 221.212 251.029Z" fill="#942151"/>
<path d="M221.213 286.711L199.57 251.029" stroke="#2E2044" stroke-width="1.525" stroke-miterlimit="10" stroke-linecap="round" stroke-linejoin="round"/>
<path d="M187.084 158.589C187.084 158.589 243.271 173.196 246.393 186.133C249.514 199.071 229.328 261.671 229.328 261.671C229.328 261.671 217.883 265.427 208.518 258.541C211.64 238.092 214.761 198.027 214.761 198.027C214.761 198.027 148.377 191.141 148.169 176.743C152.122 168.605 176.887 155.668 187.084 158.589Z" fill="#8ACE7B"/>
<path d="M178.76 130.418C178.76 130.418 184.587 154.415 187.084 158.588C180.425 163.805 171.476 161.719 162.528 169.022C153.579 176.325 143.59 178.621 143.59 178.621C143.59 178.621 135.891 179.038 144.007 155.041C152.123 131.044 170.019 118.941 170.019 118.941L178.76 130.418Z" fill="#942151"/>
<path d="M155.036 26.2926C155.036 26.2926 139.428 46.9508 163.36 52.5849C165.857 49.8722 170.227 45.2815 171.268 45.6988C172.308 46.1162 187.916 39.4388 187.916 39.4388H189.581C189.581 39.4388 197.697 42.9861 196.656 34.848C195.616 26.71 188.748 20.8672 176.262 17.5285C182.089 11.6858 183.962 -2.921 165.233 0.417702C159.406 -1.04298 154.828 7.30377 154.828 7.30377C154.828 7.30377 153.163 5.84309 149.001 7.72111C144.839 9.59913 136.931 25.2493 155.036 26.2926Z" fill="#942151"/>
<path d="M189.165 33.3872C189.165 33.3872 193.327 60.9315 173.558 56.3408C171.476 66.3569 173.558 68.4436 173.558 68.4436L161.071 64.6875L163.569 50.9154C163.569 50.9154 156.493 46.116 161.071 40.2733C165.65 34.2219 170.436 41.9426 170.436 41.9426C170.436 41.9426 181.257 43.8206 189.165 33.3872Z" fill="#DE8370"/>
<path d="M199.362 123.741C199.362 123.741 183.338 67.4005 166.066 64.2704C148.793 61.1404 133.394 123.324 98.6406 133.131C63.8875 142.939 62.6389 152.329 70.5468 164.849C78.4547 177.369 140.677 200.322 170.228 128.958C177.719 142.521 180.841 145.651 185.627 148.155C190.414 150.659 238.069 164.849 238.069 164.849C238.069 164.849 246.809 152.746 244.312 136.678C235.364 134.174 199.362 123.741 199.362 123.741Z" fill="#00335B"/>
<path opacity="0.3" d="M170.02 128.958C170.02 128.958 162.944 111.221 161.071 97.0312C160.447 104.961 161.071 111.012 161.071 111.012L157.325 105.169C157.325 105.169 160.863 118.941 169.395 130.418C169.603 128.123 170.02 128.958 170.02 128.958Z" fill="#8B6562"/>
<path opacity="0.3" d="M199.362 123.741L191.038 130.21L201.859 124.367L199.362 123.741Z" fill="#8B6562"/>
<path opacity="0.3" d="M214.554 198.236L221.213 191.559L217.883 196.775C217.883 196.775 222.462 195.106 224.334 194.897C221.005 196.984 214.554 199.905 214.554 199.905V198.236Z" fill="#8B6562"/>
<path d="M99.6809 103.5L92.3973 107.465L93.6459 109.551L99.6809 103.5Z" fill="#8D3646"/>
<path d="M163.776 109.342C163.776 109.342 156.077 119.567 144.839 124.575C142.342 122.28 140.469 121.236 140.469 121.236C145.671 105.795 152.539 73.4513 156.493 68.2346C156.493 68.2346 127.15 63.4352 120.283 68.2346C116.329 70.9473 110.502 85.3455 106.34 99.1176C106.34 99.1176 100.721 98.7003 99.2647 100.996C97.1836 104.126 94.0621 122.697 94.6864 123.74C96.5593 127.079 102.178 124.993 102.178 124.993C105.092 134.8 131.729 132.922 136.723 129.583C136.723 129.583 152.955 128.123 165.649 115.811C163.776 109.342 163.776 109.342 163.776 109.342Z" fill="#942151"/>
<path d="M106.34 99.1177C106.34 99.1177 101.138 119.985 102.178 124.784C100.721 125.201 100.721 125.201 100.721 125.201C100.721 125.201 102.178 105.378 104.259 99.1177C106.34 99.1177 106.34 99.1177 106.34 99.1177Z" fill="#211833"/>
<path d="M146.92 99.1178C146.088 98.4918 107.797 94.7358 107.589 95.7791C107.173 97.0312 107.173 97.0312 107.173 97.0312C107.173 97.0312 144.631 100.37 146.296 101.413C146.92 99.1178 146.92 99.1178 146.92 99.1178Z" fill="#211833"/>
<path d="M136.931 66.1484L126.942 97.6574L130.064 98.4921L139.22 66.3571L136.931 66.1484Z" fill="#211833"/>
<path d="M132.977 97.4484V94.3184L141.926 95.779L141.718 98.4917L132.977 97.4484Z" fill="white"/>
<path opacity="0.6" d="M173.557 56.341C173.557 56.341 169.812 55.089 167.522 52.585C168.355 55.5063 173.141 58.6364 173.141 58.6364L173.557 56.341Z" fill="#DE8370"/>
<path d="M212.056 260.836L210.392 278.782L221.213 276.695L224.126 262.714C224.334 262.714 215.802 263.131 212.056 260.836Z" fill="#DE8370"/>
<path d="M210.391 278.782L208.102 285.876C208.102 285.876 234.115 287.754 235.988 286.085C237.861 284.416 221.421 276.695 221.421 276.695C221.421 276.695 213.929 278.156 210.391 278.782Z" fill="#2E2044"/>
<path d="M221.837 289.424C231.491 289.424 239.317 288.209 239.317 286.711C239.317 285.213 231.491 283.999 221.837 283.999C212.182 283.999 204.356 285.213 204.356 286.711C204.356 288.209 212.182 289.424 221.837 289.424Z" fill="#942151"/>
</svg>
