<svg width="41" height="41" viewBox="0 0 41 41" fill="none" xmlns="http://www.w3.org/2000/svg">
<path d="M10.9333 34.9259C11.6881 34.9259 12.3 34.2461 12.3 33.4074C12.3 32.5688 11.6881 31.8889 10.9333 31.8889C10.1785 31.8889 9.56667 32.5688 9.56667 33.4074C9.56667 34.2461 10.1785 34.9259 10.9333 34.9259Z" fill="#00335B"/>
<path d="M30.0667 34.9259C30.8215 34.9259 31.4333 34.2461 31.4333 33.4074C31.4333 32.5688 30.8215 31.8889 30.0667 31.8889C29.3119 31.8889 28.7 32.5688 28.7 33.4074C28.7 34.2461 29.3119 34.9259 30.0667 34.9259Z" fill="#00335B"/>
<path d="M36.2167 4.55556H30.75V0.759259C30.75 0.339958 30.444 0 30.0667 0C29.6893 0 29.3833 0.339958 29.3833 0.759259V4.55556H11.6167V0.759259C11.6167 0.339958 11.3107 0 10.9333 0C10.556 0 10.25 0.339958 10.25 0.759259V4.55556H4.78333C2.14285 4.55888 0.00298958 6.9365 0 9.87037V35.6852C0.00298958 38.6191 2.14285 40.9967 4.78333 41H36.2167C38.8572 40.9967 40.997 38.6191 41 35.6852V9.87037C40.997 6.9365 38.8572 4.55888 36.2167 4.55556ZM39.6333 35.6852C39.6311 37.7807 38.1027 39.479 36.2167 39.4815H4.78333C2.89733 39.479 1.36889 37.7807 1.36667 35.6852V16.7037H39.6333V35.6852ZM39.6333 15.1852H1.36667V9.87037C1.36889 7.77481 2.89733 6.07654 4.78333 6.07407H10.25V9.87037C10.25 10.2897 10.556 10.6296 10.9333 10.6296C11.3107 10.6296 11.6167 10.2897 11.6167 9.87037V6.07407H29.3833V9.87037C29.3833 10.2897 29.6893 10.6296 30.0667 10.6296C30.444 10.6296 30.75 10.2897 30.75 9.87037V6.07407H36.2167C38.1027 6.07654 39.6311 7.77481 39.6333 9.87037V15.1852Z" fill="#00335B"/>
<path d="M10.9333 24.2963C11.6881 24.2963 12.3 23.6164 12.3 22.7778C12.3 21.9391 11.6881 21.2593 10.9333 21.2593C10.1785 21.2593 9.56667 21.9391 9.56667 22.7778C9.56667 23.6164 10.1785 24.2963 10.9333 24.2963Z" fill="#00335B"/>
<path d="M30.0667 24.2963C30.8215 24.2963 31.4333 23.6164 31.4333 22.7778C31.4333 21.9391 30.8215 21.2593 30.0667 21.2593C29.3119 21.2593 28.7 21.9391 28.7 22.7778C28.7 23.6164 29.3119 24.2963 30.0667 24.2963Z" fill="#00335B"/>
<path d="M20.5 24.2963C21.2548 24.2963 21.8667 23.6164 21.8667 22.7778C21.8667 21.9391 21.2548 21.2593 20.5 21.2593C19.7452 21.2593 19.1333 21.9391 19.1333 22.7778C19.1333 23.6164 19.7452 24.2963 20.5 24.2963Z" fill="#00335B"/>
<path d="M20.5 34.9259C21.2548 34.9259 21.8667 34.2461 21.8667 33.4074C21.8667 32.5688 21.2548 31.8889 20.5 31.8889C19.7452 31.8889 19.1333 32.5688 19.1333 33.4074C19.1333 34.2461 19.7452 34.9259 20.5 34.9259Z" fill="#00335B"/>
</svg>
