<svg width="31" height="40" viewBox="0 0 31 40" fill="none" xmlns="http://www.w3.org/2000/svg">
<path fill-rule="evenodd" clip-rule="evenodd" d="M30.0132 16.2821C30.4335 15.5925 30.4335 14.7359 30.013 14.0464L29.1837 12.6865C29.0745 12.5073 29.0322 12.2945 29.0649 12.0873L29.3121 10.5167C29.4381 9.71635 29.1093 8.92315 28.4541 8.44651L27.1689 7.51166C26.9989 7.38799 26.8782 7.2076 26.8287 7.00338L26.4544 5.45658C26.2644 4.67088 25.6582 4.06478 24.8726 3.87463L23.3257 3.50025C23.1215 3.4508 22.941 3.33002 22.8175 3.16009L21.8825 1.87454C21.4059 1.21939 20.6126 0.890402 19.8124 1.0165L18.2414 1.26368C18.0342 1.29626 17.8213 1.25407 17.6422 1.14486L16.2821 0.315323C15.5925 -0.105147 14.736 -0.105069 14.0464 0.315323L12.6864 1.14462C12.5074 1.25392 12.2946 1.29595 12.0872 1.26345L10.5166 1.01626C9.71641 0.890324 8.92305 1.21915 8.44649 1.87431L7.51164 3.15955C7.38797 3.32947 7.2075 3.45025 7.00321 3.4997L5.45641 3.874C4.67086 4.064 4.06461 4.67017 3.87445 5.4558L3.50007 7.00268C3.45062 7.2069 3.32992 7.38744 3.15992 7.51096L1.87437 8.44596C1.21921 8.92245 0.89046 9.71557 1.01632 10.516L1.26351 12.0871C1.29609 12.2944 1.2539 12.5072 1.14468 12.6863L0.315225 14.0465C-0.105088 14.7361 -0.105088 15.5926 0.315303 16.2821L1.1446 17.6421C1.25382 17.8213 1.29609 18.0341 1.26343 18.2413L1.01624 19.8119C0.890226 20.6122 1.21906 21.4055 1.87421 21.8821L3.15945 22.8169C3.32937 22.9404 3.45015 23.121 3.49961 23.3252L3.8739 24.872C4.0639 25.6577 4.67008 26.2638 5.4557 26.454L6.10164 26.6103L1.73023 36.3614C1.63734 36.5687 1.66304 36.8098 1.79765 36.9927C1.93218 37.1757 2.1546 37.2722 2.38023 37.2452L5.89758 36.8246L7.92383 39.7302C8.04243 39.9001 8.23594 39.9999 8.44071 39.9999C8.46032 39.9999 8.48016 39.999 8.49985 39.9972C8.72594 39.9759 8.92321 39.8346 9.0161 39.6275L13.4806 29.6682L14.0463 30.0131C14.391 30.2233 14.7775 30.3284 15.1641 30.3284C15.5506 30.3284 15.9371 30.2233 16.2819 30.0131L16.868 29.6558L21.3381 39.6275C21.431 39.8348 21.6282 39.9759 21.8543 39.9972C21.8741 39.9991 21.8939 40 21.9135 40C22.1182 40 22.3118 39.9002 22.4303 39.7302L24.4566 36.8247L27.9739 37.2452C28.1994 37.272 28.422 37.1758 28.5565 36.9928C28.6911 36.8098 28.7169 36.5687 28.6239 36.3615L24.2503 26.605L24.8719 26.4546C25.6575 26.2646 26.2637 25.6584 26.4539 24.8728L26.8282 23.3259C26.8777 23.1217 26.9985 22.9411 27.1684 22.8176L28.4539 21.8826C29.1091 21.4061 29.4379 20.613 29.312 19.8126L29.0648 18.2414C29.0322 18.0342 29.0744 17.8214 29.1836 17.6423L30.0132 16.2821ZM8.3211 38.0959L6.71531 35.7933C6.58219 35.6023 6.35453 35.5001 6.12344 35.528L3.33601 35.8612L7.31875 26.9766C7.39157 27.0301 7.45688 27.0943 7.51071 27.1684L8.44571 28.454C8.53454 28.5761 8.63438 28.6868 8.74321 28.7854L6.64688 33.4617C6.50453 33.7794 6.64656 34.1523 6.96422 34.2948C7.04797 34.3323 7.13555 34.3501 7.22164 34.3501C7.46243 34.3501 7.69243 34.2113 7.79719 33.9774L9.8861 29.3177C10.0916 29.3459 10.3033 29.3454 10.5157 29.312L12.0868 29.0648C12.1809 29.0501 12.2759 29.0514 12.3685 29.0667L8.3211 38.0959ZM27.0183 35.8611L24.2308 35.528C23.9995 35.5002 23.7721 35.6023 23.6389 35.7933L22.0332 38.0959L17.984 29.0632C18.0689 29.0516 18.1556 29.0516 18.2413 29.0651L19.8118 29.3122C20.0328 29.347 20.2531 29.3459 20.4664 29.3141L22.5569 33.9776C22.6618 34.2116 22.8917 34.3502 23.1325 34.3502C23.2186 34.3502 23.3062 34.3325 23.3899 34.2949C23.7075 34.1526 23.8496 33.7795 23.7072 33.4619L21.6029 28.7677C21.7044 28.6735 21.7982 28.5692 21.8819 28.4542L22.8167 27.169C22.8757 27.0879 22.9478 27.0185 23.0289 26.9623L27.0183 35.8611ZM28.9367 15.6257L28.1072 16.9859C27.8428 17.4198 27.7404 17.9353 27.8194 18.4373L28.0666 20.0084C28.1186 20.3388 27.9828 20.6662 27.7124 20.8629L26.4268 21.798C26.0153 22.0974 25.7226 22.5347 25.6029 23.0293L25.2285 24.5761C25.15 24.9004 24.8999 25.1507 24.5755 25.2292L23.0286 25.6035C22.5339 25.7232 22.0966 26.0158 21.7972 26.4274L20.8624 27.7126C20.6657 27.9832 20.3383 28.1188 20.0078 28.0668L18.4371 27.8196C17.935 27.7406 17.4195 27.8428 16.9855 28.1074L15.6256 28.9367C15.341 29.1101 14.9872 29.1101 14.7028 28.9367L13.3425 28.1073C13.0042 27.901 12.6164 27.7935 12.224 27.7935C12.1131 27.7935 12.0016 27.8021 11.891 27.8195L10.3199 28.0667C9.98938 28.1187 9.66204 27.9829 9.46532 27.7125L8.53024 26.4269C8.23086 26.0154 7.7936 25.7228 7.29899 25.6031L5.75211 25.2287C5.42781 25.1502 5.17758 24.9001 5.09906 24.5757L4.72476 23.0289C4.60508 22.5342 4.3125 22.0968 3.90086 21.7974L2.6157 20.8625C2.34523 20.6657 2.20953 20.3382 2.26156 20.0079L2.50874 18.4372C2.58773 17.9351 2.48554 17.4196 2.22093 16.9857L1.39163 15.6256C1.21812 15.341 1.21812 14.9873 1.39163 14.7028L2.22109 13.3425C2.48562 12.9086 2.58789 12.3932 2.5089 11.8911L2.26171 10.32C2.20976 9.98964 2.34554 9.66221 2.61593 9.46549L3.90156 8.53041C4.31304 8.23104 4.6057 7.79377 4.72539 7.29916L5.09976 5.75229C5.17828 5.42799 5.42844 5.17775 5.75281 5.09924L7.29969 4.72494C7.79438 4.60525 8.23172 4.3126 8.53102 3.90103L9.46587 2.6158C9.66259 2.34533 9.98993 2.20947 10.3205 2.26158L11.8911 2.50876C12.3933 2.5879 12.9088 2.48556 13.3427 2.22095L14.7027 1.39165C14.9873 1.21821 15.341 1.21821 15.6255 1.39165L16.9857 2.22103C17.4196 2.48572 17.9353 2.58798 18.4372 2.50892L20.0084 2.26173C20.3387 2.20994 20.6662 2.34556 20.8629 2.61595L21.798 3.9015C22.0974 4.31299 22.5346 4.60564 23.0292 4.72533L24.5761 5.09971C24.9004 5.17822 25.1507 5.42838 25.2292 5.75275L25.6035 7.29955C25.7232 7.79424 26.0157 8.23166 26.4274 8.53104L27.7126 9.46589C27.9831 9.6626 28.1188 9.99011 28.0668 10.3205L27.8196 11.8911C27.7406 12.3932 27.8428 12.9087 28.1074 13.3427L28.9367 14.7028C29.1103 14.9874 29.1103 15.3411 28.9367 15.6257ZM20.2701 4.98417C15.8703 2.76088 10.5702 3.61096 7.08179 7.09941C3.02749 11.1536 2.6217 17.6182 6.13796 22.1365C6.26226 22.2962 6.44804 22.3797 6.63585 22.3797C6.77117 22.3797 6.90749 22.3364 7.02257 22.2468C7.29734 22.0329 7.34671 21.6369 7.13296 21.3622C4.00647 17.3448 4.3678 11.5964 7.97336 7.99081C11.0757 4.88831 15.7888 4.13221 19.7017 6.10933C20.0123 6.26651 20.3915 6.14167 20.5485 5.83097C20.7055 5.52026 20.581 5.14112 20.2701 4.98417ZM25.3045 10.0191C25.1475 9.70844 24.7685 9.58376 24.4575 9.74063C24.1468 9.89759 24.0221 10.2767 24.179 10.5875C26.1547 14.4997 25.3982 19.2122 22.2966 22.3138C18.691 25.9193 12.9426 26.2805 8.92524 23.1542C8.65039 22.9404 8.25445 22.9898 8.04062 23.2645C7.8268 23.5393 7.87625 23.9353 8.15102 24.1491C10.2091 25.7508 12.6709 26.5386 15.1249 26.5386C18.0583 26.5386 20.9806 25.4128 23.1882 23.2052C26.6757 19.7177 27.5262 14.4186 25.3045 10.0191ZM23.1876 7.09917C23.355 7.26652 23.5191 7.44105 23.6752 7.61777C23.9058 7.87863 23.8812 8.27699 23.6203 8.50746C23.5004 8.61339 23.3515 8.6655 23.2031 8.6655C23.0287 8.6655 22.8551 8.59355 22.7305 8.45261C22.5914 8.29519 22.4451 8.1398 22.2961 7.99058C22.1469 7.84144 21.9914 7.69519 21.834 7.55613C21.5731 7.32558 21.5486 6.92722 21.7793 6.66644C22.0097 6.40558 22.4081 6.38089 22.669 6.61151C22.8457 6.76769 23.0201 6.93175 23.1876 7.09917ZM21.5919 12.4235C22.0385 12.4765 22.4022 12.7751 22.5411 13.2027C22.68 13.6304 22.5612 14.0857 22.2311 14.3909L19.4268 16.9843L20.1711 20.7306C20.2588 21.1716 20.0872 21.6098 19.7234 21.8741C19.3596 22.1384 18.89 22.1662 18.4975 21.9465L15.1646 20.0809L11.8316 21.9465C11.6557 22.0449 11.4643 22.0937 11.2738 22.0937C11.0394 22.0937 10.8065 22.0198 10.6058 21.8741C10.242 21.6098 10.0704 21.1717 10.158 20.7306L10.9024 16.9842L8.09806 14.3908C7.76806 14.0856 7.64931 13.6302 7.78822 13.2028C7.92705 12.7751 8.2908 12.4765 8.73736 12.4236L12.5304 11.9738L14.1303 8.50537C14.3186 8.09709 14.715 7.84341 15.1646 7.84341C15.6143 7.84341 16.0107 8.09709 16.199 8.50537L17.7989 11.9737L21.5919 12.4235ZM18.1215 16.8839C18.0789 16.6689 18.1509 16.4471 18.3118 16.2983L21.1815 13.6444L17.3 13.1841C17.0822 13.1583 16.8936 13.0212 16.8018 12.8223L15.1646 9.27295L13.5275 12.8223C13.4357 13.0212 13.247 13.1583 13.0293 13.1841L9.1476 13.6444L12.0173 16.2983C12.1783 16.4471 12.2504 16.6688 12.2076 16.8839L11.4459 20.7176L14.8567 18.8084C14.9524 18.7548 15.0584 18.7281 15.1646 18.7281C15.2707 18.7281 15.3768 18.7549 15.4725 18.8084L18.8832 20.7176L18.1215 16.8839Z" fill="#00335B"/>
</svg>
