<svg width="40" height="40" viewBox="0 0 40 40" fill="none" xmlns="http://www.w3.org/2000/svg">
<path fill-rule="evenodd" clip-rule="evenodd" d="M39.11 2.72098C39.0094 2.60153 38.8654 2.52692 38.7098 2.51364L30.0045 1.77013L29.8467 0.515596C29.8061 0.192858 29.5108 -0.035887 29.1889 0.00465559L21.1133 1.01998C21.0815 1.01169 21.049 1.00543 21.0151 1.00255L9.91539 0.0544298C9.59578 0.0262926 9.30562 0.272081 9.27843 0.591066L9.11297 2.52857L0.515397 3.6095C0.197273 3.64949 -0.0354615 3.94895 0.00446036 4.2673L4.39305 39.1741C4.40007 39.2303 4.40038 39.2856 4.40068 39.3405C4.40123 39.4414 4.40178 39.5406 4.44391 39.6403C4.53516 39.856 4.75235 40 4.98664 40H33.8858C34.2111 40 34.4747 39.7364 34.4747 39.411V38.6439L35.6154 38.7413C35.9351 38.7691 36.2252 38.5238 36.2524 38.2047L39.2464 3.15074C39.2597 2.99504 39.2107 2.84052 39.11 2.72098ZM4.39766 29.7674L1.2468 4.70473L4.39766 4.30864V29.7674ZM10.402 1.27825L15.5567 1.71848L10.3081 2.3784L10.402 1.27825ZM28.7515 1.24692L29.0524 3.64043H9.7125L28.7515 1.24692ZM35.1289 37.5175L34.4747 37.4617V20.2496C34.4747 19.9242 34.2111 19.6606 33.8858 19.6606C33.5604 19.6606 33.2968 19.9242 33.2968 20.2496V38.822H5.57563V4.81841H33.2968V17.501C33.2968 17.8264 33.5604 18.09 33.8858 18.09C34.2112 18.09 34.4748 17.8264 34.4748 17.501V4.22942C34.4748 3.9041 34.2112 3.64043 33.8858 3.64043H30.2397L30.1547 2.9652L38.0226 3.63724L35.1289 37.5175ZM30.7442 6.7806H27.6029C27.406 6.7806 27.2221 6.87895 27.1129 7.04286L25.7798 9.04254C24.3449 8.01465 22.5881 7.4088 20.6923 7.4088C20.367 7.4088 20.1033 7.6724 20.1033 7.99779V16.165C20.1033 16.4903 20.3669 16.7539 20.6923 16.7539H28.8595C29.1849 16.7539 29.4485 16.4903 29.4485 16.165C29.4485 13.6574 28.3886 11.393 26.6938 9.7952L27.9182 7.95856H30.7443C31.0696 7.95856 31.3332 7.69496 31.3332 7.36958C31.3332 7.04419 31.0695 6.7806 30.7442 6.7806ZM28.2479 15.576H21.2813V8.60942C22.7097 8.71973 24.0274 9.22911 25.1255 10.024L24.6 10.8124C24.4358 11.0585 24.484 11.3993 24.7107 11.5897C24.9761 11.8127 25.3879 11.7539 25.58 11.4658L26.0298 10.7911C27.2821 12.035 28.1038 13.7119 28.2479 15.576ZM25.4171 26.2561H30.7448C31.0702 26.2561 31.3338 26.5198 31.3338 26.8452C31.3338 27.1706 31.0702 27.4342 30.7448 27.4342H25.0906C24.8876 27.4342 24.6988 27.3296 24.5912 27.1574L23.5912 25.5574C22.1006 26.7323 20.2208 27.4342 18.1799 27.4342C13.3518 27.4342 9.42377 23.5061 9.42377 18.678C9.42377 13.8499 13.3518 9.92186 18.1799 9.92186C18.5052 9.92186 18.7689 10.1855 18.7689 10.5109V18.089H26.3471C26.6725 18.089 26.9361 18.3526 26.9361 18.678C26.9361 21.0356 25.9991 23.1784 24.4784 24.7542L25.4171 26.2561ZM21.6374 21.3197C21.9131 21.1473 22.2766 21.2311 22.449 21.5071L23.8323 23.7205C24.9068 22.5174 25.604 20.9703 25.7355 19.2671H18.18C17.8547 19.2671 17.591 19.0034 17.591 18.6781V11.1226C13.6866 11.4241 10.6018 14.6976 10.6018 18.6781C10.6018 22.8567 14.0014 26.2563 18.18 26.2563C19.992 26.2563 21.6574 25.6168 22.9628 24.5519L21.45 22.1314C21.2776 21.8555 21.3615 21.4921 21.6374 21.3197ZM13.1539 29.3978H8.12799C7.80275 29.3978 7.539 29.6613 7.539 29.9867C7.539 30.3121 7.80267 30.5757 8.12799 30.5757H13.1539C13.4792 30.5757 13.7429 30.3121 13.7429 29.9867C13.7429 29.6613 13.4792 29.3978 13.1539 29.3978ZM15.667 29.3978H20.693C21.0183 29.3978 21.282 29.6613 21.282 29.9867C21.282 30.3121 21.0183 30.5757 20.693 30.5757H15.667C15.3417 30.5757 15.0781 30.3121 15.0781 29.9867C15.0781 29.6613 15.3417 29.3978 15.667 29.3978ZM16.2952 32.539H8.12799C7.80275 32.539 7.539 32.8026 7.539 33.128C7.539 33.4534 7.80267 33.717 8.12799 33.717H16.2952C16.6205 33.717 16.8841 33.4534 16.8841 33.128C16.8841 32.8026 16.6204 32.539 16.2952 32.539ZM18.8076 32.539H20.6923C21.0176 32.539 21.2812 32.8026 21.2813 33.128C21.2813 33.4534 21.0176 33.717 20.6923 33.717H18.8076C18.4822 33.717 18.2186 33.4534 18.2186 33.128C18.2186 32.8026 18.4823 32.539 18.8076 32.539ZM10.641 35.6803H8.12799C7.80275 35.6803 7.539 35.9439 7.539 36.2693C7.539 36.5947 7.80267 36.8583 8.12799 36.8583H10.641C10.9663 36.8583 11.2299 36.5947 11.2299 36.2693C11.2299 35.9439 10.9663 35.6803 10.641 35.6803ZM13.154 35.6803H20.6929C21.0182 35.6803 21.2819 35.9439 21.2819 36.2693C21.2819 36.5947 21.0182 36.8583 20.6929 36.8583H13.154C12.8287 36.8583 12.565 36.5947 12.565 36.2693C12.565 35.9439 12.8288 35.6803 13.154 35.6803Z" fill="#00335B"/>
</svg>
