<svg width="89" height="12" viewBox="0 0 89 12" fill="none" xmlns="http://www.w3.org/2000/svg">
<path d="M21.6229 1.93262L30.5078 10.4147L29.571 11.249L28.1657 9.91408L26.7756 11.1516C26.1258 11.7217 25.2796 12.0415 24.373 12.0276C23.4815 12.0137 22.6353 11.68 22.0158 11.0821C21.3963 10.4842 21.0638 9.7055 21.0789 8.88511C21.0941 8.06472 21.4567 7.28604 22.1065 6.71593L23.0282 5.89554L23.9348 6.75765L23.0131 7.57804C22.6202 7.92567 22.3936 8.41234 22.3784 8.91292C22.3633 9.4135 22.5749 9.90017 22.9526 10.2617C23.3304 10.6232 23.8441 10.8318 24.4032 10.8457C24.9623 10.8596 25.4761 10.6649 25.8689 10.3173L27.2591 9.07978L21.6229 3.69855V1.93262ZM5.30374 2.14119V10.2061H4.75976H4.44244V9.34397C4.0798 9.9697 3.38472 10.2895 2.49321 10.2895C1.08795 10.2895 0 9.24664 0 7.82833C0 6.42393 1.08795 5.38105 2.4781 5.38105C3.46027 5.38105 4.0798 5.82601 4.44244 6.45174V2.14119H5.30374ZM4.48778 7.82833C4.48778 6.81327 3.76248 6.09021 2.67453 6.09021C1.6017 6.09021 0.906621 6.81327 0.906621 7.82833C0.906621 8.8573 1.6017 9.59426 2.67453 9.59426C3.74737 9.59426 4.48778 8.8573 4.48778 7.82833ZM10.8946 8.07862C10.8946 8.99635 10.2599 9.56645 9.29287 9.56645C8.44669 9.56645 8.0236 9.10759 8.0236 8.28719V5.49229H7.16231V8.38453C7.16231 9.59426 7.94805 10.3034 9.08132 10.3034C9.89728 10.3034 10.547 10.0253 10.8946 9.39959V10.1922H11.1061H11.7559V5.49229H10.8946V8.07862ZM16.4854 5.38105C15.6694 5.38105 15.0046 5.65915 14.6722 6.29878V5.49229H14.3397H13.8109V10.2061H14.6722V7.60585C14.6722 6.67422 15.3219 6.11802 16.2739 6.11802C17.1351 6.11802 17.5431 6.59079 17.5431 7.42509V10.2061H18.4044V7.32775C18.4044 6.10411 17.6187 5.38105 16.4854 5.38105Z" fill="#005172"/>
<path d="M29.7372 4.15736C30.3567 4.75528 30.6892 5.53396 30.6741 6.35435C30.659 7.17475 30.2963 7.95342 29.6466 8.52353L29.5257 8.62086L28.6191 7.77266L28.7399 7.67533C29.1328 7.3277 29.3595 6.84103 29.3746 6.34045C29.3897 5.83987 29.1781 5.35319 28.8004 4.99166C28.5888 4.78309 28.3471 4.63013 28.06 4.5328V3.29526C28.6946 3.4204 29.2688 3.71241 29.7372 4.15736ZM22.4691 0.736739L21.8194 1.30684L22.726 2.16895L23.3758 1.59885C23.9953 1.05655 24.9775 1.07046 25.5668 1.62666C26.1561 2.19676 26.141 3.10059 25.5214 3.64288L24.8868 4.19908L25.7934 5.06119L26.4281 4.50499C27.5613 3.50383 27.5916 1.83523 26.5036 0.792359C25.4157 -0.23661 23.6024 -0.26442 22.4691 0.736739ZM57.7065 9.20487C58.0389 9.80279 58.7642 10.3034 59.8975 10.3034C61.1819 10.3034 61.7712 9.70545 61.7712 8.89896C61.7712 7.98124 60.9401 7.67532 60.0788 7.45285C59.1722 7.21646 58.87 7.09132 58.87 6.64636C58.87 6.28483 59.2024 6.04844 59.7615 6.04844C60.2601 6.04844 60.6228 6.25702 60.8797 6.59074L61.469 6.17359C61.1063 5.70082 60.5472 5.40881 59.7615 5.40881C58.8247 5.40881 58.0842 5.88158 58.0842 6.70198C58.0842 7.5919 58.8247 7.8839 59.6255 8.10638C60.517 8.34276 60.9703 8.454 60.9703 8.96849C60.9703 9.39954 60.5775 9.67764 59.8824 9.67764C59.142 9.67764 58.6887 9.33002 58.4016 8.88506L57.7065 9.20487ZM63.932 8.77382C63.932 9.88622 64.5213 10.3034 65.307 10.3034C65.9416 10.3034 66.3345 10.0531 66.5612 9.8306L66.0927 9.33002C65.9265 9.46907 65.7452 9.60812 65.3977 9.60812C65.0199 9.60812 64.7932 9.41345 64.7932 8.78772V6.15968H66.2287V5.49224H64.7932V2.14114H63.932V5.49224H63.1462V6.15968H63.932V8.77382ZM68.3593 10.206H69.2206V7.71704C69.2206 6.61855 69.8099 6.13187 70.5503 6.13187C70.8676 6.13187 71.0943 6.2153 71.2605 6.31264L71.5929 5.61739C71.3511 5.46443 71.0792 5.39491 70.7014 5.39491C70.097 5.39491 69.5228 5.57567 69.2055 6.29873L69.2357 5.49224H68.3744V10.206H68.3593ZM76.6398 7.50847C76.5642 6.70198 76.0051 6.06235 74.9323 6.06235C73.9501 6.06235 73.3004 6.64636 73.1644 7.50847H76.6398ZM75.0532 9.62202C75.8238 9.62202 76.3376 9.34392 76.67 8.9963L77.1988 9.46907C76.7304 9.95574 76.0505 10.2895 75.0381 10.2895C73.3608 10.2895 72.2578 9.21878 72.2578 7.84219C72.2578 6.46559 73.4061 5.381 74.9021 5.381C76.5491 5.381 77.5464 6.54902 77.4708 8.10638H73.119C73.255 9.0102 73.935 9.62202 75.0532 9.62202ZM83.3336 7.50847C83.2581 6.70198 82.699 6.06235 81.6262 6.06235C80.644 6.06235 79.9943 6.64636 79.8583 7.50847H83.3336ZM81.7471 9.62202C82.5177 9.62202 83.0314 9.34392 83.3639 8.9963L83.8927 9.46907C83.4243 9.95574 82.7444 10.2895 81.732 10.2895C80.0547 10.2895 78.9516 9.21878 78.9516 7.84219C78.9516 6.46559 80.1 5.381 81.596 5.381C83.243 5.381 84.2403 6.54902 84.1647 8.10638H79.8129C79.964 9.0102 80.6289 9.62202 81.7471 9.62202ZM86.3859 8.77382C86.3859 9.88622 86.9752 10.3034 87.761 10.3034C88.3956 10.3034 88.7885 10.0531 89.0151 9.8306L88.5467 9.33002C88.3805 9.46907 88.1992 9.60812 87.8516 9.60812C87.4739 9.60812 87.2472 9.41345 87.2472 8.78772V6.15968H88.6827V5.49224H87.2472V2.14114H86.3859V5.49224H85.6002V6.15968H86.3859V8.77382ZM36.3404 5.381C35.3885 5.381 34.7388 5.71472 34.3761 6.34045V2.14114H33.5148V10.206H34.0588H34.3761V9.34392C34.7236 9.96965 35.4338 10.2895 36.3253 10.2895C37.7306 10.2895 38.8185 9.24659 38.8185 7.82828C38.8185 6.43778 37.7306 5.381 36.3404 5.381ZM36.144 9.59421C35.0561 9.59421 34.3308 8.85725 34.3308 7.82828C34.3308 6.81322 35.0561 6.09016 36.144 6.09016C37.2168 6.09016 37.9119 6.81322 37.9119 7.82828C37.927 8.85725 37.232 9.59421 36.144 9.59421ZM41.5082 6.24311V5.49224H41.1455H40.6469V10.206H41.5082V7.71704C41.5082 6.61855 42.0975 6.13187 42.8379 6.13187C43.1552 6.13187 43.3819 6.2153 43.5481 6.31264L43.8805 5.61739C43.6387 5.46443 43.3668 5.39491 42.989 5.39491C42.3846 5.39491 41.8255 5.57567 41.5082 6.24311ZM47.0537 5.381C46.0715 5.381 45.4067 5.72863 44.9685 6.29873L45.4973 6.74369C45.8146 6.34045 46.2831 6.06235 46.9932 6.06235C47.7488 6.06235 48.187 6.40997 48.187 7.3277V7.43894H46.5853C45.5124 7.43894 44.636 7.89781 44.636 8.85725C44.636 9.8306 45.4218 10.2895 46.5248 10.2895C47.3106 10.2895 47.8394 10.0948 48.187 9.64983V10.1921H48.3381H48.9878V7.3138C49.0029 6.00673 48.187 5.381 47.0537 5.381ZM48.187 8.63477C48.187 9.24659 47.5221 9.64983 46.7213 9.64983C45.9204 9.64983 45.4822 9.37173 45.4822 8.82944C45.4822 8.25933 45.996 8.03685 46.6457 8.03685H48.187V8.63477ZM55.1679 2.14114V6.34045C54.7902 5.71472 54.1707 5.381 53.2036 5.381C51.8135 5.381 50.7255 6.42388 50.7255 7.82828C50.7255 9.24659 51.8135 10.2895 53.2187 10.2895C54.1102 10.2895 54.8204 9.96965 55.1679 9.34392V10.206H55.4097H56.0141V2.14114H55.1679ZM53.3849 9.59421C52.3121 9.59421 51.617 8.85725 51.617 7.82828C51.617 6.81322 52.3121 6.09016 53.3849 6.09016C54.4729 6.09016 55.1982 6.81322 55.1982 7.82828C55.1982 8.85725 54.4729 9.59421 53.3849 9.59421ZM68.9184 6.72979H69.2206V5.47834H68.9184V6.72979Z" fill="#3095B4"/>
</svg>
