<svg width="36" height="40" viewBox="0 0 36 40" fill="none" xmlns="http://www.w3.org/2000/svg">
<path d="M34.6563 14.4291C33.7531 14.053 32.4594 14.3021 31.754 15.738C31.752 15.7421 31.75 15.7462 31.748 15.7503L29.1596 21.2613C28.2481 20.8843 27.1642 21.1978 26.6042 22.0545C26.4108 22.3505 25.7751 23.3617 25.102 24.4324C24.4615 25.451 23.7993 26.5044 23.6132 26.789C23.2452 27.3522 22.6162 27.8885 21.8878 28.5094C20.5275 29.669 18.8525 31.097 17.9712 33.531C17.0896 31.0967 15.4143 29.6685 14.0547 28.5093C13.3263 27.8885 12.6973 27.3521 12.3293 26.789C12.1432 26.5042 11.4803 25.4499 10.8393 24.4303C10.1669 23.3607 9.53172 22.3503 9.33844 22.0546C8.77837 21.1977 7.69449 20.8843 6.78303 21.2614L4.19458 15.7504C4.19263 15.7463 4.19067 15.7422 4.18864 15.7381C3.48327 14.3021 2.18978 14.0529 1.28637 14.4292C0.375766 14.8084 -0.309295 15.8775 0.143194 17.1874C0.144053 17.1898 0.144912 17.1923 0.14585 17.1949C0.31733 17.6754 0.717945 19.0076 1.18168 20.5501C1.83042 22.7076 2.63774 25.3927 3.33851 27.4999C4.24989 30.2403 4.70144 31.0371 6.55983 33.184L9.11087 36.1311V39.2193C9.11087 39.6507 9.46062 40.0006 9.8921 40.0006H26.0506C26.4821 40.0006 26.8318 39.6507 26.8318 39.2193V36.1311L29.3829 33.184C31.2413 31.0371 31.6929 30.2402 32.6042 27.4999C33.305 25.3926 34.1124 22.7073 34.7612 20.5496C35.2249 19.0073 35.6254 17.6754 35.7969 17.1949C35.7977 17.1924 35.7986 17.1899 35.7995 17.1874C36.2519 15.8775 35.5669 14.8082 34.6563 14.4291ZM16.9653 38.438H10.6732V35.8398C10.6732 35.652 10.6055 35.4705 10.4826 35.3285L7.74106 32.1612C6.02079 30.1739 5.66603 29.5477 4.82105 27.0068C4.12747 24.921 3.32366 22.248 2.67782 20.1001C2.18978 18.4771 1.80409 17.1943 1.6187 16.6737C1.46605 16.2277 1.66753 15.9628 1.8869 15.8715C2.20642 15.7385 2.54931 15.9489 2.78321 16.421L5.65384 22.5327C5.54962 22.9388 5.55017 23.4589 5.7361 24.1242C6.27203 26.0418 6.97975 27.9806 7.6777 29.4435C7.86347 29.833 8.32979 29.9983 8.71924 29.8122C9.1086 29.6265 9.27375 29.1601 9.0879 28.7708C8.42698 27.3854 7.75371 25.5385 7.24091 23.7037C7.02381 22.9269 7.22677 22.7944 7.29349 22.751C7.53426 22.5941 7.87176 22.6666 8.03042 22.9093C8.21612 23.1936 8.8772 24.245 9.51648 25.2619C10.1908 26.3344 10.8277 27.3475 11.0213 27.6437C11.5124 28.3952 12.2549 29.0282 13.041 29.6983C15.0883 31.4437 17.4009 33.4152 16.9653 38.438ZM34.3238 16.6735C34.1385 17.1939 33.7528 18.4766 33.2648 20.0995C32.619 22.2476 31.8152 24.9209 31.1214 27.0068C30.2764 29.5476 29.9217 30.1739 28.2014 32.1612L25.4598 35.3285C25.337 35.4705 25.2693 35.652 25.2693 35.8398V38.438H18.9773C18.5414 33.4156 20.8538 31.4442 22.9015 29.6984C23.6876 29.0283 24.4301 28.3952 24.9213 27.6437C25.1147 27.3477 25.7511 26.3355 26.4247 25.2639C27.0646 24.2462 27.7263 23.1937 27.9121 22.9093C28.0708 22.6665 28.4084 22.5939 28.6491 22.7509C28.7158 22.7944 28.9187 22.9268 28.7016 23.7036C28.1889 25.5384 27.5157 27.3853 26.8547 28.7707C26.6689 29.1601 26.834 29.6264 27.2233 29.8122C27.6126 29.998 28.0791 29.833 28.2649 29.4434C28.9629 27.9804 29.6705 26.0416 30.2064 24.1241C30.3924 23.4589 30.3929 22.9387 30.2888 22.5327L33.1592 16.4213C33.393 15.949 33.7358 15.7381 34.0557 15.8713C34.2749 15.9628 34.4763 16.2276 34.3238 16.6735Z" fill="#00335B"/>
<path d="M17.9709 23.437C24.4324 23.437 29.6893 18.1801 29.6893 11.7185C29.6893 5.2569 24.4324 0 17.9709 0C16.134 0 14.374 0.414052 12.74 1.23052C12.354 1.4234 12.1975 1.89261 12.3903 2.27854C12.5832 2.66454 13.0525 2.82102 13.4383 2.62822C14.4773 2.10909 15.5756 1.77855 16.7161 1.6391C17.4255 2.82032 17.839 4.36575 17.3574 5.16566C16.9823 5.789 16.0069 5.81392 15.2548 5.72525C14.358 5.61939 13.515 5.90876 12.8173 6.56203C11.896 7.42451 11.3449 8.83893 11.4134 10.1654C11.4781 11.4199 11.4438 11.8867 11.113 12.1788C10.6692 12.5707 9.60153 12.8722 7.92642 13.223C7.85322 12.7319 7.81486 12.2296 7.81486 11.7185C7.81486 10.1262 8.17337 8.60135 8.8803 7.18647C9.07319 6.80054 8.91663 6.33133 8.53062 6.13844C8.14462 5.94532 7.67541 6.10212 7.4826 6.48812C6.66629 8.12176 6.25232 9.88164 6.25232 11.7185C6.2524 18.1801 11.5092 23.437 17.9709 23.437ZM17.9709 21.8745C16.0845 21.8745 14.317 21.357 12.8018 20.4573C13.6468 19.9133 14.7173 19.6599 15.7613 19.4142C17.2367 19.067 18.7625 18.7079 19.4111 17.4255C19.9125 16.4342 19.783 15.1209 19.0034 13.2927C18.5397 12.2052 18.6433 11.3094 19.2805 10.8965C19.9416 10.4681 21.1206 10.5849 22.095 11.6371C23.4592 13.1102 24.9076 12.6839 25.965 12.3726C26.9108 12.094 27.4763 11.9615 28.1013 12.4332C27.7334 17.7011 23.3306 21.8745 17.9709 21.8745ZM12.1474 13.3499C13.0989 12.5095 13.0382 11.3318 12.9738 10.0848C12.9295 9.2261 13.3043 8.24652 13.8853 7.70263C14.2413 7.36927 14.6407 7.22584 15.0718 7.27701C17.2625 7.53497 18.2519 6.70968 18.6962 5.9715C19.4259 4.75934 19.132 3.02805 18.4498 1.5741C23.4838 1.80894 27.5717 5.72564 28.0748 10.6862C27.1311 10.4007 26.237 10.6637 25.5238 10.8737C24.4592 11.1872 23.9174 11.3055 23.2415 10.5755C21.6806 8.89002 19.64 8.80158 18.4308 9.58531C17.4055 10.2498 16.64 11.7337 17.5662 13.9057C18.1352 15.2398 18.2868 16.1868 18.0169 16.7204C17.6965 17.3536 16.6339 17.6038 15.4034 17.8934C14.0873 18.2032 12.6181 18.5492 11.457 19.5039C9.98309 18.2687 8.86351 16.624 8.27586 14.7463C10.3075 14.3199 11.4493 13.9665 12.1474 13.3499Z" fill="#00335B"/>
<path d="M10.2376 4.76569C10.4252 4.76569 10.6135 4.69858 10.7632 4.56241C11.0824 4.27219 11.106 3.77813 10.8157 3.45884C10.5254 3.13955 10.0314 3.11611 9.71216 3.40627L9.71177 3.40666C9.39256 3.69688 9.3692 4.19078 9.65943 4.51007C9.81349 4.6796 10.0251 4.76569 10.2376 4.76569Z" fill="#00335B"/>
</svg>
