<svg width="33" height="23" viewBox="0 0 33 23" fill="none" xmlns="http://www.w3.org/2000/svg">
<path d="M5.21053 0H27.7895C29.1714 0 30.4967 0.484642 31.4739 1.34731C32.451 2.20998 33 3.38 33 4.6V18.4C33 19.62 32.451 20.79 31.4739 21.6527C30.4967 22.5154 29.1714 23 27.7895 23H5.21053C3.82861 23 2.50329 22.5154 1.52613 21.6527C0.548965 20.79 0 19.62 0 18.4V4.6C0 3.38 0.548965 2.20998 1.52613 1.34731C2.50329 0.484642 3.82861 0 5.21053 0ZM5.21053 1.53333C4.36295 1.53333 3.58484 1.80167 2.98216 2.24787L16.5 9.99733L30.0178 2.24787C29.3936 1.78543 28.6044 1.53239 27.7895 1.53333H5.21053ZM16.5 11.8251L1.96958 3.496C1.8155 3.84817 1.73659 4.22247 1.73684 4.6V18.4C1.73684 19.2133 2.10282 19.9933 2.75426 20.5685C3.4057 21.1436 4.28925 21.4667 5.21053 21.4667H27.7895C28.7108 21.4667 29.5943 21.1436 30.2457 20.5685C30.8972 19.9933 31.2632 19.2133 31.2632 18.4V4.6C31.2632 4.21053 31.1815 3.83793 31.0304 3.496L16.5 11.8235V11.8251Z" fill="#00335B"/>
</svg>
