<svg width="48" height="48" viewBox="0 0 48 48" fill="none" xmlns="http://www.w3.org/2000/svg">
<circle cx="24" cy="24" r="23.5" fill="white" stroke="#C9C9C9"/>
<mask id="mask0" mask-type="alpha" maskUnits="userSpaceOnUse" x="0" y="0" width="48" height="48">
<circle cx="24" cy="24" r="24" fill="#C4C4C4"/>
</mask>
<g mask="url(#mask0)">
<path d="M18.6596 7.73798C17.3069 8.33916 16.5125 9.77772 16.2334 11.2377C15.9542 12.6978 16.0401 14.1793 15.9113 15.6393C15.7825 17.0993 15.3745 18.6452 14.301 19.6544C13.2919 20.5991 11.8318 20.9855 10.973 22.0591C10.3503 22.8535 10.1571 23.9915 10.5006 24.9577C10.8442 25.9239 11.703 26.6753 12.7121 26.8901C12.0465 27.9636 12.3686 29.4451 13.2274 30.3684C14.0863 31.2916 15.3531 31.721 16.5984 31.9143C18.7884 32.2578 21.1287 31.8713 22.9967 30.6475C24.8432 29.4236 26.1529 27.298 26.1529 25.0865" fill="#263238"/>
<path d="M12.7972 29.5525C12.7972 29.5525 12.6684 29.4022 12.561 29.0801C12.4536 28.758 12.3678 28.2427 12.4751 27.6416C12.5395 27.341 12.6254 27.0189 12.7757 26.6754C12.926 26.3533 13.1407 26.0098 13.3984 25.6877C13.8922 25.0436 14.5793 24.4424 15.2663 23.7983C15.9534 23.1541 16.5761 22.51 17.0699 21.8873C17.5852 21.2647 17.9717 20.642 18.2293 20.0838C18.487 19.5255 18.6373 19.0532 18.7017 18.7096C18.7446 18.5379 18.7446 18.409 18.7661 18.3232C18.7876 18.2373 18.7876 18.1943 18.7876 18.1943C18.7876 18.1943 18.7876 18.2373 18.7876 18.3232C18.7661 18.409 18.7661 18.5379 18.7446 18.7096C18.6802 19.0532 18.5514 19.5255 18.2937 20.1053C18.0361 20.6635 17.6496 21.3076 17.1558 21.9303C16.6405 22.5744 16.0178 23.2185 15.3522 23.8627C14.6652 24.5068 13.9996 25.0865 13.5057 25.7306C13.2481 26.0527 13.0548 26.3748 12.8831 26.6968C12.7328 27.0189 12.6254 27.341 12.561 27.6416C12.4536 28.2427 12.5181 28.7366 12.6039 29.0586C12.7113 29.3807 12.8187 29.531 12.7972 29.5525Z" fill="#455A64"/>
<path d="M34.8063 12.5908C34.8063 14.5661 35.7296 16.3911 36.5455 17.0567C37.7049 18.0014 39.4226 18.4523 40.5391 18.7744C42.1708 19.2253 43.545 20.6638 43.7597 22.36C43.9744 24.0562 42.8579 25.8598 41.2047 26.2892C42.2353 27.3413 41.9347 29.1663 41.0758 30.3687C39.4655 32.6661 36.2234 33.5464 33.561 32.6876C30.8771 31.8287 28.8374 29.4669 28.043 26.7831" fill="#263238"/>
<path d="M38.8854 32.1298C38.8854 32.1083 39.1431 32.1083 39.5081 31.8507C39.6798 31.7219 39.8731 31.5286 40.0448 31.2495C40.1951 30.9704 40.324 30.6268 40.324 30.2189C40.324 29.8324 40.2166 29.3815 40.0019 28.9736C39.7872 28.5656 39.4437 28.1792 39.0357 27.8356C38.2198 27.1486 37.1248 26.7191 36.0512 26.1179C35.5145 25.7959 35.0206 25.4523 34.6342 25.0015C34.4409 24.7867 34.2692 24.5506 34.1403 24.2929C34.0115 24.0353 33.9256 23.7776 33.8612 23.52C33.7539 22.9832 33.7539 22.4679 33.7968 21.9955C33.8397 21.5232 33.8827 21.0937 33.9256 20.6858C34.0115 19.8914 34.0115 19.2258 33.9042 18.7964C33.8827 18.689 33.8397 18.6031 33.8183 18.5172C33.7968 18.4313 33.7539 18.3669 33.7324 18.324C33.6894 18.2166 33.668 18.1522 33.668 18.1522C33.668 18.1522 33.6894 18.2166 33.7539 18.324C33.7753 18.3884 33.8183 18.4528 33.8397 18.5172C33.8612 18.6031 33.9041 18.689 33.9256 18.7964C34.0544 19.2258 34.0759 19.8914 33.99 20.7073C33.9471 21.1152 33.9041 21.5446 33.8612 22.017C33.8397 22.4894 33.8183 23.0047 33.9471 23.4985C34.0544 24.0138 34.3121 24.5076 34.6986 24.937C35.0851 25.3665 35.5574 25.71 36.0942 26.0321C37.1463 26.6332 38.2628 27.0841 39.1001 27.7712C39.5081 28.1147 39.8516 28.5012 40.0878 28.9306C40.324 29.3601 40.4313 29.8109 40.4098 30.2189C40.3884 30.6268 40.2595 30.9918 40.1093 31.271C39.9375 31.5501 39.7442 31.7433 39.551 31.8722C39.3578 32.001 39.186 32.0439 39.0786 32.0869C38.9498 32.1298 38.8854 32.1298 38.8854 32.1298Z" fill="#455A64"/>
<path d="M42.7511 25.5166C42.7296 25.5166 42.9228 25.3448 42.9443 24.9584C42.9443 24.7651 42.9228 24.5289 42.794 24.2928C42.6652 24.0566 42.4719 23.7989 42.1928 23.6272C41.8922 23.4554 41.5272 23.348 41.1407 23.2622C40.7328 23.1977 40.3034 23.1763 39.8525 23.0904C38.9292 22.9401 37.963 22.5966 37.0827 21.9954C36.2024 21.3942 35.4939 20.6212 35.0215 19.8268C34.5492 19.0324 34.2915 18.2165 34.1841 17.5294C34.0553 16.8423 34.0768 16.2626 34.0983 15.8762C34.1197 15.6829 34.1412 15.5326 34.1412 15.4253C34.1627 15.3179 34.1627 15.275 34.1627 15.275C34.1841 15.275 34.1412 15.4897 34.1197 15.8762C34.0983 16.2626 34.1197 16.8209 34.2486 17.5079C34.3774 18.195 34.635 18.9894 35.1074 19.7624C35.5798 20.5568 36.2668 21.3083 37.1257 21.888C38.006 22.4677 38.9507 22.8327 39.8525 22.983C40.3034 23.0474 40.7328 23.0904 41.1407 23.1548C41.5487 23.2192 41.9137 23.348 42.2143 23.5413C42.5149 23.7345 42.7081 23.9922 42.8369 24.2498C42.9658 24.5075 42.9872 24.7437 42.9872 24.9584C42.9658 25.1516 42.9013 25.3019 42.8369 25.3878C42.8155 25.4307 42.7725 25.4522 42.7725 25.4737C42.7725 25.4951 42.7511 25.5166 42.7511 25.5166Z" fill="#455A64"/>
<path d="M19.6242 35.8435C19.9033 32.8805 20.1395 29.7457 20.1395 29.7457C20.1395 29.7457 16.3821 28.7366 16.0815 23.6695C15.8023 18.8385 17.6488 7.95272 17.6488 7.95272C23.3601 6.25652 29.737 8.38214 33.2153 13.1702L30.5314 37.2176C30.2093 40.0088 27.5684 41.9627 24.584 41.5977C21.578 41.2542 19.345 38.6776 19.6242 35.8435Z" fill="#B78876"/>
<path d="M18.2277 16.6695C18.1847 17.013 18.4209 17.3136 18.7859 17.378C19.1295 17.4209 19.4515 17.2062 19.4945 16.8627C19.5374 16.5192 19.3012 16.2186 18.9362 16.1542C18.5927 16.1112 18.2706 16.3474 18.2277 16.6695Z" fill="#263238"/>
<path d="M17.263 15.8536C17.3274 15.9395 17.8427 15.6389 18.5512 15.7033C19.2383 15.7677 19.7107 16.1757 19.7965 16.0898C19.8395 16.0468 19.7751 15.8965 19.5604 15.7248C19.3671 15.553 19.0021 15.3598 18.5727 15.3168C18.1433 15.2739 17.7783 15.4027 17.5421 15.5315C17.3274 15.6818 17.2415 15.8107 17.263 15.8536Z" fill="#263238"/>
<path d="M25.2511 17.4858C25.2082 17.8294 25.4444 18.13 25.8094 18.1944C26.1529 18.2373 26.475 18.0226 26.5179 17.6791C26.5608 17.3355 26.3247 17.0349 25.9597 16.9705C25.6161 16.9276 25.3155 17.1423 25.2511 17.4858Z" fill="#263238"/>
<path d="M24.4134 16.8197C24.4778 16.9056 25.0145 16.605 25.7016 16.6694C26.3887 16.7338 26.861 17.1418 26.9469 17.0559C26.9899 17.013 26.9255 16.8627 26.7107 16.6909C26.5175 16.5191 26.1525 16.3259 25.7231 16.283C25.2937 16.24 24.9287 16.3688 24.6925 16.4977C24.4778 16.6265 24.3919 16.7768 24.4134 16.8197Z" fill="#263238"/>
<path d="M21.4285 21.6721C21.4285 21.6292 21.0205 21.5218 20.3335 21.3501C20.1617 21.3071 19.9899 21.2642 19.9899 21.1354C19.9684 21.0065 20.0543 20.8133 20.1617 20.6201C20.3764 20.2121 20.5911 19.7827 20.8058 19.3318C21.7076 17.5068 22.3947 15.9823 22.3088 15.9394C22.2444 15.8965 21.4285 17.3565 20.5267 19.1815C20.312 19.6324 20.0973 20.0618 19.904 20.4698C19.8181 20.663 19.6893 20.8777 19.7537 21.1568C19.7967 21.2857 19.904 21.393 20.0114 21.436C20.1187 21.4789 20.2261 21.5004 20.312 21.5004C20.9776 21.6507 21.407 21.6936 21.4285 21.6721Z" fill="#263238"/>
<path d="M20.1406 29.7453C20.1406 29.7453 23.4686 30.2821 26.9898 28.6288C26.9898 28.6288 25.036 31.8924 20.0977 30.9262L20.1406 29.7453Z" fill="#AA6550"/>
<path d="M21.5572 23.3473C21.8364 23.0467 22.2872 22.9179 22.7167 23.0038C23.0173 23.0682 23.2964 23.24 23.4467 23.4976C23.597 23.7553 23.6184 24.0988 23.4252 24.3135C23.2105 24.5497 22.824 24.5712 22.502 24.4423C22.1799 24.3135 21.9222 24.0773 21.6646 23.8411C21.6002 23.7767 21.5358 23.7123 21.4928 23.6264C21.4499 23.5406 21.4499 23.4332 21.5143 23.3688" fill="#AA6550"/>
<path d="M23.4044 22.3381C23.2971 22.3166 23.2112 23.0681 22.5241 23.5405C21.837 24.0128 21.0426 23.8411 21.0212 23.9484C20.9997 23.9914 21.1929 24.1202 21.515 24.1631C21.837 24.2061 22.3309 24.1417 22.7603 23.8625C23.1897 23.5834 23.383 23.154 23.4474 22.8534C23.5118 22.5313 23.4474 22.3381 23.4044 22.3381Z" fill="#263238"/>
<path d="M30.8531 18.4948C31.3899 18.4519 31.9481 18.5163 32.442 18.7525C32.9358 18.9887 33.3437 19.4181 33.5155 19.9334C33.6873 20.4487 33.6014 21.0284 33.3652 21.5222C33.129 22.0161 32.7426 22.424 32.3346 22.7675C32.034 23.0037 31.6905 23.2399 31.304 23.3043C30.9175 23.3902 30.4881 23.3043 30.209 23.0252" fill="#B78876"/>
<path d="M30.8323 21.7581C30.7679 21.7795 30.9611 22.1231 31.4764 22.0372C31.7126 21.9943 31.9702 21.8225 32.1205 21.5648C32.2923 21.3072 32.3996 21.0495 32.4641 20.706C32.5285 20.3839 32.4855 20.0189 32.3352 19.7398C32.1849 19.4607 31.9058 19.2889 31.6696 19.2674C31.1758 19.203 30.9826 19.5466 31.0255 19.5466C31.0684 19.5895 31.2832 19.4392 31.5837 19.5466C31.8843 19.6325 32.1635 20.1048 32.0346 20.6201C31.9273 21.1569 31.6696 21.6507 31.3476 21.7366C31.0684 21.8654 30.8752 21.7151 30.8323 21.7581Z" fill="#AA6550"/>
<path d="M20.0746 10.0999C19.3446 11.7961 17.7772 13.1273 15.9736 13.5568C15.8663 12.3329 15.8019 11.0876 15.9951 9.86376C16.1884 8.63992 16.6822 7.43755 17.584 6.57871C18.4643 5.71987 19.7955 5.26898 20.9764 5.56957" fill="#263238"/>
<path d="M20.4183 7.84558C19.7956 9.41296 20.0533 11.2809 21.0624 12.6121C22.0715 13.9433 23.8107 14.6948 25.4854 14.523C25.8075 14.4801 26.151 14.4157 26.4516 14.5445C26.7737 14.6733 26.9884 14.9739 27.1816 15.2745C27.976 16.4554 28.8134 17.7007 30.0587 18.3878C31.304 19.0749 33.1076 19.0105 33.945 17.851C34.3529 17.2928 34.4817 16.5628 34.5676 15.8757C34.8897 13.5569 35.0185 11.0877 33.9235 9.02648C33.1076 7.50204 31.6691 6.36408 30.0802 5.67701C28.4914 4.98994 26.7522 4.71082 25.0131 4.60347C24.0039 4.53905 22.9733 4.53905 22.0286 4.92553C21.1053 5.31201 20.2894 6.14937 20.2465 7.15851" fill="#263238"/>
<path d="M34.3551 16.52C34.3551 16.52 34.3336 16.4555 34.2906 16.3482C34.2477 16.2408 34.2048 16.0691 34.1189 15.8544C33.9686 15.4464 33.7109 14.8452 33.2815 14.1582C32.8521 13.4926 32.2509 12.7411 31.4135 12.0755C30.5976 11.4099 29.5456 10.8731 28.4291 10.4007C27.3126 9.92838 26.1961 9.5419 25.2299 9.09101C24.2637 8.64012 23.4478 8.14629 22.8252 7.63099C22.2025 7.11568 21.7946 6.60038 21.5584 6.21391C21.4296 6.02067 21.3437 5.87037 21.3007 5.76301C21.2578 5.65566 21.2148 5.59125 21.2148 5.59125C21.2148 5.59125 21.2578 5.63419 21.3007 5.74154C21.3651 5.8489 21.451 5.9992 21.5798 6.17096C21.8375 6.53597 22.2454 7.0298 22.8681 7.5451C23.4908 8.03894 24.3067 8.55424 25.2729 8.98366C26.239 9.43455 27.3341 9.82102 28.472 10.2934C29.61 10.7657 30.6406 11.3025 31.478 11.9896C32.3153 12.6552 32.9165 13.4281 33.3459 14.0937C33.7753 14.7808 34.033 15.382 34.1618 15.8114C34.2262 16.0261 34.2906 16.1979 34.3121 16.3053C34.3551 16.4555 34.3551 16.52 34.3551 16.52Z" fill="#455A64"/>
<path d="M32.8083 16.2404C32.8083 16.2404 32.7654 16.1974 32.7224 16.0901C32.658 16.0042 32.5936 15.8539 32.4648 15.7036C32.2286 15.3815 31.8206 14.9306 31.2194 14.5012C30.6183 14.0718 29.8453 13.6853 28.9435 13.3203C28.4926 13.1271 28.0203 12.9338 27.5479 12.6977C27.0756 12.4615 26.5817 12.2253 26.1094 11.9247C25.1432 11.345 24.2843 10.6794 23.6187 9.99232C22.9317 9.30525 22.4164 8.57524 22.0513 7.93111C21.6863 7.28698 21.4931 6.72874 21.3643 6.34226C21.2999 6.14902 21.2569 5.99873 21.2569 5.89137C21.2355 5.78402 21.214 5.7196 21.2355 5.7196C21.2355 5.7196 21.2569 5.76255 21.2784 5.8699C21.2999 5.97726 21.3428 6.12755 21.4072 6.32079C21.536 6.70727 21.7508 7.26551 22.1158 7.88817C22.4808 8.51083 22.9961 9.21937 23.6831 9.90644C24.3702 10.5935 25.2076 11.2376 26.1738 11.8174C26.6461 12.0965 27.14 12.3541 27.6123 12.5903C28.0847 12.8265 28.557 13.0197 29.0079 13.213C29.8882 13.5994 30.6827 13.9859 31.2839 14.4368C31.885 14.8662 32.2715 15.3171 32.5077 15.6607C32.6151 15.8324 32.7009 15.9612 32.7439 16.0686C32.7868 16.1974 32.8083 16.2404 32.8083 16.2404Z" fill="#455A64"/>
<path d="M15.9755 15.5324C15.9755 15.5324 15.954 15.4895 15.9326 15.4251C15.9111 15.3392 15.8681 15.2318 15.8252 15.0815C15.7393 14.7809 15.632 14.3515 15.6105 13.7933C15.589 13.235 15.632 12.5694 15.8252 11.8609C16.0184 11.1524 16.362 10.4009 16.8987 9.73527C17.1564 9.39173 17.457 9.11261 17.7576 8.83349C18.0582 8.57584 18.3802 8.36113 18.7023 8.16789C19.325 7.75994 19.8617 7.39494 20.2482 7.00846C20.6347 6.62198 20.8923 6.23551 20.9997 5.95638C21.1285 5.67726 21.15 5.50549 21.1715 5.50549C21.1715 5.50549 21.1715 5.54844 21.15 5.63432C21.1285 5.7202 21.1071 5.82756 21.0426 5.97785C20.9353 6.25698 20.6991 6.66492 20.2912 7.0514C19.9047 7.45935 19.3464 7.82436 18.7453 8.2323C18.4447 8.42554 18.1226 8.64025 17.822 8.8979C17.5214 9.15555 17.2208 9.43468 16.9846 9.77821C16.4693 10.4438 16.1258 11.1738 15.9326 11.8609C15.7393 12.548 15.6749 13.2136 15.6964 13.7718C15.7178 14.3301 15.8037 14.7595 15.8681 15.0601C15.9111 15.1889 15.9326 15.3177 15.9755 15.4036C15.9755 15.4895 15.9755 15.5324 15.9755 15.5324Z" fill="#455A64"/>
<path d="M28.2792 25.4732C27.1198 25.4732 25.9389 25.0867 25.0801 24.3137L25.2089 24.1634C26.7119 25.5161 29.1596 25.6664 30.8128 24.507C32.4661 23.369 33.1746 21.0072 32.4446 19.1392L32.6379 19.0748C33.4108 21.0287 32.6593 23.4978 30.9416 24.7002C30.1687 25.2155 29.224 25.4732 28.2792 25.4732Z" fill="#0079C8"/>
<path d="M26.6257 24.5926C26.6257 25.1294 26.1748 25.5803 25.6381 25.5803C25.1013 25.5803 24.6504 25.1294 24.6504 24.5926C24.6504 24.0559 25.1013 23.605 25.6381 23.605C26.1748 23.605 26.6257 24.0559 26.6257 24.5926Z" fill="#0079C8"/>
<path d="M36.5134 19.96C36.7356 18.1474 35.4464 16.4978 33.6337 16.2756C31.8211 16.0533 30.1715 17.3426 29.9493 19.1552C29.727 20.9678 31.0163 22.6174 32.8289 22.8397C34.6416 23.0619 36.2912 21.7726 36.5134 19.96Z" fill="#0079C8"/>
<path d="M32.7017 19.1176C32.6802 19.1176 32.6802 18.817 32.7231 18.2802C32.7231 18.0011 32.7446 17.6791 32.7661 17.2926C32.7661 16.9061 32.7875 16.4767 32.7661 16.0043C32.7661 15.7681 32.7446 15.5105 32.7446 15.2528C32.7446 14.9952 32.7017 14.7161 32.6802 14.4369C32.6587 14.1578 32.6158 13.8787 32.5728 13.5781C32.5514 13.4278 32.5084 13.2775 32.4869 13.1272C32.4655 12.9769 32.4225 12.8266 32.3796 12.6763C32.1005 11.4525 31.5637 10.1428 30.6404 9.02627C29.7172 7.90978 28.5148 7.1583 27.3339 6.70741C26.153 6.25652 25.0365 6.02033 24.0918 5.89151C23.1471 5.76268 22.3527 5.71974 21.8159 5.6768C21.2791 5.65533 20.9785 5.63386 20.9785 5.61239C20.9785 5.59092 21.2791 5.56944 21.8159 5.54797C22.3527 5.54797 23.1471 5.54797 24.1133 5.65533C25.0795 5.76268 26.2389 5.95592 27.4413 6.42828C28.6436 6.87917 29.9104 7.65213 30.8766 8.81156C31.8428 9.97099 32.3796 11.3451 32.6587 12.6119C32.7017 12.7622 32.7231 12.934 32.7446 13.0843C32.7661 13.2346 32.7875 13.3849 32.8305 13.5352C32.8734 13.8358 32.9164 14.1364 32.9378 14.4155C32.9593 14.6946 32.9808 14.9737 32.9808 15.2314C32.9808 15.489 33.0022 15.7467 32.9808 16.0043C32.9808 16.4982 32.9593 16.9276 32.9378 17.3141C32.9164 17.7005 32.8734 18.0226 32.8519 18.3017C32.7661 18.817 32.7231 19.1176 32.7017 19.1176Z" fill="#0079C8"/>
<g opacity="0.4">
<path opacity="0.4" d="M35.6007 19.568C35.6007 20.8348 34.5701 21.8439 33.3247 21.8439C32.058 21.8439 31.0488 20.8133 31.0488 19.568C31.0488 18.3012 32.0794 17.2921 33.3247 17.2921C34.5915 17.2921 35.6007 18.3012 35.6007 19.568Z" fill="black"/>
</g>
<path d="M32.5718 17.4427C32.5718 17.4427 32.6147 17.4212 32.6791 17.3998C32.7436 17.3783 32.8509 17.3354 33.0012 17.3139C33.2803 17.2709 33.7312 17.2709 34.1821 17.5071C34.4183 17.636 34.633 17.8292 34.7833 18.0868C34.9336 18.3445 35.041 18.688 35.0195 19.0316C35.0195 19.3751 34.9121 19.7401 34.6759 20.0407C34.4398 20.3413 34.0962 20.556 33.7098 20.6634C33.3233 20.7492 32.9153 20.7278 32.5718 20.556C32.2283 20.3842 31.9706 20.1051 31.8203 19.8045C31.67 19.5039 31.6056 19.1604 31.6271 18.8598C31.6485 18.5592 31.7774 18.2801 31.9062 18.0654C32.1853 17.636 32.5718 17.3998 32.8509 17.3354C33.0012 17.2924 33.1086 17.2924 33.173 17.2924C33.2589 17.2924 33.2803 17.3139 33.2803 17.3139C33.2803 17.3354 33.1086 17.2924 32.8509 17.3783C32.5933 17.4642 32.2283 17.6789 31.9491 18.1083C31.8203 18.323 31.713 18.5807 31.6915 18.8598C31.67 19.1389 31.7344 19.461 31.8847 19.7616C32.035 20.0407 32.2712 20.3198 32.5933 20.4701C32.9153 20.6204 33.3018 20.6634 33.6668 20.556C34.0318 20.4701 34.3539 20.2554 34.5686 19.9763C34.7833 19.6972 34.8907 19.3536 34.8907 19.0316C34.8907 18.7095 34.8262 18.3874 34.6759 18.1513C34.5256 17.8936 34.3324 17.7218 34.1177 17.593C33.6883 17.3354 33.2589 17.3354 32.9797 17.3568C32.7221 17.3783 32.5718 17.4427 32.5718 17.4427Z" fill="#263238"/>
<path d="M33.3025 21.8224C33.281 21.8224 33.2166 21.5862 33.1952 21.2856C33.1737 20.985 33.2166 20.7488 33.2596 20.7488C33.281 20.7488 33.3025 20.985 33.3025 21.2856C33.324 21.5647 33.324 21.8009 33.3025 21.8224Z" fill="#263238"/>
<path d="M34.5699 21.3718C34.5484 21.3718 34.441 21.1786 34.3337 20.921C34.2263 20.6633 34.1619 20.4271 34.2049 20.4271C34.2263 20.4271 34.3337 20.6204 34.441 20.878C34.5269 21.1357 34.5913 21.3504 34.5699 21.3718Z" fill="#263238"/>
<path d="M35.4063 20.3839C35.3848 20.4053 35.2345 20.298 35.0627 20.1477C34.8909 19.9974 34.7621 19.8471 34.7836 19.8256C34.8051 19.8041 34.9554 19.9115 35.1271 20.0618C35.2989 20.2121 35.4277 20.3624 35.4063 20.3839Z" fill="#263238"/>
<path d="M35.4712 18.9882C35.4712 19.0097 35.3424 19.0097 35.2136 18.9453C35.0847 18.9023 34.9774 18.8379 34.9988 18.8164C34.9988 18.795 35.1277 18.795 35.2565 18.8594C35.3853 18.9023 35.4712 18.9667 35.4712 18.9882Z" fill="#263238"/>
<path d="M31.8216 21.3071C31.8001 21.3071 31.8431 21.0495 31.9934 20.7918C32.1222 20.5127 32.294 20.3195 32.3154 20.3409C32.3369 20.3624 32.2295 20.5771 32.0792 20.8348C31.9504 21.0924 31.8431 21.3071 31.8216 21.3071Z" fill="#263238"/>
<path d="M31.1332 20.1476C31.1117 20.1261 31.2406 19.9758 31.4123 19.7826C31.5841 19.6108 31.7559 19.482 31.7773 19.5034C31.7988 19.5249 31.67 19.6752 31.4982 19.8684C31.305 20.0402 31.1547 20.169 31.1332 20.1476Z" fill="#263238"/>
<path d="M31.6716 18.5591C31.6716 18.5805 31.5857 18.645 31.4569 18.6664C31.3281 18.7094 31.2207 18.7094 31.2207 18.6664C31.2207 18.645 31.3066 18.5805 31.4354 18.5591C31.5428 18.5376 31.6501 18.5376 31.6716 18.5591Z" fill="#263238"/>
<path d="M46.4231 46.2781L51.1252 53.02L48.8708 35.65L55.5912 33.009C55.5912 33.009 64.0507 65.4731 52.6926 65.924C52.6926 65.924 44.8342 65.7093 38.9727 52.0967L46.4231 46.2781Z" fill="#B78876"/>
<path d="M43.0503 60.342L37.3605 53.1277L35.879 60.4923C35.2778 63.4767 35.5999 66.5685 36.7593 69.3812L37.4893 71.1418H11.2089L11.8745 68.8015C12.2395 65.9244 11.7457 62.9399 11.8315 58.839L11.1015 54.2013L7.1294 71.1418H-4.57227C-4.57227 71.1418 1.84755 44.8399 5.86261 39.644C10.9298 33.0739 19.7973 33.9542 19.7973 33.9542L25.2294 42.4567L30.5327 34.7915C30.5327 34.7915 39.6364 32.8592 46.7433 45.0976L50.5437 51.6248L48.783 38.2054L57.0279 36.2945C57.0279 36.2945 60.0123 49.4777 59.7976 56.5416C59.6259 62.8541 56.942 66.1606 53.2275 66.4827C47.366 66.9765 43.0503 60.342 43.0503 60.342Z" fill="#0079C8"/>
<path d="M19.7975 33.9325L19.8834 32.8804C19.8834 32.8804 23.8985 33.7822 25.2512 40.8032C25.2512 40.8032 26.6038 34.319 30.941 33.6749L31.671 35.5428L29.0086 42.4565L24.3494 43.8306L19.7975 42.4565L17.7363 38.3555L19.7975 33.9325Z" fill="#0079C8"/>
<path d="M8.58984 36.7233C8.58984 36.7233 8.58985 36.7877 8.61132 36.8951C8.61132 37.0239 8.63279 37.1957 8.65426 37.4104C8.67573 37.8613 8.74014 38.5269 8.80455 39.3213C8.93338 40.9316 9.14809 43.1861 9.5131 45.6338C9.85663 48.0815 10.286 50.293 10.6081 51.8818C10.7799 52.6762 10.9087 53.3204 11.0161 53.7713C11.059 53.986 11.1019 54.1577 11.1234 54.2866C11.1449 54.3939 11.1664 54.4583 11.1449 54.4583C11.1449 54.4583 11.1234 54.3939 11.1019 54.2866C11.0805 54.1577 11.0375 53.986 10.9731 53.7713C10.8658 53.3204 10.7155 52.6977 10.5437 51.9033C10.2002 50.3144 9.77075 48.1029 9.42721 45.6552C9.08368 43.2076 8.86897 40.9531 8.76161 39.3428C8.6972 38.5269 8.67573 37.8828 8.65426 37.4104C8.65426 37.1957 8.63279 37.0239 8.63279 36.8951C8.58984 36.7877 8.58984 36.7233 8.58984 36.7233Z" fill="#263238"/>
<path d="M31.5644 34.5335C31.5644 34.5335 31.5429 34.5764 31.5 34.6409C31.4571 34.7053 31.3926 34.8126 31.3282 34.92C31.1565 35.1776 30.9418 35.5212 30.6626 35.9506C30.1044 36.8094 29.3314 38.0118 28.5585 39.3859C28.537 39.4503 28.4941 39.4933 28.4726 39.5362L28.4297 39.6221L28.3867 39.5362C28.2149 39.1927 28.0646 38.8492 27.807 38.613C27.5708 38.3768 27.2273 38.2265 26.9052 38.2694C26.5832 38.3124 26.347 38.5271 26.1752 38.7633C26.0034 38.9995 25.8746 39.2356 25.8102 39.4718C25.6599 39.9442 25.574 40.3307 25.4667 40.5883C25.4237 40.7171 25.3593 40.8245 25.3164 40.8674C25.2734 40.9318 25.252 40.9533 25.252 40.9533C25.252 40.9533 25.3164 40.8245 25.4237 40.5668C25.5311 40.3092 25.5955 39.9227 25.7458 39.4289C25.8102 39.1927 25.939 38.935 26.1108 38.6989C26.2826 38.4627 26.5617 38.2265 26.9052 38.1621C27.2488 38.0977 27.6352 38.2694 27.8929 38.5271C28.172 38.7848 28.3223 39.1498 28.4941 39.4933H28.4082C28.4297 39.4503 28.4726 39.3859 28.4941 39.343C29.2885 37.9689 30.0614 36.7665 30.6412 35.9291C30.9203 35.4997 31.1779 35.1562 31.3497 34.92C31.4356 34.8126 31.5 34.7267 31.5429 34.6623C31.5429 34.555 31.5644 34.512 31.5644 34.5335Z" fill="#263238"/>
<path d="M27.7428 38.5059C27.7428 38.5059 27.7213 38.5489 27.6999 38.5918C27.6569 38.6562 27.614 38.7421 27.5496 38.8495C27.4208 39.0857 27.2275 39.3862 27.0128 39.7513C26.7766 40.1377 26.4975 40.5886 26.1969 41.0825C26.0466 41.3401 25.8748 41.5978 25.7245 41.8769C25.6387 42.0057 25.5528 42.156 25.4669 42.2848C25.4454 42.3278 25.4025 42.3492 25.3595 42.3922C25.3166 42.4136 25.2522 42.4351 25.1878 42.4136C25.0804 42.3707 25.0375 42.2848 24.9731 42.2204C24.2216 41.0825 23.6633 39.9874 23.2124 39.2145C22.9977 38.828 22.826 38.5059 22.6971 38.2912C22.5683 38.0765 22.5039 37.9477 22.5039 37.9477C22.5039 37.9477 22.5254 37.9692 22.5683 38.0336C22.6113 38.098 22.6542 38.1624 22.7186 38.2698C22.8474 38.4845 23.0407 38.7851 23.2769 39.1715C23.7278 39.9445 24.3075 41.018 25.0589 42.156C25.1019 42.2204 25.1448 42.2848 25.2092 42.3063C25.2522 42.3278 25.3166 42.2848 25.3595 42.2204C25.4454 42.0916 25.5313 41.9413 25.6172 41.8125C25.789 41.5333 25.9393 41.2757 26.111 41.0395C26.4116 40.5457 26.7122 40.0948 26.9484 39.7083C27.1846 39.3433 27.3778 39.0427 27.5066 38.828C27.571 38.7421 27.614 38.6562 27.6569 38.5918C27.7213 38.5274 27.7428 38.5059 27.7428 38.5059Z" fill="#263238"/>
<path d="M42.2997 39.1287C42.2997 39.1287 42.2782 39.1717 42.2353 39.279C42.1923 39.3864 42.1279 39.5152 42.042 39.6655C41.8703 40.009 41.6341 40.5029 41.3335 41.104C41.0544 41.7267 40.7108 42.4567 40.3673 43.2941C40.0238 44.1315 39.6802 45.0547 39.3367 46.0209C38.9932 47.0086 38.714 47.9533 38.4779 48.8121C38.2417 49.671 38.0484 50.4654 37.8981 51.131C37.7478 51.7966 37.6405 52.3334 37.5546 52.6984C37.5117 52.8701 37.4902 53.0204 37.4687 53.1278C37.4473 53.2351 37.4258 53.2781 37.4258 53.2781C37.4258 53.2781 37.4258 53.2351 37.4473 53.1278C37.4687 53.0204 37.4902 52.8701 37.5117 52.6984C37.5761 52.3334 37.6834 51.7751 37.8123 51.1095C37.9626 50.4439 38.1343 49.6495 38.3705 48.7906C38.6067 47.9318 38.8858 46.9871 39.2293 45.9994C39.5729 45.0118 39.9164 44.0885 40.2599 43.2726C40.6035 42.4352 40.947 41.7052 41.2476 41.104C41.5482 40.5029 41.8059 40.009 41.9776 39.6655C42.0635 39.5152 42.1279 39.3864 42.1923 39.279C42.2782 39.1717 42.2997 39.1287 42.2997 39.1287Z" fill="#263238"/>
<path d="M38.4121 54.4584C38.4121 54.4584 38.4121 54.394 38.4336 54.3081C38.455 54.2008 38.498 54.0505 38.5409 53.8787C38.6483 53.4923 38.7771 52.934 38.9489 52.2684C39.2924 50.9157 39.7433 49.0263 40.323 46.9651C40.6021 45.9345 40.9027 44.9683 41.1819 44.0665C41.461 43.1862 41.7401 42.3918 41.9978 41.7476C42.1266 41.4256 42.2339 41.125 42.3413 40.8673C42.4486 40.6097 42.5345 40.395 42.6204 40.2017C42.7063 40.03 42.7707 39.9011 42.8137 39.7938C42.8566 39.7079 42.8781 39.6435 42.8781 39.6435C42.8781 39.6435 42.8566 39.6864 42.8351 39.7938C42.7922 39.9011 42.7278 40.03 42.6634 40.2017C42.5775 40.3735 42.4916 40.6097 42.4057 40.8673C42.2983 41.125 42.191 41.4256 42.0622 41.7476C41.826 42.4132 41.5469 43.1862 41.2677 44.0665C40.9886 44.9468 40.7095 45.9345 40.4304 46.9651C39.8721 49.0263 39.3998 50.8943 39.0348 52.2469C38.863 52.9125 38.7127 53.4708 38.5839 53.8358C38.5409 54.0076 38.498 54.1579 38.4551 54.2652C38.4336 54.394 38.4121 54.4584 38.4121 54.4584Z" fill="#263238"/>
<path d="M10.9723 54.0938C10.9723 54.0938 10.9294 54.0509 10.865 53.965C10.8006 53.8791 10.6932 53.7503 10.5644 53.5785C10.3067 53.235 9.98468 52.7197 9.61967 52.0326C9.27613 51.3456 8.9326 50.5082 8.63201 49.542C8.33141 48.5758 8.1167 47.4808 7.94494 46.3428C7.62287 44.0454 7.57993 41.9198 7.49405 40.4169C7.4511 39.6654 7.40816 39.0427 7.38669 38.6133C7.36522 38.3986 7.36522 38.2483 7.34375 38.1195C7.34375 38.0121 7.34375 37.9477 7.34375 37.9477C7.34375 37.9477 7.36522 38.0121 7.36522 38.1195C7.38669 38.2268 7.40816 38.3986 7.42963 38.6133C7.47258 39.0427 7.51552 39.6439 7.57993 40.4169C7.68728 41.9413 7.7517 44.0454 8.07376 46.3428C8.24553 47.4808 8.46024 48.5758 8.73936 49.542C9.01848 50.5082 9.36202 51.3456 9.70555 52.0326C10.0491 52.7197 10.3712 53.235 10.6073 53.5785C10.7147 53.7503 10.822 53.8791 10.8865 53.9865C10.9294 54.0509 10.9723 54.0938 10.9723 54.0938Z" fill="#263238"/>
<path d="M9.77007 46.6218C9.77007 46.6647 9.38359 46.6862 8.97564 46.9009C8.56769 47.1156 8.31004 47.4162 8.28857 47.3947C8.2671 47.3733 8.48181 47.0297 8.9327 46.7935C9.36212 46.5788 9.77007 46.6003 9.77007 46.6218Z" fill="#263238"/>
<path d="M9.16901 44.0883C9.16901 44.1098 8.86841 44.1312 8.52488 44.303C8.20281 44.4748 7.9881 44.7109 7.96663 44.6895C7.94516 44.668 8.11693 44.3889 8.48193 44.2171C8.82547 44.0453 9.16901 44.0668 9.16901 44.0883Z" fill="#263238"/>
<path d="M8.86991 41.4903C8.86991 41.5117 8.59078 41.5761 8.29019 41.705C7.9896 41.8338 7.75342 42.0056 7.73195 41.9626C7.71047 41.9411 7.92518 41.7264 8.24725 41.5976C8.56931 41.4688 8.86991 41.4688 8.86991 41.4903Z" fill="#263238"/>
<path d="M8.69623 39.3859C8.69623 39.4074 8.41711 39.4718 8.11652 39.6221C7.81593 39.7724 7.60122 39.9442 7.57975 39.9227C7.55828 39.9012 7.75151 39.6865 8.07358 39.5362C8.39564 39.3644 8.69623 39.3644 8.69623 39.3859Z" fill="#263238"/>
<path d="M40.3664 46.729C40.345 46.7504 40.1732 46.4928 39.8297 46.3425C39.4861 46.1922 39.1855 46.2781 39.1855 46.2566C39.1855 46.2351 39.25 46.2137 39.3788 46.1922C39.5076 46.1707 39.7008 46.1922 39.8726 46.2566C40.0659 46.321 40.1947 46.4498 40.2806 46.5572C40.345 46.6431 40.3664 46.729 40.3664 46.729Z" fill="#263238"/>
<path d="M41.0756 44.4534C41.0542 44.4749 40.9468 44.2602 40.6891 44.1314C40.453 44.0025 40.2168 44.024 40.1953 44.0025C40.1953 43.9811 40.2597 43.9596 40.3456 43.9596C40.453 43.9596 40.5818 43.9811 40.7321 44.0455C40.8609 44.1099 40.9683 44.2172 41.0112 44.3031C41.0756 44.389 41.0756 44.4534 41.0756 44.4534Z" fill="#263238"/>
<path d="M41.89 42.3708C41.8685 42.3922 41.7397 42.1346 41.4606 42.0058C41.16 41.8769 40.9023 41.9413 40.9023 41.9199C40.9023 41.8984 40.9668 41.8769 41.0741 41.8555C41.1815 41.834 41.3532 41.8555 41.5035 41.9199C41.6538 41.9843 41.7827 42.1131 41.8471 42.2205C41.89 42.2849 41.9115 42.3708 41.89 42.3708Z" fill="#263238"/>
<path d="M28.4083 39.3861C28.4083 39.3861 28.3868 39.4291 28.3653 39.4935C28.3224 39.5579 28.2795 39.6652 28.215 39.7726C28.0862 40.0088 27.893 40.3523 27.6353 40.7603C27.3777 41.1682 27.0771 41.6835 26.7335 42.2203C26.5618 42.4994 26.3685 42.7785 26.1753 43.0576C25.9821 43.3368 25.7674 43.6374 25.5312 43.938C25.4668 44.0024 25.4024 44.0882 25.3165 44.1312C25.295 44.1527 25.2521 44.1527 25.2306 44.1527C25.1876 44.1527 25.1662 44.1312 25.1447 44.1312C25.1018 44.1097 25.0588 44.0882 25.0159 44.0453C24.8656 43.9165 24.7582 43.7877 24.6294 43.6588C24.4147 43.3797 24.2 43.1221 24.0282 42.8429C23.6632 42.3062 23.3411 41.8338 23.0835 41.4258C22.8258 41.0179 22.6326 40.6744 22.4823 40.4382C22.4179 40.3308 22.3749 40.2449 22.332 40.1591C22.2891 40.0947 22.2891 40.0517 22.2891 40.0517C22.2891 40.0517 22.3105 40.0732 22.3535 40.1376C22.3964 40.202 22.4608 40.2879 22.5252 40.3952C22.6755 40.6314 22.8902 40.9535 23.1479 41.3614C23.4056 41.7694 23.7276 42.2417 24.1141 42.7785C24.3073 43.0362 24.5006 43.3153 24.7153 43.5729C24.8226 43.7018 24.9515 43.8306 25.0803 43.9594C25.1447 44.0024 25.2306 44.0668 25.2735 44.0453C25.3379 44.0024 25.4024 43.938 25.4668 43.8735C25.7029 43.5944 25.9177 43.2938 26.1109 43.0147C26.3041 42.7356 26.4974 42.435 26.6691 42.1773C27.0127 41.6406 27.3347 41.1467 27.5709 40.7388C27.8286 40.3308 28.0218 40.0088 28.1721 39.7511C28.2365 39.6438 28.3009 39.5579 28.3439 39.4935C28.3653 39.4291 28.3868 39.3861 28.4083 39.3861Z" fill="#263238"/>
<path d="M23.8351 42.4353C23.8136 42.4353 23.7921 42.3708 23.8136 42.242C23.8136 42.1132 23.878 41.9414 23.9853 41.7911C24.1142 41.6408 24.2645 41.5549 24.3718 41.512C24.5006 41.4691 24.5651 41.4905 24.5651 41.4905C24.5651 41.512 24.2645 41.5764 24.0712 41.8555C23.8351 42.1347 23.8565 42.4567 23.8351 42.4353Z" fill="#263238"/>
<path d="M25.2284 44.1312C25.207 44.1312 25.1211 43.7662 25.1211 43.2938C25.1211 42.8215 25.1855 42.435 25.207 42.4565C25.2285 42.4565 25.207 42.843 25.2284 43.2938C25.2284 43.7662 25.2714 44.1312 25.2284 44.1312Z" fill="#263238"/>
<path d="M26.8406 41.9843C26.8191 41.9843 26.7547 41.7481 26.5186 41.5764C26.3038 41.3831 26.0462 41.3617 26.0677 41.3402C26.0677 41.3187 26.1321 41.3187 26.2394 41.3187C26.3468 41.3402 26.4756 41.3831 26.6044 41.4905C26.7333 41.5978 26.7977 41.7267 26.8406 41.8126C26.8621 41.9199 26.8406 41.9843 26.8406 41.9843Z" fill="#263238"/>
<path d="M27.8922 40.2232C27.8707 40.2232 27.8277 39.987 27.6345 39.7723C27.4413 39.5576 27.2051 39.5147 27.2051 39.4717C27.2051 39.4503 27.2695 39.4503 27.3768 39.4717C27.4842 39.4932 27.613 39.5791 27.7204 39.6864C27.8277 39.7938 27.8921 39.9441 27.9136 40.03C27.9136 40.1588 27.8922 40.2232 27.8922 40.2232Z" fill="#263238"/>
<path d="M22.7597 40.8459C22.7383 40.8459 22.7168 40.76 22.7168 40.6312C22.7168 40.4809 22.7383 40.2877 22.8456 40.0944C22.953 39.9012 23.1033 39.7509 23.2321 39.6865C23.3609 39.6006 23.4468 39.6006 23.4468 39.6006C23.4683 39.6221 23.1462 39.7724 22.953 40.1374C22.7383 40.4809 22.7812 40.8459 22.7597 40.8459Z" fill="#263238"/>
<g opacity="0.4">
<g opacity="0.4">
<path opacity="0.4" d="M19.7326 33.9324C20.1834 35.693 20.9564 38.5701 21.7938 40.8246C21.8367 40.9319 21.8796 41.0393 21.9441 41.1037C22.1588 41.2969 22.5238 41.1896 22.717 40.9749C22.9103 40.7816 23.0176 40.5025 23.1679 40.2878C23.3182 40.0516 23.5544 39.8369 23.8335 39.8369C24.0482 39.8369 24.2629 39.9657 24.4132 40.1375C24.5635 40.3093 24.6709 40.5025 24.7782 40.7172C24.8426 40.8246 24.9071 40.9319 25.0359 40.9534C25.1647 40.9749 25.2935 40.8675 25.2076 40.7387L24.4776 38.8278C24.4776 38.8278 24.1341 37.4322 22.9747 37.6469C21.6649 37.8831 22.2661 40.0302 22.2661 40.0302C22.2661 40.0302 19.7111 33.8465 19.7326 33.9324Z" fill="black"/>
</g>
</g>
<path d="M25.2496 40.7816C25.2496 40.7816 25.2282 40.7386 25.1852 40.6528C25.1423 40.5669 25.0993 40.438 25.0349 40.2877C24.9061 39.9442 24.7129 39.4933 24.4982 38.9136C24.4337 38.7633 24.3693 38.613 24.3049 38.4627C24.2405 38.3124 24.1546 38.1621 24.0473 38.0333C23.8111 37.7756 23.4246 37.6039 23.0381 37.6468C22.8449 37.6683 22.6517 37.7542 22.5014 37.883C22.3511 38.0333 22.2866 38.2265 22.2008 38.4412C22.1364 38.6345 22.1363 38.8707 22.1578 39.0854C22.1793 39.3216 22.2222 39.5363 22.2866 39.7724C22.3081 39.8583 22.3296 39.9442 22.3511 40.0086L22.2437 40.0301C21.9431 39.1713 21.5996 38.3554 21.2775 37.6468C20.9554 36.9168 20.6763 36.2727 20.4401 35.7144C20.204 35.1562 20.0537 34.7053 19.9463 34.3832C19.9034 34.2329 19.8604 34.1041 19.839 34.0182C19.8175 33.9323 19.796 33.8894 19.8175 33.8894C19.8175 33.8894 19.839 33.9323 19.8604 34.0182C19.8819 34.1041 19.9248 34.2329 19.9893 34.3832C20.0966 34.7053 20.2684 35.1347 20.5046 35.693C20.7407 36.2297 21.0413 36.8953 21.3634 37.6039C21.6855 38.3339 22.029 39.1283 22.3296 40.0086L22.2222 40.0301C22.2008 39.9442 22.1793 39.8583 22.1578 39.7939C22.0934 39.5577 22.0505 39.3216 22.029 39.1068C22.0075 38.8707 22.0075 38.6345 22.0719 38.4198C22.1363 38.2051 22.2222 37.9904 22.394 37.8186C22.5658 37.6683 22.7805 37.5824 22.9952 37.5609C23.4246 37.518 23.8326 37.7112 24.0902 37.9689C24.219 38.0977 24.3049 38.2695 24.3693 38.4412C24.4337 38.5915 24.4982 38.7418 24.5626 38.8921C24.7773 39.4719 24.949 39.9442 25.0779 40.2663C25.1423 40.4166 25.1852 40.5454 25.2067 40.6313C25.2496 40.7386 25.2496 40.7816 25.2496 40.7816Z" fill="#263238"/>
<g opacity="0.4">
<g opacity="0.4">
<path opacity="0.4" d="M25.3583 40.7386C25.3153 40.7601 25.3368 40.846 25.4012 40.8675C25.4442 40.8889 25.5086 40.846 25.5515 40.8245C25.8306 40.6098 25.9809 40.2877 26.1742 40.0086C26.3674 39.7295 26.6465 39.4504 26.9901 39.4504C27.3551 39.4504 27.6557 39.751 27.8274 40.073C27.9992 40.3951 28.128 40.7601 28.3857 41.0178C29.6954 39.0854 30.7475 36.9812 31.499 34.7697C31.0695 35.0703 30.7904 35.5427 30.5113 35.9721C29.8242 37.1315 29.1157 38.2909 28.4286 39.4504C28.2783 39.1068 28.1066 38.7633 27.8489 38.5271C27.5698 38.2695 27.2048 38.1192 26.8398 38.2051C26.4318 38.2909 26.1527 38.6774 25.9595 39.0424C25.6589 39.5792 25.4871 40.1804 25.4012 40.7816" fill="black"/>
</g>
</g>
<path d="M23.5339 42.349C23.5339 42.349 23.491 42.392 23.4266 42.4564C23.3407 42.5208 23.2333 42.6282 23.0616 42.7355C22.7395 42.9717 22.2671 43.2723 21.623 43.5514C21.0003 43.8305 20.1844 44.0882 19.2827 44.217C18.8318 44.2814 18.3379 44.3029 17.8441 44.3029C17.3503 44.2814 16.835 44.217 16.2982 44.1097C15.2676 43.8735 14.3229 43.487 13.4426 43.2508C13.0132 43.122 12.5837 43.0361 12.1758 42.9932C11.7678 42.9502 11.4028 42.9717 11.0593 43.0146C10.3722 43.1005 9.85692 43.3367 9.53486 43.5514C9.2128 43.7661 9.08397 43.9379 9.0625 43.9379C9.0625 43.9379 9.19133 43.7661 9.51339 43.5299C9.83545 43.2938 10.3508 43.0576 11.0378 42.9502C11.3814 42.9073 11.7678 42.8858 12.1758 42.9288C12.5837 42.9717 13.0132 43.0576 13.464 43.1649C14.3444 43.4011 15.2891 43.7876 16.3197 44.0023C16.835 44.1097 17.3503 44.1741 17.8441 44.1955C18.3379 44.217 18.8103 44.1741 19.2612 44.1311C20.163 44.0023 20.9574 43.7661 21.5801 43.487C22.2027 43.2079 22.6965 42.9288 23.0186 42.714C23.1904 42.6067 23.2977 42.5208 23.3836 42.4564C23.491 42.3705 23.5339 42.3276 23.5339 42.349Z" fill="#FAFAFA"/>
<path d="M26.3672 42.1988C26.3672 42.1773 26.5604 42.2632 26.9254 42.3276C27.2904 42.3706 27.8057 42.3706 28.4499 42.1988C29.0725 42.0485 29.7811 41.7264 30.5755 41.4044C30.9834 41.2541 31.4129 41.1038 31.8852 41.0179C32.3576 40.932 32.8514 40.9105 33.3452 40.932C34.3544 40.9964 35.2776 41.2541 36.0721 41.5761C36.8665 41.8982 37.5535 42.2847 38.1118 42.6282C38.67 42.9717 39.0995 43.2723 39.4 43.4656C39.5503 43.5729 39.6577 43.6373 39.7436 43.7018C39.8295 43.7662 39.8509 43.7876 39.8509 43.7876C39.8509 43.7876 39.808 43.7662 39.7221 43.7232C39.6362 43.6588 39.5074 43.5944 39.3571 43.5085C39.0565 43.3153 38.6056 43.0362 38.0474 42.6926C37.4891 42.3706 36.8021 41.9841 36.0076 41.662C35.2132 41.3399 34.29 41.0823 33.3238 41.0179C32.8299 40.9964 32.3576 41.0179 31.8852 41.1038C31.4343 41.1896 31.0049 41.3185 30.597 41.4902C29.8025 41.7908 29.094 42.1129 28.4499 42.2632C27.8057 42.4135 27.269 42.4135 26.904 42.3491C26.539 42.2847 26.3672 42.1988 26.3672 42.1988Z" fill="#FAFAFA"/>
<path d="M38.9071 36.8094C38.9071 36.8094 38.7998 36.8523 38.6065 36.8953C38.4992 36.9167 38.3918 36.9597 38.2415 36.9812C38.0912 37.0026 37.9409 37.0456 37.7477 37.067C37.3827 37.1315 36.9533 37.1744 36.4595 37.1959C35.9656 37.2173 35.4288 37.2173 34.8706 37.1744C34.3124 37.1315 33.7756 37.0456 33.3032 36.9382C32.8309 36.8309 32.4014 36.702 32.0579 36.5947C31.8861 36.5303 31.7358 36.4659 31.5856 36.4229C31.4567 36.38 31.3279 36.3156 31.242 36.2726C31.0488 36.1867 30.9629 36.1438 30.9629 36.1223C30.9629 36.1223 31.0702 36.1438 31.2635 36.2297C31.3494 36.2726 31.4782 36.3156 31.607 36.3585C31.7358 36.4014 31.9076 36.4659 32.0794 36.5088C32.4229 36.6161 32.8523 36.745 33.3247 36.8309C33.7971 36.9382 34.3124 37.0026 34.8706 37.067C35.4288 37.11 35.9656 37.11 36.438 37.11C36.9103 37.0885 37.3612 37.0456 37.7048 37.0026C37.8765 36.9812 38.0483 36.9597 38.1986 36.9167C38.3489 36.8953 38.4563 36.8738 38.5636 36.8523C38.7998 36.8094 38.9071 36.7879 38.9071 36.8094Z" fill="#FAFAFA"/>
<path d="M8.67578 38.1838C8.67578 38.1838 8.69725 38.1624 8.76167 38.098C8.82608 38.055 8.91196 37.9691 9.04079 37.8832C9.27697 37.69 9.64197 37.4324 10.1143 37.1103C11.0376 36.4876 12.3688 35.6932 14.0006 35.1994C15.6324 34.7055 17.2212 34.6841 18.3162 34.8988C18.8745 35.0061 19.3039 35.135 19.583 35.2638C19.7333 35.3067 19.8407 35.3711 19.9051 35.4141C19.9695 35.457 20.0124 35.4785 20.0124 35.4785C20.0124 35.4785 19.8407 35.4141 19.5616 35.3067C19.261 35.1994 18.8315 35.0706 18.2948 34.9847C17.1997 34.7914 15.6538 34.8129 14.022 35.3067C12.4117 35.8006 11.0805 36.595 10.1358 37.1962C9.66345 37.4968 9.29844 37.7544 9.04079 37.9262C8.91196 38.0121 8.82608 38.0765 8.74019 38.1409C8.71872 38.1624 8.67578 38.1838 8.67578 38.1838Z" fill="#FAFAFA"/>
</g>
</svg>
