<svg width="35" height="35" viewBox="0 0 35 35" fill="none" xmlns="http://www.w3.org/2000/svg">
<circle cx="17.5" cy="17.5" r="17" stroke="#F5F6F8"/>
<path d="M23.2181 24.8381C22.6116 24.4862 22.0535 24.0569 21.5578 23.5611C20.0481 22.0514 19.2173 20.0467 19.2173 17.9169C19.2213 16.5143 19.5929 15.1372 20.295 13.923C20.9971 12.7087 22.0052 11.6997 23.2188 10.9965C23.3705 10.9085 23.4964 10.7822 23.5839 10.6302C23.6713 10.4782 23.7173 10.3059 23.7172 10.1306C23.717 9.95521 23.6708 9.78298 23.5831 9.63114C23.4953 9.4793 23.3692 9.35319 23.2174 9.26548C21.6978 8.38537 19.9735 7.92034 18.2174 7.91703C12.7048 7.91703 8.21823 12.4036 8.21681 17.9176C8.21316 19.2316 8.47014 20.5332 8.97287 21.7472C9.47561 22.9612 10.2141 24.0634 11.1457 24.9901C12.0719 25.9216 13.1738 26.66 14.3874 27.1626C15.6011 27.6653 16.9024 27.9221 18.216 27.9182C19.9729 27.9154 21.6981 27.4501 23.2181 26.5691C23.3696 26.481 23.4954 26.3548 23.5828 26.2029C23.6702 26.051 23.7162 25.8788 23.7162 25.7036C23.7162 25.5283 23.6702 25.3562 23.5828 25.2043C23.4954 25.0524 23.3696 24.9261 23.2181 24.8381ZM18.2167 25.9193C17.1659 25.9221 16.1249 25.7166 15.154 25.3145C14.1831 24.9123 13.3016 24.3217 12.5606 23.5766C11.8154 22.8351 11.2246 21.9533 10.8224 20.9821C10.4202 20.0109 10.2145 18.9696 10.2172 17.9183C10.2179 13.5081 13.8072 9.91885 18.2174 9.91814C19.069 9.91862 19.915 10.0564 20.7227 10.3261C19.6263 11.2648 18.7454 12.4292 18.1404 13.7396C17.5353 15.0501 17.2203 16.4757 17.2169 17.9191C17.2165 19.3631 17.5297 20.79 18.1349 22.1011C18.7401 23.4122 19.6228 24.5762 20.722 25.5127C19.9137 25.7801 19.0681 25.9173 18.2167 25.9193Z" fill="#F5F6F8"/>
</svg>
