<svg width="39" height="40" viewBox="0 0 39 40" fill="none" xmlns="http://www.w3.org/2000/svg">
<path d="M37.324 25.3797C36.8926 25.3797 36.5427 25.7295 36.5427 26.1609V30.7013C36.5427 31.1009 36.2176 31.426 35.818 31.426H32.9163C33.0131 31.0888 33.0661 30.7333 33.0661 30.3654V27.8711C33.3637 27.4384 33.5384 26.915 33.5384 26.3513V24.3203C33.5384 23.8889 33.1885 23.5391 32.7571 23.5391H28.6643C26.8465 23.5391 25.3677 25.018 25.3677 26.8357V28.2589C25.3677 28.293 25.3705 28.3262 25.3748 28.3592C25.3706 28.3921 25.3677 28.4255 25.3677 28.4595V30.3655C25.3677 31.0648 25.5561 31.7207 25.8835 32.2866C25.8597 32.2809 25.8361 32.2745 25.812 32.2693L22.0754 31.4524C22.074 31.4521 22.0727 31.4515 22.0712 31.4511C23.1189 30.5816 23.7873 29.2704 23.7873 27.8058V24.5184C24.1699 23.9865 24.3962 23.3349 24.3962 22.6312V20.0129C24.3962 19.9211 24.3795 19.8334 24.3504 19.7515V19.1413L35.2649 17.075C35.7332 16.9864 36.1647 16.806 36.5427 16.5551V19.9111C36.5427 20.3425 36.8926 20.6923 37.324 20.6923C37.7554 20.6923 38.1052 20.3425 38.1052 19.9111V8.31141C38.1052 7.05016 37.0791 6.02414 35.818 6.02414H30.2991V3.52977C30.2991 2.41391 29.3913 1.50609 28.2755 1.50609H27.235C26.9265 0.629922 26.091 0 25.1107 0H12.9914C12.0111 0 11.1756 0.629922 10.8671 1.50602H9.82656C8.7107 1.50602 7.80289 2.41383 7.80289 3.52969V6.02406H2.28727C1.02602 6.02406 0 7.05016 0 8.31133V30.7013C0 31.9625 1.02609 32.9885 2.28727 32.9885H6.07336C6.10594 33.0234 6.13875 33.0583 6.17258 33.092L3.60258 33.6558C2.17773 33.9684 1.14352 35.254 1.14352 36.7127V39.2188C1.14352 39.6502 1.49336 40 1.92477 40H10.0763H15.8486H22.255H28.0258H36.1787C36.6101 40 36.9599 39.6502 36.9599 39.2188V36.7141C36.9599 35.2543 35.9248 33.9684 34.4987 33.6566L31.9282 33.0946C31.963 33.0601 31.9967 33.0245 32.0302 32.9886H35.8178C37.0791 32.9886 38.1051 31.9625 38.1051 30.7013V26.1609C38.1052 25.7295 37.7555 25.3797 37.324 25.3797ZM26.9302 29.0402H30.8496C31.0752 29.0402 31.2941 29.0119 31.5036 28.9594V30.3655C31.5036 31.6264 30.4777 32.6522 29.2168 32.6522C27.9559 32.6522 26.9301 31.6264 26.9301 30.3655V29.0402H26.9302ZM26.9302 26.8357C26.9302 25.8795 27.7081 25.1016 28.6643 25.1016H31.9759V26.3514C31.9759 26.9724 31.4706 27.4777 30.8496 27.4777H26.9302V26.8357ZM21.3367 32.8359L19.0397 37.4621L16.7428 32.8364C17.017 32.7015 17.2502 32.4995 17.4237 32.2538C17.9315 32.4402 18.4796 32.542 19.0511 32.542C19.6159 32.542 20.1578 32.4422 20.6605 32.26C20.8336 32.5025 21.065 32.7022 21.3367 32.8359ZM19.0511 30.9794C17.3012 30.9794 15.8774 29.5556 15.8774 27.8057V25.8713H21.1559C21.5304 25.8713 21.8899 25.8067 22.2248 25.6893V27.8056C22.2248 29.5557 20.8011 30.9794 19.0511 30.9794ZM22.7879 18.4811C22.7879 18.4816 22.7879 18.482 22.7879 18.4826V19.2188H15.3142V18.4827C15.3142 18.4822 15.3142 18.4816 15.3142 18.4811V17.7692H22.7879V18.4811ZM22.8337 22.6311C22.8337 23.5563 22.081 24.3089 21.1559 24.3089H15.8774V23.2555C15.8774 21.8983 16.9816 20.7941 18.3388 20.7941H22.8337V22.6311ZM12.3022 2.25172C12.3022 1.87172 12.6114 1.5625 12.9914 1.5625H25.1107C25.4907 1.5625 25.7999 1.87172 25.7999 2.25172V2.32281C25.7999 2.70281 25.4907 3.01203 25.1107 3.01203H12.9914C12.6114 3.01203 12.3022 2.70281 12.3022 2.32281V2.25172ZM9.36539 3.52977C9.36539 3.27547 9.57227 3.06859 9.82656 3.06859H10.8671C11.1755 3.94477 12.0111 4.57461 12.9914 4.57461H25.1107C26.091 4.57461 26.9265 3.94469 27.235 3.06859H28.2755C28.5298 3.06859 28.7366 3.27547 28.7366 3.52977V6.02414H9.36539V3.52977ZM2.28727 7.58656H35.8179C36.2175 7.58656 36.5427 7.91172 36.5427 8.31133V13.6465C36.5427 14.5715 35.883 15.3676 34.9742 15.5396L24.3503 17.5509V16.9878C24.3503 16.5564 24.0005 16.2066 23.5691 16.2066H14.533C14.1016 16.2066 13.7517 16.5564 13.7517 16.9878V17.5508L3.13078 15.5398C2.22203 15.3677 1.5625 14.5715 1.5625 13.6466V10.7116H8.7125C9.1439 10.7116 9.49375 10.3618 9.49375 9.93039C9.49375 9.49898 9.1439 9.14914 8.7125 9.14914H1.5625V8.31141C1.5625 7.9118 1.88766 7.58656 2.28727 7.58656ZM2.28727 31.4261C1.88766 31.4261 1.5625 31.1009 1.5625 30.7013V16.5551C1.94055 16.806 2.37195 16.9863 2.84016 17.075L13.7517 19.1412V20C13.7517 20.4314 14.1016 20.7812 14.533 20.7812H15.169C14.6346 21.4643 14.3149 22.323 14.3149 23.2555V25.0901C14.3149 25.1342 14.3195 25.1772 14.3265 25.2194C14.3195 25.2615 14.3149 25.3045 14.3149 25.3487V27.8057C14.3149 29.2677 14.981 30.5767 16.0254 31.4462C16.0184 31.4484 16.0116 31.4512 16.0042 31.4528L12.2877 32.2682C12.2654 32.2731 12.2436 32.279 12.2215 32.2843C12.548 31.719 12.7359 31.064 12.7359 30.3655V27.8713C13.0335 27.4386 13.2082 26.9152 13.2082 26.3515V24.3203C13.2082 23.8889 12.8584 23.5391 12.427 23.5391H8.33422C6.51641 23.5391 5.03758 25.018 5.03758 26.8357V28.2589C5.03758 28.293 5.04047 28.3262 5.04476 28.3592C5.04055 28.3921 5.03758 28.4255 5.03758 28.4595V30.3655C5.03758 30.7334 5.09055 31.0889 5.18734 31.4261H2.28727ZM6.6 30.3655V29.0402H10.5195C10.7449 29.0402 10.9639 29.0119 11.1734 28.9594V30.3655C11.1734 31.6264 10.1476 32.6522 8.88664 32.6522C7.6257 32.6522 6.6 31.6263 6.6 30.3655ZM11.6456 26.3514C11.6456 26.9724 11.1404 27.4777 10.5195 27.4777H6.6V26.8357C6.6 25.8795 7.37797 25.1016 8.33414 25.1016H11.6456V26.3514ZM2.70609 36.7128C2.70609 35.9823 3.22398 35.3386 3.93742 35.182L6.82047 34.5495C7.16758 34.4734 7.46781 34.2819 7.68609 34.0218C8.06414 34.1463 8.4675 34.2146 8.8868 34.2146C9.20172 34.2146 9.50766 34.1757 9.80086 34.1041C9.47844 34.6656 9.29508 35.3115 9.29508 35.9883V38.4375H2.70609V36.7128ZM10.8576 38.4375V35.9882C10.8576 34.9412 11.5998 34.0186 12.6224 33.7943L15.1938 33.2302L17.7795 38.4375H15.8486H10.8576ZM22.255 38.4375H20.2999L22.8862 33.229L25.4782 33.7957C26.5017 34.0195 27.2445 34.9423 27.2445 35.99V38.4375H22.255ZM31.2666 34.5494L34.1652 35.1831C34.8793 35.3392 35.3975 35.983 35.3975 36.7141V38.4375H28.8071V35.99C28.8071 35.3122 28.6233 34.6655 28.3001 34.1034C28.5941 34.1755 28.9009 34.2147 29.2169 34.2147C29.6311 34.2147 30.0299 34.1481 30.4041 34.0265C30.6222 34.2841 30.9212 34.4739 31.2666 34.5494Z" fill="#00335B"/>
<path d="M11.8376 10.7113C12.043 10.7113 12.2446 10.6278 12.3899 10.4824C12.5351 10.3363 12.6188 10.1356 12.6188 9.93005C12.6188 9.72458 12.5352 9.52302 12.3899 9.37779C12.2446 9.23248 12.043 9.1488 11.8376 9.1488C11.6313 9.1488 11.4305 9.2324 11.2852 9.37779C11.1391 9.52302 11.0563 9.72388 11.0563 9.93005C11.0563 10.1356 11.1391 10.3371 11.2852 10.4824C11.4306 10.6278 11.6314 10.7113 11.8376 10.7113Z" fill="#00335B"/>
<path d="M37.3234 22.2543C37.1179 22.2543 36.9164 22.3379 36.7711 22.4833C36.6258 22.6285 36.5421 22.8301 36.5421 23.0355C36.5421 23.2411 36.6257 23.4426 36.7711 23.5879C36.9164 23.7332 37.1179 23.8168 37.3234 23.8168C37.5296 23.8168 37.7304 23.7333 37.8757 23.5879C38.0218 23.4426 38.1053 23.2411 38.1053 23.0355C38.1053 22.8301 38.0218 22.6285 37.8757 22.4833C37.7304 22.3379 37.5296 22.2543 37.3234 22.2543Z" fill="#00335B"/>
</svg>
