<svg width="35" height="42" viewBox="0 0 35 42" fill="none" xmlns="http://www.w3.org/2000/svg">
<mask id="path-1-outside-1" maskUnits="userSpaceOnUse" x="0" y="0" width="35" height="42" fill="black">
<rect fill="white" width="35" height="42"/>
<path d="M30.9028 33.6855C30.7038 33.0111 30.0944 32.6136 29.0921 32.503C28.9193 32.4843 28.7435 32.4737 28.5682 32.4737C27.2077 32.4737 26.2542 33.047 26.1502 33.1132C25.1404 33.7582 24.0828 34.2734 22.9791 34.6558C23.1433 34.4502 23.2895 34.227 23.4187 33.9895C23.4403 33.9481 23.4594 33.9067 23.4754 33.8633C23.7467 33.1369 23.5699 32.6283 23.3739 32.3282C23.07 31.8635 22.542 31.611 21.805 31.5766L21.6382 31.5726L16.5902 31.5716C15.0941 29.7602 12.3405 28.851 8.19825 28.7965L7.80487 28.7935C7.80236 28.7935 7.80035 28.7935 7.79834 28.7935C7.73605 28.7935 7.67526 28.801 7.61497 28.8121V28.3308C7.61497 27.7731 7.16483 27.3206 6.61019 27.3206H2.00478C1.45014 27.3206 1 27.7731 1 28.3308V39.4432C1 40.0009 1.45014 40.4535 2.00478 40.4535H6.61019C7.16483 40.4535 7.61497 40.0009 7.61497 39.4432V39.1336C12.6203 40.3893 16.2968 41 18.8509 41C22.8113 41 29.2926 36.3792 29.5664 36.1827C29.584 36.1696 29.6016 36.155 29.6192 36.1413C30.0608 35.7771 31.2343 34.8093 30.9028 33.6855ZM6.60969 39.4422H2.00428V28.3298H6.60969V39.4422ZM28.9821 35.3599C28.9821 35.3599 22.5345 39.9898 18.8504 39.9898C16.3942 39.9898 12.7102 39.3725 7.79784 38.138V29.8037L8.18468 29.8057C12.2626 29.8597 14.8966 30.7851 16.0873 32.5818H21.6136L21.7573 32.5848C22.4923 32.6192 22.7515 32.9273 22.5345 33.5072C21.7854 34.8972 20.2174 35.5908 17.8281 35.5908C17.0318 35.5908 16.144 35.514 15.1664 35.3599V36.2853L15.5944 36.3419C16.4013 36.4409 17.1915 36.4909 17.9657 36.4909C21.1499 36.4909 24.0542 35.6509 26.6807 33.9709C26.6807 33.9709 27.4559 33.4844 28.5682 33.4844C28.7018 33.4844 28.84 33.492 28.9826 33.5072C30.2039 33.642 30.3542 34.229 28.9821 35.3599ZM21.8854 22.8094V27.1579H21.0202V22.8094H21.8854ZM12.9946 16.0697L13.2623 16.8971L9.14827 18.2412L8.881 17.4133L12.9946 16.0697ZM29.8864 16.0697L34 17.4133L33.7327 18.2412L29.6187 16.8971L29.8864 16.0697ZM29.2946 2.09323L29.9954 2.60491L27.4529 6.12301L26.7525 5.61134L29.2946 2.09323ZM13.6105 2.09323L16.1531 5.61134L15.4528 6.12301L12.9102 2.60491L13.6105 2.09323ZM14.7997 23.7075C14.451 23.7075 14.1335 23.5145 13.9717 23.2044C13.8773 23.0246 13.8436 22.8124 13.8778 22.6084L15.0805 15.558L9.98575 10.565C9.8069 10.3897 9.70642 10.1543 9.70341 9.90327C9.70039 9.65223 9.79484 9.41533 9.96867 9.23551C10.1113 9.08802 10.3013 8.99104 10.5032 8.96124L17.5442 7.93233L20.6942 1.5174C20.9102 1.07189 21.5 0.868332 21.9457 1.09058C22.1285 1.1815 22.2797 1.33304 22.3702 1.5174L25.5202 7.93233L32.5607 8.96124C33.0696 9.03549 33.4243 9.51282 33.3514 10.0255C33.3223 10.2306 33.2243 10.424 33.0746 10.5675L27.9834 15.5575L29.1856 22.6079C29.2735 23.1185 28.9314 23.606 28.423 23.6938C28.2039 23.7292 28.01 23.6933 27.8307 23.5989L21.5312 20.2702L15.2342 23.5984C15.1021 23.6701 14.9509 23.7075 14.7997 23.7075ZM10.7886 9.94065L15.9712 15.0201C16.0893 15.1362 16.1435 15.3034 16.1159 15.4671L14.8926 22.6392L21.2986 19.2529C21.4448 19.1756 21.6196 19.1756 21.7658 19.2529L28.1723 22.6382L26.9495 15.4671C26.9213 15.3034 26.9756 15.1362 27.0936 15.0201L32.2758 9.94015L25.1147 8.89406C24.9509 8.87032 24.8098 8.76677 24.7364 8.61776L21.5327 2.09272L18.3289 8.61776C18.2561 8.76677 18.1149 8.87032 17.9511 8.89406L10.7886 9.94065Z"/>
</mask>
<path d="M30.9028 33.6855C30.7038 33.0111 30.0944 32.6136 29.0921 32.503C28.9193 32.4843 28.7435 32.4737 28.5682 32.4737C27.2077 32.4737 26.2542 33.047 26.1502 33.1132C25.1404 33.7582 24.0828 34.2734 22.9791 34.6558C23.1433 34.4502 23.2895 34.227 23.4187 33.9895C23.4403 33.9481 23.4594 33.9067 23.4754 33.8633C23.7467 33.1369 23.5699 32.6283 23.3739 32.3282C23.07 31.8635 22.542 31.611 21.805 31.5766L21.6382 31.5726L16.5902 31.5716C15.0941 29.7602 12.3405 28.851 8.19825 28.7965L7.80487 28.7935C7.80236 28.7935 7.80035 28.7935 7.79834 28.7935C7.73605 28.7935 7.67526 28.801 7.61497 28.8121V28.3308C7.61497 27.7731 7.16483 27.3206 6.61019 27.3206H2.00478C1.45014 27.3206 1 27.7731 1 28.3308V39.4432C1 40.0009 1.45014 40.4535 2.00478 40.4535H6.61019C7.16483 40.4535 7.61497 40.0009 7.61497 39.4432V39.1336C12.6203 40.3893 16.2968 41 18.8509 41C22.8113 41 29.2926 36.3792 29.5664 36.1827C29.584 36.1696 29.6016 36.155 29.6192 36.1413C30.0608 35.7771 31.2343 34.8093 30.9028 33.6855ZM6.60969 39.4422H2.00428V28.3298H6.60969V39.4422ZM28.9821 35.3599C28.9821 35.3599 22.5345 39.9898 18.8504 39.9898C16.3942 39.9898 12.7102 39.3725 7.79784 38.138V29.8037L8.18468 29.8057C12.2626 29.8597 14.8966 30.7851 16.0873 32.5818H21.6136L21.7573 32.5848C22.4923 32.6192 22.7515 32.9273 22.5345 33.5072C21.7854 34.8972 20.2174 35.5908 17.8281 35.5908C17.0318 35.5908 16.144 35.514 15.1664 35.3599V36.2853L15.5944 36.3419C16.4013 36.4409 17.1915 36.4909 17.9657 36.4909C21.1499 36.4909 24.0542 35.6509 26.6807 33.9709C26.6807 33.9709 27.4559 33.4844 28.5682 33.4844C28.7018 33.4844 28.84 33.492 28.9826 33.5072C30.2039 33.642 30.3542 34.229 28.9821 35.3599ZM21.8854 22.8094V27.1579H21.0202V22.8094H21.8854ZM12.9946 16.0697L13.2623 16.8971L9.14827 18.2412L8.881 17.4133L12.9946 16.0697ZM29.8864 16.0697L34 17.4133L33.7327 18.2412L29.6187 16.8971L29.8864 16.0697ZM29.2946 2.09323L29.9954 2.60491L27.4529 6.12301L26.7525 5.61134L29.2946 2.09323ZM13.6105 2.09323L16.1531 5.61134L15.4528 6.12301L12.9102 2.60491L13.6105 2.09323ZM14.7997 23.7075C14.451 23.7075 14.1335 23.5145 13.9717 23.2044C13.8773 23.0246 13.8436 22.8124 13.8778 22.6084L15.0805 15.558L9.98575 10.565C9.8069 10.3897 9.70642 10.1543 9.70341 9.90327C9.70039 9.65223 9.79484 9.41533 9.96867 9.23551C10.1113 9.08802 10.3013 8.99104 10.5032 8.96124L17.5442 7.93233L20.6942 1.5174C20.9102 1.07189 21.5 0.868332 21.9457 1.09058C22.1285 1.1815 22.2797 1.33304 22.3702 1.5174L25.5202 7.93233L32.5607 8.96124C33.0696 9.03549 33.4243 9.51282 33.3514 10.0255C33.3223 10.2306 33.2243 10.424 33.0746 10.5675L27.9834 15.5575L29.1856 22.6079C29.2735 23.1185 28.9314 23.606 28.423 23.6938C28.2039 23.7292 28.01 23.6933 27.8307 23.5989L21.5312 20.2702L15.2342 23.5984C15.1021 23.6701 14.9509 23.7075 14.7997 23.7075ZM10.7886 9.94065L15.9712 15.0201C16.0893 15.1362 16.1435 15.3034 16.1159 15.4671L14.8926 22.6392L21.2986 19.2529C21.4448 19.1756 21.6196 19.1756 21.7658 19.2529L28.1723 22.6382L26.9495 15.4671C26.9213 15.3034 26.9756 15.1362 27.0936 15.0201L32.2758 9.94015L25.1147 8.89406C24.9509 8.87032 24.8098 8.76677 24.7364 8.61776L21.5327 2.09272L18.3289 8.61776C18.2561 8.76677 18.1149 8.87032 17.9511 8.89406L10.7886 9.94065Z" fill="#00335B"/>
<path d="M30.9028 33.6855C30.7038 33.0111 30.0944 32.6136 29.0921 32.503C28.9193 32.4843 28.7435 32.4737 28.5682 32.4737C27.2077 32.4737 26.2542 33.047 26.1502 33.1132C25.1404 33.7582 24.0828 34.2734 22.9791 34.6558C23.1433 34.4502 23.2895 34.227 23.4187 33.9895C23.4403 33.9481 23.4594 33.9067 23.4754 33.8633C23.7467 33.1369 23.5699 32.6283 23.3739 32.3282C23.07 31.8635 22.542 31.611 21.805 31.5766L21.6382 31.5726L16.5902 31.5716C15.0941 29.7602 12.3405 28.851 8.19825 28.7965L7.80487 28.7935C7.80236 28.7935 7.80035 28.7935 7.79834 28.7935C7.73605 28.7935 7.67526 28.801 7.61497 28.8121V28.3308C7.61497 27.7731 7.16483 27.3206 6.61019 27.3206H2.00478C1.45014 27.3206 1 27.7731 1 28.3308V39.4432C1 40.0009 1.45014 40.4535 2.00478 40.4535H6.61019C7.16483 40.4535 7.61497 40.0009 7.61497 39.4432V39.1336C12.6203 40.3893 16.2968 41 18.8509 41C22.8113 41 29.2926 36.3792 29.5664 36.1827C29.584 36.1696 29.6016 36.155 29.6192 36.1413C30.0608 35.7771 31.2343 34.8093 30.9028 33.6855ZM6.60969 39.4422H2.00428V28.3298H6.60969V39.4422ZM28.9821 35.3599C28.9821 35.3599 22.5345 39.9898 18.8504 39.9898C16.3942 39.9898 12.7102 39.3725 7.79784 38.138V29.8037L8.18468 29.8057C12.2626 29.8597 14.8966 30.7851 16.0873 32.5818H21.6136L21.7573 32.5848C22.4923 32.6192 22.7515 32.9273 22.5345 33.5072C21.7854 34.8972 20.2174 35.5908 17.8281 35.5908C17.0318 35.5908 16.144 35.514 15.1664 35.3599V36.2853L15.5944 36.3419C16.4013 36.4409 17.1915 36.4909 17.9657 36.4909C21.1499 36.4909 24.0542 35.6509 26.6807 33.9709C26.6807 33.9709 27.4559 33.4844 28.5682 33.4844C28.7018 33.4844 28.84 33.492 28.9826 33.5072C30.2039 33.642 30.3542 34.229 28.9821 35.3599ZM21.8854 22.8094V27.1579H21.0202V22.8094H21.8854ZM12.9946 16.0697L13.2623 16.8971L9.14827 18.2412L8.881 17.4133L12.9946 16.0697ZM29.8864 16.0697L34 17.4133L33.7327 18.2412L29.6187 16.8971L29.8864 16.0697ZM29.2946 2.09323L29.9954 2.60491L27.4529 6.12301L26.7525 5.61134L29.2946 2.09323ZM13.6105 2.09323L16.1531 5.61134L15.4528 6.12301L12.9102 2.60491L13.6105 2.09323ZM14.7997 23.7075C14.451 23.7075 14.1335 23.5145 13.9717 23.2044C13.8773 23.0246 13.8436 22.8124 13.8778 22.6084L15.0805 15.558L9.98575 10.565C9.8069 10.3897 9.70642 10.1543 9.70341 9.90327C9.70039 9.65223 9.79484 9.41533 9.96867 9.23551C10.1113 9.08802 10.3013 8.99104 10.5032 8.96124L17.5442 7.93233L20.6942 1.5174C20.9102 1.07189 21.5 0.868332 21.9457 1.09058C22.1285 1.1815 22.2797 1.33304 22.3702 1.5174L25.5202 7.93233L32.5607 8.96124C33.0696 9.03549 33.4243 9.51282 33.3514 10.0255C33.3223 10.2306 33.2243 10.424 33.0746 10.5675L27.9834 15.5575L29.1856 22.6079C29.2735 23.1185 28.9314 23.606 28.423 23.6938C28.2039 23.7292 28.01 23.6933 27.8307 23.5989L21.5312 20.2702L15.2342 23.5984C15.1021 23.6701 14.9509 23.7075 14.7997 23.7075ZM10.7886 9.94065L15.9712 15.0201C16.0893 15.1362 16.1435 15.3034 16.1159 15.4671L14.8926 22.6392L21.2986 19.2529C21.4448 19.1756 21.6196 19.1756 21.7658 19.2529L28.1723 22.6382L26.9495 15.4671C26.9213 15.3034 26.9756 15.1362 27.0936 15.0201L32.2758 9.94015L25.1147 8.89406C24.9509 8.87032 24.8098 8.76677 24.7364 8.61776L21.5327 2.09272L18.3289 8.61776C18.2561 8.76677 18.1149 8.87032 17.9511 8.89406L10.7886 9.94065Z" stroke="#00335B" stroke-width="0.4" mask="url(#path-1-outside-1)"/>
</svg>
