<svg width="44" height="44" viewBox="0 0 44 44" fill="none" xmlns="http://www.w3.org/2000/svg">
<g clip-path="url(#clip0)">
<path opacity="0.05" d="M22.0078 0.859375C13.4648 0.859375 6.53906 7.78508 6.53906 16.3281C6.53906 25.7812 22.0078 43.1406 22.0078 43.1406C22.0078 43.1406 37.4766 25.7812 37.4766 16.3281C37.4766 7.78508 30.5509 0.859375 22.0078 0.859375ZM22.0078 27.5C15.8375 27.5 10.8359 22.4984 10.8359 16.3281C10.8359 10.1578 15.8375 5.15625 22.0078 5.15625C28.1781 5.15625 33.1797 10.1578 33.1797 16.3281C33.1797 22.4984 28.1781 27.5 22.0078 27.5Z" fill="#0079C8"/>
<path d="M36.8517 9.51844C36.4255 8.59031 35.9082 7.69656 35.3135 6.86211C34.724 6.03539 34.0537 5.25852 33.3206 4.55383C32.5859 3.84828 31.7832 3.20891 30.9324 2.65289C30.073 2.09086 29.157 1.60875 28.2108 1.21945C26.2419 0.410781 24.1544 0 22.0078 0C19.8035 0 17.6654 0.432266 15.6519 1.28305C14.6851 1.69297 13.7518 2.19914 12.8787 2.78867C12.0141 3.37305 11.2012 4.04336 10.4621 4.78242C9.72305 5.52148 9.05273 6.33445 8.46836 7.19898C7.87883 8.07211 7.37266 9.00453 6.96273 9.97219C6.11195 11.9857 5.67969 14.1238 5.67969 16.3281C5.68313 17.5545 5.91945 18.9398 6.3818 20.4462C6.79602 21.7972 7.38555 23.2487 8.18477 24.8841C9.19625 26.9448 10.518 29.2153 12.1138 31.6327C13.3823 33.5552 14.8346 35.5867 16.4313 37.6716C17.9063 39.5972 19.2304 41.2081 20.1353 42.2813H14.961C14.4864 42.2813 14.1016 42.6661 14.1016 43.1407C14.1016 43.6153 14.4864 44.0001 14.961 44.0001H29.0548C29.5294 44.0001 29.9142 43.6153 29.9142 43.1407C29.9142 42.6661 29.5294 42.2813 29.0548 42.2813H23.8818C24.8713 41.1085 26.3581 39.296 28.0167 37.1045C29.7311 34.8374 31.2642 32.6495 32.5731 30.6007C34.2231 28.0183 35.5405 25.6206 36.4892 23.4739C36.68 23.0408 36.4832 22.532 36.0501 22.3413C35.9392 22.2923 35.8232 22.2674 35.7029 22.2674C35.3626 22.2674 35.0541 22.4684 34.9167 22.7804C32.8524 27.4623 29.28 32.5902 26.6469 36.0672C25.149 38.0456 23.792 39.7092 22.9173 40.7568C22.6053 41.1298 22.3002 41.4907 22.0081 41.831C20.7207 40.3314 17.3958 36.3534 14.2599 31.7471C12.2232 28.7574 10.611 26.0108 9.46721 23.5856C8.10854 20.7153 7.39268 18.2051 7.3987 16.3282C7.3987 12.4266 8.91893 8.75798 11.6775 5.99766C14.4375 3.23898 18.1062 1.71875 22.0078 1.71875H22.0095C29.8624 1.71875 36.2734 7.85984 36.6043 15.6999C36.6232 16.1623 37.0005 16.5232 37.462 16.5232C37.474 16.5232 37.4869 16.5232 37.4989 16.5223C37.7284 16.5129 37.9398 16.4149 38.0953 16.2456C38.2509 16.0763 38.3307 15.8572 38.3213 15.6277C38.2311 13.4991 37.737 11.4434 36.8517 9.51844Z" fill="#0079C8"/>
<path d="M37.0137 20.3481C37.4883 20.3481 37.873 19.9634 37.873 19.4888C37.873 19.0141 37.4883 18.6294 37.0137 18.6294C36.5391 18.6294 36.1543 19.0141 36.1543 19.4888C36.1543 19.9634 36.5391 20.3481 37.0137 20.3481Z" fill="#0079C8"/>
<path d="M22.0078 4.29688C15.3631 4.29688 9.97656 9.68344 9.97656 16.3281C9.97656 22.9728 15.3631 28.3594 22.0078 28.3594C28.6525 28.3594 34.0391 22.9728 34.0391 16.3281C34.0391 9.68344 28.6524 4.29688 22.0078 4.29688ZM22.0078 26.6406C16.3124 26.6406 11.6953 22.0235 11.6953 16.3281C11.6953 10.6327 16.3124 6.01562 22.0078 6.01562C27.7032 6.01562 32.3203 10.6327 32.3203 16.3281C32.3203 22.0235 27.7032 26.6406 22.0078 26.6406Z" fill="#0079C8"/>
</g>
<defs>
<clipPath id="clip0">
<rect width="44" height="44" fill="white"/>
</clipPath>
</defs>
</svg>
