<svg width="64" height="64" viewBox="0 0 64 64" fill="none" xmlns="http://www.w3.org/2000/svg">
<path fill-rule="evenodd" clip-rule="evenodd" d="M28 7.33337C28 5.12004 29.7867 3.33337 32 3.33337C34.2133 3.33337 36 5.12004 36 7.33337V10.4534C44.3733 12.2667 50.6667 19.7334 50.6667 28.6667V44.6667L56 50V52.6667H8V50L13.3333 44.6667V28.6667C13.3333 19.7334 19.6267 12.2667 28 10.4534V7.33337ZM32 15.3334C39.36 15.3334 45.3333 21.3067 45.3333 28.6667V47.3334H18.6667V28.6667C18.6667 21.3067 24.64 15.3334 32 15.3334ZM26.6933 55.36C26.6933 58.2934 29.0667 60.6667 32 60.6667C34.9333 60.6667 37.3067 58.2934 37.3067 55.36H26.6933ZM34.6667 20.6667V31.3334H29.3333V20.6667H34.6667ZM34.6667 42V36.6667H29.3333V42H34.6667Z" fill="white"/>
</svg>
