<svg width="64" height="64" viewBox="0 0 64 64" fill="none" xmlns="http://www.w3.org/2000/svg">
<path fill-rule="evenodd" clip-rule="evenodd" d="M21.333 5.33337H53.333C56.2663 5.33337 58.6663 7.73337 58.6663 10.6667V42.6667C58.6663 45.6 56.2663 48 53.333 48H21.333C18.3997 48 15.9997 45.6 15.9997 42.6667V10.6667C15.9997 7.73337 18.3997 5.33337 21.333 5.33337ZM5.33301 16H10.6663V53.3334H47.9997V58.6667H10.6663C7.73301 58.6667 5.33301 56.2667 5.33301 53.3334V16ZM53.333 42.6667H21.333V10.6667H53.333V42.6667ZM39.9997 37.3334H34.6663V29.3334H26.6663V24H34.6663V16H39.9997V24H47.9997V29.3334H39.9997V37.3334Z" fill="white"/>
</svg>
