<svg width="64" height="64" viewBox="0 0 64 64" fill="none" xmlns="http://www.w3.org/2000/svg">
<path fill-rule="evenodd" clip-rule="evenodd" d="M7.20043 3.43994L3.44043 7.19994L13.1471 16.9066L8.77376 21.2799V41.1733L22.8271 55.2266H42.7204L47.0938 50.8533L56.8004 60.5599L60.5604 56.7999L7.20043 3.43994ZM25.0404 12.5599H40.5071L51.4404 23.4933V38.9599L50.8538 39.5466L54.6404 43.3066L56.7738 41.1733V21.2799L42.7204 7.22661H22.8271L20.6938 9.35994L24.4538 13.1466L25.0404 12.5599ZM32.7738 39.2266C31.301 39.2266 30.1071 40.4205 30.1071 41.8933C30.1071 43.366 31.301 44.5599 32.7738 44.5599C34.2465 44.5599 35.4404 43.366 35.4404 41.8933C35.4404 40.4205 34.2465 39.2266 32.7738 39.2266ZM35.4404 17.8933V24.1066L30.1071 18.7733V17.8933H35.4404ZM25.0404 49.8933H40.5071L43.3071 47.0933L16.9071 20.6933L14.1071 23.4933V38.9599L25.0404 49.8933Z" fill="white"/>
</svg>
