<svg width="64" height="64" viewBox="0 0 64 64" fill="none" xmlns="http://www.w3.org/2000/svg">
<path fill-rule="evenodd" clip-rule="evenodd" d="M31.9997 18.6667H58.6663V56H5.33301V8H31.9997V18.6667ZM10.6663 50.6667H15.9997V45.3333H10.6663V50.6667ZM15.9997 40H10.6663V34.6667H15.9997V40ZM10.6663 29.3333H15.9997V24H10.6663V29.3333ZM15.9997 18.6667H10.6663V13.3333H15.9997V18.6667ZM21.333 50.6667H26.6663V45.3333H21.333V50.6667ZM26.6663 40H21.333V34.6667H26.6663V40ZM21.333 29.3333H26.6663V24H21.333V29.3333ZM26.6663 18.6667H21.333V13.3333H26.6663V18.6667ZM31.9997 50.6667H53.333V24H31.9997V29.3333H37.333V34.6667H31.9997V40H37.333V45.3333H31.9997V50.6667ZM47.9997 29.3333H42.6663V34.6667H47.9997V29.3333ZM42.6663 40H47.9997V45.3333H42.6663V40Z" fill="white"/>
</svg>
