<svg width="64" height="64" viewBox="0 0 64 64" fill="none" xmlns="http://www.w3.org/2000/svg">
<path fill-rule="evenodd" clip-rule="evenodd" d="M50.6667 10.6667H39.52C38.4 7.57337 35.4667 5.33337 32 5.33337C28.5333 5.33337 25.6 7.57337 24.48 10.6667H13.3333C10.4 10.6667 8 13.0667 8 16V53.3334C8 56.2667 10.4 58.6667 13.3333 58.6667H50.6667C53.6 58.6667 56 56.2667 56 53.3334V16C56 13.0667 53.6 10.6667 50.6667 10.6667ZM32 10C32.5867 10 33.0933 10.2667 33.4667 10.6667C33.7867 11.0134 34 11.4934 34 12C34 13.0934 33.0933 14 32 14C30.9067 14 30 13.0934 30 12C30 11.4934 30.2133 11.0134 30.5333 10.6667C30.9067 10.2667 31.4133 10 32 10ZM13.3333 16V53.3334H50.6667V16H13.3333ZM32 18.6667C27.6 18.6667 24 22.2667 24 26.6667C24 31.0667 27.6 34.6667 32 34.6667C36.4 34.6667 40 31.0667 40 26.6667C40 22.2667 36.4 18.6667 32 18.6667ZM29.3333 26.6667C29.3333 28.1334 30.5333 29.3334 32 29.3334C33.4667 29.3334 34.6667 28.1334 34.6667 26.6667C34.6667 25.2 33.4667 24 32 24C30.5333 24 29.3333 25.2 29.3333 26.6667ZM16 46.5867V50.6667H48V46.5867C48 39.92 37.4133 37.04 32 37.04C26.5867 37.04 16 39.8934 16 46.5867ZM32 42.3467C28.5067 42.3467 24 43.84 22.16 45.3334H41.84C40.0267 43.84 35.4933 42.3467 32 42.3467Z" fill="white"/>
</svg>
