<svg width="64" height="64" viewBox="0 0 64 64" fill="none" xmlns="http://www.w3.org/2000/svg">
<path fill-rule="evenodd" clip-rule="evenodd" d="M13.3333 8H50.6667C53.6 8 56 10.4 56 13.3333V50.6667C56 53.6 53.6 56 50.6667 56H13.3333C10.4 56 8 53.6 8 50.6667V13.3333C8 10.4 10.4 8 13.3333 8ZM34.6667 50.6667H50.6667V34.6667L34.6667 50.6667ZM34.6667 50.6667L24 40L13.3333 50.6667H34.6667ZM50.6667 28L34.6667 44L24 33.3333L13.3333 44V13.3333H50.6667V28ZM32 16H36V24V32H32V16ZM45.8667 32L40.5333 24L45.8667 16H41.3333L36 24L41.3333 32H45.8667ZM22.6667 28H29.3333V32H18.6667V22H25.3333V20H18.6667V16H29.3333V26H22.6667V28Z" fill="white"/>
</svg>
