<svg width="245" height="245" viewBox="0 0 245 245" fill="none" xmlns="http://www.w3.org/2000/svg">
<g clip-path="url(#clip0_39_1373)">
<g opacity="0.2">
<path d="M64.5098 184.905C80.4729 182.213 100.852 174.073 113.06 162.334C123.855 151.965 136.316 137.308 138.098 119.079C138.732 112.68 136.655 106.301 132.795 102.705C131.489 101.484 129.934 100.562 128.236 100.002C126.539 99.4426 124.74 99.2583 122.964 99.4623C114.27 100.286 109.051 108.029 103.866 116.277C102.28 118.77 100.666 121.38 98.963 123.828C87.419 140.361 72.9048 156.505 56.8598 164.954C56.6453 165.073 56.4792 165.263 56.3899 165.491C56.3005 165.72 56.2936 165.972 56.3703 166.205C56.4091 166.314 56.4709 166.413 56.5517 166.496C56.6324 166.578 56.7301 166.643 56.838 166.684C56.9458 166.726 57.0614 166.743 57.1767 166.736C57.292 166.728 57.4043 166.696 57.506 166.641C73.8789 158.044 88.7316 141.666 100.53 124.862C102.281 122.374 103.909 119.748 105.505 117.241C110.498 109.406 115.47 102.052 123.197 101.332C124.682 101.153 126.189 101.3 127.611 101.765C129.033 102.23 130.336 103 131.428 104.022C134.822 107.161 136.735 113.08 136.187 118.889C134.52 136.597 122.362 150.878 111.905 160.949C100.068 172.373 78.4855 182.691 64.1233 183.047C63.888 183.074 63.6696 183.183 63.5068 183.355C63.3439 183.527 63.247 183.751 63.233 183.988C63.2197 184.101 63.2296 184.215 63.262 184.324C63.2943 184.433 63.3486 184.535 63.4215 184.622C63.4943 184.71 63.5842 184.781 63.6856 184.833C63.787 184.884 63.8979 184.915 64.0115 184.922L64.5098 184.905Z" fill="#0079C8"/>
<path d="M62.3281 180.358C75.7695 177.663 90.3637 170.45 102.043 162.878C112 156.424 121.148 144.314 127.885 132.55C133.328 123.053 133.222 112.307 127.143 108.525C126.243 107.949 125.234 107.564 124.179 107.393C123.125 107.221 122.046 107.267 121.01 107.528C115.489 108.855 110.862 115.455 108.022 120.729C107.295 122.091 106.616 123.386 105.972 124.637C101.782 132.703 98.8272 138.545 92.2581 144.091C91.6341 144.623 91.0045 145.166 90.3767 145.721C87.2671 148.499 83.6844 151.613 75.519 156.985C75.3121 157.121 75.1632 157.329 75.1013 157.569C75.0395 157.809 75.0691 158.063 75.1844 158.282C75.2411 158.384 75.3187 158.473 75.4122 158.542C75.5057 158.612 75.6129 158.662 75.7267 158.687C75.8406 158.712 75.9585 158.714 76.0728 158.69C76.1871 158.667 76.2952 158.62 76.39 158.552C84.5828 153.063 88.331 149.955 91.5241 147.131C92.1463 146.586 92.7526 146.047 93.3815 145.53C100.285 139.773 103.344 133.749 107.663 125.474C108.306 124.23 108.983 122.943 109.713 121.592C113.503 114.604 117.756 110.266 121.506 109.359C122.279 109.16 123.085 109.123 123.873 109.251C124.661 109.378 125.414 109.668 126.084 110.102C130.617 112.925 131.738 121.957 126.231 131.61C119.596 143.218 110.816 154.808 101.171 161.247C89.9431 168.725 74.8288 176.682 62.3419 178.481C62.2752 178.487 62.2082 178.487 62.1415 178.481C61.9034 178.512 61.6852 178.63 61.528 178.812C61.3709 178.993 61.2859 179.226 61.2891 179.466C61.2835 179.58 61.3005 179.693 61.3391 179.8C61.3777 179.907 61.437 180.005 61.5138 180.089C61.5906 180.173 61.6833 180.241 61.7864 180.288C61.8896 180.336 62.0012 180.363 62.1148 180.367C62.186 180.369 62.2573 180.366 62.3281 180.358Z" fill="#0079C8"/>
<path d="M60.3326 176.028C60.4021 176.02 60.4711 176.007 60.5393 175.992C81.4751 169.066 105.395 158.746 118.912 135.277C124.408 125.755 126.326 121.166 125.518 118.321C125.335 117.733 125.033 117.19 124.629 116.725C124.225 116.26 123.729 115.885 123.172 115.622C122.747 115.382 122.278 115.228 121.793 115.169C121.308 115.111 120.816 115.148 120.345 115.28C117.726 116.05 115.73 119.771 112.559 125.965C111.342 128.333 109.957 131.11 108.334 134.063C97.1735 154.447 76.0418 164.051 57.9718 169.961C57.7398 170.045 57.5464 170.211 57.4274 170.427C57.3084 170.643 57.2721 170.895 57.3252 171.136C57.3463 171.249 57.3912 171.356 57.457 171.449C57.5228 171.543 57.6078 171.622 57.7065 171.68C57.8051 171.738 57.9151 171.774 58.029 171.786C58.1428 171.798 58.2579 171.785 58.3665 171.749C76.9472 165.794 98.4829 155.793 109.976 134.948C111.614 131.972 113.001 129.187 114.246 126.786C116.998 121.47 119.095 117.645 120.941 117.087C121.163 117.024 121.395 117.008 121.623 117.039C121.852 117.071 122.071 117.15 122.267 117.271C122.597 117.413 122.892 117.625 123.133 117.891C123.374 118.157 123.555 118.472 123.664 118.814C124.29 120.993 122.299 125.641 117.316 134.347C104.159 157.386 80.5203 167.125 60.1305 174.22C59.9125 174.316 59.7333 174.482 59.6219 174.693C59.5105 174.903 59.4736 175.145 59.517 175.379C59.5489 175.569 59.6498 175.74 59.8004 175.86C59.951 175.98 60.1405 176.04 60.3326 176.028Z" fill="#0079C8"/>
<path d="M90.6965 216.474C90.8067 216.474 90.9155 216.449 91.0147 216.401C91.1139 216.353 91.201 216.283 91.2693 216.197C91.4276 216.013 91.52 215.781 91.532 215.539C91.5439 215.296 91.4746 215.057 91.3351 214.858C89.4224 212.366 88.4726 209.268 88.6602 206.132C89.0236 196.286 98.4526 185.303 101.452 182.241C103.377 180.289 105.226 178.558 107.035 176.889C111.671 172.628 116.148 168.688 121.977 162.134C131.047 151.928 138.419 141.006 141.455 131.631C145.742 118.405 148.359 108.048 137.132 97.6287C128.041 89.2108 116.724 93.2172 111.767 96.936C105.27 101.817 99.9793 109.934 95.084 117.86C94.7849 118.35 94.6339 118.593 94.3335 119.09C89.2506 127.363 80.3466 137.929 74.3348 144.244C73.909 144.701 73.693 144.925 73.2697 145.367C67.9515 151.028 63.1667 156.512 59.051 154.724C55.8592 153.329 54.2294 144.573 55.2486 133.255C55.2623 133.136 55.2503 133.015 55.2135 132.9C55.1767 132.786 55.1158 132.681 55.035 132.592C54.9543 132.503 54.8555 132.432 54.7451 132.385C54.6348 132.337 54.5156 132.313 54.3954 132.315C54.137 132.307 53.8853 132.399 53.6934 132.572C53.5016 132.745 53.3846 132.986 53.3673 133.244C52.4469 143.051 53.4608 154.421 58.2625 156.466C63.5651 158.743 68.7373 152.784 74.5488 146.625C74.9751 146.187 75.191 145.963 75.6143 145.521C81.738 139.127 90.786 128.426 95.9938 120.02C96.2898 119.526 96.4495 119.277 96.7602 118.785C101.591 111.014 106.808 103.067 113.052 98.4031C117.511 95.0759 127.645 91.4614 135.764 98.9533C146.184 108.588 143.836 118.005 139.682 131.008C136.758 140.129 129.625 150.816 120.743 160.857C115.004 167.347 110.598 171.231 106.004 175.462C104.166 177.145 102.322 178.891 100.37 180.888C96.3776 184.964 87.4392 195.865 87.1047 206.161C86.9018 209.77 88.0013 213.331 90.203 216.197C90.2622 216.274 90.3364 216.338 90.4212 216.386C90.5061 216.433 90.5997 216.463 90.6965 216.474Z" fill="#0079C8"/>
<path d="M83.9236 212.705C84.0756 212.703 84.2227 212.651 84.3421 212.557C84.5305 212.409 84.6643 212.201 84.7225 211.968C84.7807 211.735 84.76 211.49 84.6638 211.27C82.5994 206.679 83.5824 203.288 85.4152 197.686C85.6782 196.854 85.8244 196.44 86.0923 195.624C89.0025 186.455 94.2069 179.42 100.235 176.558C100.455 176.449 100.627 176.264 100.719 176.037C100.81 175.81 100.815 175.557 100.732 175.327C100.699 175.216 100.642 175.114 100.566 175.027C100.49 174.94 100.396 174.87 100.29 174.822C100.185 174.775 100.071 174.75 99.9549 174.75C99.8392 174.75 99.725 174.775 99.6197 174.823C93.156 177.956 87.6117 185.386 84.5631 195.034C84.3001 195.866 84.1509 196.276 83.902 197.092C82.0529 202.789 80.8478 206.906 83.2869 212.226C83.3349 212.359 83.4207 212.476 83.5338 212.561C83.6469 212.646 83.7823 212.696 83.9236 212.705Z" fill="#0079C8"/>
<path d="M69.0635 190.53C72.4261 190.37 76.2626 188.207 80.0766 186.176C81.969 185.127 83.929 184.204 85.9438 183.415C86.1623 183.314 86.3399 183.141 86.4468 182.926C86.5538 182.71 86.5837 182.464 86.5317 182.229C86.5123 182.117 86.4688 182.011 86.4042 181.918C86.3396 181.825 86.2554 181.747 86.1575 181.689C86.0597 181.632 85.9505 181.597 85.8376 181.586C85.7247 181.575 85.6108 181.589 85.5038 181.626C83.4268 182.46 81.4012 183.417 79.4377 184.49C74.2476 187.25 69.0332 190.286 65.6502 187.618C65.558 187.553 65.453 187.508 65.3421 187.486C65.2312 187.464 65.117 187.467 65.007 187.493C64.8971 187.519 64.794 187.568 64.7044 187.637C64.6149 187.706 64.5411 187.793 64.4879 187.892C64.3547 188.091 64.2976 188.332 64.3272 188.57C64.3568 188.807 64.4711 189.026 64.649 189.187C65.9028 190.167 67.4763 190.645 69.0635 190.53Z" fill="#0079C8"/>
<path d="M70.8436 195.923C74.1398 195.797 78.6854 193.933 82.9176 190.87C83.1087 190.72 83.2423 190.509 83.2958 190.272C83.3493 190.035 83.3194 189.787 83.2112 189.57C83.1644 189.47 83.0961 189.382 83.0111 189.312C82.9261 189.241 82.8264 189.191 82.7195 189.164C82.6126 189.137 82.5011 189.134 82.393 189.156C82.2849 189.177 82.183 189.223 82.0945 189.288C75.5382 194.05 69.5139 194.94 68.1345 193.294C68.0636 193.209 67.9742 193.141 67.8731 193.096C67.7719 193.05 67.6617 193.029 67.5508 193.032C67.44 193.036 67.3315 193.065 67.2336 193.117C67.1357 193.169 67.051 193.243 66.986 193.333C66.8313 193.516 66.7434 193.746 66.737 193.985C66.7305 194.225 66.8057 194.459 66.9503 194.65C67.7483 195.603 69.1287 196.001 70.8436 195.923Z" fill="#0079C8"/>
<path d="M108.97 223.754C112.475 224.204 116.69 224.099 122.035 223.956C122.26 223.92 122.464 223.803 122.609 223.627C122.753 223.451 122.828 223.228 122.818 223C122.833 222.89 122.826 222.779 122.796 222.672C122.767 222.565 122.715 222.465 122.646 222.379C122.576 222.293 122.49 222.222 122.392 222.17C122.293 222.119 122.186 222.088 122.075 222.079C108.569 222.759 102.805 222.082 97.636 215.317C92.0431 207.98 94.7397 199.375 99.1953 194.248C101.849 191.28 104.662 188.459 107.621 185.796C110.896 182.759 114.075 179.932 116.356 177.443C116.858 176.894 117.082 176.644 117.614 176.073C122.51 170.783 133.103 160.092 139.901 148.478C147.319 135.786 151.469 127.191 151.294 113.367C151.113 98.1115 139.995 87.8732 128.443 86.3414C128.184 86.2999 127.919 86.3615 127.705 86.5131C127.491 86.6646 127.345 86.8941 127.299 87.1521C127.288 87.2819 127.303 87.4125 127.343 87.5365C127.382 87.6605 127.446 87.7754 127.53 87.8748C127.615 87.9741 127.718 88.0559 127.833 88.1155C127.949 88.175 128.076 88.2111 128.205 88.2218C138.95 89.6537 149.122 99.1862 149.355 113.293C149.564 126.681 145.549 135.075 138.35 147.51C131.738 158.914 121.295 169.524 116.455 174.775C115.941 175.327 115.69 175.602 115.184 176.154C113.018 178.568 109.845 181.385 106.611 184.38C103.625 187.097 100.785 189.972 98.105 192.992C92.7646 199.205 90.5919 208.95 96.5191 216.677C99.9433 221.099 103.593 223.068 108.97 223.754Z" fill="#0079C8"/>
<path d="M61.5075 149.921C64.0791 149.721 67.3207 147.01 70.8998 142.278C71.9844 140.863 73.301 139.174 74.7616 137.351C77.895 133.458 81.5376 129.106 84.9233 124.776C90.9689 117.022 96.6726 109.234 102.323 100.959C104.491 97.7131 107.28 94.9276 110.528 92.7632C113.777 90.5988 117.422 89.0982 121.252 88.3479C121.377 88.3278 121.497 88.2823 121.604 88.2143C121.71 88.1463 121.802 88.0571 121.873 87.9523C121.944 87.8475 121.993 87.7294 122.017 87.605C122.04 87.4807 122.038 87.3528 122.011 87.2293C121.93 86.9746 121.757 86.7598 121.524 86.6282C121.292 86.4966 121.018 86.4581 120.759 86.5204C116.678 87.3182 112.797 88.9182 109.339 91.2274C105.881 93.5365 102.916 96.509 100.616 99.9725C95.0231 108.219 89.3808 115.957 83.393 123.683C80.0619 127.981 76.4401 132.344 73.3196 136.228C71.8522 138.069 70.5209 139.755 69.446 141.202C64.5424 147.758 61.8465 148.111 61.1322 148.042C60.7845 147.995 60.459 147.845 60.1982 147.61C59.9373 147.375 59.7533 147.067 59.6702 146.726C58.806 144.321 59.9493 139.37 63.9425 134.693C64.1078 134.509 64.1937 134.268 64.1812 134.021C64.1687 133.774 64.0589 133.543 63.8758 133.377C63.6794 133.224 63.4314 133.155 63.1844 133.183C62.9374 133.21 62.711 133.333 62.5534 133.526C57.8454 138.935 56.9259 144.659 57.9483 147.488C58.1341 148.136 58.5102 148.713 59.028 149.144C59.5457 149.576 60.1811 149.842 60.8519 149.908C61.0697 149.929 61.2889 149.934 61.5075 149.921Z" fill="#0079C8"/>
<path d="M110.018 218.567C113.255 218.938 116.522 218.965 119.765 218.645C119.992 218.592 120.191 218.458 120.327 218.268C120.462 218.078 120.524 217.845 120.5 217.613C120.509 217.504 120.495 217.393 120.459 217.289C120.422 217.185 120.365 217.09 120.29 217.009C120.214 216.929 120.123 216.865 120.022 216.822C119.92 216.778 119.811 216.757 119.701 216.759C116.142 217.206 109.572 217.19 106.055 215.664C102.537 214.137 99.5096 209.609 101.116 202.894C102.035 199.013 109.957 191.3 114.388 187.295C114.826 186.901 115.057 186.698 115.495 186.304C122.778 179.741 132.38 169.048 135.993 164.809C143.746 155.69 150.435 143.63 154.928 131.544C158.731 121.29 157.74 104.354 152.437 96.1138C146.597 87.0329 137.296 82.0393 130.677 80.5587C124.059 79.0781 113.355 81.6424 105.443 86.7251C98.2093 91.379 94.1616 97.6843 90.0223 104.371C88.9685 106.093 87.8795 107.866 86.7272 109.678C82.3383 116.586 73.9627 126.65 67.6258 134.958C65.8588 137.27 64.2666 139.399 62.9998 141.195C62.923 141.291 62.8663 141.401 62.8331 141.519C62.7999 141.637 62.7908 141.76 62.8064 141.882C62.8221 142.004 62.862 142.121 62.924 142.227C62.9859 142.332 63.0687 142.425 63.1671 142.498C63.2693 142.567 63.3843 142.614 63.5052 142.638C63.6262 142.662 63.7506 142.661 63.8713 142.636C63.9919 142.61 64.1062 142.561 64.2075 142.491C64.3089 142.421 64.3951 142.331 64.4612 142.227C65.7518 140.447 67.3422 138.305 69.1024 136.012C75.4798 127.687 83.9278 117.599 88.4176 110.586C89.5784 108.769 90.6834 106.991 91.7563 105.268C95.9921 98.4806 99.7618 92.6308 106.649 88.2545C114.014 83.5399 124.375 81.1021 130.268 82.3796C136.462 83.7348 145.227 88.4366 150.757 97.0071C155.715 104.671 156.713 121.169 153.17 130.832C148.831 142.68 142.345 154.525 134.753 163.497C131.191 167.707 121.697 178.343 114.525 184.826C114.077 185.215 113.859 185.427 113.419 185.817C107.099 191.587 100.596 198.34 99.6293 202.456C97.7677 210.332 101.438 215.659 105.505 217.423C106.951 218.006 108.469 218.391 110.018 218.567Z" fill="#0079C8"/>
<path d="M78.7853 208.955C78.8019 208.955 78.8185 208.954 78.8349 208.952C79.0637 208.909 79.2687 208.784 79.411 208.599C79.5533 208.415 79.6229 208.185 79.6066 207.953C79.5997 203.803 78.6154 200.773 76.8595 199.517C75.4679 198.519 73.6807 198.577 71.5902 199.749C71.3965 199.883 71.2517 200.077 71.1774 200.301C71.103 200.525 71.1032 200.767 71.178 200.99C71.2078 201.096 71.261 201.193 71.3337 201.274C71.4064 201.356 71.4967 201.42 71.5977 201.461C71.6988 201.503 71.8079 201.521 71.917 201.514C72.0261 201.508 72.1321 201.476 72.2273 201.423C73.7957 200.563 75.0701 200.474 75.9912 201.127C77.2899 202.048 78.0494 204.579 78.0779 208.047C78.0638 208.154 78.071 208.262 78.0991 208.365C78.1272 208.468 78.1756 208.565 78.2414 208.649C78.3073 208.734 78.3893 208.804 78.4826 208.857C78.576 208.909 78.6789 208.943 78.7853 208.955Z" fill="#0079C8"/>
<path d="M62.4241 130.471C62.4362 130.463 62.4477 130.455 62.4586 130.446C73.9804 126.857 81.7014 110.545 88.2291 99.4328C89.4651 97.3294 90.6405 95.4047 91.6143 93.9523C95.8384 87.5085 101.879 82.4621 108.971 79.4516C116.064 76.441 123.89 75.6014 131.459 77.0391L131.516 77.0376C131.644 77.0734 131.778 77.0817 131.91 77.0621C132.041 77.0424 132.167 76.9951 132.279 76.9234C132.391 76.8517 132.487 76.7571 132.559 76.6459C132.632 76.5348 132.681 76.4095 132.702 76.2782C132.723 76.147 132.716 76.0127 132.682 75.8843C132.647 75.7559 132.586 75.6362 132.502 75.5331C132.418 75.43 132.313 75.3457 132.195 75.2859C132.076 75.2261 131.946 75.1921 131.813 75.1861C117.117 72.4449 99.9708 77.6617 89.8725 93.0351C88.8937 94.5169 87.7214 96.4458 86.4846 98.5755C80.3194 109.114 72.1115 126.462 62.4448 128.576C62.4448 128.576 62.4449 128.576 62.4233 128.591C60.1063 128.756 57.9612 127.151 55.988 123.776C55.8505 123.57 55.6367 123.426 55.3935 123.377C55.1504 123.328 54.8975 123.377 54.6904 123.514C54.4739 123.641 54.3145 123.847 54.2452 124.088C54.1758 124.329 54.2019 124.588 54.3178 124.811C56.651 128.809 59.3531 130.696 62.4241 130.471Z" fill="#0079C8"/>
<path d="M138.982 170.049C139.141 170.081 139.305 170.065 139.455 170.004C139.605 169.943 139.733 169.838 139.824 169.705C151.539 153.65 166.369 130.338 162.341 107.994C159.66 93.0955 150.946 82.2651 139.476 77.6388C139.232 77.5272 138.955 77.5096 138.7 77.5896C138.444 77.6695 138.226 77.8413 138.09 78.0718C138.04 78.1906 138.015 78.3183 138.016 78.4471C138.017 78.5758 138.045 78.703 138.096 78.8209C138.148 78.9389 138.223 79.0452 138.316 79.1335C138.41 79.2217 138.521 79.2901 138.642 79.3345C149.53 83.7594 157.81 94.096 160.396 108.267C164.364 130.007 149.929 152.846 138.482 168.523C138.337 168.722 138.269 168.967 138.294 169.212C138.318 169.457 138.433 169.685 138.615 169.85C138.722 169.942 138.847 170.01 138.982 170.049Z" fill="#0079C8"/>
<path d="M126.613 223.723C126.727 223.747 126.847 223.738 126.957 223.699C127.168 223.592 127.338 223.417 127.437 223.202C127.537 222.987 127.562 222.745 127.507 222.514C126.283 216.701 124.474 213.182 121.861 211.655C119.678 210.398 116.953 210.519 114.337 210.693C110.994 210.917 107.86 211.199 106.175 208.575C104.07 205.266 108.728 200.215 112.272 196.618C112.734 196.148 113.175 195.694 113.571 195.297C115.741 193.062 118.393 190.504 120.98 188.109C126.605 182.909 132.678 177.747 135.514 174.218C135.665 174.026 135.74 173.784 135.726 173.54C135.711 173.296 135.607 173.065 135.434 172.892C135.351 172.812 135.251 172.75 135.142 172.71C135.033 172.671 134.917 172.656 134.801 172.666C134.686 172.676 134.573 172.71 134.472 172.767C134.371 172.823 134.283 172.901 134.214 172.994C131.545 176.385 125.506 181.503 119.959 186.668C117.341 189.092 114.703 191.633 112.49 193.899L111.217 195.201C107.215 199.329 101.918 205.111 104.896 209.752C107.073 213.133 110.742 212.795 114.339 212.546C116.759 212.388 119.304 212.259 121.12 213.336C123.309 214.602 124.875 217.724 126.014 223.042C126.03 223.204 126.096 223.357 126.203 223.479C126.311 223.601 126.454 223.687 126.613 223.723Z" fill="#0079C8"/>
<path d="M108.327 25.9914C108.524 25.9976 108.72 25.9641 108.903 25.8931C123.508 20.6551 139.058 21.7382 152.999 27.4892C153.311 27.6105 153.451 27.6722 153.752 27.7953C154.011 27.9163 154.304 27.9408 154.579 27.8643C154.854 27.7878 155.093 27.6154 155.252 27.3782C155.3 27.2515 155.321 27.1162 155.314 26.9809C155.306 26.8456 155.271 26.7134 155.209 26.5928C155.147 26.4722 155.061 26.3659 154.955 26.2807C154.85 26.1954 154.728 26.1332 154.597 26.098L153.875 25.8085C138.524 21.0118 123.874 18.2444 107.936 24.2005C107.809 24.2331 107.69 24.2938 107.589 24.3784C107.488 24.4629 107.407 24.569 107.353 24.6889C107.298 24.8087 107.271 24.9393 107.274 25.071C107.276 25.2027 107.309 25.3321 107.368 25.4497C107.474 25.609 107.616 25.7411 107.783 25.8352C107.949 25.9293 108.136 25.9828 108.327 25.9914Z" fill="#0079C8"/>
<path d="M95.7878 35.3218C95.9819 35.3233 96.1742 35.2839 96.352 35.2062C119.602 25.6194 147.014 24.9784 168.705 41.1572C168.931 41.3343 169.21 41.4314 169.498 41.4332C169.786 41.4351 170.066 41.3417 170.295 41.1675C170.383 41.0715 170.449 40.9574 170.488 40.8333C170.527 40.7092 170.539 40.5781 170.523 40.4489C170.506 40.3198 170.462 40.1958 170.393 40.0856C170.323 39.9754 170.231 39.8815 170.122 39.8107C147.919 22.9283 119.712 23.842 95.3079 33.5685C95.1843 33.6106 95.0715 33.6794 94.9775 33.77C94.8834 33.8605 94.8104 33.9707 94.7637 34.0926C94.7169 34.2145 94.6975 34.3451 94.7068 34.4754C94.7161 34.6056 94.754 34.7322 94.8177 34.8462C94.929 34.9979 95.0754 35.1204 95.2443 35.2032C95.4132 35.286 95.5997 35.3267 95.7878 35.3218Z" fill="#0079C8"/>
<path d="M84.5777 46.2174C84.771 46.2161 84.9619 46.1753 85.1388 46.0975C100.418 38.9476 115.618 32.7712 131.92 34.2322C147.638 35.6352 163.159 41.3003 175.439 52.9771C176.377 53.8757 177.248 54.676 178.051 55.3776C178.261 55.5717 178.532 55.6873 178.817 55.705C179.103 55.7227 179.386 55.6414 179.618 55.4748C179.709 55.3827 179.778 55.2723 179.822 55.1509C179.866 55.0295 179.884 54.9001 179.874 54.7715C179.863 54.6428 179.825 54.5179 179.763 54.4051C179.7 54.2923 179.614 54.1942 179.51 54.1176C178.734 53.4332 177.879 52.637 176.959 51.7578C163.926 39.3551 148.196 34.4068 132.101 32.3534C116.231 30.3271 99.383 36.6573 84.0535 44.502C83.9322 44.5487 83.8226 44.6216 83.7326 44.7155C83.6426 44.8094 83.5744 44.9219 83.5328 45.0451C83.4912 45.1683 83.4773 45.2992 83.492 45.4284C83.5066 45.5576 83.5496 45.682 83.6178 45.7928C83.7311 45.9364 83.8777 46.0501 84.045 46.1241C84.2123 46.1981 84.3952 46.2302 84.5777 46.2174Z" fill="#0079C8"/>
<path d="M183.547 68.5785C183.695 68.6258 183.851 68.642 184.006 68.6261C184.16 68.6101 184.309 68.5623 184.444 68.4857C184.551 68.4137 184.641 68.319 184.708 68.2084C184.774 68.0978 184.815 67.9739 184.829 67.8456C184.842 67.7172 184.827 67.5875 184.784 67.4656C184.742 67.3438 184.673 67.2327 184.583 67.1404C175.96 56.7945 165.866 48.2472 154.298 43.4833C154.046 43.3619 153.759 43.335 153.489 43.4077C153.219 43.4803 152.984 43.6477 152.827 43.8791C152.776 44.0024 152.751 44.1349 152.754 44.2683C152.756 44.4017 152.786 44.5331 152.842 44.6543C152.898 44.7756 152.978 44.8842 153.077 44.9731C153.177 45.062 153.293 45.1295 153.42 45.1713C164.62 49.8989 174.518 58.1329 182.941 68.1876C183.101 68.3733 183.312 68.509 183.547 68.5785Z" fill="#0079C8"/>
<path d="M105.012 43.2064C105.208 43.2124 105.402 43.1759 105.582 43.0995C118.578 38.1428 134.441 38.4095 147.225 42.9385C147.477 43.0577 147.765 43.0794 148.033 42.9995C148.301 42.9195 148.529 42.7435 148.675 42.5053C148.725 42.3819 148.748 42.2495 148.743 42.1166C148.738 41.9837 148.706 41.8535 148.647 41.734C148.589 41.6146 148.506 41.5087 148.404 41.4234C148.302 41.3381 148.183 41.2751 148.055 41.2386C134.883 36.3258 118.141 36.1587 104.595 41.4148C104.472 41.455 104.358 41.5218 104.263 41.6106C104.168 41.6994 104.093 41.8081 104.044 41.9288C103.996 42.0496 103.974 42.1796 103.981 42.3096C103.988 42.4396 104.023 42.5665 104.084 42.6814C104.184 42.8382 104.321 42.9682 104.483 43.0598C104.644 43.1513 104.826 43.2017 105.012 43.2064Z" fill="#0079C8"/>
<path d="M74.8645 59.2893C75.1708 59.2763 75.462 59.1527 75.6839 58.9413C81.4136 53.3502 95.8918 46.4835 99.7123 45.1461C99.8389 45.1155 99.9574 45.058 100.06 44.9775C100.162 44.897 100.246 44.7954 100.305 44.6796C100.365 44.5639 100.399 44.4366 100.405 44.3066C100.411 44.1765 100.389 44.0467 100.34 43.9259C100.2 43.6782 99.9742 43.4903 99.7051 43.3977C99.4359 43.3051 99.1422 43.3142 98.8793 43.4233C95.5675 44.5941 80.3178 51.594 74.0853 57.761C73.9904 57.8444 73.9154 57.9481 73.866 58.0643C73.8165 58.1806 73.7938 58.3064 73.7995 58.4326C73.8052 58.5588 73.8391 58.6821 73.8989 58.7934C73.9586 58.9047 74.0426 59.0013 74.1446 59.0758C74.3539 59.2255 74.6074 59.3007 74.8645 59.2893Z" fill="#0079C8"/>
<path d="M65.6983 74.5194C65.9899 74.5004 66.2653 74.3786 66.4754 74.1755C77.6529 63.3159 90.7002 54.84 103.905 49.6316C119.055 43.6584 136.958 45.0446 151.424 50.9722C165.682 56.8151 178.222 69.0959 187.762 83.3722C187.917 83.6025 188.146 83.7722 188.412 83.8527C188.677 83.9331 188.962 83.9192 189.219 83.8135C189.332 83.7563 189.432 83.6743 189.51 83.5737C189.588 83.473 189.642 83.3562 189.669 83.2317C189.696 83.1073 189.695 82.9784 189.666 82.8544C189.637 82.7305 189.58 82.6147 189.501 82.5154C179.623 67.9736 166.865 55.2661 152.252 49.2681C137.216 43.0919 118.671 41.6947 102.918 47.9469C88.7022 53.6581 75.7813 62.1717 64.9246 72.9808C64.8294 73.065 64.754 73.1693 64.7039 73.2862C64.6539 73.403 64.6304 73.5295 64.6351 73.6566C64.6398 73.7836 64.6727 73.9081 64.7313 74.0209C64.79 74.1337 64.8729 74.2321 64.9741 74.309C65.1837 74.4613 65.4398 74.5357 65.6983 74.5194Z" fill="#0079C8"/>
<path d="M61.7914 86.029C62.0624 86.0103 62.3184 85.8975 62.5151 85.71C63.8436 84.4392 64.5072 83.8074 65.8462 82.5422C79.7239 69.2201 95.5245 56.0861 112.174 53.4052C129.323 50.6544 146.285 52.7271 160.831 63.3536C172.533 71.8991 182.144 82.7653 189.195 98.3149C189.304 98.5414 189.357 98.6526 189.451 98.8766C189.571 99.1196 189.771 99.3141 190.017 99.4276C190.264 99.5412 190.541 99.567 190.804 99.5007C190.924 99.4626 191.034 99.3986 191.126 99.3133C191.219 99.2281 191.291 99.1237 191.339 99.0075C191.386 98.8912 191.408 98.766 191.402 98.6405C191.396 98.515 191.362 98.3923 191.304 98.2812L191.051 97.7238C184.183 82.5611 174.382 69.904 161.993 61.8388C145.913 51.3818 129.388 48.7219 111.65 51.5801C94.642 54.3209 78.5263 67.6394 64.3776 81.3085C63.0418 82.5781 62.3751 83.2055 61.057 84.4819C60.9613 84.5642 60.8842 84.666 60.8311 84.7805C60.7779 84.8949 60.7498 85.0194 60.7487 85.1456C60.7476 85.2719 60.7734 85.3968 60.8246 85.5122C60.8757 85.6276 60.9509 85.7308 61.0452 85.8148C61.2576 85.9785 61.5244 86.0551 61.7914 86.029Z" fill="#0079C8"/>
<path d="M110.19 206.117C110.3 206.126 110.411 206.111 110.514 206.072C110.617 206.034 110.711 205.973 110.788 205.894C111.199 205.499 111.412 205.297 111.839 204.897C122.086 195.479 132.719 185.865 141.778 175.608C150.742 165.464 158.368 154.343 163.746 140.195C169.07 126.208 169.285 121.707 168.81 112.055C168.772 111.436 168.77 111.14 168.736 110.518C167.199 92.6571 155.557 76.6269 142.953 72.0417C130.26 67.4224 116.829 66.1751 103.066 73.3945C92.4303 78.992 86.0883 85.4241 80.5202 95.6106C79.9647 96.6503 79.2862 97.945 78.5516 99.3701C74.7668 106.794 68.1423 120.779 62.7725 121.179C60.8312 121.32 58.9749 119.567 57.1875 115.968C57.1276 115.857 57.0461 115.759 56.9477 115.68C56.8492 115.601 56.7359 115.543 56.6145 115.508C56.4931 115.474 56.3661 115.464 56.2408 115.479C56.1156 115.495 55.9947 115.535 55.8854 115.598C55.656 115.711 55.4786 115.907 55.3899 116.147C55.3011 116.387 55.3078 116.651 55.4086 116.886C57.588 121.202 59.9641 123.233 62.7624 123.034C69.3514 122.558 75.8107 108.988 80.3671 100.1C81.0906 98.6953 81.7518 97.4127 82.3195 96.3902C87.7323 86.6045 93.8457 80.3604 104.112 74.9986C109.935 71.9226 116.382 70.2096 122.964 69.9889C129.546 69.7682 136.093 71.0454 142.11 73.7243C154.583 79.2099 165.22 93.42 166.749 110.459L166.833 112.009C167.344 121.383 167.151 125.771 162.024 139.424C156.792 153.34 149.338 164.294 140.556 174.303C131.592 184.531 121.045 194.091 110.88 203.471C110.454 203.863 110.257 204.06 109.83 204.46C109.659 204.632 109.552 204.857 109.528 205.098C109.503 205.339 109.562 205.581 109.695 205.783C109.745 205.874 109.816 205.952 109.902 206.01C109.988 206.068 110.087 206.105 110.19 206.117Z" fill="#0079C8"/>
<path d="M62.4695 108.523C62.6171 108.516 62.7616 108.478 62.8935 108.411C63.0254 108.344 63.1418 108.251 63.2351 108.136C63.3175 108.044 63.3799 107.935 63.4183 107.818C63.4567 107.7 63.4704 107.575 63.4583 107.452C63.4463 107.329 63.4089 107.21 63.3484 107.102C63.288 106.994 63.2059 106.899 63.1071 106.825C61.3561 105.584 60.4643 104.007 60.3737 102.055C60.2959 98.4987 62.7698 91.4221 77.0584 79.9474C78.7531 78.5915 80.2666 77.3447 81.7296 76.1724C86.9896 71.9155 91.7191 68.2866 101.619 63.4107C111.983 58.3152 123.677 56.4189 133.956 58.8982C146.14 61.8235 157.92 66.34 167.532 76.3403C176.999 86.1722 184.914 99.9596 190.491 114.104C190.589 114.353 190.77 114.559 191.003 114.689C191.236 114.818 191.507 114.862 191.77 114.814C191.89 114.782 192.002 114.726 192.098 114.647C192.194 114.569 192.273 114.47 192.328 114.359C192.383 114.248 192.414 114.126 192.418 114.002C192.422 113.877 192.4 113.754 192.352 113.639C186.869 99.2721 178.671 85.2135 169.071 75.1659C159.586 65.2629 146.807 59.3735 134.265 57.045C122.823 54.9402 111.008 56.6057 100.594 61.7913C90.4826 66.7786 85.6953 70.4809 80.3533 74.841C78.8964 76.0219 77.3885 77.2583 75.7024 78.6081C63.7329 88.2586 58.2277 96.5464 58.372 102.285C58.3982 103.509 58.7258 104.709 59.3258 105.777C59.9259 106.845 60.78 107.748 61.8124 108.408C62.0107 108.523 62.2436 108.564 62.4695 108.523Z" fill="#0079C8"/>
<path d="M168.917 88.4426C169.18 88.5172 169.462 88.4866 169.703 88.3574C169.811 88.2947 169.904 88.2098 169.977 88.1083C170.049 88.0067 170.1 87.8909 170.124 87.7685C170.149 87.6461 170.147 87.5198 170.119 87.3981C170.091 87.2765 170.037 87.1622 169.961 87.0628C160.698 73.7527 148.333 66.3685 134.246 63.0542C133.985 62.9677 133.701 62.9861 133.454 63.1057C133.207 63.2252 133.016 63.4364 132.922 63.6943C132.894 63.8228 132.892 63.9557 132.917 64.085C132.941 64.2142 132.991 64.3371 133.065 64.4464C133.138 64.5557 133.233 64.6491 133.343 64.7209C133.453 64.7927 133.577 64.8414 133.706 64.8642C147.025 68.0322 159.421 75.4332 168.259 87.9977C168.419 88.2185 168.652 88.3759 168.917 88.4426Z" fill="#0079C8"/>
<path d="M62.6491 116.072C62.6491 116.072 62.6749 116.053 62.7031 116.066C66.4694 115.755 69.2755 109.147 72.0904 102.798C72.478 101.923 72.6659 101.486 73.0553 100.622C77.3395 91.2677 81.6998 82.7318 91.2411 76.3654C102.161 69.0542 113.009 63.319 125.816 63.9419C125.951 63.969 126.089 63.9666 126.223 63.9351C126.356 63.9035 126.481 63.8433 126.589 63.7589C126.697 63.6744 126.785 63.5676 126.848 63.4457C126.911 63.3238 126.946 63.1898 126.952 63.0528C126.958 62.9159 126.934 62.7794 126.882 62.6525C126.83 62.5257 126.752 62.4115 126.651 62.318C126.551 62.2245 126.432 62.1538 126.302 62.1108C126.172 62.0677 126.034 62.0534 125.898 62.0688C113.372 61.4145 100.882 66.8205 89.9363 74.9251C79.9062 82.3616 75.5762 90.3657 71.2137 100.002C70.8231 100.873 70.6247 101.304 70.2372 102.18C68.0544 107.15 65.1783 113.969 62.6747 114.193C61.9697 114.247 60.4814 113.705 58.5233 109.711C58.4616 109.6 58.3784 109.502 58.2785 109.424C58.1786 109.345 58.064 109.288 57.9416 109.254C57.8191 109.221 57.6912 109.212 57.5653 109.228C57.4394 109.245 57.318 109.286 57.2083 109.35C56.9771 109.461 56.7979 109.657 56.7089 109.897C56.6199 110.138 56.628 110.403 56.7316 110.638C58.6559 114.475 60.5239 116.227 62.6491 116.072Z" fill="#0079C8"/>
<path d="M190.089 129.986C190.243 130.047 190.411 130.067 190.575 130.042C190.697 130.025 190.813 129.981 190.917 129.915C191.02 129.849 191.108 129.761 191.175 129.658C191.242 129.555 191.287 129.439 191.305 129.317C191.324 129.195 191.316 129.071 191.283 128.953C188.021 115.351 181.538 103.347 174.269 92.8876C174.119 92.6639 173.894 92.5015 173.634 92.4294C173.375 92.3574 173.098 92.3806 172.854 92.495C172.743 92.5547 172.647 92.6376 172.571 92.738C172.496 92.8384 172.442 92.9538 172.415 93.0766C172.388 93.1994 172.388 93.3265 172.415 93.4494C172.441 93.5723 172.494 93.688 172.569 93.7887C179.669 104.064 186.088 115.868 189.414 129.224C189.457 129.396 189.541 129.555 189.658 129.688C189.776 129.82 189.924 129.923 190.089 129.986Z" fill="#0079C8"/>
<path d="M187.355 146.77C187.46 146.814 187.574 146.835 187.688 146.831C187.809 146.834 187.929 146.81 188.039 146.762C188.15 146.714 188.249 146.643 188.33 146.554C188.41 146.464 188.47 146.358 188.506 146.243C188.542 146.128 188.553 146.007 188.538 145.887C187.217 127.072 179.963 112.029 171.382 98.1958C171.235 97.9695 171.01 97.8042 170.75 97.7307C170.49 97.6571 170.213 97.6803 169.968 97.7958C169.859 97.857 169.763 97.9409 169.688 98.0418C169.614 98.1428 169.561 98.2585 169.534 98.3812C169.508 98.504 169.507 98.6311 169.534 98.754C169.56 98.8768 169.612 98.9927 169.686 99.0939C178.48 112.161 185.494 128.215 186.668 145.855C186.682 146.058 186.754 146.252 186.876 146.414C186.998 146.577 187.164 146.7 187.355 146.77Z" fill="#0079C8"/>
<path d="M115.202 207.464C115.297 207.478 115.394 207.472 115.487 207.446C115.58 207.42 115.667 207.375 115.742 207.314C123.001 201.976 127.361 197.744 134.49 190.754C135.313 189.964 135.717 189.568 136.546 188.787C146.182 179.937 155.026 169.942 162.085 157.866C169.34 145.463 177.786 126.227 173.528 112.285C173.438 112.037 173.262 111.83 173.031 111.703C172.8 111.575 172.532 111.535 172.274 111.591C172.156 111.626 172.046 111.685 171.951 111.763C171.855 111.842 171.777 111.938 171.72 112.048C171.662 112.157 171.627 112.277 171.617 112.4C171.606 112.522 171.62 112.646 171.658 112.764C175.676 126.431 167.393 145.041 160.53 156.829C153.668 168.618 144.961 178.624 135.474 187.356C134.656 188.143 134.244 188.538 133.419 189.342C125.529 197.11 121.416 200.825 114.932 205.743C114.743 205.894 114.612 206.105 114.561 206.342C114.509 206.578 114.541 206.825 114.65 207.041C114.7 207.151 114.777 207.247 114.873 207.321C114.969 207.395 115.082 207.444 115.202 207.464Z" fill="#0079C8"/>
<path d="M183.172 161.028C183.239 161.051 183.309 161.066 183.379 161.074C183.498 161.087 183.617 161.075 183.73 161.039C183.844 161.003 183.948 160.945 184.038 160.867C184.128 160.789 184.2 160.693 184.251 160.586C184.302 160.478 184.33 160.362 184.334 160.243C184.885 150.807 183.037 141.999 181.237 134.307C180.456 130.952 179.682 127.772 179.098 124.677C179.045 124.419 178.9 124.19 178.69 124.031C178.48 123.872 178.219 123.794 177.956 123.813C177.834 123.828 177.716 123.869 177.61 123.931C177.504 123.994 177.413 124.078 177.341 124.178C177.269 124.278 177.219 124.392 177.193 124.513C177.168 124.633 177.167 124.757 177.192 124.878C177.817 128.04 178.6 131.214 179.401 134.606C181.257 142.55 182.996 150.795 182.534 160C182.522 160.216 182.577 160.431 182.691 160.614C182.805 160.798 182.973 160.943 183.172 161.028Z" fill="#0079C8"/>
<path d="M122.356 207.932C122.451 207.946 122.549 207.94 122.642 207.914C122.735 207.888 122.821 207.843 122.895 207.782C135.649 198.809 147.525 187.358 158.078 174.86C166.237 165.203 173.89 153.235 176.955 139.615C176.982 139.366 176.924 139.115 176.791 138.902C176.658 138.689 176.457 138.527 176.221 138.443C176.104 138.409 175.982 138.4 175.863 138.417C175.743 138.433 175.628 138.475 175.525 138.538C175.422 138.602 175.334 138.687 175.266 138.787C175.198 138.887 175.151 139 175.13 139.119C172.354 152.262 164.718 164.134 156.788 173.578C146.413 185.943 134.763 197.331 122.132 206.184C121.942 206.332 121.809 206.54 121.754 206.774C121.699 207.008 121.725 207.254 121.829 207.471C121.875 207.584 121.946 207.684 122.038 207.764C122.129 207.844 122.238 207.901 122.356 207.932Z" fill="#0079C8"/>
<path d="M126.573 211.559C126.714 211.591 126.861 211.573 126.99 211.509C133.401 208.42 143.449 198.483 148.453 193.865C148.776 193.572 148.942 193.416 149.267 193.108C156.591 186.375 163.2 177.886 168.222 171.278C175.46 161.788 178.95 156.957 179.458 149.103C179.471 148.85 179.392 148.602 179.236 148.402C179.081 148.203 178.859 148.066 178.611 148.017C178.491 147.999 178.368 148.007 178.251 148.04C178.134 148.072 178.025 148.129 177.932 148.206C177.838 148.284 177.761 148.38 177.707 148.489C177.653 148.597 177.622 148.716 177.616 148.838C177.126 156.124 173.97 160.596 166.837 170.043C161.892 176.577 155.394 184.987 148.222 191.633C147.882 191.938 147.73 192.078 147.396 192.373C142.487 196.962 132.654 206.792 126.447 209.749C126.239 209.864 126.077 210.047 125.99 210.268C125.903 210.489 125.895 210.734 125.968 210.96C126.001 211.108 126.075 211.242 126.183 211.349C126.29 211.455 126.426 211.528 126.573 211.559Z" fill="#0079C8"/>
<path d="M168.307 190.071C168.464 190.123 168.634 190.124 168.792 190.074C168.951 190.024 169.09 189.927 169.19 189.794C179.635 176.507 181.449 169.045 180.169 161.896C180.131 161.65 180 161.429 179.803 161.278C179.607 161.126 179.36 161.055 179.113 161.08C178.995 161.103 178.883 161.149 178.784 161.216C178.684 161.282 178.599 161.368 178.533 161.469C178.468 161.569 178.423 161.681 178.401 161.799C178.379 161.917 178.382 162.038 178.408 162.155C179.625 168.961 177.922 175.621 167.918 188.537C167.774 188.734 167.702 188.975 167.716 189.219C167.729 189.462 167.827 189.694 167.992 189.874C168.087 189.954 168.193 190.021 168.307 190.071Z" fill="#0079C8"/>
<path d="M129.386 216.021C129.518 216.054 129.658 216.037 129.779 215.974C139.546 211.522 148.848 202.547 157.302 193.953C165.118 185.999 171.847 177.451 175.236 170.262C175.34 170.036 175.357 169.78 175.283 169.542C175.209 169.305 175.049 169.103 174.836 168.976C174.735 168.916 174.623 168.879 174.506 168.865C174.39 168.852 174.272 168.864 174.161 168.9C174.049 168.937 173.947 168.996 173.86 169.075C173.774 169.154 173.705 169.25 173.659 169.358C170.447 176.396 163.857 184.703 156.19 192.538C147.946 200.964 138.891 209.777 129.336 214.208C129.131 214.327 128.969 214.509 128.876 214.727C128.782 214.944 128.761 215.186 128.816 215.417C128.842 215.562 128.911 215.696 129.012 215.803C129.113 215.91 129.243 215.986 129.386 216.021Z" fill="#0079C8"/>
<path d="M132.139 220.918C132.27 220.948 132.407 220.938 132.533 220.891C144.613 215.736 157.388 206.511 165.569 194.35C165.696 194.142 165.748 193.896 165.714 193.655C165.681 193.413 165.565 193.191 165.386 193.025C165.3 192.958 165.2 192.91 165.093 192.884C164.986 192.858 164.876 192.854 164.768 192.873C164.659 192.893 164.557 192.935 164.466 192.996C164.375 193.058 164.298 193.137 164.24 193.231C156.236 205.104 143.862 214.13 132.13 219.109C131.924 219.22 131.76 219.396 131.665 219.609C131.569 219.823 131.548 220.063 131.604 220.29C131.621 220.436 131.681 220.574 131.776 220.685C131.871 220.797 131.998 220.878 132.139 220.918Z" fill="#0079C8"/>
<path d="M65.4828 102.874C65.7071 102.861 65.9203 102.772 66.0874 102.622C66.2546 102.472 66.3658 102.269 66.4027 102.048C66.8478 98.618 68.7226 95.0089 72.6238 90.4937C72.7032 90.4102 72.7637 90.3105 72.8013 90.2016C72.8389 90.0927 72.8528 89.977 72.8419 89.8623C72.831 89.7475 72.7956 89.6364 72.7382 89.5365C72.6807 89.4366 72.6026 89.3501 72.5089 89.283C72.2981 89.1525 72.0481 89.1006 71.8027 89.1362C71.5574 89.1718 71.3324 89.2927 71.1674 89.4777C67.0248 94.2996 65.0078 98.2096 64.559 101.971C64.5494 102.086 64.5635 102.201 64.6004 102.31C64.6373 102.419 64.6963 102.52 64.7737 102.605C64.851 102.69 64.945 102.758 65.05 102.806C65.1549 102.853 65.2684 102.878 65.3835 102.879C65.4167 102.881 65.45 102.879 65.4828 102.874Z" fill="#0079C8"/>
</g>
</g>
<defs>
<clipPath id="clip0_39_1373">
<rect width="176.563" height="174.022" fill="white" transform="translate(141.991) rotate(54.6801)"/>
</clipPath>
</defs>
</svg>
