<svg width="220" height="223" viewBox="0 0 220 223" fill="none" xmlns="http://www.w3.org/2000/svg">
<g clip-path="url(#clip0_39_1221)">
<g opacity="0.2">
<path d="M9.44707 136.56C27.4939 144.467 53.6703 149.773 73.9289 145.965C91.8349 142.61 114.296 136 128.269 118.631C133.184 112.539 135.323 104.66 133.793 98.4237C133.277 96.3103 132.309 94.3341 130.954 92.632C129.6 90.9298 127.891 89.5424 125.947 88.5657C116.547 83.6051 106.069 88.006 95.2894 92.9445C92.0112 94.4251 88.6276 96.0058 85.2613 97.3612C62.481 106.493 36.9367 113.247 14.9668 111.146C14.6691 111.124 14.3732 111.207 14.1298 111.38C13.8865 111.553 13.7111 111.805 13.6338 112.093C13.6007 112.23 13.5976 112.372 13.6246 112.51C13.6517 112.648 13.7082 112.779 13.7905 112.893C13.8727 113.007 13.9786 113.102 14.101 113.171C14.2233 113.241 14.3592 113.283 14.4994 113.295C36.9019 115.464 62.9465 108.697 86.166 99.4599C89.609 98.0952 93.0181 96.5071 96.3152 95.0194C106.624 90.3742 116.59 86.2037 124.937 90.6248C126.569 91.4326 128.004 92.5878 129.142 94.0093C130.28 95.4309 131.092 97.0841 131.523 98.8532C132.884 104.312 130.884 111.614 126.45 117.163C112.942 134.078 91.0392 140.507 73.6761 143.785C54.0055 147.52 25.1519 143.628 10.2932 134.41C10.0355 134.281 9.74048 134.246 9.45989 134.313C9.1793 134.379 8.93118 134.543 8.7592 134.774C8.67028 134.88 8.60389 135.004 8.56411 135.136C8.52434 135.269 8.512 135.408 8.52783 135.546C8.54366 135.683 8.58731 135.816 8.65618 135.937C8.72504 136.057 8.81765 136.162 8.92836 136.245L9.44707 136.56Z" fill="#F1EFEB"/>
<path d="M10.2589 130.476C25.7404 136.698 45.4095 139.088 62.3493 139.171C76.7912 139.241 94.1816 133.015 108.887 125.533C120.763 119.495 127.822 108.484 124.157 100.579C123.624 99.3926 122.854 98.3278 121.895 97.4497C120.935 96.5717 119.807 95.8988 118.578 95.4726C112.073 93.1416 102.96 96.7739 96.5507 100.25C94.9014 101.151 93.3471 102.016 91.8563 102.86C82.2114 108.278 75.3067 112.253 64.9198 113.518C63.9292 113.644 62.9261 113.776 61.917 113.922C56.8981 114.677 51.174 115.457 39.2779 115.48C38.9766 115.48 38.6862 115.592 38.4634 115.795C38.2405 115.998 38.1011 116.276 38.0724 116.576C38.0621 116.718 38.082 116.86 38.1305 116.993C38.1791 117.127 38.2554 117.249 38.3543 117.351C38.4532 117.452 38.5725 117.532 38.7044 117.585C38.8363 117.637 38.9778 117.661 39.1197 117.655C51.1212 117.532 57.0101 116.868 62.1449 116.123C63.1414 115.984 64.1184 115.839 65.1033 115.732C75.972 114.476 83.1035 110.383 93.0199 104.84C94.5046 104.003 96.0527 103.144 97.696 102.256C106.216 97.6696 113.439 96.0901 117.862 97.6688C118.782 97.9811 119.627 98.4808 120.344 99.1366C121.061 99.7923 121.634 100.59 122.026 101.478C124.758 107.375 119.875 117.319 107.83 123.472C93.3328 130.863 76.6639 136.806 62.5501 136.929C46.1314 137.052 25.4371 135.071 11.525 128.574C11.4534 128.535 11.3852 128.49 11.3211 128.44C11.0578 128.313 10.7571 128.287 10.476 128.368C10.1949 128.448 9.95297 128.628 9.79607 128.875C9.71465 128.986 9.65623 129.113 9.6242 129.248C9.59216 129.383 9.58713 129.522 9.60942 129.659C9.63171 129.795 9.68087 129.926 9.75405 130.043C9.82723 130.161 9.92298 130.262 10.0357 130.343C10.1068 130.392 10.1814 130.437 10.2589 130.476Z" fill="#F1EFEB"/>
<path d="M11.1156 124.737C11.1921 124.774 11.2705 124.808 11.3504 124.837C37.2836 131.751 68.5181 137.2 97.9331 122.324C109.88 116.296 114.893 112.903 115.968 109.468C116.174 108.748 116.229 107.992 116.128 107.25C116.027 106.508 115.772 105.794 115.381 105.156C115.108 104.627 114.733 104.158 114.278 103.775C113.824 103.391 113.298 103.101 112.731 102.921C109.55 101.959 105.036 104.415 97.6772 108.606C94.8591 110.205 91.5964 112.109 87.9748 114.032C63.016 127.339 35.0972 123.022 12.7592 116.985C12.4668 116.916 12.1594 116.956 11.894 117.097C11.6287 117.237 11.4235 117.47 11.3168 117.751C11.2632 117.879 11.2378 118.018 11.2423 118.157C11.2468 118.296 11.281 118.433 11.3427 118.558C11.4045 118.683 11.4923 118.793 11.6002 118.881C11.7081 118.969 11.8336 119.033 11.9684 119.069C34.8564 125.4 63.451 129.584 89.0555 116.028C92.7087 114.091 95.9776 112.18 98.8465 110.567C105.194 106.991 109.88 104.496 112.132 105.158C112.4 105.242 112.647 105.381 112.858 105.565C113.07 105.75 113.24 105.977 113.359 106.231C113.6 106.595 113.759 107.008 113.827 107.439C113.895 107.871 113.869 108.312 113.752 108.733C112.936 111.37 107.809 114.773 96.9289 120.312C68.168 134.991 37.6057 129.139 12.1158 122.761C11.8301 122.713 11.5366 122.763 11.283 122.903C11.0293 123.043 10.8303 123.264 10.7185 123.531C10.6244 123.746 10.6128 123.988 10.6861 124.21C10.7594 124.433 10.9124 124.62 11.1156 124.737Z" fill="#F1EFEB"/>
<path d="M15.0495 186.165C15.1614 186.238 15.2887 186.286 15.4217 186.303C15.5547 186.32 15.6899 186.308 15.8171 186.265C16.1011 186.183 16.3496 186.009 16.5235 185.77C16.6973 185.531 16.7866 185.241 16.777 184.946C16.4921 181.133 17.5919 177.345 19.8745 174.278C26.8115 164.497 43.7369 159.605 48.8325 158.488C52.0941 157.785 55.1309 157.257 58.0855 156.764C65.6482 155.519 72.8337 154.493 83.1396 151.71C99.1799 147.369 113.971 141.167 123.315 133.649C136.501 123.043 146.074 114.245 141.594 96.1493C137.953 81.5152 123.76 78.0454 116.233 78.5252C106.363 79.161 95.5631 83.8948 85.2924 88.6992C84.6612 88.9983 84.3455 89.1446 83.7082 89.4504C73.0156 94.482 56.9028 99.3002 46.5708 101.718C45.8326 101.899 45.4633 101.983 44.7375 102.151C35.5473 104.367 27.0184 106.758 24.0207 102.194C21.702 98.6442 25.8831 88.6431 34.4699 77.8008C34.5635 77.6884 34.632 77.5572 34.6709 77.4162C34.7097 77.2752 34.7179 77.1275 34.695 76.983C34.6721 76.8386 34.6186 76.7008 34.5381 76.5787C34.4576 76.4566 34.3519 76.353 34.2281 76.2751C33.971 76.0937 33.6534 76.0194 33.3425 76.0679C33.0316 76.1163 32.7516 76.2839 32.5619 76.5349C25.0834 85.905 18.5318 98.1563 22.0565 103.44C25.9359 109.295 35.1757 106.679 45.2005 104.285C45.9265 104.124 46.2958 104.04 47.0216 103.872C57.5204 101.448 73.8692 96.5888 84.7782 91.5044C85.4091 91.1989 85.7377 91.0521 86.3819 90.7589C96.4835 86.0699 107.095 81.4586 116.563 80.876C123.322 80.4627 136.05 83.5428 139.318 96.5854C143.498 113.344 134.828 121.365 121.926 131.831C112.864 139.166 98.4749 145.289 82.7348 149.586C72.5635 152.365 65.4868 153.38 57.9882 154.623C54.9949 155.111 51.9523 155.659 48.634 156.389C41.8505 157.876 25.4797 163.011 18.2712 173.271C15.658 176.809 14.402 181.167 14.7318 185.553C14.7405 185.672 14.7732 185.787 14.8278 185.892C14.8824 185.997 14.9578 186.09 15.0495 186.165Z" fill="#F1EFEB"/>
<path d="M10.668 177.811C10.824 177.91 11.0085 177.955 11.1928 177.939C11.4839 177.913 11.7582 177.792 11.9728 177.593C12.1875 177.395 12.3303 177.131 12.3791 176.843C13.3399 170.792 16.6022 167.996 22.2044 163.516C23.0274 162.844 23.4522 162.52 24.2694 161.868C33.348 154.474 43.3383 150.785 51.3848 151.891C51.6807 151.927 51.9796 151.853 52.2245 151.684C52.4693 151.514 52.643 151.259 52.7123 150.969C52.752 150.834 52.7624 150.692 52.7428 150.553C52.7231 150.414 52.6739 150.28 52.5985 150.161C52.523 150.042 52.423 149.941 52.3052 149.864C52.1874 149.787 52.0545 149.736 51.9154 149.714C43.2456 148.592 32.6453 152.458 23.1061 160.247C22.2831 160.919 21.8581 161.237 21.0605 161.901C15.378 166.468 11.4053 169.855 10.3394 176.898C10.2995 177.066 10.3093 177.241 10.3676 177.403C10.426 177.566 10.5304 177.707 10.668 177.811Z" fill="#F1EFEB"/>
<path d="M10.3314 145.323C13.8614 147.403 19.2097 147.76 24.4468 148.237C27.0734 148.431 29.6842 148.799 32.262 149.339C32.5517 149.382 32.8475 149.325 33.1003 149.177C33.353 149.029 33.5474 148.799 33.6512 148.525C33.706 148.398 33.7325 148.261 33.7289 148.123C33.7253 147.985 33.6917 147.849 33.6303 147.725C33.569 147.602 33.4814 147.493 33.3737 147.407C33.266 147.32 33.1408 147.258 33.0067 147.225C30.3362 146.689 27.6362 146.311 24.9209 146.095C17.7962 145.443 10.4629 145.055 8.79857 140.082C8.7483 139.954 8.67135 139.839 8.57286 139.743C8.47437 139.647 8.35661 139.573 8.22737 139.526C8.09812 139.479 7.96039 139.46 7.8233 139.471C7.6862 139.481 7.55286 139.521 7.43221 139.587C7.16382 139.7 6.94542 139.907 6.817 140.169C6.68858 140.43 6.65876 140.73 6.73298 141.012C7.35567 142.846 8.63831 144.383 10.3314 145.323Z" fill="#F1EFEB"/>
<path d="M8.5461 152.001C11.9858 154.072 17.8568 155.206 24.2086 154.91C24.503 154.885 24.7799 154.759 24.9923 154.554C25.2047 154.348 25.3397 154.076 25.3745 153.783C25.3935 153.65 25.3827 153.515 25.343 153.386C25.3032 153.258 25.2354 153.14 25.1445 153.042C25.0537 152.943 24.942 152.866 24.8176 152.816C24.6932 152.765 24.5592 152.744 24.4252 152.751C14.5745 153.226 7.84811 150.113 7.54164 147.518C7.52632 147.384 7.48057 147.255 7.40785 147.141C7.33513 147.028 7.23737 146.932 7.12207 146.862C7.00677 146.792 6.87695 146.749 6.74256 146.737C6.60817 146.724 6.47275 146.743 6.34664 146.791C6.06715 146.874 5.82423 147.05 5.65791 147.289C5.49159 147.529 5.41178 147.818 5.43161 148.108C5.60835 149.611 6.74814 150.937 8.5461 152.001Z" fill="#F1EFEB"/>
<path d="M28.797 205.765C32.0641 208.561 36.4258 211.266 41.9627 214.685C42.2154 214.799 42.5013 214.816 42.7659 214.733C43.0304 214.65 43.2552 214.473 43.3973 214.234C43.486 214.133 43.553 214.014 43.594 213.886C43.6351 213.757 43.6495 213.622 43.6361 213.487C43.6228 213.353 43.5822 213.223 43.5166 213.105C43.4511 212.987 43.3621 212.884 43.2552 212.801C29.0521 204.485 23.635 199.951 22.8859 189.615C22.0861 178.415 30.5704 171.455 38.5267 169.207C43.2077 167.956 47.953 166.96 52.7418 166.223C58.1018 165.315 63.2232 164.557 67.2055 163.545C68.0833 163.32 68.4775 163.216 69.4002 162.99C77.9133 160.869 95.8281 157.051 110.496 149.762C126.513 141.789 136.471 135.808 145.514 121.617C155.505 105.966 151.016 88.127 140.277 78.8622C140.041 78.6473 139.73 78.5334 139.411 78.545C139.093 78.5566 138.791 78.6929 138.571 78.9244C138.474 79.0493 138.402 79.1922 138.36 79.345C138.317 79.4977 138.306 79.6573 138.325 79.8146C138.344 79.9719 138.395 80.1239 138.473 80.2617C138.551 80.3996 138.656 80.5207 138.781 80.6181C148.764 89.2427 152.761 105.732 143.589 120.249C134.872 134.017 125.185 139.885 109.562 147.742C95.2248 154.941 77.5161 158.778 69.0863 160.896C68.1955 161.114 67.7566 161.227 66.8723 161.451C63.057 162.464 57.9482 163.215 52.6582 164.107C47.8055 164.882 42.9974 165.914 38.2546 167.201C28.6735 169.964 19.9617 178.435 20.8419 190.255C21.3781 197.041 23.7806 201.48 28.797 205.765Z" fill="#F1EFEB"/>
<path d="M29.7254 98.9423C32.477 100.454 37.5851 99.8564 44.3855 97.4257C46.4332 96.709 48.9 95.868 51.6029 94.9862C57.39 93.1124 64.0007 91.1123 70.3362 88.9617C81.6622 85.1012 92.6639 80.9764 103.935 76.3218C108.308 74.4629 113.005 73.4872 117.756 73.4507C122.507 73.4142 127.218 74.3175 131.618 76.1089C131.759 76.1718 131.911 76.2053 132.065 76.2072C132.219 76.2092 132.372 76.1795 132.514 76.1202C132.656 76.0608 132.785 75.9732 132.892 75.8623C132.999 75.7515 133.082 75.62 133.136 75.4758C133.225 75.1631 133.191 74.8285 133.042 74.5396C132.893 74.2506 132.641 74.0288 132.335 73.9191C127.648 72.0095 122.629 71.0493 117.569 71.0938C112.509 71.1382 107.508 72.1866 102.856 74.1783C91.6616 78.8429 80.7558 82.9576 69.5072 86.8282C63.2489 88.9824 56.652 91.0077 50.8842 92.8808C48.1625 93.7761 45.6823 94.6048 43.6233 95.3604C34.2581 98.7643 31.278 97.3256 30.5968 96.779C30.274 96.4993 30.0431 96.1289 29.9341 95.7159C29.8252 95.303 29.8432 94.8668 29.9859 94.4643C30.7103 91.4396 35.177 87.1613 42.362 85.0632C42.6527 84.9866 42.9012 84.7981 43.053 84.5386C43.2048 84.2791 43.2476 83.97 43.1719 83.6791C43.0735 83.393 42.8674 83.1566 42.5975 83.0202C42.3275 82.8838 42.015 82.858 41.7263 82.9485C33.3249 85.3156 28.5713 90.5289 27.7252 94.0909C27.4822 94.8744 27.4802 95.7127 27.7195 96.4973C27.9587 97.2819 28.4282 97.9766 29.0669 98.4912C29.2744 98.6585 29.4946 98.8093 29.7254 98.9423Z" fill="#F1EFEB"/>
<path d="M33.3233 201.183C36.3708 203.72 39.6795 205.926 43.1936 207.764C43.4602 207.861 43.7532 207.858 44.0177 207.755C44.2821 207.652 44.5 207.456 44.6306 207.204C44.713 207.098 44.7724 206.976 44.8049 206.846C44.8374 206.716 44.8423 206.581 44.8193 206.449C44.7964 206.316 44.746 206.19 44.6716 206.079C44.5971 205.967 44.5001 205.873 44.3869 205.801C40.4648 203.883 33.7878 199.484 31.2252 195.584C28.6626 191.684 28.6008 185.054 34.7147 179.291C38.2398 175.952 51.4491 173.384 58.631 172.262C59.3397 172.153 59.7102 172.1 60.4189 171.991C72.2108 170.168 89.1191 165.687 95.624 163.781C109.599 159.669 124.453 151.854 137.089 142.546C147.799 134.644 158.087 116.741 158.185 104.815C158.297 91.6752 152.159 80.3873 146.409 74.4655C140.659 68.5437 128.051 64.0145 116.606 63.9116C106.138 63.8244 97.8113 67.5436 89.1373 71.59C86.9156 72.6404 84.6243 73.719 82.2431 74.7945C73.1667 78.9004 57.9277 83.5586 45.9347 87.7901C42.594 88.9648 39.5525 90.0707 37.0652 91.0537C36.9232 91.0999 36.7921 91.1742 36.6795 91.2722C36.567 91.3702 36.4753 91.49 36.4101 91.6242C36.3449 91.7584 36.3074 91.9044 36.2999 92.0535C36.2923 92.2025 36.315 92.3517 36.3664 92.4918C36.4246 92.6301 36.5098 92.7552 36.6172 92.86C36.7245 92.9647 36.8518 93.0469 36.9915 93.1017C37.1311 93.1564 37.2803 93.1826 37.4303 93.1788C37.5802 93.1749 37.7279 93.1411 37.8645 93.0792C40.3659 92.1278 43.4132 91.0087 46.7352 89.8475C58.78 85.6269 74.1096 80.9912 83.358 76.8469C85.752 75.7709 88.0628 74.6981 90.3042 73.6597C99.1437 69.5753 106.883 66.1344 116.814 66.2732C127.457 66.3861 139.631 70.8153 144.778 76.0465C150.179 81.5573 155.966 92.1904 155.879 104.604C155.815 115.714 145.826 133.175 135.775 140.649C123.454 149.816 108.95 157.549 95.237 161.618C88.8029 163.528 72.0427 168.023 60.4176 169.84C59.702 169.937 59.3386 170.008 58.6297 170.111C48.347 171.77 37.2232 174.307 33.4938 177.852C26.3446 184.629 26.5287 192.5 29.4923 197.008C30.5752 198.566 31.8639 199.971 33.3233 201.183Z" fill="#F1EFEB"/>
<path d="M7.93843 170.565C7.95504 170.577 7.9726 170.587 7.9909 170.596C8.25241 170.704 8.5448 170.714 8.81251 170.621C9.08022 170.528 9.30455 170.34 9.44283 170.093C12.2035 165.864 13.2228 162.123 12.2732 159.673C11.5218 157.729 9.66358 156.596 6.75423 156.394C6.46723 156.402 6.19047 156.503 5.96547 156.681C5.74048 156.859 5.57936 157.106 5.50622 157.383C5.46642 157.51 5.45593 157.644 5.47554 157.776C5.49515 157.907 5.54436 158.033 5.61944 158.143C5.69452 158.252 5.79353 158.344 5.909 158.41C6.02448 158.476 6.1534 158.514 6.28608 158.523C8.45598 158.695 9.81268 159.454 10.3151 160.733C11.0229 162.537 10.108 165.62 7.82338 169.17C7.73825 169.269 7.67363 169.383 7.63328 169.507C7.59293 169.631 7.57765 169.762 7.58836 169.892C7.59907 170.022 7.63555 170.148 7.69565 170.264C7.75575 170.379 7.83829 170.482 7.93843 170.565Z" fill="#F1EFEB"/>
<path d="M43.6321 79.7523C43.6492 79.7528 43.6664 79.7522 43.6834 79.7504C57.8074 83.7812 76.5481 72.3249 90.6054 65.3666C93.2667 64.0497 95.7471 62.8743 97.7072 62.0452C106.306 58.3027 115.821 57.1943 125.049 58.8602C134.278 60.5261 142.805 64.8914 149.552 71.4041L149.611 71.4405C149.718 71.5623 149.849 71.6604 149.996 71.728C150.143 71.7957 150.302 71.8315 150.464 71.8332C150.626 71.8349 150.786 71.8023 150.935 71.7377C151.083 71.6731 151.216 71.578 151.325 71.4584C151.434 71.3388 151.516 71.1975 151.567 71.0438C151.618 70.8901 151.635 70.7274 151.618 70.5665C151.602 70.4055 151.551 70.2499 151.47 70.1098C151.389 69.9697 151.28 69.8484 151.148 69.7536C138.016 57.1605 117.08 51.0346 96.5458 59.9497C94.561 60.8053 92.0808 61.9871 89.4012 63.3303C76.0954 69.9466 56.1679 82.1333 44.917 77.8372C44.917 77.8372 44.917 77.8372 44.8849 77.8384C42.4164 76.4602 41.3031 73.3955 41.5451 68.6442C41.5428 68.3422 41.4209 68.0535 41.2063 67.8412C40.9916 67.6288 40.7015 67.51 40.3995 67.511C40.0941 67.4962 39.7947 67.5993 39.563 67.7989C39.3314 67.9984 39.1851 68.2794 39.1546 68.5837C38.8631 74.21 40.3556 77.9328 43.6321 79.7523Z" fill="#F1EFEB"/>
<path d="M95.172 171.11C95.3123 171.248 95.4902 171.341 95.6834 171.379C95.8766 171.416 96.0766 171.396 96.2583 171.321C118.894 162.791 149.541 148.949 160.344 123.516C167.552 106.561 165.905 89.7222 157.313 77.3616C157.139 77.0854 156.87 76.8832 156.556 76.7939C156.242 76.7046 155.906 76.7346 155.613 76.878C155.484 76.9659 155.373 77.0793 155.288 77.2111C155.204 77.343 155.147 77.4905 155.12 77.645C155.094 77.7995 155.1 77.9578 155.136 78.1101C155.173 78.2625 155.24 78.406 155.333 78.5318C163.467 90.2992 165.002 106.345 158.181 122.497C147.72 147.276 117.791 160.899 95.6811 169.223C95.4002 169.328 95.1681 169.533 95.0295 169.799C94.891 170.065 94.8559 170.372 94.931 170.663C94.9782 170.827 95.0604 170.98 95.172 171.11Z" fill="#F1EFEB"/>
<path d="M46.778 217.501C46.8789 217.602 47.006 217.673 47.145 217.706C47.4315 217.738 47.7205 217.673 47.9654 217.521C48.2103 217.369 48.3967 217.138 48.4948 216.867C51.1256 210.133 51.6317 205.344 49.9899 202.046C48.6061 199.31 45.7515 197.616 42.9721 196.048C39.4193 194.046 36.0407 192.243 36.0757 188.448C36.1393 183.675 44.2511 181.64 50.2581 180.342C51.0416 180.172 51.7931 180.004 52.4622 179.864C56.1622 179.035 60.5682 178.201 64.7989 177.488C73.9944 175.946 83.6195 174.741 88.8607 173.041C89.1428 172.946 89.3803 172.75 89.5281 172.492C89.676 172.233 89.7242 171.93 89.6635 171.638C89.6326 171.5 89.5727 171.371 89.4875 171.258C89.4024 171.145 89.2941 171.052 89.17 170.985C89.0459 170.918 88.9088 170.878 88.7679 170.868C88.6271 170.858 88.4858 170.879 88.3535 170.928C83.3745 172.599 73.8128 173.782 64.7206 175.34C60.4388 176.061 56.0582 176.888 52.2941 177.719L50.1286 178.196C43.3019 179.729 34.0524 182.082 33.9889 188.793C33.9489 193.687 37.9099 195.79 41.7376 197.936C44.3074 199.39 46.9839 200.955 48.1145 203.264C49.4988 206.013 49.0107 210.236 46.6226 216.409C46.5306 216.584 46.4961 216.784 46.524 216.98C46.5518 217.176 46.6407 217.359 46.778 217.501Z" fill="#F1EFEB"/>
<path d="M160.052 4.00601C160.248 4.14351 160.47 4.24021 160.704 4.29039C179.067 8.69962 194.175 20.1743 204.531 35.3276C204.768 35.6593 204.87 35.8159 205.093 36.1416C205.276 36.4374 205.558 36.6581 205.89 36.7637C206.221 36.8694 206.579 36.8531 206.899 36.7179C207.032 36.6209 207.144 36.4971 207.227 36.3543C207.309 36.2116 207.361 36.0532 207.379 35.8892C207.396 35.7253 207.379 35.5595 207.329 35.4024C207.279 35.2454 207.196 35.1007 207.086 34.9776L206.544 34.2012C194.115 19.0785 181.047 6.48952 160.849 1.92248C160.698 1.8705 160.536 1.85315 160.377 1.87182C160.218 1.89049 160.065 1.94465 159.929 2.0303C159.794 2.11595 159.679 2.23087 159.594 2.36667C159.509 2.50247 159.455 2.65561 159.437 2.81489C159.439 3.04775 159.495 3.27704 159.602 3.48397C159.709 3.6909 159.863 3.86974 160.052 4.00601Z" fill="#F1EFEB"/>
<path d="M141.063 5.14107C141.26 5.27214 141.482 5.36027 141.715 5.39978C171.779 11.1481 200.112 28.7794 211.403 59.7183C211.516 60.0499 211.735 60.3347 212.027 60.5285C212.318 60.7223 212.666 60.8141 213.015 60.7895C213.169 60.7504 213.312 60.6782 213.435 60.5781C213.558 60.4781 213.657 60.3524 213.727 60.21C213.796 60.0675 213.834 59.9117 213.837 59.7533C213.84 59.5949 213.808 59.4377 213.744 59.2927C202.402 27.2963 173.077 9.41231 141.744 3.03607C141.59 2.99655 141.43 2.99131 141.274 3.02078C141.117 3.05026 140.97 3.11373 140.841 3.20663C140.712 3.29953 140.605 3.41954 140.527 3.55834C140.45 3.69715 140.404 3.8513 140.393 4.00981C140.405 4.23849 140.472 4.46086 140.589 4.65786C140.706 4.85486 140.869 5.02066 141.063 5.14107Z" fill="#F1EFEB"/>
<path d="M122.384 8.75587C122.581 8.88348 122.803 8.96931 123.035 9.00816C143.359 11.9206 162.953 15.7713 178.574 28.1324C193.64 40.0452 205.663 56.165 210.375 76.243C210.731 77.7837 211.083 79.1791 211.433 80.429C211.517 80.7669 211.716 81.0651 211.995 81.2736C212.274 81.4822 212.616 81.5881 212.964 81.5738C213.118 81.5403 213.262 81.4743 213.388 81.3801C213.514 81.2859 213.618 81.1658 213.693 81.0279C213.768 80.89 213.813 80.7376 213.824 80.5809C213.836 80.4242 213.813 80.2668 213.759 80.1195C213.425 78.9054 213.086 77.5246 212.736 76.0157C207.741 54.6961 195.027 39.1664 180.011 26.3402C165.207 13.6924 143.833 8.89866 122.994 6.65986C122.84 6.62652 122.679 6.62763 122.525 6.66317C122.371 6.69871 122.226 6.76774 122.102 6.86543C121.977 6.96313 121.876 7.08714 121.805 7.22848C121.733 7.36982 121.694 7.5251 121.69 7.68331C121.709 7.9051 121.783 8.1187 121.904 8.30563C122.025 8.49257 122.189 8.64714 122.384 8.75587Z" fill="#F1EFEB"/>
<path d="M208.223 97.5344C208.342 97.6812 208.49 97.8018 208.658 97.8885C208.826 97.9752 209.01 98.0262 209.198 98.0383C209.355 98.0364 209.51 98 209.651 97.9316C209.793 97.8633 209.917 97.7648 210.016 97.6429C210.115 97.5211 210.187 97.3789 210.225 97.2265C210.263 97.0742 210.267 96.9153 210.237 96.7612C208.359 80.4771 203.784 65.0425 195.185 52.4768C195.01 52.1852 194.735 51.9663 194.412 51.8602C194.089 51.7541 193.738 51.7679 193.424 51.8989C193.29 51.9904 193.176 52.1086 193.089 52.2461C193.003 52.3835 192.946 52.5372 192.922 52.6978C192.897 52.8584 192.906 53.0223 192.948 53.1791C192.99 53.336 193.064 53.4826 193.165 53.6097C201.414 65.8929 205.998 80.8777 207.867 96.7321C207.906 97.0282 208.03 97.3067 208.223 97.5344Z" fill="#F1EFEB"/>
<path d="M145.195 19.3207C145.39 19.4573 145.612 19.5499 145.847 19.5923C162.383 23.2142 178.354 34.0666 188.348 47.2043C188.525 47.4942 188.804 47.7083 189.13 47.8055C189.456 47.9026 189.806 47.876 190.113 47.7308C190.246 47.6383 190.358 47.5188 190.442 47.3804C190.525 47.2419 190.579 47.0875 190.599 46.927C190.619 46.7664 190.606 46.6034 190.559 46.4485C190.512 46.2936 190.433 46.1504 190.327 46.0279C180.194 32.2404 163.262 20.903 145.966 17.2189C145.813 17.1772 145.653 17.1694 145.497 17.1963C145.34 17.2232 145.192 17.2841 145.062 17.3746C144.932 17.465 144.823 17.5829 144.743 17.7199C144.664 17.8569 144.615 18.0096 144.601 18.1674C144.598 18.3937 144.65 18.6172 144.754 18.8183C144.857 19.0194 145.009 19.192 145.195 19.3207Z" fill="#F1EFEB"/>
<path d="M103.776 15.5848C104.096 15.776 104.475 15.8444 104.842 15.7771C114.405 13.907 133.724 16.5735 138.506 17.7604C138.655 17.8136 138.814 17.8342 138.972 17.8205C139.13 17.8068 139.283 17.7592 139.421 17.6811C139.559 17.603 139.678 17.4961 139.771 17.3677C139.864 17.2393 139.928 17.0924 139.959 16.937C139.981 16.5914 139.877 16.2494 139.665 15.9756C139.452 15.7018 139.147 15.5151 138.807 15.4509C134.654 14.4337 114.461 11.3882 104.002 13.5092C103.85 13.5309 103.704 13.5864 103.577 13.6718C103.449 13.7571 103.342 13.8701 103.263 14.0023C103.185 14.1346 103.137 14.2828 103.124 14.436C103.11 14.5891 103.131 14.7434 103.186 14.8873C103.299 15.1794 103.507 15.425 103.776 15.5848Z" fill="#F1EFEB"/>
<path d="M84.2858 24.9755C84.5953 25.1507 84.957 25.2104 85.3064 25.1438C103.929 21.5438 122.865 21.6177 139.782 25.123C159.19 29.1474 176.491 42.5003 187.265 58.1841C197.882 73.6425 202.457 94.5088 202.647 115.406C202.651 115.744 202.771 116.07 202.987 116.329C203.204 116.588 203.503 116.764 203.835 116.827C203.989 116.845 204.145 116.828 204.291 116.777C204.438 116.727 204.572 116.644 204.682 116.535C204.793 116.427 204.877 116.295 204.93 116.149C204.983 116.003 205.003 115.848 204.988 115.694C204.632 94.3011 200.12 72.8547 189.244 57.0013C178.056 40.6841 160.109 26.8925 139.901 22.7496C121.619 19.0819 102.787 19.1306 84.5245 22.8931C84.3714 22.9153 84.225 22.9712 84.0961 23.0568C83.9672 23.1424 83.8589 23.2555 83.7789 23.388C83.699 23.5205 83.6495 23.6691 83.6339 23.8231C83.6184 23.977 83.6372 24.1325 83.689 24.2783C83.8006 24.5731 84.0117 24.8197 84.2858 24.9755Z" fill="#F1EFEB"/>
<path d="M72.6314 34.0868C72.9198 34.2486 73.2556 34.3045 73.5809 34.2448C75.781 33.8372 76.878 33.6367 79.0851 33.2417C102.099 28.9359 126.945 26.1042 145.683 34.4804C164.977 43.1188 180.862 56.5425 188.582 77.063C194.795 93.5679 197.332 111.041 194.139 131.574C194.098 131.878 194.078 132.026 194.025 132.317C193.985 132.645 194.059 132.976 194.233 133.256C194.408 133.536 194.674 133.747 194.986 133.855C195.133 133.896 195.288 133.904 195.438 133.879C195.589 133.854 195.733 133.796 195.859 133.709C195.985 133.623 196.09 133.51 196.168 133.378C196.245 133.246 196.293 133.099 196.307 132.946L196.422 132.21C199.544 112.194 198.008 92.7702 190.776 76.296C181.381 54.9249 166.332 41.1947 146.367 32.2726C127.224 23.7186 101.934 26.5279 78.4129 31.0062C76.2061 31.4077 75.1089 31.6018 72.9156 32.022C72.7633 32.0419 72.617 32.0942 72.4865 32.1752C72.356 32.2563 72.2444 32.3643 72.1591 32.492C72.0737 32.6198 72.0167 32.7643 71.9918 32.9159C71.9669 33.0675 71.9747 33.2227 72.0146 33.371C72.1217 33.6794 72.3422 33.9353 72.6314 34.0868Z" fill="#F1EFEB"/>
<path d="M41.8026 188.624C41.9086 188.706 42.0314 188.764 42.1623 188.794C42.2931 188.823 42.4289 188.824 42.56 188.795C43.2423 188.668 43.5931 188.604 44.2949 188.482C61.0094 185.728 78.246 183.033 94.3098 178.634C110.202 174.286 125.384 168.05 140.296 157.234C155.045 146.546 158.267 142.108 164.221 131.965C164.595 131.309 164.79 131.007 165.17 130.351C175.52 111.143 174.359 87.0578 164.586 73.9827C154.745 60.8137 141.904 50.5854 123.077 48.7548C108.517 47.3594 97.77 49.6773 85.3068 56.3336C84.0478 57.0215 82.4935 57.887 80.7951 58.8478C71.9901 63.8812 55.9183 73.6994 50.1848 70.5248C48.114 69.374 47.3939 66.3507 47.9745 61.495C47.9877 61.342 47.97 61.1879 47.9225 61.0418C47.875 60.8958 47.7987 60.7606 47.6981 60.6445C47.5975 60.5285 47.4746 60.4339 47.3367 60.3661C47.1989 60.2984 47.0488 60.259 46.8955 60.2502C46.5869 60.2118 46.2753 60.2934 46.0251 60.4782C45.7749 60.663 45.6053 60.9367 45.5513 61.243C44.8912 67.0903 45.9553 70.7433 48.9372 72.4066C55.9623 76.3173 71.5896 66.8107 82.1567 60.8014C83.83 59.8544 85.3586 58.9896 86.6186 58.3274C98.6563 51.9755 109.045 49.6965 123.072 51.0857C131.053 51.8386 138.758 54.3945 145.606 58.5603C152.455 62.7261 158.267 68.393 162.606 75.1334C171.645 89.0378 172.996 110.6 163.187 128.966L162.239 130.599C156.506 140.484 153.384 144.822 139.057 155.302C124.448 165.979 109.553 172.158 93.9364 176.49C77.9893 180.923 60.8748 183.621 44.27 186.39C43.5744 186.505 43.2431 186.575 42.5413 186.697C42.2527 186.757 41.9939 186.915 41.8081 187.144C41.6224 187.373 41.5211 187.659 41.5213 187.954C41.5116 188.08 41.532 188.206 41.5809 188.323C41.6298 188.44 41.7058 188.543 41.8026 188.624Z" fill="#F1EFEB"/>
<path d="M58.3176 57.4393C58.4727 57.5304 58.6453 57.5878 58.8242 57.6079C59.0029 57.6279 59.184 57.61 59.3555 57.5556C59.501 57.5165 59.6368 57.4477 59.7544 57.3536C59.872 57.2594 59.9688 57.1418 60.0388 57.0084C60.1087 56.8749 60.1502 56.7285 60.1607 56.5782C60.1712 56.4279 60.1505 56.2772 60.0998 56.1353C59.1445 53.7047 59.289 51.5036 60.4984 49.4564C62.7914 45.7838 70.0302 40.2297 92.2303 38.0787C94.8599 37.8288 97.2324 37.569 99.5037 37.3514C107.698 36.5263 114.933 35.9865 128.264 37.6258C142.214 39.3517 155.384 45.2213 164.194 54.6013C174.647 65.7063 183.627 78.1618 186.742 94.7539C189.822 111.078 188.683 130.393 184.926 148.513C184.86 148.831 184.907 149.162 185.058 149.449C185.209 149.737 185.455 149.963 185.754 150.088C185.898 150.136 186.05 150.153 186.2 150.137C186.351 150.122 186.496 150.074 186.626 149.998C186.757 149.921 186.869 149.817 186.956 149.694C187.043 149.57 187.103 149.429 187.131 149.281C191.132 130.997 192.164 111.217 189.092 94.5849C186.042 78.1766 176.961 63.6574 165.745 52.9205C155.501 43.1462 142.361 36.9607 128.301 35.2938C114.68 33.6266 107.337 34.2024 98.9907 35.078C96.7199 35.3084 94.36 35.5614 91.7432 35.8108C73.1207 37.6516 61.9882 42.4169 58.3075 48.355C57.5172 49.6193 57.0507 51.0587 56.9493 52.5462C56.8479 54.0337 57.1146 55.5233 57.7259 56.8831C57.8506 57.133 58.0604 57.3302 58.3176 57.4393Z" fill="#F1EFEB"/>
<path d="M180.079 107.998C180.297 108.25 180.605 108.406 180.936 108.436C181.088 108.444 181.24 108.42 181.381 108.365C181.523 108.31 181.651 108.225 181.758 108.117C181.864 108.009 181.947 107.879 181.999 107.736C182.052 107.594 182.074 107.442 182.063 107.29C181.511 87.5614 173.848 71.7964 161.717 59.0255C161.509 58.7637 161.208 58.5931 160.877 58.55C160.545 58.5069 160.21 58.5947 159.943 58.7947C159.829 58.9066 159.738 59.0407 159.677 59.1886C159.615 59.3365 159.585 59.4951 159.586 59.6552C159.588 59.8153 159.622 59.9735 159.686 60.1201C159.75 60.2667 159.844 60.3988 159.96 60.5084C171.406 72.6173 179.09 88.4201 179.706 107.106C179.722 107.438 179.854 107.754 180.079 107.998Z" fill="#F1EFEB"/>
<path d="M53.4657 65.2435C53.4657 65.2435 53.5042 65.2422 53.5246 65.2735C57.566 67.4697 64.8302 62.6144 71.9309 58.0283C72.9094 57.3955 73.3921 57.0761 74.3647 56.4564C84.9656 49.791 95.0981 44.0095 109.058 43.8923C125.052 43.7331 139.921 45.1301 152.544 54.3069C152.662 54.4241 152.805 54.5142 152.962 54.571C153.119 54.6278 153.286 54.6499 153.452 54.6359C153.618 54.6219 153.78 54.5721 153.925 54.4898C154.07 54.4076 154.195 54.2948 154.293 54.1593C154.39 54.0239 154.457 53.869 154.489 53.7053C154.521 53.5416 154.517 53.3728 154.477 53.2107C154.437 53.0487 154.363 52.8972 154.259 52.7666C154.156 52.636 154.025 52.5294 153.876 52.4542C141.56 43.4331 125.239 40.6059 108.69 41.5558C93.5191 42.4361 83.7722 47.6965 72.9037 54.5964C71.9249 55.2228 71.4353 55.5296 70.4568 56.1623C64.919 59.7669 57.4427 64.7905 54.7449 63.3479C53.9914 62.9324 52.8373 61.3887 53.5082 56.0161C53.5194 55.8619 53.4998 55.7071 53.4504 55.5606C53.401 55.4142 53.3229 55.2791 53.2206 55.1632C53.1183 55.0473 52.9939 54.9531 52.8547 54.8859C52.7155 54.8188 52.5643 54.78 52.41 54.772C52.1008 54.7303 51.7875 54.8105 51.5366 54.9959C51.2856 55.1812 51.1168 55.457 51.0658 55.7648C50.4652 60.955 51.1984 63.9843 53.4657 65.2435Z" fill="#F1EFEB"/>
<path d="M173.924 164.413C174.04 164.578 174.197 164.71 174.381 164.795C174.516 164.858 174.664 164.891 174.813 164.893C174.963 164.894 175.111 164.864 175.248 164.804C175.385 164.743 175.508 164.654 175.608 164.543C175.707 164.432 175.783 164.3 175.828 164.157C181.58 148.135 182.987 131.589 182.564 116.093C182.56 115.766 182.439 115.45 182.223 115.203C182.006 114.957 181.709 114.796 181.385 114.75C181.232 114.737 181.079 114.757 180.935 114.808C180.791 114.86 180.659 114.942 180.55 115.049C180.441 115.156 180.356 115.285 180.301 115.428C180.246 115.571 180.222 115.724 180.231 115.877C180.606 131.073 179.267 147.371 173.744 163.187C173.673 163.391 173.653 163.608 173.684 163.822C173.715 164.035 173.797 164.238 173.924 164.413Z" fill="#F1EFEB"/>
<path d="M159.944 179.676C160.023 179.792 160.125 179.889 160.244 179.961C160.365 180.044 160.502 180.1 160.647 180.125C160.791 180.15 160.94 180.144 161.081 180.106C161.223 180.069 161.355 180.001 161.469 179.908C161.582 179.815 161.674 179.698 161.738 179.566C172.943 159.531 175.592 139.377 176.084 119.572C176.085 119.243 175.966 118.925 175.751 118.677C175.535 118.428 175.237 118.267 174.911 118.221C174.759 118.211 174.605 118.232 174.462 118.285C174.318 118.338 174.188 118.421 174.079 118.528C173.97 118.635 173.885 118.764 173.83 118.907C173.774 119.05 173.75 119.202 173.758 119.355C173.995 138.524 170.427 159.546 159.855 178.287C159.735 178.502 159.679 178.748 159.695 178.995C159.711 179.241 159.797 179.478 159.944 179.676Z" fill="#F1EFEB"/>
<path d="M46.0063 193.338C46.0941 193.416 46.1972 193.474 46.3091 193.51C46.421 193.546 46.5391 193.558 46.6559 193.545C57.6067 192.953 64.8683 191.552 76.7883 189.192C78.153 188.937 78.8287 188.803 80.1938 188.56C95.9065 185.978 111.577 181.702 126.818 174.117C142.476 166.33 163.906 152.38 168.871 135.346C168.944 135.034 168.902 134.706 168.753 134.422C168.603 134.138 168.356 133.918 168.057 133.803C167.913 133.76 167.762 133.747 167.613 133.763C167.463 133.779 167.319 133.825 167.188 133.898C167.056 133.971 166.941 134.07 166.848 134.188C166.755 134.306 166.687 134.441 166.647 134.586C161.621 151.18 140.776 164.6 125.927 172.024C111.077 179.448 95.5392 183.828 80.0568 186.389C78.6986 186.644 78.0163 186.771 76.6393 187.04C63.4263 189.685 56.7614 190.724 46.8796 191.405C46.5866 191.433 46.3122 191.561 46.1023 191.768C45.8924 191.974 45.7598 192.246 45.7268 192.539C45.7047 192.685 45.7186 192.834 45.7674 192.973C45.8161 193.112 45.8981 193.237 46.0063 193.338Z" fill="#F1EFEB"/>
<path d="M146.176 191.401C146.229 191.469 146.29 191.532 146.356 191.587C146.468 191.678 146.598 191.746 146.737 191.785C146.876 191.824 147.022 191.834 147.165 191.815C147.309 191.795 147.446 191.746 147.57 191.671C147.693 191.595 147.8 191.496 147.883 191.377C154.737 182.139 158.731 171.939 162.03 162.907C163.472 158.971 164.805 155.217 166.275 151.678C166.393 151.379 166.399 151.049 166.291 150.747C166.183 150.445 165.969 150.192 165.689 150.036C165.554 149.97 165.408 149.932 165.258 149.926C165.108 149.919 164.959 149.943 164.819 149.997C164.679 150.051 164.552 150.134 164.446 150.239C164.339 150.345 164.256 150.471 164.201 150.61C162.728 154.247 161.408 157.999 159.961 161.988C156.551 171.312 152.823 180.867 146.212 189.929C146.056 190.141 145.969 190.396 145.962 190.659C145.956 190.923 146.031 191.181 146.176 191.401Z" fill="#F1EFEB"/>
<path d="M52.9775 198.586C53.065 198.664 53.1682 198.723 53.2801 198.759C53.3921 198.795 53.5103 198.806 53.6271 198.793C72.5955 198.166 92.3238 194.429 111.403 188.746C126.151 184.356 141.925 177.277 154.129 165.455C154.323 165.219 154.432 164.925 154.438 164.62C154.445 164.314 154.348 164.016 154.164 163.772C154.068 163.66 153.95 163.57 153.817 163.507C153.684 163.444 153.539 163.409 153.392 163.405C153.245 163.402 153.099 163.429 152.963 163.485C152.827 163.542 152.704 163.626 152.603 163.733C141.01 175.262 125.317 182.255 110.946 186.579C92.1352 192.247 72.6797 196.07 53.9152 196.658C53.6235 196.682 53.3488 196.804 53.1366 197.006C52.9244 197.208 52.7875 197.476 52.7486 197.766C52.7203 197.911 52.7263 198.061 52.766 198.203C52.8058 198.345 52.8782 198.476 52.9775 198.586Z" fill="#F1EFEB"/>
<path d="M54.8519 205.092C54.9735 205.218 55.1353 205.299 55.3096 205.319C63.8963 206.451 80.7536 203.037 88.9284 201.673C89.4518 201.59 89.7261 201.542 90.2619 201.445C102.209 199.475 114.6 195.242 124.12 191.865C137.818 187.032 144.594 184.441 150.35 176.784C150.531 176.535 150.617 176.229 150.591 175.923C150.566 175.616 150.431 175.329 150.212 175.113C150.101 175.015 149.971 174.941 149.83 174.896C149.689 174.852 149.54 174.837 149.393 174.853C149.246 174.869 149.104 174.916 148.977 174.991C148.849 175.065 148.738 175.166 148.652 175.285C143.292 182.376 137.096 184.823 123.534 189.684C114.141 193.037 101.916 197.264 90.1817 199.246C89.6326 199.33 89.3838 199.371 88.8473 199.448C80.7894 200.846 64.2222 204.294 55.9309 203.165C55.6424 203.143 55.3552 203.222 55.1187 203.389C54.8822 203.556 54.7113 203.8 54.6352 204.079C54.5702 204.251 54.556 204.437 54.5945 204.617C54.6329 204.797 54.7223 204.962 54.8519 205.092Z" fill="#F1EFEB"/>
<path d="M111.671 211.053C111.797 211.211 111.969 211.325 112.163 211.38C112.357 211.435 112.564 211.428 112.754 211.36C132.251 204.801 139.074 198.414 142.54 190.281C142.665 190.006 142.679 189.694 142.58 189.408C142.482 189.123 142.277 188.886 142.009 188.747C141.874 188.692 141.73 188.664 141.584 188.665C141.438 188.667 141.294 188.698 141.16 188.756C141.026 188.814 140.906 188.898 140.805 189.004C140.704 189.11 140.626 189.234 140.574 189.371C137.274 197.112 131.098 202.756 112.298 209.232C112.02 209.337 111.786 209.534 111.638 209.791C111.489 210.048 111.434 210.349 111.482 210.642C111.525 210.788 111.588 210.926 111.671 211.053Z" fill="#F1EFEB"/>
<path d="M54.7389 211.51C54.8516 211.632 55.0052 211.709 55.1705 211.725C68.0834 213.707 83.5394 210.775 97.8782 207.665C111.14 204.78 123.692 200.567 131.938 195.509C132.194 195.348 132.382 195.098 132.465 194.807C132.548 194.516 132.521 194.204 132.388 193.932C132.325 193.804 132.236 193.691 132.127 193.6C132.017 193.509 131.889 193.442 131.751 193.405C131.614 193.367 131.47 193.36 131.329 193.382C131.188 193.405 131.054 193.457 130.935 193.536C122.971 198.558 110.721 202.619 97.6895 205.483C83.677 208.561 68.5805 211.493 55.8967 209.632C55.6088 209.616 55.3233 209.693 55.0828 209.852C54.8422 210.011 54.6594 210.244 54.5614 210.515C54.4919 210.68 54.4718 210.862 54.5032 211.039C54.5347 211.215 54.6166 211.379 54.7389 211.51Z" fill="#F1EFEB"/>
<path d="M54.2751 218.332C54.3891 218.45 54.5349 218.532 54.6946 218.568C70.4305 221.378 89.5891 220.506 106.03 213.583C106.298 213.456 106.514 213.24 106.641 212.972C106.768 212.704 106.799 212.401 106.727 212.113C106.684 211.986 106.614 211.871 106.523 211.773C106.432 211.675 106.321 211.598 106.198 211.545C106.076 211.493 105.943 211.467 105.809 211.469C105.676 211.471 105.544 211.501 105.423 211.557C89.3548 218.306 70.7379 219.241 55.4726 216.485C55.1888 216.46 54.9047 216.529 54.6651 216.683C54.4254 216.838 54.2438 217.067 54.1489 217.336C54.069 217.496 54.0384 217.676 54.0608 217.853C54.0833 218.031 54.1579 218.197 54.2751 218.332Z" fill="#F1EFEB"/>
<path d="M65.1538 53.6975C65.3908 53.8338 65.6671 53.8856 65.9374 53.8442C66.2077 53.8029 66.456 53.6709 66.6414 53.47C69.382 50.2755 73.698 47.8518 80.6813 45.8573C80.8178 45.8252 80.9458 45.7641 81.0568 45.6783C81.1677 45.5925 81.259 45.484 81.3244 45.3599C81.3899 45.2358 81.4279 45.0991 81.4361 44.9591C81.4443 44.8191 81.4224 44.6789 81.3719 44.5481C81.2443 44.2747 81.0244 44.055 80.7509 43.9276C80.4773 43.8002 80.1677 43.7732 79.8762 43.8515C72.4427 45.9971 67.7812 48.6323 64.8153 52.1625C64.729 52.2728 64.6664 52.3998 64.6312 52.5353C64.5961 52.6709 64.5893 52.8123 64.6112 52.9507C64.6331 53.089 64.6833 53.2213 64.7586 53.3394C64.8339 53.4575 64.9327 53.5588 65.0488 53.6371C65.0816 53.6608 65.1168 53.6811 65.1538 53.6975Z" fill="#F1EFEB"/>
</g>
</g>
<defs>
<clipPath id="clip0_39_1221">
<rect width="214.893" height="211.801" fill="white" transform="translate(211.66) rotate(87.9127)"/>
</clipPath>
</defs>
</svg>
