<svg width="233" height="311" viewBox="0 0 233 311" fill="none" xmlns="http://www.w3.org/2000/svg">
<path d="M219.225 165.063L208.364 188.268C207.752 189.541 206.477 190.42 205.001 190.42C203.034 190.42 201.422 188.86 201.263 186.879L194.512 107.967L180.057 173.104C179.743 174.432 178.668 175.422 177.351 175.599C176.037 175.773 174.752 175.099 174.119 173.896L167.068 160.5C163.583 165.229 156.83 171.841 144.839 171.841H87.4186L88.2043 165.231H144.839C156.867 165.231 161.997 156.701 163.928 153.491C164.53 152.491 164.891 151.888 165.609 151.398C166.36 150.887 167.287 150.723 168.158 150.948C169.031 151.173 169.772 151.766 170.201 152.581L175.792 163.207L191.406 93.9233C191.881 91.9162 193.675 90.5711 195.691 90.6993C197.691 90.8422 199.299 92.45 199.499 94.5054L206.795 177.461L216.248 156.661C216.715 155.738 217.578 155.097 218.576 154.929C219.576 154.763 220.59 155.089 221.317 155.812C221.937 156.425 222.341 157.228 222.954 158.443C224.149 160.816 226.376 165.231 229.274 165.231H233V18H1.61014V256.301H233V171.841H229.274C224.443 171.841 221.266 168.312 219.225 165.063ZM226.661 294.199L226.67 294.123C227.147 290.122 224.719 287.494 221.633 287.494C218.472 287.494 215.546 290.004 215.054 294.123L215.046 294.199C214.568 298.203 216.919 300.83 220.043 300.83C223.127 300.83 226.188 298.161 226.661 294.199ZM210.399 294.199L210.407 294.123C211.225 287.261 216.221 283.377 221.019 283.377C224.333 283.377 226.227 285.065 227.441 287.024L227.823 283.808H232.431L229.963 304.514H225.355L225.766 301.063C224.025 303.219 221.725 304.947 218.448 304.947C213.727 304.947 209.581 301.063 210.399 294.199ZM202.938 294.199L202.946 294.123C203.424 290.122 201.108 287.494 197.985 287.494C194.863 287.494 191.802 290.162 191.328 294.123L191.32 294.199C190.849 298.161 193.271 300.83 196.395 300.83C199.557 300.83 202.45 298.278 202.938 294.199ZM188.065 283.808H192.673L192.263 287.261C194.006 285.103 196.306 283.377 199.579 283.377C204.303 283.377 208.452 287.221 207.63 294.123L207.622 294.199C206.801 301.063 201.769 304.947 197.008 304.947C193.659 304.947 191.769 303.219 190.59 301.298L189.457 310.79H184.847L188.065 283.808ZM163.609 296.984L165.181 283.808H169.788L168.386 295.573C168.003 298.789 169.348 300.592 172.09 300.592C174.756 300.592 176.847 298.711 177.229 295.493L178.623 283.808H183.27L180.802 304.514H176.156L176.537 301.298C175.011 303.259 172.943 304.947 169.819 304.947C165.289 304.947 163.034 301.809 163.609 296.984ZM155.312 284.827C155.569 282.673 154.052 281.337 151.042 281.337H144.302L143.435 288.634H149.83C152.84 288.634 155.001 287.417 155.303 284.905L155.312 284.827ZM150.373 292.711H142.947L142.049 300.239H149.816C153.018 300.239 155.114 298.947 155.41 296.475L155.418 296.395C155.693 294.083 154.067 292.711 150.373 292.711ZM140.206 277.064H152.163C155.21 277.064 157.505 277.926 158.84 279.495C159.879 280.71 160.307 282.2 160.089 284.044L160.081 284.121C159.685 287.417 157.648 289.182 155.542 290.239C158.534 291.338 160.487 293.182 160.042 296.906L160.032 296.984C159.448 301.887 155.212 304.514 149.271 304.514H136.933L140.206 277.064ZM115.57 287.885H113.02L113.493 283.928H116.044L116.228 282.398C116.497 280.122 117.274 278.398 118.472 277.299C119.668 276.202 121.219 275.652 123.201 275.652C124.801 275.652 125.876 275.887 126.866 276.202L126.39 280.202C125.513 279.889 124.737 279.691 123.748 279.691C121.997 279.691 120.964 280.672 120.707 282.829L120.57 283.966H125.905L125.435 287.885H120.178L118.197 304.514H113.591L115.57 287.885ZM105.442 294.279L105.453 294.199C105.887 290.555 103.695 287.534 100.077 287.534C96.3835 287.534 93.6673 290.515 93.2367 294.123L93.2286 294.199C92.798 297.807 94.9897 300.83 98.5692 300.83C102.302 300.83 105.016 297.849 105.442 294.279ZM88.6104 294.279L88.6206 294.199C89.3267 288.281 94.4795 283.377 100.651 283.377C106.82 283.377 110.779 288.201 110.071 294.123L110.063 294.199C109.361 300.084 104.206 304.985 97.9978 304.985C91.8654 304.985 87.9104 300.161 88.6104 294.279ZM64.9584 298.789L66.2583 287.885H63.7074L64.1931 283.808H66.744L67.4215 278.123H72.0295L71.352 283.808H76.762L76.2742 287.885H70.8663L69.6561 298.043C69.4357 299.886 70.2622 300.632 71.8234 300.632C72.8519 300.632 73.7947 300.397 74.7641 299.926L74.3029 303.81C73.0784 304.476 71.7765 304.865 70.0255 304.865C66.6359 304.865 64.4176 303.337 64.9584 298.789ZM51.0182 283.808H55.6282L55.0731 288.476C56.6975 285.378 59.2729 283.26 62.7973 283.415L62.1973 288.436H61.9299C57.8954 288.436 54.7547 291.143 54.0997 296.633L53.1609 304.514H48.5509L51.0182 283.808ZM40.4146 294.199L40.4227 294.123C40.9003 290.122 38.4718 287.494 35.3862 287.494C32.2251 287.494 29.3008 290.004 28.809 294.123L28.8008 294.199C28.3212 298.203 30.6742 300.83 33.7965 300.83C36.8821 300.83 39.9431 298.161 40.4146 294.199ZM24.152 294.199L24.1602 294.123C24.9805 287.261 29.9742 283.377 34.7719 283.377C38.0861 283.377 39.9799 285.065 41.1941 287.024L41.5757 283.808H46.1837L43.7165 304.514H39.1085L39.5207 301.063C37.7779 303.219 35.4781 304.947 32.2027 304.947C27.4804 304.947 23.3337 301.063 24.152 294.199ZM11.7015 291.338C15.2422 291.338 17.6931 289.298 18.0339 286.437L18.0441 286.357C18.4278 283.144 16.383 281.456 12.879 281.456H7.43234L6.25483 291.338H11.7015ZM3.27333 277.064H13.7831C20.0297 277.064 23.4786 280.71 22.8194 286.24L22.8092 286.318C22.0766 292.475 16.8932 295.691 11.0301 295.691H5.73445L4.68348 304.514H0L3.27333 277.064Z" fill="#0079C8"/>
<path d="M114.76 142.704C121.238 142.704 126.699 139.369 127.501 132.639L127.515 132.518C128.203 126.759 123.329 124.634 118.97 123.18C115.464 121.969 112.224 120.998 112.507 118.632L112.52 118.51C112.738 116.692 114.485 115.357 117.252 115.357C119.842 115.357 122.886 116.511 125.666 118.39L129.113 113.176C126.084 110.931 122.011 109.538 118.123 109.538C111.942 109.538 106.612 113.237 105.889 119.298L105.875 119.42C105.144 125.544 110.038 127.486 114.471 128.821C117.983 129.97 121.18 130.822 120.885 133.306L120.868 133.428C120.617 135.55 118.693 136.883 115.63 136.883C112.45 136.883 109.018 135.55 105.914 132.942L102.138 137.915C105.648 141.069 110.344 142.704 114.76 142.704ZM80.3598 142.765C85.1882 142.765 88.3839 140.159 90.7451 137.127L90.1532 142.099H97.3386L101.155 110.084H93.9694L91.8164 128.152C91.2246 133.123 87.9942 136.036 83.8698 136.036C79.6313 136.036 77.5477 133.245 78.1415 128.274L80.3088 110.084H73.1846L70.7561 130.458C69.8664 137.915 73.3519 142.765 80.3598 142.765ZM55.3527 142.099H62.4789L67.7563 97.8335H60.63L55.3527 142.099ZM28.158 121.725L29.9804 106.444H38.4024C43.8185 106.444 46.9817 109.05 46.3878 114.025L46.3735 114.145C45.845 118.573 42.0574 121.725 36.5801 121.725H28.158ZM18.487 142.099H25.7295L27.356 128.455H35.5413C44.6103 128.455 52.6222 123.482 53.7569 113.964L53.7712 113.842C54.7915 105.292 49.4571 99.6536 39.8003 99.6536H23.548L18.487 142.099ZM121.636 67.9203C122.878 62.9477 126.354 59.4904 130.709 59.4904C135.421 59.4904 137.686 63.1915 137.594 67.9203H121.636ZM128.266 86.8985C133.978 86.8985 138.325 84.5341 141.7 80.8961L137.976 77.0752C135.206 79.5615 132.574 80.8961 129.098 80.8961C124.505 80.8961 121.262 77.9852 121.117 72.771H143.965C144.112 72.0438 144.249 71.3775 144.328 70.7092C145.426 61.4912 141.378 53.488 131.484 53.488C122.593 53.488 115.397 61.0078 114.303 70.1628L114.291 70.2847C113.111 80.1668 119.256 86.8985 128.266 86.8985ZM92.9041 86.1713H100.028L101.481 73.9836C102.494 65.4949 107.348 61.3084 113.591 61.3084H114.003L114.928 53.549C109.481 53.3052 105.5 56.5796 102.983 61.3714L103.844 54.1564H96.7203L92.9041 86.1713ZM70.6725 80.4715C65.8441 80.4715 62.2075 76.409 62.9442 70.2237L62.9585 70.1018C63.7177 63.7358 68.242 59.854 73.1315 59.854C77.9007 59.854 81.6536 63.9187 80.9169 70.1018L80.9026 70.2237C80.172 76.348 75.4416 80.4715 70.6725 80.4715ZM68.2073 86.8396C73.2703 86.8396 76.8253 84.1684 79.519 80.8372L78.8843 86.1713H86.0085L89.8247 54.1564H82.7005L82.1067 59.1268C80.2312 56.0941 77.3048 53.488 72.1826 53.488C64.7625 53.488 57.0404 59.4904 55.7752 70.1018L55.7609 70.2237C54.4956 80.8372 60.9035 86.8396 68.2073 86.8396ZM35.6903 86.8985C43.4043 86.8985 48.4612 83.9897 53.31 79.3787L49.2367 74.5301C45.2981 77.9264 41.8145 79.986 36.7495 79.986C28.86 79.986 23.95 73.2565 24.9398 64.9485L24.9541 64.8266C25.9458 56.5187 32.5088 49.85 40.3411 49.85C45.0532 49.85 48.3347 51.9727 51.2549 55.1252L56.5649 49.6083C53.0814 45.7265 48.8142 42.9985 41.2187 42.9985C28.7355 42.9985 18.7829 52.8806 17.3442 64.9485L17.3299 65.0704C15.8769 77.2581 23.6766 86.8985 35.6903 86.8985ZM232.943 165.23V171.84L229.214 171.838C224.386 171.838 221.207 168.309 219.166 165.062L208.305 188.265C207.693 189.54 206.418 190.417 204.942 190.417C202.975 190.417 201.363 188.859 201.203 186.875L194.453 107.966L179.998 173.101C179.686 174.429 178.609 175.421 177.292 175.598C175.98 175.772 174.692 175.096 174.06 173.896L167.009 160.497C163.523 165.228 156.771 171.838 144.781 171.838H87.3595L88.1452 165.23H144.781C156.807 165.23 161.938 156.7 163.868 153.488C164.47 152.49 164.832 151.887 165.55 151.397C166.301 150.884 167.229 150.722 168.099 150.947C168.972 151.172 169.713 151.765 170.142 152.578L175.735 163.204L191.347 93.9223C191.822 91.9152 193.616 90.568 195.632 90.6962C197.632 90.8412 199.24 92.449 199.44 94.5024L206.736 177.46L216.189 156.66C216.656 155.737 217.519 155.096 218.517 154.928C219.517 154.76 220.531 155.088 221.258 155.808C221.878 156.424 222.282 157.227 222.894 158.442C224.09 160.813 226.317 165.23 229.214 165.23H232.943Z" fill="white"/>
</svg>
