<svg width="24" height="32" viewBox="0 0 24 32" fill="none" xmlns="http://www.w3.org/2000/svg">
<path d="M11.9997 0C5.38288 0 0 5.39388 0 12.0217C0 21.9485 11.2007 31.4803 11.6777 31.8813C11.7668 31.9572 11.8799 31.9993 11.997 32C12.1141 32.0007 12.2277 31.9601 12.3177 31.8853C12.7947 31.4913 23.9994 22.1235 23.9994 12.0217C23.9994 5.39388 18.6166 0 11.9997 0ZM12.0017 30.8373C10.1608 29.1923 0.999977 20.5785 0.999977 12.0217C0.999977 5.94386 5.93486 0.999977 11.9997 0.999977C18.0646 0.999977 22.9995 5.94386 22.9995 12.0217C22.9995 20.7235 13.8477 29.2143 12.0017 30.8373Z" fill="white"/>
<path d="M11.9999 6C8.69094 6 6 8.69094 6 11.9999C6 15.3088 8.69094 17.9997 11.9999 17.9997C15.3088 17.9997 17.9997 15.3088 17.9997 11.9999C17.9997 8.69094 15.3088 6 11.9999 6ZM11.9999 16.9997C9.24292 16.9997 6.99998 14.7568 6.99998 11.9999C6.99998 9.24292 9.24292 6.99998 11.9999 6.99998C14.7568 6.99998 16.9997 9.24292 16.9997 11.9999C16.9997 14.7568 14.7568 16.9997 11.9999 16.9997Z" fill="white"/>
</svg>
